<?xml version="1.0" encoding="UTF-8" standalone="no"?>
<!DOCTYPE svg PUBLIC "-//W3C//DTD SVG 1.1//EN"
 "http://www.w3.org/Graphics/SVG/1.1/DTD/svg11.dtd">
<!-- Generated by graphviz version 2.43.0 (0)
 -->
<!-- Title: concurrent_queue::size Pages: 1 -->
<svg width="387pt" height="66pt"
 viewBox="0.00 0.00 387.00 66.00" xmlns="http://www.w3.org/2000/svg" xmlns:xlink="http://www.w3.org/1999/xlink">
<g id="graph0" class="graph" transform="scale(1 1) rotate(0) translate(4 62)">
<title>concurrent_queue::size</title>
<polygon fill="white" stroke="transparent" points="-4,4 -4,-62 383,-62 383,4 -4,4"/>
<!-- Node1 -->
<g id="node1" class="node">
<title>Node1</title>
<g id="a_node1"><a xlink:title=" ">
<polygon fill="#bfbfbf" stroke="black" points="250,-19.5 250,-38.5 379,-38.5 379,-19.5 250,-19.5"/>
<text text-anchor="middle" x="314.5" y="-26.5" font-family="Helvetica,sans-Serif" font-size="10.00">concurrent_queue::size</text>
</a>
</g>
</g>
<!-- Node2 -->
<g id="node2" class="node">
<title>Node2</title>
<g id="a_node2"><a xlink:href="post_8cpp.html#a461409c8813c2a82ba63fde987c0e537" target="_top" xlink:title=" ">
<polygon fill="white" stroke="black" points="77,-38.5 77,-57.5 214,-57.5 214,-38.5 77,-38.5"/>
<text text-anchor="middle" x="145.5" y="-45.5" font-family="Helvetica,sans-Serif" font-size="10.00">httpd_post_receive_data</text>
</a>
</g>
</g>
<!-- Node1&#45;&gt;Node2 -->
<g id="edge1" class="edge">
<title>Node1&#45;&gt;Node2</title>
<path fill="none" stroke="midnightblue" d="M239.9,-37.37C231.32,-38.35 222.6,-39.34 214.1,-40.31"/>
<polygon fill="midnightblue" stroke="midnightblue" points="240.35,-40.85 249.89,-36.24 239.56,-33.89 240.35,-40.85"/>
</g>
<!-- Node3 -->
<g id="node3" class="node">
<title>Node3</title>
<g id="a_node3"><a xlink:href="namespaceemulation.html#af40bee66d457d56de0b3b721199a7e10" target="_top" xlink:title=" ">
<polygon fill="white" stroke="black" points="101.5,-0.5 101.5,-19.5 189.5,-19.5 189.5,-0.5 101.5,-0.5"/>
<text text-anchor="middle" x="145.5" y="-7.5" font-family="Helvetica,sans-Serif" font-size="10.00">emulation::run</text>
</a>
</g>
</g>
<!-- Node1&#45;&gt;Node3 -->
<g id="edge2" class="edge">
<title>Node1&#45;&gt;Node3</title>
<path fill="none" stroke="midnightblue" d="M239.89,-20.63C222.76,-18.68 205.06,-16.66 189.74,-14.92"/>
<polygon fill="midnightblue" stroke="midnightblue" points="239.56,-24.11 249.89,-21.76 240.35,-17.15 239.56,-24.11"/>
</g>
<!-- Node4 -->
<g id="node4" class="node">
<title>Node4</title>
<g id="a_node4"><a xlink:href="riscv__online_8cpp.html#ae66f6b31b5ad750f1fe042a706a4e3d4" target="_top" xlink:title=" ">
<polygon fill="white" stroke="black" points="0,-0.5 0,-19.5 41,-19.5 41,-0.5 0,-0.5"/>
<text text-anchor="middle" x="20.5" y="-7.5" font-family="Helvetica,sans-Serif" font-size="10.00">main</text>
</a>
</g>
</g>
<!-- Node3&#45;&gt;Node4 -->
<g id="edge3" class="edge">
<title>Node3&#45;&gt;Node4</title>
<path fill="none" stroke="midnightblue" d="M91.19,-10C73.45,-10 54.79,-10 41.25,-10"/>
<polygon fill="midnightblue" stroke="midnightblue" points="91.48,-13.5 101.48,-10 91.48,-6.5 91.48,-13.5"/>
</g>
</g>
</svg>
