<?xml version="1.0" encoding="UTF-8" standalone="no"?>
<!DOCTYPE svg PUBLIC "-//W3C//DTD SVG 1.1//EN"
 "http://www.w3.org/Graphics/SVG/1.1/DTD/svg11.dtd">
<!-- Generated by graphviz version 2.43.0 (0)
 -->
<!-- Title: concurrent_queue::pop Pages: 1 -->
<svg width="337pt" height="27pt"
 viewBox="0.00 0.00 337.00 27.00" xmlns="http://www.w3.org/2000/svg" xmlns:xlink="http://www.w3.org/1999/xlink">
<g id="graph0" class="graph" transform="scale(1 1) rotate(0) translate(4 23)">
<title>concurrent_queue::pop</title>
<!-- Node1 -->
<g id="Node000001" class="node">
<title>Node1</title>
<g id="a_Node000001"><a xlink:title="Pops the first element of the queue, pointed to by front().">
<polygon fill="#999999" stroke="#666666" points="329,-19 201,-19 201,0 329,0 329,-19"/>
<text text-anchor="middle" x="265" y="-7" font-family="Helvetica,sans-Serif" font-size="10.00">concurrent_queue::pop</text>
</a>
</g>
</g>
<!-- Node2 -->
<g id="Node000002" class="node">
<title>Node2</title>
<g id="a_Node000002"><a xlink:href="namespaceemulation.html#af40bee66d457d56de0b3b721199a7e10" target="_top" xlink:title=" ">
<polygon fill="white" stroke="#666666" points="165,-19 77,-19 77,0 165,0 165,-19"/>
<text text-anchor="middle" x="121" y="-7" font-family="Helvetica,sans-Serif" font-size="10.00">emulation::run</text>
</a>
</g>
</g>
<!-- Node1&#45;&gt;Node2 -->
<g id="edge1_Node000001_Node000002" class="edge">
<title>Node1&#45;&gt;Node2</title>
<g id="a_edge1_Node000001_Node000002"><a xlink:title=" ">
<path fill="none" stroke="#63b8ff" d="M190.72,-9.5C182.06,-9.5 173.43,-9.5 165.37,-9.5"/>
<polygon fill="#63b8ff" stroke="#63b8ff" points="190.89,-13 200.89,-9.5 190.89,-6 190.89,-13"/>
</a>
</g>
</g>
<!-- Node3 -->
<g id="Node000003" class="node">
<title>Node3</title>
<g id="a_Node000003"><a xlink:href="riscv__online_8cpp.html#ae66f6b31b5ad750f1fe042a706a4e3d4" target="_top" xlink:title=" ">
<polygon fill="white" stroke="#666666" points="41,-19 0,-19 0,0 41,0 41,-19"/>
<text text-anchor="middle" x="20.5" y="-7" font-family="Helvetica,sans-Serif" font-size="10.00">main</text>
</a>
</g>
</g>
<!-- Node2&#45;&gt;Node3 -->
<g id="edge2_Node000002_Node000003" class="edge">
<title>Node2&#45;&gt;Node3</title>
<g id="a_edge2_Node000002_Node000003"><a xlink:title=" ">
<path fill="none" stroke="#63b8ff" d="M66.57,-9.5C57.52,-9.5 48.67,-9.5 41.23,-9.5"/>
<polygon fill="#63b8ff" stroke="#63b8ff" points="66.8,-13 76.8,-9.5 66.8,-6 66.8,-13"/>
</a>
</g>
</g>
</g>
</svg>
