<?xml version="1.0" encoding="UTF-8" standalone="no"?>
<!DOCTYPE svg PUBLIC "-//W3C//DTD SVG 1.1//EN"
 "http://www.w3.org/Graphics/SVG/1.1/DTD/svg11.dtd">
<!-- Generated by graphviz version 2.43.0 (0)
 -->
<!-- Title: src/RoL Pages: 1 -->
<svg width="194pt" height="183pt"
 viewBox="0.00 0.00 194.00 183.00" xmlns="http://www.w3.org/2000/svg" xmlns:xlink="http://www.w3.org/1999/xlink">
<g id="graph0" class="graph" transform="scale(1 1) rotate(0) translate(4 179)">
<title>src/RoL</title>
<polygon fill="white" stroke="transparent" points="-4,4 -4,-179 190,-179 190,4 -4,4"/>
<g id="clust1" class="cluster">
<title>clusterdir_68267d1309a1af8e8297ef4c3efbcdba</title>
<g id="a_clust1"><a xlink:href="dir_68267d1309a1af8e8297ef4c3efbcdba.html" target="_top" xlink:title="src">
<polygon fill="#ddddee" stroke="black" points="8,-8 8,-167 178,-167 178,-8 8,-8"/>
<text text-anchor="middle" x="93" y="-155" font-family="Helvetica,sans-Serif" font-size="10.00">src</text>
</a>
</g>
</g>
<g id="clust2" class="cluster">
<title>clusterdir_744228610704725ebd5d7128a2bc9c58</title>
<g id="a_clust2"><a xlink:href="dir_744228610704725ebd5d7128a2bc9c58.html" target="_top">
<polygon fill="#eeeeff" stroke="black" points="16,-16 16,-140 170,-140 170,-16 16,-16"/>
</a>
</g>
</g>
<!-- dir_744228610704725ebd5d7128a2bc9c58 -->
<g id="node1" class="node">
<title>dir_744228610704725ebd5d7128a2bc9c58</title>
<text text-anchor="middle" x="135" y="-111.5" font-family="Helvetica,sans-Serif" font-size="10.00">RoL</text>
</g>
<!-- dir_5fca274dc9c249da2b341e62ce28fca5 -->
<g id="node2" class="node">
<title>dir_5fca274dc9c249da2b341e62ce28fca5</title>
<g id="a_node2"><a xlink:href="dir_5fca274dc9c249da2b341e62ce28fca5.html" target="_top" xlink:title="emulation">
<polygon fill="white" stroke="black" points="90,-132 24,-132 24,-96 90,-96 90,-132"/>
<text text-anchor="middle" x="57" y="-111.5" font-family="Helvetica,sans-Serif" font-size="10.00">emulation</text>
</a>
</g>
</g>
<!-- dir_3a565b59a567fc7e87e51d42f30a5252 -->
<g id="node3" class="node">
<title>dir_3a565b59a567fc7e87e51d42f30a5252</title>
<g id="a_node3"><a xlink:href="dir_3a565b59a567fc7e87e51d42f30a5252.html" target="_top" xlink:title="threaded">
<polygon fill="white" stroke="black" points="87,-60 27,-60 27,-24 87,-24 87,-60"/>
<text text-anchor="middle" x="57" y="-39.5" font-family="Helvetica,sans-Serif" font-size="10.00">threaded</text>
</a>
</g>
</g>
<!-- dir_5fca274dc9c249da2b341e62ce28fca5&#45;&gt;dir_3a565b59a567fc7e87e51d42f30a5252 -->
<g id="edge1" class="edge">
<title>dir_5fca274dc9c249da2b341e62ce28fca5&#45;&gt;dir_3a565b59a567fc7e87e51d42f30a5252</title>
<path fill="none" stroke="black" d="M57,-95.7C57,-87.98 57,-78.71 57,-70.11"/>
<polygon fill="black" stroke="black" points="60.5,-70.1 57,-60.1 53.5,-70.1 60.5,-70.1"/>
<g id="a_edge1&#45;headlabel"><a xlink:href="dir_000002_000003.html" target="_top" xlink:title="1">
<text text-anchor="middle" x="63.34" y="-71.2" font-family="Helvetica,sans-Serif" font-size="10.00">1</text>
</a>
</g>
</g>
</g>
</svg>
