<?xml version="1.0" encoding="UTF-8" standalone="no"?>
<!DOCTYPE svg PUBLIC "-//W3C//DTD SVG 1.1//EN"
 "http://www.w3.org/Graphics/SVG/1.1/DTD/svg11.dtd">
<!-- Generated by graphviz version 2.43.0 (0)
 -->
<!-- Title: src Pages: 1 -->
<svg width="166pt" height="148pt"
 viewBox="0.00 0.00 166.00 148.00" xmlns="http://www.w3.org/2000/svg" xmlns:xlink="http://www.w3.org/1999/xlink">
<g id="graph0" class="graph" transform="scale(1 1) rotate(0) translate(4 144)">
<title>src</title>
<polygon fill="white" stroke="transparent" points="-4,4 -4,-144 162,-144 162,4 -4,4"/>
<g id="clust1" class="cluster">
<title>clusterdir_68267d1309a1af8e8297ef4c3efbcdba</title>
<g id="a_clust1"><a xlink:href="dir_68267d1309a1af8e8297ef4c3efbcdba.html" target="_top">
<polygon fill="#eeeeff" stroke="black" points="8,-8 8,-132 150,-132 150,-8 8,-8"/>
</a>
</g>
</g>
<!-- dir_68267d1309a1af8e8297ef4c3efbcdba -->
<g id="node1" class="node">
<title>dir_68267d1309a1af8e8297ef4c3efbcdba</title>
<text text-anchor="middle" x="115" y="-103.5" font-family="Helvetica,sans-Serif" font-size="10.00">src</text>
</g>
<!-- dir_313caf1132e152dd9b58bea13a4052ca -->
<g id="node3" class="node">
<title>dir_313caf1132e152dd9b58bea13a4052ca</title>
<g id="a_node3"><a xlink:href="dir_313caf1132e152dd9b58bea13a4052ca.html" target="_top" xlink:title="utils">
<polygon fill="white" stroke="red" points="106,-52 52,-52 52,-16 106,-16 106,-52"/>
<text text-anchor="middle" x="79" y="-31.5" font-family="Helvetica,sans-Serif" font-size="10.00">utils</text>
</a>
</g>
</g>
<!-- dir_68267d1309a1af8e8297ef4c3efbcdba&#45;&gt;dir_313caf1132e152dd9b58bea13a4052ca -->
<g id="edge1" class="edge">
<title>dir_68267d1309a1af8e8297ef4c3efbcdba&#45;&gt;dir_313caf1132e152dd9b58bea13a4052ca</title>
<path fill="none" stroke="black" d="M106.1,-87.7C102,-79.73 97.05,-70.1 92.51,-61.26"/>
<polygon fill="black" stroke="black" points="95.48,-59.4 87.8,-52.1 89.26,-62.6 95.48,-59.4"/>
<g id="a_edge1&#45;headlabel"><a xlink:href="dir_000000_000002.html" target="_top" xlink:title="4">
<text text-anchor="middle" x="99.65" y="-58.79" font-family="Helvetica,sans-Serif" font-size="10.00">4</text>
</a>
</g>
</g>
<!-- dir_120ed4da3e3217b1e7fc0b4f48568e79 -->
<g id="node2" class="node">
<title>dir_120ed4da3e3217b1e7fc0b4f48568e79</title>
<g id="a_node2"><a xlink:href="dir_120ed4da3e3217b1e7fc0b4f48568e79.html" target="_top" xlink:title="test">
<polygon fill="white" stroke="black" points="70,-124 16,-124 16,-88 70,-88 70,-124"/>
<text text-anchor="middle" x="43" y="-103.5" font-family="Helvetica,sans-Serif" font-size="10.00">test</text>
</a>
</g>
</g>
<!-- dir_120ed4da3e3217b1e7fc0b4f48568e79&#45;&gt;dir_313caf1132e152dd9b58bea13a4052ca -->
<g id="edge2" class="edge">
<title>dir_120ed4da3e3217b1e7fc0b4f48568e79&#45;&gt;dir_313caf1132e152dd9b58bea13a4052ca</title>
<path fill="none" stroke="black" d="M51.9,-87.7C56,-79.73 60.95,-70.1 65.49,-61.26"/>
<polygon fill="black" stroke="black" points="68.74,-62.6 70.2,-52.1 62.52,-59.4 68.74,-62.6"/>
<g id="a_edge2&#45;headlabel"><a xlink:href="dir_000001_000002.html" target="_top" xlink:title="1">
<text text-anchor="middle" x="69.62" y="-64.59" font-family="Helvetica,sans-Serif" font-size="10.00">1</text>
</a>
</g>
</g>
</g>
</svg>
