<?xml version="1.0" encoding="UTF-8" standalone="no"?>
<!DOCTYPE svg PUBLIC "-//W3C//DTD SVG 1.1//EN"
 "http://www.w3.org/Graphics/SVG/1.1/DTD/svg11.dtd">
<!-- Generated by graphviz version 2.43.0 (0)
 -->
<!-- Title: src/RoL/emulation Pages: 1 -->
<svg width="106pt" height="167pt"
 viewBox="0.00 0.00 106.00 167.00" xmlns="http://www.w3.org/2000/svg" xmlns:xlink="http://www.w3.org/1999/xlink">
<g id="graph0" class="graph" transform="scale(1 1) rotate(0) translate(4 163)">
<title>src/RoL/emulation</title>
<polygon fill="white" stroke="transparent" points="-4,4 -4,-163 102,-163 102,4 -4,4"/>
<g id="clust1" class="cluster">
<title>clusterdir_744228610704725ebd5d7128a2bc9c58</title>
<g id="a_clust1"><a xlink:href="dir_744228610704725ebd5d7128a2bc9c58.html" target="_top" xlink:title="RoL">
<polygon fill="#ddddee" stroke="black" points="8,-8 8,-151 90,-151 90,-8 8,-8"/>
<text text-anchor="middle" x="49" y="-139" font-family="Helvetica,sans-Serif" font-size="10.00">RoL</text>
</a>
</g>
</g>
<!-- dir_3a565b59a567fc7e87e51d42f30a5252 -->
<g id="node1" class="node">
<title>dir_3a565b59a567fc7e87e51d42f30a5252</title>
<g id="a_node1"><a xlink:href="dir_3a565b59a567fc7e87e51d42f30a5252.html" target="_top" xlink:title="threaded">
<polygon fill="none" stroke="black" points="79,-52 19,-52 19,-16 79,-16 79,-52"/>
<text text-anchor="middle" x="49" y="-31.5" font-family="Helvetica,sans-Serif" font-size="10.00">threaded</text>
</a>
</g>
</g>
<!-- dir_5fca274dc9c249da2b341e62ce28fca5 -->
<g id="node2" class="node">
<title>dir_5fca274dc9c249da2b341e62ce28fca5</title>
<g id="a_node2"><a xlink:href="dir_5fca274dc9c249da2b341e62ce28fca5.html" target="_top" xlink:title="emulation">
<polygon fill="#eeeeff" stroke="black" points="82,-124 16,-124 16,-88 82,-88 82,-124"/>
<text text-anchor="middle" x="49" y="-103.5" font-family="Helvetica,sans-Serif" font-size="10.00">emulation</text>
</a>
</g>
</g>
<!-- dir_5fca274dc9c249da2b341e62ce28fca5&#45;&gt;dir_3a565b59a567fc7e87e51d42f30a5252 -->
<g id="edge1" class="edge">
<title>dir_5fca274dc9c249da2b341e62ce28fca5&#45;&gt;dir_3a565b59a567fc7e87e51d42f30a5252</title>
<path fill="none" stroke="black" d="M49,-87.7C49,-79.98 49,-70.71 49,-62.11"/>
<polygon fill="black" stroke="black" points="52.5,-62.1 49,-52.1 45.5,-62.1 52.5,-62.1"/>
<g id="a_edge1&#45;headlabel"><a xlink:href="dir_000002_000003.html" target="_top" xlink:title="1">
<text text-anchor="middle" x="55.34" y="-63.2" font-family="Helvetica,sans-Serif" font-size="10.00">1</text>
</a>
</g>
</g>
</g>
</svg>
