<?xml version="1.0" encoding="UTF-8" standalone="no"?>
<!DOCTYPE svg PUBLIC "-//W3C//DTD SVG 1.1//EN"
 "http://www.w3.org/Graphics/SVG/1.1/DTD/svg11.dtd">
<!-- Generated by graphviz version 2.43.0 (0)
 -->
<!-- Title: src/RoL/emulation/emulator.cpp Pages: 1 -->
<!--zoomable 274 -->
<svg id="main" version="1.1" xmlns="http://www.w3.org/2000/svg" xmlns:xlink="http://www.w3.org/1999/xlink" xml:space="preserve" onload="init(evt)">
<style type="text/css"><![CDATA[
.edge:hover path { stroke: red; }
.edge:hover polygon { stroke: red; fill: red; }
]]></style>
<script type="text/javascript"><![CDATA[
var edges = document.getElementsByTagName('g');
if (edges && edges.length) {
  for (var i=0;i<edges.length;i++) {
    if (edges[i].id.substr(0,4)=='edge') {
      edges[i].setAttribute('class','edge');
    }
  }
}
]]></script>
        <defs>
                <circle id="rim" cx="0" cy="0" r="7"/>
                <circle id="rim2" cx="0" cy="0" r="3.5"/>
                <g id="zoomPlus">
                        <use xlink:href="#rim" fill="#404040">
                                <set attributeName="fill" to="#808080" begin="zoomplus.mouseover" end="zoomplus.mouseout"/>
                        </use>
                        <path d="M-4,0h8M0,-4v8" fill="none" stroke="white" stroke-width="1.5" pointer-events="none"/>
                </g>
                <g id="zoomMin">
                        <use xlink:href="#rim" fill="#404040">
                                <set attributeName="fill" to="#808080" begin="zoomminus.mouseover" end="zoomminus.mouseout"/>
                        </use>
                        <path d="M-4,0h8" fill="none" stroke="white" stroke-width="1.5" pointer-events="none"/>
                </g>
                <g id="dirArrow">
                        <path fill="none" stroke="white" stroke-width="1.5" d="M0,-3.0v7 M-2.5,-0.5L0,-3.0L2.5,-0.5"/>
                </g>
               <g id="resetDef">
                       <use xlink:href="#rim2" fill="#404040">
                               <set attributeName="fill" to="#808080" begin="reset.mouseover" end="reset.mouseout"/>
                       </use>
               </g>
        </defs>

<script type="text/javascript">
var viewWidth = 747;
var viewHeight = 274;
var sectionId = 'dynsection-0';
</script>
<script xlink:href="svgpan.js"/>
<svg id="graph" class="graph">
<g id="viewport">
<title>src/RoL/emulation/emulator.cpp</title>
<polygon fill="white" stroke="transparent" points="-4,4 -4,-270 743.05,-270 743.05,4 -4,4"/>
<!-- Node1 -->
<g id="node1" class="node">
<title>Node1</title>
<g id="a_node1"><a xlink:title=" ">
<polygon fill="#bfbfbf" stroke="black" points="406.55,-246.5 406.55,-265.5 577.55,-265.5 577.55,-246.5 406.55,-246.5"/>
<text text-anchor="middle" x="492.05" y="-253.5" font-family="Helvetica,sans-Serif" font-size="10.00">src/RoL/emulation/emulator.cpp</text>
</a>
</g>
</g>
<!-- Node2 -->
<g id="node2" class="node">
<title>Node2</title>
<g id="a_node2"><a xlink:href="emulator_8hpp.html" target="_top" xlink:title=" ">
<polygon fill="white" stroke="black" points="289.55,-185 289.55,-204 444.55,-204 444.55,-185 289.55,-185"/>
<text text-anchor="middle" x="367.05" y="-192" font-family="Helvetica,sans-Serif" font-size="10.00">RoL/emulation/emulator.hpp</text>
</a>
</g>
</g>
<!-- Node1&#45;&gt;Node2 -->
<g id="edge1" class="edge">
<title>Node1&#45;&gt;Node2</title>
<path fill="none" stroke="midnightblue" d="M474.14,-246.48C453.16,-236.49 418.2,-219.85 393.95,-208.31"/>
<polygon fill="midnightblue" stroke="midnightblue" points="395.46,-205.15 384.92,-204.01 392.45,-211.47 395.46,-205.15"/>
</g>
<!-- Node4 -->
<g id="node4" class="node">
<title>Node4</title>
<g id="a_node4"><a xlink:title=" ">
<polygon fill="white" stroke="#bfbfbf" points="445.05,-0.5 445.05,-19.5 489.05,-19.5 489.05,-0.5 445.05,-0.5"/>
<text text-anchor="middle" x="467.05" y="-7.5" font-family="Helvetica,sans-Serif" font-size="10.00">string</text>
</a>
</g>
</g>
<!-- Node1&#45;&gt;Node4 -->
<g id="edge21" class="edge">
<title>Node1&#45;&gt;Node4</title>
<path fill="none" stroke="midnightblue" d="M491.16,-246.32C487.56,-211.18 474.03,-79.12 468.97,-29.76"/>
<polygon fill="midnightblue" stroke="midnightblue" points="472.43,-29.17 467.93,-19.58 465.46,-29.88 472.43,-29.17"/>
</g>
<!-- Node5 -->
<g id="node5" class="node">
<title>Node5</title>
<g id="a_node5"><a xlink:title=" ">
<polygon fill="white" stroke="#bfbfbf" points="385.55,-56.5 385.55,-75.5 432.55,-75.5 432.55,-56.5 385.55,-56.5"/>
<text text-anchor="middle" x="409.05" y="-63.5" font-family="Helvetica,sans-Serif" font-size="10.00">vector</text>
</a>
</g>
</g>
<!-- Node1&#45;&gt;Node5 -->
<g id="edge22" class="edge">
<title>Node1&#45;&gt;Node5</title>
<path fill="none" stroke="midnightblue" d="M488.26,-246.43C475.57,-217.68 434.32,-124.24 416.91,-84.81"/>
<polygon fill="midnightblue" stroke="midnightblue" points="420.09,-83.35 412.85,-75.62 413.69,-86.18 420.09,-83.35"/>
</g>
<!-- Node6 -->
<g id="node6" class="node">
<title>Node6</title>
<g id="a_node6"><a xlink:href="parse_8hpp.html" target="_top" xlink:title=" ">
<polygon fill="white" stroke="black" points="193.05,-118 193.05,-137 279.05,-137 279.05,-118 193.05,-118"/>
<text text-anchor="middle" x="236.05" y="-125" font-family="Helvetica,sans-Serif" font-size="10.00">RoL/parse.hpp</text>
</a>
</g>
</g>
<!-- Node1&#45;&gt;Node6 -->
<g id="edge19" class="edge">
<title>Node1&#45;&gt;Node6</title>
<path fill="none" stroke="midnightblue" d="M421.52,-246.48C368.8,-238.95 302.19,-226.57 280.05,-210 259.17,-194.38 247.09,-165.84 241.03,-147.02"/>
<polygon fill="midnightblue" stroke="midnightblue" points="244.33,-145.84 238.14,-137.24 237.62,-147.82 244.33,-145.84"/>
</g>
<!-- Node12 -->
<g id="node12" class="node">
<title>Node12</title>
<g id="a_node12"><a xlink:href="shared__job_8hpp.html" target="_top" xlink:title=" ">
<polygon fill="white" stroke="black" points="539.55,-179.5 539.55,-209.5 656.55,-209.5 656.55,-179.5 539.55,-179.5"/>
<text text-anchor="start" x="547.55" y="-197.5" font-family="Helvetica,sans-Serif" font-size="10.00">RoL/threaded/shared</text>
<text text-anchor="middle" x="598.05" y="-186.5" font-family="Helvetica,sans-Serif" font-size="10.00">_job.hpp</text>
</a>
</g>
</g>
<!-- Node1&#45;&gt;Node12 -->
<g id="edge13" class="edge">
<title>Node1&#45;&gt;Node12</title>
<path fill="none" stroke="midnightblue" d="M507.23,-246.48C522.06,-238.15 545.12,-225.21 564.3,-214.45"/>
<polygon fill="midnightblue" stroke="midnightblue" points="566.06,-217.47 573.06,-209.52 562.63,-211.37 566.06,-217.47"/>
</g>
<!-- Node17 -->
<g id="node17" class="node">
<title>Node17</title>
<g id="a_node17"><a xlink:title=" ">
<polygon fill="white" stroke="#bfbfbf" points="675.05,-185 675.05,-204 739.05,-204 739.05,-185 675.05,-185"/>
<text text-anchor="middle" x="707.05" y="-192" font-family="Helvetica,sans-Serif" font-size="10.00">algorithm</text>
</a>
</g>
</g>
<!-- Node1&#45;&gt;Node17 -->
<g id="edge20" class="edge">
<title>Node1&#45;&gt;Node17</title>
<path fill="none" stroke="midnightblue" d="M528.97,-246.44C564.37,-238 619.2,-224.31 666.05,-210 668.66,-209.2 671.36,-208.34 674.07,-207.44"/>
<polygon fill="midnightblue" stroke="midnightblue" points="675.42,-210.68 683.75,-204.13 673.15,-204.06 675.42,-210.68"/>
</g>
<!-- Node3 -->
<g id="node3" class="node">
<title>Node3</title>
<g id="a_node3"><a xlink:title=" ">
<polygon fill="white" stroke="#bfbfbf" points="325.05,-118 325.05,-137 369.05,-137 369.05,-118 325.05,-118"/>
<text text-anchor="middle" x="347.05" y="-125" font-family="Helvetica,sans-Serif" font-size="10.00">bitset</text>
</a>
</g>
</g>
<!-- Node2&#45;&gt;Node3 -->
<g id="edge2" class="edge">
<title>Node2&#45;&gt;Node3</title>
<path fill="none" stroke="midnightblue" d="M364.35,-184.73C361.38,-175.09 356.52,-159.3 352.71,-146.91"/>
<polygon fill="midnightblue" stroke="midnightblue" points="355.99,-145.66 349.7,-137.13 349.3,-147.71 355.99,-145.66"/>
</g>
<!-- Node2&#45;&gt;Node4 -->
<g id="edge3" class="edge">
<title>Node2&#45;&gt;Node4</title>
<path fill="none" stroke="midnightblue" d="M373.7,-184.75C381.15,-174.83 393.44,-158.07 403.05,-143 421.45,-114.13 426.21,-106.85 441.05,-76 448.45,-60.6 455.57,-42.5 460.48,-29.32"/>
<polygon fill="midnightblue" stroke="midnightblue" points="463.89,-30.17 464.04,-19.57 457.32,-27.76 463.89,-30.17"/>
</g>
<!-- Node2&#45;&gt;Node5 -->
<g id="edge4" class="edge">
<title>Node2&#45;&gt;Node5</title>
<path fill="none" stroke="midnightblue" d="M369.93,-184.81C376.71,-164.4 393.74,-113.1 402.93,-85.41"/>
<polygon fill="midnightblue" stroke="midnightblue" points="406.31,-86.35 406.14,-75.76 399.67,-84.14 406.31,-86.35"/>
</g>
<!-- Node2&#45;&gt;Node6 -->
<g id="edge5" class="edge">
<title>Node2&#45;&gt;Node6</title>
<path fill="none" stroke="midnightblue" d="M349.65,-184.87C327.43,-173.84 288.76,-154.66 262.79,-141.77"/>
<polygon fill="midnightblue" stroke="midnightblue" points="264.03,-138.48 253.51,-137.17 260.92,-144.75 264.03,-138.48"/>
</g>
<!-- Node6&#45;&gt;Node4 -->
<g id="edge9" class="edge">
<title>Node6&#45;&gt;Node4</title>
<path fill="none" stroke="midnightblue" d="M192.85,-126.44C113.62,-124.94 -42.14,-114.7 11.05,-56 39.46,-24.65 335.58,-14.33 434.83,-11.73"/>
<polygon fill="midnightblue" stroke="midnightblue" points="434.96,-15.23 444.87,-11.48 434.79,-8.23 434.96,-15.23"/>
</g>
<!-- Node6&#45;&gt;Node5 -->
<g id="edge12" class="edge">
<title>Node6&#45;&gt;Node5</title>
<path fill="none" stroke="midnightblue" d="M260.83,-117.98C290.98,-107.61 341.98,-90.07 375.59,-78.51"/>
<polygon fill="midnightblue" stroke="midnightblue" points="377.1,-81.69 385.42,-75.13 374.82,-75.07 377.1,-81.69"/>
</g>
<!-- Node7 -->
<g id="node7" class="node">
<title>Node7</title>
<g id="a_node7"><a xlink:title=" ">
<polygon fill="white" stroke="#bfbfbf" points="20.55,-56.5 20.55,-75.5 69.55,-75.5 69.55,-56.5 20.55,-56.5"/>
<text text-anchor="middle" x="45.05" y="-63.5" font-family="Helvetica,sans-Serif" font-size="10.00">cctype</text>
</a>
</g>
</g>
<!-- Node6&#45;&gt;Node7 -->
<g id="edge6" class="edge">
<title>Node6&#45;&gt;Node7</title>
<path fill="none" stroke="midnightblue" d="M208.68,-117.98C174.64,-107.37 116.51,-89.26 79.48,-77.73"/>
<polygon fill="midnightblue" stroke="midnightblue" points="80.22,-74.29 69.63,-74.66 78.14,-80.98 80.22,-74.29"/>
</g>
<!-- Node8 -->
<g id="node8" class="node">
<title>Node8</title>
<g id="a_node8"><a xlink:title=" ">
<polygon fill="white" stroke="#bfbfbf" points="87.55,-56.5 87.55,-75.5 140.55,-75.5 140.55,-56.5 87.55,-56.5"/>
<text text-anchor="middle" x="114.05" y="-63.5" font-family="Helvetica,sans-Serif" font-size="10.00">cstddef</text>
</a>
</g>
</g>
<!-- Node6&#45;&gt;Node8 -->
<g id="edge7" class="edge">
<title>Node6&#45;&gt;Node8</title>
<path fill="none" stroke="midnightblue" d="M218.57,-117.98C198.18,-108.03 164.27,-91.49 140.62,-79.96"/>
<polygon fill="midnightblue" stroke="midnightblue" points="142.02,-76.75 131.49,-75.51 138.95,-83.04 142.02,-76.75"/>
</g>
<!-- Node9 -->
<g id="node9" class="node">
<title>Node9</title>
<g id="a_node9"><a xlink:title=" ">
<polygon fill="white" stroke="#bfbfbf" points="159.05,-56.5 159.05,-75.5 197.05,-75.5 197.05,-56.5 159.05,-56.5"/>
<text text-anchor="middle" x="178.05" y="-63.5" font-family="Helvetica,sans-Serif" font-size="10.00">map</text>
</a>
</g>
</g>
<!-- Node6&#45;&gt;Node9 -->
<g id="edge8" class="edge">
<title>Node6&#45;&gt;Node9</title>
<path fill="none" stroke="midnightblue" d="M227.74,-117.98C218.86,-108.87 204.6,-94.24 193.63,-82.98"/>
<polygon fill="midnightblue" stroke="midnightblue" points="195.83,-80.23 186.34,-75.51 190.82,-85.11 195.83,-80.23"/>
</g>
<!-- Node10 -->
<g id="node10" class="node">
<title>Node10</title>
<g id="a_node10"><a xlink:title=" ">
<polygon fill="white" stroke="#bfbfbf" points="215.55,-56.5 215.55,-75.5 256.55,-75.5 256.55,-56.5 215.55,-56.5"/>
<text text-anchor="middle" x="236.05" y="-63.5" font-family="Helvetica,sans-Serif" font-size="10.00">tuple</text>
</a>
</g>
</g>
<!-- Node6&#45;&gt;Node10 -->
<g id="edge10" class="edge">
<title>Node6&#45;&gt;Node10</title>
<path fill="none" stroke="midnightblue" d="M236.05,-117.98C236.05,-109.58 236.05,-96.48 236.05,-85.66"/>
<polygon fill="midnightblue" stroke="midnightblue" points="239.55,-85.51 236.05,-75.51 232.55,-85.51 239.55,-85.51"/>
</g>
<!-- Node11 -->
<g id="node11" class="node">
<title>Node11</title>
<g id="a_node11"><a xlink:title=" ">
<polygon fill="white" stroke="#bfbfbf" points="274.55,-56.5 274.55,-75.5 367.55,-75.5 367.55,-56.5 274.55,-56.5"/>
<text text-anchor="middle" x="321.05" y="-63.5" font-family="Helvetica,sans-Serif" font-size="10.00">unordered_map</text>
</a>
</g>
</g>
<!-- Node6&#45;&gt;Node11 -->
<g id="edge11" class="edge">
<title>Node6&#45;&gt;Node11</title>
<path fill="none" stroke="midnightblue" d="M248.23,-117.98C261.86,-108.43 284.18,-92.81 300.52,-81.37"/>
<polygon fill="midnightblue" stroke="midnightblue" points="302.71,-84.11 308.89,-75.51 298.69,-78.38 302.71,-84.11"/>
</g>
<!-- Node13 -->
<g id="node13" class="node">
<title>Node13</title>
<g id="a_node13"><a xlink:href="shared__queue_8hpp.html" target="_top" xlink:title=" ">
<polygon fill="white" stroke="black" points="543.55,-112.5 543.55,-142.5 660.55,-142.5 660.55,-112.5 543.55,-112.5"/>
<text text-anchor="start" x="551.55" y="-130.5" font-family="Helvetica,sans-Serif" font-size="10.00">RoL/threaded/shared</text>
<text text-anchor="middle" x="602.05" y="-119.5" font-family="Helvetica,sans-Serif" font-size="10.00">_queue.hpp</text>
</a>
</g>
</g>
<!-- Node12&#45;&gt;Node13 -->
<g id="edge14" class="edge">
<title>Node12&#45;&gt;Node13</title>
<path fill="none" stroke="midnightblue" d="M598.91,-179.4C599.4,-171.56 600.01,-161.6 600.57,-152.57"/>
<polygon fill="midnightblue" stroke="midnightblue" points="604.06,-152.77 601.18,-142.58 597.07,-152.34 604.06,-152.77"/>
</g>
<!-- Node14 -->
<g id="node14" class="node">
<title>Node14</title>
<g id="a_node14"><a xlink:href="queue_8hpp.html" target="_top" xlink:title=" ">
<polygon fill="white" stroke="black" points="539.55,-56.5 539.55,-75.5 674.55,-75.5 674.55,-56.5 539.55,-56.5"/>
<text text-anchor="middle" x="607.05" y="-63.5" font-family="Helvetica,sans-Serif" font-size="10.00">RoL/threaded/queue.hpp</text>
</a>
</g>
</g>
<!-- Node13&#45;&gt;Node14 -->
<g id="edge15" class="edge">
<title>Node13&#45;&gt;Node14</title>
<path fill="none" stroke="midnightblue" d="M603.23,-112.4C603.9,-104.47 604.74,-94.46 605.46,-85.86"/>
<polygon fill="midnightblue" stroke="midnightblue" points="608.97,-85.92 606.32,-75.66 601.99,-85.33 608.97,-85.92"/>
</g>
<!-- Node14&#45;&gt;Node4 -->
<g id="edge18" class="edge">
<title>Node14&#45;&gt;Node4</title>
<path fill="none" stroke="midnightblue" d="M584.86,-56.44C561.62,-47.48 524.9,-33.31 498.63,-23.18"/>
<polygon fill="midnightblue" stroke="midnightblue" points="499.72,-19.85 489.13,-19.52 497.2,-26.38 499.72,-19.85"/>
</g>
<!-- Node15 -->
<g id="node15" class="node">
<title>Node15</title>
<g id="a_node15"><a xlink:title=" ">
<polygon fill="white" stroke="#bfbfbf" points="576.05,-0.5 576.05,-19.5 656.05,-19.5 656.05,-0.5 576.05,-0.5"/>
<text text-anchor="middle" x="616.05" y="-7.5" font-family="Helvetica,sans-Serif" font-size="10.00">pico/mutex.h</text>
</a>
</g>
</g>
<!-- Node14&#45;&gt;Node15 -->
<g id="edge16" class="edge">
<title>Node14&#45;&gt;Node15</title>
<path fill="none" stroke="midnightblue" d="M608.53,-56.08C609.73,-48.93 611.44,-38.64 612.93,-29.69"/>
<polygon fill="midnightblue" stroke="midnightblue" points="616.4,-30.19 614.59,-19.75 609.49,-29.04 616.4,-30.19"/>
</g>
<!-- Node16 -->
<g id="node16" class="node">
<title>Node16</title>
<g id="a_node16"><a xlink:title=" ">
<polygon fill="white" stroke="#bfbfbf" points="510.55,-0.5 510.55,-19.5 557.55,-19.5 557.55,-0.5 510.55,-0.5"/>
<text text-anchor="middle" x="534.05" y="-7.5" font-family="Helvetica,sans-Serif" font-size="10.00">queue</text>
</a>
</g>
</g>
<!-- Node14&#45;&gt;Node16 -->
<g id="edge17" class="edge">
<title>Node14&#45;&gt;Node16</title>
<path fill="none" stroke="midnightblue" d="M595.32,-56.32C584.21,-48.11 567.3,-35.6 554.06,-25.81"/>
<polygon fill="midnightblue" stroke="midnightblue" points="556.11,-22.97 545.99,-19.83 551.95,-28.59 556.11,-22.97"/>
</g>
</g>
</svg>
        <g id="navigator" transform="translate(0 0)" fill="#404254">
                <rect fill="#f2f5e9" fill-opacity="0.5" stroke="#606060" stroke-width=".5" x="0" y="0" width="60" height="60"/>
                <use id="zoomplus" xlink:href="#zoomPlus" x="17" y="9" onmousedown="handleZoom(evt,'in')"/>
                <use id="zoomminus" xlink:href="#zoomMin" x="42" y="9" onmousedown="handleZoom(evt,'out')"/>
                <use id="reset" xlink:href="#resetDef" x="30" y="36" onmousedown="handleReset()"/>
                <g id="arrowUp" xlink:href="#dirArrow" transform="translate(30 24)" onmousedown="handlePan(0,-1)">
                  <use xlink:href="#rim" fill="#404040">
                        <set attributeName="fill" to="#808080" begin="arrowUp.mouseover" end="arrowUp.mouseout"/>
                  </use>
                  <path fill="none" stroke="white" stroke-width="1.5" d="M0,-3.0v7 M-2.5,-0.5L0,-3.0L2.5,-0.5"/>
                </g>
                <g id="arrowRight" xlink:href="#dirArrow" transform="rotate(90) translate(36 -43)" onmousedown="handlePan(1,0)">
                  <use xlink:href="#rim" fill="#404040">
                        <set attributeName="fill" to="#808080" begin="arrowRight.mouseover" end="arrowRight.mouseout"/>
                  </use>
                  <path fill="none" stroke="white" stroke-width="1.5" d="M0,-3.0v7 M-2.5,-0.5L0,-3.0L2.5,-0.5"/>
                </g>
                <g id="arrowDown" xlink:href="#dirArrow" transform="rotate(180) translate(-30 -48)" onmousedown="handlePan(0,1)">
                  <use xlink:href="#rim" fill="#404040">
                        <set attributeName="fill" to="#808080" begin="arrowDown.mouseover" end="arrowDown.mouseout"/>
                  </use>
                  <path fill="none" stroke="white" stroke-width="1.5" d="M0,-3.0v7 M-2.5,-0.5L0,-3.0L2.5,-0.5"/>
                </g>
                <g id="arrowLeft" xlink:href="#dirArrow" transform="rotate(270) translate(-36 17)" onmousedown="handlePan(-1,0)">
                  <use xlink:href="#rim" fill="#404040">
                        <set attributeName="fill" to="#808080" begin="arrowLeft.mouseover" end="arrowLeft.mouseout"/>
                  </use>
                  <path fill="none" stroke="white" stroke-width="1.5" d="M0,-3.0v7 M-2.5,-0.5L0,-3.0L2.5,-0.5"/>
                </g>
        </g>
        <svg viewBox="0 0 15 15" width="100%" height="30px" preserveAspectRatio="xMaxYMin meet">
         <g id="arrow_out" transform="scale(0.3 0.3)">
          <a xlink:href="emulator_8cpp__incl_org.svg" target="_base">
           <rect id="button" ry="5" rx="5" y="6" x="6" height="38" width="38"
                fill="#f2f5e9" fill-opacity="0.5" stroke="#606060" stroke-width="1.0"/>
           <path id="arrow"
             d="M 11.500037,31.436501 C 11.940474,20.09759 22.043105,11.32322 32.158766,21.979434 L 37.068811,17.246167 C 37.068811,17.246167 37.088388,32 37.088388,32 L 22.160133,31.978069 C 22.160133,31.978069 26.997745,27.140456 26.997745,27.140456 C 18.528582,18.264221 13.291696,25.230495 11.500037,31.436501 z"
             style="fill:#404040;"/>
          </a>
         </g>
        </svg>
</svg>
