<?xml version="1.0" encoding="UTF-8" standalone="no"?>
<!DOCTYPE svg PUBLIC "-//W3C//DTD SVG 1.1//EN"
 "http://www.w3.org/Graphics/SVG/1.1/DTD/svg11.dtd">
<!-- Generated by graphviz version 2.43.0 (0)
 -->
<!-- Title: src/emulator.cpp Pages: 1 -->
<!--zoomable 207 -->
<svg id="main" version="1.1" xmlns="http://www.w3.org/2000/svg" xmlns:xlink="http://www.w3.org/1999/xlink" xml:space="preserve" onload="init(evt)">
<style type="text/css"><![CDATA[
.edge:hover path { stroke: red; }
.edge:hover polygon { stroke: red; fill: red; }
]]></style>
<script type="text/javascript"><![CDATA[
var edges = document.getElementsByTagName('g');
if (edges && edges.length) {
  for (var i=0;i<edges.length;i++) {
    if (edges[i].id.substr(0,4)=='edge') {
      edges[i].setAttribute('class','edge');
    }
  }
}
]]></script>
        <defs>
                <circle id="rim" cx="0" cy="0" r="7"/>
                <circle id="rim2" cx="0" cy="0" r="3.5"/>
                <g id="zoomPlus">
                        <use xlink:href="#rim" fill="#404040">
                                <set attributeName="fill" to="#808080" begin="zoomplus.mouseover" end="zoomplus.mouseout"/>
                        </use>
                        <path d="M-4,0h8M0,-4v8" fill="none" stroke="white" stroke-width="1.5" pointer-events="none"/>
                </g>
                <g id="zoomMin">
                        <use xlink:href="#rim" fill="#404040">
                                <set attributeName="fill" to="#808080" begin="zoomminus.mouseover" end="zoomminus.mouseout"/>
                        </use>
                        <path d="M-4,0h8" fill="none" stroke="white" stroke-width="1.5" pointer-events="none"/>
                </g>
                <g id="dirArrow">
                        <path fill="none" stroke="white" stroke-width="1.5" d="M0,-3.0v7 M-2.5,-0.5L0,-3.0L2.5,-0.5"/>
                </g>
               <g id="resetDef">
                       <use xlink:href="#rim2" fill="#404040">
                               <set attributeName="fill" to="#808080" begin="reset.mouseover" end="reset.mouseout"/>
                       </use>
               </g>
        </defs>

<script type="text/javascript">
var viewWidth = 1007;
var viewHeight = 207;
var sectionId = 'dynsection-0';
</script>
<script xlink:href="svgpan.js"/>
<svg id="graph" class="graph">
<g id="viewport">
<title>src/emulator.cpp</title>
<polygon fill="white" stroke="transparent" points="-4,4 -4,-203 1003,-203 1003,4 -4,4"/>
<!-- Node1 -->
<g id="node1" class="node">
<title>Node1</title>
<g id="a_node1"><a xlink:title=" ">
<polygon fill="#bfbfbf" stroke="black" points="672.5,-179.5 672.5,-198.5 770.5,-198.5 770.5,-179.5 672.5,-179.5"/>
<text text-anchor="middle" x="721.5" y="-186.5" font-family="Helvetica,sans-Serif" font-size="10.00">src/emulator.cpp</text>
</a>
</g>
</g>
<!-- Node2 -->
<g id="node2" class="node">
<title>Node2</title>
<g id="a_node2"><a xlink:href="emulator_8hpp.html" target="_top" xlink:title=" ">
<polygon fill="white" stroke="black" points="410,-118 410,-137 491,-137 491,-118 410,-118"/>
<text text-anchor="middle" x="450.5" y="-125" font-family="Helvetica,sans-Serif" font-size="10.00">emulator.hpp</text>
</a>
</g>
</g>
<!-- Node1&#45;&gt;Node2 -->
<g id="edge1" class="edge">
<title>Node1&#45;&gt;Node2</title>
<path fill="none" stroke="midnightblue" d="M682.67,-179.48C634.38,-168.87 551.89,-150.76 499.35,-139.22"/>
<polygon fill="midnightblue" stroke="midnightblue" points="499.77,-135.74 489.26,-137.01 498.27,-142.57 499.77,-135.74"/>
</g>
<!-- Node4 -->
<g id="node4" class="node">
<title>Node4</title>
<g id="a_node4"><a xlink:title=" ">
<polygon fill="white" stroke="#bfbfbf" points="791.5,-0.5 791.5,-19.5 835.5,-19.5 835.5,-0.5 791.5,-0.5"/>
<text text-anchor="middle" x="813.5" y="-7.5" font-family="Helvetica,sans-Serif" font-size="10.00">string</text>
</a>
</g>
</g>
<!-- Node1&#45;&gt;Node4 -->
<g id="edge24" class="edge">
<title>Node1&#45;&gt;Node4</title>
<path fill="none" stroke="midnightblue" d="M725.94,-179.46C740.11,-152.19 784.51,-66.78 804.07,-29.13"/>
<polygon fill="midnightblue" stroke="midnightblue" points="807.38,-30.36 808.89,-19.87 801.17,-27.13 807.38,-30.36"/>
</g>
<!-- Node5 -->
<g id="node5" class="node">
<title>Node5</title>
<g id="a_node5"><a xlink:title=" ">
<polygon fill="white" stroke="#bfbfbf" points="0,-0.5 0,-19.5 47,-19.5 47,-0.5 0,-0.5"/>
<text text-anchor="middle" x="23.5" y="-7.5" font-family="Helvetica,sans-Serif" font-size="10.00">vector</text>
</a>
</g>
</g>
<!-- Node1&#45;&gt;Node5 -->
<g id="edge25" class="edge">
<title>Node1&#45;&gt;Node5</title>
<path fill="none" stroke="midnightblue" d="M672.35,-183.79C608.94,-177.74 495.51,-164.86 400.5,-143 306.26,-121.32 284.69,-108.17 193.5,-76 144.41,-58.68 88.1,-36.74 54.19,-23.29"/>
<polygon fill="midnightblue" stroke="midnightblue" points="55.42,-20.01 44.84,-19.57 52.84,-26.52 55.42,-20.01"/>
</g>
<!-- Node7 -->
<g id="node7" class="node">
<title>Node7</title>
<g id="a_node7"><a xlink:title=" ">
<polygon fill="white" stroke="#bfbfbf" points="709.5,-0.5 709.5,-19.5 773.5,-19.5 773.5,-0.5 709.5,-0.5"/>
<text text-anchor="middle" x="741.5" y="-7.5" font-family="Helvetica,sans-Serif" font-size="10.00">algorithm</text>
</a>
</g>
</g>
<!-- Node1&#45;&gt;Node7 -->
<g id="edge23" class="edge">
<title>Node1&#45;&gt;Node7</title>
<path fill="none" stroke="midnightblue" d="M722.46,-179.46C725.52,-152.43 735.03,-68.24 739.34,-30.11"/>
<polygon fill="midnightblue" stroke="midnightblue" points="742.85,-30.2 740.5,-19.87 735.9,-29.41 742.85,-30.2"/>
</g>
<!-- Node17 -->
<g id="node17" class="node">
<title>Node17</title>
<g id="a_node17"><a xlink:href="shared__queue_8hpp.html" target="_top" xlink:title=" ">
<polygon fill="white" stroke="black" points="830,-112.5 830,-142.5 947,-142.5 947,-112.5 830,-112.5"/>
<text text-anchor="start" x="838" y="-130.5" font-family="Helvetica,sans-Serif" font-size="10.00">RoL/threaded/shared</text>
<text text-anchor="middle" x="888.5" y="-119.5" font-family="Helvetica,sans-Serif" font-size="10.00">_queue.hpp</text>
</a>
</g>
</g>
<!-- Node1&#45;&gt;Node17 -->
<g id="edge18" class="edge">
<title>Node1&#45;&gt;Node17</title>
<path fill="none" stroke="midnightblue" d="M745.43,-179.48C769.84,-170.78 808.43,-157.03 839.39,-146"/>
<polygon fill="midnightblue" stroke="midnightblue" points="840.9,-149.18 849.14,-142.52 838.55,-142.58 840.9,-149.18"/>
</g>
<!-- Node3 -->
<g id="node3" class="node">
<title>Node3</title>
<g id="a_node3"><a xlink:title=" ">
<polygon fill="white" stroke="#bfbfbf" points="345.5,-56.5 345.5,-75.5 389.5,-75.5 389.5,-56.5 345.5,-56.5"/>
<text text-anchor="middle" x="367.5" y="-63.5" font-family="Helvetica,sans-Serif" font-size="10.00">bitset</text>
</a>
</g>
</g>
<!-- Node2&#45;&gt;Node3 -->
<g id="edge2" class="edge">
<title>Node2&#45;&gt;Node3</title>
<path fill="none" stroke="midnightblue" d="M438.61,-117.98C425.3,-108.43 403.5,-92.81 387.54,-81.37"/>
<polygon fill="midnightblue" stroke="midnightblue" points="389.54,-78.49 379.37,-75.51 385.46,-84.18 389.54,-78.49"/>
</g>
<!-- Node2&#45;&gt;Node4 -->
<g id="edge3" class="edge">
<title>Node2&#45;&gt;Node4</title>
<path fill="none" stroke="midnightblue" d="M477.49,-117.91C543.11,-97.03 710.79,-43.68 781.39,-21.22"/>
<polygon fill="midnightblue" stroke="midnightblue" points="782.62,-24.5 791.08,-18.13 780.49,-17.83 782.62,-24.5"/>
</g>
<!-- Node2&#45;&gt;Node5 -->
<g id="edge4" class="edge">
<title>Node2&#45;&gt;Node5</title>
<path fill="none" stroke="midnightblue" d="M418.47,-117.99C352.69,-100.49 197.41,-59.02 56.92,-20.37"/>
<polygon fill="midnightblue" stroke="midnightblue" points="57.83,-16.99 47.26,-17.71 55.97,-23.74 57.83,-16.99"/>
</g>
<!-- Node6 -->
<g id="node6" class="node">
<title>Node6</title>
<g id="a_node6"><a xlink:href="parse_8hpp.html" target="_top" xlink:title=" ">
<polygon fill="white" stroke="black" points="407.5,-56.5 407.5,-75.5 493.5,-75.5 493.5,-56.5 407.5,-56.5"/>
<text text-anchor="middle" x="450.5" y="-63.5" font-family="Helvetica,sans-Serif" font-size="10.00">RoL/parse.hpp</text>
</a>
</g>
</g>
<!-- Node2&#45;&gt;Node6 -->
<g id="edge5" class="edge">
<title>Node2&#45;&gt;Node6</title>
<path fill="none" stroke="midnightblue" d="M450.5,-117.98C450.5,-109.58 450.5,-96.48 450.5,-85.66"/>
<polygon fill="midnightblue" stroke="midnightblue" points="454,-85.51 450.5,-75.51 447,-85.51 454,-85.51"/>
</g>
<!-- Node6&#45;&gt;Node4 -->
<g id="edge13" class="edge">
<title>Node6&#45;&gt;Node4</title>
<path fill="none" stroke="midnightblue" d="M493.56,-61.22C555.34,-55.34 672.79,-42.5 781.44,-19.95"/>
<polygon fill="midnightblue" stroke="midnightblue" points="782.19,-23.37 791.25,-17.89 780.74,-16.52 782.19,-23.37"/>
</g>
<!-- Node6&#45;&gt;Node5 -->
<g id="edge17" class="edge">
<title>Node6&#45;&gt;Node5</title>
<path fill="none" stroke="midnightblue" d="M407.4,-57.31C404.39,-56.85 401.4,-56.4 398.5,-56 249.94,-35.37 207.84,-48.27 57.24,-20.06"/>
<polygon fill="midnightblue" stroke="midnightblue" points="57.64,-16.57 47.16,-18.14 56.33,-23.45 57.64,-16.57"/>
</g>
<!-- Node6&#45;&gt;Node7 -->
<g id="edge6" class="edge">
<title>Node6&#45;&gt;Node7</title>
<path fill="none" stroke="midnightblue" d="M493.76,-57.62C543.49,-49.03 627.53,-34.21 699.5,-20 699.6,-19.98 699.7,-19.96 699.8,-19.94"/>
<polygon fill="midnightblue" stroke="midnightblue" points="700.32,-23.41 709.42,-17.99 698.92,-16.55 700.32,-23.41"/>
</g>
<!-- Node8 -->
<g id="node8" class="node">
<title>Node8</title>
<g id="a_node8"><a xlink:title=" ">
<polygon fill="white" stroke="#bfbfbf" points="304,-0.5 304,-19.5 339,-19.5 339,-0.5 304,-0.5"/>
<text text-anchor="middle" x="321.5" y="-7.5" font-family="Helvetica,sans-Serif" font-size="10.00">any</text>
</a>
</g>
</g>
<!-- Node6&#45;&gt;Node8 -->
<g id="edge7" class="edge">
<title>Node6&#45;&gt;Node8</title>
<path fill="none" stroke="midnightblue" d="M430.06,-56.44C408.08,-47.24 373.03,-32.57 348.72,-22.4"/>
<polygon fill="midnightblue" stroke="midnightblue" points="349.93,-19.11 339.35,-18.47 347.23,-25.56 349.93,-19.11"/>
</g>
<!-- Node9 -->
<g id="node9" class="node">
<title>Node9</title>
<g id="a_node9"><a xlink:title=" ">
<polygon fill="white" stroke="#bfbfbf" points="357,-0.5 357,-19.5 406,-19.5 406,-0.5 357,-0.5"/>
<text text-anchor="middle" x="381.5" y="-7.5" font-family="Helvetica,sans-Serif" font-size="10.00">cctype</text>
</a>
</g>
</g>
<!-- Node6&#45;&gt;Node9 -->
<g id="edge8" class="edge">
<title>Node6&#45;&gt;Node9</title>
<path fill="none" stroke="midnightblue" d="M439.41,-56.32C429.01,-48.18 413.24,-35.84 400.78,-26.09"/>
<polygon fill="midnightblue" stroke="midnightblue" points="402.82,-23.24 392.79,-19.83 398.51,-28.75 402.82,-23.24"/>
</g>
<!-- Node10 -->
<g id="node10" class="node">
<title>Node10</title>
<g id="a_node10"><a xlink:title=" ">
<polygon fill="white" stroke="#bfbfbf" points="424,-0.5 424,-19.5 477,-19.5 477,-0.5 424,-0.5"/>
<text text-anchor="middle" x="450.5" y="-7.5" font-family="Helvetica,sans-Serif" font-size="10.00">cstddef</text>
</a>
</g>
</g>
<!-- Node6&#45;&gt;Node10 -->
<g id="edge9" class="edge">
<title>Node6&#45;&gt;Node10</title>
<path fill="none" stroke="midnightblue" d="M450.5,-56.08C450.5,-49.01 450.5,-38.86 450.5,-29.99"/>
<polygon fill="midnightblue" stroke="midnightblue" points="454,-29.75 450.5,-19.75 447,-29.75 454,-29.75"/>
</g>
<!-- Node11 -->
<g id="node11" class="node">
<title>Node11</title>
<g id="a_node11"><a xlink:title=" ">
<polygon fill="white" stroke="#bfbfbf" points="495.5,-0.5 495.5,-19.5 533.5,-19.5 533.5,-0.5 495.5,-0.5"/>
<text text-anchor="middle" x="514.5" y="-7.5" font-family="Helvetica,sans-Serif" font-size="10.00">map</text>
</a>
</g>
</g>
<!-- Node6&#45;&gt;Node11 -->
<g id="edge10" class="edge">
<title>Node6&#45;&gt;Node11</title>
<path fill="none" stroke="midnightblue" d="M460.78,-56.32C470.34,-48.26 484.78,-36.08 496.28,-26.37"/>
<polygon fill="midnightblue" stroke="midnightblue" points="498.64,-28.96 504.03,-19.83 494.13,-23.61 498.64,-28.96"/>
</g>
<!-- Node12 -->
<g id="node12" class="node">
<title>Node12</title>
<g id="a_node12"><a xlink:title=" ">
<polygon fill="white" stroke="#bfbfbf" points="551.5,-0.5 551.5,-19.5 607.5,-19.5 607.5,-0.5 551.5,-0.5"/>
<text text-anchor="middle" x="579.5" y="-7.5" font-family="Helvetica,sans-Serif" font-size="10.00">optional</text>
</a>
</g>
</g>
<!-- Node6&#45;&gt;Node12 -->
<g id="edge11" class="edge">
<title>Node6&#45;&gt;Node12</title>
<path fill="none" stroke="midnightblue" d="M470.94,-56.44C492.17,-47.56 525.6,-33.56 549.75,-23.45"/>
<polygon fill="midnightblue" stroke="midnightblue" points="551.28,-26.61 559.16,-19.52 548.58,-20.15 551.28,-26.61"/>
</g>
<!-- Node13 -->
<g id="node13" class="node">
<title>Node13</title>
<g id="a_node13"><a xlink:title=" ">
<polygon fill="white" stroke="#bfbfbf" points="626,-0.5 626,-19.5 691,-19.5 691,-0.5 626,-0.5"/>
<text text-anchor="middle" x="658.5" y="-7.5" font-family="Helvetica,sans-Serif" font-size="10.00">stdexcept</text>
</a>
</g>
</g>
<!-- Node6&#45;&gt;Node13 -->
<g id="edge12" class="edge">
<title>Node6&#45;&gt;Node13</title>
<path fill="none" stroke="midnightblue" d="M483.46,-56.44C519.29,-47.14 576.66,-32.25 615.89,-22.06"/>
<polygon fill="midnightblue" stroke="midnightblue" points="616.9,-25.42 625.7,-19.52 615.14,-18.64 616.9,-25.42"/>
</g>
<!-- Node14 -->
<g id="node14" class="node">
<title>Node14</title>
<g id="a_node14"><a xlink:title=" ">
<polygon fill="white" stroke="#bfbfbf" points="65,-0.5 65,-19.5 106,-19.5 106,-0.5 65,-0.5"/>
<text text-anchor="middle" x="85.5" y="-7.5" font-family="Helvetica,sans-Serif" font-size="10.00">tuple</text>
</a>
</g>
</g>
<!-- Node6&#45;&gt;Node14 -->
<g id="edge14" class="edge">
<title>Node6&#45;&gt;Node14</title>
<path fill="none" stroke="midnightblue" d="M407.39,-57.38C404.39,-56.9 401.4,-56.43 398.5,-56 275.87,-37.62 240.62,-46.48 116.2,-20.07"/>
<polygon fill="midnightblue" stroke="midnightblue" points="116.81,-16.62 106.29,-17.93 115.33,-23.46 116.81,-16.62"/>
</g>
<!-- Node15 -->
<g id="node15" class="node">
<title>Node15</title>
<g id="a_node15"><a xlink:title=" ">
<polygon fill="white" stroke="#bfbfbf" points="124,-0.5 124,-19.5 217,-19.5 217,-0.5 124,-0.5"/>
<text text-anchor="middle" x="170.5" y="-7.5" font-family="Helvetica,sans-Serif" font-size="10.00">unordered_map</text>
</a>
</g>
</g>
<!-- Node6&#45;&gt;Node15 -->
<g id="edge15" class="edge">
<title>Node6&#45;&gt;Node15</title>
<path fill="none" stroke="midnightblue" d="M407.36,-56.68C358.22,-47.2 277.84,-31.7 224.56,-21.43"/>
<polygon fill="midnightblue" stroke="midnightblue" points="225.09,-17.96 214.61,-19.51 223.77,-24.84 225.09,-17.96"/>
</g>
<!-- Node16 -->
<g id="node16" class="node">
<title>Node16</title>
<g id="a_node16"><a xlink:title=" ">
<polygon fill="white" stroke="#bfbfbf" points="235,-0.5 235,-19.5 286,-19.5 286,-0.5 235,-0.5"/>
<text text-anchor="middle" x="260.5" y="-7.5" font-family="Helvetica,sans-Serif" font-size="10.00">variant</text>
</a>
</g>
</g>
<!-- Node6&#45;&gt;Node16 -->
<g id="edge16" class="edge">
<title>Node6&#45;&gt;Node16</title>
<path fill="none" stroke="midnightblue" d="M420.39,-56.44C386.68,-46.86 332.08,-31.34 296.23,-21.15"/>
<polygon fill="midnightblue" stroke="midnightblue" points="296.78,-17.67 286.2,-18.3 294.86,-24.4 296.78,-17.67"/>
</g>
<!-- Node18 -->
<g id="node18" class="node">
<title>Node18</title>
<g id="a_node18"><a xlink:href="queue_8hpp.html" target="_top" xlink:title=" ">
<polygon fill="white" stroke="black" points="826,-56.5 826,-75.5 961,-75.5 961,-56.5 826,-56.5"/>
<text text-anchor="middle" x="893.5" y="-63.5" font-family="Helvetica,sans-Serif" font-size="10.00">RoL/threaded/queue.hpp</text>
</a>
</g>
</g>
<!-- Node17&#45;&gt;Node18 -->
<g id="edge19" class="edge">
<title>Node17&#45;&gt;Node18</title>
<path fill="none" stroke="midnightblue" d="M889.68,-112.4C890.35,-104.47 891.19,-94.46 891.92,-85.86"/>
<polygon fill="midnightblue" stroke="midnightblue" points="895.42,-85.92 892.77,-75.66 888.45,-85.33 895.42,-85.92"/>
</g>
<!-- Node18&#45;&gt;Node4 -->
<g id="edge22" class="edge">
<title>Node18&#45;&gt;Node4</title>
<path fill="none" stroke="midnightblue" d="M880.65,-56.32C868.28,-47.98 849.37,-35.21 834.76,-25.35"/>
<polygon fill="midnightblue" stroke="midnightblue" points="836.57,-22.35 826.32,-19.65 832.65,-28.15 836.57,-22.35"/>
</g>
<!-- Node19 -->
<g id="node19" class="node">
<title>Node19</title>
<g id="a_node19"><a xlink:title=" ">
<polygon fill="white" stroke="#bfbfbf" points="853.5,-0.5 853.5,-19.5 933.5,-19.5 933.5,-0.5 853.5,-0.5"/>
<text text-anchor="middle" x="893.5" y="-7.5" font-family="Helvetica,sans-Serif" font-size="10.00">pico/mutex.h</text>
</a>
</g>
</g>
<!-- Node18&#45;&gt;Node19 -->
<g id="edge20" class="edge">
<title>Node18&#45;&gt;Node19</title>
<path fill="none" stroke="midnightblue" d="M893.5,-56.08C893.5,-49.01 893.5,-38.86 893.5,-29.99"/>
<polygon fill="midnightblue" stroke="midnightblue" points="897,-29.75 893.5,-19.75 890,-29.75 897,-29.75"/>
</g>
<!-- Node20 -->
<g id="node20" class="node">
<title>Node20</title>
<g id="a_node20"><a xlink:title=" ">
<polygon fill="white" stroke="#bfbfbf" points="952,-0.5 952,-19.5 999,-19.5 999,-0.5 952,-0.5"/>
<text text-anchor="middle" x="975.5" y="-7.5" font-family="Helvetica,sans-Serif" font-size="10.00">queue</text>
</a>
</g>
</g>
<!-- Node18&#45;&gt;Node20 -->
<g id="edge21" class="edge">
<title>Node18&#45;&gt;Node20</title>
<path fill="none" stroke="midnightblue" d="M906.67,-56.32C919.35,-47.98 938.73,-35.21 953.71,-25.35"/>
<polygon fill="midnightblue" stroke="midnightblue" points="955.93,-28.08 962.36,-19.65 952.08,-22.23 955.93,-28.08"/>
</g>
</g>
</svg>
        <g id="navigator" transform="translate(0 0)" fill="#404254">
                <rect fill="#f2f5e9" fill-opacity="0.5" stroke="#606060" stroke-width=".5" x="0" y="0" width="60" height="60"/>
                <use id="zoomplus" xlink:href="#zoomPlus" x="17" y="9" onmousedown="handleZoom(evt,'in')"/>
                <use id="zoomminus" xlink:href="#zoomMin" x="42" y="9" onmousedown="handleZoom(evt,'out')"/>
                <use id="reset" xlink:href="#resetDef" x="30" y="36" onmousedown="handleReset()"/>
                <g id="arrowUp" xlink:href="#dirArrow" transform="translate(30 24)" onmousedown="handlePan(0,-1)">
                  <use xlink:href="#rim" fill="#404040">
                        <set attributeName="fill" to="#808080" begin="arrowUp.mouseover" end="arrowUp.mouseout"/>
                  </use>
                  <path fill="none" stroke="white" stroke-width="1.5" d="M0,-3.0v7 M-2.5,-0.5L0,-3.0L2.5,-0.5"/>
                </g>
                <g id="arrowRight" xlink:href="#dirArrow" transform="rotate(90) translate(36 -43)" onmousedown="handlePan(1,0)">
                  <use xlink:href="#rim" fill="#404040">
                        <set attributeName="fill" to="#808080" begin="arrowRight.mouseover" end="arrowRight.mouseout"/>
                  </use>
                  <path fill="none" stroke="white" stroke-width="1.5" d="M0,-3.0v7 M-2.5,-0.5L0,-3.0L2.5,-0.5"/>
                </g>
                <g id="arrowDown" xlink:href="#dirArrow" transform="rotate(180) translate(-30 -48)" onmousedown="handlePan(0,1)">
                  <use xlink:href="#rim" fill="#404040">
                        <set attributeName="fill" to="#808080" begin="arrowDown.mouseover" end="arrowDown.mouseout"/>
                  </use>
                  <path fill="none" stroke="white" stroke-width="1.5" d="M0,-3.0v7 M-2.5,-0.5L0,-3.0L2.5,-0.5"/>
                </g>
                <g id="arrowLeft" xlink:href="#dirArrow" transform="rotate(270) translate(-36 17)" onmousedown="handlePan(-1,0)">
                  <use xlink:href="#rim" fill="#404040">
                        <set attributeName="fill" to="#808080" begin="arrowLeft.mouseover" end="arrowLeft.mouseout"/>
                  </use>
                  <path fill="none" stroke="white" stroke-width="1.5" d="M0,-3.0v7 M-2.5,-0.5L0,-3.0L2.5,-0.5"/>
                </g>
        </g>
        <svg viewBox="0 0 15 15" width="100%" height="30px" preserveAspectRatio="xMaxYMin meet">
         <g id="arrow_out" transform="scale(0.3 0.3)">
          <a xlink:href="emulator_8cpp__incl_org.svg" target="_base">
           <rect id="button" ry="5" rx="5" y="6" x="6" height="38" width="38"
                fill="#f2f5e9" fill-opacity="0.5" stroke="#606060" stroke-width="1.0"/>
           <path id="arrow"
             d="M 11.500037,31.436501 C 11.940474,20.09759 22.043105,11.32322 32.158766,21.979434 L 37.068811,17.246167 C 37.068811,17.246167 37.088388,32 37.088388,32 L 22.160133,31.978069 C 22.160133,31.978069 26.997745,27.140456 26.997745,27.140456 C 18.528582,18.264221 13.291696,25.230495 11.500037,31.436501 z"
             style="fill:#404040;"/>
          </a>
         </g>
        </svg>
</svg>
