<?xml version="1.0" encoding="UTF-8" standalone="no"?>
<!DOCTYPE svg PUBLIC "-//W3C//DTD SVG 1.1//EN"
 "http://www.w3.org/Graphics/SVG/1.1/DTD/svg11.dtd">
<!-- Generated by graphviz version 2.43.0 (0)
 -->
<!-- Title: src/RoL/emulation/emulator.hpp Pages: 1 -->
<svg width="1318pt" height="95pt"
 viewBox="0.00 0.00 1318.00 95.00" xmlns="http://www.w3.org/2000/svg" xmlns:xlink="http://www.w3.org/1999/xlink">
<g id="graph0" class="graph" transform="scale(1 1) rotate(0) translate(4 91)">
<title>src/RoL/emulation/emulator.hpp</title>
<polygon fill="white" stroke="transparent" points="-4,4 -4,-91 1314,-91 1314,4 -4,4"/>
<!-- Node1 -->
<g id="node1" class="node">
<title>Node1</title>
<g id="a_node1"><a xlink:title=" ">
<polygon fill="#bfbfbf" stroke="black" points="570.5,-67.5 570.5,-86.5 742.5,-86.5 742.5,-67.5 570.5,-67.5"/>
<text text-anchor="middle" x="656.5" y="-74.5" font-family="Helvetica,sans-Serif" font-size="10.00">src/RoL/emulation/emulator.hpp</text>
</a>
</g>
</g>
<!-- Node2 -->
<g id="node2" class="node">
<title>Node2</title>
<g id="a_node2"><a xlink:href="emulator_8cpp.html" target="_top" xlink:title=" ">
<polygon fill="white" stroke="black" points="0,-6 0,-25 171,-25 171,-6 0,-6"/>
<text text-anchor="middle" x="85.5" y="-13" font-family="Helvetica,sans-Serif" font-size="10.00">src/RoL/emulation/emulator.cpp</text>
</a>
</g>
</g>
<!-- Node1&#45;&gt;Node2 -->
<g id="edge1" class="edge">
<title>Node1&#45;&gt;Node2</title>
<path fill="none" stroke="midnightblue" d="M560.13,-68.59C463.66,-60.77 311.05,-47.34 179.5,-31 165.74,-29.29 150.88,-27.14 137.14,-25.03"/>
<polygon fill="midnightblue" stroke="midnightblue" points="559.91,-72.08 570.16,-69.4 560.48,-65.1 559.91,-72.08"/>
</g>
<!-- Node3 -->
<g id="node3" class="node">
<title>Node3</title>
<g id="a_node3"><a xlink:href="post_8cpp.html" target="_top" xlink:title=" ">
<polygon fill="white" stroke="black" points="189,-6 189,-25 264,-25 264,-6 189,-6"/>
<text text-anchor="middle" x="226.5" y="-13" font-family="Helvetica,sans-Serif" font-size="10.00">src/post.cpp</text>
</a>
</g>
</g>
<!-- Node1&#45;&gt;Node3 -->
<g id="edge2" class="edge">
<title>Node1&#45;&gt;Node3</title>
<path fill="none" stroke="midnightblue" d="M560.02,-69.76C481.86,-63.5 369.23,-51.72 272.5,-31 265.29,-29.46 257.61,-27.26 250.62,-25.04"/>
<polygon fill="midnightblue" stroke="midnightblue" points="560.09,-73.28 570.33,-70.57 560.64,-66.3 560.09,-73.28"/>
</g>
<!-- Node4 -->
<g id="node4" class="node">
<title>Node4</title>
<g id="a_node4"><a xlink:href="test__emulator__add_8cpp.html" target="_top" xlink:title=" ">
<polygon fill="white" stroke="black" points="281.5,-0.5 281.5,-30.5 405.5,-30.5 405.5,-0.5 281.5,-0.5"/>
<text text-anchor="start" x="289.5" y="-18.5" font-family="Helvetica,sans-Serif" font-size="10.00">src/test/test_emulator</text>
<text text-anchor="middle" x="343.5" y="-7.5" font-family="Helvetica,sans-Serif" font-size="10.00">_add.cpp</text>
</a>
</g>
</g>
<!-- Node1&#45;&gt;Node4 -->
<g id="edge3" class="edge">
<title>Node1&#45;&gt;Node4</title>
<path fill="none" stroke="midnightblue" d="M599.05,-65.61C549.98,-56.67 477.54,-43.3 414.5,-31 411.66,-30.45 408.76,-29.87 405.83,-29.29"/>
<polygon fill="midnightblue" stroke="midnightblue" points="598.69,-69.1 609.15,-67.45 599.94,-62.22 598.69,-69.1"/>
</g>
<!-- Node5 -->
<g id="node5" class="node">
<title>Node5</title>
<g id="a_node5"><a xlink:href="test__emulator__addi_8cpp.html" target="_top" xlink:title=" ">
<polygon fill="white" stroke="black" points="423.5,-0.5 423.5,-30.5 547.5,-30.5 547.5,-0.5 423.5,-0.5"/>
<text text-anchor="start" x="431.5" y="-18.5" font-family="Helvetica,sans-Serif" font-size="10.00">src/test/test_emulator</text>
<text text-anchor="middle" x="485.5" y="-7.5" font-family="Helvetica,sans-Serif" font-size="10.00">_addi.cpp</text>
</a>
</g>
</g>
<!-- Node1&#45;&gt;Node5 -->
<g id="edge4" class="edge">
<title>Node1&#45;&gt;Node5</title>
<path fill="none" stroke="midnightblue" d="M622.31,-64.1C594.48,-54.42 555.16,-40.74 525.8,-30.52"/>
<polygon fill="midnightblue" stroke="midnightblue" points="621.41,-67.49 632,-67.48 623.71,-60.88 621.41,-67.49"/>
</g>
<!-- Node6 -->
<g id="node6" class="node">
<title>Node6</title>
<g id="a_node6"><a xlink:href="ssi_8cpp.html" target="_top" xlink:title=" ">
<polygon fill="white" stroke="black" points="565.5,-6 565.5,-25 633.5,-25 633.5,-6 565.5,-6"/>
<text text-anchor="middle" x="599.5" y="-13" font-family="Helvetica,sans-Serif" font-size="10.00">src/ssi.cpp</text>
</a>
</g>
</g>
<!-- Node1&#45;&gt;Node6 -->
<g id="edge5" class="edge">
<title>Node1&#45;&gt;Node6</title>
<path fill="none" stroke="midnightblue" d="M641.17,-60C630.38,-48.74 616.36,-34.1 607.65,-25.01"/>
<polygon fill="midnightblue" stroke="midnightblue" points="638.89,-62.68 648.33,-67.48 643.94,-57.83 638.89,-62.68"/>
</g>
<!-- Node7 -->
<g id="node7" class="node">
<title>Node7</title>
<g id="a_node7"><a xlink:href="test__emulator__and_8cpp.html" target="_top" xlink:title=" ">
<polygon fill="white" stroke="black" points="651.5,-0.5 651.5,-30.5 775.5,-30.5 775.5,-0.5 651.5,-0.5"/>
<text text-anchor="start" x="659.5" y="-18.5" font-family="Helvetica,sans-Serif" font-size="10.00">src/test/test_emulator</text>
<text text-anchor="middle" x="713.5" y="-7.5" font-family="Helvetica,sans-Serif" font-size="10.00">_and.cpp</text>
</a>
</g>
</g>
<!-- Node1&#45;&gt;Node7 -->
<g id="edge6" class="edge">
<title>Node1&#45;&gt;Node7</title>
<path fill="none" stroke="midnightblue" d="M671.74,-60.09C680.56,-50.88 691.57,-39.39 700.07,-30.52"/>
<polygon fill="midnightblue" stroke="midnightblue" points="669.06,-57.83 664.67,-67.48 674.11,-62.68 669.06,-57.83"/>
</g>
<!-- Node8 -->
<g id="node8" class="node">
<title>Node8</title>
<g id="a_node8"><a xlink:href="test__emulator__andi_8cpp.html" target="_top" xlink:title=" ">
<polygon fill="white" stroke="black" points="793.5,-0.5 793.5,-30.5 917.5,-30.5 917.5,-0.5 793.5,-0.5"/>
<text text-anchor="start" x="801.5" y="-18.5" font-family="Helvetica,sans-Serif" font-size="10.00">src/test/test_emulator</text>
<text text-anchor="middle" x="855.5" y="-7.5" font-family="Helvetica,sans-Serif" font-size="10.00">_andi.cpp</text>
</a>
</g>
</g>
<!-- Node1&#45;&gt;Node8 -->
<g id="edge7" class="edge">
<title>Node1&#45;&gt;Node8</title>
<path fill="none" stroke="midnightblue" d="M694.6,-64.61C727.06,-54.9 773.84,-40.92 808.6,-30.52"/>
<polygon fill="midnightblue" stroke="midnightblue" points="693.59,-61.26 685.01,-67.48 695.6,-67.96 693.59,-61.26"/>
</g>
<!-- Node9 -->
<g id="node9" class="node">
<title>Node9</title>
<g id="a_node9"><a xlink:href="test__emulator__auipc_8cpp.html" target="_top" xlink:title=" ">
<polygon fill="white" stroke="black" points="935.5,-0.5 935.5,-30.5 1059.5,-30.5 1059.5,-0.5 935.5,-0.5"/>
<text text-anchor="start" x="943.5" y="-18.5" font-family="Helvetica,sans-Serif" font-size="10.00">src/test/test_emulator</text>
<text text-anchor="middle" x="997.5" y="-7.5" font-family="Helvetica,sans-Serif" font-size="10.00">_auipc.cpp</text>
</a>
</g>
</g>
<!-- Node1&#45;&gt;Node9 -->
<g id="edge8" class="edge">
<title>Node1&#45;&gt;Node9</title>
<path fill="none" stroke="midnightblue" d="M721.08,-65.91C775.85,-57.2 856.45,-43.99 926.5,-31 929.35,-30.47 932.25,-29.92 935.19,-29.36"/>
<polygon fill="midnightblue" stroke="midnightblue" points="720.49,-62.46 711.16,-67.49 721.58,-69.38 720.49,-62.46"/>
</g>
<!-- Node10 -->
<g id="node10" class="node">
<title>Node10</title>
<g id="a_node10"><a xlink:href="test__xlen__32bit_8cpp.html" target="_top" xlink:title=" ">
<polygon fill="white" stroke="black" points="1078,-0.5 1078,-30.5 1179,-30.5 1179,-0.5 1078,-0.5"/>
<text text-anchor="start" x="1086" y="-18.5" font-family="Helvetica,sans-Serif" font-size="10.00">src/test/test_xlen</text>
<text text-anchor="middle" x="1128.5" y="-7.5" font-family="Helvetica,sans-Serif" font-size="10.00">_32bit.cpp</text>
</a>
</g>
</g>
<!-- Node1&#45;&gt;Node10 -->
<g id="edge9" class="edge">
<title>Node1&#45;&gt;Node10</title>
<path fill="none" stroke="midnightblue" d="M752.58,-69.02C836.4,-62.09 961.06,-49.77 1068.5,-31 1071.56,-30.47 1074.7,-29.87 1077.86,-29.22"/>
<polygon fill="midnightblue" stroke="midnightblue" points="752.25,-65.53 742.57,-69.83 752.82,-72.51 752.25,-65.53"/>
</g>
<!-- Node11 -->
<g id="node11" class="node">
<title>Node11</title>
<g id="a_node11"><a xlink:href="riscv__online_8cpp.html" target="_top" xlink:title=" ">
<polygon fill="white" stroke="black" points="1197,-6 1197,-25 1310,-25 1310,-6 1197,-6"/>
<text text-anchor="middle" x="1253.5" y="-13" font-family="Helvetica,sans-Serif" font-size="10.00">src/riscv_online.cpp</text>
</a>
</g>
</g>
<!-- Node1&#45;&gt;Node11 -->
<g id="edge10" class="edge">
<title>Node1&#45;&gt;Node11</title>
<path fill="none" stroke="midnightblue" d="M752.73,-71.78C859.65,-66.18 1037.16,-54.17 1188.5,-31 1198.56,-29.46 1209.38,-27.27 1219.26,-25.05"/>
<polygon fill="midnightblue" stroke="midnightblue" points="752.42,-68.29 742.61,-72.3 752.78,-75.28 752.42,-68.29"/>
</g>
</g>
</svg>
