<?xml version="1.0" encoding="UTF-8" standalone="no"?>
<!DOCTYPE svg PUBLIC "-//W3C//DTD SVG 1.1//EN"
 "http://www.w3.org/Graphics/SVG/1.1/DTD/svg11.dtd">
<!-- Generated by graphviz version 2.43.0 (0)
 -->
<!-- Title: src/RoL/emulation/emulator.hpp Pages: 1 -->
<svg width="1140pt" height="95pt"
 viewBox="0.00 0.00 1140.00 95.00" xmlns="http://www.w3.org/2000/svg" xmlns:xlink="http://www.w3.org/1999/xlink">
<g id="graph0" class="graph" transform="scale(1 1) rotate(0) translate(4 91)">
<title>src/RoL/emulation/emulator.hpp</title>
<polygon fill="white" stroke="transparent" points="-4,4 -4,-91 1136,-91 1136,4 -4,4"/>
<!-- Node1 -->
<g id="node1" class="node">
<title>Node1</title>
<g id="a_node1"><a xlink:title=" ">
<polygon fill="#bfbfbf" stroke="black" points="509.5,-67.5 509.5,-86.5 681.5,-86.5 681.5,-67.5 509.5,-67.5"/>
<text text-anchor="middle" x="595.5" y="-74.5" font-family="Helvetica,sans-Serif" font-size="10.00">src/RoL/emulation/emulator.hpp</text>
</a>
</g>
</g>
<!-- Node2 -->
<g id="node2" class="node">
<title>Node2</title>
<g id="a_node2"><a xlink:href="emulator_8cpp.html" target="_top" xlink:title=" ">
<polygon fill="white" stroke="black" points="0,-6 0,-25 171,-25 171,-6 0,-6"/>
<text text-anchor="middle" x="85.5" y="-13" font-family="Helvetica,sans-Serif" font-size="10.00">src/RoL/emulation/emulator.cpp</text>
</a>
</g>
</g>
<!-- Node1&#45;&gt;Node2 -->
<g id="edge1" class="edge">
<title>Node1&#45;&gt;Node2</title>
<path fill="none" stroke="midnightblue" d="M499.23,-66.83C414.82,-58.5 288.86,-45.34 179.5,-31 166.07,-29.24 151.61,-27.12 138.14,-25.05"/>
<polygon fill="midnightblue" stroke="midnightblue" points="499.02,-70.33 509.32,-67.83 499.71,-63.36 499.02,-70.33"/>
</g>
<!-- Node3 -->
<g id="node3" class="node">
<title>Node3</title>
<g id="a_node3"><a xlink:href="riscv__online_8cpp.html" target="_top" xlink:title=" ">
<polygon fill="white" stroke="black" points="189,-6 189,-25 302,-25 302,-6 189,-6"/>
<text text-anchor="middle" x="245.5" y="-13" font-family="Helvetica,sans-Serif" font-size="10.00">src/riscv_online.cpp</text>
</a>
</g>
</g>
<!-- Node1&#45;&gt;Node3 -->
<g id="edge2" class="edge">
<title>Node1&#45;&gt;Node3</title>
<path fill="none" stroke="midnightblue" d="M524.85,-65.99C467.26,-57.55 383.92,-44.68 311.5,-31 302.05,-29.21 291.88,-27.08 282.42,-25.02"/>
<polygon fill="midnightblue" stroke="midnightblue" points="524.53,-69.48 534.93,-67.46 525.54,-62.55 524.53,-69.48"/>
</g>
<!-- Node4 -->
<g id="node4" class="node">
<title>Node4</title>
<g id="a_node4"><a xlink:href="test__emulator__add_8cpp.html" target="_top" xlink:title=" ">
<polygon fill="white" stroke="black" points="320.5,-0.5 320.5,-30.5 444.5,-30.5 444.5,-0.5 320.5,-0.5"/>
<text text-anchor="start" x="328.5" y="-18.5" font-family="Helvetica,sans-Serif" font-size="10.00">src/test/test_emulator</text>
<text text-anchor="middle" x="382.5" y="-7.5" font-family="Helvetica,sans-Serif" font-size="10.00">_add.cpp</text>
</a>
</g>
</g>
<!-- Node1&#45;&gt;Node4 -->
<g id="edge3" class="edge">
<title>Node1&#45;&gt;Node4</title>
<path fill="none" stroke="midnightblue" d="M555.17,-64.73C520.41,-55.02 470.07,-40.96 432.7,-30.52"/>
<polygon fill="midnightblue" stroke="midnightblue" points="554.41,-68.16 564.98,-67.48 556.29,-61.41 554.41,-68.16"/>
</g>
<!-- Node5 -->
<g id="node5" class="node">
<title>Node5</title>
<g id="a_node5"><a xlink:href="test__emulator__addi_8cpp.html" target="_top" xlink:title=" ">
<polygon fill="white" stroke="black" points="462.5,-0.5 462.5,-30.5 586.5,-30.5 586.5,-0.5 462.5,-0.5"/>
<text text-anchor="start" x="470.5" y="-18.5" font-family="Helvetica,sans-Serif" font-size="10.00">src/test/test_emulator</text>
<text text-anchor="middle" x="524.5" y="-7.5" font-family="Helvetica,sans-Serif" font-size="10.00">_addi.cpp</text>
</a>
</g>
</g>
<!-- Node1&#45;&gt;Node5 -->
<g id="edge4" class="edge">
<title>Node1&#45;&gt;Node5</title>
<path fill="none" stroke="midnightblue" d="M577.51,-60.92C566.36,-51.58 552.14,-39.66 541.23,-30.52"/>
<polygon fill="midnightblue" stroke="midnightblue" points="575.41,-63.73 585.33,-67.48 579.91,-58.37 575.41,-63.73"/>
</g>
<!-- Node6 -->
<g id="node6" class="node">
<title>Node6</title>
<g id="a_node6"><a xlink:href="test__emulator__and_8cpp.html" target="_top" xlink:title=" ">
<polygon fill="white" stroke="black" points="604.5,-0.5 604.5,-30.5 728.5,-30.5 728.5,-0.5 604.5,-0.5"/>
<text text-anchor="start" x="612.5" y="-18.5" font-family="Helvetica,sans-Serif" font-size="10.00">src/test/test_emulator</text>
<text text-anchor="middle" x="666.5" y="-7.5" font-family="Helvetica,sans-Serif" font-size="10.00">_and.cpp</text>
</a>
</g>
</g>
<!-- Node1&#45;&gt;Node6 -->
<g id="edge5" class="edge">
<title>Node1&#45;&gt;Node6</title>
<path fill="none" stroke="midnightblue" d="M613.49,-60.92C624.64,-51.58 638.86,-39.66 649.77,-30.52"/>
<polygon fill="midnightblue" stroke="midnightblue" points="611.09,-58.37 605.67,-67.48 615.59,-63.73 611.09,-58.37"/>
</g>
<!-- Node7 -->
<g id="node7" class="node">
<title>Node7</title>
<g id="a_node7"><a xlink:href="test__emulator__auipc_8cpp.html" target="_top" xlink:title=" ">
<polygon fill="white" stroke="black" points="746.5,-0.5 746.5,-30.5 870.5,-30.5 870.5,-0.5 746.5,-0.5"/>
<text text-anchor="start" x="754.5" y="-18.5" font-family="Helvetica,sans-Serif" font-size="10.00">src/test/test_emulator</text>
<text text-anchor="middle" x="808.5" y="-7.5" font-family="Helvetica,sans-Serif" font-size="10.00">_auipc.cpp</text>
</a>
</g>
</g>
<!-- Node1&#45;&gt;Node7 -->
<g id="edge6" class="edge">
<title>Node1&#45;&gt;Node7</title>
<path fill="none" stroke="midnightblue" d="M635.83,-64.73C670.59,-55.02 720.93,-40.96 758.3,-30.52"/>
<polygon fill="midnightblue" stroke="midnightblue" points="634.71,-61.41 626.02,-67.48 636.59,-68.16 634.71,-61.41"/>
</g>
<!-- Node8 -->
<g id="node8" class="node">
<title>Node8</title>
<g id="a_node8"><a xlink:href="test__emulator__andi_8cpp.html" target="_top" xlink:title=" ">
<polygon fill="white" stroke="black" points="888.5,-0.5 888.5,-30.5 1012.5,-30.5 1012.5,-0.5 888.5,-0.5"/>
<text text-anchor="start" x="896.5" y="-18.5" font-family="Helvetica,sans-Serif" font-size="10.00">src/test/test_emulator</text>
<text text-anchor="middle" x="950.5" y="-7.5" font-family="Helvetica,sans-Serif" font-size="10.00">_andi.cpp</text>
</a>
</g>
</g>
<!-- Node1&#45;&gt;Node8 -->
<g id="edge7" class="edge">
<title>Node1&#45;&gt;Node8</title>
<path fill="none" stroke="midnightblue" d="M664.18,-65.99C721.79,-57.38 806.17,-44.29 879.5,-31 882.35,-30.48 885.26,-29.94 888.19,-29.39"/>
<polygon fill="midnightblue" stroke="midnightblue" points="663.47,-62.56 654.1,-67.49 664.51,-69.48 663.47,-62.56"/>
</g>
<!-- Node9 -->
<g id="node9" class="node">
<title>Node9</title>
<g id="a_node9"><a xlink:href="test__xlen__32bit_8cpp.html" target="_top" xlink:title=" ">
<polygon fill="white" stroke="black" points="1031,-0.5 1031,-30.5 1132,-30.5 1132,-0.5 1031,-0.5"/>
<text text-anchor="start" x="1039" y="-18.5" font-family="Helvetica,sans-Serif" font-size="10.00">src/test/test_xlen</text>
<text text-anchor="middle" x="1081.5" y="-7.5" font-family="Helvetica,sans-Serif" font-size="10.00">_32bit.cpp</text>
</a>
</g>
</g>
<!-- Node1&#45;&gt;Node9 -->
<g id="edge8" class="edge">
<title>Node1&#45;&gt;Node9</title>
<path fill="none" stroke="midnightblue" d="M691.72,-69.48C778.39,-62.74 909.07,-50.44 1021.5,-31 1024.56,-30.47 1027.7,-29.88 1030.86,-29.24"/>
<polygon fill="midnightblue" stroke="midnightblue" points="691.34,-66 681.63,-70.25 691.87,-72.98 691.34,-66"/>
</g>
</g>
</svg>
