<?xml version="1.0" encoding="UTF-8" standalone="no"?>
<!DOCTYPE svg PUBLIC "-//W3C//DTD SVG 1.1//EN"
 "http://www.w3.org/Graphics/SVG/1.1/DTD/svg11.dtd">
<!-- Generated by graphviz version 2.43.0 (0)
 -->
<!-- Title: src/RoL/emulation/emulator.cpp Pages: 1 -->
<svg width="785pt" height="196pt"
 viewBox="0.00 0.00 784.50 196.00" xmlns="http://www.w3.org/2000/svg" xmlns:xlink="http://www.w3.org/1999/xlink">
<g id="graph0" class="graph" transform="scale(1 1) rotate(0) translate(4 192)">
<title>src/RoL/emulation/emulator.cpp</title>
<polygon fill="white" stroke="transparent" points="-4,4 -4,-192 780.5,-192 780.5,4 -4,4"/>
<!-- Node1 -->
<g id="node1" class="node">
<title>Node1</title>
<g id="a_node1"><a xlink:title=" ">
<polygon fill="#bfbfbf" stroke="black" points="210.5,-168.5 210.5,-187.5 381.5,-187.5 381.5,-168.5 210.5,-168.5"/>
<text text-anchor="middle" x="296" y="-175.5" font-family="Helvetica,sans-Serif" font-size="10.00">src/RoL/emulation/emulator.cpp</text>
</a>
</g>
</g>
<!-- Node2 -->
<g id="node2" class="node">
<title>Node2</title>
<g id="a_node2"><a xlink:href="emulator_8hpp.html" target="_top" xlink:title=" ">
<polygon fill="white" stroke="black" points="41.5,-112.5 41.5,-131.5 196.5,-131.5 196.5,-112.5 41.5,-112.5"/>
<text text-anchor="middle" x="119" y="-119.5" font-family="Helvetica,sans-Serif" font-size="10.00">RoL/emulation/emulator.hpp</text>
</a>
</g>
</g>
<!-- Node1&#45;&gt;Node2 -->
<g id="edge1" class="edge">
<title>Node1&#45;&gt;Node2</title>
<path fill="none" stroke="midnightblue" d="M267.95,-168.44C237.92,-159.28 190.09,-144.69 156.76,-134.52"/>
<polygon fill="midnightblue" stroke="midnightblue" points="157.5,-131.09 146.91,-131.52 155.46,-137.78 157.5,-131.09"/>
</g>
<!-- Node4 -->
<g id="node4" class="node">
<title>Node4</title>
<g id="a_node4"><a xlink:title=" ">
<polygon fill="white" stroke="#bfbfbf" points="0,-56.5 0,-75.5 44,-75.5 44,-56.5 0,-56.5"/>
<text text-anchor="middle" x="22" y="-63.5" font-family="Helvetica,sans-Serif" font-size="10.00">string</text>
</a>
</g>
</g>
<!-- Node1&#45;&gt;Node4 -->
<g id="edge23" class="edge">
<title>Node1&#45;&gt;Node4</title>
<path fill="none" stroke="midnightblue" d="M210.28,-173.03C142.89,-168.03 56.46,-156.86 32,-132 20.25,-120.06 18.68,-100.44 19.49,-85.88"/>
<polygon fill="midnightblue" stroke="midnightblue" points="23.01,-85.82 20.49,-75.53 16.04,-85.14 23.01,-85.82"/>
</g>
<!-- Node5 -->
<g id="node5" class="node">
<title>Node5</title>
<g id="a_node5"><a xlink:title=" ">
<polygon fill="white" stroke="#bfbfbf" points="95.5,-0.5 95.5,-19.5 142.5,-19.5 142.5,-0.5 95.5,-0.5"/>
<text text-anchor="middle" x="119" y="-7.5" font-family="Helvetica,sans-Serif" font-size="10.00">vector</text>
</a>
</g>
</g>
<!-- Node1&#45;&gt;Node5 -->
<g id="edge25" class="edge">
<title>Node1&#45;&gt;Node5</title>
<path fill="none" stroke="midnightblue" d="M286.48,-168.08C257.78,-141.15 171.79,-60.51 135.48,-26.45"/>
<polygon fill="midnightblue" stroke="midnightblue" points="137.82,-23.86 128.14,-19.57 133.04,-28.96 137.82,-23.86"/>
</g>
<!-- Node6 -->
<g id="node6" class="node">
<title>Node6</title>
<g id="a_node6"><a xlink:href="parse_8hpp.html" target="_top" xlink:title=" ">
<polygon fill="white" stroke="black" points="253,-56.5 253,-75.5 339,-75.5 339,-56.5 253,-56.5"/>
<text text-anchor="middle" x="296" y="-63.5" font-family="Helvetica,sans-Serif" font-size="10.00">RoL/parse.hpp</text>
</a>
</g>
</g>
<!-- Node1&#45;&gt;Node6 -->
<g id="edge14" class="edge">
<title>Node1&#45;&gt;Node6</title>
<path fill="none" stroke="midnightblue" d="M296,-168.37C296,-150.62 296,-109.67 296,-85.6"/>
<polygon fill="midnightblue" stroke="midnightblue" points="299.5,-85.59 296,-75.59 292.5,-85.59 299.5,-85.59"/>
</g>
<!-- Node12 -->
<g id="node12" class="node">
<title>Node12</title>
<g id="a_node12"><a xlink:title=" ">
<polygon fill="white" stroke="#bfbfbf" points="563,-0.5 563,-19.5 613,-19.5 613,-0.5 563,-0.5"/>
<text text-anchor="middle" x="588" y="-7.5" font-family="Helvetica,sans-Serif" font-size="10.00">ranges</text>
</a>
</g>
</g>
<!-- Node1&#45;&gt;Node12 -->
<g id="edge22" class="edge">
<title>Node1&#45;&gt;Node12</title>
<path fill="none" stroke="midnightblue" d="M299.91,-168.3C310.52,-145.76 342.15,-85.2 388,-56 449.06,-17.11 478.17,-35.95 552.93,-20.05"/>
<polygon fill="midnightblue" stroke="midnightblue" points="553.81,-23.44 562.78,-17.81 552.25,-16.61 553.81,-23.44"/>
</g>
<!-- Node13 -->
<g id="node13" class="node">
<title>Node13</title>
<g id="a_node13"><a xlink:href="shared_8hpp.html" target="_top" xlink:title=" ">
<polygon fill="white" stroke="black" points="395,-112.5 395,-131.5 533,-131.5 533,-112.5 395,-112.5"/>
<text text-anchor="middle" x="464" y="-119.5" font-family="Helvetica,sans-Serif" font-size="10.00">RoL/threaded/shared.hpp</text>
</a>
</g>
</g>
<!-- Node1&#45;&gt;Node13 -->
<g id="edge15" class="edge">
<title>Node1&#45;&gt;Node13</title>
<path fill="none" stroke="midnightblue" d="M322.62,-168.44C351.01,-159.32 396.14,-144.81 427.75,-134.65"/>
<polygon fill="midnightblue" stroke="midnightblue" points="429.06,-137.91 437.5,-131.52 426.91,-131.24 429.06,-137.91"/>
</g>
<!-- Node18 -->
<g id="node18" class="node">
<title>Node18</title>
<g id="a_node18"><a xlink:title=" ">
<polygon fill="white" stroke="#bfbfbf" points="551,-112.5 551,-131.5 607,-131.5 607,-112.5 551,-112.5"/>
<text text-anchor="middle" x="579" y="-119.5" font-family="Helvetica,sans-Serif" font-size="10.00">sstream</text>
</a>
</g>
</g>
<!-- Node1&#45;&gt;Node18 -->
<g id="edge24" class="edge">
<title>Node1&#45;&gt;Node18</title>
<path fill="none" stroke="midnightblue" d="M347.53,-168.46C395.18,-160.37 468.19,-147.46 540.55,-132.21"/>
<polygon fill="midnightblue" stroke="midnightblue" points="541.7,-135.55 550.76,-130.05 540.25,-128.7 541.7,-135.55"/>
</g>
<!-- Node3 -->
<g id="node3" class="node">
<title>Node3</title>
<g id="a_node3"><a xlink:title=" ">
<polygon fill="white" stroke="#bfbfbf" points="33,-0.5 33,-19.5 77,-19.5 77,-0.5 33,-0.5"/>
<text text-anchor="middle" x="55" y="-7.5" font-family="Helvetica,sans-Serif" font-size="10.00">bitset</text>
</a>
</g>
</g>
<!-- Node2&#45;&gt;Node3 -->
<g id="edge2" class="edge">
<title>Node2&#45;&gt;Node3</title>
<path fill="none" stroke="midnightblue" d="M113.98,-112.37C103.46,-94.3 78.96,-52.18 65.07,-28.31"/>
<polygon fill="midnightblue" stroke="midnightblue" points="68.05,-26.47 60,-19.59 62,-30 68.05,-26.47"/>
</g>
<!-- Node2&#45;&gt;Node4 -->
<g id="edge3" class="edge">
<title>Node2&#45;&gt;Node4</title>
<path fill="none" stroke="midnightblue" d="M103.42,-112.32C88,-103.74 64.19,-90.49 46.29,-80.52"/>
<polygon fill="midnightblue" stroke="midnightblue" points="47.99,-77.46 37.55,-75.65 44.58,-83.58 47.99,-77.46"/>
</g>
<!-- Node2&#45;&gt;Node5 -->
<g id="edge4" class="edge">
<title>Node2&#45;&gt;Node5</title>
<path fill="none" stroke="midnightblue" d="M119,-112.37C119,-94.62 119,-53.67 119,-29.6"/>
<polygon fill="midnightblue" stroke="midnightblue" points="122.5,-29.59 119,-19.59 115.5,-29.59 122.5,-29.59"/>
</g>
<!-- Node2&#45;&gt;Node6 -->
<g id="edge5" class="edge">
<title>Node2&#45;&gt;Node6</title>
<path fill="none" stroke="midnightblue" d="M147.05,-112.44C177.08,-103.28 224.91,-88.69 258.24,-78.52"/>
<polygon fill="midnightblue" stroke="midnightblue" points="259.54,-81.78 268.09,-75.52 257.5,-75.09 259.54,-81.78"/>
</g>
<!-- Node6&#45;&gt;Node3 -->
<g id="edge7" class="edge">
<title>Node6&#45;&gt;Node3</title>
<path fill="none" stroke="midnightblue" d="M252.76,-56.67C212.32,-48.68 150.03,-35.83 87.36,-20.21"/>
<polygon fill="midnightblue" stroke="midnightblue" points="87.85,-16.73 77.3,-17.68 86.14,-23.51 87.85,-16.73"/>
</g>
<!-- Node6&#45;&gt;Node5 -->
<g id="edge12" class="edge">
<title>Node6&#45;&gt;Node5</title>
<path fill="none" stroke="midnightblue" d="M267.95,-56.44C236.59,-46.88 185.83,-31.39 152.43,-21.2"/>
<polygon fill="midnightblue" stroke="midnightblue" points="153.25,-17.79 142.67,-18.22 151.21,-24.49 153.25,-17.79"/>
</g>
<!-- Node7 -->
<g id="node7" class="node">
<title>Node7</title>
<g id="a_node7"><a xlink:title=" ">
<polygon fill="white" stroke="#bfbfbf" points="161,-0.5 161,-19.5 225,-19.5 225,-0.5 161,-0.5"/>
<text text-anchor="middle" x="193" y="-7.5" font-family="Helvetica,sans-Serif" font-size="10.00">algorithm</text>
</a>
</g>
</g>
<!-- Node6&#45;&gt;Node7 -->
<g id="edge6" class="edge">
<title>Node6&#45;&gt;Node7</title>
<path fill="none" stroke="midnightblue" d="M279.45,-56.32C263.01,-47.7 237.57,-34.36 218.53,-24.39"/>
<polygon fill="midnightblue" stroke="midnightblue" points="219.99,-21.2 209.51,-19.65 216.74,-27.4 219.99,-21.2"/>
</g>
<!-- Node8 -->
<g id="node8" class="node">
<title>Node8</title>
<g id="a_node8"><a xlink:title=" ">
<polygon fill="white" stroke="#bfbfbf" points="243.5,-0.5 243.5,-19.5 304.5,-19.5 304.5,-0.5 243.5,-0.5"/>
<text text-anchor="middle" x="274" y="-7.5" font-family="Helvetica,sans-Serif" font-size="10.00">charconv</text>
</a>
</g>
</g>
<!-- Node6&#45;&gt;Node8 -->
<g id="edge8" class="edge">
<title>Node6&#45;&gt;Node8</title>
<path fill="none" stroke="midnightblue" d="M292.37,-56.08C289.39,-48.77 285.07,-38.18 281.38,-29.1"/>
<polygon fill="midnightblue" stroke="midnightblue" points="284.58,-27.69 277.57,-19.75 278.1,-30.33 284.58,-27.69"/>
</g>
<!-- Node9 -->
<g id="node9" class="node">
<title>Node9</title>
<g id="a_node9"><a xlink:title=" ">
<polygon fill="white" stroke="#bfbfbf" points="323,-0.5 323,-19.5 373,-19.5 373,-0.5 323,-0.5"/>
<text text-anchor="middle" x="348" y="-7.5" font-family="Helvetica,sans-Serif" font-size="10.00">cstdint</text>
</a>
</g>
</g>
<!-- Node6&#45;&gt;Node9 -->
<g id="edge9" class="edge">
<title>Node6&#45;&gt;Node9</title>
<path fill="none" stroke="midnightblue" d="M304.59,-56.08C312.16,-48.22 323.38,-36.57 332.51,-27.08"/>
<polygon fill="midnightblue" stroke="midnightblue" points="335.16,-29.38 339.57,-19.75 330.12,-24.53 335.16,-29.38"/>
</g>
<!-- Node10 -->
<g id="node10" class="node">
<title>Node10</title>
<g id="a_node10"><a xlink:title=" ">
<polygon fill="white" stroke="#bfbfbf" points="391.5,-0.5 391.5,-19.5 484.5,-19.5 484.5,-0.5 391.5,-0.5"/>
<text text-anchor="middle" x="438" y="-7.5" font-family="Helvetica,sans-Serif" font-size="10.00">unordered_map</text>
</a>
</g>
</g>
<!-- Node6&#45;&gt;Node10 -->
<g id="edge10" class="edge">
<title>Node6&#45;&gt;Node10</title>
<path fill="none" stroke="midnightblue" d="M318.5,-56.44C342.08,-47.48 379.32,-33.31 405.96,-23.18"/>
<polygon fill="midnightblue" stroke="midnightblue" points="407.5,-26.34 415.6,-19.52 405.01,-19.8 407.5,-26.34"/>
</g>
<!-- Node11 -->
<g id="node11" class="node">
<title>Node11</title>
<g id="a_node11"><a xlink:title=" ">
<polygon fill="white" stroke="#bfbfbf" points="503,-0.5 503,-19.5 545,-19.5 545,-0.5 503,-0.5"/>
<text text-anchor="middle" x="524" y="-7.5" font-family="Helvetica,sans-Serif" font-size="10.00">array</text>
</a>
</g>
</g>
<!-- Node6&#45;&gt;Node11 -->
<g id="edge11" class="edge">
<title>Node6&#45;&gt;Node11</title>
<path fill="none" stroke="midnightblue" d="M337.54,-56.42C375.62,-48.36 433.77,-35.58 492.87,-20.17"/>
<polygon fill="midnightblue" stroke="midnightblue" points="493.96,-23.5 502.75,-17.57 492.18,-16.73 493.96,-23.5"/>
</g>
<!-- Node6&#45;&gt;Node12 -->
<g id="edge13" class="edge">
<title>Node6&#45;&gt;Node12</title>
<path fill="none" stroke="midnightblue" d="M339.11,-57.94C397.58,-48.3 499.96,-31.13 552.91,-20.06"/>
<polygon fill="midnightblue" stroke="midnightblue" points="553.77,-23.45 562.81,-17.93 552.3,-16.61 553.77,-23.45"/>
</g>
<!-- Node14 -->
<g id="node14" class="node">
<title>Node14</title>
<g id="a_node14"><a xlink:href="queue_8hpp.html" target="_top" xlink:title=" ">
<polygon fill="white" stroke="black" points="603.5,-56.5 603.5,-75.5 738.5,-75.5 738.5,-56.5 603.5,-56.5"/>
<text text-anchor="middle" x="671" y="-63.5" font-family="Helvetica,sans-Serif" font-size="10.00">RoL/threaded/queue.hpp</text>
</a>
</g>
</g>
<!-- Node13&#45;&gt;Node14 -->
<g id="edge16" class="edge">
<title>Node13&#45;&gt;Node14</title>
<path fill="none" stroke="midnightblue" d="M496.8,-112.44C532.38,-103.16 589.31,-88.31 628.35,-78.13"/>
<polygon fill="midnightblue" stroke="midnightblue" points="629.56,-81.43 638.35,-75.52 627.79,-74.65 629.56,-81.43"/>
</g>
<!-- Node17 -->
<g id="node17" class="node">
<title>Node17</title>
<g id="a_node17"><a xlink:href="vector_8hpp.html" target="_top" xlink:title=" ">
<polygon fill="white" stroke="black" points="396.5,-56.5 396.5,-75.5 531.5,-75.5 531.5,-56.5 396.5,-56.5"/>
<text text-anchor="middle" x="464" y="-63.5" font-family="Helvetica,sans-Serif" font-size="10.00">RoL/threaded/vector.hpp</text>
</a>
</g>
</g>
<!-- Node13&#45;&gt;Node17 -->
<g id="edge19" class="edge">
<title>Node13&#45;&gt;Node17</title>
<path fill="none" stroke="midnightblue" d="M464,-112.08C464,-105.01 464,-94.86 464,-85.99"/>
<polygon fill="midnightblue" stroke="midnightblue" points="467.5,-85.75 464,-75.75 460.5,-85.75 467.5,-85.75"/>
</g>
<!-- Node15 -->
<g id="node15" class="node">
<title>Node15</title>
<g id="a_node15"><a xlink:title=" ">
<polygon fill="white" stroke="#bfbfbf" points="631,-0.5 631,-19.5 711,-19.5 711,-0.5 631,-0.5"/>
<text text-anchor="middle" x="671" y="-7.5" font-family="Helvetica,sans-Serif" font-size="10.00">pico/mutex.h</text>
</a>
</g>
</g>
<!-- Node14&#45;&gt;Node15 -->
<g id="edge17" class="edge">
<title>Node14&#45;&gt;Node15</title>
<path fill="none" stroke="midnightblue" d="M671,-56.08C671,-49.01 671,-38.86 671,-29.99"/>
<polygon fill="midnightblue" stroke="midnightblue" points="674.5,-29.75 671,-19.75 667.5,-29.75 674.5,-29.75"/>
</g>
<!-- Node16 -->
<g id="node16" class="node">
<title>Node16</title>
<g id="a_node16"><a xlink:title=" ">
<polygon fill="white" stroke="#bfbfbf" points="729.5,-0.5 729.5,-19.5 776.5,-19.5 776.5,-0.5 729.5,-0.5"/>
<text text-anchor="middle" x="753" y="-7.5" font-family="Helvetica,sans-Serif" font-size="10.00">queue</text>
</a>
</g>
</g>
<!-- Node14&#45;&gt;Node16 -->
<g id="edge18" class="edge">
<title>Node14&#45;&gt;Node16</title>
<path fill="none" stroke="midnightblue" d="M684.17,-56.32C696.85,-47.98 716.23,-35.21 731.21,-25.35"/>
<polygon fill="midnightblue" stroke="midnightblue" points="733.43,-28.08 739.86,-19.65 729.58,-22.23 733.43,-28.08"/>
</g>
<!-- Node17&#45;&gt;Node5 -->
<g id="edge21" class="edge">
<title>Node17&#45;&gt;Node5</title>
<path fill="none" stroke="midnightblue" d="M396.33,-57.68C335.08,-50.49 242.26,-38.23 152.51,-19.87"/>
<polygon fill="midnightblue" stroke="midnightblue" points="153.21,-16.44 142.71,-17.84 151.79,-23.3 153.21,-16.44"/>
</g>
<!-- Node17&#45;&gt;Node15 -->
<g id="edge20" class="edge">
<title>Node17&#45;&gt;Node15</title>
<path fill="none" stroke="midnightblue" d="M496.8,-56.44C532.38,-47.16 589.31,-32.31 628.35,-22.13"/>
<polygon fill="midnightblue" stroke="midnightblue" points="629.56,-25.43 638.35,-19.52 627.79,-18.65 629.56,-25.43"/>
</g>
</g>
</svg>
