<?xml version="1.0" encoding="UTF-8" standalone="no"?>
<!DOCTYPE svg PUBLIC "-//W3C//DTD SVG 1.1//EN"
 "http://www.w3.org/Graphics/SVG/1.1/DTD/svg11.dtd">
<!-- Generated by graphviz version 2.43.0 (0)
 -->
<!-- Title: src/RoL/emulation/emulator.cpp Pages: 1 -->
<!--zoomable 263 -->
<svg id="main" version="1.1" xmlns="http://www.w3.org/2000/svg" xmlns:xlink="http://www.w3.org/1999/xlink" xml:space="preserve" onload="init(evt)">
<style type="text/css"><![CDATA[
.edge:hover path { stroke: red; }
.edge:hover polygon { stroke: red; fill: red; }
]]></style>
<script type="text/javascript"><![CDATA[
var edges = document.getElementsByTagName('g');
if (edges && edges.length) {
  for (var i=0;i<edges.length;i++) {
    if (edges[i].id.substr(0,4)=='edge') {
      edges[i].setAttribute('class','edge');
    }
  }
}
]]></script>
        <defs>
                <circle id="rim" cx="0" cy="0" r="7"/>
                <circle id="rim2" cx="0" cy="0" r="3.5"/>
                <g id="zoomPlus">
                        <use xlink:href="#rim" fill="#404040">
                                <set attributeName="fill" to="#808080" begin="zoomplus.mouseover" end="zoomplus.mouseout"/>
                        </use>
                        <path d="M-4,0h8M0,-4v8" fill="none" stroke="white" stroke-width="1.5" pointer-events="none"/>
                </g>
                <g id="zoomMin">
                        <use xlink:href="#rim" fill="#404040">
                                <set attributeName="fill" to="#808080" begin="zoomminus.mouseover" end="zoomminus.mouseout"/>
                        </use>
                        <path d="M-4,0h8" fill="none" stroke="white" stroke-width="1.5" pointer-events="none"/>
                </g>
                <g id="dirArrow">
                        <path fill="none" stroke="white" stroke-width="1.5" d="M0,-3.0v7 M-2.5,-0.5L0,-3.0L2.5,-0.5"/>
                </g>
               <g id="resetDef">
                       <use xlink:href="#rim2" fill="#404040">
                               <set attributeName="fill" to="#808080" begin="reset.mouseover" end="reset.mouseout"/>
                       </use>
               </g>
        </defs>

<script type="text/javascript">
var viewWidth = 712;
var viewHeight = 263;
var sectionId = 'dynsection-0';
</script>
<script xlink:href="svgpan.js"/>
<svg id="graph" class="graph">
<g id="viewport">
<title>src/RoL/emulation/emulator.cpp</title>
<polygon fill="white" stroke="transparent" points="-4,4 -4,-259 708.46,-259 708.46,4 -4,4"/>
<!-- Node1 -->
<g id="node1" class="node">
<title>Node1</title>
<g id="a_node1"><a xlink:title=" ">
<polygon fill="#bfbfbf" stroke="black" points="256.46,-235.5 256.46,-254.5 427.46,-254.5 427.46,-235.5 256.46,-235.5"/>
<text text-anchor="middle" x="341.96" y="-242.5" font-family="Helvetica,sans-Serif" font-size="10.00">src/RoL/emulation/emulator.cpp</text>
</a>
</g>
</g>
<!-- Node2 -->
<g id="node2" class="node">
<title>Node2</title>
<g id="a_node2"><a xlink:href="emulator_8hpp.html" target="_top" xlink:title=" ">
<polygon fill="white" stroke="black" points="38.46,-174 38.46,-193 193.46,-193 193.46,-174 38.46,-174"/>
<text text-anchor="middle" x="115.96" y="-181" font-family="Helvetica,sans-Serif" font-size="10.00">RoL/emulation/emulator.hpp</text>
</a>
</g>
</g>
<!-- Node1&#45;&gt;Node2 -->
<g id="edge1" class="edge">
<title>Node1&#45;&gt;Node2</title>
<path fill="none" stroke="midnightblue" d="M309.58,-235.48C269.72,-224.98 201.94,-207.14 158.07,-195.59"/>
<polygon fill="midnightblue" stroke="midnightblue" points="158.84,-192.17 148.28,-193.01 157.06,-198.94 158.84,-192.17"/>
</g>
<!-- Node4 -->
<g id="node4" class="node">
<title>Node4</title>
<g id="a_node4"><a xlink:title=" ">
<polygon fill="white" stroke="#bfbfbf" points="345.46,-0.5 345.46,-19.5 392.46,-19.5 392.46,-0.5 345.46,-0.5"/>
<text text-anchor="middle" x="368.96" y="-7.5" font-family="Helvetica,sans-Serif" font-size="10.00">vector</text>
</a>
</g>
</g>
<!-- Node1&#45;&gt;Node4 -->
<g id="edge11" class="edge">
<title>Node1&#45;&gt;Node4</title>
<path fill="none" stroke="midnightblue" d="M342.95,-235.43C346.86,-201.75 361.2,-77.99 366.75,-30.1"/>
<polygon fill="midnightblue" stroke="midnightblue" points="370.26,-30.23 367.93,-19.9 363.3,-29.43 370.26,-30.23"/>
</g>
<!-- Node5 -->
<g id="node5" class="node">
<title>Node5</title>
<g id="a_node5"><a xlink:href="parse_8hpp.html" target="_top" xlink:title=" ">
<polygon fill="white" stroke="black" points="163.96,-112.5 163.96,-131.5 249.96,-131.5 249.96,-112.5 163.96,-112.5"/>
<text text-anchor="middle" x="206.96" y="-119.5" font-family="Helvetica,sans-Serif" font-size="10.00">RoL/parse.hpp</text>
</a>
</g>
</g>
<!-- Node1&#45;&gt;Node5 -->
<g id="edge10" class="edge">
<title>Node1&#45;&gt;Node5</title>
<path fill="none" stroke="midnightblue" d="M332.25,-235.3C309.58,-214.98 252.91,-164.19 224.21,-138.46"/>
<polygon fill="midnightblue" stroke="midnightblue" points="226.36,-135.69 216.58,-131.62 221.69,-140.9 226.36,-135.69"/>
</g>
<!-- Node9 -->
<g id="node9" class="node">
<title>Node9</title>
<g id="a_node9"><a xlink:href="shared__job_8hpp.html" target="_top" xlink:title=" ">
<polygon fill="white" stroke="black" points="421.46,-168.5 421.46,-198.5 538.46,-198.5 538.46,-168.5 421.46,-168.5"/>
<text text-anchor="start" x="429.46" y="-186.5" font-family="Helvetica,sans-Serif" font-size="10.00">RoL/threaded/shared</text>
<text text-anchor="middle" x="479.96" y="-175.5" font-family="Helvetica,sans-Serif" font-size="10.00">_job.hpp</text>
</a>
</g>
</g>
<!-- Node1&#45;&gt;Node9 -->
<g id="edge12" class="edge">
<title>Node1&#45;&gt;Node9</title>
<path fill="none" stroke="midnightblue" d="M361.73,-235.48C381.56,-226.93 412.7,-213.5 438.04,-202.57"/>
<polygon fill="midnightblue" stroke="midnightblue" points="439.64,-205.7 447.44,-198.52 436.87,-199.27 439.64,-205.7"/>
</g>
<!-- Node3 -->
<g id="node3" class="node">
<title>Node3</title>
<g id="a_node3"><a xlink:title=" ">
<polygon fill="white" stroke="#bfbfbf" points="18.96,-56.5 18.96,-75.5 62.96,-75.5 62.96,-56.5 18.96,-56.5"/>
<text text-anchor="middle" x="40.96" y="-63.5" font-family="Helvetica,sans-Serif" font-size="10.00">bitset</text>
</a>
</g>
</g>
<!-- Node2&#45;&gt;Node3 -->
<g id="edge2" class="edge">
<title>Node2&#45;&gt;Node3</title>
<path fill="none" stroke="midnightblue" d="M110.32,-173.82C98,-154.84 68.46,-109.35 52.19,-84.29"/>
<polygon fill="midnightblue" stroke="midnightblue" points="55.04,-82.26 46.66,-75.78 49.17,-86.08 55.04,-82.26"/>
</g>
<!-- Node2&#45;&gt;Node4 -->
<g id="edge3" class="edge">
<title>Node2&#45;&gt;Node4</title>
<path fill="none" stroke="midnightblue" d="M98.98,-173.93C60.24,-153.34 -28.43,-99.5 9.96,-56 31.31,-31.81 249.64,-17.46 335.01,-12.74"/>
<polygon fill="midnightblue" stroke="midnightblue" points="335.41,-16.22 345.21,-12.19 335.03,-9.23 335.41,-16.22"/>
</g>
<!-- Node2&#45;&gt;Node5 -->
<g id="edge4" class="edge">
<title>Node2&#45;&gt;Node5</title>
<path fill="none" stroke="midnightblue" d="M129,-173.98C143.73,-164.34 167.93,-148.52 185.47,-137.05"/>
<polygon fill="midnightblue" stroke="midnightblue" points="187.49,-139.91 193.95,-131.51 183.66,-134.05 187.49,-139.91"/>
</g>
<!-- Node5&#45;&gt;Node3 -->
<g id="edge5" class="edge">
<title>Node5&#45;&gt;Node3</title>
<path fill="none" stroke="midnightblue" d="M180.66,-112.44C151.37,-102.92 104.05,-87.52 72.72,-77.33"/>
<polygon fill="midnightblue" stroke="midnightblue" points="73.75,-73.99 63.16,-74.22 71.58,-80.64 73.75,-73.99"/>
</g>
<!-- Node5&#45;&gt;Node4 -->
<g id="edge8" class="edge">
<title>Node5&#45;&gt;Node4</title>
<path fill="none" stroke="midnightblue" d="M250.01,-113.11C275.74,-106.63 307.83,-95.28 330.96,-76 345.83,-63.61 356.21,-43.81 362.32,-29.31"/>
<polygon fill="midnightblue" stroke="midnightblue" points="365.63,-30.47 366.02,-19.88 359.11,-27.91 365.63,-30.47"/>
</g>
<!-- Node6 -->
<g id="node6" class="node">
<title>Node6</title>
<g id="a_node6"><a xlink:title=" ">
<polygon fill="white" stroke="#bfbfbf" points="81.46,-56.5 81.46,-75.5 142.46,-75.5 142.46,-56.5 81.46,-56.5"/>
<text text-anchor="middle" x="111.96" y="-63.5" font-family="Helvetica,sans-Serif" font-size="10.00">charconv</text>
</a>
</g>
</g>
<!-- Node5&#45;&gt;Node6 -->
<g id="edge6" class="edge">
<title>Node5&#45;&gt;Node6</title>
<path fill="none" stroke="midnightblue" d="M191.7,-112.32C176.74,-103.82 153.71,-90.73 136.23,-80.8"/>
<polygon fill="midnightblue" stroke="midnightblue" points="137.61,-77.55 127.19,-75.65 134.15,-83.64 137.61,-77.55"/>
</g>
<!-- Node7 -->
<g id="node7" class="node">
<title>Node7</title>
<g id="a_node7"><a xlink:title=" ">
<polygon fill="white" stroke="#bfbfbf" points="160.46,-56.5 160.46,-75.5 253.46,-75.5 253.46,-56.5 160.46,-56.5"/>
<text text-anchor="middle" x="206.96" y="-63.5" font-family="Helvetica,sans-Serif" font-size="10.00">unordered_map</text>
</a>
</g>
</g>
<!-- Node5&#45;&gt;Node7 -->
<g id="edge7" class="edge">
<title>Node5&#45;&gt;Node7</title>
<path fill="none" stroke="midnightblue" d="M206.96,-112.08C206.96,-105.01 206.96,-94.86 206.96,-85.99"/>
<polygon fill="midnightblue" stroke="midnightblue" points="210.46,-85.75 206.96,-75.75 203.46,-85.75 210.46,-85.75"/>
</g>
<!-- Node8 -->
<g id="node8" class="node">
<title>Node8</title>
<g id="a_node8"><a xlink:title=" ">
<polygon fill="white" stroke="#bfbfbf" points="271.96,-56.5 271.96,-75.5 321.96,-75.5 321.96,-56.5 271.96,-56.5"/>
<text text-anchor="middle" x="296.96" y="-63.5" font-family="Helvetica,sans-Serif" font-size="10.00">ranges</text>
</a>
</g>
</g>
<!-- Node5&#45;&gt;Node8 -->
<g id="edge9" class="edge">
<title>Node5&#45;&gt;Node8</title>
<path fill="none" stroke="midnightblue" d="M221.42,-112.32C235.46,-103.9 257.01,-90.97 273.5,-81.07"/>
<polygon fill="midnightblue" stroke="midnightblue" points="275.76,-83.8 282.54,-75.65 272.16,-77.8 275.76,-83.8"/>
</g>
<!-- Node10 -->
<g id="node10" class="node">
<title>Node10</title>
<g id="a_node10"><a xlink:href="shared_8hpp.html" target="_top" xlink:title=" ">
<polygon fill="white" stroke="black" points="415.96,-112.5 415.96,-131.5 553.96,-131.5 553.96,-112.5 415.96,-112.5"/>
<text text-anchor="middle" x="484.96" y="-119.5" font-family="Helvetica,sans-Serif" font-size="10.00">RoL/threaded/shared.hpp</text>
</a>
</g>
</g>
<!-- Node9&#45;&gt;Node10 -->
<g id="edge13" class="edge">
<title>Node9&#45;&gt;Node10</title>
<path fill="none" stroke="midnightblue" d="M481.15,-168.4C481.81,-160.47 482.65,-150.46 483.38,-141.86"/>
<polygon fill="midnightblue" stroke="midnightblue" points="486.88,-141.92 484.23,-131.66 479.91,-141.33 486.88,-141.92"/>
</g>
<!-- Node11 -->
<g id="node11" class="node">
<title>Node11</title>
<g id="a_node11"><a xlink:href="queue_8hpp.html" target="_top" xlink:title=" ">
<polygon fill="white" stroke="black" points="569.46,-56.5 569.46,-75.5 704.46,-75.5 704.46,-56.5 569.46,-56.5"/>
<text text-anchor="middle" x="636.96" y="-63.5" font-family="Helvetica,sans-Serif" font-size="10.00">RoL/threaded/queue.hpp</text>
</a>
</g>
</g>
<!-- Node10&#45;&gt;Node11 -->
<g id="edge14" class="edge">
<title>Node10&#45;&gt;Node11</title>
<path fill="none" stroke="midnightblue" d="M509.05,-112.44C534.51,-103.4 574.85,-89.06 603.42,-78.92"/>
<polygon fill="midnightblue" stroke="midnightblue" points="604.74,-82.16 612.99,-75.52 602.39,-75.57 604.74,-82.16"/>
</g>
<!-- Node14 -->
<g id="node14" class="node">
<title>Node14</title>
<g id="a_node14"><a xlink:href="vector_8hpp.html" target="_top" xlink:title=" ">
<polygon fill="white" stroke="black" points="416.46,-56.5 416.46,-75.5 551.46,-75.5 551.46,-56.5 416.46,-56.5"/>
<text text-anchor="middle" x="483.96" y="-63.5" font-family="Helvetica,sans-Serif" font-size="10.00">RoL/threaded/vector.hpp</text>
</a>
</g>
</g>
<!-- Node10&#45;&gt;Node14 -->
<g id="edge17" class="edge">
<title>Node10&#45;&gt;Node14</title>
<path fill="none" stroke="midnightblue" d="M484.8,-112.08C484.66,-105.01 484.48,-94.86 484.31,-85.99"/>
<polygon fill="midnightblue" stroke="midnightblue" points="487.81,-85.68 484.12,-75.75 480.81,-85.81 487.81,-85.68"/>
</g>
<!-- Node12 -->
<g id="node12" class="node">
<title>Node12</title>
<g id="a_node12"><a xlink:title=" ">
<polygon fill="white" stroke="#bfbfbf" points="478.96,-0.5 478.96,-19.5 558.96,-19.5 558.96,-0.5 478.96,-0.5"/>
<text text-anchor="middle" x="518.96" y="-7.5" font-family="Helvetica,sans-Serif" font-size="10.00">pico/mutex.h</text>
</a>
</g>
</g>
<!-- Node11&#45;&gt;Node12 -->
<g id="edge15" class="edge">
<title>Node11&#45;&gt;Node12</title>
<path fill="none" stroke="midnightblue" d="M618.26,-56.44C599.02,-47.64 568.81,-33.81 546.76,-23.72"/>
<polygon fill="midnightblue" stroke="midnightblue" points="548.12,-20.5 537.57,-19.52 545.21,-26.86 548.12,-20.5"/>
</g>
<!-- Node13 -->
<g id="node13" class="node">
<title>Node13</title>
<g id="a_node13"><a xlink:title=" ">
<polygon fill="white" stroke="#bfbfbf" points="613.46,-0.5 613.46,-19.5 660.46,-19.5 660.46,-0.5 613.46,-0.5"/>
<text text-anchor="middle" x="636.96" y="-7.5" font-family="Helvetica,sans-Serif" font-size="10.00">queue</text>
</a>
</g>
</g>
<!-- Node11&#45;&gt;Node13 -->
<g id="edge16" class="edge">
<title>Node11&#45;&gt;Node13</title>
<path fill="none" stroke="midnightblue" d="M636.96,-56.08C636.96,-49.01 636.96,-38.86 636.96,-29.99"/>
<polygon fill="midnightblue" stroke="midnightblue" points="640.46,-29.75 636.96,-19.75 633.46,-29.75 640.46,-29.75"/>
</g>
<!-- Node14&#45;&gt;Node4 -->
<g id="edge19" class="edge">
<title>Node14&#45;&gt;Node4</title>
<path fill="none" stroke="midnightblue" d="M465.74,-56.44C447.06,-47.68 417.8,-33.94 396.34,-23.86"/>
<polygon fill="midnightblue" stroke="midnightblue" points="397.64,-20.6 387.1,-19.52 394.66,-26.93 397.64,-20.6"/>
</g>
<!-- Node14&#45;&gt;Node12 -->
<g id="edge18" class="edge">
<title>Node14&#45;&gt;Node12</title>
<path fill="none" stroke="midnightblue" d="M489.74,-56.08C494.63,-48.53 501.79,-37.49 507.79,-28.23"/>
<polygon fill="midnightblue" stroke="midnightblue" points="510.79,-30.05 513.29,-19.75 504.91,-26.24 510.79,-30.05"/>
</g>
</g>
</svg>
        <g id="navigator" transform="translate(0 0)" fill="#404254">
                <rect fill="#f2f5e9" fill-opacity="0.5" stroke="#606060" stroke-width=".5" x="0" y="0" width="60" height="60"/>
                <use id="zoomplus" xlink:href="#zoomPlus" x="17" y="9" onmousedown="handleZoom(evt,'in')"/>
                <use id="zoomminus" xlink:href="#zoomMin" x="42" y="9" onmousedown="handleZoom(evt,'out')"/>
                <use id="reset" xlink:href="#resetDef" x="30" y="36" onmousedown="handleReset()"/>
                <g id="arrowUp" xlink:href="#dirArrow" transform="translate(30 24)" onmousedown="handlePan(0,-1)">
                  <use xlink:href="#rim" fill="#404040">
                        <set attributeName="fill" to="#808080" begin="arrowUp.mouseover" end="arrowUp.mouseout"/>
                  </use>
                  <path fill="none" stroke="white" stroke-width="1.5" d="M0,-3.0v7 M-2.5,-0.5L0,-3.0L2.5,-0.5"/>
                </g>
                <g id="arrowRight" xlink:href="#dirArrow" transform="rotate(90) translate(36 -43)" onmousedown="handlePan(1,0)">
                  <use xlink:href="#rim" fill="#404040">
                        <set attributeName="fill" to="#808080" begin="arrowRight.mouseover" end="arrowRight.mouseout"/>
                  </use>
                  <path fill="none" stroke="white" stroke-width="1.5" d="M0,-3.0v7 M-2.5,-0.5L0,-3.0L2.5,-0.5"/>
                </g>
                <g id="arrowDown" xlink:href="#dirArrow" transform="rotate(180) translate(-30 -48)" onmousedown="handlePan(0,1)">
                  <use xlink:href="#rim" fill="#404040">
                        <set attributeName="fill" to="#808080" begin="arrowDown.mouseover" end="arrowDown.mouseout"/>
                  </use>
                  <path fill="none" stroke="white" stroke-width="1.5" d="M0,-3.0v7 M-2.5,-0.5L0,-3.0L2.5,-0.5"/>
                </g>
                <g id="arrowLeft" xlink:href="#dirArrow" transform="rotate(270) translate(-36 17)" onmousedown="handlePan(-1,0)">
                  <use xlink:href="#rim" fill="#404040">
                        <set attributeName="fill" to="#808080" begin="arrowLeft.mouseover" end="arrowLeft.mouseout"/>
                  </use>
                  <path fill="none" stroke="white" stroke-width="1.5" d="M0,-3.0v7 M-2.5,-0.5L0,-3.0L2.5,-0.5"/>
                </g>
        </g>
        <svg viewBox="0 0 15 15" width="100%" height="30px" preserveAspectRatio="xMaxYMin meet">
         <g id="arrow_out" transform="scale(0.3 0.3)">
          <a xlink:href="emulator_8cpp__incl_org.svg" target="_base">
           <rect id="button" ry="5" rx="5" y="6" x="6" height="38" width="38"
                fill="#f2f5e9" fill-opacity="0.5" stroke="#606060" stroke-width="1.0"/>
           <path id="arrow"
             d="M 11.500037,31.436501 C 11.940474,20.09759 22.043105,11.32322 32.158766,21.979434 L 37.068811,17.246167 C 37.068811,17.246167 37.088388,32 37.088388,32 L 22.160133,31.978069 C 22.160133,31.978069 26.997745,27.140456 26.997745,27.140456 C 18.528582,18.264221 13.291696,25.230495 11.500037,31.436501 z"
             style="fill:#404040;"/>
          </a>
         </g>
        </svg>
</svg>
