<?xml version="1.0" encoding="UTF-8" standalone="no"?>
<!DOCTYPE svg PUBLIC "-//W3C//DTD SVG 1.1//EN"
 "http://www.w3.org/Graphics/SVG/1.1/DTD/svg11.dtd">
<!-- Generated by graphviz version 2.43.0 (0)
 -->
<!-- Title: src/RoL/emulation/emulator.cpp Pages: 1 -->
<svg width="390pt" height="274pt"
 viewBox="0.00 0.00 390.00 274.00" xmlns="http://www.w3.org/2000/svg" xmlns:xlink="http://www.w3.org/1999/xlink">
<g id="graph0" class="graph" transform="scale(1 1) rotate(0) translate(4 270)">
<title>src/RoL/emulation/emulator.cpp</title>
<polygon fill="white" stroke="transparent" points="-4,4 -4,-270 386,-270 386,4 -4,4"/>
<!-- Node1 -->
<g id="node1" class="node">
<title>Node1</title>
<g id="a_node1"><a xlink:title=" ">
<polygon fill="#bfbfbf" stroke="black" points="73,-246.5 73,-265.5 244,-265.5 244,-246.5 73,-246.5"/>
<text text-anchor="middle" x="158.5" y="-253.5" font-family="Helvetica,sans-Serif" font-size="10.00">src/RoL/emulation/emulator.cpp</text>
</a>
</g>
</g>
<!-- Node2 -->
<g id="node2" class="node">
<title>Node2</title>
<g id="a_node2"><a xlink:href="emulator_8hpp.html" target="_top" xlink:title=" ">
<polygon fill="white" stroke="black" points="28,-185 28,-204 183,-204 183,-185 28,-185"/>
<text text-anchor="middle" x="105.5" y="-192" font-family="Helvetica,sans-Serif" font-size="10.00">RoL/emulation/emulator.hpp</text>
</a>
</g>
</g>
<!-- Node1&#45;&gt;Node2 -->
<g id="edge1" class="edge">
<title>Node1&#45;&gt;Node2</title>
<path fill="none" stroke="midnightblue" d="M150.91,-246.48C142.8,-237.37 129.77,-222.74 119.74,-211.48"/>
<polygon fill="midnightblue" stroke="midnightblue" points="122.34,-209.15 113.08,-204.01 117.12,-213.8 122.34,-209.15"/>
</g>
<!-- Node4 -->
<g id="node4" class="node">
<title>Node4</title>
<g id="a_node4"><a xlink:title=" ">
<polygon fill="white" stroke="#bfbfbf" points="0,-118 0,-137 47,-137 47,-118 0,-118"/>
<text text-anchor="middle" x="23.5" y="-125" font-family="Helvetica,sans-Serif" font-size="10.00">vector</text>
</a>
</g>
</g>
<!-- Node1&#45;&gt;Node4 -->
<g id="edge8" class="edge">
<title>Node1&#45;&gt;Node4</title>
<path fill="none" stroke="midnightblue" d="M76.05,-246.41C53.83,-239.89 32.19,-228.77 18.5,-210 5.16,-191.7 10.42,-164.5 16.25,-146.64"/>
<polygon fill="midnightblue" stroke="midnightblue" points="19.59,-147.7 19.71,-137.11 13.01,-145.32 19.59,-147.7"/>
</g>
<!-- Node5 -->
<g id="node5" class="node">
<title>Node5</title>
<g id="a_node5"><a xlink:href="parse_8hpp.html" target="_top" xlink:title=" ">
<polygon fill="white" stroke="black" points="135.5,-118 135.5,-137 221.5,-137 221.5,-118 135.5,-118"/>
<text text-anchor="middle" x="178.5" y="-125" font-family="Helvetica,sans-Serif" font-size="10.00">RoL/parse.hpp</text>
</a>
</g>
</g>
<!-- Node1&#45;&gt;Node5 -->
<g id="edge7" class="edge">
<title>Node1&#45;&gt;Node5</title>
<path fill="none" stroke="midnightblue" d="M167.52,-246.34C175.57,-237.93 186.8,-224.36 191.5,-210 198.37,-189 192.25,-163.72 186.29,-146.95"/>
<polygon fill="midnightblue" stroke="midnightblue" points="189.42,-145.33 182.54,-137.28 182.89,-147.87 189.42,-145.33"/>
</g>
<!-- Node7 -->
<g id="node7" class="node">
<title>Node7</title>
<g id="a_node7"><a xlink:href="shared__job_8hpp.html" target="_top" xlink:title=" ">
<polygon fill="white" stroke="black" points="245,-179.5 245,-209.5 362,-209.5 362,-179.5 245,-179.5"/>
<text text-anchor="start" x="253" y="-197.5" font-family="Helvetica,sans-Serif" font-size="10.00">RoL/threaded/shared</text>
<text text-anchor="middle" x="303.5" y="-186.5" font-family="Helvetica,sans-Serif" font-size="10.00">_job.hpp</text>
</a>
</g>
</g>
<!-- Node1&#45;&gt;Node7 -->
<g id="edge9" class="edge">
<title>Node1&#45;&gt;Node7</title>
<path fill="none" stroke="midnightblue" d="M179.27,-246.48C200.2,-237.89 233.11,-224.38 259.81,-213.43"/>
<polygon fill="midnightblue" stroke="midnightblue" points="261.4,-216.56 269.33,-209.52 258.75,-210.08 261.4,-216.56"/>
</g>
<!-- Node3 -->
<g id="node3" class="node">
<title>Node3</title>
<g id="a_node3"><a xlink:title=" ">
<polygon fill="white" stroke="#bfbfbf" points="73.5,-56.5 73.5,-75.5 117.5,-75.5 117.5,-56.5 73.5,-56.5"/>
<text text-anchor="middle" x="95.5" y="-63.5" font-family="Helvetica,sans-Serif" font-size="10.00">bitset</text>
</a>
</g>
</g>
<!-- Node2&#45;&gt;Node3 -->
<g id="edge2" class="edge">
<title>Node2&#45;&gt;Node3</title>
<path fill="none" stroke="midnightblue" d="M104.81,-184.81C103.21,-164.49 99.18,-113.55 96.98,-85.78"/>
<polygon fill="midnightblue" stroke="midnightblue" points="100.47,-85.45 96.19,-75.76 93.49,-86 100.47,-85.45"/>
</g>
<!-- Node2&#45;&gt;Node4 -->
<g id="edge3" class="edge">
<title>Node2&#45;&gt;Node4</title>
<path fill="none" stroke="midnightblue" d="M94.44,-184.73C81.16,-174.21 58.67,-156.38 42.57,-143.62"/>
<polygon fill="midnightblue" stroke="midnightblue" points="44.39,-140.6 34.38,-137.13 40.05,-146.08 44.39,-140.6"/>
</g>
<!-- Node2&#45;&gt;Node5 -->
<g id="edge4" class="edge">
<title>Node2&#45;&gt;Node5</title>
<path fill="none" stroke="midnightblue" d="M115.35,-184.73C127.06,-174.31 146.82,-156.71 161.12,-143.97"/>
<polygon fill="midnightblue" stroke="midnightblue" points="163.67,-146.39 168.81,-137.13 159.01,-141.16 163.67,-146.39"/>
</g>
<!-- Node5&#45;&gt;Node3 -->
<g id="edge5" class="edge">
<title>Node5&#45;&gt;Node3</title>
<path fill="none" stroke="midnightblue" d="M166.61,-117.98C153.3,-108.43 131.5,-92.81 115.54,-81.37"/>
<polygon fill="midnightblue" stroke="midnightblue" points="117.54,-78.49 107.37,-75.51 113.46,-84.18 117.54,-78.49"/>
</g>
<!-- Node6 -->
<g id="node6" class="node">
<title>Node6</title>
<g id="a_node6"><a xlink:title=" ">
<polygon fill="white" stroke="#bfbfbf" points="136,-56.5 136,-75.5 229,-75.5 229,-56.5 136,-56.5"/>
<text text-anchor="middle" x="182.5" y="-63.5" font-family="Helvetica,sans-Serif" font-size="10.00">unordered_map</text>
</a>
</g>
</g>
<!-- Node5&#45;&gt;Node6 -->
<g id="edge6" class="edge">
<title>Node5&#45;&gt;Node6</title>
<path fill="none" stroke="midnightblue" d="M179.07,-117.98C179.64,-109.58 180.52,-96.48 181.25,-85.66"/>
<polygon fill="midnightblue" stroke="midnightblue" points="184.75,-85.72 181.93,-75.51 177.76,-85.25 184.75,-85.72"/>
</g>
<!-- Node8 -->
<g id="node8" class="node">
<title>Node8</title>
<g id="a_node8"><a xlink:href="shared__queue_8hpp.html" target="_top" xlink:title=" ">
<polygon fill="white" stroke="black" points="250,-112.5 250,-142.5 367,-142.5 367,-112.5 250,-112.5"/>
<text text-anchor="start" x="258" y="-130.5" font-family="Helvetica,sans-Serif" font-size="10.00">RoL/threaded/shared</text>
<text text-anchor="middle" x="308.5" y="-119.5" font-family="Helvetica,sans-Serif" font-size="10.00">_queue.hpp</text>
</a>
</g>
</g>
<!-- Node7&#45;&gt;Node8 -->
<g id="edge10" class="edge">
<title>Node7&#45;&gt;Node8</title>
<path fill="none" stroke="midnightblue" d="M304.58,-179.4C305.19,-171.56 305.95,-161.6 306.65,-152.57"/>
<polygon fill="midnightblue" stroke="midnightblue" points="310.14,-152.82 307.42,-142.58 303.16,-152.28 310.14,-152.82"/>
</g>
<!-- Node9 -->
<g id="node9" class="node">
<title>Node9</title>
<g id="a_node9"><a xlink:href="queue_8hpp.html" target="_top" xlink:title=" ">
<polygon fill="white" stroke="black" points="247,-56.5 247,-75.5 382,-75.5 382,-56.5 247,-56.5"/>
<text text-anchor="middle" x="314.5" y="-63.5" font-family="Helvetica,sans-Serif" font-size="10.00">RoL/threaded/queue.hpp</text>
</a>
</g>
</g>
<!-- Node8&#45;&gt;Node9 -->
<g id="edge11" class="edge">
<title>Node8&#45;&gt;Node9</title>
<path fill="none" stroke="midnightblue" d="M309.92,-112.4C310.72,-104.47 311.73,-94.46 312.6,-85.86"/>
<polygon fill="midnightblue" stroke="midnightblue" points="316.11,-85.96 313.63,-75.66 309.14,-85.26 316.11,-85.96"/>
</g>
<!-- Node10 -->
<g id="node10" class="node">
<title>Node10</title>
<g id="a_node10"><a xlink:title=" ">
<polygon fill="white" stroke="#bfbfbf" points="233.5,-0.5 233.5,-19.5 313.5,-19.5 313.5,-0.5 233.5,-0.5"/>
<text text-anchor="middle" x="273.5" y="-7.5" font-family="Helvetica,sans-Serif" font-size="10.00">pico/mutex.h</text>
</a>
</g>
</g>
<!-- Node9&#45;&gt;Node10 -->
<g id="edge12" class="edge">
<title>Node9&#45;&gt;Node10</title>
<path fill="none" stroke="midnightblue" d="M307.73,-56.08C301.94,-48.46 293.44,-37.26 286.36,-27.94"/>
<polygon fill="midnightblue" stroke="midnightblue" points="288.98,-25.6 280.14,-19.75 283.4,-29.83 288.98,-25.6"/>
</g>
<!-- Node11 -->
<g id="node11" class="node">
<title>Node11</title>
<g id="a_node11"><a xlink:title=" ">
<polygon fill="white" stroke="#bfbfbf" points="332,-0.5 332,-19.5 379,-19.5 379,-0.5 332,-0.5"/>
<text text-anchor="middle" x="355.5" y="-7.5" font-family="Helvetica,sans-Serif" font-size="10.00">queue</text>
</a>
</g>
</g>
<!-- Node9&#45;&gt;Node11 -->
<g id="edge13" class="edge">
<title>Node9&#45;&gt;Node11</title>
<path fill="none" stroke="midnightblue" d="M321.27,-56.08C327.06,-48.46 335.56,-37.26 342.64,-27.94"/>
<polygon fill="midnightblue" stroke="midnightblue" points="345.6,-29.83 348.86,-19.75 340.02,-25.6 345.6,-29.83"/>
</g>
</g>
</svg>
