<?xml version="1.0" encoding="UTF-8" standalone="no"?>
<!DOCTYPE svg PUBLIC "-//W3C//DTD SVG 1.1//EN"
 "http://www.w3.org/Graphics/SVG/1.1/DTD/svg11.dtd">
<!-- Generated by graphviz version 2.43.0 (0)
 -->
<!-- Title: src/RoL/emulation/emulator.cpp Pages: 1 -->
<svg width="511pt" height="196pt"
 viewBox="0.00 0.00 511.00 196.00" xmlns="http://www.w3.org/2000/svg" xmlns:xlink="http://www.w3.org/1999/xlink">
<g id="graph0" class="graph" transform="scale(1 1) rotate(0) translate(4 192)">
<title>src/RoL/emulation/emulator.cpp</title>
<polygon fill="white" stroke="transparent" points="-4,4 -4,-192 507,-192 507,4 -4,4"/>
<!-- Node1 -->
<g id="node1" class="node">
<title>Node1</title>
<g id="a_node1"><a xlink:title=" ">
<polygon fill="#bfbfbf" stroke="black" points="219.5,-168.5 219.5,-187.5 390.5,-187.5 390.5,-168.5 219.5,-168.5"/>
<text text-anchor="middle" x="305" y="-175.5" font-family="Helvetica,sans-Serif" font-size="10.00">src/RoL/emulation/emulator.cpp</text>
</a>
</g>
</g>
<!-- Node2 -->
<g id="node2" class="node">
<title>Node2</title>
<g id="a_node2"><a xlink:href="emulator_8hpp.html" target="_top" xlink:title=" ">
<polygon fill="white" stroke="black" points="227.5,-112.5 227.5,-131.5 382.5,-131.5 382.5,-112.5 227.5,-112.5"/>
<text text-anchor="middle" x="305" y="-119.5" font-family="Helvetica,sans-Serif" font-size="10.00">RoL/emulation/emulator.hpp</text>
</a>
</g>
</g>
<!-- Node1&#45;&gt;Node2 -->
<g id="edge1" class="edge">
<title>Node1&#45;&gt;Node2</title>
<path fill="none" stroke="midnightblue" d="M305,-168.08C305,-161.01 305,-150.86 305,-141.99"/>
<polygon fill="midnightblue" stroke="midnightblue" points="308.5,-141.75 305,-131.75 301.5,-141.75 308.5,-141.75"/>
</g>
<!-- Node4 -->
<g id="node4" class="node">
<title>Node4</title>
<g id="a_node4"><a xlink:title=" ">
<polygon fill="white" stroke="#bfbfbf" points="0,-0.5 0,-19.5 44,-19.5 44,-0.5 0,-0.5"/>
<text text-anchor="middle" x="22" y="-7.5" font-family="Helvetica,sans-Serif" font-size="10.00">string</text>
</a>
</g>
</g>
<!-- Node1&#45;&gt;Node4 -->
<g id="edge15" class="edge">
<title>Node1&#45;&gt;Node4</title>
<path fill="none" stroke="midnightblue" d="M284.86,-168.38C264.87,-159.67 233.47,-145.61 207,-132 162.38,-109.07 150.95,-103.51 109,-76 84.7,-60.06 58.12,-39.76 40.82,-26.12"/>
<polygon fill="midnightblue" stroke="midnightblue" points="42.69,-23.13 32.68,-19.65 38.33,-28.61 42.69,-23.13"/>
</g>
<!-- Node5 -->
<g id="node5" class="node">
<title>Node5</title>
<g id="a_node5"><a xlink:title=" ">
<polygon fill="white" stroke="#bfbfbf" points="427.5,-0.5 427.5,-19.5 474.5,-19.5 474.5,-0.5 427.5,-0.5"/>
<text text-anchor="middle" x="451" y="-7.5" font-family="Helvetica,sans-Serif" font-size="10.00">vector</text>
</a>
</g>
</g>
<!-- Node1&#45;&gt;Node5 -->
<g id="edge16" class="edge">
<title>Node1&#45;&gt;Node5</title>
<path fill="none" stroke="midnightblue" d="M331.02,-168.35C349.64,-161.08 374.26,-149.1 391,-132 420.27,-102.08 437.89,-55.06 445.88,-29.33"/>
<polygon fill="midnightblue" stroke="midnightblue" points="449.24,-30.3 448.72,-19.72 442.53,-28.32 449.24,-30.3"/>
</g>
<!-- Node6 -->
<g id="node6" class="node">
<title>Node6</title>
<g id="a_node6"><a xlink:href="parse_8hpp.html" target="_top" xlink:title=" ">
<polygon fill="white" stroke="black" points="168,-56.5 168,-75.5 254,-75.5 254,-56.5 168,-56.5"/>
<text text-anchor="middle" x="211" y="-63.5" font-family="Helvetica,sans-Serif" font-size="10.00">RoL/parse.hpp</text>
</a>
</g>
</g>
<!-- Node1&#45;&gt;Node6 -->
<g id="edge13" class="edge">
<title>Node1&#45;&gt;Node6</title>
<path fill="none" stroke="midnightblue" d="M272.03,-168.44C253.07,-161.73 230.59,-150.38 218,-132 208.88,-118.68 207.73,-100.11 208.51,-86.22"/>
<polygon fill="midnightblue" stroke="midnightblue" points="212.04,-86.17 209.49,-75.88 205.07,-85.51 212.04,-86.17"/>
</g>
<!-- Node12 -->
<g id="node12" class="node">
<title>Node12</title>
<g id="a_node12"><a xlink:title=" ">
<polygon fill="white" stroke="#bfbfbf" points="439,-112.5 439,-131.5 503,-131.5 503,-112.5 439,-112.5"/>
<text text-anchor="middle" x="471" y="-119.5" font-family="Helvetica,sans-Serif" font-size="10.00">algorithm</text>
</a>
</g>
</g>
<!-- Node1&#45;&gt;Node12 -->
<g id="edge14" class="edge">
<title>Node1&#45;&gt;Node12</title>
<path fill="none" stroke="midnightblue" d="M331.3,-168.44C359.35,-159.32 403.94,-144.81 435.18,-134.65"/>
<polygon fill="midnightblue" stroke="midnightblue" points="436.39,-137.94 444.82,-131.52 434.23,-131.28 436.39,-137.94"/>
</g>
<!-- Node3 -->
<g id="node3" class="node">
<title>Node3</title>
<g id="a_node3"><a xlink:title=" ">
<polygon fill="white" stroke="#bfbfbf" points="283,-56.5 283,-75.5 327,-75.5 327,-56.5 283,-56.5"/>
<text text-anchor="middle" x="305" y="-63.5" font-family="Helvetica,sans-Serif" font-size="10.00">bitset</text>
</a>
</g>
</g>
<!-- Node2&#45;&gt;Node3 -->
<g id="edge2" class="edge">
<title>Node2&#45;&gt;Node3</title>
<path fill="none" stroke="midnightblue" d="M305,-112.08C305,-105.01 305,-94.86 305,-85.99"/>
<polygon fill="midnightblue" stroke="midnightblue" points="308.5,-85.75 305,-75.75 301.5,-85.75 308.5,-85.75"/>
</g>
<!-- Node2&#45;&gt;Node4 -->
<g id="edge3" class="edge">
<title>Node2&#45;&gt;Node4</title>
<path fill="none" stroke="midnightblue" d="M272.65,-112.47C242.76,-104.26 197.32,-90.9 159,-76 119.01,-60.44 74.41,-38.35 47.28,-24.35"/>
<polygon fill="midnightblue" stroke="midnightblue" points="48.6,-21.09 38.11,-19.58 45.37,-27.3 48.6,-21.09"/>
</g>
<!-- Node2&#45;&gt;Node5 -->
<g id="edge4" class="edge">
<title>Node2&#45;&gt;Node5</title>
<path fill="none" stroke="midnightblue" d="M316.46,-112.37C341.3,-93.65 400.36,-49.15 431.31,-25.83"/>
<polygon fill="midnightblue" stroke="midnightblue" points="433.72,-28.4 439.6,-19.59 429.5,-22.81 433.72,-28.4"/>
</g>
<!-- Node2&#45;&gt;Node6 -->
<g id="edge5" class="edge">
<title>Node2&#45;&gt;Node6</title>
<path fill="none" stroke="midnightblue" d="M289.9,-112.32C275.1,-103.82 252.31,-90.73 235.02,-80.8"/>
<polygon fill="midnightblue" stroke="midnightblue" points="236.48,-77.6 226.07,-75.65 232.99,-83.67 236.48,-77.6"/>
</g>
<!-- Node6&#45;&gt;Node4 -->
<g id="edge9" class="edge">
<title>Node6&#45;&gt;Node4</title>
<path fill="none" stroke="midnightblue" d="M180.7,-56.42C150.81,-47.94 103.57,-34.52 53.68,-20.19"/>
<polygon fill="midnightblue" stroke="midnightblue" points="54.59,-16.81 44.01,-17.41 52.65,-23.53 54.59,-16.81"/>
</g>
<!-- Node6&#45;&gt;Node5 -->
<g id="edge12" class="edge">
<title>Node6&#45;&gt;Node5</title>
<path fill="none" stroke="midnightblue" d="M253.57,-56.42C293.39,-48.25 354.75,-35.27 417.21,-20.09"/>
<polygon fill="midnightblue" stroke="midnightblue" points="418.36,-23.41 427.25,-17.64 416.7,-16.61 418.36,-23.41"/>
</g>
<!-- Node7 -->
<g id="node7" class="node">
<title>Node7</title>
<g id="a_node7"><a xlink:title=" ">
<polygon fill="white" stroke="#bfbfbf" points="360.5,-0.5 360.5,-19.5 409.5,-19.5 409.5,-0.5 360.5,-0.5"/>
<text text-anchor="middle" x="385" y="-7.5" font-family="Helvetica,sans-Serif" font-size="10.00">cctype</text>
</a>
</g>
</g>
<!-- Node6&#45;&gt;Node7 -->
<g id="edge6" class="edge">
<title>Node6&#45;&gt;Node7</title>
<path fill="none" stroke="midnightblue" d="M238.57,-56.44C268.97,-47.01 317.9,-31.82 350.74,-21.63"/>
<polygon fill="midnightblue" stroke="midnightblue" points="351.86,-24.95 360.37,-18.64 349.78,-18.26 351.86,-24.95"/>
</g>
<!-- Node8 -->
<g id="node8" class="node">
<title>Node8</title>
<g id="a_node8"><a xlink:title=" ">
<polygon fill="white" stroke="#bfbfbf" points="62.5,-0.5 62.5,-19.5 115.5,-19.5 115.5,-0.5 62.5,-0.5"/>
<text text-anchor="middle" x="89" y="-7.5" font-family="Helvetica,sans-Serif" font-size="10.00">cstddef</text>
</a>
</g>
</g>
<!-- Node6&#45;&gt;Node8 -->
<g id="edge7" class="edge">
<title>Node6&#45;&gt;Node8</title>
<path fill="none" stroke="midnightblue" d="M191.67,-56.44C171.68,-47.6 140.26,-33.69 117.44,-23.59"/>
<polygon fill="midnightblue" stroke="midnightblue" points="118.8,-20.36 108.24,-19.52 115.97,-26.76 118.8,-20.36"/>
</g>
<!-- Node9 -->
<g id="node9" class="node">
<title>Node9</title>
<g id="a_node9"><a xlink:title=" ">
<polygon fill="white" stroke="#bfbfbf" points="134,-0.5 134,-19.5 172,-19.5 172,-0.5 134,-0.5"/>
<text text-anchor="middle" x="153" y="-7.5" font-family="Helvetica,sans-Serif" font-size="10.00">map</text>
</a>
</g>
</g>
<!-- Node6&#45;&gt;Node9 -->
<g id="edge8" class="edge">
<title>Node6&#45;&gt;Node9</title>
<path fill="none" stroke="midnightblue" d="M201.68,-56.32C193.11,-48.34 180.19,-36.31 169.81,-26.65"/>
<polygon fill="midnightblue" stroke="midnightblue" points="172.19,-24.09 162.49,-19.83 167.42,-29.21 172.19,-24.09"/>
</g>
<!-- Node10 -->
<g id="node10" class="node">
<title>Node10</title>
<g id="a_node10"><a xlink:title=" ">
<polygon fill="white" stroke="#bfbfbf" points="190.5,-0.5 190.5,-19.5 231.5,-19.5 231.5,-0.5 190.5,-0.5"/>
<text text-anchor="middle" x="211" y="-7.5" font-family="Helvetica,sans-Serif" font-size="10.00">tuple</text>
</a>
</g>
</g>
<!-- Node6&#45;&gt;Node10 -->
<g id="edge10" class="edge">
<title>Node6&#45;&gt;Node10</title>
<path fill="none" stroke="midnightblue" d="M211,-56.08C211,-49.01 211,-38.86 211,-29.99"/>
<polygon fill="midnightblue" stroke="midnightblue" points="214.5,-29.75 211,-19.75 207.5,-29.75 214.5,-29.75"/>
</g>
<!-- Node11 -->
<g id="node11" class="node">
<title>Node11</title>
<g id="a_node11"><a xlink:title=" ">
<polygon fill="white" stroke="#bfbfbf" points="249.5,-0.5 249.5,-19.5 342.5,-19.5 342.5,-0.5 249.5,-0.5"/>
<text text-anchor="middle" x="296" y="-7.5" font-family="Helvetica,sans-Serif" font-size="10.00">unordered_map</text>
</a>
</g>
</g>
<!-- Node6&#45;&gt;Node11 -->
<g id="edge11" class="edge">
<title>Node6&#45;&gt;Node11</title>
<path fill="none" stroke="midnightblue" d="M224.66,-56.32C237.92,-47.9 258.27,-34.97 273.85,-25.07"/>
<polygon fill="midnightblue" stroke="midnightblue" points="275.81,-27.97 282.38,-19.65 272.06,-22.06 275.81,-27.97"/>
</g>
</g>
</svg>
