<?xml version="1.0" encoding="UTF-8" standalone="no"?>
<!DOCTYPE svg PUBLIC "-//W3C//DTD SVG 1.1//EN"
 "http://www.w3.org/Graphics/SVG/1.1/DTD/svg11.dtd">
<!-- Generated by graphviz version 2.43.0 (0)
 -->
<!-- Title: emulation::to_sint Pages: 1 -->
<svg width="417pt" height="86pt"
 viewBox="0.00 0.00 417.00 86.00" xmlns="http://www.w3.org/2000/svg" xmlns:xlink="http://www.w3.org/1999/xlink">

<svg id="main" version="1.1" xmlns="http://www.w3.org/2000/svg" xmlns:xlink="http://www.w3.org/1999/xlink" xml:space="preserve" onload="init(evt)">
<style type="text/css"><![CDATA[
.node, .edge {opacity: 0.7;}
.node.selected, .edge.selected {opacity: 1;}
.edge:hover path { stroke: red; }
.edge:hover polygon { stroke: red; fill: red; }
]]></style>
<script type="application/ecmascript" xlink:href="svg.min.js"/>
<svg id="graph" class="graph">
<g id="graph0" class="graph" transform="scale(1 1) rotate(0) translate(4 82)">
<title>emulation::to_sint</title>
<!-- Node1 -->
<g id="Node000001" class="node">
<title>Node1</title>
<g id="a_Node000001"><a xlink:title=" ">
<polygon fill="#999999" stroke="#666666" points="409,-48.5 304,-48.5 304,-29.5 409,-29.5 409,-48.5"/>
<text text-anchor="middle" x="356.5" y="-36.5" font-family="Helvetica,sans-Serif" font-size="10.00">emulation::to_sint</text>
</a>
</g>
</g>
<!-- Node2 -->
<g id="Node000002" class="node">
<title>Node2</title>
<g id="a_Node000002"><a xlink:href="structemulation_1_1emulator.html#aa8436f1782c600c2602784550783dd1d" target="_top" xlink:title="Branch Greater than or Equal.">
<polygon fill="white" stroke="#666666" points="268,-78 152,-78 152,-48 268,-48 268,-78"/>
<text text-anchor="start" x="160" y="-66" font-family="Helvetica,sans-Serif" font-size="10.00">emulation::emulator</text>
<text text-anchor="middle" x="210" y="-55" font-family="Helvetica,sans-Serif" font-size="10.00">::bge_</text>
</a>
</g>
</g>
<!-- Node1&#45;&gt;Node2 -->
<g id="edge1_Node000001_Node000002" class="edge">
<title>Node1&#45;&gt;Node2</title>
<g id="a_edge1_Node000001_Node000002"><a xlink:title=" ">
<path fill="none" stroke="#63b8ff" d="M293.61,-49.28C285.2,-50.68 276.6,-52.1 268.28,-53.49"/>
<polygon fill="#63b8ff" stroke="#63b8ff" points="294.45,-52.69 303.74,-47.6 293.3,-45.78 294.45,-52.69"/>
</a>
</g>
</g>
<!-- Node4 -->
<g id="Node000004" class="node">
<title>Node4</title>
<g id="a_Node000004"><a xlink:href="structemulation_1_1emulator.html#aff0ad86baa02712f534562bb703e66dc" target="_top" xlink:title="Branch Less Than.">
<polygon fill="white" stroke="#666666" points="268,-30 152,-30 152,0 268,0 268,-30"/>
<text text-anchor="start" x="160" y="-18" font-family="Helvetica,sans-Serif" font-size="10.00">emulation::emulator</text>
<text text-anchor="middle" x="210" y="-7" font-family="Helvetica,sans-Serif" font-size="10.00">::blt_</text>
</a>
</g>
</g>
<!-- Node1&#45;&gt;Node4 -->
<g id="edge3_Node000001_Node000004" class="edge">
<title>Node1&#45;&gt;Node4</title>
<g id="a_edge3_Node000001_Node000004"><a xlink:title=" ">
<path fill="none" stroke="#63b8ff" d="M293.61,-28.72C285.2,-27.32 276.6,-25.9 268.28,-24.51"/>
<polygon fill="#63b8ff" stroke="#63b8ff" points="293.3,-32.22 303.74,-30.4 294.45,-25.31 293.3,-32.22"/>
</a>
</g>
</g>
<!-- Node3 -->
<g id="Node000003" class="node">
<title>Node3</title>
<g id="a_Node000003"><a xlink:href="structemulation_1_1emulator.html#a2e4d099ca70b1f19761f7918159eaf63" target="_top" xlink:title=" ">
<polygon fill="white" stroke="#666666" points="116,-54 0,-54 0,-24 116,-24 116,-54"/>
<text text-anchor="start" x="8" y="-42" font-family="Helvetica,sans-Serif" font-size="10.00">emulation::emulator</text>
<text text-anchor="middle" x="58" y="-31" font-family="Helvetica,sans-Serif" font-size="10.00">::execute</text>
</a>
</g>
</g>
<!-- Node2&#45;&gt;Node3 -->
<g id="edge2_Node000002_Node000003" class="edge">
<title>Node2&#45;&gt;Node3</title>
<g id="a_edge2_Node000002_Node000003"><a xlink:title=" ">
<path fill="none" stroke="#63b8ff" d="M141.97,-52.27C133.46,-50.91 124.81,-49.53 116.47,-48.2"/>
<polygon fill="#63b8ff" stroke="#63b8ff" points="141.44,-55.73 151.86,-53.86 142.54,-48.82 141.44,-55.73"/>
</a>
</g>
</g>
<!-- Node4&#45;&gt;Node3 -->
<g id="edge4_Node000004_Node000003" class="edge">
<title>Node4&#45;&gt;Node3</title>
<g id="a_edge4_Node000004_Node000003"><a xlink:title=" ">
<path fill="none" stroke="#63b8ff" d="M141.97,-25.73C133.46,-27.09 124.81,-28.47 116.47,-29.8"/>
<polygon fill="#63b8ff" stroke="#63b8ff" points="142.54,-29.18 151.86,-24.14 141.44,-22.27 142.54,-29.18"/>
</a>
</g>
</g>
</g>
</svg>
</svg>

<style type='text/css'>
<![CDATA[
[data-mouse-over-selected='false'] { opacity: 0.7; }
[data-mouse-over-selected='true']  { opacity: 1.0; }
]]>
</style>
<script type="application/ecmascript"><![CDATA[
document.addEventListener('DOMContentLoaded', (event) => {
  highlightEdges();
  highlightAdjacentNodes();
});
]]></script>
</svg>
