<?xml version="1.0" encoding="UTF-8" standalone="no"?>
<!DOCTYPE svg PUBLIC "-//W3C//DTD SVG 1.1//EN"
 "http://www.w3.org/Graphics/SVG/1.1/DTD/svg11.dtd">
<!-- Generated by graphviz version 2.43.0 (0)
 -->
<!-- Title: emulation::run Pages: 1 -->
<svg width="273pt" height="142pt"
 viewBox="0.00 0.00 273.00 142.00" xmlns="http://www.w3.org/2000/svg" xmlns:xlink="http://www.w3.org/1999/xlink">
<g id="graph0" class="graph" transform="scale(1 1) rotate(0) translate(4 138)">
<title>emulation::run</title>
<polygon fill="white" stroke="transparent" points="-4,4 -4,-138 269,-138 269,4 -4,4"/>
<!-- Node1 -->
<g id="node1" class="node">
<title>Node1</title>
<g id="a_node1"><a xlink:title=" ">
<polygon fill="#bfbfbf" stroke="black" points="0,-57.5 0,-76.5 88,-76.5 88,-57.5 0,-57.5"/>
<text text-anchor="middle" x="44" y="-64.5" font-family="Helvetica,sans-Serif" font-size="10.00">emulation::run</text>
</a>
</g>
</g>
<!-- Node2 -->
<g id="node2" class="node">
<title>Node2</title>
<g id="a_node2"><a xlink:href="classconcurrent__queue.html#ada7853bc4c571a8d8b363fde5e230ede" target="_top" xlink:title=" ">
<polygon fill="white" stroke="black" points="124,-114.5 124,-133.5 265,-133.5 265,-114.5 124,-114.5"/>
<text text-anchor="middle" x="194.5" y="-121.5" font-family="Helvetica,sans-Serif" font-size="10.00">concurrent_queue::empty</text>
</a>
</g>
</g>
<!-- Node1&#45;&gt;Node2 -->
<g id="edge1" class="edge">
<title>Node1&#45;&gt;Node2</title>
<path fill="none" stroke="midnightblue" d="M62.48,-76.55C78.23,-84.87 102.19,-96.85 124,-105 130.38,-107.38 137.18,-109.61 143.95,-111.64"/>
<polygon fill="midnightblue" stroke="midnightblue" points="143.2,-115.07 153.78,-114.47 145.14,-108.34 143.2,-115.07"/>
</g>
<!-- Node3 -->
<g id="node3" class="node">
<title>Node3</title>
<g id="a_node3"><a xlink:href="classconcurrent__queue.html#acef464c5141917bfa1e207b762737ec8" target="_top" xlink:title="Reference to first item in the queue.">
<polygon fill="white" stroke="black" points="128,-76.5 128,-95.5 261,-95.5 261,-76.5 128,-76.5"/>
<text text-anchor="middle" x="194.5" y="-83.5" font-family="Helvetica,sans-Serif" font-size="10.00">concurrent_queue::front</text>
</a>
</g>
</g>
<!-- Node1&#45;&gt;Node3 -->
<g id="edge2" class="edge">
<title>Node1&#45;&gt;Node3</title>
<path fill="none" stroke="midnightblue" d="M88.35,-72.55C97.6,-73.73 107.62,-75.01 117.68,-76.3"/>
<polygon fill="midnightblue" stroke="midnightblue" points="117.37,-79.79 127.73,-77.59 118.26,-72.84 117.37,-79.79"/>
</g>
<!-- Node4 -->
<g id="node4" class="node">
<title>Node4</title>
<g id="a_node4"><a xlink:href="classconcurrent__queue.html#acf8caf9c7d650bc24005970641d155cc" target="_top" xlink:title="Pops the first element of the queue, pointed to by front().">
<polygon fill="white" stroke="black" points="130.5,-38.5 130.5,-57.5 258.5,-57.5 258.5,-38.5 130.5,-38.5"/>
<text text-anchor="middle" x="194.5" y="-45.5" font-family="Helvetica,sans-Serif" font-size="10.00">concurrent_queue::pop</text>
</a>
</g>
</g>
<!-- Node1&#45;&gt;Node4 -->
<g id="edge3" class="edge">
<title>Node1&#45;&gt;Node4</title>
<path fill="none" stroke="midnightblue" d="M88.35,-61.45C98.38,-60.17 109.32,-58.77 120.24,-57.37"/>
<polygon fill="midnightblue" stroke="midnightblue" points="120.75,-60.84 130.23,-56.1 119.86,-53.89 120.75,-60.84"/>
</g>
<!-- Node5 -->
<g id="node5" class="node">
<title>Node5</title>
<g id="a_node5"><a xlink:href="classconcurrent__queue.html#a6098253682efb5ed8930f8f60342b761" target="_top" xlink:title="Push an item onto the stack, doing an emplace_back() in the background.">
<polygon fill="white" stroke="black" points="128,-0.5 128,-19.5 261,-19.5 261,-0.5 128,-0.5"/>
<text text-anchor="middle" x="194.5" y="-7.5" font-family="Helvetica,sans-Serif" font-size="10.00">concurrent_queue::push</text>
</a>
</g>
</g>
<!-- Node1&#45;&gt;Node5 -->
<g id="edge4" class="edge">
<title>Node1&#45;&gt;Node5</title>
<path fill="none" stroke="midnightblue" d="M62.48,-57.45C78.23,-49.13 102.19,-37.15 124,-29 130.38,-26.62 137.18,-24.39 143.95,-22.36"/>
<polygon fill="midnightblue" stroke="midnightblue" points="145.14,-25.66 153.78,-19.53 143.2,-18.93 145.14,-25.66"/>
</g>
</g>
</svg>
