<?xml version="1.0" encoding="UTF-8" standalone="no"?>
<!DOCTYPE svg PUBLIC "-//W3C//DTD SVG 1.1//EN"
 "http://www.w3.org/Graphics/SVG/1.1/DTD/svg11.dtd">
<!-- Generated by graphviz version 2.43.0 (0)
 -->
<!-- Title: server::run Pages: 1 -->
<svg width="394pt" height="27pt"
 viewBox="0.00 0.00 394.00 27.00" xmlns="http://www.w3.org/2000/svg" xmlns:xlink="http://www.w3.org/1999/xlink">
<g id="graph0" class="graph" transform="scale(1 1) rotate(0) translate(4 23)">
<title>server::run</title>
<!-- Node1 -->
<g id="Node000001" class="node">
<title>Node1</title>
<g id="a_Node000001"><a xlink:title=" ">
<polygon fill="#999999" stroke="#666666" points="69,-19 0,-19 0,0 69,0 69,-19"/>
<text text-anchor="middle" x="34.5" y="-7" font-family="Helvetica,sans-Serif" font-size="10.00">server::run</text>
</a>
</g>
</g>
<!-- Node2 -->
<g id="Node000002" class="node">
<title>Node2</title>
<g id="a_Node000002"><a xlink:href="namespaceserver.html#ad541d1c9a5343ca647c393636ca0f327" target="_top" xlink:title=" ">
<polygon fill="white" stroke="#666666" points="191,-19 105,-19 105,0 191,0 191,-19"/>
<text text-anchor="middle" x="148" y="-7" font-family="Helvetica,sans-Serif" font-size="10.00">server::init_all</text>
</a>
</g>
</g>
<!-- Node1&#45;&gt;Node2 -->
<g id="edge1_Node000001_Node000002" class="edge">
<title>Node1&#45;&gt;Node2</title>
<g id="a_edge1_Node000001_Node000002"><a xlink:title=" ">
<path fill="none" stroke="#63b8ff" d="M69.26,-9.5C77.27,-9.5 86.01,-9.5 94.64,-9.5"/>
<polygon fill="#63b8ff" stroke="#63b8ff" points="94.67,-13 104.67,-9.5 94.67,-6 94.67,-13"/>
</a>
</g>
</g>
<!-- Node3 -->
<g id="Node000003" class="node">
<title>Node3</title>
<g id="a_Node000003"><a xlink:href="ssi_8cpp.html#ab07d85d6a87e78cccd7b39b699a67a29" target="_top" xlink:title=" ">
<polygon fill="white" stroke="#666666" points="278,-19 227,-19 227,0 278,0 278,-19"/>
<text text-anchor="middle" x="252.5" y="-7" font-family="Helvetica,sans-Serif" font-size="10.00">ssi_init</text>
</a>
</g>
</g>
<!-- Node2&#45;&gt;Node3 -->
<g id="edge2_Node000002_Node000003" class="edge">
<title>Node2&#45;&gt;Node3</title>
<g id="a_edge2_Node000002_Node000003"><a xlink:title=" ">
<path fill="none" stroke="#63b8ff" d="M191.28,-9.5C199.81,-9.5 208.69,-9.5 216.91,-9.5"/>
<polygon fill="#63b8ff" stroke="#63b8ff" points="216.92,-13 226.92,-9.5 216.92,-6 216.92,-13"/>
</a>
</g>
</g>
<!-- Node4 -->
<g id="Node000004" class="node">
<title>Node4</title>
<g id="a_Node000004"><a xlink:href="ssi_8cpp.html#ad9477666f554e11fbb9ad11f7e9fbd95" target="_top" xlink:title=" ">
<polygon fill="white" stroke="#666666" points="386,-19 314,-19 314,0 386,0 386,-19"/>
<text text-anchor="middle" x="350" y="-7" font-family="Helvetica,sans-Serif" font-size="10.00">ssi_handler</text>
</a>
</g>
</g>
<!-- Node3&#45;&gt;Node4 -->
<g id="edge3_Node000003_Node000004" class="edge">
<title>Node3&#45;&gt;Node4</title>
<g id="a_edge3_Node000003_Node000004"><a xlink:title=" ">
<path fill="none" stroke="#63b8ff" d="M278.09,-9.5C285.88,-9.5 294.75,-9.5 303.52,-9.5"/>
<polygon fill="#63b8ff" stroke="#63b8ff" points="303.69,-13 313.69,-9.5 303.69,-6 303.69,-13"/>
</a>
</g>
</g>
</g>
</svg>
