<?xml version="1.0" encoding="UTF-8" standalone="no"?>
<!DOCTYPE svg PUBLIC "-//W3C//DTD SVG 1.1//EN"
 "http://www.w3.org/Graphics/SVG/1.1/DTD/svg11.dtd">
<!-- Generated by graphviz version 2.43.0 (0)
 -->
<!-- Title: emulation::run Pages: 1 -->
<svg width="273pt" height="187pt"
 viewBox="0.00 0.00 273.00 186.50" xmlns="http://www.w3.org/2000/svg" xmlns:xlink="http://www.w3.org/1999/xlink">

<svg id="main" version="1.1" xmlns="http://www.w3.org/2000/svg" xmlns:xlink="http://www.w3.org/1999/xlink" xml:space="preserve" onload="init(evt)">
<style type="text/css"><![CDATA[
.node, .edge {opacity: 0.7;}
.node.selected, .edge.selected {opacity: 1;}
.edge:hover path { stroke: red; }
.edge:hover polygon { stroke: red; fill: red; }
]]></style>
<script type="application/ecmascript" xlink:href="svg.min.js"/>
<svg id="graph" class="graph">
<g id="graph0" class="graph" transform="scale(1 1) rotate(0) translate(4 182.5)">
<title>emulation::run</title>
<!-- Node1 -->
<g id="Node000001" class="node">
<title>Node1</title>
<g id="a_Node000001"><a xlink:title=" ">
<polygon fill="#999999" stroke="#666666" points="88,-93 0,-93 0,-74 88,-74 88,-93"/>
<text text-anchor="middle" x="44" y="-81" font-family="Helvetica,sans-Serif" font-size="10.00">emulation::run</text>
</a>
</g>
</g>
<!-- Node2 -->
<g id="Node000002" class="node">
<title>Node2</title>
<g id="a_Node000002"><a xlink:href="classconcurrent__vector.html#acd87374cfc3abe94c8fb4aa5637558e3" target="_top" xlink:title=" ">
<polygon fill="white" stroke="#666666" points="249.5,-178.5 139.5,-178.5 139.5,-148.5 249.5,-148.5 249.5,-178.5"/>
<text text-anchor="start" x="147.5" y="-166.5" font-family="Helvetica,sans-Serif" font-size="10.00">concurrent_vector::</text>
<text text-anchor="middle" x="194.5" y="-155.5" font-family="Helvetica,sans-Serif" font-size="10.00">emplace_back</text>
</a>
</g>
</g>
<!-- Node1&#45;&gt;Node2 -->
<g id="edge1_Node000001_Node000002" class="edge">
<title>Node1&#45;&gt;Node2</title>
<g id="a_edge1_Node000001_Node000002"><a xlink:title=" ">
<path fill="none" stroke="#63b8ff" d="M56.37,-93.15C71.15,-105.31 98.13,-126.21 124,-139.5 127.48,-141.29 131.12,-142.99 134.83,-144.6"/>
<polygon fill="#63b8ff" stroke="#63b8ff" points="133.58,-147.87 144.16,-148.42 136.24,-141.4 133.58,-147.87"/>
</a>
</g>
</g>
<!-- Node3 -->
<g id="Node000003" class="node">
<title>Node3</title>
<g id="a_Node000003"><a xlink:href="classconcurrent__queue.html#ada7853bc4c571a8d8b363fde5e230ede" target="_top" xlink:title=" ">
<polygon fill="white" stroke="#666666" points="265,-130 124,-130 124,-111 265,-111 265,-130"/>
<text text-anchor="middle" x="194.5" y="-118" font-family="Helvetica,sans-Serif" font-size="10.00">concurrent_queue::empty</text>
</a>
</g>
</g>
<!-- Node1&#45;&gt;Node3 -->
<g id="edge2_Node000001_Node000003" class="edge">
<title>Node1&#45;&gt;Node3</title>
<g id="a_edge2_Node000001_Node000003"><a xlink:title=" ">
<path fill="none" stroke="#63b8ff" d="M83.24,-93.03C102.14,-97.74 125.13,-103.47 145.23,-108.47"/>
<polygon fill="#63b8ff" stroke="#63b8ff" points="144.58,-111.92 155.13,-110.94 146.27,-105.13 144.58,-111.92"/>
</a>
</g>
</g>
<!-- Node4 -->
<g id="Node000004" class="node">
<title>Node4</title>
<g id="a_Node000004"><a xlink:href="classconcurrent__queue.html#acef464c5141917bfa1e207b762737ec8" target="_top" xlink:title="Reference to first item in the queue.">
<polygon fill="white" stroke="#666666" points="261,-93 128,-93 128,-74 261,-74 261,-93"/>
<text text-anchor="middle" x="194.5" y="-81" font-family="Helvetica,sans-Serif" font-size="10.00">concurrent_queue::front</text>
</a>
</g>
</g>
<!-- Node1&#45;&gt;Node4 -->
<g id="edge3_Node000001_Node000004" class="edge">
<title>Node1&#45;&gt;Node4</title>
<g id="a_edge3_Node000001_Node000004"><a xlink:title=" ">
<path fill="none" stroke="#63b8ff" d="M88.35,-83.5C97.6,-83.5 107.62,-83.5 117.68,-83.5"/>
<polygon fill="#63b8ff" stroke="#63b8ff" points="117.73,-87 127.73,-83.5 117.73,-80 117.73,-87"/>
</a>
</g>
</g>
<!-- Node5 -->
<g id="Node000005" class="node">
<title>Node5</title>
<g id="a_Node000005"><a xlink:href="classconcurrent__queue.html#acf8caf9c7d650bc24005970641d155cc" target="_top" xlink:title="Pops the first element of the queue, pointed to by front().">
<polygon fill="white" stroke="#666666" points="258.5,-56 130.5,-56 130.5,-37 258.5,-37 258.5,-56"/>
<text text-anchor="middle" x="194.5" y="-44" font-family="Helvetica,sans-Serif" font-size="10.00">concurrent_queue::pop</text>
</a>
</g>
</g>
<!-- Node1&#45;&gt;Node5 -->
<g id="edge4_Node000001_Node000005" class="edge">
<title>Node1&#45;&gt;Node5</title>
<g id="a_edge4_Node000001_Node000005"><a xlink:title=" ">
<path fill="none" stroke="#63b8ff" d="M83.24,-73.97C102.14,-69.26 125.13,-63.53 145.23,-58.53"/>
<polygon fill="#63b8ff" stroke="#63b8ff" points="146.27,-61.87 155.13,-56.06 144.58,-55.08 146.27,-61.87"/>
</a>
</g>
</g>
<!-- Node6 -->
<g id="Node000006" class="node">
<title>Node6</title>
<g id="a_Node000006"><a xlink:href="classconcurrent__queue.html#aff708b19304d9c28c0b12e0507e426df" target="_top" xlink:title=" ">
<polygon fill="white" stroke="#666666" points="259,-19 130,-19 130,0 259,0 259,-19"/>
<text text-anchor="middle" x="194.5" y="-7" font-family="Helvetica,sans-Serif" font-size="10.00">concurrent_queue::size</text>
</a>
</g>
</g>
<!-- Node1&#45;&gt;Node6 -->
<g id="edge5_Node000001_Node000006" class="edge">
<title>Node1&#45;&gt;Node6</title>
<g id="a_edge5_Node000001_Node000006"><a xlink:title=" ">
<path fill="none" stroke="#63b8ff" d="M56.02,-73.98C70.63,-61.8 97.66,-40.82 124,-28.5 129.03,-26.15 134.4,-24.04 139.85,-22.16"/>
<polygon fill="#63b8ff" stroke="#63b8ff" points="141.21,-25.4 149.68,-19.03 139.09,-18.73 141.21,-25.4"/>
</a>
</g>
</g>
</g>
</svg>
</svg>

<style type='text/css'>
<![CDATA[
[data-mouse-over-selected='false'] { opacity: 0.7; }
[data-mouse-over-selected='true']  { opacity: 1.0; }
]]>
</style>
<script type="application/ecmascript"><![CDATA[
document.addEventListener('DOMContentLoaded', (event) => {
  highlightEdges();
  highlightAdjacentNodes();
});
]]></script>
</svg>
