<?xml version="1.0" encoding="UTF-8" standalone="no"?>
<!DOCTYPE svg PUBLIC "-//W3C//DTD SVG 1.1//EN"
 "http://www.w3.org/Graphics/SVG/1.1/DTD/svg11.dtd">
<!-- Generated by graphviz version 2.43.0 (0)
 -->
<!-- Title: emulation::sign_extend Pages: 1 -->
<svg width="368pt" height="284pt"
 viewBox="0.00 0.00 368.00 284.00" xmlns="http://www.w3.org/2000/svg" xmlns:xlink="http://www.w3.org/1999/xlink">
<g id="graph0" class="graph" transform="scale(1 1) rotate(0) translate(4 280)">
<title>emulation::sign_extend</title>
<polygon fill="white" stroke="transparent" points="-4,4 -4,-280 364,-280 364,4 -4,4"/>
<!-- Node1 -->
<g id="node1" class="node">
<title>Node1</title>
<g id="a_node1"><a xlink:title=" ">
<polygon fill="#bfbfbf" stroke="black" points="229,-128 229,-147 360,-147 360,-128 229,-128"/>
<text text-anchor="middle" x="294.5" y="-135" font-family="Helvetica,sans-Serif" font-size="10.00">emulation::sign_extend</text>
</a>
</g>
</g>
<!-- Node2 -->
<g id="node2" class="node">
<title>Node2</title>
<g id="a_node2"><a xlink:href="structemulation_1_1emulator.html#a842d140c755023a3a4a1f2194e506b75" target="_top" xlink:title="Add Immediate.">
<polygon fill="white" stroke="black" points="77,-245.5 77,-275.5 193,-275.5 193,-245.5 77,-245.5"/>
<text text-anchor="start" x="85" y="-263.5" font-family="Helvetica,sans-Serif" font-size="10.00">emulation::emulator</text>
<text text-anchor="middle" x="135" y="-252.5" font-family="Helvetica,sans-Serif" font-size="10.00">::addi_</text>
</a>
</g>
</g>
<!-- Node1&#45;&gt;Node2 -->
<g id="edge1" class="edge">
<title>Node1&#45;&gt;Node2</title>
<path fill="none" stroke="midnightblue" d="M279.27,-155.16C261.13,-176.73 227.92,-213.21 193,-236.5 188.09,-239.78 182.65,-242.75 177.15,-245.41"/>
<polygon fill="midnightblue" stroke="midnightblue" points="282.2,-157.11 285.87,-147.17 276.8,-152.65 282.2,-157.11"/>
</g>
<!-- Node4 -->
<g id="node4" class="node">
<title>Node4</title>
<g id="a_node4"><a xlink:href="structemulation_1_1emulator.html#a71805ddfb719135f1cc97b8f887bbf57" target="_top" xlink:title="AND Immediate.">
<polygon fill="white" stroke="black" points="77,-196.5 77,-226.5 193,-226.5 193,-196.5 77,-196.5"/>
<text text-anchor="start" x="85" y="-214.5" font-family="Helvetica,sans-Serif" font-size="10.00">emulation::emulator</text>
<text text-anchor="middle" x="135" y="-203.5" font-family="Helvetica,sans-Serif" font-size="10.00">::andi_</text>
</a>
</g>
</g>
<!-- Node1&#45;&gt;Node4 -->
<g id="edge3" class="edge">
<title>Node1&#45;&gt;Node4</title>
<path fill="none" stroke="midnightblue" d="M266.25,-151.64C246.16,-161.92 218.08,-176 193,-187.5 186.46,-190.5 179.44,-193.57 172.64,-196.48"/>
<polygon fill="midnightblue" stroke="midnightblue" points="267.85,-154.75 275.15,-147.07 264.65,-148.53 267.85,-154.75"/>
</g>
<!-- Node5 -->
<g id="node5" class="node">
<title>Node5</title>
<g id="a_node5"><a xlink:href="structemulation_1_1emulator.html#acc83a9f58d0cbfac73ecc1e81a973865" target="_top" xlink:title="OR Immediate.">
<polygon fill="white" stroke="black" points="77,-147.5 77,-177.5 193,-177.5 193,-147.5 77,-147.5"/>
<text text-anchor="start" x="85" y="-165.5" font-family="Helvetica,sans-Serif" font-size="10.00">emulation::emulator</text>
<text text-anchor="middle" x="135" y="-154.5" font-family="Helvetica,sans-Serif" font-size="10.00">::ori_</text>
</a>
</g>
</g>
<!-- Node1&#45;&gt;Node5 -->
<g id="edge4" class="edge">
<title>Node1&#45;&gt;Node5</title>
<path fill="none" stroke="midnightblue" d="M223.48,-148.61C213.37,-150.22 203.06,-151.86 193.23,-153.42"/>
<polygon fill="midnightblue" stroke="midnightblue" points="224.18,-152.05 233.51,-147.02 223.08,-145.13 224.18,-152.05"/>
</g>
<!-- Node6 -->
<g id="node6" class="node">
<title>Node6</title>
<g id="a_node6"><a xlink:href="structemulation_1_1emulator.html#ab84c5b721fdde8ed5ff1e34b4fc47a0b" target="_top" xlink:title="Set Less Than Immediate.">
<polygon fill="white" stroke="black" points="77,-98.5 77,-128.5 193,-128.5 193,-98.5 77,-98.5"/>
<text text-anchor="start" x="85" y="-116.5" font-family="Helvetica,sans-Serif" font-size="10.00">emulation::emulator</text>
<text text-anchor="middle" x="135" y="-105.5" font-family="Helvetica,sans-Serif" font-size="10.00">::slti_</text>
</a>
</g>
</g>
<!-- Node1&#45;&gt;Node6 -->
<g id="edge5" class="edge">
<title>Node1&#45;&gt;Node6</title>
<path fill="none" stroke="midnightblue" d="M220.79,-126.42C211.51,-125.01 202.11,-123.57 193.12,-122.2"/>
<polygon fill="midnightblue" stroke="midnightblue" points="220.39,-129.9 230.8,-127.95 221.44,-122.98 220.39,-129.9"/>
</g>
<!-- Node7 -->
<g id="node7" class="node">
<title>Node7</title>
<g id="a_node7"><a xlink:href="structemulation_1_1emulator.html#a1ed848ccbb7bf14058e3ec2982cb1efd" target="_top" xlink:title="Set Less Than Immediate Unsigned.">
<polygon fill="white" stroke="black" points="77,-49.5 77,-79.5 193,-79.5 193,-49.5 77,-49.5"/>
<text text-anchor="start" x="85" y="-67.5" font-family="Helvetica,sans-Serif" font-size="10.00">emulation::emulator</text>
<text text-anchor="middle" x="135" y="-56.5" font-family="Helvetica,sans-Serif" font-size="10.00">::sltiu_</text>
</a>
</g>
</g>
<!-- Node1&#45;&gt;Node7 -->
<g id="edge6" class="edge">
<title>Node1&#45;&gt;Node7</title>
<path fill="none" stroke="midnightblue" d="M264.75,-123.46C244.71,-113.76 217.32,-100.64 193,-89.5 185.83,-86.22 178.11,-82.77 170.74,-79.53"/>
<polygon fill="midnightblue" stroke="midnightblue" points="263.42,-126.71 273.95,-127.93 266.48,-120.41 263.42,-126.71"/>
</g>
<!-- Node8 -->
<g id="node8" class="node">
<title>Node8</title>
<g id="a_node8"><a xlink:href="structemulation_1_1emulator.html#aeb9b5b3255f4ac44c6715cbae82295f8" target="_top" xlink:title="eXclusive OR Immediate.">
<polygon fill="white" stroke="black" points="77,-0.5 77,-30.5 193,-30.5 193,-0.5 77,-0.5"/>
<text text-anchor="start" x="85" y="-18.5" font-family="Helvetica,sans-Serif" font-size="10.00">emulation::emulator</text>
<text text-anchor="middle" x="135" y="-7.5" font-family="Helvetica,sans-Serif" font-size="10.00">::xori_</text>
</a>
</g>
</g>
<!-- Node1&#45;&gt;Node8 -->
<g id="edge7" class="edge">
<title>Node1&#45;&gt;Node8</title>
<path fill="none" stroke="midnightblue" d="M278.85,-119.97C260.52,-98.91 227.35,-63.52 193,-40.5 187.52,-36.83 181.42,-33.49 175.3,-30.53"/>
<polygon fill="midnightblue" stroke="midnightblue" points="276.39,-122.47 285.55,-127.8 281.7,-117.92 276.39,-122.47"/>
</g>
<!-- Node3 -->
<g id="node3" class="node">
<title>Node3</title>
<g id="a_node3"><a xlink:href="test__emulator__addi_8cpp.html#ae66f6b31b5ad750f1fe042a706a4e3d4" target="_top" xlink:title=" ">
<polygon fill="white" stroke="black" points="0,-251 0,-270 41,-270 41,-251 0,-251"/>
<text text-anchor="middle" x="20.5" y="-258" font-family="Helvetica,sans-Serif" font-size="10.00">main</text>
</a>
</g>
</g>
<!-- Node2&#45;&gt;Node3 -->
<g id="edge2" class="edge">
<title>Node2&#45;&gt;Node3</title>
<path fill="none" stroke="midnightblue" d="M66.62,-260.5C57.37,-260.5 48.55,-260.5 41.19,-260.5"/>
<polygon fill="midnightblue" stroke="midnightblue" points="66.76,-264 76.76,-260.5 66.76,-257 66.76,-264"/>
</g>
</g>
</svg>
