<?xml version="1.0" encoding="UTF-8" standalone="no"?>
<!DOCTYPE svg PUBLIC "-//W3C//DTD SVG 1.1//EN"
 "http://www.w3.org/Graphics/SVG/1.1/DTD/svg11.dtd">
<!-- Generated by graphviz version 2.43.0 (0)
 -->
<!-- Title: emulation::run Pages: 1 -->
<svg width="273pt" height="154pt"
 viewBox="0.00 0.00 273.00 153.50" xmlns="http://www.w3.org/2000/svg" xmlns:xlink="http://www.w3.org/1999/xlink">
<g id="graph0" class="graph" transform="scale(1 1) rotate(0) translate(4 149.5)">
<title>emulation::run</title>
<polygon fill="white" stroke="transparent" points="-4,4 -4,-149.5 269,-149.5 269,4 -4,4"/>
<!-- Node1 -->
<g id="node1" class="node">
<title>Node1</title>
<g id="a_node1"><a xlink:title=" ">
<polygon fill="#bfbfbf" stroke="black" points="0,-57.5 0,-76.5 88,-76.5 88,-57.5 0,-57.5"/>
<text text-anchor="middle" x="44" y="-64.5" font-family="Helvetica,sans-Serif" font-size="10.00">emulation::run</text>
</a>
</g>
</g>
<!-- Node2 -->
<g id="node2" class="node">
<title>Node2</title>
<g id="a_node2"><a xlink:href="classconcurrent__vector.html#acd87374cfc3abe94c8fb4aa5637558e3" target="_top" xlink:title=" ">
<polygon fill="white" stroke="black" points="139.5,-115 139.5,-145 249.5,-145 249.5,-115 139.5,-115"/>
<text text-anchor="start" x="147.5" y="-133" font-family="Helvetica,sans-Serif" font-size="10.00">concurrent_vector::</text>
<text text-anchor="middle" x="194.5" y="-122" font-family="Helvetica,sans-Serif" font-size="10.00">emplace_back</text>
</a>
</g>
</g>
<!-- Node1&#45;&gt;Node2 -->
<g id="edge1" class="edge">
<title>Node1&#45;&gt;Node2</title>
<path fill="none" stroke="midnightblue" d="M63.59,-76.61C79.44,-84.65 102.94,-96.18 124,-105 129.1,-107.14 134.45,-109.26 139.83,-111.32"/>
<polygon fill="midnightblue" stroke="midnightblue" points="138.9,-114.71 149.49,-114.94 141.35,-108.16 138.9,-114.71"/>
</g>
<!-- Node3 -->
<g id="node3" class="node">
<title>Node3</title>
<g id="a_node3"><a xlink:href="classconcurrent__queue.html#ada7853bc4c571a8d8b363fde5e230ede" target="_top" xlink:title=" ">
<polygon fill="white" stroke="black" points="124,-76.5 124,-95.5 265,-95.5 265,-76.5 124,-76.5"/>
<text text-anchor="middle" x="194.5" y="-83.5" font-family="Helvetica,sans-Serif" font-size="10.00">concurrent_queue::empty</text>
</a>
</g>
</g>
<!-- Node1&#45;&gt;Node3 -->
<g id="edge2" class="edge">
<title>Node1&#45;&gt;Node3</title>
<path fill="none" stroke="midnightblue" d="M88.35,-72.55C96.44,-73.58 105.12,-74.69 113.9,-75.82"/>
<polygon fill="midnightblue" stroke="midnightblue" points="113.47,-79.29 123.83,-77.09 114.36,-72.35 113.47,-79.29"/>
</g>
<!-- Node4 -->
<g id="node4" class="node">
<title>Node4</title>
<g id="a_node4"><a xlink:href="classconcurrent__queue.html#acef464c5141917bfa1e207b762737ec8" target="_top" xlink:title="Reference to first item in the queue.">
<polygon fill="white" stroke="black" points="128,-38.5 128,-57.5 261,-57.5 261,-38.5 128,-38.5"/>
<text text-anchor="middle" x="194.5" y="-45.5" font-family="Helvetica,sans-Serif" font-size="10.00">concurrent_queue::front</text>
</a>
</g>
</g>
<!-- Node1&#45;&gt;Node4 -->
<g id="edge3" class="edge">
<title>Node1&#45;&gt;Node4</title>
<path fill="none" stroke="midnightblue" d="M88.35,-61.45C97.6,-60.27 107.62,-58.99 117.68,-57.7"/>
<polygon fill="midnightblue" stroke="midnightblue" points="118.26,-61.16 127.73,-56.41 117.37,-54.21 118.26,-61.16"/>
</g>
<!-- Node5 -->
<g id="node5" class="node">
<title>Node5</title>
<g id="a_node5"><a xlink:href="classconcurrent__queue.html#acf8caf9c7d650bc24005970641d155cc" target="_top" xlink:title="Pops the first element of the queue, pointed to by front().">
<polygon fill="white" stroke="black" points="130.5,-0.5 130.5,-19.5 258.5,-19.5 258.5,-0.5 130.5,-0.5"/>
<text text-anchor="middle" x="194.5" y="-7.5" font-family="Helvetica,sans-Serif" font-size="10.00">concurrent_queue::pop</text>
</a>
</g>
</g>
<!-- Node1&#45;&gt;Node5 -->
<g id="edge4" class="edge">
<title>Node1&#45;&gt;Node5</title>
<path fill="none" stroke="midnightblue" d="M62.48,-57.45C78.23,-49.13 102.19,-37.15 124,-29 130.38,-26.62 137.18,-24.39 143.95,-22.36"/>
<polygon fill="midnightblue" stroke="midnightblue" points="145.14,-25.66 153.78,-19.53 143.2,-18.93 145.14,-25.66"/>
</g>
</g>
</svg>
