<?xml version="1.0" encoding="UTF-8" standalone="no"?>
<!DOCTYPE svg PUBLIC "-//W3C//DTD SVG 1.1//EN"
 "http://www.w3.org/Graphics/SVG/1.1/DTD/svg11.dtd">
<!-- Generated by graphviz version 2.43.0 (0)
 -->
<!-- Title: emulation::sign_extend Pages: 1 -->
<svg width="443pt" height="284pt"
 viewBox="0.00 0.00 443.00 284.00" xmlns="http://www.w3.org/2000/svg" xmlns:xlink="http://www.w3.org/1999/xlink">
<g id="graph0" class="graph" transform="scale(1 1) rotate(0) translate(4 280)">
<title>emulation::sign_extend</title>
<polygon fill="white" stroke="transparent" points="-4,4 -4,-280 439,-280 439,4 -4,4"/>
<!-- Node1 -->
<g id="node1" class="node">
<title>Node1</title>
<g id="a_node1"><a xlink:title=" ">
<polygon fill="#bfbfbf" stroke="black" points="304,-128 304,-147 435,-147 435,-128 304,-128"/>
<text text-anchor="middle" x="369.5" y="-135" font-family="Helvetica,sans-Serif" font-size="10.00">emulation::sign_extend</text>
</a>
</g>
</g>
<!-- Node2 -->
<g id="node2" class="node">
<title>Node2</title>
<g id="a_node2"><a xlink:href="structemulation_1_1emulator.html#a6f512f9a45e36c98c7248f3f0004123a" target="_top" xlink:title="Add Immediate.">
<polygon fill="white" stroke="black" points="152,-245.5 152,-275.5 268,-275.5 268,-245.5 152,-245.5"/>
<text text-anchor="start" x="160" y="-263.5" font-family="Helvetica,sans-Serif" font-size="10.00">emulation::emulator</text>
<text text-anchor="middle" x="210" y="-252.5" font-family="Helvetica,sans-Serif" font-size="10.00">::addi_</text>
</a>
</g>
</g>
<!-- Node1&#45;&gt;Node2 -->
<g id="edge1" class="edge">
<title>Node1&#45;&gt;Node2</title>
<path fill="none" stroke="midnightblue" d="M354.27,-155.16C336.13,-176.73 302.92,-213.21 268,-236.5 263.09,-239.78 257.65,-242.75 252.15,-245.41"/>
<polygon fill="midnightblue" stroke="midnightblue" points="357.2,-157.11 360.87,-147.17 351.8,-152.65 357.2,-157.11"/>
</g>
<!-- Node5 -->
<g id="node5" class="node">
<title>Node5</title>
<g id="a_node5"><a xlink:href="structemulation_1_1emulator.html#a09c4f3ae7b420c579e499c1225efb5b8" target="_top" xlink:title="AND Immediate.">
<polygon fill="white" stroke="black" points="152,-0.5 152,-30.5 268,-30.5 268,-0.5 152,-0.5"/>
<text text-anchor="start" x="160" y="-18.5" font-family="Helvetica,sans-Serif" font-size="10.00">emulation::emulator</text>
<text text-anchor="middle" x="210" y="-7.5" font-family="Helvetica,sans-Serif" font-size="10.00">::andi_</text>
</a>
</g>
</g>
<!-- Node1&#45;&gt;Node5 -->
<g id="edge4" class="edge">
<title>Node1&#45;&gt;Node5</title>
<path fill="none" stroke="midnightblue" d="M354.23,-120.03C336.05,-98.69 302.81,-62.59 268,-39.5 263.08,-36.24 257.64,-33.27 252.14,-30.62"/>
<polygon fill="midnightblue" stroke="midnightblue" points="351.74,-122.51 360.85,-127.93 357.11,-118.02 351.74,-122.51"/>
</g>
<!-- Node7 -->
<g id="node7" class="node">
<title>Node7</title>
<g id="a_node7"><a xlink:href="structemulation_1_1emulator.html#a6bd9d2dd11a7045a5bda8aa36e044df9" target="_top" xlink:title="OR Immediate.">
<polygon fill="white" stroke="black" points="152,-196.5 152,-226.5 268,-226.5 268,-196.5 152,-196.5"/>
<text text-anchor="start" x="160" y="-214.5" font-family="Helvetica,sans-Serif" font-size="10.00">emulation::emulator</text>
<text text-anchor="middle" x="210" y="-203.5" font-family="Helvetica,sans-Serif" font-size="10.00">::ori_</text>
</a>
</g>
</g>
<!-- Node1&#45;&gt;Node7 -->
<g id="edge7" class="edge">
<title>Node1&#45;&gt;Node7</title>
<path fill="none" stroke="midnightblue" d="M341.25,-151.64C321.16,-161.92 293.08,-176 268,-187.5 261.46,-190.5 254.44,-193.57 247.64,-196.48"/>
<polygon fill="midnightblue" stroke="midnightblue" points="342.85,-154.75 350.15,-147.07 339.65,-148.53 342.85,-154.75"/>
</g>
<!-- Node8 -->
<g id="node8" class="node">
<title>Node8</title>
<g id="a_node8"><a xlink:href="structemulation_1_1emulator.html#a6708f26995650c5023ba2e1f01043da3" target="_top" xlink:title="Set Less Than Immediate.">
<polygon fill="white" stroke="black" points="152,-147.5 152,-177.5 268,-177.5 268,-147.5 152,-147.5"/>
<text text-anchor="start" x="160" y="-165.5" font-family="Helvetica,sans-Serif" font-size="10.00">emulation::emulator</text>
<text text-anchor="middle" x="210" y="-154.5" font-family="Helvetica,sans-Serif" font-size="10.00">::slti_</text>
</a>
</g>
</g>
<!-- Node1&#45;&gt;Node8 -->
<g id="edge9" class="edge">
<title>Node1&#45;&gt;Node8</title>
<path fill="none" stroke="midnightblue" d="M298.48,-148.61C288.37,-150.22 278.06,-151.86 268.23,-153.42"/>
<polygon fill="midnightblue" stroke="midnightblue" points="299.18,-152.05 308.51,-147.02 298.08,-145.13 299.18,-152.05"/>
</g>
<!-- Node9 -->
<g id="node9" class="node">
<title>Node9</title>
<g id="a_node9"><a xlink:href="structemulation_1_1emulator.html#ae7cb842573a7163c8453c332bb5212a4" target="_top" xlink:title="Set Less Than Immediate Unsigned.">
<polygon fill="white" stroke="black" points="152,-98.5 152,-128.5 268,-128.5 268,-98.5 152,-98.5"/>
<text text-anchor="start" x="160" y="-116.5" font-family="Helvetica,sans-Serif" font-size="10.00">emulation::emulator</text>
<text text-anchor="middle" x="210" y="-105.5" font-family="Helvetica,sans-Serif" font-size="10.00">::sltiu_</text>
</a>
</g>
</g>
<!-- Node1&#45;&gt;Node9 -->
<g id="edge11" class="edge">
<title>Node1&#45;&gt;Node9</title>
<path fill="none" stroke="midnightblue" d="M295.79,-126.42C286.51,-125.01 277.11,-123.57 268.12,-122.2"/>
<polygon fill="midnightblue" stroke="midnightblue" points="295.39,-129.9 305.8,-127.95 296.44,-122.98 295.39,-129.9"/>
</g>
<!-- Node10 -->
<g id="node10" class="node">
<title>Node10</title>
<g id="a_node10"><a xlink:href="structemulation_1_1emulator.html#acff5e850933d78ceb45d425cb6491a4b" target="_top" xlink:title="eXclusive OR Immediate.">
<polygon fill="white" stroke="black" points="152,-49.5 152,-79.5 268,-79.5 268,-49.5 152,-49.5"/>
<text text-anchor="start" x="160" y="-67.5" font-family="Helvetica,sans-Serif" font-size="10.00">emulation::emulator</text>
<text text-anchor="middle" x="210" y="-56.5" font-family="Helvetica,sans-Serif" font-size="10.00">::xori_</text>
</a>
</g>
</g>
<!-- Node1&#45;&gt;Node10 -->
<g id="edge13" class="edge">
<title>Node1&#45;&gt;Node10</title>
<path fill="none" stroke="midnightblue" d="M339.75,-123.46C319.71,-113.76 292.32,-100.64 268,-89.5 260.83,-86.22 253.11,-82.77 245.74,-79.53"/>
<polygon fill="midnightblue" stroke="midnightblue" points="338.42,-126.71 348.95,-127.93 341.48,-120.41 338.42,-126.71"/>
</g>
<!-- Node3 -->
<g id="node3" class="node">
<title>Node3</title>
<g id="a_node3"><a xlink:href="structemulation_1_1emulator.html#a2e4d099ca70b1f19761f7918159eaf63" target="_top" xlink:title=" ">
<polygon fill="white" stroke="black" points="0,-122.5 0,-152.5 116,-152.5 116,-122.5 0,-122.5"/>
<text text-anchor="start" x="8" y="-140.5" font-family="Helvetica,sans-Serif" font-size="10.00">emulation::emulator</text>
<text text-anchor="middle" x="58" y="-129.5" font-family="Helvetica,sans-Serif" font-size="10.00">::execute</text>
</a>
</g>
</g>
<!-- Node2&#45;&gt;Node3 -->
<g id="edge2" class="edge">
<title>Node2&#45;&gt;Node3</title>
<path fill="none" stroke="midnightblue" d="M158.51,-240.66C156.27,-239.33 154.08,-237.95 152,-236.5 117.54,-212.54 86.04,-174.04 70.04,-152.8"/>
<polygon fill="midnightblue" stroke="midnightblue" points="156.96,-243.79 167.43,-245.44 160.27,-237.63 156.96,-243.79"/>
</g>
<!-- Node4 -->
<g id="node4" class="node">
<title>Node4</title>
<g id="a_node4"><a xlink:href="test__emulator__addi_8cpp.html#ae66f6b31b5ad750f1fe042a706a4e3d4" target="_top" xlink:title=" ">
<polygon fill="white" stroke="black" points="37.5,-251 37.5,-270 78.5,-270 78.5,-251 37.5,-251"/>
<text text-anchor="middle" x="58" y="-258" font-family="Helvetica,sans-Serif" font-size="10.00">main</text>
</a>
</g>
</g>
<!-- Node2&#45;&gt;Node4 -->
<g id="edge3" class="edge">
<title>Node2&#45;&gt;Node4</title>
<path fill="none" stroke="midnightblue" d="M141.75,-260.5C118.77,-260.5 94.8,-260.5 78.61,-260.5"/>
<polygon fill="midnightblue" stroke="midnightblue" points="141.86,-264 151.86,-260.5 141.86,-257 141.86,-264"/>
</g>
<!-- Node5&#45;&gt;Node3 -->
<g id="edge5" class="edge">
<title>Node5&#45;&gt;Node3</title>
<path fill="none" stroke="midnightblue" d="M158.52,-35.36C156.27,-36.68 154.09,-38.06 152,-39.5 117.66,-63.25 86.11,-101.35 70.08,-122.36"/>
<polygon fill="midnightblue" stroke="midnightblue" points="160.28,-38.39 167.45,-30.59 156.98,-32.22 160.28,-38.39"/>
</g>
<!-- Node6 -->
<g id="node6" class="node">
<title>Node6</title>
<g id="a_node6"><a xlink:href="test__emulator__andi_8cpp.html#ae66f6b31b5ad750f1fe042a706a4e3d4" target="_top" xlink:title=" ">
<polygon fill="white" stroke="black" points="37.5,-6 37.5,-25 78.5,-25 78.5,-6 37.5,-6"/>
<text text-anchor="middle" x="58" y="-13" font-family="Helvetica,sans-Serif" font-size="10.00">main</text>
</a>
</g>
</g>
<!-- Node5&#45;&gt;Node6 -->
<g id="edge6" class="edge">
<title>Node5&#45;&gt;Node6</title>
<path fill="none" stroke="midnightblue" d="M141.75,-15.5C118.77,-15.5 94.8,-15.5 78.61,-15.5"/>
<polygon fill="midnightblue" stroke="midnightblue" points="141.86,-19 151.86,-15.5 141.86,-12 141.86,-19"/>
</g>
<!-- Node7&#45;&gt;Node3 -->
<g id="edge8" class="edge">
<title>Node7&#45;&gt;Node3</title>
<path fill="none" stroke="midnightblue" d="M162.34,-192.28C158.82,-190.7 155.35,-189.1 152,-187.5 129.18,-176.59 103.93,-162.91 85.51,-152.62"/>
<polygon fill="midnightblue" stroke="midnightblue" points="161.11,-195.56 171.67,-196.38 163.93,-189.16 161.11,-195.56"/>
</g>
<!-- Node8&#45;&gt;Node3 -->
<g id="edge10" class="edge">
<title>Node8&#45;&gt;Node3</title>
<path fill="none" stroke="midnightblue" d="M141.97,-151.33C133.46,-149.91 124.81,-148.47 116.47,-147.08"/>
<polygon fill="midnightblue" stroke="midnightblue" points="141.42,-154.79 151.86,-152.98 142.58,-147.88 141.42,-154.79"/>
</g>
<!-- Node9&#45;&gt;Node3 -->
<g id="edge12" class="edge">
<title>Node9&#45;&gt;Node3</title>
<path fill="none" stroke="midnightblue" d="M141.97,-124.23C133.46,-125.59 124.81,-126.97 116.47,-128.3"/>
<polygon fill="midnightblue" stroke="midnightblue" points="142.54,-127.68 151.86,-122.64 141.44,-120.77 142.54,-127.68"/>
</g>
<!-- Node10&#45;&gt;Node3 -->
<g id="edge14" class="edge">
<title>Node10&#45;&gt;Node3</title>
<path fill="none" stroke="midnightblue" d="M164.39,-83.74C160.19,-85.65 156,-87.59 152,-89.5 130.02,-99.98 105.57,-112.64 87.26,-122.33"/>
<polygon fill="midnightblue" stroke="midnightblue" points="165.88,-86.91 173.57,-79.62 163.01,-80.52 165.88,-86.91"/>
</g>
</g>
</svg>
