<?xml version="1.0" encoding="UTF-8" standalone="no"?>
<!DOCTYPE svg PUBLIC "-//W3C//DTD SVG 1.1//EN"
 "http://www.w3.org/Graphics/SVG/1.1/DTD/svg11.dtd">
<!-- Generated by graphviz version 2.43.0 (0)
 -->
<!-- Title: emulation::sign_extend Pages: 1 -->
<svg width="464pt" height="737pt"
 viewBox="0.00 0.00 464.00 737.00" xmlns="http://www.w3.org/2000/svg" xmlns:xlink="http://www.w3.org/1999/xlink">
<g id="graph0" class="graph" transform="scale(1 1) rotate(0) translate(4 733)">
<title>emulation::sign_extend</title>
<!-- Node1 -->
<g id="Node000001" class="node">
<title>Node1</title>
<g id="a_Node000001"><a xlink:title=" ">
<polygon fill="#999999" stroke="#666666" points="456,-384.5 325,-384.5 325,-365.5 456,-365.5 456,-384.5"/>
<text text-anchor="middle" x="390.5" y="-372.5" font-family="Helvetica,sans-Serif" font-size="10.00">emulation::sign_extend</text>
</a>
</g>
</g>
<!-- Node2 -->
<g id="Node000002" class="node">
<title>Node2</title>
<g id="a_Node000002"><a xlink:href="structemulation_1_1emulator.html#a6f512f9a45e36c98c7248f3f0004123a" target="_top" xlink:title="Add Immediate.">
<polygon fill="white" stroke="#666666" points="278.5,-729 162.5,-729 162.5,-699 278.5,-699 278.5,-729"/>
<text text-anchor="start" x="170.5" y="-717" font-family="Helvetica,sans-Serif" font-size="10.00">emulation::emulator</text>
<text text-anchor="middle" x="220.5" y="-706" font-family="Helvetica,sans-Serif" font-size="10.00">::addi_</text>
</a>
</g>
</g>
<!-- Node1&#45;&gt;Node2 -->
<g id="edge1_Node000001_Node000002" class="edge">
<title>Node1&#45;&gt;Node2</title>
<g id="a_edge1_Node000001_Node000002"><a xlink:title=" ">
<path fill="none" stroke="#63b8ff" d="M388.99,-394.87C386.51,-449.59 372.11,-604.12 289,-690 285.71,-693.4 281.92,-696.31 277.83,-698.82"/>
<polygon fill="#63b8ff" stroke="#63b8ff" points="392.49,-394.89 389.36,-384.77 385.5,-394.63 392.49,-394.89"/>
</a>
</g>
</g>
<!-- Node5 -->
<g id="Node000005" class="node">
<title>Node5</title>
<g id="a_Node000005"><a xlink:href="structemulation_1_1emulator.html#a09c4f3ae7b420c579e499c1225efb5b8" target="_top" xlink:title="AND Immediate.">
<polygon fill="white" stroke="#666666" points="278.5,-681 162.5,-681 162.5,-651 278.5,-651 278.5,-681"/>
<text text-anchor="start" x="170.5" y="-669" font-family="Helvetica,sans-Serif" font-size="10.00">emulation::emulator</text>
<text text-anchor="middle" x="220.5" y="-658" font-family="Helvetica,sans-Serif" font-size="10.00">::andi_</text>
</a>
</g>
</g>
<!-- Node1&#45;&gt;Node5 -->
<g id="edge4_Node000001_Node000005" class="edge">
<title>Node1&#45;&gt;Node5</title>
<g id="a_edge4_Node000001_Node000005"><a xlink:title=" ">
<path fill="none" stroke="#63b8ff" d="M387.68,-394.72C382.14,-443.53 361.15,-571.17 289,-642 285.54,-645.4 281.57,-648.32 277.32,-650.83"/>
<polygon fill="#63b8ff" stroke="#63b8ff" points="391.18,-394.87 388.73,-384.57 384.22,-394.15 391.18,-394.87"/>
</a>
</g>
</g>
<!-- Node7 -->
<g id="Node000007" class="node">
<title>Node7</title>
<g id="a_Node000007"><a xlink:href="structemulation_1_1emulator.html#a4764c8f8a813222723736010fe06c6f8" target="_top" xlink:title="Branch EQual.">
<polygon fill="white" stroke="#666666" points="278.5,-366 162.5,-366 162.5,-336 278.5,-336 278.5,-366"/>
<text text-anchor="start" x="170.5" y="-354" font-family="Helvetica,sans-Serif" font-size="10.00">emulation::emulator</text>
<text text-anchor="middle" x="220.5" y="-343" font-family="Helvetica,sans-Serif" font-size="10.00">::beq_</text>
</a>
</g>
</g>
<!-- Node1&#45;&gt;Node7 -->
<g id="edge7_Node000001_Node000007" class="edge">
<title>Node1&#45;&gt;Node7</title>
<g id="a_edge7_Node000001_Node000007"><a xlink:title=" ">
<path fill="none" stroke="#63b8ff" d="M314.51,-364.29C302.46,-362.57 290.16,-360.81 278.62,-359.16"/>
<polygon fill="#63b8ff" stroke="#63b8ff" points="314.15,-367.77 324.55,-365.72 315.14,-360.84 314.15,-367.77"/>
</a>
</g>
</g>
<!-- Node8 -->
<g id="Node000008" class="node">
<title>Node8</title>
<g id="a_Node000008"><a xlink:href="structemulation_1_1emulator.html#aa8436f1782c600c2602784550783dd1d" target="_top" xlink:title="Branch Greater than or Equal.">
<polygon fill="white" stroke="#666666" points="278.5,-318 162.5,-318 162.5,-288 278.5,-288 278.5,-318"/>
<text text-anchor="start" x="170.5" y="-306" font-family="Helvetica,sans-Serif" font-size="10.00">emulation::emulator</text>
<text text-anchor="middle" x="220.5" y="-295" font-family="Helvetica,sans-Serif" font-size="10.00">::bge_</text>
</a>
</g>
</g>
<!-- Node1&#45;&gt;Node8 -->
<g id="edge9_Node000001_Node000008" class="edge">
<title>Node1&#45;&gt;Node8</title>
<g id="a_edge9_Node000001_Node000008"><a xlink:title=" ">
<path fill="none" stroke="#63b8ff" d="M361.73,-360.78C341.74,-350.78 314.01,-337.39 289,-327 281.65,-323.95 273.75,-320.92 266.05,-318.1"/>
<polygon fill="#63b8ff" stroke="#63b8ff" points="360.37,-364.01 370.87,-365.38 363.52,-357.76 360.37,-364.01"/>
</a>
</g>
</g>
<!-- Node9 -->
<g id="Node000009" class="node">
<title>Node9</title>
<g id="a_Node000009"><a xlink:href="structemulation_1_1emulator.html#a9aba50a40e49223010db0ab4379859e3" target="_top" xlink:title="Branch Greater than or Equal Unsigned.">
<polygon fill="white" stroke="#666666" points="278.5,-270 162.5,-270 162.5,-240 278.5,-240 278.5,-270"/>
<text text-anchor="start" x="170.5" y="-258" font-family="Helvetica,sans-Serif" font-size="10.00">emulation::emulator</text>
<text text-anchor="middle" x="220.5" y="-247" font-family="Helvetica,sans-Serif" font-size="10.00">::bgeu_</text>
</a>
</g>
</g>
<!-- Node1&#45;&gt;Node9 -->
<g id="edge11_Node000001_Node000009" class="edge">
<title>Node1&#45;&gt;Node9</title>
<g id="a_edge11_Node000001_Node000009"><a xlink:title=" ">
<path fill="none" stroke="#63b8ff" d="M375.36,-357.58C357.32,-336.36 324.21,-300.69 289,-279 283.6,-275.67 277.67,-272.72 271.64,-270.12"/>
<polygon fill="#63b8ff" stroke="#63b8ff" points="372.83,-360.01 381.92,-365.45 378.21,-355.53 372.83,-360.01"/>
</a>
</g>
</g>
<!-- Node10 -->
<g id="Node000010" class="node">
<title>Node10</title>
<g id="a_Node000010"><a xlink:href="structemulation_1_1emulator.html#aff0ad86baa02712f534562bb703e66dc" target="_top" xlink:title="Branch Less Than.">
<polygon fill="white" stroke="#666666" points="278.5,-222 162.5,-222 162.5,-192 278.5,-192 278.5,-222"/>
<text text-anchor="start" x="170.5" y="-210" font-family="Helvetica,sans-Serif" font-size="10.00">emulation::emulator</text>
<text text-anchor="middle" x="220.5" y="-199" font-family="Helvetica,sans-Serif" font-size="10.00">::blt_</text>
</a>
</g>
</g>
<!-- Node1&#45;&gt;Node10 -->
<g id="edge13_Node000001_Node000010" class="edge">
<title>Node1&#45;&gt;Node10</title>
<g id="a_edge13_Node000001_Node000010"><a xlink:title=" ">
<path fill="none" stroke="#63b8ff" d="M381.17,-356.29C366.7,-325.81 334.08,-265.38 289,-231 284.55,-227.61 279.58,-224.66 274.41,-222.12"/>
<polygon fill="#63b8ff" stroke="#63b8ff" points="378.01,-357.79 385.38,-365.4 384.37,-354.85 378.01,-357.79"/>
</a>
</g>
</g>
<!-- Node11 -->
<g id="Node000011" class="node">
<title>Node11</title>
<g id="a_Node000011"><a xlink:href="structemulation_1_1emulator.html#abc914f48206b4623f88d1c9b11ba8cde" target="_top" xlink:title="Branch Less Than Unsigned.">
<polygon fill="white" stroke="#666666" points="278.5,-174 162.5,-174 162.5,-144 278.5,-144 278.5,-174"/>
<text text-anchor="start" x="170.5" y="-162" font-family="Helvetica,sans-Serif" font-size="10.00">emulation::emulator</text>
<text text-anchor="middle" x="220.5" y="-151" font-family="Helvetica,sans-Serif" font-size="10.00">::bltu_</text>
</a>
</g>
</g>
<!-- Node1&#45;&gt;Node11 -->
<g id="edge15_Node000001_Node000011" class="edge">
<title>Node1&#45;&gt;Node11</title>
<g id="a_edge15_Node000001_Node000011"><a xlink:title=" ">
<path fill="none" stroke="#63b8ff" d="M384.5,-355.55C373.64,-317.13 344.33,-231.05 289,-183 285.06,-179.57 280.59,-176.63 275.88,-174.09"/>
<polygon fill="#63b8ff" stroke="#63b8ff" points="381.19,-356.72 387.18,-365.45 387.94,-354.89 381.19,-356.72"/>
</a>
</g>
</g>
<!-- Node12 -->
<g id="Node000012" class="node">
<title>Node12</title>
<g id="a_Node000012"><a xlink:href="structemulation_1_1emulator.html#aea1938f1f04e4fd1c6ce359da8ec0f13" target="_top" xlink:title="Branch Not Equal.">
<polygon fill="white" stroke="#666666" points="278.5,-126 162.5,-126 162.5,-96 278.5,-96 278.5,-126"/>
<text text-anchor="start" x="170.5" y="-114" font-family="Helvetica,sans-Serif" font-size="10.00">emulation::emulator</text>
<text text-anchor="middle" x="220.5" y="-103" font-family="Helvetica,sans-Serif" font-size="10.00">::bne_</text>
</a>
</g>
</g>
<!-- Node1&#45;&gt;Node12 -->
<g id="edge17_Node000001_Node000012" class="edge">
<title>Node1&#45;&gt;Node12</title>
<g id="a_edge17_Node000001_Node000012"><a xlink:title=" ">
<path fill="none" stroke="#63b8ff" d="M386.7,-355.15C379.28,-309.74 354.93,-197.41 289,-135 285.39,-131.58 281.25,-128.64 276.85,-126.12"/>
<polygon fill="#63b8ff" stroke="#63b8ff" points="383.27,-355.83 388.24,-365.18 390.19,-354.77 383.27,-355.83"/>
</a>
</g>
</g>
<!-- Node13 -->
<g id="Node000013" class="node">
<title>Node13</title>
<g id="a_Node000013"><a xlink:href="structemulation_1_1emulator.html#a6d495ced29be5a5f0f9eb07b8044cbb9" target="_top" xlink:title="Jump And Link.">
<polygon fill="white" stroke="#666666" points="278.5,-78 162.5,-78 162.5,-48 278.5,-48 278.5,-78"/>
<text text-anchor="start" x="170.5" y="-66" font-family="Helvetica,sans-Serif" font-size="10.00">emulation::emulator</text>
<text text-anchor="middle" x="220.5" y="-55" font-family="Helvetica,sans-Serif" font-size="10.00">::jal_</text>
</a>
</g>
</g>
<!-- Node1&#45;&gt;Node13 -->
<g id="edge19_Node000001_Node000013" class="edge">
<title>Node1&#45;&gt;Node13</title>
<g id="a_edge19_Node000001_Node000013"><a xlink:title=" ">
<path fill="none" stroke="#63b8ff" d="M388.29,-355.13C384.11,-303.61 365.88,-164.34 289,-87 285.58,-83.56 281.64,-80.61 277.41,-78.08"/>
<polygon fill="#63b8ff" stroke="#63b8ff" points="384.81,-355.53 389.02,-365.25 391.8,-355.02 384.81,-355.53"/>
</a>
</g>
</g>
<!-- Node14 -->
<g id="Node000014" class="node">
<title>Node14</title>
<g id="a_Node000014"><a xlink:href="structemulation_1_1emulator.html#a12cf345cf8f194678758f198e4af586d" target="_top" xlink:title="Jump And Link Register.">
<polygon fill="white" stroke="#666666" points="278.5,-30 162.5,-30 162.5,0 278.5,0 278.5,-30"/>
<text text-anchor="start" x="170.5" y="-18" font-family="Helvetica,sans-Serif" font-size="10.00">emulation::emulator</text>
<text text-anchor="middle" x="220.5" y="-7" font-family="Helvetica,sans-Serif" font-size="10.00">::jalr_</text>
</a>
</g>
</g>
<!-- Node1&#45;&gt;Node14 -->
<g id="edge21_Node000001_Node000014" class="edge">
<title>Node1&#45;&gt;Node14</title>
<g id="a_edge21_Node000001_Node000014"><a xlink:title=" ">
<path fill="none" stroke="#63b8ff" d="M389.46,-355.36C388.28,-298.46 377.09,-131.7 289,-39 285.74,-35.57 281.97,-32.64 277.9,-30.12"/>
<polygon fill="#63b8ff" stroke="#63b8ff" points="385.97,-355.53 389.59,-365.49 392.96,-355.45 385.97,-355.53"/>
</a>
</g>
</g>
<!-- Node15 -->
<g id="Node000015" class="node">
<title>Node15</title>
<g id="a_Node000015"><a xlink:href="structemulation_1_1emulator.html#a742e0adc156e9bec9363000cc96329e1" target="_top" xlink:title="Load Byte.">
<polygon fill="white" stroke="#666666" points="289,-632.5 152,-632.5 152,-613.5 289,-613.5 289,-632.5"/>
<text text-anchor="middle" x="220.5" y="-620.5" font-family="Helvetica,sans-Serif" font-size="10.00">emulation::emulator::lb_</text>
</a>
</g>
</g>
<!-- Node1&#45;&gt;Node15 -->
<g id="edge23_Node000001_Node000015" class="edge">
<title>Node1&#45;&gt;Node15</title>
<g id="a_edge23_Node000001_Node000015"><a xlink:title=" ">
<path fill="none" stroke="#63b8ff" d="M386.73,-394.69C379.39,-439.18 355.29,-548.06 289,-605 285.04,-608.4 280.51,-611.16 275.71,-613.41"/>
<polygon fill="#63b8ff" stroke="#63b8ff" points="390.22,-395.02 388.28,-384.61 383.3,-393.96 390.22,-395.02"/>
</a>
</g>
</g>
<!-- Node16 -->
<g id="Node000016" class="node">
<title>Node16</title>
<g id="a_Node000016"><a xlink:href="structemulation_1_1emulator.html#a56a38bbe4fcffe68c28f743e2b6a528b" target="_top" xlink:title="Load Halfword.">
<polygon fill="white" stroke="#666666" points="289,-595.5 152,-595.5 152,-576.5 289,-576.5 289,-595.5"/>
<text text-anchor="middle" x="220.5" y="-583.5" font-family="Helvetica,sans-Serif" font-size="10.00">emulation::emulator::lh_</text>
</a>
</g>
</g>
<!-- Node1&#45;&gt;Node16 -->
<g id="edge25_Node000001_Node000016" class="edge">
<title>Node1&#45;&gt;Node16</title>
<g id="a_edge25_Node000001_Node000016"><a xlink:title=" ">
<path fill="none" stroke="#63b8ff" d="M384.77,-394.77C374.4,-433.78 345.91,-520.84 289,-567 284.18,-570.91 278.6,-574.02 272.75,-576.49"/>
<polygon fill="#63b8ff" stroke="#63b8ff" points="388.26,-395.27 387.32,-384.71 381.47,-393.55 388.26,-395.27"/>
</a>
</g>
</g>
<!-- Node17 -->
<g id="Node000017" class="node">
<title>Node17</title>
<g id="a_Node000017"><a xlink:href="structemulation_1_1emulator.html#a6bd9d2dd11a7045a5bda8aa36e044df9" target="_top" xlink:title="OR Immediate.">
<polygon fill="white" stroke="#666666" points="278.5,-558 162.5,-558 162.5,-528 278.5,-528 278.5,-558"/>
<text text-anchor="start" x="170.5" y="-546" font-family="Helvetica,sans-Serif" font-size="10.00">emulation::emulator</text>
<text text-anchor="middle" x="220.5" y="-535" font-family="Helvetica,sans-Serif" font-size="10.00">::ori_</text>
</a>
</g>
</g>
<!-- Node1&#45;&gt;Node17 -->
<g id="edge27_Node000001_Node000017" class="edge">
<title>Node1&#45;&gt;Node17</title>
<g id="a_edge27_Node000001_Node000017"><a xlink:title=" ">
<path fill="none" stroke="#63b8ff" d="M381.17,-393.71C366.7,-424.19 334.08,-484.62 289,-519 284.55,-522.39 279.58,-525.34 274.41,-527.88"/>
<polygon fill="#63b8ff" stroke="#63b8ff" points="384.37,-395.15 385.38,-384.6 378.01,-392.21 384.37,-395.15"/>
</a>
</g>
</g>
<!-- Node18 -->
<g id="Node000018" class="node">
<title>Node18</title>
<g id="a_Node000018"><a xlink:href="structemulation_1_1emulator.html#a6708f26995650c5023ba2e1f01043da3" target="_top" xlink:title="Set Less Than Immediate.">
<polygon fill="white" stroke="#666666" points="278.5,-510 162.5,-510 162.5,-480 278.5,-480 278.5,-510"/>
<text text-anchor="start" x="170.5" y="-498" font-family="Helvetica,sans-Serif" font-size="10.00">emulation::emulator</text>
<text text-anchor="middle" x="220.5" y="-487" font-family="Helvetica,sans-Serif" font-size="10.00">::slti_</text>
</a>
</g>
</g>
<!-- Node1&#45;&gt;Node18 -->
<g id="edge29_Node000001_Node000018" class="edge">
<title>Node1&#45;&gt;Node18</title>
<g id="a_edge29_Node000001_Node000018"><a xlink:title=" ">
<path fill="none" stroke="#63b8ff" d="M375.36,-392.42C357.32,-413.64 324.21,-449.31 289,-471 283.6,-474.33 277.67,-477.28 271.64,-479.88"/>
<polygon fill="#63b8ff" stroke="#63b8ff" points="378.21,-394.47 381.92,-384.55 372.83,-389.99 378.21,-394.47"/>
</a>
</g>
</g>
<!-- Node19 -->
<g id="Node000019" class="node">
<title>Node19</title>
<g id="a_Node000019"><a xlink:href="structemulation_1_1emulator.html#ae7cb842573a7163c8453c332bb5212a4" target="_top" xlink:title="Set Less Than Immediate Unsigned.">
<polygon fill="white" stroke="#666666" points="278.5,-462 162.5,-462 162.5,-432 278.5,-432 278.5,-462"/>
<text text-anchor="start" x="170.5" y="-450" font-family="Helvetica,sans-Serif" font-size="10.00">emulation::emulator</text>
<text text-anchor="middle" x="220.5" y="-439" font-family="Helvetica,sans-Serif" font-size="10.00">::sltiu_</text>
</a>
</g>
</g>
<!-- Node1&#45;&gt;Node19 -->
<g id="edge31_Node000001_Node000019" class="edge">
<title>Node1&#45;&gt;Node19</title>
<g id="a_edge31_Node000001_Node000019"><a xlink:title=" ">
<path fill="none" stroke="#63b8ff" d="M361.73,-389.22C341.74,-399.22 314.01,-412.61 289,-423 281.65,-426.05 273.75,-429.08 266.05,-431.9"/>
<polygon fill="#63b8ff" stroke="#63b8ff" points="363.52,-392.24 370.87,-384.62 360.37,-385.99 363.52,-392.24"/>
</a>
</g>
</g>
<!-- Node20 -->
<g id="Node000020" class="node">
<title>Node20</title>
<g id="a_Node000020"><a xlink:href="structemulation_1_1emulator.html#acff5e850933d78ceb45d425cb6491a4b" target="_top" xlink:title="eXclusive OR Immediate.">
<polygon fill="white" stroke="#666666" points="278.5,-414 162.5,-414 162.5,-384 278.5,-384 278.5,-414"/>
<text text-anchor="start" x="170.5" y="-402" font-family="Helvetica,sans-Serif" font-size="10.00">emulation::emulator</text>
<text text-anchor="middle" x="220.5" y="-391" font-family="Helvetica,sans-Serif" font-size="10.00">::xori_</text>
</a>
</g>
</g>
<!-- Node1&#45;&gt;Node20 -->
<g id="edge33_Node000001_Node000020" class="edge">
<title>Node1&#45;&gt;Node20</title>
<g id="a_edge33_Node000001_Node000020"><a xlink:title=" ">
<path fill="none" stroke="#63b8ff" d="M314.51,-385.71C302.46,-387.43 290.16,-389.19 278.62,-390.84"/>
<polygon fill="#63b8ff" stroke="#63b8ff" points="315.14,-389.16 324.55,-384.28 314.15,-382.23 315.14,-389.16"/>
</a>
</g>
</g>
<!-- Node3 -->
<g id="Node000003" class="node">
<title>Node3</title>
<g id="a_Node000003"><a xlink:href="structemulation_1_1emulator.html#a2e4d099ca70b1f19761f7918159eaf63" target="_top" xlink:title=" ">
<polygon fill="white" stroke="#666666" points="116,-390 0,-390 0,-360 116,-360 116,-390"/>
<text text-anchor="start" x="8" y="-378" font-family="Helvetica,sans-Serif" font-size="10.00">emulation::emulator</text>
<text text-anchor="middle" x="58" y="-367" font-family="Helvetica,sans-Serif" font-size="10.00">::execute</text>
</a>
</g>
</g>
<!-- Node2&#45;&gt;Node3 -->
<g id="edge2_Node000002_Node000003" class="edge">
<title>Node2&#45;&gt;Node3</title>
<g id="a_edge2_Node000002_Node000003"><a xlink:title=" ">
<path fill="none" stroke="#63b8ff" d="M154.86,-692.78C153.87,-691.89 152.91,-690.97 152,-690 67.9,-601.19 59.44,-440.06 58.91,-390.15"/>
<polygon fill="#63b8ff" stroke="#63b8ff" points="152.98,-695.74 163.09,-698.9 157.15,-690.12 152.98,-695.74"/>
</a>
</g>
</g>
<!-- Node4 -->
<g id="Node000004" class="node">
<title>Node4</title>
<g id="a_Node000004"><a xlink:href="test__emulator__addi_8cpp.html#ae66f6b31b5ad750f1fe042a706a4e3d4" target="_top" xlink:title=" ">
<polygon fill="white" stroke="#666666" points="78.5,-723.5 37.5,-723.5 37.5,-704.5 78.5,-704.5 78.5,-723.5"/>
<text text-anchor="middle" x="58" y="-711.5" font-family="Helvetica,sans-Serif" font-size="10.00">main</text>
</a>
</g>
</g>
<!-- Node2&#45;&gt;Node4 -->
<g id="edge3_Node000002_Node000004" class="edge">
<title>Node2&#45;&gt;Node4</title>
<g id="a_edge3_Node000002_Node000004"><a xlink:title=" ">
<path fill="none" stroke="#63b8ff" d="M152.39,-714C125.8,-714 97.24,-714 78.8,-714"/>
<polygon fill="#63b8ff" stroke="#63b8ff" points="152.46,-717.5 162.46,-714 152.46,-710.5 152.46,-717.5"/>
</a>
</g>
</g>
<!-- Node5&#45;&gt;Node3 -->
<g id="edge5_Node000005_Node000003" class="edge">
<title>Node5&#45;&gt;Node3</title>
<g id="a_edge5_Node000005_Node000003"><a xlink:title=" ">
<path fill="none" stroke="#63b8ff" d="M155.35,-645.08C154.19,-644.1 153.07,-643.08 152,-642 79,-568.53 63.16,-434.79 59.84,-390.04"/>
<polygon fill="#63b8ff" stroke="#63b8ff" points="153.41,-648 163.59,-650.92 157.45,-642.28 153.41,-648"/>
</a>
</g>
</g>
<!-- Node6 -->
<g id="Node000006" class="node">
<title>Node6</title>
<g id="a_Node000006"><a xlink:href="test__emulator__andi_8cpp.html#ae66f6b31b5ad750f1fe042a706a4e3d4" target="_top" xlink:title=" ">
<polygon fill="white" stroke="#666666" points="78.5,-675.5 37.5,-675.5 37.5,-656.5 78.5,-656.5 78.5,-675.5"/>
<text text-anchor="middle" x="58" y="-663.5" font-family="Helvetica,sans-Serif" font-size="10.00">main</text>
</a>
</g>
</g>
<!-- Node5&#45;&gt;Node6 -->
<g id="edge6_Node000005_Node000006" class="edge">
<title>Node5&#45;&gt;Node6</title>
<g id="a_edge6_Node000005_Node000006"><a xlink:title=" ">
<path fill="none" stroke="#63b8ff" d="M152.39,-666C125.8,-666 97.24,-666 78.8,-666"/>
<polygon fill="#63b8ff" stroke="#63b8ff" points="152.46,-669.5 162.46,-666 152.46,-662.5 152.46,-669.5"/>
</a>
</g>
</g>
<!-- Node7&#45;&gt;Node3 -->
<g id="edge8_Node000007_Node000003" class="edge">
<title>Node7&#45;&gt;Node3</title>
<g id="a_edge8_Node000007_Node000003"><a xlink:title=" ">
<path fill="none" stroke="#63b8ff" d="M152.44,-361.03C140.37,-362.83 127.88,-364.7 116.12,-366.46"/>
<polygon fill="#63b8ff" stroke="#63b8ff" points="153.09,-364.47 162.46,-359.53 152.05,-357.55 153.09,-364.47"/>
</a>
</g>
</g>
<!-- Node8&#45;&gt;Node3 -->
<g id="edge10_Node000008_Node000003" class="edge">
<title>Node8&#45;&gt;Node3</title>
<g id="a_edge10_Node000008_Node000003"><a xlink:title=" ">
<path fill="none" stroke="#63b8ff" d="M164.88,-321.7C160.5,-323.42 156.16,-325.2 152,-327 129.16,-336.9 104.13,-349.95 85.8,-359.94"/>
<polygon fill="#63b8ff" stroke="#63b8ff" points="166.41,-324.87 174.51,-318.04 163.92,-318.33 166.41,-324.87"/>
</a>
</g>
</g>
<!-- Node9&#45;&gt;Node3 -->
<g id="edge12_Node000009_Node000003" class="edge">
<title>Node9&#45;&gt;Node3</title>
<g id="a_edge12_Node000009_Node000003"><a xlink:title=" ">
<path fill="none" stroke="#63b8ff" d="M159.66,-274.53C157.02,-275.93 154.45,-277.42 152,-279 117.26,-301.34 85.87,-339.03 69.96,-359.92"/>
<polygon fill="#63b8ff" stroke="#63b8ff" points="161.4,-277.58 168.88,-270.08 158.35,-271.28 161.4,-277.58"/>
</a>
</g>
</g>
<!-- Node10&#45;&gt;Node3 -->
<g id="edge14_Node000010_Node000003" class="edge">
<title>Node10&#45;&gt;Node3</title>
<g id="a_edge14_Node000010_Node000003"><a xlink:title=" ">
<path fill="none" stroke="#63b8ff" d="M157.03,-227.37C155.29,-228.52 153.61,-229.73 152,-231 106.96,-266.64 76.97,-330.39 64.94,-359.61"/>
<polygon fill="#63b8ff" stroke="#63b8ff" points="159.21,-230.15 166.13,-222.13 155.71,-224.09 159.21,-230.15"/>
</a>
</g>
</g>
<!-- Node11&#45;&gt;Node3 -->
<g id="edge16_Node000011_Node000003" class="edge">
<title>Node11&#45;&gt;Node3</title>
<g id="a_edge16_Node000011_Node000003"><a xlink:title=" ">
<path fill="none" stroke="#63b8ff" d="M156.09,-179.66C154.67,-180.72 153.31,-181.83 152,-183 96.14,-233.05 70.46,-324.06 62.17,-359.91"/>
<polygon fill="#63b8ff" stroke="#63b8ff" points="158.15,-182.49 164.68,-174.15 154.37,-176.6 158.15,-182.49"/>
</a>
</g>
</g>
<!-- Node12&#45;&gt;Node3 -->
<g id="edge18_Node000012_Node000003" class="edge">
<title>Node12&#45;&gt;Node3</title>
<g id="a_edge18_Node000012_Node000003"><a xlink:title=" ">
<path fill="none" stroke="#63b8ff" d="M155.49,-131.89C154.28,-132.88 153.11,-133.92 152,-135 85.2,-199.95 65.52,-318.3 60.52,-359.99"/>
<polygon fill="#63b8ff" stroke="#63b8ff" points="157.78,-134.56 164.05,-126.02 153.82,-128.79 157.78,-134.56"/>
</a>
</g>
</g>
<!-- Node13&#45;&gt;Node3 -->
<g id="edge20_Node000013_Node000003" class="edge">
<title>Node13&#45;&gt;Node3</title>
<g id="a_edge20_Node000013_Node000003"><a xlink:title=" ">
<path fill="none" stroke="#63b8ff" d="M154.89,-84.25C153.89,-85.13 152.93,-86.05 152,-87 74.21,-167.1 61.49,-312.66 59.41,-359.82"/>
<polygon fill="#63b8ff" stroke="#63b8ff" points="157.17,-86.92 163.18,-78.19 153.04,-81.27 157.17,-86.92"/>
</a>
</g>
</g>
<!-- Node14&#45;&gt;Node3 -->
<g id="edge22_Node000014_Node000003" class="edge">
<title>Node14&#45;&gt;Node3</title>
<g id="a_edge22_Node000014_Node000003"><a xlink:title=" ">
<path fill="none" stroke="#63b8ff" d="M154.84,-36.2C153.85,-37.09 152.91,-38.03 152,-39 62.92,-134.69 57.96,-308.11 58.58,-359.96"/>
<polygon fill="#63b8ff" stroke="#63b8ff" points="157.13,-38.85 163.03,-30.04 152.93,-33.25 157.13,-38.85"/>
</a>
</g>
</g>
<!-- Node15&#45;&gt;Node3 -->
<g id="edge24_Node000015_Node000003" class="edge">
<title>Node15&#45;&gt;Node3</title>
<g id="a_edge24_Node000015_Node000003"><a xlink:title=" ">
<path fill="none" stroke="#63b8ff" d="M156.13,-608.26C154.69,-607.25 153.31,-606.16 152,-605 85.02,-545.83 65.52,-431.47 60.54,-390.27"/>
<polygon fill="#63b8ff" stroke="#63b8ff" points="154.46,-611.34 164.86,-613.36 157.99,-605.3 154.46,-611.34"/>
</a>
</g>
</g>
<!-- Node16&#45;&gt;Node3 -->
<g id="edge26_Node000016_Node000003" class="edge">
<title>Node16&#45;&gt;Node3</title>
<g id="a_edge26_Node000016_Node000003"><a xlink:title=" ">
<path fill="none" stroke="#63b8ff" d="M158.52,-571.68C156.23,-570.27 154.04,-568.71 152,-567 94.35,-518.73 69.65,-426.28 61.9,-390.07"/>
<polygon fill="#63b8ff" stroke="#63b8ff" points="157.3,-574.99 167.79,-576.48 160.52,-568.78 157.3,-574.99"/>
</a>
</g>
</g>
<!-- Node17&#45;&gt;Node3 -->
<g id="edge28_Node000017_Node000003" class="edge">
<title>Node17&#45;&gt;Node3</title>
<g id="a_edge28_Node000017_Node000003"><a xlink:title=" ">
<path fill="none" stroke="#63b8ff" d="M157.03,-522.63C155.29,-521.48 153.61,-520.27 152,-519 106.96,-483.36 76.97,-419.61 64.94,-390.39"/>
<polygon fill="#63b8ff" stroke="#63b8ff" points="155.71,-525.91 166.13,-527.87 159.21,-519.85 155.71,-525.91"/>
</a>
</g>
</g>
<!-- Node18&#45;&gt;Node3 -->
<g id="edge30_Node000018_Node000003" class="edge">
<title>Node18&#45;&gt;Node3</title>
<g id="a_edge30_Node000018_Node000003"><a xlink:title=" ">
<path fill="none" stroke="#63b8ff" d="M159.66,-475.47C157.02,-474.07 154.45,-472.58 152,-471 117.26,-448.66 85.87,-410.97 69.96,-390.08"/>
<polygon fill="#63b8ff" stroke="#63b8ff" points="158.35,-478.72 168.88,-479.92 161.4,-472.42 158.35,-478.72"/>
</a>
</g>
</g>
<!-- Node19&#45;&gt;Node3 -->
<g id="edge32_Node000019_Node000003" class="edge">
<title>Node19&#45;&gt;Node3</title>
<g id="a_edge32_Node000019_Node000003"><a xlink:title=" ">
<path fill="none" stroke="#63b8ff" d="M164.88,-428.3C160.5,-426.58 156.16,-424.8 152,-423 129.16,-413.1 104.13,-400.05 85.8,-390.06"/>
<polygon fill="#63b8ff" stroke="#63b8ff" points="163.92,-431.67 174.51,-431.96 166.41,-425.13 163.92,-431.67"/>
</a>
</g>
</g>
<!-- Node20&#45;&gt;Node3 -->
<g id="edge34_Node000020_Node000003" class="edge">
<title>Node20&#45;&gt;Node3</title>
<g id="a_edge34_Node000020_Node000003"><a xlink:title=" ">
<path fill="none" stroke="#63b8ff" d="M152.44,-388.97C140.37,-387.17 127.88,-385.3 116.12,-383.54"/>
<polygon fill="#63b8ff" stroke="#63b8ff" points="152.05,-392.45 162.46,-390.47 153.09,-385.53 152.05,-392.45"/>
</a>
</g>
</g>
</g>
</svg>
