<?xml version="1.0" encoding="UTF-8" standalone="no"?>
<!DOCTYPE svg PUBLIC "-//W3C//DTD SVG 1.1//EN"
 "http://www.w3.org/Graphics/SVG/1.1/DTD/svg11.dtd">
<!-- Generated by graphviz version 2.43.0 (0)
 -->
<!-- Title: emulation::sign_extend Pages: 1 -->
<svg width="464pt" height="753pt"
 viewBox="0.00 0.00 464.00 753.00" xmlns="http://www.w3.org/2000/svg" xmlns:xlink="http://www.w3.org/1999/xlink">
<g id="graph0" class="graph" transform="scale(1 1) rotate(0) translate(4 749)">
<title>emulation::sign_extend</title>
<polygon fill="white" stroke="transparent" points="-4,4 -4,-749 460,-749 460,4 -4,4"/>
<!-- Node1 -->
<g id="node1" class="node">
<title>Node1</title>
<g id="a_node1"><a xlink:title=" ">
<polygon fill="#bfbfbf" stroke="black" points="325,-373 325,-392 456,-392 456,-373 325,-373"/>
<text text-anchor="middle" x="390.5" y="-380" font-family="Helvetica,sans-Serif" font-size="10.00">emulation::sign_extend</text>
</a>
</g>
</g>
<!-- Node2 -->
<g id="node2" class="node">
<title>Node2</title>
<g id="a_node2"><a xlink:href="structemulation_1_1emulator.html#a6f512f9a45e36c98c7248f3f0004123a" target="_top" xlink:title="Add Immediate.">
<polygon fill="white" stroke="black" points="162.5,-714.5 162.5,-744.5 278.5,-744.5 278.5,-714.5 162.5,-714.5"/>
<text text-anchor="start" x="170.5" y="-732.5" font-family="Helvetica,sans-Serif" font-size="10.00">emulation::emulator</text>
<text text-anchor="middle" x="220.5" y="-721.5" font-family="Helvetica,sans-Serif" font-size="10.00">::addi_</text>
</a>
</g>
</g>
<!-- Node1&#45;&gt;Node2 -->
<g id="edge1" class="edge">
<title>Node1&#45;&gt;Node2</title>
<path fill="none" stroke="midnightblue" d="M389.17,-402.49C387.17,-458.24 373.9,-617.14 289,-705.5 285.73,-708.91 281.94,-711.83 277.86,-714.34"/>
<polygon fill="midnightblue" stroke="midnightblue" points="392.68,-402.31 389.45,-392.22 385.68,-402.12 392.68,-402.31"/>
</g>
<!-- Node5 -->
<g id="node5" class="node">
<title>Node5</title>
<g id="a_node5"><a xlink:href="structemulation_1_1emulator.html#a09c4f3ae7b420c579e499c1225efb5b8" target="_top" xlink:title="AND Immediate.">
<polygon fill="white" stroke="black" points="162.5,-665.5 162.5,-695.5 278.5,-695.5 278.5,-665.5 162.5,-665.5"/>
<text text-anchor="start" x="170.5" y="-683.5" font-family="Helvetica,sans-Serif" font-size="10.00">emulation::emulator</text>
<text text-anchor="middle" x="220.5" y="-672.5" font-family="Helvetica,sans-Serif" font-size="10.00">::andi_</text>
</a>
</g>
</g>
<!-- Node1&#45;&gt;Node5 -->
<g id="edge4" class="edge">
<title>Node1&#45;&gt;Node5</title>
<path fill="none" stroke="midnightblue" d="M387.8,-402.28C382.5,-451.79 361.98,-582.37 289,-655.5 285.12,-659.39 280.57,-662.68 275.71,-665.47"/>
<polygon fill="midnightblue" stroke="midnightblue" points="391.29,-402.54 388.78,-392.25 384.32,-401.86 391.29,-402.54"/>
</g>
<!-- Node7 -->
<g id="node7" class="node">
<title>Node7</title>
<g id="a_node7"><a xlink:href="structemulation_1_1emulator.html#a4764c8f8a813222723736010fe06c6f8" target="_top" xlink:title="Branch EQual.">
<polygon fill="white" stroke="black" points="162.5,-343.5 162.5,-373.5 278.5,-373.5 278.5,-343.5 162.5,-343.5"/>
<text text-anchor="start" x="170.5" y="-361.5" font-family="Helvetica,sans-Serif" font-size="10.00">emulation::emulator</text>
<text text-anchor="middle" x="220.5" y="-350.5" font-family="Helvetica,sans-Serif" font-size="10.00">::beq_</text>
</a>
</g>
</g>
<!-- Node1&#45;&gt;Node7 -->
<g id="edge7" class="edge">
<title>Node1&#45;&gt;Node7</title>
<path fill="none" stroke="midnightblue" d="M314.51,-371.79C302.46,-370.07 290.16,-368.31 278.62,-366.66"/>
<polygon fill="midnightblue" stroke="midnightblue" points="314.15,-375.27 324.55,-373.22 315.14,-368.34 314.15,-375.27"/>
</g>
<!-- Node8 -->
<g id="node8" class="node">
<title>Node8</title>
<g id="a_node8"><a xlink:href="structemulation_1_1emulator.html#aa8436f1782c600c2602784550783dd1d" target="_top" xlink:title="Branch Greater than or Equal.">
<polygon fill="white" stroke="black" points="162.5,-294.5 162.5,-324.5 278.5,-324.5 278.5,-294.5 162.5,-294.5"/>
<text text-anchor="start" x="170.5" y="-312.5" font-family="Helvetica,sans-Serif" font-size="10.00">emulation::emulator</text>
<text text-anchor="middle" x="220.5" y="-301.5" font-family="Helvetica,sans-Serif" font-size="10.00">::bge_</text>
</a>
</g>
</g>
<!-- Node1&#45;&gt;Node8 -->
<g id="edge9" class="edge">
<title>Node1&#45;&gt;Node8</title>
<path fill="none" stroke="midnightblue" d="M362.13,-368.12C342.13,-357.87 314.22,-344.09 289,-333.5 281.66,-330.42 273.77,-327.38 266.07,-324.55"/>
<polygon fill="midnightblue" stroke="midnightblue" points="360.77,-371.36 371.26,-372.84 363.98,-365.14 360.77,-371.36"/>
</g>
<!-- Node9 -->
<g id="node9" class="node">
<title>Node9</title>
<g id="a_node9"><a xlink:href="structemulation_1_1emulator.html#a9aba50a40e49223010db0ab4379859e3" target="_top" xlink:title="Branch Greater than or Equal Unsigned.">
<polygon fill="white" stroke="black" points="162.5,-245.5 162.5,-275.5 278.5,-275.5 278.5,-245.5 162.5,-245.5"/>
<text text-anchor="start" x="170.5" y="-263.5" font-family="Helvetica,sans-Serif" font-size="10.00">emulation::emulator</text>
<text text-anchor="middle" x="220.5" y="-252.5" font-family="Helvetica,sans-Serif" font-size="10.00">::bgeu_</text>
</a>
</g>
</g>
<!-- Node1&#45;&gt;Node9 -->
<g id="edge11" class="edge">
<title>Node1&#45;&gt;Node9</title>
<path fill="none" stroke="midnightblue" d="M375.44,-364.7C357.48,-343.02 324.45,-306.59 289,-284.5 283.62,-281.15 277.7,-278.18 271.67,-275.57"/>
<polygon fill="midnightblue" stroke="midnightblue" points="372.95,-367.18 381.97,-372.74 378.38,-362.77 372.95,-367.18"/>
</g>
<!-- Node10 -->
<g id="node10" class="node">
<title>Node10</title>
<g id="a_node10"><a xlink:href="structemulation_1_1emulator.html#aff0ad86baa02712f534562bb703e66dc" target="_top" xlink:title="Branch Less Than.">
<polygon fill="white" stroke="black" points="162.5,-196.5 162.5,-226.5 278.5,-226.5 278.5,-196.5 162.5,-196.5"/>
<text text-anchor="start" x="170.5" y="-214.5" font-family="Helvetica,sans-Serif" font-size="10.00">emulation::emulator</text>
<text text-anchor="middle" x="220.5" y="-203.5" font-family="Helvetica,sans-Serif" font-size="10.00">::blt_</text>
</a>
</g>
</g>
<!-- Node1&#45;&gt;Node10 -->
<g id="edge13" class="edge">
<title>Node1&#45;&gt;Node10</title>
<path fill="none" stroke="midnightblue" d="M381.28,-363.4C366.96,-332.27 334.55,-270.59 289,-235.5 284.57,-232.08 279.61,-229.13 274.44,-226.58"/>
<polygon fill="midnightblue" stroke="midnightblue" points="378.16,-365 385.44,-372.7 384.55,-362.14 378.16,-365"/>
</g>
<!-- Node11 -->
<g id="node11" class="node">
<title>Node11</title>
<g id="a_node11"><a xlink:href="structemulation_1_1emulator.html#abc914f48206b4623f88d1c9b11ba8cde" target="_top" xlink:title="Branch Less Than Unsigned.">
<polygon fill="white" stroke="black" points="162.5,-147.5 162.5,-177.5 278.5,-177.5 278.5,-147.5 162.5,-147.5"/>
<text text-anchor="start" x="170.5" y="-165.5" font-family="Helvetica,sans-Serif" font-size="10.00">emulation::emulator</text>
<text text-anchor="middle" x="220.5" y="-154.5" font-family="Helvetica,sans-Serif" font-size="10.00">::bltu_</text>
</a>
</g>
</g>
<!-- Node1&#45;&gt;Node11 -->
<g id="edge15" class="edge">
<title>Node1&#45;&gt;Node11</title>
<path fill="none" stroke="midnightblue" d="M384.69,-362.9C374.1,-323.81 345.15,-235.68 289,-186.5 285.07,-183.06 280.61,-180.1 275.91,-177.56"/>
<polygon fill="midnightblue" stroke="midnightblue" points="381.34,-363.96 387.24,-372.76 388.12,-362.2 381.34,-363.96"/>
</g>
<!-- Node12 -->
<g id="node12" class="node">
<title>Node12</title>
<g id="a_node12"><a xlink:href="structemulation_1_1emulator.html#aea1938f1f04e4fd1c6ce359da8ec0f13" target="_top" xlink:title="Branch Not Equal.">
<polygon fill="white" stroke="black" points="162.5,-98.5 162.5,-128.5 278.5,-128.5 278.5,-98.5 162.5,-98.5"/>
<text text-anchor="start" x="170.5" y="-116.5" font-family="Helvetica,sans-Serif" font-size="10.00">emulation::emulator</text>
<text text-anchor="middle" x="220.5" y="-105.5" font-family="Helvetica,sans-Serif" font-size="10.00">::bne_</text>
</a>
</g>
</g>
<!-- Node1&#45;&gt;Node12 -->
<g id="edge17" class="edge">
<title>Node1&#45;&gt;Node12</title>
<path fill="none" stroke="midnightblue" d="M386.93,-362.88C379.9,-316.95 356.18,-201.55 289,-137.5 285.4,-134.07 281.28,-131.12 276.88,-128.59"/>
<polygon fill="midnightblue" stroke="midnightblue" points="383.5,-363.58 388.38,-372.98 390.43,-362.59 383.5,-363.58"/>
</g>
<!-- Node13 -->
<g id="node13" class="node">
<title>Node13</title>
<g id="a_node13"><a xlink:href="structemulation_1_1emulator.html#a6d495ced29be5a5f0f9eb07b8044cbb9" target="_top" xlink:title="Jump And Link.">
<polygon fill="white" stroke="black" points="162.5,-49.5 162.5,-79.5 278.5,-79.5 278.5,-49.5 162.5,-49.5"/>
<text text-anchor="start" x="170.5" y="-67.5" font-family="Helvetica,sans-Serif" font-size="10.00">emulation::emulator</text>
<text text-anchor="middle" x="220.5" y="-56.5" font-family="Helvetica,sans-Serif" font-size="10.00">::jal_</text>
</a>
</g>
</g>
<!-- Node1&#45;&gt;Node13 -->
<g id="edge19" class="edge">
<title>Node1&#45;&gt;Node13</title>
<path fill="none" stroke="midnightblue" d="M388.45,-362.58C384.65,-310.29 367.24,-167.7 289,-88.5 285.59,-85.05 281.65,-82.09 277.43,-79.56"/>
<polygon fill="midnightblue" stroke="midnightblue" points="384.98,-363.07 389.11,-372.83 391.96,-362.63 384.98,-363.07"/>
</g>
<!-- Node14 -->
<g id="node14" class="node">
<title>Node14</title>
<g id="a_node14"><a xlink:href="structemulation_1_1emulator.html#a12cf345cf8f194678758f198e4af586d" target="_top" xlink:title="Jump And Link Register.">
<polygon fill="white" stroke="black" points="162.5,-0.5 162.5,-30.5 278.5,-30.5 278.5,-0.5 162.5,-0.5"/>
<text text-anchor="start" x="170.5" y="-18.5" font-family="Helvetica,sans-Serif" font-size="10.00">emulation::emulator</text>
<text text-anchor="middle" x="220.5" y="-7.5" font-family="Helvetica,sans-Serif" font-size="10.00">::jalr_</text>
</a>
</g>
</g>
<!-- Node1&#45;&gt;Node14 -->
<g id="edge21" class="edge">
<title>Node1&#45;&gt;Node14</title>
<path fill="none" stroke="midnightblue" d="M389.6,-362.46C388.79,-304.4 378.51,-134.23 289,-39.5 285.75,-36.06 281.98,-33.12 277.92,-30.6"/>
<polygon fill="midnightblue" stroke="midnightblue" points="386.1,-362.82 389.66,-372.8 393.1,-362.78 386.1,-362.82"/>
</g>
<!-- Node15 -->
<g id="node15" class="node">
<title>Node15</title>
<g id="a_node15"><a xlink:href="structemulation_1_1emulator.html#a742e0adc156e9bec9363000cc96329e1" target="_top" xlink:title="Load Byte.">
<polygon fill="white" stroke="black" points="152,-627 152,-646 289,-646 289,-627 152,-627"/>
<text text-anchor="middle" x="220.5" y="-634" font-family="Helvetica,sans-Serif" font-size="10.00">emulation::emulator::lb_</text>
</a>
</g>
</g>
<!-- Node1&#45;&gt;Node15 -->
<g id="edge23" class="edge">
<title>Node1&#45;&gt;Node15</title>
<path fill="none" stroke="midnightblue" d="M386.85,-402.25C379.75,-447.38 356.01,-558.66 289,-617.5 284.61,-621.36 279.49,-624.43 274.07,-626.89"/>
<polygon fill="midnightblue" stroke="midnightblue" points="390.33,-402.68 388.32,-392.28 383.4,-401.66 390.33,-402.68"/>
</g>
<!-- Node16 -->
<g id="node16" class="node">
<title>Node16</title>
<g id="a_node16"><a xlink:href="structemulation_1_1emulator.html#a56a38bbe4fcffe68c28f743e2b6a528b" target="_top" xlink:title="Load Halfword.">
<polygon fill="white" stroke="black" points="152,-589 152,-608 289,-608 289,-589 152,-589"/>
<text text-anchor="middle" x="220.5" y="-596" font-family="Helvetica,sans-Serif" font-size="10.00">emulation::emulator::lh_</text>
</a>
</g>
</g>
<!-- Node1&#45;&gt;Node16 -->
<g id="edge25" class="edge">
<title>Node1&#45;&gt;Node16</title>
<path fill="none" stroke="midnightblue" d="M385.13,-401.97C375.22,-441.56 347.23,-531.76 289,-579.5 284.29,-583.36 278.85,-586.44 273.14,-588.89"/>
<polygon fill="midnightblue" stroke="midnightblue" points="388.59,-402.55 387.5,-392.01 381.78,-400.93 388.59,-402.55"/>
</g>
<!-- Node17 -->
<g id="node17" class="node">
<title>Node17</title>
<g id="a_node17"><a xlink:href="structemulation_1_1emulator.html#a6bd9d2dd11a7045a5bda8aa36e044df9" target="_top" xlink:title="OR Immediate.">
<polygon fill="white" stroke="black" points="162.5,-539.5 162.5,-569.5 278.5,-569.5 278.5,-539.5 162.5,-539.5"/>
<text text-anchor="start" x="170.5" y="-557.5" font-family="Helvetica,sans-Serif" font-size="10.00">emulation::emulator</text>
<text text-anchor="middle" x="220.5" y="-546.5" font-family="Helvetica,sans-Serif" font-size="10.00">::ori_</text>
</a>
</g>
</g>
<!-- Node1&#45;&gt;Node17 -->
<g id="edge27" class="edge">
<title>Node1&#45;&gt;Node17</title>
<path fill="none" stroke="midnightblue" d="M381.31,-401.73C367.04,-433.07 334.7,-495.18 289,-530.5 284.57,-533.92 279.61,-536.88 274.45,-539.44"/>
<polygon fill="midnightblue" stroke="midnightblue" points="384.61,-402.93 385.45,-392.37 378.21,-400.1 384.61,-402.93"/>
</g>
<!-- Node18 -->
<g id="node18" class="node">
<title>Node18</title>
<g id="a_node18"><a xlink:href="structemulation_1_1emulator.html#a6708f26995650c5023ba2e1f01043da3" target="_top" xlink:title="Set Less Than Immediate.">
<polygon fill="white" stroke="black" points="162.5,-490.5 162.5,-520.5 278.5,-520.5 278.5,-490.5 162.5,-490.5"/>
<text text-anchor="start" x="170.5" y="-508.5" font-family="Helvetica,sans-Serif" font-size="10.00">emulation::emulator</text>
<text text-anchor="middle" x="220.5" y="-497.5" font-family="Helvetica,sans-Serif" font-size="10.00">::slti_</text>
</a>
</g>
</g>
<!-- Node1&#45;&gt;Node18 -->
<g id="edge29" class="edge">
<title>Node1&#45;&gt;Node18</title>
<path fill="none" stroke="midnightblue" d="M375.75,-400.16C357.9,-422.02 324.75,-459.1 289,-481.5 283.62,-484.87 277.71,-487.85 271.69,-490.46"/>
<polygon fill="midnightblue" stroke="midnightblue" points="378.71,-402.06 382.23,-392.07 373.25,-397.68 378.71,-402.06"/>
</g>
<!-- Node19 -->
<g id="node19" class="node">
<title>Node19</title>
<g id="a_node19"><a xlink:href="structemulation_1_1emulator.html#ae7cb842573a7163c8453c332bb5212a4" target="_top" xlink:title="Set Less Than Immediate Unsigned.">
<polygon fill="white" stroke="black" points="162.5,-441.5 162.5,-471.5 278.5,-471.5 278.5,-441.5 162.5,-441.5"/>
<text text-anchor="start" x="170.5" y="-459.5" font-family="Helvetica,sans-Serif" font-size="10.00">emulation::emulator</text>
<text text-anchor="middle" x="220.5" y="-448.5" font-family="Helvetica,sans-Serif" font-size="10.00">::sltiu_</text>
</a>
</g>
</g>
<!-- Node1&#45;&gt;Node19 -->
<g id="edge31" class="edge">
<title>Node1&#45;&gt;Node19</title>
<path fill="none" stroke="midnightblue" d="M362.09,-396.78C342.07,-406.98 314.15,-420.74 289,-431.5 281.07,-434.89 272.51,-438.27 264.24,-441.4"/>
<polygon fill="midnightblue" stroke="midnightblue" points="363.93,-399.77 371.23,-392.09 360.74,-393.54 363.93,-399.77"/>
</g>
<!-- Node20 -->
<g id="node20" class="node">
<title>Node20</title>
<g id="a_node20"><a xlink:href="structemulation_1_1emulator.html#acff5e850933d78ceb45d425cb6491a4b" target="_top" xlink:title="eXclusive OR Immediate.">
<polygon fill="white" stroke="black" points="162.5,-392.5 162.5,-422.5 278.5,-422.5 278.5,-392.5 162.5,-392.5"/>
<text text-anchor="start" x="170.5" y="-410.5" font-family="Helvetica,sans-Serif" font-size="10.00">emulation::emulator</text>
<text text-anchor="middle" x="220.5" y="-399.5" font-family="Helvetica,sans-Serif" font-size="10.00">::xori_</text>
</a>
</g>
</g>
<!-- Node1&#45;&gt;Node20 -->
<g id="edge33" class="edge">
<title>Node1&#45;&gt;Node20</title>
<path fill="none" stroke="midnightblue" d="M315.29,-393.54C303.02,-395.37 290.48,-397.24 278.71,-398.99"/>
<polygon fill="midnightblue" stroke="midnightblue" points="316.13,-396.96 325.51,-392.02 315.1,-390.03 316.13,-396.96"/>
</g>
<!-- Node3 -->
<g id="node3" class="node">
<title>Node3</title>
<g id="a_node3"><a xlink:href="structemulation_1_1emulator.html#a2e4d099ca70b1f19761f7918159eaf63" target="_top" xlink:title=" ">
<polygon fill="white" stroke="black" points="0,-368.5 0,-398.5 116,-398.5 116,-368.5 0,-368.5"/>
<text text-anchor="start" x="8" y="-386.5" font-family="Helvetica,sans-Serif" font-size="10.00">emulation::emulator</text>
<text text-anchor="middle" x="58" y="-375.5" font-family="Helvetica,sans-Serif" font-size="10.00">::execute</text>
</a>
</g>
</g>
<!-- Node2&#45;&gt;Node3 -->
<g id="edge2" class="edge">
<title>Node2&#45;&gt;Node3</title>
<path fill="none" stroke="midnightblue" d="M154.85,-708.29C153.86,-707.4 152.91,-706.47 152,-705.5 66.25,-614.41 58.94,-449.2 58.79,-398.62"/>
<polygon fill="midnightblue" stroke="midnightblue" points="152.96,-711.24 163.07,-714.42 157.14,-705.63 152.96,-711.24"/>
</g>
<!-- Node4 -->
<g id="node4" class="node">
<title>Node4</title>
<g id="a_node4"><a xlink:href="test__emulator__addi_8cpp.html#ae66f6b31b5ad750f1fe042a706a4e3d4" target="_top" xlink:title=" ">
<polygon fill="white" stroke="black" points="37.5,-720 37.5,-739 78.5,-739 78.5,-720 37.5,-720"/>
<text text-anchor="middle" x="58" y="-727" font-family="Helvetica,sans-Serif" font-size="10.00">main</text>
</a>
</g>
</g>
<!-- Node2&#45;&gt;Node4 -->
<g id="edge3" class="edge">
<title>Node2&#45;&gt;Node4</title>
<path fill="none" stroke="midnightblue" d="M152.39,-729.5C125.8,-729.5 97.24,-729.5 78.8,-729.5"/>
<polygon fill="midnightblue" stroke="midnightblue" points="152.46,-733 162.46,-729.5 152.46,-726 152.46,-733"/>
</g>
<!-- Node5&#45;&gt;Node3 -->
<g id="edge5" class="edge">
<title>Node5&#45;&gt;Node3</title>
<path fill="none" stroke="midnightblue" d="M156.48,-659.59C154.9,-658.3 153.41,-656.94 152,-655.5 78.49,-580.11 62.98,-444.21 59.8,-398.77"/>
<polygon fill="midnightblue" stroke="midnightblue" points="154.64,-662.57 164.86,-665.37 158.62,-656.81 154.64,-662.57"/>
</g>
<!-- Node6 -->
<g id="node6" class="node">
<title>Node6</title>
<g id="a_node6"><a xlink:href="test__emulator__andi_8cpp.html#ae66f6b31b5ad750f1fe042a706a4e3d4" target="_top" xlink:title=" ">
<polygon fill="white" stroke="black" points="37.5,-671 37.5,-690 78.5,-690 78.5,-671 37.5,-671"/>
<text text-anchor="middle" x="58" y="-678" font-family="Helvetica,sans-Serif" font-size="10.00">main</text>
</a>
</g>
</g>
<!-- Node5&#45;&gt;Node6 -->
<g id="edge6" class="edge">
<title>Node5&#45;&gt;Node6</title>
<path fill="none" stroke="midnightblue" d="M152.39,-680.5C125.8,-680.5 97.24,-680.5 78.8,-680.5"/>
<polygon fill="midnightblue" stroke="midnightblue" points="152.46,-684 162.46,-680.5 152.46,-677 152.46,-684"/>
</g>
<!-- Node7&#45;&gt;Node3 -->
<g id="edge8" class="edge">
<title>Node7&#45;&gt;Node3</title>
<path fill="none" stroke="midnightblue" d="M152.44,-368.95C140.37,-370.83 127.88,-372.77 116.12,-374.6"/>
<polygon fill="midnightblue" stroke="midnightblue" points="153.12,-372.38 162.46,-367.38 152.04,-365.47 153.12,-372.38"/>
</g>
<!-- Node8&#45;&gt;Node3 -->
<g id="edge10" class="edge">
<title>Node8&#45;&gt;Node3</title>
<path fill="none" stroke="midnightblue" d="M164.64,-328.21C160.33,-329.92 156.08,-331.69 152,-333.5 128.54,-343.91 102.93,-357.88 84.53,-368.41"/>
<polygon fill="midnightblue" stroke="midnightblue" points="166.03,-331.43 174.1,-324.57 163.51,-324.89 166.03,-331.43"/>
</g>
<!-- Node9&#45;&gt;Node3 -->
<g id="edge12" class="edge">
<title>Node9&#45;&gt;Node3</title>
<path fill="none" stroke="midnightblue" d="M159.48,-280.07C156.9,-281.46 154.39,-282.94 152,-284.5 116.67,-307.6 85.28,-346.8 69.59,-368.29"/>
<polygon fill="midnightblue" stroke="midnightblue" points="161.04,-283.2 168.48,-275.66 157.96,-276.92 161.04,-283.2"/>
</g>
<!-- Node10&#45;&gt;Node3 -->
<g id="edge14" class="edge">
<title>Node10&#45;&gt;Node3</title>
<path fill="none" stroke="midnightblue" d="M157.01,-231.84C155.28,-233 153.6,-234.22 152,-235.5 106.06,-272.32 76.34,-338.33 64.64,-368.14"/>
<polygon fill="midnightblue" stroke="midnightblue" points="159.19,-234.62 166.08,-226.57 155.68,-228.57 159.19,-234.62"/>
</g>
<!-- Node11&#45;&gt;Node3 -->
<g id="edge16" class="edge">
<title>Node11&#45;&gt;Node3</title>
<path fill="none" stroke="midnightblue" d="M156.07,-183.14C154.66,-184.2 153.3,-185.32 152,-186.5 95.08,-238.02 69.95,-331.71 61.99,-368.29"/>
<polygon fill="midnightblue" stroke="midnightblue" points="158.14,-185.97 164.64,-177.61 154.34,-180.09 158.14,-185.97"/>
</g>
<!-- Node12&#45;&gt;Node3 -->
<g id="edge18" class="edge">
<title>Node12&#45;&gt;Node3</title>
<path fill="none" stroke="midnightblue" d="M155.39,-134.45C154.21,-135.42 153.08,-136.44 152,-137.5 83.86,-204.3 64.99,-325.99 60.36,-368.42"/>
<polygon fill="midnightblue" stroke="midnightblue" points="157.48,-137.26 163.69,-128.68 153.48,-131.52 157.48,-137.26"/>
</g>
<!-- Node13&#45;&gt;Node3 -->
<g id="edge20" class="edge">
<title>Node13&#45;&gt;Node3</title>
<path fill="none" stroke="midnightblue" d="M154.89,-85.74C153.89,-86.62 152.92,-87.54 152,-88.5 72.6,-170.83 60.94,-320.38 59.27,-368.3"/>
<polygon fill="midnightblue" stroke="midnightblue" points="157.17,-88.41 163.16,-79.67 153.03,-82.77 157.17,-88.41"/>
</g>
<!-- Node14&#45;&gt;Node3 -->
<g id="edge22" class="edge">
<title>Node14&#45;&gt;Node3</title>
<path fill="none" stroke="midnightblue" d="M154.83,-36.69C153.85,-37.59 152.9,-38.52 152,-39.5 61.03,-137.81 57.41,-315.87 58.46,-368.48"/>
<polygon fill="midnightblue" stroke="midnightblue" points="157.13,-39.34 163,-30.52 152.91,-33.75 157.13,-39.34"/>
</g>
<!-- Node15&#45;&gt;Node3 -->
<g id="edge24" class="edge">
<title>Node15&#45;&gt;Node3</title>
<path fill="none" stroke="midnightblue" d="M157.51,-621.8C155.57,-620.49 153.73,-619.06 152,-617.5 84.45,-556.63 65.27,-440.2 60.46,-398.67"/>
<polygon fill="midnightblue" stroke="midnightblue" points="156.06,-625 166.49,-626.85 159.49,-618.9 156.06,-625"/>
</g>
<!-- Node16&#45;&gt;Node3 -->
<g id="edge26" class="edge">
<title>Node16&#45;&gt;Node3</title>
<path fill="none" stroke="midnightblue" d="M158.36,-584.12C156.13,-582.72 153.99,-581.18 152,-579.5 93.43,-530.06 69.21,-435.37 61.74,-398.61"/>
<polygon fill="midnightblue" stroke="midnightblue" points="156.93,-587.32 167.41,-588.87 160.19,-581.12 156.93,-587.32"/>
</g>
<!-- Node17&#45;&gt;Node3 -->
<g id="edge28" class="edge">
<title>Node17&#45;&gt;Node3</title>
<path fill="none" stroke="midnightblue" d="M157.01,-534.15C155.28,-533 153.6,-531.78 152,-530.5 106.23,-493.93 76.42,-428.37 64.67,-398.75"/>
<polygon fill="midnightblue" stroke="midnightblue" points="155.69,-537.42 166.09,-539.41 159.2,-531.37 155.69,-537.42"/>
</g>
<!-- Node18&#45;&gt;Node3 -->
<g id="edge30" class="edge">
<title>Node18&#45;&gt;Node3</title>
<path fill="none" stroke="midnightblue" d="M159.64,-486C157.01,-484.59 154.44,-483.09 152,-481.5 116.8,-458.61 85.36,-419.82 69.63,-398.55"/>
<polygon fill="midnightblue" stroke="midnightblue" points="158.32,-489.25 168.85,-490.47 161.38,-482.95 158.32,-489.25"/>
</g>
<!-- Node19&#45;&gt;Node3 -->
<g id="edge32" class="edge">
<title>Node19&#45;&gt;Node3</title>
<path fill="none" stroke="midnightblue" d="M166.72,-437.66C161.71,-435.66 156.74,-433.59 152,-431.5 129.39,-421.52 104.56,-408.6 86.24,-398.68"/>
<polygon fill="midnightblue" stroke="midnightblue" points="165.75,-441.04 176.34,-441.41 168.29,-434.51 165.75,-441.04"/>
</g>
<!-- Node20&#45;&gt;Node3 -->
<g id="edge34" class="edge">
<title>Node20&#45;&gt;Node3</title>
<path fill="none" stroke="midnightblue" d="M152.44,-397.47C140.37,-395.67 127.88,-393.8 116.12,-392.04"/>
<polygon fill="midnightblue" stroke="midnightblue" points="152.05,-400.95 162.46,-398.97 153.09,-394.03 152.05,-400.95"/>
</g>
</g>
</svg>
