<?xml version="1.0" encoding="UTF-8" standalone="no"?>
<!DOCTYPE svg PUBLIC "-//W3C//DTD SVG 1.1//EN"
 "http://www.w3.org/Graphics/SVG/1.1/DTD/svg11.dtd">
<!-- Generated by graphviz version 2.43.0 (0)
 -->
<!-- Title: src/RoL/parse.hpp Pages: 1 -->
<svg width="482pt" height="84pt"
 viewBox="0.00 0.00 482.00 84.00" xmlns="http://www.w3.org/2000/svg" xmlns:xlink="http://www.w3.org/1999/xlink">
<g id="graph0" class="graph" transform="scale(1 1) rotate(0) translate(4 80)">
<title>src/RoL/parse.hpp</title>
<polygon fill="white" stroke="transparent" points="-4,4 -4,-80 478,-80 478,4 -4,4"/>
<!-- Node1 -->
<g id="node1" class="node">
<title>Node1</title>
<g id="a_node1"><a xlink:title=" ">
<polygon fill="#bfbfbf" stroke="black" points="165,-56.5 165,-75.5 268,-75.5 268,-56.5 165,-56.5"/>
<text text-anchor="middle" x="216.5" y="-63.5" font-family="Helvetica,sans-Serif" font-size="10.00">src/RoL/parse.hpp</text>
</a>
</g>
</g>
<!-- Node2 -->
<g id="node2" class="node">
<title>Node2</title>
<g id="a_node2"><a xlink:title=" ">
<polygon fill="white" stroke="#bfbfbf" points="0,-0.5 0,-19.5 49,-19.5 49,-0.5 0,-0.5"/>
<text text-anchor="middle" x="24.5" y="-7.5" font-family="Helvetica,sans-Serif" font-size="10.00">cctype</text>
</a>
</g>
</g>
<!-- Node1&#45;&gt;Node2 -->
<g id="edge1" class="edge">
<title>Node1&#45;&gt;Node2</title>
<path fill="none" stroke="midnightblue" d="M186.08,-56.44C151.48,-46.71 95.1,-30.86 58.92,-20.68"/>
<polygon fill="midnightblue" stroke="midnightblue" points="59.86,-17.31 49.29,-17.97 57.96,-24.05 59.86,-17.31"/>
</g>
<!-- Node3 -->
<g id="node3" class="node">
<title>Node3</title>
<g id="a_node3"><a xlink:title=" ">
<polygon fill="white" stroke="#bfbfbf" points="67,-0.5 67,-19.5 120,-19.5 120,-0.5 67,-0.5"/>
<text text-anchor="middle" x="93.5" y="-7.5" font-family="Helvetica,sans-Serif" font-size="10.00">cstddef</text>
</a>
</g>
</g>
<!-- Node1&#45;&gt;Node3 -->
<g id="edge2" class="edge">
<title>Node1&#45;&gt;Node3</title>
<path fill="none" stroke="midnightblue" d="M197.01,-56.44C176.86,-47.6 145.18,-33.69 122.17,-23.59"/>
<polygon fill="midnightblue" stroke="midnightblue" points="123.46,-20.33 112.9,-19.52 120.65,-26.74 123.46,-20.33"/>
</g>
<!-- Node4 -->
<g id="node4" class="node">
<title>Node4</title>
<g id="a_node4"><a xlink:title=" ">
<polygon fill="white" stroke="#bfbfbf" points="138.5,-0.5 138.5,-19.5 176.5,-19.5 176.5,-0.5 138.5,-0.5"/>
<text text-anchor="middle" x="157.5" y="-7.5" font-family="Helvetica,sans-Serif" font-size="10.00">map</text>
</a>
</g>
</g>
<!-- Node1&#45;&gt;Node4 -->
<g id="edge3" class="edge">
<title>Node1&#45;&gt;Node4</title>
<path fill="none" stroke="midnightblue" d="M207.02,-56.32C198.3,-48.34 185.16,-36.31 174.6,-26.65"/>
<polygon fill="midnightblue" stroke="midnightblue" points="176.89,-24 167.15,-19.83 172.17,-29.17 176.89,-24"/>
</g>
<!-- Node5 -->
<g id="node5" class="node">
<title>Node5</title>
<g id="a_node5"><a xlink:title=" ">
<polygon fill="white" stroke="#bfbfbf" points="194.5,-0.5 194.5,-19.5 238.5,-19.5 238.5,-0.5 194.5,-0.5"/>
<text text-anchor="middle" x="216.5" y="-7.5" font-family="Helvetica,sans-Serif" font-size="10.00">string</text>
</a>
</g>
</g>
<!-- Node1&#45;&gt;Node5 -->
<g id="edge4" class="edge">
<title>Node1&#45;&gt;Node5</title>
<path fill="none" stroke="midnightblue" d="M216.5,-56.08C216.5,-49.01 216.5,-38.86 216.5,-29.99"/>
<polygon fill="midnightblue" stroke="midnightblue" points="220,-29.75 216.5,-19.75 213,-29.75 220,-29.75"/>
</g>
<!-- Node6 -->
<g id="node6" class="node">
<title>Node6</title>
<g id="a_node6"><a xlink:title=" ">
<polygon fill="white" stroke="#bfbfbf" points="257,-0.5 257,-19.5 298,-19.5 298,-0.5 257,-0.5"/>
<text text-anchor="middle" x="277.5" y="-7.5" font-family="Helvetica,sans-Serif" font-size="10.00">tuple</text>
</a>
</g>
</g>
<!-- Node1&#45;&gt;Node6 -->
<g id="edge5" class="edge">
<title>Node1&#45;&gt;Node6</title>
<path fill="none" stroke="midnightblue" d="M226.3,-56.32C235.32,-48.34 248.91,-36.31 259.82,-26.65"/>
<polygon fill="midnightblue" stroke="midnightblue" points="262.35,-29.08 267.52,-19.83 257.71,-23.84 262.35,-29.08"/>
</g>
<!-- Node7 -->
<g id="node7" class="node">
<title>Node7</title>
<g id="a_node7"><a xlink:title=" ">
<polygon fill="white" stroke="#bfbfbf" points="316,-0.5 316,-19.5 409,-19.5 409,-0.5 316,-0.5"/>
<text text-anchor="middle" x="362.5" y="-7.5" font-family="Helvetica,sans-Serif" font-size="10.00">unordered_map</text>
</a>
</g>
</g>
<!-- Node1&#45;&gt;Node7 -->
<g id="edge6" class="edge">
<title>Node1&#45;&gt;Node7</title>
<path fill="none" stroke="midnightblue" d="M239.63,-56.44C263.98,-47.44 302.51,-33.19 329.92,-23.05"/>
<polygon fill="midnightblue" stroke="midnightblue" points="331.31,-26.27 339.47,-19.52 328.88,-19.7 331.31,-26.27"/>
</g>
<!-- Node8 -->
<g id="node8" class="node">
<title>Node8</title>
<g id="a_node8"><a xlink:title=" ">
<polygon fill="white" stroke="#bfbfbf" points="427,-0.5 427,-19.5 474,-19.5 474,-0.5 427,-0.5"/>
<text text-anchor="middle" x="450.5" y="-7.5" font-family="Helvetica,sans-Serif" font-size="10.00">vector</text>
</a>
</g>
</g>
<!-- Node1&#45;&gt;Node8 -->
<g id="edge7" class="edge">
<title>Node1&#45;&gt;Node8</title>
<path fill="none" stroke="midnightblue" d="M258.05,-56.44C296.84,-48.3 356.56,-35.36 416.72,-20.35"/>
<polygon fill="midnightblue" stroke="midnightblue" points="417.93,-23.66 426.77,-17.83 416.22,-16.87 417.93,-23.66"/>
</g>
</g>
</svg>
