<?xml version="1.0" encoding="UTF-8" standalone="no"?>
<!DOCTYPE svg PUBLIC "-//W3C//DTD SVG 1.1//EN"
 "http://www.w3.org/Graphics/SVG/1.1/DTD/svg11.dtd">
<!-- Generated by graphviz version 2.43.0 (0)
 -->
<!-- Title: src/RoL/parse.hpp Pages: 1 -->
<!--zoomable 162 -->
<svg id="main" version="1.1" xmlns="http://www.w3.org/2000/svg" xmlns:xlink="http://www.w3.org/1999/xlink" xml:space="preserve" onload="init(evt)">
<style type="text/css"><![CDATA[
.edge:hover path { stroke: red; }
.edge:hover polygon { stroke: red; fill: red; }
]]></style>
<script type="text/javascript"><![CDATA[
var edges = document.getElementsByTagName('g');
if (edges && edges.length) {
  for (var i=0;i<edges.length;i++) {
    if (edges[i].id.substr(0,4)=='edge') {
      edges[i].setAttribute('class','edge');
    }
  }
}
]]></script>
        <defs>
                <circle id="rim" cx="0" cy="0" r="7"/>
                <circle id="rim2" cx="0" cy="0" r="3.5"/>
                <g id="zoomPlus">
                        <use xlink:href="#rim" fill="#404040">
                                <set attributeName="fill" to="#808080" begin="zoomplus.mouseover" end="zoomplus.mouseout"/>
                        </use>
                        <path d="M-4,0h8M0,-4v8" fill="none" stroke="white" stroke-width="1.5" pointer-events="none"/>
                </g>
                <g id="zoomMin">
                        <use xlink:href="#rim" fill="#404040">
                                <set attributeName="fill" to="#808080" begin="zoomminus.mouseover" end="zoomminus.mouseout"/>
                        </use>
                        <path d="M-4,0h8" fill="none" stroke="white" stroke-width="1.5" pointer-events="none"/>
                </g>
                <g id="dirArrow">
                        <path fill="none" stroke="white" stroke-width="1.5" d="M0,-3.0v7 M-2.5,-0.5L0,-3.0L2.5,-0.5"/>
                </g>
               <g id="resetDef">
                       <use xlink:href="#rim2" fill="#404040">
                               <set attributeName="fill" to="#808080" begin="reset.mouseover" end="reset.mouseout"/>
                       </use>
               </g>
        </defs>

<script type="text/javascript">
var viewWidth = 1226;
var viewHeight = 162;
var sectionId = 'dynsection-1';
</script>
<script xlink:href="svgpan.js"/>
<svg id="graph" class="graph">
<g id="viewport">
<title>src/RoL/parse.hpp</title>
<polygon fill="white" stroke="transparent" points="-4,4 -4,-158 1222,-158 1222,4 -4,4"/>
<!-- Node1 -->
<g id="node1" class="node">
<title>Node1</title>
<g id="a_node1"><a xlink:title=" ">
<polygon fill="#bfbfbf" stroke="black" points="502,-134.5 502,-153.5 605,-153.5 605,-134.5 502,-134.5"/>
<text text-anchor="middle" x="553.5" y="-141.5" font-family="Helvetica,sans-Serif" font-size="10.00">src/RoL/parse.hpp</text>
</a>
</g>
</g>
<!-- Node2 -->
<g id="node2" class="node">
<title>Node2</title>
<g id="a_node2"><a xlink:href="emulator_8cpp.html" target="_top" xlink:title=" ">
<polygon fill="white" stroke="black" points="0,-6 0,-25 171,-25 171,-6 0,-6"/>
<text text-anchor="middle" x="85.5" y="-13" font-family="Helvetica,sans-Serif" font-size="10.00">src/RoL/emulation/emulator.cpp</text>
</a>
</g>
</g>
<!-- Node1&#45;&gt;Node2 -->
<g id="edge1" class="edge">
<title>Node1&#45;&gt;Node2</title>
<path fill="none" stroke="midnightblue" d="M511.87,-131.75C419.5,-106.78 199.13,-47.21 117.04,-25.02"/>
<polygon fill="midnightblue" stroke="midnightblue" points="511.13,-135.17 521.7,-134.4 512.96,-128.42 511.13,-135.17"/>
</g>
<!-- Node3 -->
<g id="node3" class="node">
<title>Node3</title>
<g id="a_node3"><a xlink:href="emulator_8hpp.html" target="_top" xlink:title=" ">
<polygon fill="white" stroke="black" points="467.5,-73 467.5,-92 639.5,-92 639.5,-73 467.5,-73"/>
<text text-anchor="middle" x="553.5" y="-80" font-family="Helvetica,sans-Serif" font-size="10.00">src/RoL/emulation/emulator.hpp</text>
</a>
</g>
</g>
<!-- Node1&#45;&gt;Node3 -->
<g id="edge2" class="edge">
<title>Node1&#45;&gt;Node3</title>
<path fill="none" stroke="midnightblue" d="M553.5,-124.32C553.5,-113.5 553.5,-100.4 553.5,-92.01"/>
<polygon fill="midnightblue" stroke="midnightblue" points="550,-124.48 553.5,-134.48 557,-124.48 550,-124.48"/>
</g>
<!-- Node12 -->
<g id="node12" class="node">
<title>Node12</title>
<g id="a_node12"><a xlink:href="test__s__to__opc_8cpp.html" target="_top" xlink:title=" ">
<polygon fill="white" stroke="black" points="657.5,-67.5 657.5,-97.5 757.5,-97.5 757.5,-67.5 657.5,-67.5"/>
<text text-anchor="start" x="665.5" y="-85.5" font-family="Helvetica,sans-Serif" font-size="10.00">src/test/test_s_to</text>
<text text-anchor="middle" x="707.5" y="-74.5" font-family="Helvetica,sans-Serif" font-size="10.00">_opc.cpp</text>
</a>
</g>
</g>
<!-- Node1&#45;&gt;Node12 -->
<g id="edge12" class="edge">
<title>Node1&#45;&gt;Node12</title>
<path fill="none" stroke="midnightblue" d="M584.95,-130.85C609.97,-121.18 645,-107.65 671.21,-97.52"/>
<polygon fill="midnightblue" stroke="midnightblue" points="583.63,-127.61 575.56,-134.48 586.15,-134.14 583.63,-127.61"/>
</g>
<!-- Node3&#45;&gt;Node2 -->
<g id="edge3" class="edge">
<title>Node3&#45;&gt;Node2</title>
<path fill="none" stroke="midnightblue" d="M477.2,-71.63C401.58,-61.74 282.46,-45.89 179.5,-31 166.59,-29.13 152.7,-27.04 139.65,-25.03"/>
<polygon fill="midnightblue" stroke="midnightblue" points="477.21,-75.16 487.58,-72.98 478.11,-68.21 477.21,-75.16"/>
</g>
<!-- Node4 -->
<g id="node4" class="node">
<title>Node4</title>
<g id="a_node4"><a xlink:href="riscv__online_8cpp.html" target="_top" xlink:title=" ">
<polygon fill="white" stroke="black" points="189,-6 189,-25 302,-25 302,-6 189,-6"/>
<text text-anchor="middle" x="245.5" y="-13" font-family="Helvetica,sans-Serif" font-size="10.00">src/riscv_online.cpp</text>
</a>
</g>
</g>
<!-- Node3&#45;&gt;Node4 -->
<g id="edge4" class="edge">
<title>Node3&#45;&gt;Node4</title>
<path fill="none" stroke="midnightblue" d="M501.89,-70.9C452.88,-60.78 377.13,-45.06 311.5,-31 302.55,-29.08 292.93,-26.99 283.87,-25"/>
<polygon fill="midnightblue" stroke="midnightblue" points="501.43,-74.37 511.93,-72.96 502.85,-67.52 501.43,-74.37"/>
</g>
<!-- Node5 -->
<g id="node5" class="node">
<title>Node5</title>
<g id="a_node5"><a xlink:href="test__emulator__add_8cpp.html" target="_top" xlink:title=" ">
<polygon fill="white" stroke="black" points="320.5,-0.5 320.5,-30.5 444.5,-30.5 444.5,-0.5 320.5,-0.5"/>
<text text-anchor="start" x="328.5" y="-18.5" font-family="Helvetica,sans-Serif" font-size="10.00">src/test/test_emulator</text>
<text text-anchor="middle" x="382.5" y="-7.5" font-family="Helvetica,sans-Serif" font-size="10.00">_add.cpp</text>
</a>
</g>
</g>
<!-- Node3&#45;&gt;Node5 -->
<g id="edge5" class="edge">
<title>Node3&#45;&gt;Node5</title>
<path fill="none" stroke="midnightblue" d="M521.15,-69.2C492.17,-58.19 449.7,-42.04 419.4,-30.53"/>
<polygon fill="midnightblue" stroke="midnightblue" points="520.2,-72.59 530.79,-72.87 522.69,-66.04 520.2,-72.59"/>
</g>
<!-- Node6 -->
<g id="node6" class="node">
<title>Node6</title>
<g id="a_node6"><a xlink:href="ssi_8cpp.html" target="_top" xlink:title=" ">
<polygon fill="white" stroke="black" points="462.5,-6 462.5,-25 530.5,-25 530.5,-6 462.5,-6"/>
<text text-anchor="middle" x="496.5" y="-13" font-family="Helvetica,sans-Serif" font-size="10.00">src/ssi.cpp</text>
</a>
</g>
</g>
<!-- Node3&#45;&gt;Node6 -->
<g id="edge6" class="edge">
<title>Node3&#45;&gt;Node6</title>
<path fill="none" stroke="midnightblue" d="M539.15,-65.13C528,-52.42 512.98,-35.3 504.07,-25.13"/>
<polygon fill="midnightblue" stroke="midnightblue" points="536.59,-67.52 545.81,-72.73 541.85,-62.91 536.59,-67.52"/>
</g>
<!-- Node7 -->
<g id="node7" class="node">
<title>Node7</title>
<g id="a_node7"><a xlink:href="test__emulator__and_8cpp.html" target="_top" xlink:title=" ">
<polygon fill="white" stroke="black" points="548.5,-0.5 548.5,-30.5 672.5,-30.5 672.5,-0.5 548.5,-0.5"/>
<text text-anchor="start" x="556.5" y="-18.5" font-family="Helvetica,sans-Serif" font-size="10.00">src/test/test_emulator</text>
<text text-anchor="middle" x="610.5" y="-7.5" font-family="Helvetica,sans-Serif" font-size="10.00">_and.cpp</text>
</a>
</g>
</g>
<!-- Node3&#45;&gt;Node7 -->
<g id="edge7" class="edge">
<title>Node3&#45;&gt;Node7</title>
<path fill="none" stroke="midnightblue" d="M567.98,-64.99C577.3,-54.36 589.28,-40.7 598.15,-30.59"/>
<polygon fill="midnightblue" stroke="midnightblue" points="565.15,-62.91 561.19,-72.73 570.41,-67.52 565.15,-62.91"/>
</g>
<!-- Node8 -->
<g id="node8" class="node">
<title>Node8</title>
<g id="a_node8"><a xlink:href="test__emulator__addi_8cpp.html" target="_top" xlink:title=" ">
<polygon fill="white" stroke="black" points="690.5,-0.5 690.5,-30.5 814.5,-30.5 814.5,-0.5 690.5,-0.5"/>
<text text-anchor="start" x="698.5" y="-18.5" font-family="Helvetica,sans-Serif" font-size="10.00">src/test/test_emulator</text>
<text text-anchor="middle" x="752.5" y="-7.5" font-family="Helvetica,sans-Serif" font-size="10.00">_addi.cpp</text>
</a>
</g>
</g>
<!-- Node3&#45;&gt;Node8 -->
<g id="edge8" class="edge">
<title>Node3&#45;&gt;Node8</title>
<path fill="none" stroke="midnightblue" d="M589.83,-69.63C623.57,-58.61 673.84,-42.19 709.55,-30.53"/>
<polygon fill="midnightblue" stroke="midnightblue" points="588.34,-66.44 579.93,-72.87 590.52,-73.09 588.34,-66.44"/>
</g>
<!-- Node9 -->
<g id="node9" class="node">
<title>Node9</title>
<g id="a_node9"><a xlink:href="test__emulator__andi_8cpp.html" target="_top" xlink:title=" ">
<polygon fill="white" stroke="black" points="832.5,-0.5 832.5,-30.5 956.5,-30.5 956.5,-0.5 832.5,-0.5"/>
<text text-anchor="start" x="840.5" y="-18.5" font-family="Helvetica,sans-Serif" font-size="10.00">src/test/test_emulator</text>
<text text-anchor="middle" x="894.5" y="-7.5" font-family="Helvetica,sans-Serif" font-size="10.00">_andi.cpp</text>
</a>
</g>
</g>
<!-- Node3&#45;&gt;Node9 -->
<g id="edge9" class="edge">
<title>Node3&#45;&gt;Node9</title>
<path fill="none" stroke="midnightblue" d="M610.22,-71.17C664.89,-61.15 749.92,-45.39 823.5,-31 826.34,-30.44 829.24,-29.87 832.17,-29.29"/>
<polygon fill="midnightblue" stroke="midnightblue" points="609.58,-67.73 600.37,-72.98 610.84,-74.62 609.58,-67.73"/>
</g>
<!-- Node10 -->
<g id="node10" class="node">
<title>Node10</title>
<g id="a_node10"><a xlink:href="test__emulator__auipc_8cpp.html" target="_top" xlink:title=" ">
<polygon fill="white" stroke="black" points="974.5,-0.5 974.5,-30.5 1098.5,-30.5 1098.5,-0.5 974.5,-0.5"/>
<text text-anchor="start" x="982.5" y="-18.5" font-family="Helvetica,sans-Serif" font-size="10.00">src/test/test_emulator</text>
<text text-anchor="middle" x="1036.5" y="-7.5" font-family="Helvetica,sans-Serif" font-size="10.00">_auipc.cpp</text>
</a>
</g>
</g>
<!-- Node3&#45;&gt;Node10 -->
<g id="edge10" class="edge">
<title>Node3&#45;&gt;Node10</title>
<path fill="none" stroke="midnightblue" d="M617.13,-71.44C627.6,-69.89 638.35,-68.35 648.5,-67 789.06,-48.3 825.46,-53.21 965.5,-31 968.36,-30.55 971.28,-30.06 974.22,-29.54"/>
<polygon fill="midnightblue" stroke="midnightblue" points="616.58,-67.99 607.21,-72.93 617.62,-74.91 616.58,-67.99"/>
</g>
<!-- Node11 -->
<g id="node11" class="node">
<title>Node11</title>
<g id="a_node11"><a xlink:href="test__xlen__32bit_8cpp.html" target="_top" xlink:title=" ">
<polygon fill="white" stroke="black" points="1117,-0.5 1117,-30.5 1218,-30.5 1218,-0.5 1117,-0.5"/>
<text text-anchor="start" x="1125" y="-18.5" font-family="Helvetica,sans-Serif" font-size="10.00">src/test/test_xlen</text>
<text text-anchor="middle" x="1167.5" y="-7.5" font-family="Helvetica,sans-Serif" font-size="10.00">_32bit.cpp</text>
</a>
</g>
</g>
<!-- Node3&#45;&gt;Node11 -->
<g id="edge11" class="edge">
<title>Node3&#45;&gt;Node11</title>
<path fill="none" stroke="midnightblue" d="M614.82,-71.47C626,-69.83 637.59,-68.26 648.5,-67 851.78,-43.55 905.41,-63.14 1107.5,-31 1110.57,-30.51 1113.71,-29.95 1116.88,-29.33"/>
<polygon fill="midnightblue" stroke="midnightblue" points="614.05,-68.04 604.68,-72.99 615.09,-74.97 614.05,-68.04"/>
</g>
</g>
</svg>
        <g id="navigator" transform="translate(0 0)" fill="#404254">
                <rect fill="#f2f5e9" fill-opacity="0.5" stroke="#606060" stroke-width=".5" x="0" y="0" width="60" height="60"/>
                <use id="zoomplus" xlink:href="#zoomPlus" x="17" y="9" onmousedown="handleZoom(evt,'in')"/>
                <use id="zoomminus" xlink:href="#zoomMin" x="42" y="9" onmousedown="handleZoom(evt,'out')"/>
                <use id="reset" xlink:href="#resetDef" x="30" y="36" onmousedown="handleReset()"/>
                <g id="arrowUp" xlink:href="#dirArrow" transform="translate(30 24)" onmousedown="handlePan(0,-1)">
                  <use xlink:href="#rim" fill="#404040">
                        <set attributeName="fill" to="#808080" begin="arrowUp.mouseover" end="arrowUp.mouseout"/>
                  </use>
                  <path fill="none" stroke="white" stroke-width="1.5" d="M0,-3.0v7 M-2.5,-0.5L0,-3.0L2.5,-0.5"/>
                </g>
                <g id="arrowRight" xlink:href="#dirArrow" transform="rotate(90) translate(36 -43)" onmousedown="handlePan(1,0)">
                  <use xlink:href="#rim" fill="#404040">
                        <set attributeName="fill" to="#808080" begin="arrowRight.mouseover" end="arrowRight.mouseout"/>
                  </use>
                  <path fill="none" stroke="white" stroke-width="1.5" d="M0,-3.0v7 M-2.5,-0.5L0,-3.0L2.5,-0.5"/>
                </g>
                <g id="arrowDown" xlink:href="#dirArrow" transform="rotate(180) translate(-30 -48)" onmousedown="handlePan(0,1)">
                  <use xlink:href="#rim" fill="#404040">
                        <set attributeName="fill" to="#808080" begin="arrowDown.mouseover" end="arrowDown.mouseout"/>
                  </use>
                  <path fill="none" stroke="white" stroke-width="1.5" d="M0,-3.0v7 M-2.5,-0.5L0,-3.0L2.5,-0.5"/>
                </g>
                <g id="arrowLeft" xlink:href="#dirArrow" transform="rotate(270) translate(-36 17)" onmousedown="handlePan(-1,0)">
                  <use xlink:href="#rim" fill="#404040">
                        <set attributeName="fill" to="#808080" begin="arrowLeft.mouseover" end="arrowLeft.mouseout"/>
                  </use>
                  <path fill="none" stroke="white" stroke-width="1.5" d="M0,-3.0v7 M-2.5,-0.5L0,-3.0L2.5,-0.5"/>
                </g>
        </g>
        <svg viewBox="0 0 15 15" width="100%" height="30px" preserveAspectRatio="xMaxYMin meet">
         <g id="arrow_out" transform="scale(0.3 0.3)">
          <a xlink:href="parse_8hpp__dep__incl_org.svg" target="_base">
           <rect id="button" ry="5" rx="5" y="6" x="6" height="38" width="38"
                fill="#f2f5e9" fill-opacity="0.5" stroke="#606060" stroke-width="1.0"/>
           <path id="arrow"
             d="M 11.500037,31.436501 C 11.940474,20.09759 22.043105,11.32322 32.158766,21.979434 L 37.068811,17.246167 C 37.068811,17.246167 37.088388,32 37.088388,32 L 22.160133,31.978069 C 22.160133,31.978069 26.997745,27.140456 26.997745,27.140456 C 18.528582,18.264221 13.291696,25.230495 11.500037,31.436501 z"
             style="fill:#404040;"/>
          </a>
         </g>
        </svg>
</svg>
