<?xml version="1.0" encoding="UTF-8" standalone="no"?>
<!DOCTYPE svg PUBLIC "-//W3C//DTD SVG 1.1//EN"
 "http://www.w3.org/Graphics/SVG/1.1/DTD/svg11.dtd">
<!-- Generated by graphviz version 2.43.0 (0)
 -->
<!-- Title: src/RoL/parse.hpp Pages: 1 -->
<svg width="1318pt" height="162pt"
 viewBox="0.00 0.00 1318.00 162.00" xmlns="http://www.w3.org/2000/svg" xmlns:xlink="http://www.w3.org/1999/xlink">
<g id="graph0" class="graph" transform="scale(1 1) rotate(0) translate(4 158)">
<title>src/RoL/parse.hpp</title>
<polygon fill="white" stroke="transparent" points="-4,4 -4,-158 1314,-158 1314,4 -4,4"/>
<!-- Node1 -->
<g id="node1" class="node">
<title>Node1</title>
<g id="a_node1"><a xlink:title=" ">
<polygon fill="#bfbfbf" stroke="black" points="548,-134.5 548,-153.5 651,-153.5 651,-134.5 548,-134.5"/>
<text text-anchor="middle" x="599.5" y="-141.5" font-family="Helvetica,sans-Serif" font-size="10.00">src/RoL/parse.hpp</text>
</a>
</g>
</g>
<!-- Node2 -->
<g id="node2" class="node">
<title>Node2</title>
<g id="a_node2"><a xlink:href="emulator_8hpp.html" target="_top" xlink:title=" ">
<polygon fill="white" stroke="black" points="513.5,-73 513.5,-92 685.5,-92 685.5,-73 513.5,-73"/>
<text text-anchor="middle" x="599.5" y="-80" font-family="Helvetica,sans-Serif" font-size="10.00">src/RoL/emulation/emulator.hpp</text>
</a>
</g>
</g>
<!-- Node1&#45;&gt;Node2 -->
<g id="edge1" class="edge">
<title>Node1&#45;&gt;Node2</title>
<path fill="none" stroke="midnightblue" d="M599.5,-124.32C599.5,-113.5 599.5,-100.4 599.5,-92.01"/>
<polygon fill="midnightblue" stroke="midnightblue" points="596,-124.48 599.5,-134.48 603,-124.48 596,-124.48"/>
</g>
<!-- Node3 -->
<g id="node3" class="node">
<title>Node3</title>
<g id="a_node3"><a xlink:href="emulator_8cpp.html" target="_top" xlink:title=" ">
<polygon fill="white" stroke="black" points="0,-6 0,-25 171,-25 171,-6 0,-6"/>
<text text-anchor="middle" x="85.5" y="-13" font-family="Helvetica,sans-Serif" font-size="10.00">src/RoL/emulation/emulator.cpp</text>
</a>
</g>
</g>
<!-- Node1&#45;&gt;Node3 -->
<g id="edge12" class="edge">
<title>Node1&#45;&gt;Node3</title>
<path fill="none" stroke="midnightblue" d="M554.7,-131.97C453.8,-107.14 210.57,-47.28 120.13,-25.02"/>
<polygon fill="midnightblue" stroke="midnightblue" points="554.03,-135.41 564.57,-134.4 555.7,-128.62 554.03,-135.41"/>
</g>
<!-- Node13 -->
<g id="node13" class="node">
<title>Node13</title>
<g id="a_node13"><a xlink:href="test__s__to__opc_8cpp.html" target="_top" xlink:title=" ">
<polygon fill="white" stroke="black" points="703.5,-67.5 703.5,-97.5 803.5,-97.5 803.5,-67.5 703.5,-67.5"/>
<text text-anchor="start" x="711.5" y="-85.5" font-family="Helvetica,sans-Serif" font-size="10.00">src/test/test_s_to</text>
<text text-anchor="middle" x="753.5" y="-74.5" font-family="Helvetica,sans-Serif" font-size="10.00">_opc.cpp</text>
</a>
</g>
</g>
<!-- Node1&#45;&gt;Node13 -->
<g id="edge13" class="edge">
<title>Node1&#45;&gt;Node13</title>
<path fill="none" stroke="midnightblue" d="M630.95,-130.85C655.97,-121.18 691,-107.65 717.21,-97.52"/>
<polygon fill="midnightblue" stroke="midnightblue" points="629.63,-127.61 621.56,-134.48 632.15,-134.14 629.63,-127.61"/>
</g>
<!-- Node2&#45;&gt;Node3 -->
<g id="edge2" class="edge">
<title>Node2&#45;&gt;Node3</title>
<path fill="none" stroke="midnightblue" d="M512.46,-71.82C427.65,-62.19 295.08,-46.65 180.5,-31 167.11,-29.17 152.68,-27.05 139.22,-25"/>
<polygon fill="midnightblue" stroke="midnightblue" points="512.24,-75.32 522.57,-72.96 513.02,-68.36 512.24,-75.32"/>
</g>
<!-- Node4 -->
<g id="node4" class="node">
<title>Node4</title>
<g id="a_node4"><a xlink:href="post_8cpp.html" target="_top" xlink:title=" ">
<polygon fill="white" stroke="black" points="189,-6 189,-25 264,-25 264,-6 189,-6"/>
<text text-anchor="middle" x="226.5" y="-13" font-family="Helvetica,sans-Serif" font-size="10.00">src/post.cpp</text>
</a>
</g>
</g>
<!-- Node2&#45;&gt;Node4 -->
<g id="edge3" class="edge">
<title>Node2&#45;&gt;Node4</title>
<path fill="none" stroke="midnightblue" d="M512.57,-71.73C446.27,-63.4 352.98,-49.78 272.5,-31 265.49,-29.36 257.99,-27.19 251.14,-25.02"/>
<polygon fill="midnightblue" stroke="midnightblue" points="512.2,-75.21 522.56,-72.97 513.06,-68.27 512.2,-75.21"/>
</g>
<!-- Node5 -->
<g id="node5" class="node">
<title>Node5</title>
<g id="a_node5"><a xlink:href="test__emulator__add_8cpp.html" target="_top" xlink:title=" ">
<polygon fill="white" stroke="black" points="281.5,-0.5 281.5,-30.5 405.5,-30.5 405.5,-0.5 281.5,-0.5"/>
<text text-anchor="start" x="289.5" y="-18.5" font-family="Helvetica,sans-Serif" font-size="10.00">src/test/test_emulator</text>
<text text-anchor="middle" x="343.5" y="-7.5" font-family="Helvetica,sans-Serif" font-size="10.00">_add.cpp</text>
</a>
</g>
</g>
<!-- Node2&#45;&gt;Node5 -->
<g id="edge4" class="edge">
<title>Node2&#45;&gt;Node5</title>
<path fill="none" stroke="midnightblue" d="M555.82,-70.41C512.47,-59.4 445.9,-42.5 398.87,-30.56"/>
<polygon fill="midnightblue" stroke="midnightblue" points="555.22,-73.87 565.77,-72.94 556.94,-67.08 555.22,-73.87"/>
</g>
<!-- Node6 -->
<g id="node6" class="node">
<title>Node6</title>
<g id="a_node6"><a xlink:href="test__emulator__addi_8cpp.html" target="_top" xlink:title=" ">
<polygon fill="white" stroke="black" points="423.5,-0.5 423.5,-30.5 547.5,-30.5 547.5,-0.5 423.5,-0.5"/>
<text text-anchor="start" x="431.5" y="-18.5" font-family="Helvetica,sans-Serif" font-size="10.00">src/test/test_emulator</text>
<text text-anchor="middle" x="485.5" y="-7.5" font-family="Helvetica,sans-Serif" font-size="10.00">_addi.cpp</text>
</a>
</g>
</g>
<!-- Node2&#45;&gt;Node6 -->
<g id="edge5" class="edge">
<title>Node2&#45;&gt;Node6</title>
<path fill="none" stroke="midnightblue" d="M575.39,-67.75C556.23,-56.83 529.53,-41.6 510.21,-30.59"/>
<polygon fill="midnightblue" stroke="midnightblue" points="573.7,-70.82 584.13,-72.73 577.17,-64.74 573.7,-70.82"/>
</g>
<!-- Node7 -->
<g id="node7" class="node">
<title>Node7</title>
<g id="a_node7"><a xlink:href="ssi_8cpp.html" target="_top" xlink:title=" ">
<polygon fill="white" stroke="black" points="565.5,-6 565.5,-25 633.5,-25 633.5,-6 565.5,-6"/>
<text text-anchor="middle" x="599.5" y="-13" font-family="Helvetica,sans-Serif" font-size="10.00">src/ssi.cpp</text>
</a>
</g>
</g>
<!-- Node2&#45;&gt;Node7 -->
<g id="edge6" class="edge">
<title>Node2&#45;&gt;Node7</title>
<path fill="none" stroke="midnightblue" d="M599.5,-62.54C599.5,-50.17 599.5,-34.62 599.5,-25.13"/>
<polygon fill="midnightblue" stroke="midnightblue" points="596,-62.73 599.5,-72.73 603,-62.73 596,-62.73"/>
</g>
<!-- Node8 -->
<g id="node8" class="node">
<title>Node8</title>
<g id="a_node8"><a xlink:href="test__emulator__and_8cpp.html" target="_top" xlink:title=" ">
<polygon fill="white" stroke="black" points="651.5,-0.5 651.5,-30.5 775.5,-30.5 775.5,-0.5 651.5,-0.5"/>
<text text-anchor="start" x="659.5" y="-18.5" font-family="Helvetica,sans-Serif" font-size="10.00">src/test/test_emulator</text>
<text text-anchor="middle" x="713.5" y="-7.5" font-family="Helvetica,sans-Serif" font-size="10.00">_and.cpp</text>
</a>
</g>
</g>
<!-- Node2&#45;&gt;Node8 -->
<g id="edge7" class="edge">
<title>Node2&#45;&gt;Node8</title>
<path fill="none" stroke="midnightblue" d="M623.61,-67.75C642.77,-56.83 669.47,-41.6 688.79,-30.59"/>
<polygon fill="midnightblue" stroke="midnightblue" points="621.83,-64.74 614.87,-72.73 625.3,-70.82 621.83,-64.74"/>
</g>
<!-- Node9 -->
<g id="node9" class="node">
<title>Node9</title>
<g id="a_node9"><a xlink:href="test__emulator__andi_8cpp.html" target="_top" xlink:title=" ">
<polygon fill="white" stroke="black" points="793.5,-0.5 793.5,-30.5 917.5,-30.5 917.5,-0.5 793.5,-0.5"/>
<text text-anchor="start" x="801.5" y="-18.5" font-family="Helvetica,sans-Serif" font-size="10.00">src/test/test_emulator</text>
<text text-anchor="middle" x="855.5" y="-7.5" font-family="Helvetica,sans-Serif" font-size="10.00">_andi.cpp</text>
</a>
</g>
</g>
<!-- Node2&#45;&gt;Node9 -->
<g id="edge8" class="edge">
<title>Node2&#45;&gt;Node9</title>
<path fill="none" stroke="midnightblue" d="M643.18,-70.41C686.53,-59.4 753.1,-42.5 800.13,-30.56"/>
<polygon fill="midnightblue" stroke="midnightblue" points="642.06,-67.08 633.23,-72.94 643.78,-73.87 642.06,-67.08"/>
</g>
<!-- Node10 -->
<g id="node10" class="node">
<title>Node10</title>
<g id="a_node10"><a xlink:href="test__emulator__auipc_8cpp.html" target="_top" xlink:title=" ">
<polygon fill="white" stroke="black" points="935.5,-0.5 935.5,-30.5 1059.5,-30.5 1059.5,-0.5 935.5,-0.5"/>
<text text-anchor="start" x="943.5" y="-18.5" font-family="Helvetica,sans-Serif" font-size="10.00">src/test/test_emulator</text>
<text text-anchor="middle" x="997.5" y="-7.5" font-family="Helvetica,sans-Serif" font-size="10.00">_auipc.cpp</text>
</a>
</g>
</g>
<!-- Node2&#45;&gt;Node10 -->
<g id="edge9" class="edge">
<title>Node2&#45;&gt;Node10</title>
<path fill="none" stroke="midnightblue" d="M665.11,-71.45C756.86,-57.39 913.76,-33.28 926.5,-31 929.35,-30.49 932.26,-29.95 935.19,-29.4"/>
<polygon fill="midnightblue" stroke="midnightblue" points="664.43,-68.01 655.08,-72.99 665.5,-74.93 664.43,-68.01"/>
</g>
<!-- Node11 -->
<g id="node11" class="node">
<title>Node11</title>
<g id="a_node11"><a xlink:href="test__xlen__32bit_8cpp.html" target="_top" xlink:title=" ">
<polygon fill="white" stroke="black" points="1078,-0.5 1078,-30.5 1179,-30.5 1179,-0.5 1078,-0.5"/>
<text text-anchor="start" x="1086" y="-18.5" font-family="Helvetica,sans-Serif" font-size="10.00">src/test/test_xlen</text>
<text text-anchor="middle" x="1128.5" y="-7.5" font-family="Helvetica,sans-Serif" font-size="10.00">_32bit.cpp</text>
</a>
</g>
</g>
<!-- Node2&#45;&gt;Node11 -->
<g id="edge10" class="edge">
<title>Node2&#45;&gt;Node11</title>
<path fill="none" stroke="midnightblue" d="M662.34,-71.41C673.05,-69.83 684.09,-68.29 694.5,-67 860.21,-46.39 903.82,-58.68 1068.5,-31 1071.56,-30.48 1074.71,-29.9 1077.86,-29.27"/>
<polygon fill="midnightblue" stroke="midnightblue" points="661.56,-67.98 652.19,-72.93 662.6,-74.91 661.56,-67.98"/>
</g>
<!-- Node12 -->
<g id="node12" class="node">
<title>Node12</title>
<g id="a_node12"><a xlink:href="riscv__online_8cpp.html" target="_top" xlink:title=" ">
<polygon fill="white" stroke="black" points="1197,-6 1197,-25 1310,-25 1310,-6 1197,-6"/>
<text text-anchor="middle" x="1253.5" y="-13" font-family="Helvetica,sans-Serif" font-size="10.00">src/riscv_online.cpp</text>
</a>
</g>
</g>
<!-- Node2&#45;&gt;Node12 -->
<g id="edge11" class="edge">
<title>Node2&#45;&gt;Node12</title>
<path fill="none" stroke="midnightblue" d="M660.81,-71.42C672,-69.78 683.58,-68.23 694.5,-67 913.26,-42.37 970.71,-63.05 1188.5,-31 1198.68,-29.5 1209.64,-27.29 1219.6,-25.05"/>
<polygon fill="midnightblue" stroke="midnightblue" points="660.05,-67.99 650.68,-72.93 661.08,-74.92 660.05,-67.99"/>
</g>
</g>
</svg>
