<?xml version="1.0" encoding="UTF-8" standalone="no"?>
<!DOCTYPE svg PUBLIC "-//W3C//DTD SVG 1.1//EN"
 "http://www.w3.org/Graphics/SVG/1.1/DTD/svg11.dtd">
<!-- Generated by graphviz version 2.43.0 (0)
 -->
<!-- Title: src/RoL/parse.hpp Pages: 1 -->
<svg width="1318pt" height="162pt"
 viewBox="0.00 0.00 1318.00 162.00" xmlns="http://www.w3.org/2000/svg" xmlns:xlink="http://www.w3.org/1999/xlink">
<g id="graph0" class="graph" transform="scale(1 1) rotate(0) translate(4 158)">
<title>src/RoL/parse.hpp</title>
<polygon fill="white" stroke="transparent" points="-4,4 -4,-158 1314,-158 1314,4 -4,4"/>
<!-- Node1 -->
<g id="node1" class="node">
<title>Node1</title>
<g id="a_node1"><a xlink:title=" ">
<polygon fill="#bfbfbf" stroke="black" points="565,-134.5 565,-153.5 668,-153.5 668,-134.5 565,-134.5"/>
<text text-anchor="middle" x="616.5" y="-141.5" font-family="Helvetica,sans-Serif" font-size="10.00">src/RoL/parse.hpp</text>
</a>
</g>
</g>
<!-- Node2 -->
<g id="node2" class="node">
<title>Node2</title>
<g id="a_node2"><a xlink:href="emulator_8hpp.html" target="_top" xlink:title=" ">
<polygon fill="white" stroke="black" points="530.5,-73 530.5,-92 702.5,-92 702.5,-73 530.5,-73"/>
<text text-anchor="middle" x="616.5" y="-80" font-family="Helvetica,sans-Serif" font-size="10.00">src/RoL/emulation/emulator.hpp</text>
</a>
</g>
</g>
<!-- Node1&#45;&gt;Node2 -->
<g id="edge1" class="edge">
<title>Node1&#45;&gt;Node2</title>
<path fill="none" stroke="midnightblue" d="M616.5,-124.32C616.5,-113.5 616.5,-100.4 616.5,-92.01"/>
<polygon fill="midnightblue" stroke="midnightblue" points="613,-124.48 616.5,-134.48 620,-124.48 613,-124.48"/>
</g>
<!-- Node4 -->
<g id="node4" class="node">
<title>Node4</title>
<g id="a_node4"><a xlink:href="emulator_8cpp.html" target="_top" xlink:title=" ">
<polygon fill="white" stroke="black" points="0,-6 0,-25 171,-25 171,-6 0,-6"/>
<text text-anchor="middle" x="85.5" y="-13" font-family="Helvetica,sans-Serif" font-size="10.00">src/RoL/emulation/emulator.cpp</text>
</a>
</g>
</g>
<!-- Node1&#45;&gt;Node4 -->
<g id="edge12" class="edge">
<title>Node1&#45;&gt;Node4</title>
<path fill="none" stroke="midnightblue" d="M570.53,-132.05C466.49,-107.26 214.81,-47.3 121.28,-25.02"/>
<polygon fill="midnightblue" stroke="midnightblue" points="569.88,-135.49 580.42,-134.4 571.5,-128.68 569.88,-135.49"/>
</g>
<!-- Node13 -->
<g id="node13" class="node">
<title>Node13</title>
<g id="a_node13"><a xlink:href="test__s__to__opc_8cpp.html" target="_top" xlink:title=" ">
<polygon fill="white" stroke="black" points="720.5,-67.5 720.5,-97.5 820.5,-97.5 820.5,-67.5 720.5,-67.5"/>
<text text-anchor="start" x="728.5" y="-85.5" font-family="Helvetica,sans-Serif" font-size="10.00">src/test/test_s_to</text>
<text text-anchor="middle" x="770.5" y="-74.5" font-family="Helvetica,sans-Serif" font-size="10.00">_opc.cpp</text>
</a>
</g>
</g>
<!-- Node1&#45;&gt;Node13 -->
<g id="edge13" class="edge">
<title>Node1&#45;&gt;Node13</title>
<path fill="none" stroke="midnightblue" d="M647.95,-130.85C672.97,-121.18 708,-107.65 734.21,-97.52"/>
<polygon fill="midnightblue" stroke="midnightblue" points="646.63,-127.61 638.56,-134.48 649.15,-134.14 646.63,-127.61"/>
</g>
<!-- Node3 -->
<g id="node3" class="node">
<title>Node3</title>
<g id="a_node3"><a xlink:href="riscv__online_8cpp.html" target="_top" xlink:title=" ">
<polygon fill="white" stroke="black" points="189,-6 189,-25 302,-25 302,-6 189,-6"/>
<text text-anchor="middle" x="245.5" y="-13" font-family="Helvetica,sans-Serif" font-size="10.00">src/riscv_online.cpp</text>
</a>
</g>
</g>
<!-- Node2&#45;&gt;Node3 -->
<g id="edge2" class="edge">
<title>Node2&#45;&gt;Node3</title>
<path fill="none" stroke="midnightblue" d="M549.54,-71.44C487.62,-61.9 393.13,-46.71 311.5,-31 302.17,-29.2 292.13,-27.09 282.78,-25.05"/>
<polygon fill="midnightblue" stroke="midnightblue" points="549.15,-74.92 559.57,-72.98 550.21,-68 549.15,-74.92"/>
</g>
<!-- Node2&#45;&gt;Node4 -->
<g id="edge3" class="edge">
<title>Node2&#45;&gt;Node4</title>
<path fill="none" stroke="midnightblue" d="M524.62,-71.91C436.11,-62.43 298.48,-47.04 179.5,-31 166.24,-29.21 151.97,-27.1 138.64,-25.06"/>
<polygon fill="midnightblue" stroke="midnightblue" points="524.32,-75.4 534.63,-72.98 525.06,-68.44 524.32,-75.4"/>
</g>
<!-- Node5 -->
<g id="node5" class="node">
<title>Node5</title>
<g id="a_node5"><a xlink:href="post_8cpp.html" target="_top" xlink:title=" ">
<polygon fill="white" stroke="black" points="320,-6 320,-25 395,-25 395,-6 320,-6"/>
<text text-anchor="middle" x="357.5" y="-13" font-family="Helvetica,sans-Serif" font-size="10.00">src/post.cpp</text>
</a>
</g>
</g>
<!-- Node2&#45;&gt;Node5 -->
<g id="edge4" class="edge">
<title>Node2&#45;&gt;Node5</title>
<path fill="none" stroke="midnightblue" d="M566.63,-70.75C523.3,-61.16 458.96,-46.29 403.5,-31 397.04,-29.22 390.13,-27.14 383.67,-25.11"/>
<polygon fill="midnightblue" stroke="midnightblue" points="566.11,-74.22 576.63,-72.95 567.62,-67.39 566.11,-74.22"/>
</g>
<!-- Node6 -->
<g id="node6" class="node">
<title>Node6</title>
<g id="a_node6"><a xlink:href="test__emulator__add_8cpp.html" target="_top" xlink:title=" ">
<polygon fill="white" stroke="black" points="412.5,-0.5 412.5,-30.5 536.5,-30.5 536.5,-0.5 412.5,-0.5"/>
<text text-anchor="start" x="420.5" y="-18.5" font-family="Helvetica,sans-Serif" font-size="10.00">src/test/test_emulator</text>
<text text-anchor="middle" x="474.5" y="-7.5" font-family="Helvetica,sans-Serif" font-size="10.00">_add.cpp</text>
</a>
</g>
</g>
<!-- Node2&#45;&gt;Node6 -->
<g id="edge5" class="edge">
<title>Node2&#45;&gt;Node6</title>
<path fill="none" stroke="midnightblue" d="M588.36,-68.62C564.34,-57.63 529.86,-41.84 505.15,-30.53"/>
<polygon fill="midnightblue" stroke="midnightblue" points="587.09,-71.89 597.64,-72.87 590.01,-65.52 587.09,-71.89"/>
</g>
<!-- Node7 -->
<g id="node7" class="node">
<title>Node7</title>
<g id="a_node7"><a xlink:href="test__emulator__addi_8cpp.html" target="_top" xlink:title=" ">
<polygon fill="white" stroke="black" points="554.5,-0.5 554.5,-30.5 678.5,-30.5 678.5,-0.5 554.5,-0.5"/>
<text text-anchor="start" x="562.5" y="-18.5" font-family="Helvetica,sans-Serif" font-size="10.00">src/test/test_emulator</text>
<text text-anchor="middle" x="616.5" y="-7.5" font-family="Helvetica,sans-Serif" font-size="10.00">_addi.cpp</text>
</a>
</g>
</g>
<!-- Node2&#45;&gt;Node7 -->
<g id="edge6" class="edge">
<title>Node2&#45;&gt;Node7</title>
<path fill="none" stroke="midnightblue" d="M616.5,-62.41C616.5,-52.22 616.5,-39.9 616.5,-30.59"/>
<polygon fill="midnightblue" stroke="midnightblue" points="613,-62.73 616.5,-72.73 620,-62.73 613,-62.73"/>
</g>
<!-- Node8 -->
<g id="node8" class="node">
<title>Node8</title>
<g id="a_node8"><a xlink:href="ssi_8cpp.html" target="_top" xlink:title=" ">
<polygon fill="white" stroke="black" points="696.5,-6 696.5,-25 764.5,-25 764.5,-6 696.5,-6"/>
<text text-anchor="middle" x="730.5" y="-13" font-family="Helvetica,sans-Serif" font-size="10.00">src/ssi.cpp</text>
</a>
</g>
</g>
<!-- Node2&#45;&gt;Node8 -->
<g id="edge7" class="edge">
<title>Node2&#45;&gt;Node8</title>
<path fill="none" stroke="midnightblue" d="M640.85,-67.62C663.44,-54.74 696.34,-35.98 715.37,-25.13"/>
<polygon fill="midnightblue" stroke="midnightblue" points="638.83,-64.74 631.87,-72.73 642.3,-70.82 638.83,-64.74"/>
</g>
<!-- Node9 -->
<g id="node9" class="node">
<title>Node9</title>
<g id="a_node9"><a xlink:href="test__emulator__and_8cpp.html" target="_top" xlink:title=" ">
<polygon fill="white" stroke="black" points="782.5,-0.5 782.5,-30.5 906.5,-30.5 906.5,-0.5 782.5,-0.5"/>
<text text-anchor="start" x="790.5" y="-18.5" font-family="Helvetica,sans-Serif" font-size="10.00">src/test/test_emulator</text>
<text text-anchor="middle" x="844.5" y="-7.5" font-family="Helvetica,sans-Serif" font-size="10.00">_and.cpp</text>
</a>
</g>
</g>
<!-- Node2&#45;&gt;Node9 -->
<g id="edge8" class="edge">
<title>Node2&#45;&gt;Node9</title>
<path fill="none" stroke="midnightblue" d="M656.64,-70.06C695.29,-59.04 753.85,-42.34 795.29,-30.53"/>
<polygon fill="midnightblue" stroke="midnightblue" points="655.43,-66.76 646.78,-72.87 657.35,-73.49 655.43,-66.76"/>
</g>
<!-- Node10 -->
<g id="node10" class="node">
<title>Node10</title>
<g id="a_node10"><a xlink:href="test__emulator__andi_8cpp.html" target="_top" xlink:title=" ">
<polygon fill="white" stroke="black" points="924.5,-0.5 924.5,-30.5 1048.5,-30.5 1048.5,-0.5 924.5,-0.5"/>
<text text-anchor="start" x="932.5" y="-18.5" font-family="Helvetica,sans-Serif" font-size="10.00">src/test/test_emulator</text>
<text text-anchor="middle" x="986.5" y="-7.5" font-family="Helvetica,sans-Serif" font-size="10.00">_andi.cpp</text>
</a>
</g>
</g>
<!-- Node2&#45;&gt;Node10 -->
<g id="edge9" class="edge">
<title>Node2&#45;&gt;Node10</title>
<path fill="none" stroke="midnightblue" d="M680.52,-71.34C741.14,-61.56 834.66,-46.08 915.5,-31 918.34,-30.47 921.25,-29.92 924.19,-29.35"/>
<polygon fill="midnightblue" stroke="midnightblue" points="679.66,-67.93 670.34,-72.97 680.77,-74.84 679.66,-67.93"/>
</g>
<!-- Node11 -->
<g id="node11" class="node">
<title>Node11</title>
<g id="a_node11"><a xlink:href="test__emulator__auipc_8cpp.html" target="_top" xlink:title=" ">
<polygon fill="white" stroke="black" points="1066.5,-0.5 1066.5,-30.5 1190.5,-30.5 1190.5,-0.5 1066.5,-0.5"/>
<text text-anchor="start" x="1074.5" y="-18.5" font-family="Helvetica,sans-Serif" font-size="10.00">src/test/test_emulator</text>
<text text-anchor="middle" x="1128.5" y="-7.5" font-family="Helvetica,sans-Serif" font-size="10.00">_auipc.cpp</text>
</a>
</g>
</g>
<!-- Node2&#45;&gt;Node11 -->
<g id="edge10" class="edge">
<title>Node2&#45;&gt;Node11</title>
<path fill="none" stroke="midnightblue" d="M679.35,-71.47C690.06,-69.89 701.09,-68.34 711.5,-67 864.85,-47.33 904.69,-54.5 1057.5,-31 1060.36,-30.56 1063.28,-30.08 1066.22,-29.58"/>
<polygon fill="midnightblue" stroke="midnightblue" points="678.57,-68.05 669.2,-73 679.61,-74.97 678.57,-68.05"/>
</g>
<!-- Node12 -->
<g id="node12" class="node">
<title>Node12</title>
<g id="a_node12"><a xlink:href="test__xlen__32bit_8cpp.html" target="_top" xlink:title=" ">
<polygon fill="white" stroke="black" points="1209,-0.5 1209,-30.5 1310,-30.5 1310,-0.5 1209,-0.5"/>
<text text-anchor="start" x="1217" y="-18.5" font-family="Helvetica,sans-Serif" font-size="10.00">src/test/test_xlen</text>
<text text-anchor="middle" x="1259.5" y="-7.5" font-family="Helvetica,sans-Serif" font-size="10.00">_32bit.cpp</text>
</a>
</g>
</g>
<!-- Node2&#45;&gt;Node12 -->
<g id="edge11" class="edge">
<title>Node2&#45;&gt;Node12</title>
<path fill="none" stroke="midnightblue" d="M677.81,-71.43C689,-69.79 700.58,-68.23 711.5,-67 927.6,-42.57 984.64,-64.66 1199.5,-31 1202.57,-30.52 1205.72,-29.96 1208.88,-29.35"/>
<polygon fill="midnightblue" stroke="midnightblue" points="677.05,-68 667.68,-72.94 678.09,-74.92 677.05,-68"/>
</g>
</g>
</svg>
