<?xml version="1.0" encoding="UTF-8" standalone="no"?>
<!DOCTYPE svg PUBLIC "-//W3C//DTD SVG 1.1//EN"
 "http://www.w3.org/Graphics/SVG/1.1/DTD/svg11.dtd">
<!-- Generated by graphviz version 2.43.0 (0)
 -->
<!-- Title: src/RoL/parse.hpp Pages: 1 -->
<svg width="845pt" height="84pt"
 viewBox="0.00 0.00 844.50 84.00" xmlns="http://www.w3.org/2000/svg" xmlns:xlink="http://www.w3.org/1999/xlink">
<g id="graph0" class="graph" transform="scale(1 1) rotate(0) translate(4 80)">
<title>src/RoL/parse.hpp</title>
<polygon fill="white" stroke="transparent" points="-4,4 -4,-80 840.5,-80 840.5,4 -4,4"/>
<!-- Node1 -->
<g id="node1" class="node">
<title>Node1</title>
<g id="a_node1"><a xlink:title=" ">
<polygon fill="#bfbfbf" stroke="black" points="345.5,-56.5 345.5,-75.5 448.5,-75.5 448.5,-56.5 345.5,-56.5"/>
<text text-anchor="middle" x="397" y="-63.5" font-family="Helvetica,sans-Serif" font-size="10.00">src/RoL/parse.hpp</text>
</a>
</g>
</g>
<!-- Node2 -->
<g id="node2" class="node">
<title>Node2</title>
<g id="a_node2"><a xlink:title=" ">
<polygon fill="white" stroke="#bfbfbf" points="0,-0.5 0,-19.5 64,-19.5 64,-0.5 0,-0.5"/>
<text text-anchor="middle" x="32" y="-7.5" font-family="Helvetica,sans-Serif" font-size="10.00">algorithm</text>
</a>
</g>
</g>
<!-- Node1&#45;&gt;Node2 -->
<g id="edge1" class="edge">
<title>Node1&#45;&gt;Node2</title>
<path fill="none" stroke="midnightblue" d="M345.46,-59.1C283.44,-51.72 175.94,-38.05 74.31,-20.12"/>
<polygon fill="midnightblue" stroke="midnightblue" points="74.64,-16.62 64.18,-18.31 73.41,-23.51 74.64,-16.62"/>
</g>
<!-- Node3 -->
<g id="node3" class="node">
<title>Node3</title>
<g id="a_node3"><a xlink:title=" ">
<polygon fill="white" stroke="#bfbfbf" points="82.5,-0.5 82.5,-19.5 117.5,-19.5 117.5,-0.5 82.5,-0.5"/>
<text text-anchor="middle" x="100" y="-7.5" font-family="Helvetica,sans-Serif" font-size="10.00">any</text>
</a>
</g>
</g>
<!-- Node1&#45;&gt;Node3 -->
<g id="edge2" class="edge">
<title>Node1&#45;&gt;Node3</title>
<path fill="none" stroke="midnightblue" d="M345.27,-59.05C292.48,-52.39 208.14,-40.13 127.33,-20"/>
<polygon fill="midnightblue" stroke="midnightblue" points="128.05,-16.57 117.5,-17.51 126.33,-23.36 128.05,-16.57"/>
</g>
<!-- Node4 -->
<g id="node4" class="node">
<title>Node4</title>
<g id="a_node4"><a xlink:title=" ">
<polygon fill="white" stroke="#bfbfbf" points="135.5,-0.5 135.5,-19.5 184.5,-19.5 184.5,-0.5 135.5,-0.5"/>
<text text-anchor="middle" x="160" y="-7.5" font-family="Helvetica,sans-Serif" font-size="10.00">cctype</text>
</a>
</g>
</g>
<!-- Node1&#45;&gt;Node4 -->
<g id="edge3" class="edge">
<title>Node1&#45;&gt;Node4</title>
<path fill="none" stroke="midnightblue" d="M355.45,-56.46C316.22,-48.26 255.54,-35.21 194.61,-20.32"/>
<polygon fill="midnightblue" stroke="midnightblue" points="195.38,-16.9 184.83,-17.91 193.71,-23.7 195.38,-16.9"/>
</g>
<!-- Node5 -->
<g id="node5" class="node">
<title>Node5</title>
<g id="a_node5"><a xlink:title=" ">
<polygon fill="white" stroke="#bfbfbf" points="202.5,-0.5 202.5,-19.5 255.5,-19.5 255.5,-0.5 202.5,-0.5"/>
<text text-anchor="middle" x="229" y="-7.5" font-family="Helvetica,sans-Serif" font-size="10.00">cstddef</text>
</a>
</g>
</g>
<!-- Node1&#45;&gt;Node5 -->
<g id="edge4" class="edge">
<title>Node1&#45;&gt;Node5</title>
<path fill="none" stroke="midnightblue" d="M370.38,-56.44C341.99,-47.32 296.86,-32.81 265.25,-22.65"/>
<polygon fill="midnightblue" stroke="midnightblue" points="266.09,-19.24 255.5,-19.52 263.94,-25.91 266.09,-19.24"/>
</g>
<!-- Node6 -->
<g id="node6" class="node">
<title>Node6</title>
<g id="a_node6"><a xlink:title=" ">
<polygon fill="white" stroke="#bfbfbf" points="274,-0.5 274,-19.5 312,-19.5 312,-0.5 274,-0.5"/>
<text text-anchor="middle" x="293" y="-7.5" font-family="Helvetica,sans-Serif" font-size="10.00">map</text>
</a>
</g>
</g>
<!-- Node1&#45;&gt;Node6 -->
<g id="edge5" class="edge">
<title>Node1&#45;&gt;Node6</title>
<path fill="none" stroke="midnightblue" d="M380.29,-56.32C363.69,-47.7 338,-34.36 318.78,-24.39"/>
<polygon fill="midnightblue" stroke="midnightblue" points="320.16,-21.16 309.67,-19.65 316.93,-27.37 320.16,-21.16"/>
</g>
<!-- Node7 -->
<g id="node7" class="node">
<title>Node7</title>
<g id="a_node7"><a xlink:title=" ">
<polygon fill="white" stroke="#bfbfbf" points="330,-0.5 330,-19.5 386,-19.5 386,-0.5 330,-0.5"/>
<text text-anchor="middle" x="358" y="-7.5" font-family="Helvetica,sans-Serif" font-size="10.00">optional</text>
</a>
</g>
</g>
<!-- Node1&#45;&gt;Node7 -->
<g id="edge6" class="edge">
<title>Node1&#45;&gt;Node7</title>
<path fill="none" stroke="midnightblue" d="M390.56,-56.08C385.05,-48.46 376.97,-37.26 370.24,-27.94"/>
<polygon fill="midnightblue" stroke="midnightblue" points="373.01,-25.81 364.32,-19.75 367.34,-29.91 373.01,-25.81"/>
</g>
<!-- Node8 -->
<g id="node8" class="node">
<title>Node8</title>
<g id="a_node8"><a xlink:title=" ">
<polygon fill="white" stroke="#bfbfbf" points="404.5,-0.5 404.5,-19.5 469.5,-19.5 469.5,-0.5 404.5,-0.5"/>
<text text-anchor="middle" x="437" y="-7.5" font-family="Helvetica,sans-Serif" font-size="10.00">stdexcept</text>
</a>
</g>
</g>
<!-- Node1&#45;&gt;Node8 -->
<g id="edge7" class="edge">
<title>Node1&#45;&gt;Node8</title>
<path fill="none" stroke="midnightblue" d="M403.61,-56.08C409.26,-48.46 417.54,-37.26 424.45,-27.94"/>
<polygon fill="midnightblue" stroke="midnightblue" points="427.38,-29.87 430.52,-19.75 421.75,-25.7 427.38,-29.87"/>
</g>
<!-- Node9 -->
<g id="node9" class="node">
<title>Node9</title>
<g id="a_node9"><a xlink:title=" ">
<polygon fill="white" stroke="#bfbfbf" points="488,-0.5 488,-19.5 532,-19.5 532,-0.5 488,-0.5"/>
<text text-anchor="middle" x="510" y="-7.5" font-family="Helvetica,sans-Serif" font-size="10.00">string</text>
</a>
</g>
</g>
<!-- Node1&#45;&gt;Node9 -->
<g id="edge8" class="edge">
<title>Node1&#45;&gt;Node9</title>
<path fill="none" stroke="midnightblue" d="M414.91,-56.44C433.25,-47.68 462.01,-33.94 483.09,-23.86"/>
<polygon fill="midnightblue" stroke="midnightblue" points="484.67,-26.99 492.18,-19.52 481.65,-20.67 484.67,-26.99"/>
</g>
<!-- Node10 -->
<g id="node10" class="node">
<title>Node10</title>
<g id="a_node10"><a xlink:title=" ">
<polygon fill="white" stroke="#bfbfbf" points="550.5,-0.5 550.5,-19.5 591.5,-19.5 591.5,-0.5 550.5,-0.5"/>
<text text-anchor="middle" x="571" y="-7.5" font-family="Helvetica,sans-Serif" font-size="10.00">tuple</text>
</a>
</g>
</g>
<!-- Node1&#45;&gt;Node10 -->
<g id="edge9" class="edge">
<title>Node1&#45;&gt;Node10</title>
<path fill="none" stroke="midnightblue" d="M424.57,-56.44C456.13,-46.65 507.68,-30.65 540.44,-20.48"/>
<polygon fill="midnightblue" stroke="midnightblue" points="541.86,-23.71 550.37,-17.4 539.78,-17.02 541.86,-23.71"/>
</g>
<!-- Node11 -->
<g id="node11" class="node">
<title>Node11</title>
<g id="a_node11"><a xlink:title=" ">
<polygon fill="white" stroke="#bfbfbf" points="609.5,-0.5 609.5,-19.5 702.5,-19.5 702.5,-0.5 609.5,-0.5"/>
<text text-anchor="middle" x="656" y="-7.5" font-family="Helvetica,sans-Serif" font-size="10.00">unordered_map</text>
</a>
</g>
</g>
<!-- Node1&#45;&gt;Node11 -->
<g id="edge10" class="edge">
<title>Node1&#45;&gt;Node11</title>
<path fill="none" stroke="midnightblue" d="M438.04,-56.44C483.32,-47 556.23,-31.8 605.11,-21.61"/>
<polygon fill="midnightblue" stroke="midnightblue" points="606.08,-24.98 615.15,-19.52 604.65,-18.13 606.08,-24.98"/>
</g>
<!-- Node12 -->
<g id="node12" class="node">
<title>Node12</title>
<g id="a_node12"><a xlink:title=" ">
<polygon fill="white" stroke="#bfbfbf" points="720.5,-0.5 720.5,-19.5 771.5,-19.5 771.5,-0.5 720.5,-0.5"/>
<text text-anchor="middle" x="746" y="-7.5" font-family="Helvetica,sans-Serif" font-size="10.00">variant</text>
</a>
</g>
</g>
<!-- Node1&#45;&gt;Node12 -->
<g id="edge11" class="edge">
<title>Node1&#45;&gt;Node12</title>
<path fill="none" stroke="midnightblue" d="M448.6,-59.5C509.18,-52.64 612.8,-39.59 710.42,-20.13"/>
<polygon fill="midnightblue" stroke="midnightblue" points="711.35,-23.52 720.46,-18.1 709.96,-16.65 711.35,-23.52"/>
</g>
<!-- Node13 -->
<g id="node13" class="node">
<title>Node13</title>
<g id="a_node13"><a xlink:title=" ">
<polygon fill="white" stroke="#bfbfbf" points="789.5,-0.5 789.5,-19.5 836.5,-19.5 836.5,-0.5 789.5,-0.5"/>
<text text-anchor="middle" x="813" y="-7.5" font-family="Helvetica,sans-Serif" font-size="10.00">vector</text>
</a>
</g>
</g>
<!-- Node1&#45;&gt;Node13 -->
<g id="edge12" class="edge">
<title>Node1&#45;&gt;Node13</title>
<path fill="none" stroke="midnightblue" d="M448.64,-61.54C520.8,-56.15 655.94,-43.96 779.34,-20.07"/>
<polygon fill="midnightblue" stroke="midnightblue" points="780.2,-23.47 789.33,-18.1 778.85,-16.6 780.2,-23.47"/>
</g>
</g>
</svg>
