<?xml version="1.0" encoding="UTF-8" standalone="no"?>
<!DOCTYPE svg PUBLIC "-//W3C//DTD SVG 1.1//EN"
 "http://www.w3.org/Graphics/SVG/1.1/DTD/svg11.dtd">
<!-- Generated by graphviz version 2.43.0 (0)
 -->
<!-- Title: src/RoL/parse.hpp Pages: 1 -->
<!--zoomable 162 -->
<svg id="main" version="1.1" xmlns="http://www.w3.org/2000/svg" xmlns:xlink="http://www.w3.org/1999/xlink" xml:space="preserve" onload="init(evt)">
<style type="text/css"><![CDATA[
.edge:hover path { stroke: red; }
.edge:hover polygon { stroke: red; fill: red; }
]]></style>
<script type="text/javascript"><![CDATA[
var edges = document.getElementsByTagName('g');
if (edges && edges.length) {
  for (var i=0;i<edges.length;i++) {
    if (edges[i].id.substr(0,4)=='edge') {
      edges[i].setAttribute('class','edge');
    }
  }
}
]]></script>
        <defs>
                <circle id="rim" cx="0" cy="0" r="7"/>
                <circle id="rim2" cx="0" cy="0" r="3.5"/>
                <g id="zoomPlus">
                        <use xlink:href="#rim" fill="#404040">
                                <set attributeName="fill" to="#808080" begin="zoomplus.mouseover" end="zoomplus.mouseout"/>
                        </use>
                        <path d="M-4,0h8M0,-4v8" fill="none" stroke="white" stroke-width="1.5" pointer-events="none"/>
                </g>
                <g id="zoomMin">
                        <use xlink:href="#rim" fill="#404040">
                                <set attributeName="fill" to="#808080" begin="zoomminus.mouseover" end="zoomminus.mouseout"/>
                        </use>
                        <path d="M-4,0h8" fill="none" stroke="white" stroke-width="1.5" pointer-events="none"/>
                </g>
                <g id="dirArrow">
                        <path fill="none" stroke="white" stroke-width="1.5" d="M0,-3.0v7 M-2.5,-0.5L0,-3.0L2.5,-0.5"/>
                </g>
               <g id="resetDef">
                       <use xlink:href="#rim2" fill="#404040">
                               <set attributeName="fill" to="#808080" begin="reset.mouseover" end="reset.mouseout"/>
                       </use>
               </g>
        </defs>

<script type="text/javascript">
var viewWidth = 1320;
var viewHeight = 162;
var sectionId = 'dynsection-1';
</script>
<script xlink:href="svgpan.js"/>
<svg id="graph" class="graph">
<g id="viewport">
<title>src/RoL/parse.hpp</title>
<polygon fill="white" stroke="transparent" points="-4,4 -4,-158 1315.5,-158 1315.5,4 -4,4"/>
<!-- Node1 -->
<g id="node1" class="node">
<title>Node1</title>
<g id="a_node1"><a xlink:title=" ">
<polygon fill="#bfbfbf" stroke="black" points="510,-134.5 510,-153.5 613,-153.5 613,-134.5 510,-134.5"/>
<text text-anchor="middle" x="561.5" y="-141.5" font-family="Helvetica,sans-Serif" font-size="10.00">src/RoL/parse.hpp</text>
</a>
</g>
</g>
<!-- Node2 -->
<g id="node2" class="node">
<title>Node2</title>
<g id="a_node2"><a xlink:href="emulator_8hpp.html" target="_top" xlink:title=" ">
<polygon fill="white" stroke="black" points="475.5,-73 475.5,-92 647.5,-92 647.5,-73 475.5,-73"/>
<text text-anchor="middle" x="561.5" y="-80" font-family="Helvetica,sans-Serif" font-size="10.00">src/RoL/emulation/emulator.hpp</text>
</a>
</g>
</g>
<!-- Node1&#45;&gt;Node2 -->
<g id="edge1" class="edge">
<title>Node1&#45;&gt;Node2</title>
<path fill="none" stroke="midnightblue" d="M561.5,-124.32C561.5,-113.5 561.5,-100.4 561.5,-92.01"/>
<polygon fill="midnightblue" stroke="midnightblue" points="558,-124.48 561.5,-134.48 565,-124.48 558,-124.48"/>
</g>
<!-- Node4 -->
<g id="node4" class="node">
<title>Node4</title>
<g id="a_node4"><a xlink:href="emulator_8cpp.html" target="_top" xlink:title=" ">
<polygon fill="white" stroke="black" points="0,-6 0,-25 171,-25 171,-6 0,-6"/>
<text text-anchor="middle" x="85.5" y="-13" font-family="Helvetica,sans-Serif" font-size="10.00">src/RoL/emulation/emulator.cpp</text>
</a>
</g>
</g>
<!-- Node1&#45;&gt;Node4 -->
<g id="edge12" class="edge">
<title>Node1&#45;&gt;Node4</title>
<path fill="none" stroke="midnightblue" d="M519.44,-131.82C425.67,-106.9 201.16,-47.24 117.57,-25.02"/>
<polygon fill="midnightblue" stroke="midnightblue" points="518.59,-135.22 529.16,-134.4 520.39,-128.45 518.59,-135.22"/>
</g>
<!-- Node13 -->
<g id="node13" class="node">
<title>Node13</title>
<g id="a_node13"><a xlink:href="test__s__to__opc_8cpp.html" target="_top" xlink:title=" ">
<polygon fill="white" stroke="black" points="665.5,-67.5 665.5,-97.5 765.5,-97.5 765.5,-67.5 665.5,-67.5"/>
<text text-anchor="start" x="673.5" y="-85.5" font-family="Helvetica,sans-Serif" font-size="10.00">src/test/test_s_to</text>
<text text-anchor="middle" x="715.5" y="-74.5" font-family="Helvetica,sans-Serif" font-size="10.00">_opc.cpp</text>
</a>
</g>
</g>
<!-- Node1&#45;&gt;Node13 -->
<g id="edge13" class="edge">
<title>Node1&#45;&gt;Node13</title>
<path fill="none" stroke="midnightblue" d="M592.95,-130.85C617.97,-121.18 653,-107.65 679.21,-97.52"/>
<polygon fill="midnightblue" stroke="midnightblue" points="591.63,-127.61 583.56,-134.48 594.15,-134.14 591.63,-127.61"/>
</g>
<!-- Node3 -->
<g id="node3" class="node">
<title>Node3</title>
<g id="a_node3"><a xlink:href="riscv__online_8cpp.html" target="_top" xlink:title=" ">
<polygon fill="white" stroke="black" points="189,-6 189,-25 302,-25 302,-6 189,-6"/>
<text text-anchor="middle" x="245.5" y="-13" font-family="Helvetica,sans-Serif" font-size="10.00">src/riscv_online.cpp</text>
</a>
</g>
</g>
<!-- Node2&#45;&gt;Node3 -->
<g id="edge2" class="edge">
<title>Node2&#45;&gt;Node3</title>
<path fill="none" stroke="midnightblue" d="M508.03,-70.97C457.38,-60.93 379.19,-45.27 311.5,-31 302.55,-29.11 292.92,-27.03 283.87,-25.04"/>
<polygon fill="midnightblue" stroke="midnightblue" points="507.61,-74.46 518.1,-72.96 508.97,-67.59 507.61,-74.46"/>
</g>
<!-- Node2&#45;&gt;Node4 -->
<g id="edge3" class="edge">
<title>Node2&#45;&gt;Node4</title>
<path fill="none" stroke="midnightblue" d="M483.34,-71.67C406.08,-61.83 284.54,-46.04 179.5,-31 166.59,-29.15 152.69,-27.06 139.65,-25.06"/>
<polygon fill="midnightblue" stroke="midnightblue" points="483.11,-75.17 493.47,-72.96 483.99,-68.22 483.11,-75.17"/>
</g>
<!-- Node5 -->
<g id="node5" class="node">
<title>Node5</title>
<g id="a_node5"><a xlink:href="post_8cpp.html" target="_top" xlink:title=" ">
<polygon fill="white" stroke="black" points="320,-6 320,-25 395,-25 395,-6 320,-6"/>
<text text-anchor="middle" x="357.5" y="-13" font-family="Helvetica,sans-Serif" font-size="10.00">src/post.cpp</text>
</a>
</g>
</g>
<!-- Node2&#45;&gt;Node5 -->
<g id="edge4" class="edge">
<title>Node2&#45;&gt;Node5</title>
<path fill="none" stroke="midnightblue" d="M524.67,-69.77C484.25,-56.89 420.34,-36.52 384.38,-25.06"/>
<polygon fill="midnightblue" stroke="midnightblue" points="523.82,-73.17 534.41,-72.87 525.94,-66.5 523.82,-73.17"/>
</g>
<!-- Node6 -->
<g id="node6" class="node">
<title>Node6</title>
<g id="a_node6"><a xlink:href="ssi_8cpp.html" target="_top" xlink:title=" ">
<polygon fill="white" stroke="black" points="413.5,-6 413.5,-25 481.5,-25 481.5,-6 413.5,-6"/>
<text text-anchor="middle" x="447.5" y="-13" font-family="Helvetica,sans-Serif" font-size="10.00">src/ssi.cpp</text>
</a>
</g>
</g>
<!-- Node2&#45;&gt;Node6 -->
<g id="edge5" class="edge">
<title>Node2&#45;&gt;Node6</title>
<path fill="none" stroke="midnightblue" d="M537.15,-67.62C514.56,-54.74 481.66,-35.98 462.63,-25.13"/>
<polygon fill="midnightblue" stroke="midnightblue" points="535.7,-70.82 546.13,-72.73 539.17,-64.74 535.7,-70.82"/>
</g>
<!-- Node7 -->
<g id="node7" class="node">
<title>Node7</title>
<g id="a_node7"><a xlink:href="test__emulator__add_8cpp.html" target="_top" xlink:title=" ">
<polygon fill="white" stroke="black" points="499.5,-0.5 499.5,-30.5 623.5,-30.5 623.5,-0.5 499.5,-0.5"/>
<text text-anchor="start" x="507.5" y="-18.5" font-family="Helvetica,sans-Serif" font-size="10.00">src/test/test_emulator</text>
<text text-anchor="middle" x="561.5" y="-7.5" font-family="Helvetica,sans-Serif" font-size="10.00">_add.cpp</text>
</a>
</g>
</g>
<!-- Node2&#45;&gt;Node7 -->
<g id="edge6" class="edge">
<title>Node2&#45;&gt;Node7</title>
<path fill="none" stroke="midnightblue" d="M561.5,-62.41C561.5,-52.22 561.5,-39.9 561.5,-30.59"/>
<polygon fill="midnightblue" stroke="midnightblue" points="558,-62.73 561.5,-72.73 565,-62.73 558,-62.73"/>
</g>
<!-- Node8 -->
<g id="node8" class="node">
<title>Node8</title>
<g id="a_node8"><a xlink:href="test__emulator__addi_8cpp.html" target="_top" xlink:title=" ">
<polygon fill="white" stroke="black" points="641.5,-0.5 641.5,-30.5 765.5,-30.5 765.5,-0.5 641.5,-0.5"/>
<text text-anchor="start" x="649.5" y="-18.5" font-family="Helvetica,sans-Serif" font-size="10.00">src/test/test_emulator</text>
<text text-anchor="middle" x="703.5" y="-7.5" font-family="Helvetica,sans-Serif" font-size="10.00">_addi.cpp</text>
</a>
</g>
</g>
<!-- Node2&#45;&gt;Node8 -->
<g id="edge7" class="edge">
<title>Node2&#45;&gt;Node8</title>
<path fill="none" stroke="midnightblue" d="M589.64,-68.62C613.66,-57.63 648.14,-41.84 672.85,-30.53"/>
<polygon fill="midnightblue" stroke="midnightblue" points="587.99,-65.52 580.36,-72.87 590.91,-71.89 587.99,-65.52"/>
</g>
<!-- Node9 -->
<g id="node9" class="node">
<title>Node9</title>
<g id="a_node9"><a xlink:href="test__emulator__and_8cpp.html" target="_top" xlink:title=" ">
<polygon fill="white" stroke="black" points="783.5,-0.5 783.5,-30.5 907.5,-30.5 907.5,-0.5 783.5,-0.5"/>
<text text-anchor="start" x="791.5" y="-18.5" font-family="Helvetica,sans-Serif" font-size="10.00">src/test/test_emulator</text>
<text text-anchor="middle" x="845.5" y="-7.5" font-family="Helvetica,sans-Serif" font-size="10.00">_and.cpp</text>
</a>
</g>
</g>
<!-- Node2&#45;&gt;Node9 -->
<g id="edge8" class="edge">
<title>Node2&#45;&gt;Node9</title>
<path fill="none" stroke="midnightblue" d="M608.75,-70.69C656.8,-59.69 731.46,-42.6 784.07,-30.56"/>
<polygon fill="midnightblue" stroke="midnightblue" points="607.89,-67.29 598.92,-72.94 609.45,-74.12 607.89,-67.29"/>
</g>
<!-- Node10 -->
<g id="node10" class="node">
<title>Node10</title>
<g id="a_node10"><a xlink:href="test__emulator__auipc_8cpp.html" target="_top" xlink:title=" ">
<polygon fill="white" stroke="black" points="925.5,-0.5 925.5,-30.5 1049.5,-30.5 1049.5,-0.5 925.5,-0.5"/>
<text text-anchor="start" x="933.5" y="-18.5" font-family="Helvetica,sans-Serif" font-size="10.00">src/test/test_emulator</text>
<text text-anchor="middle" x="987.5" y="-7.5" font-family="Helvetica,sans-Serif" font-size="10.00">_auipc.cpp</text>
</a>
</g>
</g>
<!-- Node2&#45;&gt;Node10 -->
<g id="edge9" class="edge">
<title>Node2&#45;&gt;Node10</title>
<path fill="none" stroke="midnightblue" d="M626.45,-71.46C636.51,-69.95 646.78,-68.41 656.5,-67 771.94,-50.2 801.51,-50.68 916.5,-31 919.35,-30.51 922.26,-29.99 925.2,-29.46"/>
<polygon fill="midnightblue" stroke="midnightblue" points="625.85,-68.01 616.49,-72.97 626.9,-74.94 625.85,-68.01"/>
</g>
<!-- Node11 -->
<g id="node11" class="node">
<title>Node11</title>
<g id="a_node11"><a xlink:href="test__xlen__32bit_8cpp.html" target="_top" xlink:title=" ">
<polygon fill="white" stroke="black" points="1068,-0.5 1068,-30.5 1169,-30.5 1169,-0.5 1068,-0.5"/>
<text text-anchor="start" x="1076" y="-18.5" font-family="Helvetica,sans-Serif" font-size="10.00">src/test/test_xlen</text>
<text text-anchor="middle" x="1118.5" y="-7.5" font-family="Helvetica,sans-Serif" font-size="10.00">_32bit.cpp</text>
</a>
</g>
</g>
<!-- Node2&#45;&gt;Node11 -->
<g id="edge10" class="edge">
<title>Node2&#45;&gt;Node11</title>
<path fill="none" stroke="midnightblue" d="M623.61,-71.45C634.55,-69.84 645.85,-68.29 656.5,-67 834.58,-45.46 881.5,-60.15 1058.5,-31 1061.57,-30.5 1064.71,-29.92 1067.87,-29.29"/>
<polygon fill="midnightblue" stroke="midnightblue" points="623.06,-68 613.69,-72.94 624.09,-74.92 623.06,-68"/>
</g>
<!-- Node12 -->
<g id="node12" class="node">
<title>Node12</title>
<g id="a_node12"><a xlink:href="test__emulator__andi_8cpp.html" target="_top" xlink:title=" ">
<polygon fill="white" stroke="black" points="1187.5,-0.5 1187.5,-30.5 1311.5,-30.5 1311.5,-0.5 1187.5,-0.5"/>
<text text-anchor="start" x="1195.5" y="-18.5" font-family="Helvetica,sans-Serif" font-size="10.00">src/test/test_emulator</text>
<text text-anchor="middle" x="1249.5" y="-7.5" font-family="Helvetica,sans-Serif" font-size="10.00">_andi.cpp</text>
</a>
</g>
</g>
<!-- Node2&#45;&gt;Node12 -->
<g id="edge11" class="edge">
<title>Node2&#45;&gt;Node12</title>
<path fill="none" stroke="midnightblue" d="M622.07,-71.49C633.49,-69.82 645.34,-68.23 656.5,-67 887.64,-41.43 948.07,-62.34 1178.5,-31 1181.37,-30.61 1184.29,-30.17 1187.24,-29.7"/>
<polygon fill="midnightblue" stroke="midnightblue" points="621.55,-68.03 612.18,-72.97 622.59,-74.95 621.55,-68.03"/>
</g>
</g>
</svg>
        <g id="navigator" transform="translate(0 0)" fill="#404254">
                <rect fill="#f2f5e9" fill-opacity="0.5" stroke="#606060" stroke-width=".5" x="0" y="0" width="60" height="60"/>
                <use id="zoomplus" xlink:href="#zoomPlus" x="17" y="9" onmousedown="handleZoom(evt,'in')"/>
                <use id="zoomminus" xlink:href="#zoomMin" x="42" y="9" onmousedown="handleZoom(evt,'out')"/>
                <use id="reset" xlink:href="#resetDef" x="30" y="36" onmousedown="handleReset()"/>
                <g id="arrowUp" xlink:href="#dirArrow" transform="translate(30 24)" onmousedown="handlePan(0,-1)">
                  <use xlink:href="#rim" fill="#404040">
                        <set attributeName="fill" to="#808080" begin="arrowUp.mouseover" end="arrowUp.mouseout"/>
                  </use>
                  <path fill="none" stroke="white" stroke-width="1.5" d="M0,-3.0v7 M-2.5,-0.5L0,-3.0L2.5,-0.5"/>
                </g>
                <g id="arrowRight" xlink:href="#dirArrow" transform="rotate(90) translate(36 -43)" onmousedown="handlePan(1,0)">
                  <use xlink:href="#rim" fill="#404040">
                        <set attributeName="fill" to="#808080" begin="arrowRight.mouseover" end="arrowRight.mouseout"/>
                  </use>
                  <path fill="none" stroke="white" stroke-width="1.5" d="M0,-3.0v7 M-2.5,-0.5L0,-3.0L2.5,-0.5"/>
                </g>
                <g id="arrowDown" xlink:href="#dirArrow" transform="rotate(180) translate(-30 -48)" onmousedown="handlePan(0,1)">
                  <use xlink:href="#rim" fill="#404040">
                        <set attributeName="fill" to="#808080" begin="arrowDown.mouseover" end="arrowDown.mouseout"/>
                  </use>
                  <path fill="none" stroke="white" stroke-width="1.5" d="M0,-3.0v7 M-2.5,-0.5L0,-3.0L2.5,-0.5"/>
                </g>
                <g id="arrowLeft" xlink:href="#dirArrow" transform="rotate(270) translate(-36 17)" onmousedown="handlePan(-1,0)">
                  <use xlink:href="#rim" fill="#404040">
                        <set attributeName="fill" to="#808080" begin="arrowLeft.mouseover" end="arrowLeft.mouseout"/>
                  </use>
                  <path fill="none" stroke="white" stroke-width="1.5" d="M0,-3.0v7 M-2.5,-0.5L0,-3.0L2.5,-0.5"/>
                </g>
        </g>
        <svg viewBox="0 0 15 15" width="100%" height="30px" preserveAspectRatio="xMaxYMin meet">
         <g id="arrow_out" transform="scale(0.3 0.3)">
          <a xlink:href="parse_8hpp__dep__incl_org.svg" target="_base">
           <rect id="button" ry="5" rx="5" y="6" x="6" height="38" width="38"
                fill="#f2f5e9" fill-opacity="0.5" stroke="#606060" stroke-width="1.0"/>
           <path id="arrow"
             d="M 11.500037,31.436501 C 11.940474,20.09759 22.043105,11.32322 32.158766,21.979434 L 37.068811,17.246167 C 37.068811,17.246167 37.088388,32 37.088388,32 L 22.160133,31.978069 C 22.160133,31.978069 26.997745,27.140456 26.997745,27.140456 C 18.528582,18.264221 13.291696,25.230495 11.500037,31.436501 z"
             style="fill:#404040;"/>
          </a>
         </g>
        </svg>
</svg>
