<?xml version="1.0" encoding="UTF-8" standalone="no"?>
<!DOCTYPE svg PUBLIC "-//W3C//DTD SVG 1.1//EN"
 "http://www.w3.org/Graphics/SVG/1.1/DTD/svg11.dtd">
<!-- Generated by graphviz version 2.43.0 (0)
 -->
<!-- Title: src/post.cpp Pages: 1 -->
<svg width="1142pt" height="196pt"
 viewBox="0.00 0.00 1141.50 196.00" xmlns="http://www.w3.org/2000/svg" xmlns:xlink="http://www.w3.org/1999/xlink">
<g id="graph0" class="graph" transform="scale(1 1) rotate(0) translate(4 192)">
<title>src/post.cpp</title>
<polygon fill="white" stroke="transparent" points="-4,4 -4,-192 1137.5,-192 1137.5,4 -4,4"/>
<!-- Node1 -->
<g id="node1" class="node">
<title>Node1</title>
<g id="a_node1"><a xlink:title=" ">
<polygon fill="#bfbfbf" stroke="black" points="428,-168.5 428,-187.5 503,-187.5 503,-168.5 428,-168.5"/>
<text text-anchor="middle" x="465.5" y="-175.5" font-family="Helvetica,sans-Serif" font-size="10.00">src/post.cpp</text>
</a>
</g>
</g>
<!-- Node2 -->
<g id="node2" class="node">
<title>Node2</title>
<g id="a_node2"><a xlink:title=" ">
<polygon fill="white" stroke="#bfbfbf" points="0,-112.5 0,-131.5 65,-131.5 65,-112.5 0,-112.5"/>
<text text-anchor="middle" x="32.5" y="-119.5" font-family="Helvetica,sans-Serif" font-size="10.00">lwip/opt.h</text>
</a>
</g>
</g>
<!-- Node1&#45;&gt;Node2 -->
<g id="edge1" class="edge">
<title>Node1&#45;&gt;Node2</title>
<path fill="none" stroke="midnightblue" d="M427.75,-173.95C359.36,-168.16 210.24,-154.24 75.22,-132.15"/>
<polygon fill="midnightblue" stroke="midnightblue" points="75.55,-128.65 65.12,-130.47 74.41,-135.56 75.55,-128.65"/>
</g>
<!-- Node3 -->
<g id="node3" class="node">
<title>Node3</title>
<g id="a_node3"><a xlink:title=" ">
<polygon fill="white" stroke="#bfbfbf" points="83,-112.5 83,-131.5 184,-131.5 184,-112.5 83,-112.5"/>
<text text-anchor="middle" x="133.5" y="-119.5" font-family="Helvetica,sans-Serif" font-size="10.00">lwip/apps/httpd.h</text>
</a>
</g>
</g>
<!-- Node1&#45;&gt;Node3 -->
<g id="edge2" class="edge">
<title>Node1&#45;&gt;Node3</title>
<path fill="none" stroke="midnightblue" d="M427.74,-170.86C370.84,-161.6 262.53,-143.99 194.38,-132.9"/>
<polygon fill="midnightblue" stroke="midnightblue" points="194.65,-129.4 184.22,-131.25 193.53,-136.31 194.65,-129.4"/>
</g>
<!-- Node4 -->
<g id="node4" class="node">
<title>Node4</title>
<g id="a_node4"><a xlink:title=" ">
<polygon fill="white" stroke="#bfbfbf" points="202.5,-112.5 202.5,-131.5 266.5,-131.5 266.5,-112.5 202.5,-112.5"/>
<text text-anchor="middle" x="234.5" y="-119.5" font-family="Helvetica,sans-Serif" font-size="10.00">lwip/def.h</text>
</a>
</g>
</g>
<!-- Node1&#45;&gt;Node4 -->
<g id="edge3" class="edge">
<title>Node1&#45;&gt;Node4</title>
<path fill="none" stroke="midnightblue" d="M428.9,-168.44C387.56,-158.78 320.39,-143.08 276.83,-132.89"/>
<polygon fill="midnightblue" stroke="midnightblue" points="277.37,-129.43 266.83,-130.56 275.77,-136.24 277.37,-129.43"/>
</g>
<!-- Node5 -->
<g id="node5" class="node">
<title>Node5</title>
<g id="a_node5"><a xlink:title=" ">
<polygon fill="white" stroke="#bfbfbf" points="284.5,-112.5 284.5,-131.5 358.5,-131.5 358.5,-112.5 284.5,-112.5"/>
<text text-anchor="middle" x="321.5" y="-119.5" font-family="Helvetica,sans-Serif" font-size="10.00">lwip/mem.h</text>
</a>
</g>
</g>
<!-- Node1&#45;&gt;Node5 -->
<g id="edge4" class="edge">
<title>Node1&#45;&gt;Node5</title>
<path fill="none" stroke="midnightblue" d="M442.68,-168.44C418.67,-159.44 380.67,-145.19 353.63,-135.05"/>
<polygon fill="midnightblue" stroke="midnightblue" points="354.8,-131.75 344.21,-131.52 352.34,-138.3 354.8,-131.75"/>
</g>
<!-- Node6 -->
<g id="node6" class="node">
<title>Node6</title>
<g id="a_node6"><a xlink:title=" ">
<polygon fill="white" stroke="#bfbfbf" points="376.5,-112.5 376.5,-131.5 422.5,-131.5 422.5,-112.5 376.5,-112.5"/>
<text text-anchor="middle" x="399.5" y="-119.5" font-family="Helvetica,sans-Serif" font-size="10.00">cstdio</text>
</a>
</g>
</g>
<!-- Node1&#45;&gt;Node6 -->
<g id="edge5" class="edge">
<title>Node1&#45;&gt;Node6</title>
<path fill="none" stroke="midnightblue" d="M454.9,-168.32C445.04,-160.26 430.15,-148.08 418.28,-138.37"/>
<polygon fill="midnightblue" stroke="midnightblue" points="420.25,-135.46 410.3,-131.83 415.82,-140.88 420.25,-135.46"/>
</g>
<!-- Node7 -->
<g id="node7" class="node">
<title>Node7</title>
<g id="a_node7"><a xlink:title=" ">
<polygon fill="white" stroke="#bfbfbf" points="440.5,-112.5 440.5,-131.5 490.5,-131.5 490.5,-112.5 440.5,-112.5"/>
<text text-anchor="middle" x="465.5" y="-119.5" font-family="Helvetica,sans-Serif" font-size="10.00">cstring</text>
</a>
</g>
</g>
<!-- Node1&#45;&gt;Node7 -->
<g id="edge6" class="edge">
<title>Node1&#45;&gt;Node7</title>
<path fill="none" stroke="midnightblue" d="M465.5,-168.08C465.5,-161.01 465.5,-150.86 465.5,-141.99"/>
<polygon fill="midnightblue" stroke="midnightblue" points="469,-141.75 465.5,-131.75 462,-141.75 469,-141.75"/>
</g>
<!-- Node8 -->
<g id="node8" class="node">
<title>Node8</title>
<g id="a_node8"><a xlink:title=" ">
<polygon fill="white" stroke="#bfbfbf" points="619.5,-0.5 619.5,-19.5 683.5,-19.5 683.5,-0.5 619.5,-0.5"/>
<text text-anchor="middle" x="651.5" y="-7.5" font-family="Helvetica,sans-Serif" font-size="10.00">algorithm</text>
</a>
</g>
</g>
<!-- Node1&#45;&gt;Node8 -->
<g id="edge7" class="edge">
<title>Node1&#45;&gt;Node8</title>
<path fill="none" stroke="midnightblue" d="M503.3,-173.51C553.19,-168.04 636.89,-155.53 655.5,-132 678.77,-102.57 667.65,-55.35 658.78,-29.46"/>
<polygon fill="midnightblue" stroke="midnightblue" points="661.95,-27.97 655.22,-19.79 655.38,-30.38 661.95,-27.97"/>
</g>
<!-- Node9 -->
<g id="node9" class="node">
<title>Node9</title>
<g id="a_node9"><a xlink:title=" ">
<polygon fill="white" stroke="#bfbfbf" points="915.5,-112.5 915.5,-131.5 973.5,-131.5 973.5,-112.5 915.5,-112.5"/>
<text text-anchor="middle" x="944.5" y="-119.5" font-family="Helvetica,sans-Serif" font-size="10.00">memory</text>
</a>
</g>
</g>
<!-- Node1&#45;&gt;Node9 -->
<g id="edge8" class="edge">
<title>Node1&#45;&gt;Node9</title>
<path fill="none" stroke="midnightblue" d="M503.29,-174.42C579.1,-168.96 755.07,-154.82 901.5,-132 902.77,-131.8 904.06,-131.59 905.36,-131.37"/>
<polygon fill="midnightblue" stroke="midnightblue" points="906.23,-134.77 915.43,-129.51 904.96,-127.88 906.23,-134.77"/>
</g>
<!-- Node10 -->
<g id="node10" class="node">
<title>Node10</title>
<g id="a_node10"><a xlink:title=" ">
<polygon fill="white" stroke="#bfbfbf" points="882.5,-56.5 882.5,-75.5 926.5,-75.5 926.5,-56.5 882.5,-56.5"/>
<text text-anchor="middle" x="904.5" y="-63.5" font-family="Helvetica,sans-Serif" font-size="10.00">string</text>
</a>
</g>
</g>
<!-- Node1&#45;&gt;Node10 -->
<g id="edge9" class="edge">
<title>Node1&#45;&gt;Node10</title>
<path fill="none" stroke="midnightblue" d="M503.18,-177.11C591.55,-176.69 809.2,-171.55 868.5,-132 884.56,-121.29 894.15,-100.88 899.34,-85.78"/>
<polygon fill="midnightblue" stroke="midnightblue" points="902.77,-86.52 902.37,-75.94 896.09,-84.46 902.77,-86.52"/>
</g>
<!-- Node11 -->
<g id="node11" class="node">
<title>Node11</title>
<g id="a_node11"><a xlink:href="shared_8hpp.html" target="_top" xlink:title=" ">
<polygon fill="white" stroke="black" points="508.5,-112.5 508.5,-131.5 646.5,-131.5 646.5,-112.5 508.5,-112.5"/>
<text text-anchor="middle" x="577.5" y="-119.5" font-family="Helvetica,sans-Serif" font-size="10.00">RoL/threaded/shared.hpp</text>
</a>
</g>
</g>
<!-- Node1&#45;&gt;Node11 -->
<g id="edge10" class="edge">
<title>Node1&#45;&gt;Node11</title>
<path fill="none" stroke="midnightblue" d="M483.49,-168.32C501.54,-159.62 529.55,-146.12 550.3,-136.11"/>
<polygon fill="midnightblue" stroke="midnightblue" points="552.06,-139.15 559.55,-131.65 549.02,-132.84 552.06,-139.15"/>
</g>
<!-- Node17 -->
<g id="node17" class="node">
<title>Node17</title>
<g id="a_node17"><a xlink:href="emulator_8hpp.html" target="_top" xlink:title=" ">
<polygon fill="white" stroke="black" points="704,-112.5 704,-131.5 859,-131.5 859,-112.5 704,-112.5"/>
<text text-anchor="middle" x="781.5" y="-119.5" font-family="Helvetica,sans-Serif" font-size="10.00">RoL/emulation/emulator.hpp</text>
</a>
</g>
</g>
<!-- Node1&#45;&gt;Node17 -->
<g id="edge17" class="edge">
<title>Node1&#45;&gt;Node17</title>
<path fill="none" stroke="midnightblue" d="M503.3,-170.54C557.42,-161.29 657.5,-144.19 721.72,-133.22"/>
<polygon fill="midnightblue" stroke="midnightblue" points="722.44,-136.64 731.7,-131.51 721.26,-129.74 722.44,-136.64"/>
</g>
<!-- Node12 -->
<g id="node12" class="node">
<title>Node12</title>
<g id="a_node12"><a xlink:href="queue_8hpp.html" target="_top" xlink:title=" ">
<polygon fill="white" stroke="black" points="357,-56.5 357,-75.5 492,-75.5 492,-56.5 357,-56.5"/>
<text text-anchor="middle" x="424.5" y="-63.5" font-family="Helvetica,sans-Serif" font-size="10.00">RoL/threaded/queue.hpp</text>
</a>
</g>
</g>
<!-- Node11&#45;&gt;Node12 -->
<g id="edge11" class="edge">
<title>Node11&#45;&gt;Node12</title>
<path fill="none" stroke="midnightblue" d="M553.26,-112.44C527.63,-103.4 487.01,-89.06 458.26,-78.92"/>
<polygon fill="midnightblue" stroke="midnightblue" points="459.22,-75.54 448.63,-75.52 456.89,-82.15 459.22,-75.54"/>
</g>
<!-- Node15 -->
<g id="node15" class="node">
<title>Node15</title>
<g id="a_node15"><a xlink:href="vector_8hpp.html" target="_top" xlink:title=" ">
<polygon fill="white" stroke="black" points="510,-56.5 510,-75.5 645,-75.5 645,-56.5 510,-56.5"/>
<text text-anchor="middle" x="577.5" y="-63.5" font-family="Helvetica,sans-Serif" font-size="10.00">RoL/threaded/vector.hpp</text>
</a>
</g>
</g>
<!-- Node11&#45;&gt;Node15 -->
<g id="edge14" class="edge">
<title>Node11&#45;&gt;Node15</title>
<path fill="none" stroke="midnightblue" d="M577.5,-112.08C577.5,-105.01 577.5,-94.86 577.5,-85.99"/>
<polygon fill="midnightblue" stroke="midnightblue" points="581,-85.75 577.5,-75.75 574,-85.75 581,-85.75"/>
</g>
<!-- Node13 -->
<g id="node13" class="node">
<title>Node13</title>
<g id="a_node13"><a xlink:title=" ">
<polygon fill="white" stroke="#bfbfbf" points="455.5,-0.5 455.5,-19.5 535.5,-19.5 535.5,-0.5 455.5,-0.5"/>
<text text-anchor="middle" x="495.5" y="-7.5" font-family="Helvetica,sans-Serif" font-size="10.00">pico/mutex.h</text>
</a>
</g>
</g>
<!-- Node12&#45;&gt;Node13 -->
<g id="edge12" class="edge">
<title>Node12&#45;&gt;Node13</title>
<path fill="none" stroke="midnightblue" d="M435.91,-56.32C446.61,-48.18 462.84,-35.84 475.66,-26.09"/>
<polygon fill="midnightblue" stroke="midnightblue" points="478.04,-28.67 483.89,-19.83 473.81,-23.1 478.04,-28.67"/>
</g>
<!-- Node14 -->
<g id="node14" class="node">
<title>Node14</title>
<g id="a_node14"><a xlink:title=" ">
<polygon fill="white" stroke="#bfbfbf" points="390,-0.5 390,-19.5 437,-19.5 437,-0.5 390,-0.5"/>
<text text-anchor="middle" x="413.5" y="-7.5" font-family="Helvetica,sans-Serif" font-size="10.00">queue</text>
</a>
</g>
</g>
<!-- Node12&#45;&gt;Node14 -->
<g id="edge13" class="edge">
<title>Node12&#45;&gt;Node14</title>
<path fill="none" stroke="midnightblue" d="M422.68,-56.08C421.23,-48.93 419.13,-38.64 417.31,-29.69"/>
<polygon fill="midnightblue" stroke="midnightblue" points="420.71,-28.85 415.28,-19.75 413.85,-30.25 420.71,-28.85"/>
</g>
<!-- Node15&#45;&gt;Node13 -->
<g id="edge15" class="edge">
<title>Node15&#45;&gt;Node13</title>
<path fill="none" stroke="midnightblue" d="M564.33,-56.32C551.65,-47.98 532.27,-35.21 517.29,-25.35"/>
<polygon fill="midnightblue" stroke="midnightblue" points="518.92,-22.23 508.64,-19.65 515.07,-28.08 518.92,-22.23"/>
</g>
<!-- Node16 -->
<g id="node16" class="node">
<title>Node16</title>
<g id="a_node16"><a xlink:title=" ">
<polygon fill="white" stroke="#bfbfbf" points="554,-0.5 554,-19.5 601,-19.5 601,-0.5 554,-0.5"/>
<text text-anchor="middle" x="577.5" y="-7.5" font-family="Helvetica,sans-Serif" font-size="10.00">vector</text>
</a>
</g>
</g>
<!-- Node15&#45;&gt;Node16 -->
<g id="edge16" class="edge">
<title>Node15&#45;&gt;Node16</title>
<path fill="none" stroke="midnightblue" d="M577.5,-56.08C577.5,-49.01 577.5,-38.86 577.5,-29.99"/>
<polygon fill="midnightblue" stroke="midnightblue" points="581,-29.75 577.5,-19.75 574,-29.75 581,-29.75"/>
</g>
<!-- Node17&#45;&gt;Node10 -->
<g id="edge19" class="edge">
<title>Node17&#45;&gt;Node10</title>
<path fill="none" stroke="midnightblue" d="M800.99,-112.44C821.14,-103.6 852.82,-89.69 875.83,-79.59"/>
<polygon fill="midnightblue" stroke="midnightblue" points="877.35,-82.74 885.1,-75.52 874.54,-76.33 877.35,-82.74"/>
</g>
<!-- Node17&#45;&gt;Node16 -->
<g id="edge20" class="edge">
<title>Node17&#45;&gt;Node16</title>
<path fill="none" stroke="midnightblue" d="M765.49,-112.37C730.04,-93.25 644.69,-47.23 602.28,-24.36"/>
<polygon fill="midnightblue" stroke="midnightblue" points="603.9,-21.26 593.43,-19.59 600.57,-27.42 603.9,-21.26"/>
</g>
<!-- Node18 -->
<g id="node18" class="node">
<title>Node18</title>
<g id="a_node18"><a xlink:title=" ">
<polygon fill="white" stroke="#bfbfbf" points="1089.5,-0.5 1089.5,-19.5 1133.5,-19.5 1133.5,-0.5 1089.5,-0.5"/>
<text text-anchor="middle" x="1111.5" y="-7.5" font-family="Helvetica,sans-Serif" font-size="10.00">bitset</text>
</a>
</g>
</g>
<!-- Node17&#45;&gt;Node18 -->
<g id="edge18" class="edge">
<title>Node17&#45;&gt;Node18</title>
<path fill="none" stroke="midnightblue" d="M790.59,-112.44C806.2,-98.24 839.73,-70.03 873.5,-56 956.79,-21.41 987.42,-39.69 1079.24,-20.02"/>
<polygon fill="midnightblue" stroke="midnightblue" points="1080.23,-23.39 1089.23,-17.79 1078.7,-16.55 1080.23,-23.39"/>
</g>
<!-- Node19 -->
<g id="node19" class="node">
<title>Node19</title>
<g id="a_node19"><a xlink:href="parse_8hpp.html" target="_top" xlink:title=" ">
<polygon fill="white" stroke="black" points="740.5,-56.5 740.5,-75.5 826.5,-75.5 826.5,-56.5 740.5,-56.5"/>
<text text-anchor="middle" x="783.5" y="-63.5" font-family="Helvetica,sans-Serif" font-size="10.00">RoL/parse.hpp</text>
</a>
</g>
</g>
<!-- Node17&#45;&gt;Node19 -->
<g id="edge21" class="edge">
<title>Node17&#45;&gt;Node19</title>
<path fill="none" stroke="midnightblue" d="M781.83,-112.08C782.09,-105.01 782.47,-94.86 782.8,-85.99"/>
<polygon fill="midnightblue" stroke="midnightblue" points="786.3,-85.87 783.18,-75.75 779.31,-85.61 786.3,-85.87"/>
</g>
<!-- Node19&#45;&gt;Node8 -->
<g id="edge22" class="edge">
<title>Node19&#45;&gt;Node8</title>
<path fill="none" stroke="midnightblue" d="M762.58,-56.44C740.76,-47.52 706.35,-33.44 681.61,-23.32"/>
<polygon fill="midnightblue" stroke="midnightblue" points="682.9,-20.06 672.32,-19.52 680.25,-26.54 682.9,-20.06"/>
</g>
<!-- Node19&#45;&gt;Node16 -->
<g id="edge28" class="edge">
<title>Node19&#45;&gt;Node16</title>
<path fill="none" stroke="midnightblue" d="M750.3,-56.49C717.43,-48.03 665.4,-34.58 611.09,-20.13"/>
<polygon fill="midnightblue" stroke="midnightblue" points="611.85,-16.71 601.28,-17.52 610.05,-23.48 611.85,-16.71"/>
</g>
<!-- Node19&#45;&gt;Node18 -->
<g id="edge23" class="edge">
<title>Node19&#45;&gt;Node18</title>
<path fill="none" stroke="midnightblue" d="M826.75,-58.13C831.39,-57.41 836.04,-56.69 840.5,-56 943.98,-40.07 973.43,-42.9 1079.43,-19.99"/>
<polygon fill="midnightblue" stroke="midnightblue" points="1080.22,-23.4 1089.24,-17.85 1078.72,-16.57 1080.22,-23.4"/>
</g>
<!-- Node20 -->
<g id="node20" class="node">
<title>Node20</title>
<g id="a_node20"><a xlink:title=" ">
<polygon fill="white" stroke="#bfbfbf" points="770,-0.5 770,-19.5 831,-19.5 831,-0.5 770,-0.5"/>
<text text-anchor="middle" x="800.5" y="-7.5" font-family="Helvetica,sans-Serif" font-size="10.00">charconv</text>
</a>
</g>
</g>
<!-- Node19&#45;&gt;Node20 -->
<g id="edge24" class="edge">
<title>Node19&#45;&gt;Node20</title>
<path fill="none" stroke="midnightblue" d="M786.31,-56.08C788.58,-48.85 791.87,-38.41 794.71,-29.4"/>
<polygon fill="midnightblue" stroke="midnightblue" points="798.08,-30.34 797.75,-19.75 791.4,-28.24 798.08,-30.34"/>
</g>
<!-- Node21 -->
<g id="node21" class="node">
<title>Node21</title>
<g id="a_node21"><a xlink:title=" ">
<polygon fill="white" stroke="#bfbfbf" points="849.5,-0.5 849.5,-19.5 899.5,-19.5 899.5,-0.5 849.5,-0.5"/>
<text text-anchor="middle" x="874.5" y="-7.5" font-family="Helvetica,sans-Serif" font-size="10.00">cstdint</text>
</a>
</g>
</g>
<!-- Node19&#45;&gt;Node21 -->
<g id="edge25" class="edge">
<title>Node19&#45;&gt;Node21</title>
<path fill="none" stroke="midnightblue" d="M798.12,-56.32C812.45,-47.82 834.51,-34.73 851.25,-24.8"/>
<polygon fill="midnightblue" stroke="midnightblue" points="853.1,-27.77 859.92,-19.65 849.53,-21.75 853.1,-27.77"/>
</g>
<!-- Node22 -->
<g id="node22" class="node">
<title>Node22</title>
<g id="a_node22"><a xlink:title=" ">
<polygon fill="white" stroke="#bfbfbf" points="918,-0.5 918,-19.5 1011,-19.5 1011,-0.5 918,-0.5"/>
<text text-anchor="middle" x="964.5" y="-7.5" font-family="Helvetica,sans-Serif" font-size="10.00">unordered_map</text>
</a>
</g>
</g>
<!-- Node19&#45;&gt;Node22 -->
<g id="edge26" class="edge">
<title>Node19&#45;&gt;Node22</title>
<path fill="none" stroke="midnightblue" d="M812.18,-56.44C843.03,-47.24 892.23,-32.56 926.33,-22.39"/>
<polygon fill="midnightblue" stroke="midnightblue" points="927.37,-25.73 935.95,-19.52 925.37,-19.02 927.37,-25.73"/>
</g>
<!-- Node23 -->
<g id="node23" class="node">
<title>Node23</title>
<g id="a_node23"><a xlink:title=" ">
<polygon fill="white" stroke="#bfbfbf" points="1029.5,-0.5 1029.5,-19.5 1071.5,-19.5 1071.5,-0.5 1029.5,-0.5"/>
<text text-anchor="middle" x="1050.5" y="-7.5" font-family="Helvetica,sans-Serif" font-size="10.00">array</text>
</a>
</g>
</g>
<!-- Node19&#45;&gt;Node23 -->
<g id="edge27" class="edge">
<title>Node19&#45;&gt;Node23</title>
<path fill="none" stroke="midnightblue" d="M826.6,-58.2C872.27,-50.69 946.63,-37.58 1019.47,-20.05"/>
<polygon fill="midnightblue" stroke="midnightblue" points="1020.38,-23.43 1029.27,-17.67 1018.73,-16.63 1020.38,-23.43"/>
</g>
<!-- Node24 -->
<g id="node24" class="node">
<title>Node24</title>
<g id="a_node24"><a xlink:title=" ">
<polygon fill="white" stroke="#bfbfbf" points="701.5,-0.5 701.5,-19.5 751.5,-19.5 751.5,-0.5 701.5,-0.5"/>
<text text-anchor="middle" x="726.5" y="-7.5" font-family="Helvetica,sans-Serif" font-size="10.00">ranges</text>
</a>
</g>
</g>
<!-- Node19&#45;&gt;Node24 -->
<g id="edge29" class="edge">
<title>Node19&#45;&gt;Node24</title>
<path fill="none" stroke="midnightblue" d="M774.34,-56.32C766,-48.42 753.47,-36.55 743.32,-26.94"/>
<polygon fill="midnightblue" stroke="midnightblue" points="745.49,-24.17 735.82,-19.83 740.68,-29.25 745.49,-24.17"/>
</g>
</g>
</svg>
