<?xml version="1.0" encoding="UTF-8" standalone="no"?>
<!DOCTYPE svg PUBLIC "-//W3C//DTD SVG 1.1//EN"
 "http://www.w3.org/Graphics/SVG/1.1/DTD/svg11.dtd">
<!-- Generated by graphviz version 2.43.0 (0)
 -->
<!-- Title: httpd_post_receive_data Pages: 1 -->
<svg width="314pt" height="66pt"
 viewBox="0.00 0.00 314.00 66.00" xmlns="http://www.w3.org/2000/svg" xmlns:xlink="http://www.w3.org/1999/xlink">
<g id="graph0" class="graph" transform="scale(1 1) rotate(0) translate(4 62)">
<title>httpd_post_receive_data</title>
<polygon fill="white" stroke="transparent" points="-4,4 -4,-62 310,-62 310,4 -4,4"/>
<!-- Node1 -->
<g id="node1" class="node">
<title>Node1</title>
<g id="a_node1"><a xlink:title=" ">
<polygon fill="#bfbfbf" stroke="black" points="0,-19.5 0,-38.5 137,-38.5 137,-19.5 0,-19.5"/>
<text text-anchor="middle" x="68.5" y="-26.5" font-family="Helvetica,sans-Serif" font-size="10.00">httpd_post_receive_data</text>
</a>
</g>
</g>
<!-- Node2 -->
<g id="node2" class="node">
<title>Node2</title>
<g id="a_node2"><a xlink:href="namespaceparse.html#a838cb9143367db8b56b28f0ce809bb9c" target="_top" xlink:title=" ">
<polygon fill="white" stroke="black" points="184.5,-38.5 184.5,-57.5 294.5,-57.5 294.5,-38.5 184.5,-38.5"/>
<text text-anchor="middle" x="239.5" y="-45.5" font-family="Helvetica,sans-Serif" font-size="10.00">parse::decode_ram</text>
</a>
</g>
</g>
<!-- Node1&#45;&gt;Node2 -->
<g id="edge1" class="edge">
<title>Node1&#45;&gt;Node2</title>
<path fill="none" stroke="midnightblue" d="M137.26,-36.62C149.53,-38 162.29,-39.43 174.45,-40.8"/>
<polygon fill="midnightblue" stroke="midnightblue" points="174.17,-44.29 184.5,-41.93 174.95,-37.33 174.17,-44.29"/>
</g>
<!-- Node3 -->
<g id="node3" class="node">
<title>Node3</title>
<g id="a_node3"><a xlink:href="classconcurrent__queue.html#a6098253682efb5ed8930f8f60342b761" target="_top" xlink:title="Push an item onto the stack, doing an emplace_back() in the background.">
<polygon fill="white" stroke="black" points="173,-0.5 173,-19.5 306,-19.5 306,-0.5 173,-0.5"/>
<text text-anchor="middle" x="239.5" y="-7.5" font-family="Helvetica,sans-Serif" font-size="10.00">concurrent_queue::push</text>
</a>
</g>
</g>
<!-- Node1&#45;&gt;Node3 -->
<g id="edge2" class="edge">
<title>Node1&#45;&gt;Node3</title>
<path fill="none" stroke="midnightblue" d="M137.26,-21.38C145.71,-20.43 154.39,-19.46 162.95,-18.49"/>
<polygon fill="midnightblue" stroke="midnightblue" points="163.37,-21.97 172.92,-17.37 162.59,-15.01 163.37,-21.97"/>
</g>
</g>
</svg>
