<?xml version="1.0" encoding="UTF-8" standalone="no"?>
<!DOCTYPE svg PUBLIC "-//W3C//DTD SVG 1.1//EN"
 "http://www.w3.org/Graphics/SVG/1.1/DTD/svg11.dtd">
<!-- Generated by graphviz version 2.43.0 (0)
 -->
<!-- Title: src/post.cpp Pages: 1 -->
<svg width="993pt" height="196pt"
 viewBox="0.00 0.00 992.50 196.00" xmlns="http://www.w3.org/2000/svg" xmlns:xlink="http://www.w3.org/1999/xlink">
<g id="graph0" class="graph" transform="scale(1 1) rotate(0) translate(4 192)">
<title>src/post.cpp</title>
<polygon fill="white" stroke="transparent" points="-4,4 -4,-192 988.5,-192 988.5,4 -4,4"/>
<!-- Node1 -->
<g id="node1" class="node">
<title>Node1</title>
<g id="a_node1"><a xlink:title=" ">
<polygon fill="#bfbfbf" stroke="black" points="362,-168.5 362,-187.5 437,-187.5 437,-168.5 362,-168.5"/>
<text text-anchor="middle" x="399.5" y="-175.5" font-family="Helvetica,sans-Serif" font-size="10.00">src/post.cpp</text>
</a>
</g>
</g>
<!-- Node2 -->
<g id="node2" class="node">
<title>Node2</title>
<g id="a_node2"><a xlink:title=" ">
<polygon fill="white" stroke="#bfbfbf" points="0,-112.5 0,-131.5 65,-131.5 65,-112.5 0,-112.5"/>
<text text-anchor="middle" x="32.5" y="-119.5" font-family="Helvetica,sans-Serif" font-size="10.00">lwip/opt.h</text>
</a>
</g>
</g>
<!-- Node1&#45;&gt;Node2 -->
<g id="edge1" class="edge">
<title>Node1&#45;&gt;Node2</title>
<path fill="none" stroke="midnightblue" d="M361.7,-172.76C302.58,-165.93 184.46,-151.41 75.01,-132.16"/>
<polygon fill="midnightblue" stroke="midnightblue" points="75.59,-128.71 65.13,-130.41 74.36,-135.6 75.59,-128.71"/>
</g>
<!-- Node3 -->
<g id="node3" class="node">
<title>Node3</title>
<g id="a_node3"><a xlink:title=" ">
<polygon fill="white" stroke="#bfbfbf" points="83,-112.5 83,-131.5 184,-131.5 184,-112.5 83,-112.5"/>
<text text-anchor="middle" x="133.5" y="-119.5" font-family="Helvetica,sans-Serif" font-size="10.00">lwip/apps/httpd.h</text>
</a>
</g>
</g>
<!-- Node1&#45;&gt;Node3 -->
<g id="edge2" class="edge">
<title>Node1&#45;&gt;Node3</title>
<path fill="none" stroke="midnightblue" d="M361.95,-169.38C315.9,-160.03 237.58,-144.13 185.69,-133.6"/>
<polygon fill="midnightblue" stroke="midnightblue" points="186.18,-130.12 175.68,-131.56 184.79,-136.98 186.18,-130.12"/>
</g>
<!-- Node4 -->
<g id="node4" class="node">
<title>Node4</title>
<g id="a_node4"><a xlink:title=" ">
<polygon fill="white" stroke="#bfbfbf" points="202.5,-112.5 202.5,-131.5 266.5,-131.5 266.5,-112.5 202.5,-112.5"/>
<text text-anchor="middle" x="234.5" y="-119.5" font-family="Helvetica,sans-Serif" font-size="10.00">lwip/def.h</text>
</a>
</g>
</g>
<!-- Node1&#45;&gt;Node4 -->
<g id="edge3" class="edge">
<title>Node1&#45;&gt;Node4</title>
<path fill="none" stroke="midnightblue" d="M373.36,-168.44C345.48,-159.32 301.15,-144.81 270.1,-134.65"/>
<polygon fill="midnightblue" stroke="midnightblue" points="271.12,-131.3 260.52,-131.52 268.94,-137.95 271.12,-131.3"/>
</g>
<!-- Node5 -->
<g id="node5" class="node">
<title>Node5</title>
<g id="a_node5"><a xlink:title=" ">
<polygon fill="white" stroke="#bfbfbf" points="284.5,-112.5 284.5,-131.5 358.5,-131.5 358.5,-112.5 284.5,-112.5"/>
<text text-anchor="middle" x="321.5" y="-119.5" font-family="Helvetica,sans-Serif" font-size="10.00">lwip/mem.h</text>
</a>
</g>
</g>
<!-- Node1&#45;&gt;Node5 -->
<g id="edge4" class="edge">
<title>Node1&#45;&gt;Node5</title>
<path fill="none" stroke="midnightblue" d="M386.97,-168.32C374.91,-159.98 356.47,-147.21 342.23,-137.35"/>
<polygon fill="midnightblue" stroke="midnightblue" points="344.22,-134.47 334,-131.65 340.23,-140.22 344.22,-134.47"/>
</g>
<!-- Node6 -->
<g id="node6" class="node">
<title>Node6</title>
<g id="a_node6"><a xlink:title=" ">
<polygon fill="white" stroke="#bfbfbf" points="376.5,-112.5 376.5,-131.5 422.5,-131.5 422.5,-112.5 376.5,-112.5"/>
<text text-anchor="middle" x="399.5" y="-119.5" font-family="Helvetica,sans-Serif" font-size="10.00">cstdio</text>
</a>
</g>
</g>
<!-- Node1&#45;&gt;Node6 -->
<g id="edge5" class="edge">
<title>Node1&#45;&gt;Node6</title>
<path fill="none" stroke="midnightblue" d="M399.5,-168.08C399.5,-161.01 399.5,-150.86 399.5,-141.99"/>
<polygon fill="midnightblue" stroke="midnightblue" points="403,-141.75 399.5,-131.75 396,-141.75 403,-141.75"/>
</g>
<!-- Node7 -->
<g id="node7" class="node">
<title>Node7</title>
<g id="a_node7"><a xlink:title=" ">
<polygon fill="white" stroke="#bfbfbf" points="440.5,-112.5 440.5,-131.5 490.5,-131.5 490.5,-112.5 440.5,-112.5"/>
<text text-anchor="middle" x="465.5" y="-119.5" font-family="Helvetica,sans-Serif" font-size="10.00">cstring</text>
</a>
</g>
</g>
<!-- Node1&#45;&gt;Node7 -->
<g id="edge6" class="edge">
<title>Node1&#45;&gt;Node7</title>
<path fill="none" stroke="midnightblue" d="M410.1,-168.32C419.96,-160.26 434.85,-148.08 446.72,-138.37"/>
<polygon fill="midnightblue" stroke="midnightblue" points="449.18,-140.88 454.7,-131.83 444.75,-135.46 449.18,-140.88"/>
</g>
<!-- Node8 -->
<g id="node8" class="node">
<title>Node8</title>
<g id="a_node8"><a xlink:title=" ">
<polygon fill="white" stroke="#bfbfbf" points="508.5,-112.5 508.5,-131.5 552.5,-131.5 552.5,-112.5 508.5,-112.5"/>
<text text-anchor="middle" x="530.5" y="-119.5" font-family="Helvetica,sans-Serif" font-size="10.00">string</text>
</a>
</g>
</g>
<!-- Node1&#45;&gt;Node8 -->
<g id="edge7" class="edge">
<title>Node1&#45;&gt;Node8</title>
<path fill="none" stroke="midnightblue" d="M420.26,-168.44C441.82,-159.56 475.76,-145.56 500.29,-135.45"/>
<polygon fill="midnightblue" stroke="midnightblue" points="501.93,-138.56 509.84,-131.52 499.26,-132.09 501.93,-138.56"/>
</g>
<!-- Node9 -->
<g id="node9" class="node">
<title>Node9</title>
<g id="a_node9"><a xlink:href="shared_8hpp.html" target="_top" xlink:title=" ">
<polygon fill="white" stroke="black" points="570.5,-112.5 570.5,-131.5 708.5,-131.5 708.5,-112.5 570.5,-112.5"/>
<text text-anchor="middle" x="639.5" y="-119.5" font-family="Helvetica,sans-Serif" font-size="10.00">RoL/threaded/shared.hpp</text>
</a>
</g>
</g>
<!-- Node1&#45;&gt;Node9 -->
<g id="edge8" class="edge">
<title>Node1&#45;&gt;Node9</title>
<path fill="none" stroke="midnightblue" d="M437.26,-168.5C478.99,-159.11 546.28,-143.98 591.66,-133.76"/>
<polygon fill="midnightblue" stroke="midnightblue" points="592.57,-137.15 601.56,-131.54 591.04,-130.32 592.57,-137.15"/>
</g>
<!-- Node15 -->
<g id="node15" class="node">
<title>Node15</title>
<g id="a_node15"><a xlink:href="emulator_8hpp.html" target="_top" xlink:title=" ">
<polygon fill="white" stroke="black" points="731,-112.5 731,-131.5 886,-131.5 886,-112.5 731,-112.5"/>
<text text-anchor="middle" x="808.5" y="-119.5" font-family="Helvetica,sans-Serif" font-size="10.00">RoL/emulation/emulator.hpp</text>
</a>
</g>
</g>
<!-- Node1&#45;&gt;Node15 -->
<g id="edge15" class="edge">
<title>Node1&#45;&gt;Node15</title>
<path fill="none" stroke="midnightblue" d="M437.24,-172.02C504.49,-163.14 646.17,-144.43 733.75,-132.87"/>
<polygon fill="midnightblue" stroke="midnightblue" points="734.43,-136.31 743.89,-131.53 733.52,-129.37 734.43,-136.31"/>
</g>
<!-- Node10 -->
<g id="node10" class="node">
<title>Node10</title>
<g id="a_node10"><a xlink:href="queue_8hpp.html" target="_top" xlink:title=" ">
<polygon fill="white" stroke="black" points="419,-56.5 419,-75.5 554,-75.5 554,-56.5 419,-56.5"/>
<text text-anchor="middle" x="486.5" y="-63.5" font-family="Helvetica,sans-Serif" font-size="10.00">RoL/threaded/queue.hpp</text>
</a>
</g>
</g>
<!-- Node9&#45;&gt;Node10 -->
<g id="edge9" class="edge">
<title>Node9&#45;&gt;Node10</title>
<path fill="none" stroke="midnightblue" d="M615.26,-112.44C589.63,-103.4 549.01,-89.06 520.26,-78.92"/>
<polygon fill="midnightblue" stroke="midnightblue" points="521.22,-75.54 510.63,-75.52 518.89,-82.15 521.22,-75.54"/>
</g>
<!-- Node13 -->
<g id="node13" class="node">
<title>Node13</title>
<g id="a_node13"><a xlink:href="vector_8hpp.html" target="_top" xlink:title=" ">
<polygon fill="white" stroke="black" points="572,-56.5 572,-75.5 707,-75.5 707,-56.5 572,-56.5"/>
<text text-anchor="middle" x="639.5" y="-63.5" font-family="Helvetica,sans-Serif" font-size="10.00">RoL/threaded/vector.hpp</text>
</a>
</g>
</g>
<!-- Node9&#45;&gt;Node13 -->
<g id="edge12" class="edge">
<title>Node9&#45;&gt;Node13</title>
<path fill="none" stroke="midnightblue" d="M639.5,-112.08C639.5,-105.01 639.5,-94.86 639.5,-85.99"/>
<polygon fill="midnightblue" stroke="midnightblue" points="643,-85.75 639.5,-75.75 636,-85.75 643,-85.75"/>
</g>
<!-- Node11 -->
<g id="node11" class="node">
<title>Node11</title>
<g id="a_node11"><a xlink:title=" ">
<polygon fill="white" stroke="#bfbfbf" points="517.5,-0.5 517.5,-19.5 597.5,-19.5 597.5,-0.5 517.5,-0.5"/>
<text text-anchor="middle" x="557.5" y="-7.5" font-family="Helvetica,sans-Serif" font-size="10.00">pico/mutex.h</text>
</a>
</g>
</g>
<!-- Node10&#45;&gt;Node11 -->
<g id="edge10" class="edge">
<title>Node10&#45;&gt;Node11</title>
<path fill="none" stroke="midnightblue" d="M497.91,-56.32C508.61,-48.18 524.84,-35.84 537.66,-26.09"/>
<polygon fill="midnightblue" stroke="midnightblue" points="540.04,-28.67 545.89,-19.83 535.81,-23.1 540.04,-28.67"/>
</g>
<!-- Node12 -->
<g id="node12" class="node">
<title>Node12</title>
<g id="a_node12"><a xlink:title=" ">
<polygon fill="white" stroke="#bfbfbf" points="452,-0.5 452,-19.5 499,-19.5 499,-0.5 452,-0.5"/>
<text text-anchor="middle" x="475.5" y="-7.5" font-family="Helvetica,sans-Serif" font-size="10.00">queue</text>
</a>
</g>
</g>
<!-- Node10&#45;&gt;Node12 -->
<g id="edge11" class="edge">
<title>Node10&#45;&gt;Node12</title>
<path fill="none" stroke="midnightblue" d="M484.68,-56.08C483.23,-48.93 481.13,-38.64 479.31,-29.69"/>
<polygon fill="midnightblue" stroke="midnightblue" points="482.71,-28.85 477.28,-19.75 475.85,-30.25 482.71,-28.85"/>
</g>
<!-- Node13&#45;&gt;Node11 -->
<g id="edge13" class="edge">
<title>Node13&#45;&gt;Node11</title>
<path fill="none" stroke="midnightblue" d="M626.33,-56.32C613.65,-47.98 594.27,-35.21 579.29,-25.35"/>
<polygon fill="midnightblue" stroke="midnightblue" points="580.92,-22.23 570.64,-19.65 577.07,-28.08 580.92,-22.23"/>
</g>
<!-- Node14 -->
<g id="node14" class="node">
<title>Node14</title>
<g id="a_node14"><a xlink:title=" ">
<polygon fill="white" stroke="#bfbfbf" points="616,-0.5 616,-19.5 663,-19.5 663,-0.5 616,-0.5"/>
<text text-anchor="middle" x="639.5" y="-7.5" font-family="Helvetica,sans-Serif" font-size="10.00">vector</text>
</a>
</g>
</g>
<!-- Node13&#45;&gt;Node14 -->
<g id="edge14" class="edge">
<title>Node13&#45;&gt;Node14</title>
<path fill="none" stroke="midnightblue" d="M639.5,-56.08C639.5,-49.01 639.5,-38.86 639.5,-29.99"/>
<polygon fill="midnightblue" stroke="midnightblue" points="643,-29.75 639.5,-19.75 636,-29.75 643,-29.75"/>
</g>
<!-- Node15&#45;&gt;Node14 -->
<g id="edge17" class="edge">
<title>Node15&#45;&gt;Node14</title>
<path fill="none" stroke="midnightblue" d="M796.66,-112.29C779.18,-99.54 745.31,-75.2 715.5,-56 698.42,-45 678.66,-33.33 663.57,-24.63"/>
<polygon fill="midnightblue" stroke="midnightblue" points="665.26,-21.57 654.85,-19.63 661.78,-27.64 665.26,-21.57"/>
</g>
<!-- Node16 -->
<g id="node16" class="node">
<title>Node16</title>
<g id="a_node16"><a xlink:title=" ">
<polygon fill="white" stroke="#bfbfbf" points="940.5,-0.5 940.5,-19.5 984.5,-19.5 984.5,-0.5 940.5,-0.5"/>
<text text-anchor="middle" x="962.5" y="-7.5" font-family="Helvetica,sans-Serif" font-size="10.00">bitset</text>
</a>
</g>
</g>
<!-- Node15&#45;&gt;Node16 -->
<g id="edge16" class="edge">
<title>Node15&#45;&gt;Node16</title>
<path fill="none" stroke="midnightblue" d="M820.58,-112.37C846.9,-93.57 909.62,-48.77 942.15,-25.53"/>
<polygon fill="midnightblue" stroke="midnightblue" points="944.37,-28.25 950.47,-19.59 940.3,-22.56 944.37,-28.25"/>
</g>
<!-- Node17 -->
<g id="node17" class="node">
<title>Node17</title>
<g id="a_node17"><a xlink:href="parse_8hpp.html" target="_top" xlink:title=" ">
<polygon fill="white" stroke="black" points="769.5,-56.5 769.5,-75.5 855.5,-75.5 855.5,-56.5 769.5,-56.5"/>
<text text-anchor="middle" x="812.5" y="-63.5" font-family="Helvetica,sans-Serif" font-size="10.00">RoL/parse.hpp</text>
</a>
</g>
</g>
<!-- Node15&#45;&gt;Node17 -->
<g id="edge18" class="edge">
<title>Node15&#45;&gt;Node17</title>
<path fill="none" stroke="midnightblue" d="M809.16,-112.08C809.68,-105.01 810.44,-94.86 811.09,-85.99"/>
<polygon fill="midnightblue" stroke="midnightblue" points="814.6,-85.98 811.85,-75.75 807.62,-85.47 814.6,-85.98"/>
</g>
<!-- Node17&#45;&gt;Node14 -->
<g id="edge22" class="edge">
<title>Node17&#45;&gt;Node14</title>
<path fill="none" stroke="midnightblue" d="M785.09,-56.44C754.61,-46.93 705.38,-31.56 672.73,-21.37"/>
<polygon fill="midnightblue" stroke="midnightblue" points="673.76,-18.03 663.17,-18.39 671.67,-24.71 673.76,-18.03"/>
</g>
<!-- Node17&#45;&gt;Node16 -->
<g id="edge19" class="edge">
<title>Node17&#45;&gt;Node16</title>
<path fill="none" stroke="midnightblue" d="M836.27,-56.44C861.84,-47.24 902.62,-32.56 930.88,-22.38"/>
<polygon fill="midnightblue" stroke="midnightblue" points="932.09,-25.67 940.31,-18.99 929.72,-19.08 932.09,-25.67"/>
</g>
<!-- Node18 -->
<g id="node18" class="node">
<title>Node18</title>
<g id="a_node18"><a xlink:title=" ">
<polygon fill="white" stroke="#bfbfbf" points="861,-0.5 861,-19.5 922,-19.5 922,-0.5 861,-0.5"/>
<text text-anchor="middle" x="891.5" y="-7.5" font-family="Helvetica,sans-Serif" font-size="10.00">charconv</text>
</a>
</g>
</g>
<!-- Node17&#45;&gt;Node18 -->
<g id="edge20" class="edge">
<title>Node17&#45;&gt;Node18</title>
<path fill="none" stroke="midnightblue" d="M825.19,-56.32C837.4,-47.98 856.08,-35.21 870.5,-25.35"/>
<polygon fill="midnightblue" stroke="midnightblue" points="872.56,-28.19 878.84,-19.65 868.61,-22.41 872.56,-28.19"/>
</g>
<!-- Node19 -->
<g id="node19" class="node">
<title>Node19</title>
<g id="a_node19"><a xlink:title=" ">
<polygon fill="white" stroke="#bfbfbf" points="681,-0.5 681,-19.5 774,-19.5 774,-0.5 681,-0.5"/>
<text text-anchor="middle" x="727.5" y="-7.5" font-family="Helvetica,sans-Serif" font-size="10.00">unordered_map</text>
</a>
</g>
</g>
<!-- Node17&#45;&gt;Node19 -->
<g id="edge21" class="edge">
<title>Node17&#45;&gt;Node19</title>
<path fill="none" stroke="midnightblue" d="M798.84,-56.32C785.58,-47.9 765.23,-34.97 749.65,-25.07"/>
<polygon fill="midnightblue" stroke="midnightblue" points="751.44,-22.06 741.12,-19.65 747.69,-27.97 751.44,-22.06"/>
</g>
<!-- Node20 -->
<g id="node20" class="node">
<title>Node20</title>
<g id="a_node20"><a xlink:title=" ">
<polygon fill="white" stroke="#bfbfbf" points="792.5,-0.5 792.5,-19.5 842.5,-19.5 842.5,-0.5 792.5,-0.5"/>
<text text-anchor="middle" x="817.5" y="-7.5" font-family="Helvetica,sans-Serif" font-size="10.00">ranges</text>
</a>
</g>
</g>
<!-- Node17&#45;&gt;Node20 -->
<g id="edge23" class="edge">
<title>Node17&#45;&gt;Node20</title>
<path fill="none" stroke="midnightblue" d="M813.33,-56.08C813.98,-49.01 814.92,-38.86 815.74,-29.99"/>
<polygon fill="midnightblue" stroke="midnightblue" points="819.25,-30.03 816.69,-19.75 812.28,-29.39 819.25,-30.03"/>
</g>
</g>
</svg>
