<?xml version="1.0" encoding="UTF-8" standalone="no"?>
<!DOCTYPE svg PUBLIC "-//W3C//DTD SVG 1.1//EN"
 "http://www.w3.org/Graphics/SVG/1.1/DTD/svg11.dtd">
<!-- Generated by graphviz version 2.43.0 (0)
 -->
<!-- Title: src/post.cpp Pages: 1 -->
<svg width="1142pt" height="196pt"
 viewBox="0.00 0.00 1141.50 196.00" xmlns="http://www.w3.org/2000/svg" xmlns:xlink="http://www.w3.org/1999/xlink">
<g id="graph0" class="graph" transform="scale(1 1) rotate(0) translate(4 192)">
<title>src/post.cpp</title>
<polygon fill="white" stroke="transparent" points="-4,4 -4,-192 1137.5,-192 1137.5,4 -4,4"/>
<!-- Node1 -->
<g id="node1" class="node">
<title>Node1</title>
<g id="a_node1"><a xlink:title=" ">
<polygon fill="#bfbfbf" stroke="black" points="395,-168.5 395,-187.5 470,-187.5 470,-168.5 395,-168.5"/>
<text text-anchor="middle" x="432.5" y="-175.5" font-family="Helvetica,sans-Serif" font-size="10.00">src/post.cpp</text>
</a>
</g>
</g>
<!-- Node2 -->
<g id="node2" class="node">
<title>Node2</title>
<g id="a_node2"><a xlink:title=" ">
<polygon fill="white" stroke="#bfbfbf" points="0,-112.5 0,-131.5 65,-131.5 65,-112.5 0,-112.5"/>
<text text-anchor="middle" x="32.5" y="-119.5" font-family="Helvetica,sans-Serif" font-size="10.00">lwip/opt.h</text>
</a>
</g>
</g>
<!-- Node1&#45;&gt;Node2 -->
<g id="edge1" class="edge">
<title>Node1&#45;&gt;Node2</title>
<path fill="none" stroke="midnightblue" d="M394.86,-173.43C331.04,-167.12 197.33,-152.83 75.03,-132.14"/>
<polygon fill="midnightblue" stroke="midnightblue" points="75.57,-128.68 65.12,-130.44 74.39,-135.58 75.57,-128.68"/>
</g>
<!-- Node3 -->
<g id="node3" class="node">
<title>Node3</title>
<g id="a_node3"><a xlink:title=" ">
<polygon fill="white" stroke="#bfbfbf" points="83,-112.5 83,-131.5 184,-131.5 184,-112.5 83,-112.5"/>
<text text-anchor="middle" x="133.5" y="-119.5" font-family="Helvetica,sans-Serif" font-size="10.00">lwip/apps/httpd.h</text>
</a>
</g>
</g>
<!-- Node1&#45;&gt;Node3 -->
<g id="edge2" class="edge">
<title>Node1&#45;&gt;Node3</title>
<path fill="none" stroke="midnightblue" d="M394.93,-170.22C343.56,-160.94 250.92,-144.21 190.84,-133.36"/>
<polygon fill="midnightblue" stroke="midnightblue" points="191.22,-129.87 180.75,-131.53 189.97,-136.76 191.22,-129.87"/>
</g>
<!-- Node4 -->
<g id="node4" class="node">
<title>Node4</title>
<g id="a_node4"><a xlink:title=" ">
<polygon fill="white" stroke="#bfbfbf" points="202.5,-112.5 202.5,-131.5 266.5,-131.5 266.5,-112.5 202.5,-112.5"/>
<text text-anchor="middle" x="234.5" y="-119.5" font-family="Helvetica,sans-Serif" font-size="10.00">lwip/def.h</text>
</a>
</g>
</g>
<!-- Node1&#45;&gt;Node4 -->
<g id="edge3" class="edge">
<title>Node1&#45;&gt;Node4</title>
<path fill="none" stroke="midnightblue" d="M401.13,-168.44C367.24,-159.2 313.1,-144.44 275.78,-134.26"/>
<polygon fill="midnightblue" stroke="midnightblue" points="276.3,-130.77 265.73,-131.52 274.45,-137.52 276.3,-130.77"/>
</g>
<!-- Node5 -->
<g id="node5" class="node">
<title>Node5</title>
<g id="a_node5"><a xlink:title=" ">
<polygon fill="white" stroke="#bfbfbf" points="284.5,-112.5 284.5,-131.5 358.5,-131.5 358.5,-112.5 284.5,-112.5"/>
<text text-anchor="middle" x="321.5" y="-119.5" font-family="Helvetica,sans-Serif" font-size="10.00">lwip/mem.h</text>
</a>
</g>
</g>
<!-- Node1&#45;&gt;Node5 -->
<g id="edge4" class="edge">
<title>Node1&#45;&gt;Node5</title>
<path fill="none" stroke="midnightblue" d="M414.67,-168.32C396.78,-159.62 369.02,-146.12 348.45,-136.11"/>
<polygon fill="midnightblue" stroke="midnightblue" points="349.81,-132.88 339.29,-131.65 346.75,-139.18 349.81,-132.88"/>
</g>
<!-- Node6 -->
<g id="node6" class="node">
<title>Node6</title>
<g id="a_node6"><a xlink:title=" ">
<polygon fill="white" stroke="#bfbfbf" points="376.5,-112.5 376.5,-131.5 422.5,-131.5 422.5,-112.5 376.5,-112.5"/>
<text text-anchor="middle" x="399.5" y="-119.5" font-family="Helvetica,sans-Serif" font-size="10.00">cstdio</text>
</a>
</g>
</g>
<!-- Node1&#45;&gt;Node6 -->
<g id="edge5" class="edge">
<title>Node1&#45;&gt;Node6</title>
<path fill="none" stroke="midnightblue" d="M427.05,-168.08C422.49,-160.61 415.83,-149.72 410.21,-140.52"/>
<polygon fill="midnightblue" stroke="midnightblue" points="413.05,-138.46 404.85,-131.75 407.08,-142.11 413.05,-138.46"/>
</g>
<!-- Node7 -->
<g id="node7" class="node">
<title>Node7</title>
<g id="a_node7"><a xlink:title=" ">
<polygon fill="white" stroke="#bfbfbf" points="440.5,-112.5 440.5,-131.5 490.5,-131.5 490.5,-112.5 440.5,-112.5"/>
<text text-anchor="middle" x="465.5" y="-119.5" font-family="Helvetica,sans-Serif" font-size="10.00">cstring</text>
</a>
</g>
</g>
<!-- Node1&#45;&gt;Node7 -->
<g id="edge6" class="edge">
<title>Node1&#45;&gt;Node7</title>
<path fill="none" stroke="midnightblue" d="M437.95,-168.08C442.51,-160.61 449.17,-149.72 454.79,-140.52"/>
<polygon fill="midnightblue" stroke="midnightblue" points="457.92,-142.11 460.15,-131.75 451.95,-138.46 457.92,-142.11"/>
</g>
<!-- Node8 -->
<g id="node8" class="node">
<title>Node8</title>
<g id="a_node8"><a xlink:title=" ">
<polygon fill="white" stroke="#bfbfbf" points="619.5,-0.5 619.5,-19.5 683.5,-19.5 683.5,-0.5 619.5,-0.5"/>
<text text-anchor="middle" x="651.5" y="-7.5" font-family="Helvetica,sans-Serif" font-size="10.00">algorithm</text>
</a>
</g>
</g>
<!-- Node1&#45;&gt;Node8 -->
<g id="edge7" class="edge">
<title>Node1&#45;&gt;Node8</title>
<path fill="none" stroke="midnightblue" d="M470.04,-175C527.35,-171.06 632.49,-160.12 655.5,-132 679.38,-102.82 667.83,-55.13 658.78,-29.19"/>
<polygon fill="midnightblue" stroke="midnightblue" points="661.94,-27.66 655.16,-19.52 655.39,-30.12 661.94,-27.66"/>
</g>
<!-- Node9 -->
<g id="node9" class="node">
<title>Node9</title>
<g id="a_node9"><a xlink:title=" ">
<polygon fill="white" stroke="#bfbfbf" points="894.5,-56.5 894.5,-75.5 938.5,-75.5 938.5,-56.5 894.5,-56.5"/>
<text text-anchor="middle" x="916.5" y="-63.5" font-family="Helvetica,sans-Serif" font-size="10.00">string</text>
</a>
</g>
</g>
<!-- Node1&#45;&gt;Node9 -->
<g id="edge8" class="edge">
<title>Node1&#45;&gt;Node9</title>
<path fill="none" stroke="midnightblue" d="M470.32,-177.71C566.16,-178.82 815.66,-177.17 882.5,-132 898.29,-121.33 907.24,-100.92 911.95,-85.8"/>
<polygon fill="midnightblue" stroke="midnightblue" points="915.38,-86.52 914.67,-75.95 908.63,-84.66 915.38,-86.52"/>
</g>
<!-- Node10 -->
<g id="node10" class="node">
<title>Node10</title>
<g id="a_node10"><a xlink:href="shared_8hpp.html" target="_top" xlink:title=" ">
<polygon fill="white" stroke="black" points="508.5,-112.5 508.5,-131.5 646.5,-131.5 646.5,-112.5 508.5,-112.5"/>
<text text-anchor="middle" x="577.5" y="-119.5" font-family="Helvetica,sans-Serif" font-size="10.00">RoL/threaded/shared.hpp</text>
</a>
</g>
</g>
<!-- Node1&#45;&gt;Node10 -->
<g id="edge9" class="edge">
<title>Node1&#45;&gt;Node10</title>
<path fill="none" stroke="midnightblue" d="M455.48,-168.44C479.66,-159.44 517.92,-145.19 545.15,-135.05"/>
<polygon fill="midnightblue" stroke="midnightblue" points="546.48,-138.29 554.63,-131.52 544.04,-131.73 546.48,-138.29"/>
</g>
<!-- Node16 -->
<g id="node16" class="node">
<title>Node16</title>
<g id="a_node16"><a xlink:href="emulator_8hpp.html" target="_top" xlink:title=" ">
<polygon fill="white" stroke="black" points="718,-112.5 718,-131.5 873,-131.5 873,-112.5 718,-112.5"/>
<text text-anchor="middle" x="795.5" y="-119.5" font-family="Helvetica,sans-Serif" font-size="10.00">RoL/emulation/emulator.hpp</text>
</a>
</g>
</g>
<!-- Node1&#45;&gt;Node16 -->
<g id="edge16" class="edge">
<title>Node1&#45;&gt;Node16</title>
<path fill="none" stroke="midnightblue" d="M470.32,-171.37C531.32,-162.3 652.25,-144.31 728.22,-133.01"/>
<polygon fill="midnightblue" stroke="midnightblue" points="728.79,-136.46 738.17,-131.53 727.76,-129.54 728.79,-136.46"/>
</g>
<!-- Node11 -->
<g id="node11" class="node">
<title>Node11</title>
<g id="a_node11"><a xlink:href="queue_8hpp.html" target="_top" xlink:title=" ">
<polygon fill="white" stroke="black" points="357,-56.5 357,-75.5 492,-75.5 492,-56.5 357,-56.5"/>
<text text-anchor="middle" x="424.5" y="-63.5" font-family="Helvetica,sans-Serif" font-size="10.00">RoL/threaded/queue.hpp</text>
</a>
</g>
</g>
<!-- Node10&#45;&gt;Node11 -->
<g id="edge10" class="edge">
<title>Node10&#45;&gt;Node11</title>
<path fill="none" stroke="midnightblue" d="M553.26,-112.44C527.63,-103.4 487.01,-89.06 458.26,-78.92"/>
<polygon fill="midnightblue" stroke="midnightblue" points="459.22,-75.54 448.63,-75.52 456.89,-82.15 459.22,-75.54"/>
</g>
<!-- Node14 -->
<g id="node14" class="node">
<title>Node14</title>
<g id="a_node14"><a xlink:href="vector_8hpp.html" target="_top" xlink:title=" ">
<polygon fill="white" stroke="black" points="510,-56.5 510,-75.5 645,-75.5 645,-56.5 510,-56.5"/>
<text text-anchor="middle" x="577.5" y="-63.5" font-family="Helvetica,sans-Serif" font-size="10.00">RoL/threaded/vector.hpp</text>
</a>
</g>
</g>
<!-- Node10&#45;&gt;Node14 -->
<g id="edge13" class="edge">
<title>Node10&#45;&gt;Node14</title>
<path fill="none" stroke="midnightblue" d="M577.5,-112.08C577.5,-105.01 577.5,-94.86 577.5,-85.99"/>
<polygon fill="midnightblue" stroke="midnightblue" points="581,-85.75 577.5,-75.75 574,-85.75 581,-85.75"/>
</g>
<!-- Node12 -->
<g id="node12" class="node">
<title>Node12</title>
<g id="a_node12"><a xlink:title=" ">
<polygon fill="white" stroke="#bfbfbf" points="455.5,-0.5 455.5,-19.5 535.5,-19.5 535.5,-0.5 455.5,-0.5"/>
<text text-anchor="middle" x="495.5" y="-7.5" font-family="Helvetica,sans-Serif" font-size="10.00">pico/mutex.h</text>
</a>
</g>
</g>
<!-- Node11&#45;&gt;Node12 -->
<g id="edge11" class="edge">
<title>Node11&#45;&gt;Node12</title>
<path fill="none" stroke="midnightblue" d="M435.91,-56.32C446.61,-48.18 462.84,-35.84 475.66,-26.09"/>
<polygon fill="midnightblue" stroke="midnightblue" points="478.04,-28.67 483.89,-19.83 473.81,-23.1 478.04,-28.67"/>
</g>
<!-- Node13 -->
<g id="node13" class="node">
<title>Node13</title>
<g id="a_node13"><a xlink:title=" ">
<polygon fill="white" stroke="#bfbfbf" points="390,-0.5 390,-19.5 437,-19.5 437,-0.5 390,-0.5"/>
<text text-anchor="middle" x="413.5" y="-7.5" font-family="Helvetica,sans-Serif" font-size="10.00">queue</text>
</a>
</g>
</g>
<!-- Node11&#45;&gt;Node13 -->
<g id="edge12" class="edge">
<title>Node11&#45;&gt;Node13</title>
<path fill="none" stroke="midnightblue" d="M422.68,-56.08C421.23,-48.93 419.13,-38.64 417.31,-29.69"/>
<polygon fill="midnightblue" stroke="midnightblue" points="420.71,-28.85 415.28,-19.75 413.85,-30.25 420.71,-28.85"/>
</g>
<!-- Node14&#45;&gt;Node12 -->
<g id="edge14" class="edge">
<title>Node14&#45;&gt;Node12</title>
<path fill="none" stroke="midnightblue" d="M564.33,-56.32C551.65,-47.98 532.27,-35.21 517.29,-25.35"/>
<polygon fill="midnightblue" stroke="midnightblue" points="518.92,-22.23 508.64,-19.65 515.07,-28.08 518.92,-22.23"/>
</g>
<!-- Node15 -->
<g id="node15" class="node">
<title>Node15</title>
<g id="a_node15"><a xlink:title=" ">
<polygon fill="white" stroke="#bfbfbf" points="554,-0.5 554,-19.5 601,-19.5 601,-0.5 554,-0.5"/>
<text text-anchor="middle" x="577.5" y="-7.5" font-family="Helvetica,sans-Serif" font-size="10.00">vector</text>
</a>
</g>
</g>
<!-- Node14&#45;&gt;Node15 -->
<g id="edge15" class="edge">
<title>Node14&#45;&gt;Node15</title>
<path fill="none" stroke="midnightblue" d="M577.5,-56.08C577.5,-49.01 577.5,-38.86 577.5,-29.99"/>
<polygon fill="midnightblue" stroke="midnightblue" points="581,-29.75 577.5,-19.75 574,-29.75 581,-29.75"/>
</g>
<!-- Node16&#45;&gt;Node9 -->
<g id="edge18" class="edge">
<title>Node16&#45;&gt;Node9</title>
<path fill="none" stroke="midnightblue" d="M814.67,-112.44C834.41,-103.64 865.39,-89.81 887.99,-79.72"/>
<polygon fill="midnightblue" stroke="midnightblue" points="889.71,-82.79 897.42,-75.52 886.86,-76.4 889.71,-82.79"/>
</g>
<!-- Node16&#45;&gt;Node15 -->
<g id="edge19" class="edge">
<title>Node16&#45;&gt;Node15</title>
<path fill="none" stroke="midnightblue" d="M778.39,-112.37C740.43,-93.21 648.92,-47.04 603.69,-24.22"/>
<polygon fill="midnightblue" stroke="midnightblue" points="605.03,-20.97 594.53,-19.59 601.88,-27.22 605.03,-20.97"/>
</g>
<!-- Node17 -->
<g id="node17" class="node">
<title>Node17</title>
<g id="a_node17"><a xlink:title=" ">
<polygon fill="white" stroke="#bfbfbf" points="1089.5,-0.5 1089.5,-19.5 1133.5,-19.5 1133.5,-0.5 1089.5,-0.5"/>
<text text-anchor="middle" x="1111.5" y="-7.5" font-family="Helvetica,sans-Serif" font-size="10.00">bitset</text>
</a>
</g>
</g>
<!-- Node16&#45;&gt;Node17 -->
<g id="edge17" class="edge">
<title>Node16&#45;&gt;Node17</title>
<path fill="none" stroke="midnightblue" d="M804.61,-112.24C819.96,-98.02 852.54,-70.09 885.5,-56 963.61,-22.61 992.63,-39.01 1079.23,-20.04"/>
<polygon fill="midnightblue" stroke="midnightblue" points="1080.25,-23.4 1089.22,-17.76 1078.69,-16.58 1080.25,-23.4"/>
</g>
<!-- Node18 -->
<g id="node18" class="node">
<title>Node18</title>
<g id="a_node18"><a xlink:href="parse_8hpp.html" target="_top" xlink:title=" ">
<polygon fill="white" stroke="black" points="752.5,-56.5 752.5,-75.5 838.5,-75.5 838.5,-56.5 752.5,-56.5"/>
<text text-anchor="middle" x="795.5" y="-63.5" font-family="Helvetica,sans-Serif" font-size="10.00">RoL/parse.hpp</text>
</a>
</g>
</g>
<!-- Node16&#45;&gt;Node18 -->
<g id="edge20" class="edge">
<title>Node16&#45;&gt;Node18</title>
<path fill="none" stroke="midnightblue" d="M795.5,-112.08C795.5,-105.01 795.5,-94.86 795.5,-85.99"/>
<polygon fill="midnightblue" stroke="midnightblue" points="799,-85.75 795.5,-75.75 792,-85.75 799,-85.75"/>
</g>
<!-- Node18&#45;&gt;Node8 -->
<g id="edge21" class="edge">
<title>Node18&#45;&gt;Node8</title>
<path fill="none" stroke="midnightblue" d="M772.68,-56.44C748.67,-47.44 710.67,-33.19 683.63,-23.05"/>
<polygon fill="midnightblue" stroke="midnightblue" points="684.8,-19.75 674.21,-19.52 682.34,-26.3 684.8,-19.75"/>
</g>
<!-- Node18&#45;&gt;Node15 -->
<g id="edge27" class="edge">
<title>Node18&#45;&gt;Node15</title>
<path fill="none" stroke="midnightblue" d="M759.27,-56.5C723.96,-48.15 668.51,-34.85 611.23,-20.13"/>
<polygon fill="midnightblue" stroke="midnightblue" points="611.83,-16.67 601.27,-17.57 610.08,-23.45 611.83,-16.67"/>
</g>
<!-- Node18&#45;&gt;Node17 -->
<g id="edge22" class="edge">
<title>Node18&#45;&gt;Node17</title>
<path fill="none" stroke="midnightblue" d="M838.75,-58.17C908.46,-47.17 1041.13,-26.23 1079.18,-19.68"/>
<polygon fill="midnightblue" stroke="midnightblue" points="1080.04,-23.08 1089.24,-17.83 1078.77,-16.2 1080.04,-23.08"/>
</g>
<!-- Node19 -->
<g id="node19" class="node">
<title>Node19</title>
<g id="a_node19"><a xlink:title=" ">
<polygon fill="white" stroke="#bfbfbf" points="770,-0.5 770,-19.5 831,-19.5 831,-0.5 770,-0.5"/>
<text text-anchor="middle" x="800.5" y="-7.5" font-family="Helvetica,sans-Serif" font-size="10.00">charconv</text>
</a>
</g>
</g>
<!-- Node18&#45;&gt;Node19 -->
<g id="edge23" class="edge">
<title>Node18&#45;&gt;Node19</title>
<path fill="none" stroke="midnightblue" d="M796.33,-56.08C796.98,-49.01 797.92,-38.86 798.74,-29.99"/>
<polygon fill="midnightblue" stroke="midnightblue" points="802.25,-30.03 799.69,-19.75 795.28,-29.39 802.25,-30.03"/>
</g>
<!-- Node20 -->
<g id="node20" class="node">
<title>Node20</title>
<g id="a_node20"><a xlink:title=" ">
<polygon fill="white" stroke="#bfbfbf" points="849.5,-0.5 849.5,-19.5 899.5,-19.5 899.5,-0.5 849.5,-0.5"/>
<text text-anchor="middle" x="874.5" y="-7.5" font-family="Helvetica,sans-Serif" font-size="10.00">cstdint</text>
</a>
</g>
</g>
<!-- Node18&#45;&gt;Node20 -->
<g id="edge24" class="edge">
<title>Node18&#45;&gt;Node20</title>
<path fill="none" stroke="midnightblue" d="M808.19,-56.32C820.4,-47.98 839.08,-35.21 853.5,-25.35"/>
<polygon fill="midnightblue" stroke="midnightblue" points="855.56,-28.19 861.84,-19.65 851.61,-22.41 855.56,-28.19"/>
</g>
<!-- Node21 -->
<g id="node21" class="node">
<title>Node21</title>
<g id="a_node21"><a xlink:title=" ">
<polygon fill="white" stroke="#bfbfbf" points="918,-0.5 918,-19.5 1011,-19.5 1011,-0.5 918,-0.5"/>
<text text-anchor="middle" x="964.5" y="-7.5" font-family="Helvetica,sans-Serif" font-size="10.00">unordered_map</text>
</a>
</g>
</g>
<!-- Node18&#45;&gt;Node21 -->
<g id="edge25" class="edge">
<title>Node18&#45;&gt;Node21</title>
<path fill="none" stroke="midnightblue" d="M822.28,-56.44C850.83,-47.32 896.23,-32.81 928.04,-22.65"/>
<polygon fill="midnightblue" stroke="midnightblue" points="929.39,-25.89 937.85,-19.52 927.26,-19.23 929.39,-25.89"/>
</g>
<!-- Node22 -->
<g id="node22" class="node">
<title>Node22</title>
<g id="a_node22"><a xlink:title=" ">
<polygon fill="white" stroke="#bfbfbf" points="1029.5,-0.5 1029.5,-19.5 1071.5,-19.5 1071.5,-0.5 1029.5,-0.5"/>
<text text-anchor="middle" x="1050.5" y="-7.5" font-family="Helvetica,sans-Serif" font-size="10.00">array</text>
</a>
</g>
</g>
<!-- Node18&#45;&gt;Node22 -->
<g id="edge26" class="edge">
<title>Node18&#45;&gt;Node22</title>
<path fill="none" stroke="midnightblue" d="M838.9,-57.57C882.28,-49.87 951.06,-36.91 1019.21,-20.14"/>
<polygon fill="midnightblue" stroke="midnightblue" points="1020.4,-23.45 1029.26,-17.64 1018.71,-16.66 1020.4,-23.45"/>
</g>
<!-- Node23 -->
<g id="node23" class="node">
<title>Node23</title>
<g id="a_node23"><a xlink:title=" ">
<polygon fill="white" stroke="#bfbfbf" points="701.5,-0.5 701.5,-19.5 751.5,-19.5 751.5,-0.5 701.5,-0.5"/>
<text text-anchor="middle" x="726.5" y="-7.5" font-family="Helvetica,sans-Serif" font-size="10.00">ranges</text>
</a>
</g>
</g>
<!-- Node18&#45;&gt;Node23 -->
<g id="edge28" class="edge">
<title>Node18&#45;&gt;Node23</title>
<path fill="none" stroke="midnightblue" d="M784.41,-56.32C774.01,-48.18 758.24,-35.84 745.78,-26.09"/>
<polygon fill="midnightblue" stroke="midnightblue" points="747.82,-23.24 737.79,-19.83 743.51,-28.75 747.82,-23.24"/>
</g>
</g>
</svg>
