<?xml version="1.0" encoding="UTF-8" standalone="no"?>
<!DOCTYPE svg PUBLIC "-//W3C//DTD SVG 1.1//EN"
 "http://www.w3.org/Graphics/SVG/1.1/DTD/svg11.dtd">
<!-- Generated by graphviz version 2.43.0 (0)
 -->
<!-- Title: httpd_post_receive_data Pages: 1 -->
<svg width="314pt" height="329pt"
 viewBox="0.00 0.00 314.00 329.00" xmlns="http://www.w3.org/2000/svg" xmlns:xlink="http://www.w3.org/1999/xlink">
<g id="graph0" class="graph" transform="scale(1 1) rotate(0) translate(4 325)">
<title>httpd_post_receive_data</title>
<polygon fill="white" stroke="transparent" points="-4,4 -4,-325 310,-325 310,4 -4,4"/>
<!-- Node1 -->
<g id="node1" class="node">
<title>Node1</title>
<g id="a_node1"><a xlink:title=" ">
<polygon fill="#bfbfbf" stroke="black" points="0,-145 0,-164 137,-164 137,-145 0,-145"/>
<text text-anchor="middle" x="68.5" y="-152" font-family="Helvetica,sans-Serif" font-size="10.00">httpd_post_receive_data</text>
</a>
</g>
</g>
<!-- Node2 -->
<g id="node2" class="node">
<title>Node2</title>
<g id="a_node2"><a xlink:href="classconcurrent__vector.html#a781554e96ab42b9e3f4972224d328d65" target="_top" xlink:title=" ">
<polygon fill="white" stroke="black" points="184.5,-290.5 184.5,-320.5 294.5,-320.5 294.5,-290.5 184.5,-290.5"/>
<text text-anchor="start" x="192.5" y="-308.5" font-family="Helvetica,sans-Serif" font-size="10.00">concurrent_vector::</text>
<text text-anchor="middle" x="239.5" y="-297.5" font-family="Helvetica,sans-Serif" font-size="10.00">begin</text>
</a>
</g>
</g>
<!-- Node1&#45;&gt;Node2 -->
<g id="edge1" class="edge">
<title>Node1&#45;&gt;Node2</title>
<path fill="none" stroke="midnightblue" d="M74.97,-164.15C88.61,-187.37 126.36,-246.93 173,-280.5 175.54,-282.33 178.22,-284.04 181,-285.64"/>
<polygon fill="midnightblue" stroke="midnightblue" points="179.65,-288.88 190.14,-290.38 182.87,-282.67 179.65,-288.88"/>
</g>
<!-- Node3 -->
<g id="node3" class="node">
<title>Node3</title>
<g id="a_node3"><a xlink:href="classconcurrent__vector.html#a26e2bd5d0d65f524424e3beee4785622" target="_top" xlink:title=" ">
<polygon fill="white" stroke="black" points="175.5,-252 175.5,-271 303.5,-271 303.5,-252 175.5,-252"/>
<text text-anchor="middle" x="239.5" y="-259" font-family="Helvetica,sans-Serif" font-size="10.00">concurrent_vector::end</text>
</a>
</g>
</g>
<!-- Node1&#45;&gt;Node3 -->
<g id="edge2" class="edge">
<title>Node1&#45;&gt;Node3</title>
<path fill="none" stroke="midnightblue" d="M78.19,-164.23C94.84,-182.27 133.12,-221.05 173,-242.5 177.21,-244.76 181.72,-246.79 186.33,-248.59"/>
<polygon fill="midnightblue" stroke="midnightblue" points="185.29,-251.93 195.88,-251.98 187.63,-245.33 185.29,-251.93"/>
</g>
<!-- Node4 -->
<g id="node4" class="node">
<title>Node4</title>
<g id="a_node4"><a xlink:href="classconcurrent__vector.html#a4816dd67e2542cd82b1facdabe477a31" target="_top" xlink:title=" ">
<polygon fill="white" stroke="black" points="184.5,-202.5 184.5,-232.5 294.5,-232.5 294.5,-202.5 184.5,-202.5"/>
<text text-anchor="start" x="192.5" y="-220.5" font-family="Helvetica,sans-Serif" font-size="10.00">concurrent_vector::</text>
<text text-anchor="middle" x="239.5" y="-209.5" font-family="Helvetica,sans-Serif" font-size="10.00">erase</text>
</a>
</g>
</g>
<!-- Node1&#45;&gt;Node4 -->
<g id="edge3" class="edge">
<title>Node1&#45;&gt;Node4</title>
<path fill="none" stroke="midnightblue" d="M95.17,-164.07C119.83,-173.26 157.77,-187.4 188.42,-198.83"/>
<polygon fill="midnightblue" stroke="midnightblue" points="187.49,-202.22 198.09,-202.43 189.94,-195.66 187.49,-202.22"/>
</g>
<!-- Node5 -->
<g id="node5" class="node">
<title>Node5</title>
<g id="a_node5"><a xlink:href="classconcurrent__vector.html#af99a6039a1177d9b2c4997288b974533" target="_top" xlink:title=" ">
<polygon fill="white" stroke="black" points="174,-164 174,-183 305,-183 305,-164 174,-164"/>
<text text-anchor="middle" x="239.5" y="-171" font-family="Helvetica,sans-Serif" font-size="10.00">concurrent_vector::lock</text>
</a>
</g>
</g>
<!-- Node1&#45;&gt;Node5 -->
<g id="edge4" class="edge">
<title>Node1&#45;&gt;Node5</title>
<path fill="none" stroke="midnightblue" d="M137.26,-162.12C145.91,-163.09 154.8,-164.09 163.55,-165.07"/>
<polygon fill="midnightblue" stroke="midnightblue" points="163.41,-168.58 173.74,-166.22 164.19,-161.62 163.41,-168.58"/>
</g>
<!-- Node6 -->
<g id="node6" class="node">
<title>Node6</title>
<g id="a_node6"><a xlink:href="classconcurrent__queue.html#a6098253682efb5ed8930f8f60342b761" target="_top" xlink:title="Push an item onto the stack, doing an emplace_back() in the background.">
<polygon fill="white" stroke="black" points="173,-126 173,-145 306,-145 306,-126 173,-126"/>
<text text-anchor="middle" x="239.5" y="-133" font-family="Helvetica,sans-Serif" font-size="10.00">concurrent_queue::push</text>
</a>
</g>
</g>
<!-- Node1&#45;&gt;Node6 -->
<g id="edge5" class="edge">
<title>Node1&#45;&gt;Node6</title>
<path fill="none" stroke="midnightblue" d="M137.26,-146.88C145.71,-145.93 154.39,-144.96 162.95,-143.99"/>
<polygon fill="midnightblue" stroke="midnightblue" points="163.37,-147.47 172.92,-142.87 162.59,-140.51 163.37,-147.47"/>
</g>
<!-- Node7 -->
<g id="node7" class="node">
<title>Node7</title>
<g id="a_node7"><a xlink:href="classconcurrent__queue.html#aff708b19304d9c28c0b12e0507e426df" target="_top" xlink:title=" ">
<polygon fill="white" stroke="black" points="175,-88 175,-107 304,-107 304,-88 175,-88"/>
<text text-anchor="middle" x="239.5" y="-95" font-family="Helvetica,sans-Serif" font-size="10.00">concurrent_queue::size</text>
</a>
</g>
</g>
<!-- Node1&#45;&gt;Node7 -->
<g id="edge6" class="edge">
<title>Node1&#45;&gt;Node7</title>
<path fill="none" stroke="midnightblue" d="M94.01,-144.96C114.87,-136.96 145.72,-125.45 173,-116.5 179.88,-114.24 187.22,-111.98 194.4,-109.84"/>
<polygon fill="midnightblue" stroke="midnightblue" points="195.42,-113.19 204.03,-107.01 193.45,-106.47 195.42,-113.19"/>
</g>
<!-- Node8 -->
<g id="node8" class="node">
<title>Node8</title>
<g id="a_node8"><a xlink:href="classconcurrent__vector.html#ab9861a78f8ea436d4faa94925d3b9ac1" target="_top" xlink:title=" ">
<polygon fill="white" stroke="black" points="174.5,-50 174.5,-69 304.5,-69 304.5,-50 174.5,-50"/>
<text text-anchor="middle" x="239.5" y="-57" font-family="Helvetica,sans-Serif" font-size="10.00">concurrent_vector::size</text>
</a>
</g>
</g>
<!-- Node1&#45;&gt;Node8 -->
<g id="edge7" class="edge">
<title>Node1&#45;&gt;Node8</title>
<path fill="none" stroke="midnightblue" d="M79.85,-144.93C97.62,-128.99 135.61,-96.93 173,-78.5 177.6,-76.24 182.51,-74.19 187.5,-72.36"/>
<polygon fill="midnightblue" stroke="midnightblue" points="188.78,-75.63 197.13,-69.1 186.54,-68.99 188.78,-75.63"/>
</g>
<!-- Node9 -->
<g id="node9" class="node">
<title>Node9</title>
<g id="a_node9"><a xlink:href="classconcurrent__vector.html#a490a93f96b5be4920dd9999fbd263f3c" target="_top" xlink:title=" ">
<polygon fill="white" stroke="black" points="184.5,-0.5 184.5,-30.5 294.5,-30.5 294.5,-0.5 184.5,-0.5"/>
<text text-anchor="start" x="192.5" y="-18.5" font-family="Helvetica,sans-Serif" font-size="10.00">concurrent_vector::</text>
<text text-anchor="middle" x="239.5" y="-7.5" font-family="Helvetica,sans-Serif" font-size="10.00">unlock</text>
</a>
</g>
</g>
<!-- Node1&#45;&gt;Node9 -->
<g id="edge8" class="edge">
<title>Node1&#45;&gt;Node9</title>
<path fill="none" stroke="midnightblue" d="M75.85,-144.85C90.51,-123.27 128.85,-70.65 173,-40.5 175.85,-38.55 178.87,-36.73 182,-35.03"/>
<polygon fill="midnightblue" stroke="midnightblue" points="183.6,-38.14 191,-30.55 180.48,-31.87 183.6,-38.14"/>
</g>
</g>
</svg>
