<?xml version="1.0" encoding="UTF-8" standalone="no"?>
<!DOCTYPE svg PUBLIC "-//W3C//DTD SVG 1.1//EN"
 "http://www.w3.org/Graphics/SVG/1.1/DTD/svg11.dtd">
<!-- Generated by graphviz version 2.43.0 (0)
 -->
<!-- Title: httpd_post_receive_data Pages: 1 -->
<svg width="314pt" height="291pt"
 viewBox="0.00 0.00 314.00 291.00" xmlns="http://www.w3.org/2000/svg" xmlns:xlink="http://www.w3.org/1999/xlink">
<g id="graph0" class="graph" transform="scale(1 1) rotate(0) translate(4 287)">
<title>httpd_post_receive_data</title>
<polygon fill="white" stroke="transparent" points="-4,4 -4,-287 310,-287 310,4 -4,4"/>
<!-- Node1 -->
<g id="node1" class="node">
<title>Node1</title>
<g id="a_node1"><a xlink:title=" ">
<polygon fill="#bfbfbf" stroke="black" points="0,-132 0,-151 137,-151 137,-132 0,-132"/>
<text text-anchor="middle" x="68.5" y="-139" font-family="Helvetica,sans-Serif" font-size="10.00">httpd_post_receive_data</text>
</a>
</g>
</g>
<!-- Node2 -->
<g id="node2" class="node">
<title>Node2</title>
<g id="a_node2"><a xlink:href="classconcurrent__vector.html#a781554e96ab42b9e3f4972224d328d65" target="_top" xlink:title=" ">
<polygon fill="white" stroke="black" points="184.5,-252.5 184.5,-282.5 294.5,-282.5 294.5,-252.5 184.5,-252.5"/>
<text text-anchor="start" x="192.5" y="-270.5" font-family="Helvetica,sans-Serif" font-size="10.00">concurrent_vector::</text>
<text text-anchor="middle" x="239.5" y="-259.5" font-family="Helvetica,sans-Serif" font-size="10.00">begin</text>
</a>
</g>
</g>
<!-- Node1&#45;&gt;Node2 -->
<g id="edge1" class="edge">
<title>Node1&#45;&gt;Node2</title>
<path fill="none" stroke="midnightblue" d="M77.06,-151.18C92.9,-170.87 131.54,-215.99 173,-242.5 176.11,-244.49 179.39,-246.35 182.77,-248.1"/>
<polygon fill="midnightblue" stroke="midnightblue" points="181.36,-251.3 191.89,-252.44 184.37,-244.98 181.36,-251.3"/>
</g>
<!-- Node3 -->
<g id="node3" class="node">
<title>Node3</title>
<g id="a_node3"><a xlink:href="namespaceparse.html#a838cb9143367db8b56b28f0ce809bb9c" target="_top" xlink:title=" ">
<polygon fill="white" stroke="black" points="184.5,-214 184.5,-233 294.5,-233 294.5,-214 184.5,-214"/>
<text text-anchor="middle" x="239.5" y="-221" font-family="Helvetica,sans-Serif" font-size="10.00">parse::decode_ram</text>
</a>
</g>
</g>
<!-- Node1&#45;&gt;Node3 -->
<g id="edge2" class="edge">
<title>Node1&#45;&gt;Node3</title>
<path fill="none" stroke="midnightblue" d="M82.6,-151.05C101.67,-164.58 138.54,-189.33 173,-204.5 178.15,-206.77 183.64,-208.84 189.17,-210.73"/>
<polygon fill="midnightblue" stroke="midnightblue" points="188.52,-214.19 199.11,-213.91 190.65,-207.53 188.52,-214.19"/>
</g>
<!-- Node4 -->
<g id="node4" class="node">
<title>Node4</title>
<g id="a_node4"><a xlink:href="classconcurrent__vector.html#a26e2bd5d0d65f524424e3beee4785622" target="_top" xlink:title=" ">
<polygon fill="white" stroke="black" points="175.5,-176 175.5,-195 303.5,-195 303.5,-176 175.5,-176"/>
<text text-anchor="middle" x="239.5" y="-183" font-family="Helvetica,sans-Serif" font-size="10.00">concurrent_vector::end</text>
</a>
</g>
</g>
<!-- Node1&#45;&gt;Node4 -->
<g id="edge3" class="edge">
<title>Node1&#45;&gt;Node4</title>
<path fill="none" stroke="midnightblue" d="M106.17,-151.05C131.31,-157.59 164.86,-166.33 191.89,-173.37"/>
<polygon fill="midnightblue" stroke="midnightblue" points="191.34,-176.84 201.9,-175.97 193.11,-170.06 191.34,-176.84"/>
</g>
<!-- Node5 -->
<g id="node5" class="node">
<title>Node5</title>
<g id="a_node5"><a xlink:href="classconcurrent__vector.html#a4816dd67e2542cd82b1facdabe477a31" target="_top" xlink:title=" ">
<polygon fill="white" stroke="black" points="184.5,-126.5 184.5,-156.5 294.5,-156.5 294.5,-126.5 184.5,-126.5"/>
<text text-anchor="start" x="192.5" y="-144.5" font-family="Helvetica,sans-Serif" font-size="10.00">concurrent_vector::</text>
<text text-anchor="middle" x="239.5" y="-133.5" font-family="Helvetica,sans-Serif" font-size="10.00">erase</text>
</a>
</g>
</g>
<!-- Node1&#45;&gt;Node5 -->
<g id="edge4" class="edge">
<title>Node1&#45;&gt;Node5</title>
<path fill="none" stroke="midnightblue" d="M137.26,-141.5C149.53,-141.5 162.29,-141.5 174.45,-141.5"/>
<polygon fill="midnightblue" stroke="midnightblue" points="174.5,-145 184.5,-141.5 174.5,-138 174.5,-145"/>
</g>
<!-- Node6 -->
<g id="node6" class="node">
<title>Node6</title>
<g id="a_node6"><a xlink:href="classconcurrent__vector.html#af99a6039a1177d9b2c4997288b974533" target="_top" xlink:title=" ">
<polygon fill="white" stroke="black" points="174,-88 174,-107 305,-107 305,-88 174,-88"/>
<text text-anchor="middle" x="239.5" y="-95" font-family="Helvetica,sans-Serif" font-size="10.00">concurrent_vector::lock</text>
</a>
</g>
</g>
<!-- Node1&#45;&gt;Node6 -->
<g id="edge5" class="edge">
<title>Node1&#45;&gt;Node6</title>
<path fill="none" stroke="midnightblue" d="M106.17,-131.95C131.31,-125.41 164.86,-116.67 191.89,-109.63"/>
<polygon fill="midnightblue" stroke="midnightblue" points="193.11,-112.94 201.9,-107.03 191.34,-106.16 193.11,-112.94"/>
</g>
<!-- Node7 -->
<g id="node7" class="node">
<title>Node7</title>
<g id="a_node7"><a xlink:href="classconcurrent__queue.html#a6098253682efb5ed8930f8f60342b761" target="_top" xlink:title="Push an item onto the stack, doing an emplace_back() in the background.">
<polygon fill="white" stroke="black" points="173,-50 173,-69 306,-69 306,-50 173,-50"/>
<text text-anchor="middle" x="239.5" y="-57" font-family="Helvetica,sans-Serif" font-size="10.00">concurrent_queue::push</text>
</a>
</g>
</g>
<!-- Node1&#45;&gt;Node7 -->
<g id="edge6" class="edge">
<title>Node1&#45;&gt;Node7</title>
<path fill="none" stroke="midnightblue" d="M82.6,-131.95C101.67,-118.42 138.54,-93.67 173,-78.5 178.15,-76.23 183.64,-74.16 189.17,-72.27"/>
<polygon fill="midnightblue" stroke="midnightblue" points="190.65,-75.47 199.11,-69.09 188.52,-68.81 190.65,-75.47"/>
</g>
<!-- Node8 -->
<g id="node8" class="node">
<title>Node8</title>
<g id="a_node8"><a xlink:href="classconcurrent__vector.html#a490a93f96b5be4920dd9999fbd263f3c" target="_top" xlink:title=" ">
<polygon fill="white" stroke="black" points="184.5,-0.5 184.5,-30.5 294.5,-30.5 294.5,-0.5 184.5,-0.5"/>
<text text-anchor="start" x="192.5" y="-18.5" font-family="Helvetica,sans-Serif" font-size="10.00">concurrent_vector::</text>
<text text-anchor="middle" x="239.5" y="-7.5" font-family="Helvetica,sans-Serif" font-size="10.00">unlock</text>
</a>
</g>
</g>
<!-- Node1&#45;&gt;Node8 -->
<g id="edge7" class="edge">
<title>Node1&#45;&gt;Node8</title>
<path fill="none" stroke="midnightblue" d="M77.06,-131.82C92.9,-112.13 131.54,-67.01 173,-40.5 176.11,-38.51 179.39,-36.65 182.77,-34.9"/>
<polygon fill="midnightblue" stroke="midnightblue" points="184.37,-38.02 191.89,-30.56 181.36,-31.7 184.37,-38.02"/>
</g>
</g>
</svg>
