<?xml version="1.0" encoding="UTF-8" standalone="no"?>
<!DOCTYPE svg PUBLIC "-//W3C//DTD SVG 1.1//EN"
 "http://www.w3.org/Graphics/SVG/1.1/DTD/svg11.dtd">
<!-- Generated by graphviz version 2.43.0 (0)
 -->
<!-- Title: httpd_post_receive_data Pages: 1 -->
<svg width="314pt" height="358pt"
 viewBox="0.00 0.00 314.00 358.00" xmlns="http://www.w3.org/2000/svg" xmlns:xlink="http://www.w3.org/1999/xlink">
<g id="graph0" class="graph" transform="scale(1 1) rotate(0) translate(4 354)">
<title>httpd_post_receive_data</title>
<!-- Node1 -->
<g id="Node000001" class="node">
<title>Node1</title>
<g id="a_Node000001"><a xlink:title=" ">
<polygon fill="#999999" stroke="#666666" points="137,-178.5 0,-178.5 0,-159.5 137,-159.5 137,-178.5"/>
<text text-anchor="middle" x="68.5" y="-166.5" font-family="Helvetica,sans-Serif" font-size="10.00">httpd_post_receive_data</text>
</a>
</g>
</g>
<!-- Node2 -->
<g id="Node000002" class="node">
<title>Node2</title>
<g id="a_Node000002"><a xlink:href="classconcurrent__vector.html#a781554e96ab42b9e3f4972224d328d65" target="_top" xlink:title=" ">
<polygon fill="white" stroke="#666666" points="294.5,-350 184.5,-350 184.5,-320 294.5,-320 294.5,-350"/>
<text text-anchor="start" x="192.5" y="-338" font-family="Helvetica,sans-Serif" font-size="10.00">concurrent_vector::</text>
<text text-anchor="middle" x="239.5" y="-327" font-family="Helvetica,sans-Serif" font-size="10.00">begin</text>
</a>
</g>
</g>
<!-- Node1&#45;&gt;Node2 -->
<g id="edge1_Node000001_Node000002" class="edge">
<title>Node1&#45;&gt;Node2</title>
<g id="a_edge1_Node000001_Node000002"><a xlink:title=" ">
<path fill="none" stroke="#63b8ff" d="M74.06,-178.8C86.38,-204.27 122.82,-273.16 173,-311 174.85,-312.39 176.78,-313.71 178.78,-314.96"/>
<polygon fill="#63b8ff" stroke="#63b8ff" points="177.45,-318.22 187.9,-319.98 180.83,-312.09 177.45,-318.22"/>
</a>
</g>
</g>
<!-- Node3 -->
<g id="Node000003" class="node">
<title>Node3</title>
<g id="a_Node000003"><a xlink:href="namespaceparse.html#af903b23361252c6a3ddbd3c722b2f4e6" target="_top" xlink:title=" ">
<polygon fill="white" stroke="#666666" points="294.5,-301.5 184.5,-301.5 184.5,-282.5 294.5,-282.5 294.5,-301.5"/>
<text text-anchor="middle" x="239.5" y="-289.5" font-family="Helvetica,sans-Serif" font-size="10.00">parse::decode_ram</text>
</a>
</g>
</g>
<!-- Node1&#45;&gt;Node3 -->
<g id="edge2_Node000001_Node000003" class="edge">
<title>Node1&#45;&gt;Node3</title>
<g id="a_edge2_Node000001_Node000003"><a xlink:title=" ">
<path fill="none" stroke="#63b8ff" d="M76.3,-178.78C91.28,-199.57 129.28,-248.36 173,-274 175.99,-275.75 179.16,-277.34 182.42,-278.78"/>
<polygon fill="#63b8ff" stroke="#63b8ff" points="181.22,-282.07 191.81,-282.44 183.76,-275.55 181.22,-282.07"/>
</a>
</g>
</g>
<!-- Node4 -->
<g id="Node000004" class="node">
<title>Node4</title>
<g id="a_Node000004"><a xlink:href="classconcurrent__vector.html#a26e2bd5d0d65f524424e3beee4785622" target="_top" xlink:title=" ">
<polygon fill="white" stroke="#666666" points="303.5,-264.5 175.5,-264.5 175.5,-245.5 303.5,-245.5 303.5,-264.5"/>
<text text-anchor="middle" x="239.5" y="-252.5" font-family="Helvetica,sans-Serif" font-size="10.00">concurrent_vector::end</text>
</a>
</g>
</g>
<!-- Node1&#45;&gt;Node4 -->
<g id="edge3_Node000001_Node000004" class="edge">
<title>Node1&#45;&gt;Node4</title>
<g id="a_edge3_Node000001_Node000004"><a xlink:title=" ">
<path fill="none" stroke="#63b8ff" d="M81.56,-178.5C100.2,-192.78 137.56,-219.82 173,-236 178.05,-238.31 183.44,-240.4 188.89,-242.29"/>
<polygon fill="#63b8ff" stroke="#63b8ff" points="188.09,-245.71 198.69,-245.47 190.25,-239.06 188.09,-245.71"/>
</a>
</g>
</g>
<!-- Node5 -->
<g id="Node000005" class="node">
<title>Node5</title>
<g id="a_Node000005"><a xlink:href="classconcurrent__vector.html#a4816dd67e2542cd82b1facdabe477a31" target="_top" xlink:title=" ">
<polygon fill="white" stroke="#666666" points="294.5,-227 184.5,-227 184.5,-197 294.5,-197 294.5,-227"/>
<text text-anchor="start" x="192.5" y="-215" font-family="Helvetica,sans-Serif" font-size="10.00">concurrent_vector::</text>
<text text-anchor="middle" x="239.5" y="-204" font-family="Helvetica,sans-Serif" font-size="10.00">erase</text>
</a>
</g>
</g>
<!-- Node1&#45;&gt;Node5 -->
<g id="edge4_Node000001_Node000005" class="edge">
<title>Node1&#45;&gt;Node5</title>
<g id="a_edge4_Node000001_Node000005"><a xlink:title=" ">
<path fill="none" stroke="#63b8ff" d="M107.01,-178.54C126.83,-183.59 151.71,-189.92 174.48,-195.71"/>
<polygon fill="#63b8ff" stroke="#63b8ff" points="173.87,-199.17 184.42,-198.24 175.6,-192.38 173.87,-199.17"/>
</a>
</g>
</g>
<!-- Node6 -->
<g id="Node000006" class="node">
<title>Node6</title>
<g id="a_Node000006"><a xlink:href="classconcurrent__vector.html#af99a6039a1177d9b2c4997288b974533" target="_top" xlink:title=" ">
<polygon fill="white" stroke="#666666" points="305,-178.5 174,-178.5 174,-159.5 305,-159.5 305,-178.5"/>
<text text-anchor="middle" x="239.5" y="-166.5" font-family="Helvetica,sans-Serif" font-size="10.00">concurrent_vector::lock</text>
</a>
</g>
</g>
<!-- Node1&#45;&gt;Node6 -->
<g id="edge5_Node000001_Node000006" class="edge">
<title>Node1&#45;&gt;Node6</title>
<g id="a_edge5_Node000001_Node000006"><a xlink:title=" ">
<path fill="none" stroke="#63b8ff" d="M137.26,-169C145.91,-169 154.8,-169 163.55,-169"/>
<polygon fill="#63b8ff" stroke="#63b8ff" points="163.74,-172.5 173.74,-169 163.74,-165.5 163.74,-172.5"/>
</a>
</g>
</g>
<!-- Node7 -->
<g id="Node000007" class="node">
<title>Node7</title>
<g id="a_Node000007"><a xlink:href="classconcurrent__queue.html#a6098253682efb5ed8930f8f60342b761" target="_top" xlink:title="Push an item onto the stack, doing an emplace_back() in the background.">
<polygon fill="white" stroke="#666666" points="306,-141.5 173,-141.5 173,-122.5 306,-122.5 306,-141.5"/>
<text text-anchor="middle" x="239.5" y="-129.5" font-family="Helvetica,sans-Serif" font-size="10.00">concurrent_queue::push</text>
</a>
</g>
</g>
<!-- Node1&#45;&gt;Node7 -->
<g id="edge6_Node000001_Node000007" class="edge">
<title>Node1&#45;&gt;Node7</title>
<g id="a_edge6_Node000001_Node000007"><a xlink:title=" ">
<path fill="none" stroke="#63b8ff" d="M113.02,-159.47C134.92,-154.68 161.65,-148.82 184.81,-143.75"/>
<polygon fill="#63b8ff" stroke="#63b8ff" points="185.81,-147.12 194.83,-141.56 184.32,-140.28 185.81,-147.12"/>
</a>
</g>
</g>
<!-- Node8 -->
<g id="Node000008" class="node">
<title>Node8</title>
<g id="a_Node000008"><a xlink:href="classconcurrent__queue.html#aff708b19304d9c28c0b12e0507e426df" target="_top" xlink:title=" ">
<polygon fill="white" stroke="#666666" points="304,-104.5 175,-104.5 175,-85.5 304,-85.5 304,-104.5"/>
<text text-anchor="middle" x="239.5" y="-92.5" font-family="Helvetica,sans-Serif" font-size="10.00">concurrent_queue::size</text>
</a>
</g>
</g>
<!-- Node1&#45;&gt;Node8 -->
<g id="edge7_Node000001_Node000008" class="edge">
<title>Node1&#45;&gt;Node8</title>
<g id="a_edge7_Node000001_Node000008"><a xlink:title=" ">
<path fill="none" stroke="#63b8ff" d="M85.14,-159.37C105,-147.46 140.57,-127.16 173,-114 178.76,-111.66 184.91,-109.49 191.05,-107.5"/>
<polygon fill="#63b8ff" stroke="#63b8ff" points="192.11,-110.84 200.64,-104.54 190.05,-104.15 192.11,-110.84"/>
</a>
</g>
</g>
<!-- Node9 -->
<g id="Node000009" class="node">
<title>Node9</title>
<g id="a_Node000009"><a xlink:href="classconcurrent__vector.html#ab9861a78f8ea436d4faa94925d3b9ac1" target="_top" xlink:title=" ">
<polygon fill="white" stroke="#666666" points="304.5,-67.5 174.5,-67.5 174.5,-48.5 304.5,-48.5 304.5,-67.5"/>
<text text-anchor="middle" x="239.5" y="-55.5" font-family="Helvetica,sans-Serif" font-size="10.00">concurrent_vector::size</text>
</a>
</g>
</g>
<!-- Node1&#45;&gt;Node9 -->
<g id="edge8_Node000001_Node000009" class="edge">
<title>Node1&#45;&gt;Node9</title>
<g id="a_edge8_Node000001_Node000009"><a xlink:title=" ">
<path fill="none" stroke="#63b8ff" d="M77.59,-159.39C93.79,-140.75 132.17,-99.54 173,-77 177.01,-74.78 181.31,-72.8 185.72,-71.04"/>
<polygon fill="#63b8ff" stroke="#63b8ff" points="187.26,-74.2 195.47,-67.51 184.87,-67.62 187.26,-74.2"/>
</a>
</g>
</g>
<!-- Node10 -->
<g id="Node000010" class="node">
<title>Node10</title>
<g id="a_Node000010"><a xlink:href="classconcurrent__vector.html#a490a93f96b5be4920dd9999fbd263f3c" target="_top" xlink:title=" ">
<polygon fill="white" stroke="#666666" points="294.5,-30 184.5,-30 184.5,0 294.5,0 294.5,-30"/>
<text text-anchor="start" x="192.5" y="-18" font-family="Helvetica,sans-Serif" font-size="10.00">concurrent_vector::</text>
<text text-anchor="middle" x="239.5" y="-7" font-family="Helvetica,sans-Serif" font-size="10.00">unlock</text>
</a>
</g>
</g>
<!-- Node1&#45;&gt;Node10 -->
<g id="edge9_Node000001_Node000010" class="edge">
<title>Node1&#45;&gt;Node10</title>
<g id="a_edge9_Node000001_Node000010"><a xlink:title=" ">
<path fill="none" stroke="#63b8ff" d="M74.72,-159.46C88.04,-135.93 125.66,-74.49 173,-40 175.53,-38.16 178.2,-36.44 180.98,-34.83"/>
<polygon fill="#63b8ff" stroke="#63b8ff" points="182.85,-37.8 190.1,-30.06 179.61,-31.59 182.85,-37.8"/>
</a>
</g>
</g>
</g>
</svg>
