<?xml version="1.0" encoding="UTF-8" standalone="no"?>
<!DOCTYPE svg PUBLIC "-//W3C//DTD SVG 1.1//EN"
 "http://www.w3.org/Graphics/SVG/1.1/DTD/svg11.dtd">
<!-- Generated by graphviz version 2.43.0 (0)
 -->
<!-- Title: httpd_post_receive_data Pages: 1 -->
<svg width="314pt" height="253pt"
 viewBox="0.00 0.00 314.00 253.00" xmlns="http://www.w3.org/2000/svg" xmlns:xlink="http://www.w3.org/1999/xlink">
<g id="graph0" class="graph" transform="scale(1 1) rotate(0) translate(4 249)">
<title>httpd_post_receive_data</title>
<polygon fill="white" stroke="transparent" points="-4,4 -4,-249 310,-249 310,4 -4,4"/>
<!-- Node1 -->
<g id="node1" class="node">
<title>Node1</title>
<g id="a_node1"><a xlink:title=" ">
<polygon fill="#bfbfbf" stroke="black" points="0,-110 0,-129 137,-129 137,-110 0,-110"/>
<text text-anchor="middle" x="68.5" y="-117" font-family="Helvetica,sans-Serif" font-size="10.00">httpd_post_receive_data</text>
</a>
</g>
</g>
<!-- Node2 -->
<g id="node2" class="node">
<title>Node2</title>
<g id="a_node2"><a xlink:href="classconcurrent__vector.html#a781554e96ab42b9e3f4972224d328d65" target="_top" xlink:title=" ">
<polygon fill="white" stroke="black" points="184.5,-214.5 184.5,-244.5 294.5,-244.5 294.5,-214.5 184.5,-214.5"/>
<text text-anchor="start" x="192.5" y="-232.5" font-family="Helvetica,sans-Serif" font-size="10.00">concurrent_vector::</text>
<text text-anchor="middle" x="239.5" y="-221.5" font-family="Helvetica,sans-Serif" font-size="10.00">begin</text>
</a>
</g>
</g>
<!-- Node1&#45;&gt;Node2 -->
<g id="edge1" class="edge">
<title>Node1&#45;&gt;Node2</title>
<path fill="none" stroke="midnightblue" d="M78.97,-129.11C96.29,-146.24 134.8,-182.32 173,-204.5 176.45,-206.51 180.1,-208.41 183.83,-210.2"/>
<polygon fill="midnightblue" stroke="midnightblue" points="182.66,-213.51 193.21,-214.43 185.53,-207.13 182.66,-213.51"/>
</g>
<!-- Node3 -->
<g id="node3" class="node">
<title>Node3</title>
<g id="a_node3"><a xlink:href="classconcurrent__vector.html#a26e2bd5d0d65f524424e3beee4785622" target="_top" xlink:title=" ">
<polygon fill="white" stroke="black" points="175.5,-176 175.5,-195 303.5,-195 303.5,-176 175.5,-176"/>
<text text-anchor="middle" x="239.5" y="-183" font-family="Helvetica,sans-Serif" font-size="10.00">concurrent_vector::end</text>
</a>
</g>
</g>
<!-- Node1&#45;&gt;Node3 -->
<g id="edge2" class="edge">
<title>Node1&#45;&gt;Node3</title>
<path fill="none" stroke="midnightblue" d="M88.61,-129.18C109.12,-139.34 142.83,-155.34 173,-166.5 179.27,-168.82 185.95,-171.04 192.57,-173.09"/>
<polygon fill="midnightblue" stroke="midnightblue" points="191.58,-176.44 202.16,-175.97 193.59,-169.74 191.58,-176.44"/>
</g>
<!-- Node4 -->
<g id="node4" class="node">
<title>Node4</title>
<g id="a_node4"><a xlink:href="classconcurrent__vector.html#a4816dd67e2542cd82b1facdabe477a31" target="_top" xlink:title=" ">
<polygon fill="white" stroke="black" points="184.5,-126.5 184.5,-156.5 294.5,-156.5 294.5,-126.5 184.5,-126.5"/>
<text text-anchor="start" x="192.5" y="-144.5" font-family="Helvetica,sans-Serif" font-size="10.00">concurrent_vector::</text>
<text text-anchor="middle" x="239.5" y="-133.5" font-family="Helvetica,sans-Serif" font-size="10.00">erase</text>
</a>
</g>
</g>
<!-- Node1&#45;&gt;Node4 -->
<g id="edge3" class="edge">
<title>Node1&#45;&gt;Node4</title>
<path fill="none" stroke="midnightblue" d="M137.26,-128.32C149.53,-129.92 162.29,-131.58 174.45,-133.16"/>
<polygon fill="midnightblue" stroke="midnightblue" points="174.13,-136.65 184.5,-134.47 175.03,-129.71 174.13,-136.65"/>
</g>
<!-- Node5 -->
<g id="node5" class="node">
<title>Node5</title>
<g id="a_node5"><a xlink:href="classconcurrent__vector.html#af99a6039a1177d9b2c4997288b974533" target="_top" xlink:title=" ">
<polygon fill="white" stroke="black" points="174,-88 174,-107 305,-107 305,-88 174,-88"/>
<text text-anchor="middle" x="239.5" y="-95" font-family="Helvetica,sans-Serif" font-size="10.00">concurrent_vector::lock</text>
</a>
</g>
</g>
<!-- Node1&#45;&gt;Node5 -->
<g id="edge4" class="edge">
<title>Node1&#45;&gt;Node5</title>
<path fill="none" stroke="midnightblue" d="M137.26,-110.68C145.91,-109.55 154.8,-108.4 163.55,-107.26"/>
<polygon fill="midnightblue" stroke="midnightblue" points="164.28,-110.69 173.74,-105.93 163.37,-103.75 164.28,-110.69"/>
</g>
<!-- Node6 -->
<g id="node6" class="node">
<title>Node6</title>
<g id="a_node6"><a xlink:href="classconcurrent__queue.html#a6098253682efb5ed8930f8f60342b761" target="_top" xlink:title="Push an item onto the stack, doing an emplace_back() in the background.">
<polygon fill="white" stroke="black" points="173,-50 173,-69 306,-69 306,-50 173,-50"/>
<text text-anchor="middle" x="239.5" y="-57" font-family="Helvetica,sans-Serif" font-size="10.00">concurrent_queue::push</text>
</a>
</g>
</g>
<!-- Node1&#45;&gt;Node6 -->
<g id="edge5" class="edge">
<title>Node1&#45;&gt;Node6</title>
<path fill="none" stroke="midnightblue" d="M91.88,-109.92C112.69,-101.18 144.66,-88.2 173,-78.5 179.55,-76.26 186.52,-74.05 193.38,-71.98"/>
<polygon fill="midnightblue" stroke="midnightblue" points="194.7,-75.24 203.29,-69.05 192.71,-68.53 194.7,-75.24"/>
</g>
<!-- Node7 -->
<g id="node7" class="node">
<title>Node7</title>
<g id="a_node7"><a xlink:href="classconcurrent__vector.html#a490a93f96b5be4920dd9999fbd263f3c" target="_top" xlink:title=" ">
<polygon fill="white" stroke="black" points="184.5,-0.5 184.5,-30.5 294.5,-30.5 294.5,-0.5 184.5,-0.5"/>
<text text-anchor="start" x="192.5" y="-18.5" font-family="Helvetica,sans-Serif" font-size="10.00">concurrent_vector::</text>
<text text-anchor="middle" x="239.5" y="-7.5" font-family="Helvetica,sans-Serif" font-size="10.00">unlock</text>
</a>
</g>
</g>
<!-- Node1&#45;&gt;Node7 -->
<g id="edge6" class="edge">
<title>Node1&#45;&gt;Node7</title>
<path fill="none" stroke="midnightblue" d="M79.96,-109.86C97.87,-93.74 136.07,-61.07 173,-40.5 176.65,-38.47 180.5,-36.53 184.42,-34.7"/>
<polygon fill="midnightblue" stroke="midnightblue" points="185.93,-37.86 193.67,-30.63 183.11,-31.45 185.93,-37.86"/>
</g>
</g>
</svg>
