<?xml version="1.0" encoding="UTF-8" standalone="no"?>
<!DOCTYPE svg PUBLIC "-//W3C//DTD SVG 1.1//EN"
 "http://www.w3.org/Graphics/SVG/1.1/DTD/svg11.dtd">
<!-- Generated by graphviz version 2.43.0 (0)
 -->
<!-- Title: src/RoL/threaded/queue.hpp Pages: 1 -->
<svg width="591pt" height="140pt"
 viewBox="0.00 0.00 591.00 140.00" xmlns="http://www.w3.org/2000/svg" xmlns:xlink="http://www.w3.org/1999/xlink">
<g id="graph0" class="graph" transform="scale(1 1) rotate(0) translate(4 136)">
<title>src/RoL/threaded/queue.hpp</title>
<polygon fill="white" stroke="transparent" points="-4,4 -4,-136 587,-136 587,4 -4,4"/>
<!-- Node1 -->
<g id="node1" class="node">
<title>Node1</title>
<g id="a_node1"><a xlink:title=" ">
<polygon fill="#bfbfbf" stroke="black" points="347.5,-112.5 347.5,-131.5 499.5,-131.5 499.5,-112.5 347.5,-112.5"/>
<text text-anchor="middle" x="423.5" y="-119.5" font-family="Helvetica,sans-Serif" font-size="10.00">src/RoL/threaded/queue.hpp</text>
</a>
</g>
</g>
<!-- Node2 -->
<g id="node2" class="node">
<title>Node2</title>
<g id="a_node2"><a xlink:href="shared_8hpp.html" target="_top" xlink:title=" ">
<polygon fill="white" stroke="black" points="293,-56.5 293,-75.5 448,-75.5 448,-56.5 293,-56.5"/>
<text text-anchor="middle" x="370.5" y="-63.5" font-family="Helvetica,sans-Serif" font-size="10.00">src/RoL/threaded/shared.hpp</text>
</a>
</g>
</g>
<!-- Node1&#45;&gt;Node2 -->
<g id="edge1" class="edge">
<title>Node1&#45;&gt;Node2</title>
<path fill="none" stroke="midnightblue" d="M407.52,-104.72C398.18,-95.2 386.75,-83.56 379.09,-75.75"/>
<polygon fill="midnightblue" stroke="midnightblue" points="405.25,-107.4 414.75,-112.08 410.24,-102.49 405.25,-107.4"/>
</g>
<!-- Node7 -->
<g id="node7" class="node">
<title>Node7</title>
<g id="a_node7"><a xlink:href="riscv__online_8cpp.html" target="_top" xlink:title=" ">
<polygon fill="white" stroke="black" points="470,-0.5 470,-19.5 583,-19.5 583,-0.5 470,-0.5"/>
<text text-anchor="middle" x="526.5" y="-7.5" font-family="Helvetica,sans-Serif" font-size="10.00">src/riscv_online.cpp</text>
</a>
</g>
</g>
<!-- Node1&#45;&gt;Node7 -->
<g id="edge7" class="edge">
<title>Node1&#45;&gt;Node7</title>
<path fill="none" stroke="midnightblue" d="M438.58,-104.9C460.72,-81.25 501.27,-37.95 518.46,-19.59"/>
<polygon fill="midnightblue" stroke="midnightblue" points="435.86,-102.68 431.58,-112.37 440.97,-107.46 435.86,-102.68"/>
</g>
<!-- Node3 -->
<g id="node3" class="node">
<title>Node3</title>
<g id="a_node3"><a xlink:href="emulator_8cpp.html" target="_top" xlink:title=" ">
<polygon fill="white" stroke="black" points="0,-0.5 0,-19.5 171,-19.5 171,-0.5 0,-0.5"/>
<text text-anchor="middle" x="85.5" y="-7.5" font-family="Helvetica,sans-Serif" font-size="10.00">src/RoL/emulation/emulator.cpp</text>
</a>
</g>
</g>
<!-- Node2&#45;&gt;Node3 -->
<g id="edge2" class="edge">
<title>Node2&#45;&gt;Node3</title>
<path fill="none" stroke="midnightblue" d="M315.28,-54.54C261.42,-44.33 180.5,-29 130.45,-19.52"/>
<polygon fill="midnightblue" stroke="midnightblue" points="314.86,-58.02 325.34,-56.44 316.17,-51.14 314.86,-58.02"/>
</g>
<!-- Node4 -->
<g id="node4" class="node">
<title>Node4</title>
<g id="a_node4"><a xlink:href="post_8cpp.html" target="_top" xlink:title=" ">
<polygon fill="white" stroke="black" points="189,-0.5 189,-19.5 264,-19.5 264,-0.5 189,-0.5"/>
<text text-anchor="middle" x="226.5" y="-7.5" font-family="Helvetica,sans-Serif" font-size="10.00">src/post.cpp</text>
</a>
</g>
</g>
<!-- Node2&#45;&gt;Node4 -->
<g id="edge3" class="edge">
<title>Node2&#45;&gt;Node4</title>
<path fill="none" stroke="midnightblue" d="M338.25,-52.91C311.18,-42.75 273.18,-28.51 249.21,-19.52"/>
<polygon fill="midnightblue" stroke="midnightblue" points="337.09,-56.21 347.68,-56.44 339.55,-49.66 337.09,-56.21"/>
</g>
<!-- Node5 -->
<g id="node5" class="node">
<title>Node5</title>
<g id="a_node5"><a xlink:href="server_8cpp.html" target="_top" xlink:title=" ">
<polygon fill="white" stroke="black" points="281.5,-0.5 281.5,-19.5 365.5,-19.5 365.5,-0.5 281.5,-0.5"/>
<text text-anchor="middle" x="323.5" y="-7.5" font-family="Helvetica,sans-Serif" font-size="10.00">src/server.cpp</text>
</a>
</g>
</g>
<!-- Node2&#45;&gt;Node5 -->
<g id="edge4" class="edge">
<title>Node2&#45;&gt;Node5</title>
<path fill="none" stroke="midnightblue" d="M356.08,-48.43C347.84,-38.97 337.85,-27.48 331.12,-19.75"/>
<polygon fill="midnightblue" stroke="midnightblue" points="353.53,-50.84 362.74,-56.08 358.81,-46.24 353.53,-50.84"/>
</g>
<!-- Node6 -->
<g id="node6" class="node">
<title>Node6</title>
<g id="a_node6"><a xlink:href="ssi_8cpp.html" target="_top" xlink:title=" ">
<polygon fill="white" stroke="black" points="383.5,-0.5 383.5,-19.5 451.5,-19.5 451.5,-0.5 383.5,-0.5"/>
<text text-anchor="middle" x="417.5" y="-7.5" font-family="Helvetica,sans-Serif" font-size="10.00">src/ssi.cpp</text>
</a>
</g>
</g>
<!-- Node2&#45;&gt;Node6 -->
<g id="edge5" class="edge">
<title>Node2&#45;&gt;Node6</title>
<path fill="none" stroke="midnightblue" d="M384.92,-48.43C393.16,-38.97 403.15,-27.48 409.88,-19.75"/>
<polygon fill="midnightblue" stroke="midnightblue" points="382.19,-46.24 378.26,-56.08 387.47,-50.84 382.19,-46.24"/>
</g>
<!-- Node2&#45;&gt;Node7 -->
<g id="edge6" class="edge">
<title>Node2&#45;&gt;Node7</title>
<path fill="none" stroke="midnightblue" d="M404.67,-53.17C434.04,-43 475.7,-28.59 501.9,-19.52"/>
<polygon fill="midnightblue" stroke="midnightblue" points="403.52,-49.86 395.22,-56.44 405.81,-56.48 403.52,-49.86"/>
</g>
</g>
</svg>
