<?xml version="1.0" encoding="UTF-8" standalone="no"?>
<!DOCTYPE svg PUBLIC "-//W3C//DTD SVG 1.1//EN"
 "http://www.w3.org/Graphics/SVG/1.1/DTD/svg11.dtd">
<!-- Generated by graphviz version 2.43.0 (0)
 -->
<!-- Title: src/utils/threaded/queue.hpp Pages: 1 -->
<svg width="340pt" height="151pt"
 viewBox="0.00 0.00 339.50 151.00" xmlns="http://www.w3.org/2000/svg" xmlns:xlink="http://www.w3.org/1999/xlink">
<g id="graph0" class="graph" transform="scale(1 1) rotate(0) translate(4 147)">
<title>src/utils/threaded/queue.hpp</title>
<polygon fill="white" stroke="transparent" points="-4,4 -4,-147 335.5,-147 335.5,4 -4,4"/>
<!-- Node1 -->
<g id="node1" class="node">
<title>Node1</title>
<g id="a_node1"><a xlink:title=" ">
<polygon fill="#bfbfbf" stroke="black" points="68,-112.5 68,-142.5 169,-142.5 169,-112.5 68,-112.5"/>
<text text-anchor="start" x="76" y="-130.5" font-family="Helvetica,sans-Serif" font-size="10.00">src/utils/threaded</text>
<text text-anchor="middle" x="118.5" y="-119.5" font-family="Helvetica,sans-Serif" font-size="10.00">/queue.hpp</text>
</a>
</g>
</g>
<!-- Node2 -->
<g id="node2" class="node">
<title>Node2</title>
<g id="a_node2"><a xlink:href="riscv__online_8cpp.html" target="_top" xlink:title=" ">
<polygon fill="white" stroke="black" points="0,-0.5 0,-19.5 113,-19.5 113,-0.5 0,-0.5"/>
<text text-anchor="middle" x="56.5" y="-7.5" font-family="Helvetica,sans-Serif" font-size="10.00">src/riscv_online.cpp</text>
</a>
</g>
</g>
<!-- Node1&#45;&gt;Node2 -->
<g id="edge1" class="edge">
<title>Node1&#45;&gt;Node2</title>
<path fill="none" stroke="midnightblue" d="M106.02,-103.24C92.18,-77.47 70.57,-37.22 61.15,-19.67"/>
<polygon fill="midnightblue" stroke="midnightblue" points="103.08,-105.18 110.9,-112.34 109.25,-101.87 103.08,-105.18"/>
</g>
<!-- Node3 -->
<g id="node3" class="node">
<title>Node3</title>
<g id="a_node3"><a xlink:href="shared_8hpp.html" target="_top" xlink:title=" ">
<polygon fill="white" stroke="black" points="123.5,-56.5 123.5,-75.5 211.5,-75.5 211.5,-56.5 123.5,-56.5"/>
<text text-anchor="middle" x="167.5" y="-63.5" font-family="Helvetica,sans-Serif" font-size="10.00">src/shared.hpp</text>
</a>
</g>
</g>
<!-- Node1&#45;&gt;Node3 -->
<g id="edge2" class="edge">
<title>Node1&#45;&gt;Node3</title>
<path fill="none" stroke="midnightblue" d="M136.7,-104.4C144.93,-94.41 154.17,-83.18 160.37,-75.66"/>
<polygon fill="midnightblue" stroke="midnightblue" points="133.77,-102.46 130.11,-112.4 139.17,-106.9 133.77,-102.46"/>
</g>
<!-- Node3&#45;&gt;Node2 -->
<g id="edge4" class="edge">
<title>Node3&#45;&gt;Node2</title>
<path fill="none" stroke="midnightblue" d="M140.49,-51.86C119.91,-41.85 92.16,-28.35 74.29,-19.65"/>
<polygon fill="midnightblue" stroke="midnightblue" points="139.14,-55.1 149.67,-56.32 142.2,-48.8 139.14,-55.1"/>
</g>
<!-- Node4 -->
<g id="node4" class="node">
<title>Node4</title>
<g id="a_node4"><a xlink:href="emulator_8cpp.html" target="_top" xlink:title=" ">
<polygon fill="white" stroke="black" points="131.5,-0.5 131.5,-19.5 229.5,-19.5 229.5,-0.5 131.5,-0.5"/>
<text text-anchor="middle" x="180.5" y="-7.5" font-family="Helvetica,sans-Serif" font-size="10.00">src/emulator.cpp</text>
</a>
</g>
</g>
<!-- Node3&#45;&gt;Node4 -->
<g id="edge3" class="edge">
<title>Node3&#45;&gt;Node4</title>
<path fill="none" stroke="midnightblue" d="M172.05,-46.1C174.21,-37.14 176.68,-26.86 178.39,-19.75"/>
<polygon fill="midnightblue" stroke="midnightblue" points="168.58,-45.54 169.65,-56.08 175.39,-47.18 168.58,-45.54"/>
</g>
<!-- Node5 -->
<g id="node5" class="node">
<title>Node5</title>
<g id="a_node5"><a xlink:href="server_8cpp.html" target="_top" xlink:title=" ">
<polygon fill="white" stroke="black" points="247.5,-0.5 247.5,-19.5 331.5,-19.5 331.5,-0.5 247.5,-0.5"/>
<text text-anchor="middle" x="289.5" y="-7.5" font-family="Helvetica,sans-Serif" font-size="10.00">src/server.cpp</text>
</a>
</g>
</g>
<!-- Node3&#45;&gt;Node5 -->
<g id="edge5" class="edge">
<title>Node3&#45;&gt;Node5</title>
<path fill="none" stroke="midnightblue" d="M196.04,-52.37C218.89,-42.26 250.31,-28.35 270.26,-19.52"/>
<polygon fill="midnightblue" stroke="midnightblue" points="194.56,-49.2 186.83,-56.44 197.39,-55.6 194.56,-49.2"/>
</g>
</g>
</svg>
