<?xml version="1.0" encoding="UTF-8" standalone="no"?>
<!DOCTYPE svg PUBLIC "-//W3C//DTD SVG 1.1//EN"
 "http://www.w3.org/Graphics/SVG/1.1/DTD/svg11.dtd">
<!-- Generated by graphviz version 2.43.0 (0)
 -->
<!-- Title: src/RoL/threaded/queue.hpp Pages: 1 -->
<svg width="591pt" height="137pt"
 viewBox="0.00 0.00 591.00 137.00" xmlns="http://www.w3.org/2000/svg" xmlns:xlink="http://www.w3.org/1999/xlink">
<g id="graph0" class="graph" transform="scale(1 1) rotate(0) translate(4 133)">
<title>src/RoL/threaded/queue.hpp</title>
<!-- Node1 -->
<g id="Node000001" class="node">
<title>Node1</title>
<g id="a_Node000001"><a xlink:title=" ">
<polygon fill="#999999" stroke="#666666" points="499.5,-129 347.5,-129 347.5,-110 499.5,-110 499.5,-129"/>
<text text-anchor="middle" x="423.5" y="-117" font-family="Helvetica,sans-Serif" font-size="10.00">src/RoL/threaded/queue.hpp</text>
</a>
</g>
</g>
<!-- Node2 -->
<g id="Node000002" class="node">
<title>Node2</title>
<g id="a_Node000002"><a xlink:href="shared_8hpp.html" target="_top" xlink:title=" ">
<polygon fill="white" stroke="#666666" points="448,-74 293,-74 293,-55 448,-55 448,-74"/>
<text text-anchor="middle" x="370.5" y="-62" font-family="Helvetica,sans-Serif" font-size="10.00">src/RoL/threaded/shared.hpp</text>
</a>
</g>
</g>
<!-- Node1&#45;&gt;Node2 -->
<g id="edge1_Node000001_Node000002" class="edge">
<title>Node1&#45;&gt;Node2</title>
<g id="a_edge1_Node000001_Node000002"><a xlink:title=" ">
<path fill="none" stroke="#63b8ff" d="M407.52,-102.52C398.18,-93.18 386.75,-81.75 379.09,-74.09"/>
<polygon fill="#63b8ff" stroke="#63b8ff" points="405.2,-105.15 414.75,-109.75 410.15,-100.2 405.2,-105.15"/>
</a>
</g>
</g>
<!-- Node5 -->
<g id="Node000005" class="node">
<title>Node5</title>
<g id="a_Node000005"><a xlink:href="riscv__online_8cpp.html" target="_top" xlink:title=" ">
<polygon fill="white" stroke="#666666" points="583,-19 470,-19 470,0 583,0 583,-19"/>
<text text-anchor="middle" x="526.5" y="-7" font-family="Helvetica,sans-Serif" font-size="10.00">src/riscv_online.cpp</text>
</a>
</g>
</g>
<!-- Node1&#45;&gt;Node5 -->
<g id="edge7_Node000001_Node000005" class="edge">
<title>Node1&#45;&gt;Node5</title>
<g id="a_edge7_Node000001_Node000005"><a xlink:title=" ">
<path fill="none" stroke="#63b8ff" d="M438.95,-102.3C461.08,-79.1 501.03,-37.21 518.24,-19.16"/>
<polygon fill="#63b8ff" stroke="#63b8ff" points="436.3,-100.01 431.93,-109.66 441.36,-104.84 436.3,-100.01"/>
</a>
</g>
</g>
<!-- Node3 -->
<g id="Node000003" class="node">
<title>Node3</title>
<g id="a_Node000003"><a xlink:href="emulator_8cpp.html" target="_top" xlink:title=" ">
<polygon fill="white" stroke="#666666" points="171,-19 0,-19 0,0 171,0 171,-19"/>
<text text-anchor="middle" x="85.5" y="-7" font-family="Helvetica,sans-Serif" font-size="10.00">src/RoL/emulation/emulator.cpp</text>
</a>
</g>
</g>
<!-- Node2&#45;&gt;Node3 -->
<g id="edge2_Node000002_Node000003" class="edge">
<title>Node2&#45;&gt;Node3</title>
<g id="a_edge2_Node000002_Node000003"><a xlink:title=" ">
<path fill="none" stroke="#63b8ff" d="M314.72,-53.13C261.29,-43.19 181.61,-28.37 131.65,-19.08"/>
<polygon fill="#63b8ff" stroke="#63b8ff" points="314.24,-56.6 324.71,-54.98 315.52,-49.72 314.24,-56.6"/>
</a>
</g>
</g>
<!-- Node4 -->
<g id="Node000004" class="node">
<title>Node4</title>
<g id="a_Node000004"><a xlink:href="post_8cpp.html" target="_top" xlink:title=" ">
<polygon fill="white" stroke="#666666" points="264,-19 189,-19 189,0 264,0 264,-19"/>
<text text-anchor="middle" x="226.5" y="-7" font-family="Helvetica,sans-Serif" font-size="10.00">src/post.cpp</text>
</a>
</g>
</g>
<!-- Node2&#45;&gt;Node4 -->
<g id="edge3_Node000002_Node000004" class="edge">
<title>Node2&#45;&gt;Node4</title>
<g id="a_edge3_Node000002_Node000004"><a xlink:title=" ">
<path fill="none" stroke="#63b8ff" d="M337.68,-51.42C310.97,-41.59 273.9,-27.95 250.06,-19.17"/>
<polygon fill="#63b8ff" stroke="#63b8ff" points="336.77,-54.82 347.36,-54.98 339.19,-48.25 336.77,-54.82"/>
</a>
</g>
</g>
<!-- Node2&#45;&gt;Node5 -->
<g id="edge4_Node000002_Node000005" class="edge">
<title>Node2&#45;&gt;Node5</title>
<g id="a_edge4_Node000002_Node000005"><a xlink:title=" ">
<path fill="none" stroke="#63b8ff" d="M405.32,-51.67C434.41,-41.79 475.2,-27.93 501.24,-19.08"/>
<polygon fill="#63b8ff" stroke="#63b8ff" points="403.91,-48.45 395.56,-54.98 406.16,-55.08 403.91,-48.45"/>
</a>
</g>
</g>
<!-- Node6 -->
<g id="Node000006" class="node">
<title>Node6</title>
<g id="a_Node000006"><a xlink:href="server_8cpp.html" target="_top" xlink:title=" ">
<polygon fill="white" stroke="#666666" points="365.5,-19 281.5,-19 281.5,0 365.5,0 365.5,-19"/>
<text text-anchor="middle" x="323.5" y="-7" font-family="Helvetica,sans-Serif" font-size="10.00">src/server.cpp</text>
</a>
</g>
</g>
<!-- Node2&#45;&gt;Node6 -->
<g id="edge5_Node000002_Node000006" class="edge">
<title>Node2&#45;&gt;Node6</title>
<g id="a_edge5_Node000002_Node000006"><a xlink:title=" ">
<path fill="none" stroke="#63b8ff" d="M356.08,-47.24C347.84,-37.95 337.85,-26.68 331.12,-19.09"/>
<polygon fill="#63b8ff" stroke="#63b8ff" points="353.49,-49.59 362.74,-54.75 358.72,-44.94 353.49,-49.59"/>
</a>
</g>
</g>
<!-- Node7 -->
<g id="Node000007" class="node">
<title>Node7</title>
<g id="a_Node000007"><a xlink:href="ssi_8cpp.html" target="_top" xlink:title=" ">
<polygon fill="white" stroke="#666666" points="451.5,-19 383.5,-19 383.5,0 451.5,0 451.5,-19"/>
<text text-anchor="middle" x="417.5" y="-7" font-family="Helvetica,sans-Serif" font-size="10.00">src/ssi.cpp</text>
</a>
</g>
</g>
<!-- Node2&#45;&gt;Node7 -->
<g id="edge6_Node000002_Node000007" class="edge">
<title>Node2&#45;&gt;Node7</title>
<g id="a_edge6_Node000002_Node000007"><a xlink:title=" ">
<path fill="none" stroke="#63b8ff" d="M384.92,-47.24C393.16,-37.95 403.15,-26.68 409.88,-19.09"/>
<polygon fill="#63b8ff" stroke="#63b8ff" points="382.28,-44.94 378.26,-54.75 387.51,-49.59 382.28,-44.94"/>
</a>
</g>
</g>
</g>
</svg>
