<?xml version="1.0" encoding="UTF-8" standalone="no"?>
<!DOCTYPE svg PUBLIC "-//W3C//DTD SVG 1.1//EN"
 "http://www.w3.org/Graphics/SVG/1.1/DTD/svg11.dtd">
<!-- Generated by graphviz version 2.43.0 (0)
 -->
<!-- Title: src/RoL/threaded/queue.hpp Pages: 1 -->
<svg width="227pt" height="151pt"
 viewBox="0.00 0.00 226.50 151.00" xmlns="http://www.w3.org/2000/svg" xmlns:xlink="http://www.w3.org/1999/xlink">
<g id="graph0" class="graph" transform="scale(1 1) rotate(0) translate(4 147)">
<title>src/RoL/threaded/queue.hpp</title>
<polygon fill="white" stroke="transparent" points="-4,4 -4,-147 222.5,-147 222.5,4 -4,4"/>
<!-- Node1 -->
<g id="node1" class="node">
<title>Node1</title>
<g id="a_node1"><a xlink:title=" ">
<polygon fill="#bfbfbf" stroke="black" points="27.5,-123.5 27.5,-142.5 179.5,-142.5 179.5,-123.5 27.5,-123.5"/>
<text text-anchor="middle" x="103.5" y="-130.5" font-family="Helvetica,sans-Serif" font-size="10.00">src/RoL/threaded/queue.hpp</text>
</a>
</g>
</g>
<!-- Node2 -->
<g id="node2" class="node">
<title>Node2</title>
<g id="a_node2"><a xlink:href="riscv__online_8cpp.html" target="_top" xlink:title=" ">
<polygon fill="white" stroke="black" points="0,-0.5 0,-19.5 113,-19.5 113,-0.5 0,-0.5"/>
<text text-anchor="middle" x="56.5" y="-7.5" font-family="Helvetica,sans-Serif" font-size="10.00">src/riscv_online.cpp</text>
</a>
</g>
</g>
<!-- Node1&#45;&gt;Node2 -->
<g id="edge1" class="edge">
<title>Node1&#45;&gt;Node2</title>
<path fill="none" stroke="midnightblue" d="M91.31,-115.22C85.83,-107.03 79.67,-96.85 75.5,-87 65.63,-63.71 60.07,-34.14 57.77,-19.72"/>
<polygon fill="midnightblue" stroke="midnightblue" points="88.48,-117.27 97.06,-123.48 94.22,-113.27 88.48,-117.27"/>
</g>
<!-- Node3 -->
<g id="node3" class="node">
<title>Node3</title>
<g id="a_node3"><a xlink:href="shared__queue_8hpp.html" target="_top" xlink:title=" ">
<polygon fill="white" stroke="black" points="84.5,-56.5 84.5,-86.5 218.5,-86.5 218.5,-56.5 84.5,-56.5"/>
<text text-anchor="start" x="92.5" y="-74.5" font-family="Helvetica,sans-Serif" font-size="10.00">src/RoL/threaded/shared</text>
<text text-anchor="middle" x="151.5" y="-63.5" font-family="Helvetica,sans-Serif" font-size="10.00">_queue.hpp</text>
</a>
</g>
</g>
<!-- Node1&#45;&gt;Node3 -->
<g id="edge2" class="edge">
<title>Node1&#45;&gt;Node3</title>
<path fill="none" stroke="midnightblue" d="M116.79,-115.53C124.14,-106.42 133.18,-95.21 140.19,-86.52"/>
<polygon fill="midnightblue" stroke="midnightblue" points="113.93,-113.49 110.38,-123.48 119.38,-117.89 113.93,-113.49"/>
</g>
<!-- Node3&#45;&gt;Node2 -->
<g id="edge3" class="edge">
<title>Node3&#45;&gt;Node2</title>
<path fill="none" stroke="midnightblue" d="M120.48,-51.07C103.54,-40.46 83.42,-27.86 70.32,-19.66"/>
<polygon fill="midnightblue" stroke="midnightblue" points="118.65,-54.06 128.99,-56.4 122.37,-48.13 118.65,-54.06"/>
</g>
<!-- Node4 -->
<g id="node4" class="node">
<title>Node4</title>
<g id="a_node4"><a xlink:href="server_8cpp.html" target="_top" xlink:title=" ">
<polygon fill="white" stroke="black" points="131.5,-0.5 131.5,-19.5 215.5,-19.5 215.5,-0.5 131.5,-0.5"/>
<text text-anchor="middle" x="173.5" y="-7.5" font-family="Helvetica,sans-Serif" font-size="10.00">src/server.cpp</text>
</a>
</g>
</g>
<!-- Node3&#45;&gt;Node4 -->
<g id="edge4" class="edge">
<title>Node3&#45;&gt;Node4</title>
<path fill="none" stroke="midnightblue" d="M160.23,-46.9C163.78,-37.3 167.66,-26.81 170.3,-19.66"/>
<polygon fill="midnightblue" stroke="midnightblue" points="156.9,-45.81 156.71,-56.4 163.46,-48.23 156.9,-45.81"/>
</g>
</g>
</svg>
