<?xml version="1.0" encoding="UTF-8" standalone="no"?>
<!DOCTYPE svg PUBLIC "-//W3C//DTD SVG 1.1//EN"
 "http://www.w3.org/Graphics/SVG/1.1/DTD/svg11.dtd">
<!-- Generated by graphviz version 2.43.0 (0)
 -->
<!-- Title: src/utils/threaded/queue.hpp Pages: 1 -->
<svg width="216pt" height="95pt"
 viewBox="0.00 0.00 216.00 95.00" xmlns="http://www.w3.org/2000/svg" xmlns:xlink="http://www.w3.org/1999/xlink">
<g id="graph0" class="graph" transform="scale(1 1) rotate(0) translate(4 91)">
<title>src/utils/threaded/queue.hpp</title>
<polygon fill="white" stroke="transparent" points="-4,4 -4,-91 212,-91 212,4 -4,4"/>
<!-- Node1 -->
<g id="node1" class="node">
<title>Node1</title>
<g id="a_node1"><a xlink:title=" ">
<polygon fill="#bfbfbf" stroke="black" points="71.5,-56.5 71.5,-86.5 172.5,-86.5 172.5,-56.5 71.5,-56.5"/>
<text text-anchor="start" x="79.5" y="-74.5" font-family="Helvetica,sans-Serif" font-size="10.00">src/utils/threaded</text>
<text text-anchor="middle" x="122" y="-63.5" font-family="Helvetica,sans-Serif" font-size="10.00">/queue.hpp</text>
</a>
</g>
</g>
<!-- Node2 -->
<g id="node2" class="node">
<title>Node2</title>
<g id="a_node2"><a xlink:title=" ">
<polygon fill="white" stroke="#bfbfbf" points="0,-0.5 0,-19.5 80,-19.5 80,-0.5 0,-0.5"/>
<text text-anchor="middle" x="40" y="-7.5" font-family="Helvetica,sans-Serif" font-size="10.00">pico/mutex.h</text>
</a>
</g>
</g>
<!-- Node1&#45;&gt;Node2 -->
<g id="edge1" class="edge">
<title>Node1&#45;&gt;Node2</title>
<path fill="none" stroke="midnightblue" d="M102.57,-56.4C89.79,-47.13 73.11,-35.03 60.19,-25.65"/>
<polygon fill="midnightblue" stroke="midnightblue" points="62.08,-22.7 51.93,-19.66 57.97,-28.36 62.08,-22.7"/>
</g>
<!-- Node3 -->
<g id="node3" class="node">
<title>Node3</title>
<g id="a_node3"><a xlink:title=" ">
<polygon fill="white" stroke="#bfbfbf" points="98.5,-0.5 98.5,-19.5 145.5,-19.5 145.5,-0.5 98.5,-0.5"/>
<text text-anchor="middle" x="122" y="-7.5" font-family="Helvetica,sans-Serif" font-size="10.00">queue</text>
</a>
</g>
</g>
<!-- Node1&#45;&gt;Node3 -->
<g id="edge2" class="edge">
<title>Node1&#45;&gt;Node3</title>
<path fill="none" stroke="midnightblue" d="M122,-56.4C122,-48.47 122,-38.46 122,-29.86"/>
<polygon fill="midnightblue" stroke="midnightblue" points="125.5,-29.66 122,-19.66 118.5,-29.66 125.5,-29.66"/>
</g>
<!-- Node4 -->
<g id="node4" class="node">
<title>Node4</title>
<g id="a_node4"><a xlink:title=" ">
<polygon fill="white" stroke="#bfbfbf" points="164,-0.5 164,-19.5 208,-19.5 208,-0.5 164,-0.5"/>
<text text-anchor="middle" x="186" y="-7.5" font-family="Helvetica,sans-Serif" font-size="10.00">string</text>
</a>
</g>
</g>
<!-- Node1&#45;&gt;Node4 -->
<g id="edge3" class="edge">
<title>Node1&#45;&gt;Node4</title>
<path fill="none" stroke="midnightblue" d="M137.17,-56.4C146.75,-47.49 159.16,-35.95 169.07,-26.74"/>
<polygon fill="midnightblue" stroke="midnightblue" points="171.75,-29.03 176.69,-19.66 166.98,-23.9 171.75,-29.03"/>
</g>
</g>
</svg>
