<?xml version="1.0" encoding="UTF-8" standalone="no"?>
<!DOCTYPE svg PUBLIC "-//W3C//DTD SVG 1.1//EN"
 "http://www.w3.org/Graphics/SVG/1.1/DTD/svg11.dtd">
<!-- Generated by graphviz version 2.43.0 (0)
 -->
<!-- Title: src/RoL/threaded/queue.hpp Pages: 1 -->
<svg width="469pt" height="207pt"
 viewBox="0.00 0.00 468.50 207.00" xmlns="http://www.w3.org/2000/svg" xmlns:xlink="http://www.w3.org/1999/xlink">
<g id="graph0" class="graph" transform="scale(1 1) rotate(0) translate(4 203)">
<title>src/RoL/threaded/queue.hpp</title>
<polygon fill="white" stroke="transparent" points="-4,4 -4,-203 464.5,-203 464.5,4 -4,4"/>
<!-- Node1 -->
<g id="node1" class="node">
<title>Node1</title>
<g id="a_node1"><a xlink:title=" ">
<polygon fill="#bfbfbf" stroke="black" points="36.5,-179.5 36.5,-198.5 188.5,-198.5 188.5,-179.5 36.5,-179.5"/>
<text text-anchor="middle" x="112.5" y="-186.5" font-family="Helvetica,sans-Serif" font-size="10.00">src/RoL/threaded/queue.hpp</text>
</a>
</g>
</g>
<!-- Node2 -->
<g id="node2" class="node">
<title>Node2</title>
<g id="a_node2"><a xlink:href="riscv__online_8cpp.html" target="_top" xlink:title=" ">
<polygon fill="white" stroke="black" points="0,-62 0,-81 113,-81 113,-62 0,-62"/>
<text text-anchor="middle" x="56.5" y="-69" font-family="Helvetica,sans-Serif" font-size="10.00">src/riscv_online.cpp</text>
</a>
</g>
</g>
<!-- Node1&#45;&gt;Node2 -->
<g id="edge1" class="edge">
<title>Node1&#45;&gt;Node2</title>
<path fill="none" stroke="midnightblue" d="M99.55,-171.46C93.51,-163.22 86.57,-152.93 81.5,-143 70.64,-121.72 62.47,-94.61 58.74,-81.04"/>
<polygon fill="midnightblue" stroke="midnightblue" points="96.78,-173.6 105.6,-179.47 102.36,-169.38 96.78,-173.6"/>
</g>
<!-- Node3 -->
<g id="node3" class="node">
<title>Node3</title>
<g id="a_node3"><a xlink:href="shared_8hpp.html" target="_top" xlink:title=" ">
<polygon fill="white" stroke="black" points="91,-123.5 91,-142.5 246,-142.5 246,-123.5 91,-123.5"/>
<text text-anchor="middle" x="168.5" y="-130.5" font-family="Helvetica,sans-Serif" font-size="10.00">src/RoL/threaded/shared.hpp</text>
</a>
</g>
</g>
<!-- Node1&#45;&gt;Node3 -->
<g id="edge2" class="edge">
<title>Node1&#45;&gt;Node3</title>
<path fill="none" stroke="midnightblue" d="M128.83,-172.25C138.76,-162.67 151.09,-150.79 159.34,-142.83"/>
<polygon fill="midnightblue" stroke="midnightblue" points="126.27,-169.86 121.5,-179.32 131.13,-174.9 126.27,-169.86"/>
</g>
<!-- Node3&#45;&gt;Node2 -->
<g id="edge3" class="edge">
<title>Node3&#45;&gt;Node2</title>
<path fill="none" stroke="midnightblue" d="M143.49,-118.71C121.8,-107.19 91.05,-90.86 72.52,-81.01"/>
<polygon fill="midnightblue" stroke="midnightblue" points="141.98,-121.87 152.45,-123.48 145.26,-115.69 141.98,-121.87"/>
</g>
<!-- Node4 -->
<g id="node4" class="node">
<title>Node4</title>
<g id="a_node4"><a xlink:href="post_8cpp.html" target="_top" xlink:title=" ">
<polygon fill="white" stroke="black" points="131,-62 131,-81 206,-81 206,-62 131,-62"/>
<text text-anchor="middle" x="168.5" y="-69" font-family="Helvetica,sans-Serif" font-size="10.00">src/post.cpp</text>
</a>
</g>
</g>
<!-- Node3&#45;&gt;Node4 -->
<g id="edge4" class="edge">
<title>Node3&#45;&gt;Node4</title>
<path fill="none" stroke="midnightblue" d="M168.5,-113.32C168.5,-102.5 168.5,-89.4 168.5,-81.01"/>
<polygon fill="midnightblue" stroke="midnightblue" points="165,-113.48 168.5,-123.48 172,-113.48 165,-113.48"/>
</g>
<!-- Node5 -->
<g id="node5" class="node">
<title>Node5</title>
<g id="a_node5"><a xlink:href="shared__job_8hpp.html" target="_top" xlink:title=" ">
<polygon fill="white" stroke="black" points="224.5,-56.5 224.5,-86.5 358.5,-86.5 358.5,-56.5 224.5,-56.5"/>
<text text-anchor="start" x="232.5" y="-74.5" font-family="Helvetica,sans-Serif" font-size="10.00">src/RoL/threaded/shared</text>
<text text-anchor="middle" x="291.5" y="-63.5" font-family="Helvetica,sans-Serif" font-size="10.00">_job.hpp</text>
</a>
</g>
</g>
<!-- Node3&#45;&gt;Node5 -->
<g id="edge5" class="edge">
<title>Node3&#45;&gt;Node5</title>
<path fill="none" stroke="midnightblue" d="M195.23,-119.07C215.08,-109.47 242.14,-96.38 262.51,-86.52"/>
<polygon fill="midnightblue" stroke="midnightblue" points="193.6,-115.97 186.12,-123.48 196.65,-122.27 193.6,-115.97"/>
</g>
<!-- Node8 -->
<g id="node8" class="node">
<title>Node8</title>
<g id="a_node8"><a xlink:href="server_8cpp.html" target="_top" xlink:title=" ">
<polygon fill="white" stroke="black" points="376.5,-62 376.5,-81 460.5,-81 460.5,-62 376.5,-62"/>
<text text-anchor="middle" x="418.5" y="-69" font-family="Helvetica,sans-Serif" font-size="10.00">src/server.cpp</text>
</a>
</g>
</g>
<!-- Node3&#45;&gt;Node8 -->
<g id="edge8" class="edge">
<title>Node3&#45;&gt;Node8</title>
<path fill="none" stroke="midnightblue" d="M219.3,-121.31C259.62,-112.64 317.35,-99.79 367.5,-87 374.64,-85.18 382.29,-83.08 389.45,-81.06"/>
<polygon fill="midnightblue" stroke="midnightblue" points="218.48,-117.91 209.44,-123.43 219.95,-124.75 218.48,-117.91"/>
</g>
<!-- Node6 -->
<g id="node6" class="node">
<title>Node6</title>
<g id="a_node6"><a xlink:href="emulator_8cpp.html" target="_top" xlink:title=" ">
<polygon fill="white" stroke="black" points="137,-0.5 137,-19.5 308,-19.5 308,-0.5 137,-0.5"/>
<text text-anchor="middle" x="222.5" y="-7.5" font-family="Helvetica,sans-Serif" font-size="10.00">src/RoL/emulation/emulator.cpp</text>
</a>
</g>
</g>
<!-- Node5&#45;&gt;Node6 -->
<g id="edge6" class="edge">
<title>Node5&#45;&gt;Node6</title>
<path fill="none" stroke="midnightblue" d="M267.26,-49.6C255.34,-39.32 241.61,-27.48 232.54,-19.66"/>
<polygon fill="midnightblue" stroke="midnightblue" points="265.29,-52.52 275.15,-56.4 269.86,-47.22 265.29,-52.52"/>
</g>
<!-- Node7 -->
<g id="node7" class="node">
<title>Node7</title>
<g id="a_node7"><a xlink:href="ssi_8cpp.html" target="_top" xlink:title=" ">
<polygon fill="white" stroke="black" points="326.5,-0.5 326.5,-19.5 394.5,-19.5 394.5,-0.5 326.5,-0.5"/>
<text text-anchor="middle" x="360.5" y="-7.5" font-family="Helvetica,sans-Serif" font-size="10.00">src/ssi.cpp</text>
</a>
</g>
</g>
<!-- Node5&#45;&gt;Node7 -->
<g id="edge7" class="edge">
<title>Node5&#45;&gt;Node7</title>
<path fill="none" stroke="midnightblue" d="M315.74,-49.6C327.66,-39.32 341.39,-27.48 350.46,-19.66"/>
<polygon fill="midnightblue" stroke="midnightblue" points="313.14,-47.22 307.85,-56.4 317.71,-52.52 313.14,-47.22"/>
</g>
</g>
</svg>
