<?xml version="1.0" encoding="UTF-8" standalone="no"?>
<!DOCTYPE svg PUBLIC "-//W3C//DTD SVG 1.1//EN"
 "http://www.w3.org/Graphics/SVG/1.1/DTD/svg11.dtd">
<!-- Generated by graphviz version 2.43.0 (0)
 -->
<!-- Title: src/RoL/threaded/queue.hpp Pages: 1 -->
<svg width="340pt" height="151pt"
 viewBox="0.00 0.00 339.50 151.00" xmlns="http://www.w3.org/2000/svg" xmlns:xlink="http://www.w3.org/1999/xlink">
<g id="graph0" class="graph" transform="scale(1 1) rotate(0) translate(4 147)">
<title>src/RoL/threaded/queue.hpp</title>
<polygon fill="white" stroke="transparent" points="-4,4 -4,-147 335.5,-147 335.5,4 -4,4"/>
<!-- Node1 -->
<g id="node1" class="node">
<title>Node1</title>
<g id="a_node1"><a xlink:title=" ">
<polygon fill="#bfbfbf" stroke="black" points="140,-123.5 140,-142.5 292,-142.5 292,-123.5 140,-123.5"/>
<text text-anchor="middle" x="216" y="-130.5" font-family="Helvetica,sans-Serif" font-size="10.00">src/RoL/threaded/queue.hpp</text>
</a>
</g>
</g>
<!-- Node2 -->
<g id="node2" class="node">
<title>Node2</title>
<g id="a_node2"><a xlink:href="shared__queue_8hpp.html" target="_top" xlink:title=" ">
<polygon fill="white" stroke="black" points="102,-56.5 102,-86.5 236,-86.5 236,-56.5 102,-56.5"/>
<text text-anchor="start" x="110" y="-74.5" font-family="Helvetica,sans-Serif" font-size="10.00">src/RoL/threaded/shared</text>
<text text-anchor="middle" x="169" y="-63.5" font-family="Helvetica,sans-Serif" font-size="10.00">_queue.hpp</text>
</a>
</g>
</g>
<!-- Node1&#45;&gt;Node2 -->
<g id="edge1" class="edge">
<title>Node1&#45;&gt;Node2</title>
<path fill="none" stroke="midnightblue" d="M202.99,-115.53C195.79,-106.42 186.94,-95.21 180.08,-86.52"/>
<polygon fill="midnightblue" stroke="midnightblue" points="200.32,-117.8 209.27,-123.48 205.81,-113.46 200.32,-117.8"/>
</g>
<!-- Node4 -->
<g id="node4" class="node">
<title>Node4</title>
<g id="a_node4"><a xlink:href="riscv__online_8cpp.html" target="_top" xlink:title=" ">
<polygon fill="white" stroke="black" points="218.5,-0.5 218.5,-19.5 331.5,-19.5 331.5,-0.5 218.5,-0.5"/>
<text text-anchor="middle" x="275" y="-7.5" font-family="Helvetica,sans-Serif" font-size="10.00">src/riscv_online.cpp</text>
</a>
</g>
</g>
<!-- Node1&#45;&gt;Node4 -->
<g id="edge5" class="edge">
<title>Node1&#45;&gt;Node4</title>
<path fill="none" stroke="midnightblue" d="M228.08,-115C233.63,-106.77 240.07,-96.61 245,-87 257.05,-63.53 267.43,-34.04 272.2,-19.67"/>
<polygon fill="midnightblue" stroke="midnightblue" points="225.12,-113.13 222.31,-123.34 230.88,-117.11 225.12,-113.13"/>
</g>
<!-- Node3 -->
<g id="node3" class="node">
<title>Node3</title>
<g id="a_node3"><a xlink:href="emulator_8cpp.html" target="_top" xlink:title=" ">
<polygon fill="white" stroke="black" points="0,-0.5 0,-19.5 98,-19.5 98,-0.5 0,-0.5"/>
<text text-anchor="middle" x="49" y="-7.5" font-family="Helvetica,sans-Serif" font-size="10.00">src/emulator.cpp</text>
</a>
</g>
</g>
<!-- Node2&#45;&gt;Node3 -->
<g id="edge2" class="edge">
<title>Node2&#45;&gt;Node3</title>
<path fill="none" stroke="midnightblue" d="M131.57,-51.94C109.83,-41.16 83.46,-28.08 66.46,-19.66"/>
<polygon fill="midnightblue" stroke="midnightblue" points="130.05,-55.09 140.56,-56.4 133.16,-48.82 130.05,-55.09"/>
</g>
<!-- Node2&#45;&gt;Node4 -->
<g id="edge3" class="edge">
<title>Node2&#45;&gt;Node4</title>
<path fill="none" stroke="midnightblue" d="M203.1,-51.36C222.1,-40.69 244.83,-27.93 259.58,-19.66"/>
<polygon fill="midnightblue" stroke="midnightblue" points="201.13,-48.45 194.12,-56.4 204.55,-54.56 201.13,-48.45"/>
</g>
<!-- Node5 -->
<g id="node5" class="node">
<title>Node5</title>
<g id="a_node5"><a xlink:href="server_8cpp.html" target="_top" xlink:title=" ">
<polygon fill="white" stroke="black" points="116,-0.5 116,-19.5 200,-19.5 200,-0.5 116,-0.5"/>
<text text-anchor="middle" x="158" y="-7.5" font-family="Helvetica,sans-Serif" font-size="10.00">src/server.cpp</text>
</a>
</g>
</g>
<!-- Node2&#45;&gt;Node5 -->
<g id="edge4" class="edge">
<title>Node2&#45;&gt;Node5</title>
<path fill="none" stroke="midnightblue" d="M164.52,-46.29C162.78,-36.86 160.89,-26.65 159.6,-19.66"/>
<polygon fill="midnightblue" stroke="midnightblue" points="161.13,-47.2 166.39,-56.4 168.02,-45.93 161.13,-47.2"/>
</g>
</g>
</svg>
