<?xml version="1.0" encoding="UTF-8" standalone="no"?>
<!DOCTYPE svg PUBLIC "-//W3C//DTD SVG 1.1//EN"
 "http://www.w3.org/Graphics/SVG/1.1/DTD/svg11.dtd">
<!-- Generated by graphviz version 2.43.0 (0)
 -->
<!-- Title: src/RoL/threaded/queue.hpp Pages: 1 -->
<svg width="591pt" height="140pt"
 viewBox="0.00 0.00 590.50 140.00" xmlns="http://www.w3.org/2000/svg" xmlns:xlink="http://www.w3.org/1999/xlink">
<g id="graph0" class="graph" transform="scale(1 1) rotate(0) translate(4 136)">
<title>src/RoL/threaded/queue.hpp</title>
<polygon fill="white" stroke="transparent" points="-4,4 -4,-136 586.5,-136 586.5,4 -4,4"/>
<!-- Node1 -->
<g id="node1" class="node">
<title>Node1</title>
<g id="a_node1"><a xlink:title=" ">
<polygon fill="#bfbfbf" stroke="black" points="130.5,-112.5 130.5,-131.5 282.5,-131.5 282.5,-112.5 130.5,-112.5"/>
<text text-anchor="middle" x="206.5" y="-119.5" font-family="Helvetica,sans-Serif" font-size="10.00">src/RoL/threaded/queue.hpp</text>
</a>
</g>
</g>
<!-- Node2 -->
<g id="node2" class="node">
<title>Node2</title>
<g id="a_node2"><a xlink:href="riscv__online_8cpp.html" target="_top" xlink:title=" ">
<polygon fill="white" stroke="black" points="0,-0.5 0,-19.5 113,-19.5 113,-0.5 0,-0.5"/>
<text text-anchor="middle" x="56.5" y="-7.5" font-family="Helvetica,sans-Serif" font-size="10.00">src/riscv_online.cpp</text>
</a>
</g>
</g>
<!-- Node1&#45;&gt;Node2 -->
<g id="edge1" class="edge">
<title>Node1&#45;&gt;Node2</title>
<path fill="none" stroke="midnightblue" d="M186.61,-106.42C154.89,-83.15 93.8,-38.35 68.22,-19.59"/>
<polygon fill="midnightblue" stroke="midnightblue" points="184.6,-109.28 194.73,-112.37 188.74,-103.63 184.6,-109.28"/>
</g>
<!-- Node3 -->
<g id="node3" class="node">
<title>Node3</title>
<g id="a_node3"><a xlink:href="shared_8hpp.html" target="_top" xlink:title=" ">
<polygon fill="white" stroke="black" points="209,-56.5 209,-75.5 364,-75.5 364,-56.5 209,-56.5"/>
<text text-anchor="middle" x="286.5" y="-63.5" font-family="Helvetica,sans-Serif" font-size="10.00">src/RoL/threaded/shared.hpp</text>
</a>
</g>
</g>
<!-- Node1&#45;&gt;Node3 -->
<g id="edge2" class="edge">
<title>Node1&#45;&gt;Node3</title>
<path fill="none" stroke="midnightblue" d="M227.8,-106.62C242.42,-96.76 261.33,-83.99 273.68,-75.65"/>
<polygon fill="midnightblue" stroke="midnightblue" points="225.68,-103.83 219.35,-112.32 229.6,-109.63 225.68,-103.83"/>
</g>
<!-- Node3&#45;&gt;Node2 -->
<g id="edge4" class="edge">
<title>Node3&#45;&gt;Node2</title>
<path fill="none" stroke="midnightblue" d="M240.3,-54.15C196.84,-43.95 132.66,-28.88 92.77,-19.52"/>
<polygon fill="midnightblue" stroke="midnightblue" points="239.52,-57.57 250.06,-56.44 241.12,-50.75 239.52,-57.57"/>
</g>
<!-- Node4 -->
<g id="node4" class="node">
<title>Node4</title>
<g id="a_node4"><a xlink:href="emulator_8cpp.html" target="_top" xlink:title=" ">
<polygon fill="white" stroke="black" points="131,-0.5 131,-19.5 302,-19.5 302,-0.5 131,-0.5"/>
<text text-anchor="middle" x="216.5" y="-7.5" font-family="Helvetica,sans-Serif" font-size="10.00">src/RoL/emulation/emulator.cpp</text>
</a>
</g>
</g>
<!-- Node3&#45;&gt;Node4 -->
<g id="edge3" class="edge">
<title>Node3&#45;&gt;Node4</title>
<path fill="none" stroke="midnightblue" d="M267.19,-50.1C254.59,-40.38 238.57,-28.03 227.95,-19.83"/>
<polygon fill="midnightblue" stroke="midnightblue" points="265.2,-52.99 275.25,-56.32 269.47,-47.44 265.2,-52.99"/>
</g>
<!-- Node5 -->
<g id="node5" class="node">
<title>Node5</title>
<g id="a_node5"><a xlink:href="post_8cpp.html" target="_top" xlink:title=" ">
<polygon fill="white" stroke="black" points="320,-0.5 320,-19.5 395,-19.5 395,-0.5 320,-0.5"/>
<text text-anchor="middle" x="357.5" y="-7.5" font-family="Helvetica,sans-Serif" font-size="10.00">src/post.cpp</text>
</a>
</g>
</g>
<!-- Node3&#45;&gt;Node5 -->
<g id="edge5" class="edge">
<title>Node3&#45;&gt;Node5</title>
<path fill="none" stroke="midnightblue" d="M306.09,-50.1C318.87,-40.38 335.11,-28.03 345.89,-19.83"/>
<polygon fill="midnightblue" stroke="midnightblue" points="303.75,-47.48 297.91,-56.32 307.99,-53.06 303.75,-47.48"/>
</g>
<!-- Node6 -->
<g id="node6" class="node">
<title>Node6</title>
<g id="a_node6"><a xlink:href="server_8cpp.html" target="_top" xlink:title=" ">
<polygon fill="white" stroke="black" points="412.5,-0.5 412.5,-19.5 496.5,-19.5 496.5,-0.5 412.5,-0.5"/>
<text text-anchor="middle" x="454.5" y="-7.5" font-family="Helvetica,sans-Serif" font-size="10.00">src/server.cpp</text>
</a>
</g>
</g>
<!-- Node3&#45;&gt;Node6 -->
<g id="edge6" class="edge">
<title>Node3&#45;&gt;Node6</title>
<path fill="none" stroke="midnightblue" d="M322.89,-53.3C354.54,-43.13 399.67,-28.62 428,-19.52"/>
<polygon fill="midnightblue" stroke="midnightblue" points="321.57,-50.05 313.12,-56.44 323.71,-56.72 321.57,-50.05"/>
</g>
<!-- Node7 -->
<g id="node7" class="node">
<title>Node7</title>
<g id="a_node7"><a xlink:href="ssi_8cpp.html" target="_top" xlink:title=" ">
<polygon fill="white" stroke="black" points="514.5,-0.5 514.5,-19.5 582.5,-19.5 582.5,-0.5 514.5,-0.5"/>
<text text-anchor="middle" x="548.5" y="-7.5" font-family="Helvetica,sans-Serif" font-size="10.00">src/ssi.cpp</text>
</a>
</g>
</g>
<!-- Node3&#45;&gt;Node7 -->
<g id="edge7" class="edge">
<title>Node3&#45;&gt;Node7</title>
<path fill="none" stroke="midnightblue" d="M338.47,-54.38C382.85,-45.29 448.38,-31.85 505.5,-20 508.34,-19.41 511.28,-18.8 514.23,-18.18"/>
<polygon fill="midnightblue" stroke="midnightblue" points="337.59,-50.98 328.49,-56.42 338.99,-57.84 337.59,-50.98"/>
</g>
</g>
</svg>
