<?xml version="1.0" encoding="UTF-8" standalone="no"?>
<!DOCTYPE svg PUBLIC "-//W3C//DTD SVG 1.1//EN"
 "http://www.w3.org/Graphics/SVG/1.1/DTD/svg11.dtd">
<!-- Generated by graphviz version 2.43.0 (0)
 -->
<!-- Title: src/riscv_online.cpp Pages: 1 -->
<svg width="1008pt" height="207pt"
 viewBox="0.00 0.00 1008.00 207.00" xmlns="http://www.w3.org/2000/svg" xmlns:xlink="http://www.w3.org/1999/xlink">
<g id="graph0" class="graph" transform="scale(1 1) rotate(0) translate(4 203)">
<title>src/riscv_online.cpp</title>
<polygon fill="white" stroke="transparent" points="-4,4 -4,-203 1004,-203 1004,4 -4,4"/>
<!-- Node1 -->
<g id="node1" class="node">
<title>Node1</title>
<g id="a_node1"><a xlink:title=" ">
<polygon fill="#bfbfbf" stroke="black" points="510,-179.5 510,-198.5 623,-198.5 623,-179.5 510,-179.5"/>
<text text-anchor="middle" x="566.5" y="-186.5" font-family="Helvetica,sans-Serif" font-size="10.00">src/riscv_online.cpp</text>
</a>
</g>
</g>
<!-- Node2 -->
<g id="node2" class="node">
<title>Node2</title>
<g id="a_node2"><a xlink:title=" ">
<polygon fill="white" stroke="#bfbfbf" points="154,-118 154,-137 261,-137 261,-118 154,-118"/>
<text text-anchor="middle" x="207.5" y="-125" font-family="Helvetica,sans-Serif" font-size="10.00">pico/cyw43_arch.h</text>
</a>
</g>
</g>
<!-- Node1&#45;&gt;Node2 -->
<g id="edge1" class="edge">
<title>Node1&#45;&gt;Node2</title>
<path fill="none" stroke="midnightblue" d="M509.89,-180.78C449.96,-172.83 352.72,-159.01 269.5,-143 263.73,-141.89 257.68,-140.61 251.72,-139.29"/>
<polygon fill="midnightblue" stroke="midnightblue" points="252.36,-135.85 241.83,-137.04 250.8,-142.67 252.36,-135.85"/>
</g>
<!-- Node3 -->
<g id="node3" class="node">
<title>Node3</title>
<g id="a_node3"><a xlink:title=" ">
<polygon fill="white" stroke="#bfbfbf" points="279,-118 279,-137 374,-137 374,-118 279,-118"/>
<text text-anchor="middle" x="326.5" y="-125" font-family="Helvetica,sans-Serif" font-size="10.00">pico/multicore.h</text>
</a>
</g>
</g>
<!-- Node1&#45;&gt;Node3 -->
<g id="edge2" class="edge">
<title>Node1&#45;&gt;Node3</title>
<path fill="none" stroke="midnightblue" d="M531.4,-179.46C494.54,-170.47 434.92,-155.86 383.5,-143 379.09,-141.9 374.49,-140.74 369.9,-139.58"/>
<polygon fill="midnightblue" stroke="midnightblue" points="370.5,-136.12 359.94,-137.06 368.78,-142.91 370.5,-136.12"/>
</g>
<!-- Node4 -->
<g id="node4" class="node">
<title>Node4</title>
<g id="a_node4"><a xlink:title=" ">
<polygon fill="white" stroke="#bfbfbf" points="392.5,-118 392.5,-137 468.5,-137 468.5,-118 392.5,-118"/>
<text text-anchor="middle" x="430.5" y="-125" font-family="Helvetica,sans-Serif" font-size="10.00">pico/stdlib.h</text>
</a>
</g>
</g>
<!-- Node1&#45;&gt;Node4 -->
<g id="edge3" class="edge">
<title>Node1&#45;&gt;Node4</title>
<path fill="none" stroke="midnightblue" d="M547.01,-179.48C524.09,-169.45 485.81,-152.7 459.42,-141.15"/>
<polygon fill="midnightblue" stroke="midnightblue" points="460.51,-137.81 449.95,-137.01 457.71,-144.22 460.51,-137.81"/>
</g>
<!-- Node5 -->
<g id="node5" class="node">
<title>Node5</title>
<g id="a_node5"><a xlink:href="config_8hpp.html" target="_top" xlink:title="Edit to match your configuration and system.">
<polygon fill="white" stroke="black" points="487,-118 487,-137 554,-137 554,-118 487,-118"/>
<text text-anchor="middle" x="520.5" y="-125" font-family="Helvetica,sans-Serif" font-size="10.00">config.hpp</text>
</a>
</g>
</g>
<!-- Node1&#45;&gt;Node5 -->
<g id="edge4" class="edge">
<title>Node1&#45;&gt;Node5</title>
<path fill="none" stroke="midnightblue" d="M559.91,-179.48C553.01,-170.55 542,-156.31 533.37,-145.14"/>
<polygon fill="midnightblue" stroke="midnightblue" points="535.96,-142.78 527.08,-137.01 530.43,-147.06 535.96,-142.78"/>
</g>
<!-- Node6 -->
<g id="node6" class="node">
<title>Node6</title>
<g id="a_node6"><a xlink:href="emulator_8hpp.html" target="_top" xlink:title=" ">
<polygon fill="white" stroke="black" points="572,-118 572,-137 653,-137 653,-118 572,-118"/>
<text text-anchor="middle" x="612.5" y="-125" font-family="Helvetica,sans-Serif" font-size="10.00">emulator.hpp</text>
</a>
</g>
</g>
<!-- Node1&#45;&gt;Node6 -->
<g id="edge5" class="edge">
<title>Node1&#45;&gt;Node6</title>
<path fill="none" stroke="midnightblue" d="M573.09,-179.48C579.99,-170.55 591,-156.31 599.63,-145.14"/>
<polygon fill="midnightblue" stroke="midnightblue" points="602.57,-147.06 605.92,-137.01 597.04,-142.78 602.57,-147.06"/>
</g>
<!-- Node21 -->
<g id="node21" class="node">
<title>Node21</title>
<g id="a_node21"><a xlink:href="server_8hpp.html" target="_top" xlink:title=" ">
<polygon fill="white" stroke="black" points="671.5,-118 671.5,-137 739.5,-137 739.5,-118 671.5,-118"/>
<text text-anchor="middle" x="705.5" y="-125" font-family="Helvetica,sans-Serif" font-size="10.00">server.hpp</text>
</a>
</g>
</g>
<!-- Node1&#45;&gt;Node21 -->
<g id="edge22" class="edge">
<title>Node1&#45;&gt;Node21</title>
<path fill="none" stroke="midnightblue" d="M586.42,-179.48C609.95,-169.4 649.31,-152.55 676.29,-141"/>
<polygon fill="midnightblue" stroke="midnightblue" points="677.81,-144.16 685.62,-137.01 675.05,-137.73 677.81,-144.16"/>
</g>
<!-- Node22 -->
<g id="node22" class="node">
<title>Node22</title>
<g id="a_node22"><a xlink:href="queue_8hpp.html" target="_top" xlink:title=" ">
<polygon fill="white" stroke="black" points="787,-56.5 787,-75.5 922,-75.5 922,-56.5 787,-56.5"/>
<text text-anchor="middle" x="854.5" y="-63.5" font-family="Helvetica,sans-Serif" font-size="10.00">RoL/threaded/queue.hpp</text>
</a>
</g>
</g>
<!-- Node1&#45;&gt;Node22 -->
<g id="edge23" class="edge">
<title>Node1&#45;&gt;Node22</title>
<path fill="none" stroke="midnightblue" d="M623.2,-180.41C660.25,-173.93 708.92,-162.46 748.5,-143 768.37,-133.23 769.63,-125.07 787.5,-112 802.2,-101.25 819.25,-89.81 832.47,-81.16"/>
<polygon fill="midnightblue" stroke="midnightblue" points="834.46,-84.04 840.93,-75.65 830.64,-78.17 834.46,-84.04"/>
</g>
<!-- Node25 -->
<g id="node25" class="node">
<title>Node25</title>
<g id="a_node25"><a xlink:href="shared__queue_8hpp.html" target="_top" xlink:title=" ">
<polygon fill="white" stroke="black" points="796,-112.5 796,-142.5 913,-142.5 913,-112.5 796,-112.5"/>
<text text-anchor="start" x="804" y="-130.5" font-family="Helvetica,sans-Serif" font-size="10.00">RoL/threaded/shared</text>
<text text-anchor="middle" x="854.5" y="-119.5" font-family="Helvetica,sans-Serif" font-size="10.00">_queue.hpp</text>
</a>
</g>
</g>
<!-- Node1&#45;&gt;Node25 -->
<g id="edge27" class="edge">
<title>Node1&#45;&gt;Node25</title>
<path fill="none" stroke="midnightblue" d="M607.76,-179.48C654.18,-169.89 730.31,-154.16 785.75,-142.7"/>
<polygon fill="midnightblue" stroke="midnightblue" points="786.76,-146.07 795.85,-140.62 785.35,-139.21 786.76,-146.07"/>
</g>
<!-- Node7 -->
<g id="node7" class="node">
<title>Node7</title>
<g id="a_node7"><a xlink:title=" ">
<polygon fill="white" stroke="#bfbfbf" points="640.5,-56.5 640.5,-75.5 684.5,-75.5 684.5,-56.5 640.5,-56.5"/>
<text text-anchor="middle" x="662.5" y="-63.5" font-family="Helvetica,sans-Serif" font-size="10.00">bitset</text>
</a>
</g>
</g>
<!-- Node6&#45;&gt;Node7 -->
<g id="edge6" class="edge">
<title>Node6&#45;&gt;Node7</title>
<path fill="none" stroke="midnightblue" d="M619.66,-117.98C627.24,-108.96 639.37,-94.52 648.79,-83.31"/>
<polygon fill="midnightblue" stroke="midnightblue" points="651.6,-85.42 655.35,-75.51 646.24,-80.91 651.6,-85.42"/>
</g>
<!-- Node8 -->
<g id="node8" class="node">
<title>Node8</title>
<g id="a_node8"><a xlink:title=" ">
<polygon fill="white" stroke="#bfbfbf" points="792.5,-0.5 792.5,-19.5 836.5,-19.5 836.5,-0.5 792.5,-0.5"/>
<text text-anchor="middle" x="814.5" y="-7.5" font-family="Helvetica,sans-Serif" font-size="10.00">string</text>
</a>
</g>
</g>
<!-- Node6&#45;&gt;Node8 -->
<g id="edge7" class="edge">
<title>Node6&#45;&gt;Node8</title>
<path fill="none" stroke="midnightblue" d="M612.19,-117.73C612.16,-102.83 614.39,-72.59 631.5,-56 679.1,-9.84 713.19,-35.15 782.21,-20.03"/>
<polygon fill="midnightblue" stroke="midnightblue" points="783.29,-23.37 792.19,-17.62 781.64,-16.57 783.29,-23.37"/>
</g>
<!-- Node9 -->
<g id="node9" class="node">
<title>Node9</title>
<g id="a_node9"><a xlink:title=" ">
<polygon fill="white" stroke="#bfbfbf" points="0,-0.5 0,-19.5 47,-19.5 47,-0.5 0,-0.5"/>
<text text-anchor="middle" x="23.5" y="-7.5" font-family="Helvetica,sans-Serif" font-size="10.00">vector</text>
</a>
</g>
</g>
<!-- Node6&#45;&gt;Node9 -->
<g id="edge8" class="edge">
<title>Node6&#45;&gt;Node9</title>
<path fill="none" stroke="midnightblue" d="M584.86,-117.94C577.63,-115.84 569.8,-113.72 562.5,-112 342.83,-60.36 280.47,-71.17 57.26,-20.25"/>
<polygon fill="midnightblue" stroke="midnightblue" points="57.73,-16.76 47.2,-17.94 56.16,-23.59 57.73,-16.76"/>
</g>
<!-- Node10 -->
<g id="node10" class="node">
<title>Node10</title>
<g id="a_node10"><a xlink:href="parse_8hpp.html" target="_top" xlink:title=" ">
<polygon fill="white" stroke="black" points="394.5,-56.5 394.5,-75.5 480.5,-75.5 480.5,-56.5 394.5,-56.5"/>
<text text-anchor="middle" x="437.5" y="-63.5" font-family="Helvetica,sans-Serif" font-size="10.00">RoL/parse.hpp</text>
</a>
</g>
</g>
<!-- Node6&#45;&gt;Node10 -->
<g id="edge9" class="edge">
<title>Node6&#45;&gt;Node10</title>
<path fill="none" stroke="midnightblue" d="M587.43,-117.98C557.15,-107.68 506.06,-90.31 472.06,-78.75"/>
<polygon fill="midnightblue" stroke="midnightblue" points="473.12,-75.41 462.53,-75.51 470.87,-82.04 473.12,-75.41"/>
</g>
<!-- Node10&#45;&gt;Node8 -->
<g id="edge17" class="edge">
<title>Node10&#45;&gt;Node8</title>
<path fill="none" stroke="midnightblue" d="M480.74,-61.52C544.72,-55.91 668.47,-43.26 782.32,-19.97"/>
<polygon fill="midnightblue" stroke="midnightblue" points="783.17,-23.36 792.25,-17.9 781.75,-16.51 783.17,-23.36"/>
</g>
<!-- Node10&#45;&gt;Node9 -->
<g id="edge21" class="edge">
<title>Node10&#45;&gt;Node9</title>
<path fill="none" stroke="midnightblue" d="M394.48,-62.14C325.2,-57.06 184.55,-44.77 57.1,-20.06"/>
<polygon fill="midnightblue" stroke="midnightblue" points="57.65,-16.6 47.17,-18.1 56.3,-23.47 57.65,-16.6"/>
</g>
<!-- Node11 -->
<g id="node11" class="node">
<title>Node11</title>
<g id="a_node11"><a xlink:title=" ">
<polygon fill="white" stroke="#bfbfbf" points="656.5,-0.5 656.5,-19.5 720.5,-19.5 720.5,-0.5 656.5,-0.5"/>
<text text-anchor="middle" x="688.5" y="-7.5" font-family="Helvetica,sans-Serif" font-size="10.00">algorithm</text>
</a>
</g>
</g>
<!-- Node10&#45;&gt;Node11 -->
<g id="edge10" class="edge">
<title>Node10&#45;&gt;Node11</title>
<path fill="none" stroke="midnightblue" d="M477.27,-56.44C523.5,-46.5 599.47,-30.15 646.6,-20.02"/>
<polygon fill="midnightblue" stroke="midnightblue" points="647.44,-23.41 656.48,-17.89 645.97,-16.57 647.44,-23.41"/>
</g>
<!-- Node12 -->
<g id="node12" class="node">
<title>Node12</title>
<g id="a_node12"><a xlink:title=" ">
<polygon fill="white" stroke="#bfbfbf" points="739,-0.5 739,-19.5 774,-19.5 774,-0.5 739,-0.5"/>
<text text-anchor="middle" x="756.5" y="-7.5" font-family="Helvetica,sans-Serif" font-size="10.00">any</text>
</a>
</g>
</g>
<!-- Node10&#45;&gt;Node12 -->
<g id="edge11" class="edge">
<title>Node10&#45;&gt;Node12</title>
<path fill="none" stroke="midnightblue" d="M480.99,-60.62C536.47,-54.52 635.44,-41.94 729,-19.73"/>
<polygon fill="midnightblue" stroke="midnightblue" points="730.01,-23.09 738.91,-17.34 728.36,-16.29 730.01,-23.09"/>
</g>
<!-- Node13 -->
<g id="node13" class="node">
<title>Node13</title>
<g id="a_node13"><a xlink:title=" ">
<polygon fill="white" stroke="#bfbfbf" points="65,-0.5 65,-19.5 114,-19.5 114,-0.5 65,-0.5"/>
<text text-anchor="middle" x="89.5" y="-7.5" font-family="Helvetica,sans-Serif" font-size="10.00">cctype</text>
</a>
</g>
</g>
<!-- Node10&#45;&gt;Node13 -->
<g id="edge12" class="edge">
<title>Node10&#45;&gt;Node13</title>
<path fill="none" stroke="midnightblue" d="M394.41,-60.56C335.37,-54.11 225.91,-40.79 124.11,-20.14"/>
<polygon fill="midnightblue" stroke="midnightblue" points="124.79,-16.7 114.29,-18.12 123.38,-23.56 124.79,-16.7"/>
</g>
<!-- Node14 -->
<g id="node14" class="node">
<title>Node14</title>
<g id="a_node14"><a xlink:title=" ">
<polygon fill="white" stroke="#bfbfbf" points="132,-0.5 132,-19.5 185,-19.5 185,-0.5 132,-0.5"/>
<text text-anchor="middle" x="158.5" y="-7.5" font-family="Helvetica,sans-Serif" font-size="10.00">cstddef</text>
</a>
</g>
</g>
<!-- Node10&#45;&gt;Node14 -->
<g id="edge13" class="edge">
<title>Node10&#45;&gt;Node14</title>
<path fill="none" stroke="midnightblue" d="M394.32,-57.83C347.7,-49.91 271.04,-36.36 195.38,-20.08"/>
<polygon fill="midnightblue" stroke="midnightblue" points="195.71,-16.57 185.19,-17.87 194.22,-23.41 195.71,-16.57"/>
</g>
<!-- Node15 -->
<g id="node15" class="node">
<title>Node15</title>
<g id="a_node15"><a xlink:title=" ">
<polygon fill="white" stroke="#bfbfbf" points="203.5,-0.5 203.5,-19.5 241.5,-19.5 241.5,-0.5 203.5,-0.5"/>
<text text-anchor="middle" x="222.5" y="-7.5" font-family="Helvetica,sans-Serif" font-size="10.00">map</text>
</a>
</g>
</g>
<!-- Node10&#45;&gt;Node15 -->
<g id="edge14" class="edge">
<title>Node10&#45;&gt;Node15</title>
<path fill="none" stroke="midnightblue" d="M398.24,-56.45C362.33,-48.43 307.54,-35.7 251.46,-20.12"/>
<polygon fill="midnightblue" stroke="midnightblue" points="252.3,-16.72 241.72,-17.39 250.41,-23.46 252.3,-16.72"/>
</g>
<!-- Node16 -->
<g id="node16" class="node">
<title>Node16</title>
<g id="a_node16"><a xlink:title=" ">
<polygon fill="white" stroke="#bfbfbf" points="259.5,-0.5 259.5,-19.5 315.5,-19.5 315.5,-0.5 259.5,-0.5"/>
<text text-anchor="middle" x="287.5" y="-7.5" font-family="Helvetica,sans-Serif" font-size="10.00">optional</text>
</a>
</g>
</g>
<!-- Node10&#45;&gt;Node16 -->
<g id="edge15" class="edge">
<title>Node10&#45;&gt;Node16</title>
<path fill="none" stroke="midnightblue" d="M413.73,-56.44C388.61,-47.4 348.79,-33.06 320.6,-22.92"/>
<polygon fill="midnightblue" stroke="midnightblue" points="321.75,-19.61 311.16,-19.52 319.38,-26.2 321.75,-19.61"/>
</g>
<!-- Node17 -->
<g id="node17" class="node">
<title>Node17</title>
<g id="a_node17"><a xlink:title=" ">
<polygon fill="white" stroke="#bfbfbf" points="334,-0.5 334,-19.5 399,-19.5 399,-0.5 334,-0.5"/>
<text text-anchor="middle" x="366.5" y="-7.5" font-family="Helvetica,sans-Serif" font-size="10.00">stdexcept</text>
</a>
</g>
</g>
<!-- Node10&#45;&gt;Node17 -->
<g id="edge16" class="edge">
<title>Node10&#45;&gt;Node17</title>
<path fill="none" stroke="midnightblue" d="M426.09,-56.32C415.39,-48.18 399.16,-35.84 386.34,-26.09"/>
<polygon fill="midnightblue" stroke="midnightblue" points="388.19,-23.1 378.11,-19.83 383.96,-28.67 388.19,-23.1"/>
</g>
<!-- Node18 -->
<g id="node18" class="node">
<title>Node18</title>
<g id="a_node18"><a xlink:title=" ">
<polygon fill="white" stroke="#bfbfbf" points="417,-0.5 417,-19.5 458,-19.5 458,-0.5 417,-0.5"/>
<text text-anchor="middle" x="437.5" y="-7.5" font-family="Helvetica,sans-Serif" font-size="10.00">tuple</text>
</a>
</g>
</g>
<!-- Node10&#45;&gt;Node18 -->
<g id="edge18" class="edge">
<title>Node10&#45;&gt;Node18</title>
<path fill="none" stroke="midnightblue" d="M437.5,-56.08C437.5,-49.01 437.5,-38.86 437.5,-29.99"/>
<polygon fill="midnightblue" stroke="midnightblue" points="441,-29.75 437.5,-19.75 434,-29.75 441,-29.75"/>
</g>
<!-- Node19 -->
<g id="node19" class="node">
<title>Node19</title>
<g id="a_node19"><a xlink:title=" ">
<polygon fill="white" stroke="#bfbfbf" points="476,-0.5 476,-19.5 569,-19.5 569,-0.5 476,-0.5"/>
<text text-anchor="middle" x="522.5" y="-7.5" font-family="Helvetica,sans-Serif" font-size="10.00">unordered_map</text>
</a>
</g>
</g>
<!-- Node10&#45;&gt;Node19 -->
<g id="edge19" class="edge">
<title>Node10&#45;&gt;Node19</title>
<path fill="none" stroke="midnightblue" d="M451.16,-56.32C464.42,-47.9 484.77,-34.97 500.35,-25.07"/>
<polygon fill="midnightblue" stroke="midnightblue" points="502.31,-27.97 508.88,-19.65 498.56,-22.06 502.31,-27.97"/>
</g>
<!-- Node20 -->
<g id="node20" class="node">
<title>Node20</title>
<g id="a_node20"><a xlink:title=" ">
<polygon fill="white" stroke="#bfbfbf" points="587,-0.5 587,-19.5 638,-19.5 638,-0.5 587,-0.5"/>
<text text-anchor="middle" x="612.5" y="-7.5" font-family="Helvetica,sans-Serif" font-size="10.00">variant</text>
</a>
</g>
</g>
<!-- Node10&#45;&gt;Node20 -->
<g id="edge20" class="edge">
<title>Node10&#45;&gt;Node20</title>
<path fill="none" stroke="midnightblue" d="M465.23,-56.44C495.54,-47.09 544.17,-32.08 577.19,-21.9"/>
<polygon fill="midnightblue" stroke="midnightblue" points="578.37,-25.19 586.89,-18.9 576.31,-18.51 578.37,-25.19"/>
</g>
<!-- Node22&#45;&gt;Node8 -->
<g id="edge26" class="edge">
<title>Node22&#45;&gt;Node8</title>
<path fill="none" stroke="midnightblue" d="M847.89,-56.08C842.24,-48.46 833.96,-37.26 827.05,-27.94"/>
<polygon fill="midnightblue" stroke="midnightblue" points="829.75,-25.7 820.98,-19.75 824.12,-29.87 829.75,-25.7"/>
</g>
<!-- Node23 -->
<g id="node23" class="node">
<title>Node23</title>
<g id="a_node23"><a xlink:title=" ">
<polygon fill="white" stroke="#bfbfbf" points="854.5,-0.5 854.5,-19.5 934.5,-19.5 934.5,-0.5 854.5,-0.5"/>
<text text-anchor="middle" x="894.5" y="-7.5" font-family="Helvetica,sans-Serif" font-size="10.00">pico/mutex.h</text>
</a>
</g>
</g>
<!-- Node22&#45;&gt;Node23 -->
<g id="edge24" class="edge">
<title>Node22&#45;&gt;Node23</title>
<path fill="none" stroke="midnightblue" d="M861.11,-56.08C866.76,-48.46 875.04,-37.26 881.95,-27.94"/>
<polygon fill="midnightblue" stroke="midnightblue" points="884.88,-29.87 888.02,-19.75 879.25,-25.7 884.88,-29.87"/>
</g>
<!-- Node24 -->
<g id="node24" class="node">
<title>Node24</title>
<g id="a_node24"><a xlink:title=" ">
<polygon fill="white" stroke="#bfbfbf" points="953,-0.5 953,-19.5 1000,-19.5 1000,-0.5 953,-0.5"/>
<text text-anchor="middle" x="976.5" y="-7.5" font-family="Helvetica,sans-Serif" font-size="10.00">queue</text>
</a>
</g>
</g>
<!-- Node22&#45;&gt;Node24 -->
<g id="edge25" class="edge">
<title>Node22&#45;&gt;Node24</title>
<path fill="none" stroke="midnightblue" d="M873.83,-56.44C893.82,-47.6 925.24,-33.69 948.06,-23.59"/>
<polygon fill="midnightblue" stroke="midnightblue" points="949.53,-26.76 957.26,-19.52 946.7,-20.36 949.53,-26.76"/>
</g>
<!-- Node25&#45;&gt;Node22 -->
<g id="edge28" class="edge">
<title>Node25&#45;&gt;Node22</title>
<path fill="none" stroke="midnightblue" d="M854.5,-112.4C854.5,-104.47 854.5,-94.46 854.5,-85.86"/>
<polygon fill="midnightblue" stroke="midnightblue" points="858,-85.66 854.5,-75.66 851,-85.66 858,-85.66"/>
</g>
</g>
</svg>
