<?xml version="1.0" encoding="UTF-8" standalone="no"?>
<!DOCTYPE svg PUBLIC "-//W3C//DTD SVG 1.1//EN"
 "http://www.w3.org/Graphics/SVG/1.1/DTD/svg11.dtd">
<!-- Generated by graphviz version 2.43.0 (0)
 -->
<!-- Title: src/riscv_online.cpp Pages: 1 -->
<svg width="913pt" height="207pt"
 viewBox="0.00 0.00 912.50 207.00" xmlns="http://www.w3.org/2000/svg" xmlns:xlink="http://www.w3.org/1999/xlink">
<g id="graph0" class="graph" transform="scale(1 1) rotate(0) translate(4 203)">
<title>src/riscv_online.cpp</title>
<polygon fill="white" stroke="transparent" points="-4,4 -4,-203 908.5,-203 908.5,4 -4,4"/>
<!-- Node1 -->
<g id="node1" class="node">
<title>Node1</title>
<g id="a_node1"><a xlink:title=" ">
<polygon fill="#bfbfbf" stroke="black" points="353,-179.5 353,-198.5 466,-198.5 466,-179.5 353,-179.5"/>
<text text-anchor="middle" x="409.5" y="-186.5" font-family="Helvetica,sans-Serif" font-size="10.00">src/riscv_online.cpp</text>
</a>
</g>
</g>
<!-- Node2 -->
<g id="node2" class="node">
<title>Node2</title>
<g id="a_node2"><a xlink:title=" ">
<polygon fill="white" stroke="#bfbfbf" points="0,-118 0,-137 107,-137 107,-118 0,-118"/>
<text text-anchor="middle" x="53.5" y="-125" font-family="Helvetica,sans-Serif" font-size="10.00">pico/cyw43_arch.h</text>
</a>
</g>
</g>
<!-- Node1&#45;&gt;Node2 -->
<g id="edge1" class="edge">
<title>Node1&#45;&gt;Node2</title>
<path fill="none" stroke="midnightblue" d="M352.91,-180.67C293.55,-172.67 197.63,-158.86 115.5,-143 109.73,-141.89 103.68,-140.61 97.72,-139.28"/>
<polygon fill="midnightblue" stroke="midnightblue" points="98.36,-135.84 87.83,-137.03 96.8,-142.67 98.36,-135.84"/>
</g>
<!-- Node3 -->
<g id="node3" class="node">
<title>Node3</title>
<g id="a_node3"><a xlink:title=" ">
<polygon fill="white" stroke="#bfbfbf" points="125,-118 125,-137 220,-137 220,-118 125,-118"/>
<text text-anchor="middle" x="172.5" y="-125" font-family="Helvetica,sans-Serif" font-size="10.00">pico/multicore.h</text>
</a>
</g>
</g>
<!-- Node1&#45;&gt;Node3 -->
<g id="edge2" class="edge">
<title>Node1&#45;&gt;Node3</title>
<path fill="none" stroke="midnightblue" d="M375.32,-179.5C339.1,-170.48 280.25,-155.8 229.5,-143 225.09,-141.89 220.49,-140.73 215.91,-139.56"/>
<polygon fill="midnightblue" stroke="midnightblue" points="216.5,-136.1 205.95,-137.03 214.78,-142.89 216.5,-136.1"/>
</g>
<!-- Node4 -->
<g id="node4" class="node">
<title>Node4</title>
<g id="a_node4"><a xlink:title=" ">
<polygon fill="white" stroke="#bfbfbf" points="238.5,-118 238.5,-137 314.5,-137 314.5,-118 238.5,-118"/>
<text text-anchor="middle" x="276.5" y="-125" font-family="Helvetica,sans-Serif" font-size="10.00">pico/stdlib.h</text>
</a>
</g>
</g>
<!-- Node1&#45;&gt;Node4 -->
<g id="edge3" class="edge">
<title>Node1&#45;&gt;Node4</title>
<path fill="none" stroke="midnightblue" d="M390.44,-179.48C368.03,-169.45 330.59,-152.7 304.79,-141.15"/>
<polygon fill="midnightblue" stroke="midnightblue" points="306.08,-137.9 295.52,-137.01 303.22,-144.29 306.08,-137.9"/>
</g>
<!-- Node5 -->
<g id="node5" class="node">
<title>Node5</title>
<g id="a_node5"><a xlink:href="config_8hpp.html" target="_top" xlink:title="Edit to match your configuration and system.">
<polygon fill="white" stroke="black" points="333,-118 333,-137 400,-137 400,-118 333,-118"/>
<text text-anchor="middle" x="366.5" y="-125" font-family="Helvetica,sans-Serif" font-size="10.00">config.hpp</text>
</a>
</g>
</g>
<!-- Node1&#45;&gt;Node5 -->
<g id="edge4" class="edge">
<title>Node1&#45;&gt;Node5</title>
<path fill="none" stroke="midnightblue" d="M403.34,-179.48C396.89,-170.55 386.6,-156.31 378.53,-145.14"/>
<polygon fill="midnightblue" stroke="midnightblue" points="381.34,-143.06 372.65,-137.01 375.67,-147.16 381.34,-143.06"/>
</g>
<!-- Node6 -->
<g id="node6" class="node">
<title>Node6</title>
<g id="a_node6"><a xlink:href="server_8hpp.html" target="_top" xlink:title=" ">
<polygon fill="white" stroke="black" points="418.5,-118 418.5,-137 486.5,-137 486.5,-118 418.5,-118"/>
<text text-anchor="middle" x="452.5" y="-125" font-family="Helvetica,sans-Serif" font-size="10.00">server.hpp</text>
</a>
</g>
</g>
<!-- Node1&#45;&gt;Node6 -->
<g id="edge5" class="edge">
<title>Node1&#45;&gt;Node6</title>
<path fill="none" stroke="midnightblue" d="M415.66,-179.48C422.11,-170.55 432.4,-156.31 440.47,-145.14"/>
<polygon fill="midnightblue" stroke="midnightblue" points="443.33,-147.16 446.35,-137.01 437.66,-143.06 443.33,-147.16"/>
</g>
<!-- Node7 -->
<g id="node7" class="node">
<title>Node7</title>
<g id="a_node7"><a xlink:href="emulator_8hpp.html" target="_top" xlink:title=" ">
<polygon fill="white" stroke="black" points="505,-118 505,-137 660,-137 660,-118 505,-118"/>
<text text-anchor="middle" x="582.5" y="-125" font-family="Helvetica,sans-Serif" font-size="10.00">RoL/emulation/emulator.hpp</text>
</a>
</g>
</g>
<!-- Node1&#45;&gt;Node7 -->
<g id="edge6" class="edge">
<title>Node1&#45;&gt;Node7</title>
<path fill="none" stroke="midnightblue" d="M434.29,-179.48C464.09,-169.22 514.29,-151.96 547.9,-140.4"/>
<polygon fill="midnightblue" stroke="midnightblue" points="549.44,-143.57 557.76,-137.01 547.16,-136.95 549.44,-143.57"/>
</g>
<!-- Node17 -->
<g id="node17" class="node">
<title>Node17</title>
<g id="a_node17"><a xlink:href="queue_8hpp.html" target="_top" xlink:title=" ">
<polygon fill="white" stroke="black" points="708,-56.5 708,-75.5 843,-75.5 843,-56.5 708,-56.5"/>
<text text-anchor="middle" x="775.5" y="-63.5" font-family="Helvetica,sans-Serif" font-size="10.00">RoL/threaded/queue.hpp</text>
</a>
</g>
</g>
<!-- Node1&#45;&gt;Node17 -->
<g id="edge18" class="edge">
<title>Node1&#45;&gt;Node17</title>
<path fill="none" stroke="midnightblue" d="M466.08,-186.01C520.12,-182.34 602.84,-171.98 668.5,-143 689.08,-133.92 690.26,-125.17 708.5,-112 723.36,-101.27 740.53,-89.76 753.76,-81.06"/>
<polygon fill="midnightblue" stroke="midnightblue" points="755.77,-83.93 762.22,-75.54 751.94,-78.07 755.77,-83.93"/>
</g>
<!-- Node20 -->
<g id="node20" class="node">
<title>Node20</title>
<g id="a_node20"><a xlink:href="shared__queue_8hpp.html" target="_top" xlink:title=" ">
<polygon fill="white" stroke="black" points="717,-112.5 717,-142.5 834,-142.5 834,-112.5 717,-112.5"/>
<text text-anchor="start" x="725" y="-130.5" font-family="Helvetica,sans-Serif" font-size="10.00">RoL/threaded/shared</text>
<text text-anchor="middle" x="775.5" y="-119.5" font-family="Helvetica,sans-Serif" font-size="10.00">_queue.hpp</text>
</a>
</g>
</g>
<!-- Node1&#45;&gt;Node20 -->
<g id="edge22" class="edge">
<title>Node1&#45;&gt;Node20</title>
<path fill="none" stroke="midnightblue" d="M466.06,-180.06C525.16,-171.59 620.52,-157.43 702.5,-143 703.97,-142.74 705.46,-142.48 706.96,-142.21"/>
<polygon fill="midnightblue" stroke="midnightblue" points="707.77,-145.61 716.97,-140.36 706.5,-138.73 707.77,-145.61"/>
</g>
<!-- Node8 -->
<g id="node8" class="node">
<title>Node8</title>
<g id="a_node8"><a xlink:title=" ">
<polygon fill="white" stroke="#bfbfbf" points="610.5,-56.5 610.5,-75.5 654.5,-75.5 654.5,-56.5 610.5,-56.5"/>
<text text-anchor="middle" x="632.5" y="-63.5" font-family="Helvetica,sans-Serif" font-size="10.00">bitset</text>
</a>
</g>
</g>
<!-- Node7&#45;&gt;Node8 -->
<g id="edge7" class="edge">
<title>Node7&#45;&gt;Node8</title>
<path fill="none" stroke="midnightblue" d="M589.66,-117.98C597.24,-108.96 609.37,-94.52 618.79,-83.31"/>
<polygon fill="midnightblue" stroke="midnightblue" points="621.6,-85.42 625.35,-75.51 616.24,-80.91 621.6,-85.42"/>
</g>
<!-- Node9 -->
<g id="node9" class="node">
<title>Node9</title>
<g id="a_node9"><a xlink:title=" ">
<polygon fill="white" stroke="#bfbfbf" points="696.5,-0.5 696.5,-19.5 740.5,-19.5 740.5,-0.5 696.5,-0.5"/>
<text text-anchor="middle" x="718.5" y="-7.5" font-family="Helvetica,sans-Serif" font-size="10.00">string</text>
</a>
</g>
</g>
<!-- Node7&#45;&gt;Node9 -->
<g id="edge8" class="edge">
<title>Node7&#45;&gt;Node9</title>
<path fill="none" stroke="midnightblue" d="M582.43,-117.97C582.78,-103.43 585.55,-73.7 601.5,-56 607.51,-49.33 654.34,-32.58 686.9,-21.5"/>
<polygon fill="midnightblue" stroke="midnightblue" points="688.13,-24.78 696.48,-18.26 685.89,-18.15 688.13,-24.78"/>
</g>
<!-- Node10 -->
<g id="node10" class="node">
<title>Node10</title>
<g id="a_node10"><a xlink:title=" ">
<polygon fill="white" stroke="#bfbfbf" points="266,-0.5 266,-19.5 313,-19.5 313,-0.5 266,-0.5"/>
<text text-anchor="middle" x="289.5" y="-7.5" font-family="Helvetica,sans-Serif" font-size="10.00">vector</text>
</a>
</g>
</g>
<!-- Node7&#45;&gt;Node10 -->
<g id="edge9" class="edge">
<title>Node7&#45;&gt;Node10</title>
<path fill="none" stroke="midnightblue" d="M559,-117.97C532,-108.11 486.4,-91.27 447.5,-76 402.66,-58.39 351.11,-36.96 319.43,-23.65"/>
<polygon fill="midnightblue" stroke="midnightblue" points="320.44,-20.28 309.87,-19.63 317.73,-26.73 320.44,-20.28"/>
</g>
<!-- Node11 -->
<g id="node11" class="node">
<title>Node11</title>
<g id="a_node11"><a xlink:href="parse_8hpp.html" target="_top" xlink:title=" ">
<polygon fill="white" stroke="black" points="456.5,-56.5 456.5,-75.5 542.5,-75.5 542.5,-56.5 456.5,-56.5"/>
<text text-anchor="middle" x="499.5" y="-63.5" font-family="Helvetica,sans-Serif" font-size="10.00">RoL/parse.hpp</text>
</a>
</g>
</g>
<!-- Node7&#45;&gt;Node11 -->
<g id="edge10" class="edge">
<title>Node7&#45;&gt;Node11</title>
<path fill="none" stroke="midnightblue" d="M570.61,-117.98C557.3,-108.43 535.5,-92.81 519.54,-81.37"/>
<polygon fill="midnightblue" stroke="midnightblue" points="521.54,-78.49 511.37,-75.51 517.46,-84.18 521.54,-78.49"/>
</g>
<!-- Node11&#45;&gt;Node9 -->
<g id="edge14" class="edge">
<title>Node11&#45;&gt;Node9</title>
<path fill="none" stroke="midnightblue" d="M536.86,-56.45C574.68,-47.69 634.8,-33.49 686.5,-20 686.6,-19.97 686.7,-19.95 686.8,-19.92"/>
<polygon fill="midnightblue" stroke="midnightblue" points="687.75,-23.29 696.5,-17.31 685.93,-16.53 687.75,-23.29"/>
</g>
<!-- Node11&#45;&gt;Node10 -->
<g id="edge17" class="edge">
<title>Node11&#45;&gt;Node10</title>
<path fill="none" stroke="midnightblue" d="M465.19,-56.46C431.52,-48.05 378.46,-34.67 323.24,-20.16"/>
<polygon fill="midnightblue" stroke="midnightblue" points="323.84,-16.7 313.28,-17.54 322.06,-23.47 323.84,-16.7"/>
</g>
<!-- Node12 -->
<g id="node12" class="node">
<title>Node12</title>
<g id="a_node12"><a xlink:title=" ">
<polygon fill="white" stroke="#bfbfbf" points="558,-0.5 558,-19.5 607,-19.5 607,-0.5 558,-0.5"/>
<text text-anchor="middle" x="582.5" y="-7.5" font-family="Helvetica,sans-Serif" font-size="10.00">cctype</text>
</a>
</g>
</g>
<!-- Node11&#45;&gt;Node12 -->
<g id="edge11" class="edge">
<title>Node11&#45;&gt;Node12</title>
<path fill="none" stroke="midnightblue" d="M512.84,-56.32C525.66,-47.98 545.28,-35.21 560.44,-25.35"/>
<polygon fill="midnightblue" stroke="midnightblue" points="562.72,-28.04 569.2,-19.65 558.91,-22.17 562.72,-28.04"/>
</g>
<!-- Node13 -->
<g id="node13" class="node">
<title>Node13</title>
<g id="a_node13"><a xlink:title=" ">
<polygon fill="white" stroke="#bfbfbf" points="625,-0.5 625,-19.5 678,-19.5 678,-0.5 625,-0.5"/>
<text text-anchor="middle" x="651.5" y="-7.5" font-family="Helvetica,sans-Serif" font-size="10.00">cstddef</text>
</a>
</g>
</g>
<!-- Node11&#45;&gt;Node13 -->
<g id="edge12" class="edge">
<title>Node11&#45;&gt;Node13</title>
<path fill="none" stroke="midnightblue" d="M523.58,-56.44C549.04,-47.4 589.39,-33.06 617.96,-22.92"/>
<polygon fill="midnightblue" stroke="midnightblue" points="619.28,-26.16 627.53,-19.52 616.93,-19.57 619.28,-26.16"/>
</g>
<!-- Node14 -->
<g id="node14" class="node">
<title>Node14</title>
<g id="a_node14"><a xlink:title=" ">
<polygon fill="white" stroke="#bfbfbf" points="331.5,-0.5 331.5,-19.5 369.5,-19.5 369.5,-0.5 331.5,-0.5"/>
<text text-anchor="middle" x="350.5" y="-7.5" font-family="Helvetica,sans-Serif" font-size="10.00">map</text>
</a>
</g>
</g>
<!-- Node11&#45;&gt;Node14 -->
<g id="edge13" class="edge">
<title>Node11&#45;&gt;Node14</title>
<path fill="none" stroke="midnightblue" d="M475.89,-56.44C449.73,-46.96 407.52,-31.67 379.4,-21.47"/>
<polygon fill="midnightblue" stroke="midnightblue" points="380.33,-18.09 369.73,-17.97 377.94,-24.67 380.33,-18.09"/>
</g>
<!-- Node15 -->
<g id="node15" class="node">
<title>Node15</title>
<g id="a_node15"><a xlink:title=" ">
<polygon fill="white" stroke="#bfbfbf" points="388,-0.5 388,-19.5 429,-19.5 429,-0.5 388,-0.5"/>
<text text-anchor="middle" x="408.5" y="-7.5" font-family="Helvetica,sans-Serif" font-size="10.00">tuple</text>
</a>
</g>
</g>
<!-- Node11&#45;&gt;Node15 -->
<g id="edge15" class="edge">
<title>Node11&#45;&gt;Node15</title>
<path fill="none" stroke="midnightblue" d="M484.88,-56.32C470.55,-47.82 448.49,-34.73 431.75,-24.8"/>
<polygon fill="midnightblue" stroke="midnightblue" points="433.47,-21.75 423.08,-19.65 429.9,-27.77 433.47,-21.75"/>
</g>
<!-- Node16 -->
<g id="node16" class="node">
<title>Node16</title>
<g id="a_node16"><a xlink:title=" ">
<polygon fill="white" stroke="#bfbfbf" points="447,-0.5 447,-19.5 540,-19.5 540,-0.5 447,-0.5"/>
<text text-anchor="middle" x="493.5" y="-7.5" font-family="Helvetica,sans-Serif" font-size="10.00">unordered_map</text>
</a>
</g>
</g>
<!-- Node11&#45;&gt;Node16 -->
<g id="edge16" class="edge">
<title>Node11&#45;&gt;Node16</title>
<path fill="none" stroke="midnightblue" d="M498.51,-56.08C497.71,-48.93 496.57,-38.64 495.58,-29.69"/>
<polygon fill="midnightblue" stroke="midnightblue" points="499.06,-29.3 494.47,-19.75 492.1,-30.08 499.06,-29.3"/>
</g>
<!-- Node17&#45;&gt;Node9 -->
<g id="edge21" class="edge">
<title>Node17&#45;&gt;Node9</title>
<path fill="none" stroke="midnightblue" d="M766.34,-56.32C758,-48.42 745.47,-36.55 735.32,-26.94"/>
<polygon fill="midnightblue" stroke="midnightblue" points="737.49,-24.17 727.82,-19.83 732.68,-29.25 737.49,-24.17"/>
</g>
<!-- Node18 -->
<g id="node18" class="node">
<title>Node18</title>
<g id="a_node18"><a xlink:title=" ">
<polygon fill="white" stroke="#bfbfbf" points="824.5,-0.5 824.5,-19.5 904.5,-19.5 904.5,-0.5 824.5,-0.5"/>
<text text-anchor="middle" x="864.5" y="-7.5" font-family="Helvetica,sans-Serif" font-size="10.00">pico/mutex.h</text>
</a>
</g>
</g>
<!-- Node17&#45;&gt;Node18 -->
<g id="edge19" class="edge">
<title>Node17&#45;&gt;Node18</title>
<path fill="none" stroke="midnightblue" d="M789.8,-56.32C803.68,-47.9 824.99,-34.97 841.3,-25.07"/>
<polygon fill="midnightblue" stroke="midnightblue" points="843.5,-27.83 850.24,-19.65 839.87,-21.85 843.5,-27.83"/>
</g>
<!-- Node19 -->
<g id="node19" class="node">
<title>Node19</title>
<g id="a_node19"><a xlink:title=" ">
<polygon fill="white" stroke="#bfbfbf" points="759,-0.5 759,-19.5 806,-19.5 806,-0.5 759,-0.5"/>
<text text-anchor="middle" x="782.5" y="-7.5" font-family="Helvetica,sans-Serif" font-size="10.00">queue</text>
</a>
</g>
</g>
<!-- Node17&#45;&gt;Node19 -->
<g id="edge20" class="edge">
<title>Node17&#45;&gt;Node19</title>
<path fill="none" stroke="midnightblue" d="M776.66,-56.08C777.58,-48.93 778.92,-38.64 780.08,-29.69"/>
<polygon fill="midnightblue" stroke="midnightblue" points="783.55,-30.12 781.37,-19.75 776.61,-29.22 783.55,-30.12"/>
</g>
<!-- Node20&#45;&gt;Node17 -->
<g id="edge23" class="edge">
<title>Node20&#45;&gt;Node17</title>
<path fill="none" stroke="midnightblue" d="M775.5,-112.4C775.5,-104.47 775.5,-94.46 775.5,-85.86"/>
<polygon fill="midnightblue" stroke="midnightblue" points="779,-85.66 775.5,-75.66 772,-85.66 779,-85.66"/>
</g>
</g>
</svg>
