<?xml version="1.0" encoding="UTF-8" standalone="no"?>
<!DOCTYPE svg PUBLIC "-//W3C//DTD SVG 1.1//EN"
 "http://www.w3.org/Graphics/SVG/1.1/DTD/svg11.dtd">
<!-- Generated by graphviz version 2.43.0 (0)
 -->
<!-- Title: main Pages: 1 -->
<svg width="490pt" height="66pt"
 viewBox="0.00 0.00 490.00 66.00" xmlns="http://www.w3.org/2000/svg" xmlns:xlink="http://www.w3.org/1999/xlink">
<g id="graph0" class="graph" transform="scale(1 1) rotate(0) translate(4 62)">
<title>main</title>
<polygon fill="white" stroke="transparent" points="-4,4 -4,-62 486,-62 486,4 -4,4"/>
<!-- Node1 -->
<g id="node1" class="node">
<title>Node1</title>
<g id="a_node1"><a xlink:title=" ">
<polygon fill="#bfbfbf" stroke="black" points="0,-19.5 0,-38.5 41,-38.5 41,-19.5 0,-19.5"/>
<text text-anchor="middle" x="20.5" y="-26.5" font-family="Helvetica,sans-Serif" font-size="10.00">main</text>
</a>
</g>
</g>
<!-- Node2 -->
<g id="node2" class="node">
<title>Node2</title>
<g id="a_node2"><a xlink:href="namespaceemulation.html#af40bee66d457d56de0b3b721199a7e10" target="_top" xlink:title=" ">
<polygon fill="white" stroke="black" points="77,-38.5 77,-57.5 165,-57.5 165,-38.5 77,-38.5"/>
<text text-anchor="middle" x="121" y="-45.5" font-family="Helvetica,sans-Serif" font-size="10.00">emulation::run</text>
</a>
</g>
</g>
<!-- Node1&#45;&gt;Node2 -->
<g id="edge1" class="edge">
<title>Node1&#45;&gt;Node2</title>
<path fill="none" stroke="midnightblue" d="M41.43,-32.84C48.95,-34.29 57.89,-36.02 67.01,-37.78"/>
<polygon fill="midnightblue" stroke="midnightblue" points="66.43,-41.23 76.91,-39.69 67.75,-34.36 66.43,-41.23"/>
</g>
<!-- Node3 -->
<g id="node3" class="node">
<title>Node3</title>
<g id="a_node3"><a xlink:href="namespaceserver.html#a66bd9eb32455d0581abe2c82dda4dc87" target="_top" xlink:title=" ">
<polygon fill="white" stroke="black" points="86.5,-0.5 86.5,-19.5 155.5,-19.5 155.5,-0.5 86.5,-0.5"/>
<text text-anchor="middle" x="121" y="-7.5" font-family="Helvetica,sans-Serif" font-size="10.00">server::run</text>
</a>
</g>
</g>
<!-- Node1&#45;&gt;Node3 -->
<g id="edge2" class="edge">
<title>Node1&#45;&gt;Node3</title>
<path fill="none" stroke="midnightblue" d="M41.43,-25.16C51.45,-23.22 64,-20.8 76.12,-18.46"/>
<polygon fill="midnightblue" stroke="midnightblue" points="76.97,-21.86 86.13,-16.53 75.65,-14.99 76.97,-21.86"/>
</g>
<!-- Node4 -->
<g id="node4" class="node">
<title>Node4</title>
<g id="a_node4"><a xlink:href="namespaceserver.html#ad541d1c9a5343ca647c393636ca0f327" target="_top" xlink:title=" ">
<polygon fill="white" stroke="black" points="201,-0.5 201,-19.5 287,-19.5 287,-0.5 201,-0.5"/>
<text text-anchor="middle" x="244" y="-7.5" font-family="Helvetica,sans-Serif" font-size="10.00">server::init_all</text>
</a>
</g>
</g>
<!-- Node3&#45;&gt;Node4 -->
<g id="edge3" class="edge">
<title>Node3&#45;&gt;Node4</title>
<path fill="none" stroke="midnightblue" d="M155.71,-10C166.52,-10 178.77,-10 190.6,-10"/>
<polygon fill="midnightblue" stroke="midnightblue" points="190.84,-13.5 200.84,-10 190.84,-6.5 190.84,-13.5"/>
</g>
<!-- Node5 -->
<g id="node5" class="node">
<title>Node5</title>
<g id="a_node5"><a xlink:href="ssi_8cpp.html#ab07d85d6a87e78cccd7b39b699a67a29" target="_top" xlink:title=" ">
<polygon fill="white" stroke="black" points="323,-0.5 323,-19.5 374,-19.5 374,-0.5 323,-0.5"/>
<text text-anchor="middle" x="348.5" y="-7.5" font-family="Helvetica,sans-Serif" font-size="10.00">ssi_init</text>
</a>
</g>
</g>
<!-- Node4&#45;&gt;Node5 -->
<g id="edge4" class="edge">
<title>Node4&#45;&gt;Node5</title>
<path fill="none" stroke="midnightblue" d="M287.28,-10C295.81,-10 304.69,-10 312.91,-10"/>
<polygon fill="midnightblue" stroke="midnightblue" points="312.92,-13.5 322.92,-10 312.92,-6.5 312.92,-13.5"/>
</g>
<!-- Node6 -->
<g id="node6" class="node">
<title>Node6</title>
<g id="a_node6"><a xlink:href="ssi_8cpp.html#ad9477666f554e11fbb9ad11f7e9fbd95" target="_top" xlink:title=" ">
<polygon fill="white" stroke="black" points="410,-0.5 410,-19.5 482,-19.5 482,-0.5 410,-0.5"/>
<text text-anchor="middle" x="446" y="-7.5" font-family="Helvetica,sans-Serif" font-size="10.00">ssi_handler</text>
</a>
</g>
</g>
<!-- Node5&#45;&gt;Node6 -->
<g id="edge5" class="edge">
<title>Node5&#45;&gt;Node6</title>
<path fill="none" stroke="midnightblue" d="M374.09,-10C381.88,-10 390.75,-10 399.52,-10"/>
<polygon fill="midnightblue" stroke="midnightblue" points="399.69,-13.5 409.69,-10 399.69,-6.5 399.69,-13.5"/>
</g>
</g>
</svg>
