<?xml version="1.0" encoding="UTF-8" standalone="no"?>
<!DOCTYPE svg PUBLIC "-//W3C//DTD SVG 1.1//EN"
 "http://www.w3.org/Graphics/SVG/1.1/DTD/svg11.dtd">
<!-- Generated by graphviz version 2.43.0 (0)
 -->
<!-- Title: main Pages: 1 -->
<svg width="545pt" height="192pt"
 viewBox="0.00 0.00 545.00 191.50" xmlns="http://www.w3.org/2000/svg" xmlns:xlink="http://www.w3.org/1999/xlink">
<g id="graph0" class="graph" transform="scale(1 1) rotate(0) translate(4 187.5)">
<title>main</title>
<polygon fill="white" stroke="transparent" points="-4,4 -4,-187.5 541,-187.5 541,4 -4,4"/>
<!-- Node1 -->
<g id="node1" class="node">
<title>Node1</title>
<g id="a_node1"><a xlink:title=" ">
<polygon fill="#bfbfbf" stroke="black" points="0,-38.5 0,-57.5 41,-57.5 41,-38.5 0,-38.5"/>
<text text-anchor="middle" x="20.5" y="-45.5" font-family="Helvetica,sans-Serif" font-size="10.00">main</text>
</a>
</g>
</g>
<!-- Node2 -->
<g id="node2" class="node">
<title>Node2</title>
<g id="a_node2"><a xlink:href="namespaceemulation.html#af40bee66d457d56de0b3b721199a7e10" target="_top" xlink:title=" ">
<polygon fill="white" stroke="black" points="77,-76.5 77,-95.5 165,-95.5 165,-76.5 77,-76.5"/>
<text text-anchor="middle" x="121" y="-83.5" font-family="Helvetica,sans-Serif" font-size="10.00">emulation::run</text>
</a>
</g>
</g>
<!-- Node1&#45;&gt;Node2 -->
<g id="edge1" class="edge">
<title>Node1&#45;&gt;Node2</title>
<path fill="none" stroke="midnightblue" d="M41.43,-55.69C54.16,-60.6 70.99,-67.09 85.82,-72.81"/>
<polygon fill="midnightblue" stroke="midnightblue" points="84.61,-76.1 95.2,-76.43 87.13,-69.57 84.61,-76.1"/>
</g>
<!-- Node7 -->
<g id="node7" class="node">
<title>Node7</title>
<g id="a_node7"><a xlink:href="namespaceserver.html#a66bd9eb32455d0581abe2c82dda4dc87" target="_top" xlink:title=" ">
<polygon fill="white" stroke="black" points="86.5,-19.5 86.5,-38.5 155.5,-38.5 155.5,-19.5 86.5,-19.5"/>
<text text-anchor="middle" x="121" y="-26.5" font-family="Helvetica,sans-Serif" font-size="10.00">server::run</text>
</a>
</g>
</g>
<!-- Node1&#45;&gt;Node7 -->
<g id="edge6" class="edge">
<title>Node1&#45;&gt;Node7</title>
<path fill="none" stroke="midnightblue" d="M41.43,-44.16C51.45,-42.22 64,-39.8 76.12,-37.46"/>
<polygon fill="midnightblue" stroke="midnightblue" points="76.97,-40.86 86.13,-35.53 75.65,-33.99 76.97,-40.86"/>
</g>
<!-- Node3 -->
<g id="node3" class="node">
<title>Node3</title>
<g id="a_node3"><a xlink:href="classconcurrent__vector.html#acd87374cfc3abe94c8fb4aa5637558e3" target="_top" xlink:title=" ">
<polygon fill="white" stroke="black" points="216.5,-153 216.5,-183 326.5,-183 326.5,-153 216.5,-153"/>
<text text-anchor="start" x="224.5" y="-171" font-family="Helvetica,sans-Serif" font-size="10.00">concurrent_vector::</text>
<text text-anchor="middle" x="271.5" y="-160" font-family="Helvetica,sans-Serif" font-size="10.00">emplace_back</text>
</a>
</g>
</g>
<!-- Node2&#45;&gt;Node3 -->
<g id="edge2" class="edge">
<title>Node2&#45;&gt;Node3</title>
<path fill="none" stroke="midnightblue" d="M133.11,-95.57C147.83,-107.88 174.97,-129.28 201,-143 205,-145.11 209.22,-147.11 213.52,-149"/>
<polygon fill="midnightblue" stroke="midnightblue" points="212.42,-152.33 223,-152.93 215.11,-145.87 212.42,-152.33"/>
</g>
<!-- Node4 -->
<g id="node4" class="node">
<title>Node4</title>
<g id="a_node4"><a xlink:href="classconcurrent__queue.html#ada7853bc4c571a8d8b363fde5e230ede" target="_top" xlink:title=" ">
<polygon fill="white" stroke="black" points="201,-114.5 201,-133.5 342,-133.5 342,-114.5 201,-114.5"/>
<text text-anchor="middle" x="271.5" y="-121.5" font-family="Helvetica,sans-Serif" font-size="10.00">concurrent_queue::empty</text>
</a>
</g>
</g>
<!-- Node2&#45;&gt;Node4 -->
<g id="edge3" class="edge">
<title>Node2&#45;&gt;Node4</title>
<path fill="none" stroke="midnightblue" d="M159.47,-95.59C178.89,-100.56 202.8,-106.68 223.45,-111.96"/>
<polygon fill="midnightblue" stroke="midnightblue" points="222.74,-115.39 233.3,-114.48 224.48,-108.61 222.74,-115.39"/>
</g>
<!-- Node5 -->
<g id="node5" class="node">
<title>Node5</title>
<g id="a_node5"><a xlink:href="classconcurrent__queue.html#acef464c5141917bfa1e207b762737ec8" target="_top" xlink:title="Reference to first item in the queue.">
<polygon fill="white" stroke="black" points="205,-76.5 205,-95.5 338,-95.5 338,-76.5 205,-76.5"/>
<text text-anchor="middle" x="271.5" y="-83.5" font-family="Helvetica,sans-Serif" font-size="10.00">concurrent_queue::front</text>
</a>
</g>
</g>
<!-- Node2&#45;&gt;Node5 -->
<g id="edge4" class="edge">
<title>Node2&#45;&gt;Node5</title>
<path fill="none" stroke="midnightblue" d="M165.35,-86C174.6,-86 184.62,-86 194.68,-86"/>
<polygon fill="midnightblue" stroke="midnightblue" points="194.73,-89.5 204.73,-86 194.73,-82.5 194.73,-89.5"/>
</g>
<!-- Node6 -->
<g id="node6" class="node">
<title>Node6</title>
<g id="a_node6"><a xlink:href="classconcurrent__queue.html#acf8caf9c7d650bc24005970641d155cc" target="_top" xlink:title="Pops the first element of the queue, pointed to by front().">
<polygon fill="white" stroke="black" points="207.5,-38.5 207.5,-57.5 335.5,-57.5 335.5,-38.5 207.5,-38.5"/>
<text text-anchor="middle" x="271.5" y="-45.5" font-family="Helvetica,sans-Serif" font-size="10.00">concurrent_queue::pop</text>
</a>
</g>
</g>
<!-- Node2&#45;&gt;Node6 -->
<g id="edge5" class="edge">
<title>Node2&#45;&gt;Node6</title>
<path fill="none" stroke="midnightblue" d="M159.47,-76.41C178.89,-71.44 202.8,-65.32 223.45,-60.04"/>
<polygon fill="midnightblue" stroke="midnightblue" points="224.48,-63.39 233.3,-57.52 222.74,-56.61 224.48,-63.39"/>
</g>
<!-- Node8 -->
<g id="node8" class="node">
<title>Node8</title>
<g id="a_node8"><a xlink:href="namespaceserver.html#ad541d1c9a5343ca647c393636ca0f327" target="_top" xlink:title=" ">
<polygon fill="white" stroke="black" points="228.5,-0.5 228.5,-19.5 314.5,-19.5 314.5,-0.5 228.5,-0.5"/>
<text text-anchor="middle" x="271.5" y="-7.5" font-family="Helvetica,sans-Serif" font-size="10.00">server::init_all</text>
</a>
</g>
</g>
<!-- Node7&#45;&gt;Node8 -->
<g id="edge7" class="edge">
<title>Node7&#45;&gt;Node8</title>
<path fill="none" stroke="midnightblue" d="M155.7,-24.69C174.23,-22.32 197.62,-19.32 218.45,-16.66"/>
<polygon fill="midnightblue" stroke="midnightblue" points="218.96,-20.12 228.44,-15.38 218.07,-13.18 218.96,-20.12"/>
</g>
<!-- Node9 -->
<g id="node9" class="node">
<title>Node9</title>
<g id="a_node9"><a xlink:href="ssi_8cpp.html#ab07d85d6a87e78cccd7b39b699a67a29" target="_top" xlink:title=" ">
<polygon fill="white" stroke="black" points="378,-0.5 378,-19.5 429,-19.5 429,-0.5 378,-0.5"/>
<text text-anchor="middle" x="403.5" y="-7.5" font-family="Helvetica,sans-Serif" font-size="10.00">ssi_init</text>
</a>
</g>
</g>
<!-- Node8&#45;&gt;Node9 -->
<g id="edge8" class="edge">
<title>Node8&#45;&gt;Node9</title>
<path fill="none" stroke="midnightblue" d="M314.71,-10C331.86,-10 351.43,-10 367.74,-10"/>
<polygon fill="midnightblue" stroke="midnightblue" points="367.93,-13.5 377.93,-10 367.93,-6.5 367.93,-13.5"/>
</g>
<!-- Node10 -->
<g id="node10" class="node">
<title>Node10</title>
<g id="a_node10"><a xlink:href="ssi_8cpp.html#ad9477666f554e11fbb9ad11f7e9fbd95" target="_top" xlink:title=" ">
<polygon fill="white" stroke="black" points="465,-0.5 465,-19.5 537,-19.5 537,-0.5 465,-0.5"/>
<text text-anchor="middle" x="501" y="-7.5" font-family="Helvetica,sans-Serif" font-size="10.00">ssi_handler</text>
</a>
</g>
</g>
<!-- Node9&#45;&gt;Node10 -->
<g id="edge9" class="edge">
<title>Node9&#45;&gt;Node10</title>
<path fill="none" stroke="midnightblue" d="M429.09,-10C436.88,-10 445.75,-10 454.52,-10"/>
<polygon fill="midnightblue" stroke="midnightblue" points="454.69,-13.5 464.69,-10 454.69,-6.5 454.69,-13.5"/>
</g>
</g>
</svg>
