<?xml version="1.0" encoding="UTF-8" standalone="no"?>
<!DOCTYPE svg PUBLIC "-//W3C//DTD SVG 1.1//EN"
 "http://www.w3.org/Graphics/SVG/1.1/DTD/svg11.dtd">
<!-- Generated by graphviz version 2.43.0 (0)
 -->
<!-- Title: main Pages: 1 -->
<!--zoomable 224 -->

<svg id="main" version="1.1" xmlns="http://www.w3.org/2000/svg" xmlns:xlink="http://www.w3.org/1999/xlink" xml:space="preserve" onload="init(evt)">
<style type="text/css"><![CDATA[
.node, .edge {opacity: 0.7;}
.node.selected, .edge.selected {opacity: 1;}
.edge:hover path { stroke: red; }
.edge:hover polygon { stroke: red; fill: red; }
]]></style>

<defs>
  <circle id="rim" cx="0" cy="0" r="7"/>
  <circle id="rim2" cx="0" cy="0" r="3.5"/>
  <g id="zoomPlus">
    <use xlink:href="#rim" fill="#404040"><set attributeName="fill" to="#808080" begin="zoomplus.mouseover" end="zoomplus.mouseout"/></use>
    <path d="M-4,0h8M0,-4v8" fill="none" stroke="white" stroke-width="1.5" pointer-events="none"/>
  </g>
  <g id="zoomMin">
    <use xlink:href="#rim" fill="#404040"><set attributeName="fill" to="#808080" begin="zoomminus.mouseover" end="zoomminus.mouseout"/></use>
    <path d="M-4,0h8" fill="none" stroke="white" stroke-width="1.5" pointer-events="none"/>
  </g>
  <g id="arrowUp" transform="translate(30 24)">
    <use xlink:href="#rim"/>
    <path pointer-events="none" fill="none" stroke="white" stroke-width="1.5" d="M0,-3.0v7 M-2.5,-0.5L0,-3.0L2.5,-0.5"/>
  </g>
  <g id="arrowRight" transform="rotate(90) translate(36 -43)">
    <use xlink:href="#rim"/>
    <path pointer-events="none" fill="none" stroke="white" stroke-width="1.5" d="M0,-3.0v7 M-2.5,-0.5L0,-3.0L2.5,-0.5"/>
  </g>
  <g id="arrowDown" transform="rotate(180) translate(-30 -48)">
    <use xlink:href="#rim"/>
    <path pointer-events="none" fill="none" stroke="white" stroke-width="1.5" d="M0,-3.0v7 M-2.5,-0.5L0,-3.0L2.5,-0.5"/>
  </g>
  <g id="arrowLeft" transform="rotate(270) translate(-36 17)">
    <use xlink:href="#rim"/>
    <path pointer-events="none" fill="none" stroke="white" stroke-width="1.5" d="M0,-3.0v7 M-2.5,-0.5L0,-3.0L2.5,-0.5"/>
  </g>
  <g id="resetDef">
    <use xlink:href="#rim2" fill="#404040"><set attributeName="fill" to="#808080" begin="reset.mouseover" end="reset.mouseout"/></use>
  </g>
</defs>
<script type="application/ecmascript">
var viewWidth = 545;
var viewHeight = 224;
var sectionId = 'dynsection-1';
</script>
<script type="application/ecmascript" xlink:href="svg.min.js"/>
<svg id="graph" class="graph">
<g id="viewport">
<title>main</title>
<!-- Node1 -->
<g id="Node000001" class="node">
<title>Node1</title>
<g id="a_Node000001"><a xlink:title=" ">
<polygon fill="#999999" stroke="#666666" points="41,-74 0,-74 0,-55 41,-55 41,-74"/>
<text text-anchor="middle" x="20.5" y="-62" font-family="Helvetica,sans-Serif" font-size="10.00">main</text>
</a>
</g>
</g>
<!-- Node2 -->
<g id="Node000002" class="node">
<title>Node2</title>
<g id="a_Node000002"><a xlink:href="namespaceemulation.html#af40bee66d457d56de0b3b721199a7e10" target="_top" xlink:title=" ">
<polygon fill="white" stroke="#666666" points="165,-111 77,-111 77,-92 165,-92 165,-111"/>
<text text-anchor="middle" x="121" y="-99" font-family="Helvetica,sans-Serif" font-size="10.00">emulation::run</text>
</a>
</g>
</g>
<!-- Node1&#45;&gt;Node2 -->
<g id="edge1_Node000001_Node000002" class="edge">
<title>Node1&#45;&gt;Node2</title>
<g id="a_edge1_Node000001_Node000002"><a xlink:title=" ">
<path fill="none" stroke="#63b8ff" d="M41.43,-71.99C53.86,-76.65 70.19,-82.79 84.75,-88.26"/>
<polygon fill="#63b8ff" stroke="#63b8ff" points="83.88,-91.67 94.47,-91.91 86.34,-85.12 83.88,-91.67"/>
</a>
</g>
</g>
<!-- Node8 -->
<g id="Node000008" class="node">
<title>Node8</title>
<g id="a_Node000008"><a xlink:href="namespaceserver.html#a66bd9eb32455d0581abe2c82dda4dc87" target="_top" xlink:title=" ">
<polygon fill="white" stroke="#666666" points="155.5,-56 86.5,-56 86.5,-37 155.5,-37 155.5,-56"/>
<text text-anchor="middle" x="121" y="-44" font-family="Helvetica,sans-Serif" font-size="10.00">server::run</text>
</a>
</g>
</g>
<!-- Node1&#45;&gt;Node8 -->
<g id="edge7_Node000001_Node000008" class="edge">
<title>Node1&#45;&gt;Node8</title>
<g id="a_edge7_Node000001_Node000008"><a xlink:title=" ">
<path fill="none" stroke="#63b8ff" d="M41.43,-60.86C51.45,-59.03 64,-56.73 76.12,-54.52"/>
<polygon fill="#63b8ff" stroke="#63b8ff" points="76.92,-57.93 86.13,-52.69 75.66,-51.04 76.92,-57.93"/>
</a>
</g>
</g>
<!-- Node3 -->
<g id="Node000003" class="node">
<title>Node3</title>
<g id="a_Node000003"><a xlink:href="classconcurrent__vector.html#acd87374cfc3abe94c8fb4aa5637558e3" target="_top" xlink:title=" ">
<polygon fill="white" stroke="#666666" points="326.5,-215.5 216.5,-215.5 216.5,-185.5 326.5,-185.5 326.5,-215.5"/>
<text text-anchor="start" x="224.5" y="-203.5" font-family="Helvetica,sans-Serif" font-size="10.00">concurrent_vector::</text>
<text text-anchor="middle" x="271.5" y="-192.5" font-family="Helvetica,sans-Serif" font-size="10.00">emplace_back</text>
</a>
</g>
</g>
<!-- Node2&#45;&gt;Node3 -->
<g id="edge2_Node000002_Node000003" class="edge">
<title>Node2&#45;&gt;Node3</title>
<g id="a_edge2_Node000002_Node000003"><a xlink:title=" ">
<path fill="none" stroke="#63b8ff" d="M129.75,-111.16C142.86,-126.92 170.94,-158.24 201,-176.5 203.78,-178.19 206.7,-179.78 209.7,-181.28"/>
<polygon fill="#63b8ff" stroke="#63b8ff" points="208.33,-184.5 218.88,-185.48 211.24,-178.14 208.33,-184.5"/>
</a>
</g>
</g>
<!-- Node4 -->
<g id="Node000004" class="node">
<title>Node4</title>
<g id="a_Node000004"><a xlink:href="classconcurrent__queue.html#ada7853bc4c571a8d8b363fde5e230ede" target="_top" xlink:title=" ">
<polygon fill="white" stroke="#666666" points="342,-167 201,-167 201,-148 342,-148 342,-167"/>
<text text-anchor="middle" x="271.5" y="-155" font-family="Helvetica,sans-Serif" font-size="10.00">concurrent_queue::empty</text>
</a>
</g>
</g>
<!-- Node2&#45;&gt;Node4 -->
<g id="edge3_Node000002_Node000004" class="edge">
<title>Node2&#45;&gt;Node4</title>
<g id="a_edge3_Node000002_Node000004"><a xlink:title=" ">
<path fill="none" stroke="#63b8ff" d="M139.46,-111.12C155.19,-119.49 179.13,-131.5 201,-139.5 206.55,-141.53 212.43,-143.43 218.32,-145.17"/>
<polygon fill="#63b8ff" stroke="#63b8ff" points="217.62,-148.61 228.2,-147.95 219.52,-141.87 217.62,-148.61"/>
</a>
</g>
</g>
<!-- Node5 -->
<g id="Node000005" class="node">
<title>Node5</title>
<g id="a_Node000005"><a xlink:href="classconcurrent__queue.html#acef464c5141917bfa1e207b762737ec8" target="_top" xlink:title="Reference to first item in the queue.">
<polygon fill="white" stroke="#666666" points="338,-130 205,-130 205,-111 338,-111 338,-130"/>
<text text-anchor="middle" x="271.5" y="-118" font-family="Helvetica,sans-Serif" font-size="10.00">concurrent_queue::front</text>
</a>
</g>
</g>
<!-- Node2&#45;&gt;Node5 -->
<g id="edge4_Node000002_Node000005" class="edge">
<title>Node2&#45;&gt;Node5</title>
<g id="a_edge4_Node000002_Node000005"><a xlink:title=" ">
<path fill="none" stroke="#63b8ff" d="M165.35,-107.05C174.6,-108.23 184.62,-109.51 194.68,-110.8"/>
<polygon fill="#63b8ff" stroke="#63b8ff" points="194.37,-114.29 204.73,-112.09 195.26,-107.34 194.37,-114.29"/>
</a>
</g>
</g>
<!-- Node6 -->
<g id="Node000006" class="node">
<title>Node6</title>
<g id="a_Node000006"><a xlink:href="classconcurrent__queue.html#acf8caf9c7d650bc24005970641d155cc" target="_top" xlink:title="Pops the first element of the queue, pointed to by front().">
<polygon fill="white" stroke="#666666" points="335.5,-93 207.5,-93 207.5,-74 335.5,-74 335.5,-93"/>
<text text-anchor="middle" x="271.5" y="-81" font-family="Helvetica,sans-Serif" font-size="10.00">concurrent_queue::pop</text>
</a>
</g>
</g>
<!-- Node2&#45;&gt;Node6 -->
<g id="edge5_Node000002_Node000006" class="edge">
<title>Node2&#45;&gt;Node6</title>
<g id="a_edge5_Node000002_Node000006"><a xlink:title=" ">
<path fill="none" stroke="#63b8ff" d="M165.35,-96.25C175.38,-95.03 186.32,-93.7 197.24,-92.38"/>
<polygon fill="#63b8ff" stroke="#63b8ff" points="197.72,-95.85 207.23,-91.17 196.88,-88.9 197.72,-95.85"/>
</a>
</g>
</g>
<!-- Node7 -->
<g id="Node000007" class="node">
<title>Node7</title>
<g id="a_Node000007"><a xlink:href="classconcurrent__queue.html#aff708b19304d9c28c0b12e0507e426df" target="_top" xlink:title=" ">
<polygon fill="white" stroke="#666666" points="336,-56 207,-56 207,-37 336,-37 336,-56"/>
<text text-anchor="middle" x="271.5" y="-44" font-family="Helvetica,sans-Serif" font-size="10.00">concurrent_queue::size</text>
</a>
</g>
</g>
<!-- Node2&#45;&gt;Node7 -->
<g id="edge6_Node000002_Node000007" class="edge">
<title>Node2&#45;&gt;Node7</title>
<g id="a_edge6_Node000002_Node000007"><a xlink:title=" ">
<path fill="none" stroke="#63b8ff" d="M140.8,-91.9C156.59,-84.08 179.88,-73.14 201,-65.5 207.48,-63.15 214.39,-60.94 221.24,-58.91"/>
<polygon fill="#63b8ff" stroke="#63b8ff" points="222.54,-62.18 231.19,-56.06 220.61,-55.45 222.54,-62.18"/>
</a>
</g>
</g>
<!-- Node9 -->
<g id="Node000009" class="node">
<title>Node9</title>
<g id="a_Node000009"><a xlink:href="namespaceserver.html#ad541d1c9a5343ca647c393636ca0f327" target="_top" xlink:title=" ">
<polygon fill="white" stroke="#666666" points="314.5,-19 228.5,-19 228.5,0 314.5,0 314.5,-19"/>
<text text-anchor="middle" x="271.5" y="-7" font-family="Helvetica,sans-Serif" font-size="10.00">server::init_all</text>
</a>
</g>
</g>
<!-- Node8&#45;&gt;Node9 -->
<g id="edge8_Node000008_Node000009" class="edge">
<title>Node8&#45;&gt;Node9</title>
<g id="a_edge8_Node000008_Node000009"><a xlink:title=" ">
<path fill="none" stroke="#63b8ff" d="M155.7,-38.1C175.44,-33.19 200.69,-26.89 222.49,-21.46"/>
<polygon fill="#63b8ff" stroke="#63b8ff" points="223.37,-24.85 232.22,-19.04 221.67,-18.06 223.37,-24.85"/>
</a>
</g>
</g>
<!-- Node10 -->
<g id="Node000010" class="node">
<title>Node10</title>
<g id="a_Node000010"><a xlink:href="ssi_8cpp.html#ab07d85d6a87e78cccd7b39b699a67a29" target="_top" xlink:title=" ">
<polygon fill="white" stroke="#666666" points="429,-19 378,-19 378,0 429,0 429,-19"/>
<text text-anchor="middle" x="403.5" y="-7" font-family="Helvetica,sans-Serif" font-size="10.00">ssi_init</text>
</a>
</g>
</g>
<!-- Node9&#45;&gt;Node10 -->
<g id="edge9_Node000009_Node000010" class="edge">
<title>Node9&#45;&gt;Node10</title>
<g id="a_edge9_Node000009_Node000010"><a xlink:title=" ">
<path fill="none" stroke="#63b8ff" d="M314.71,-9.5C331.86,-9.5 351.43,-9.5 367.74,-9.5"/>
<polygon fill="#63b8ff" stroke="#63b8ff" points="367.93,-13 377.93,-9.5 367.93,-6 367.93,-13"/>
</a>
</g>
</g>
<!-- Node11 -->
<g id="Node000011" class="node">
<title>Node11</title>
<g id="a_Node000011"><a xlink:href="ssi_8cpp.html#ad9477666f554e11fbb9ad11f7e9fbd95" target="_top" xlink:title=" ">
<polygon fill="white" stroke="#666666" points="537,-19 465,-19 465,0 537,0 537,-19"/>
<text text-anchor="middle" x="501" y="-7" font-family="Helvetica,sans-Serif" font-size="10.00">ssi_handler</text>
</a>
</g>
</g>
<!-- Node10&#45;&gt;Node11 -->
<g id="edge10_Node000010_Node000011" class="edge">
<title>Node10&#45;&gt;Node11</title>
<g id="a_edge10_Node000010_Node000011"><a xlink:title=" ">
<path fill="none" stroke="#63b8ff" d="M429.09,-9.5C436.88,-9.5 445.75,-9.5 454.52,-9.5"/>
<polygon fill="#63b8ff" stroke="#63b8ff" points="454.69,-13 464.69,-9.5 454.69,-6 454.69,-13"/>
</a>
</g>
</g>
</g>
</svg>

<g id="navigator" transform="translate(0 0)" fill="#404254">
  <rect fill="#f2f5e9" fill-opacity="0.5" stroke="#606060" stroke-width=".5" x="0" y="0" width="60" height="60"/>
  <use id="zoomplus" xlink:href="#zoomPlus" x="17" y="9" onmousedown="handleZoom(evt,'in')"/>
  <use id="zoomminus" xlink:href="#zoomMin" x="42" y="9" onmousedown="handleZoom(evt,'out')"/>
  <use id="reset" xlink:href="#resetDef" x="30" y="36" onmousedown="handleReset()"/>
   <use id="arrowup" xlink:href="#arrowUp" x="0" y="0" onmousedown="handlePan(0,-1)"/>
  <use id="arrowright" xlink:href="#arrowRight" x="0" y="0" onmousedown="handlePan(1,0)"/>
  <use id="arrowdown" xlink:href="#arrowDown" x="0" y="0" onmousedown="handlePan(0,1)"/>
  <use id="arrowleft" xlink:href="#arrowLeft" x="0" y="0" onmousedown="handlePan(-1,0)"/>
</g>
<svg viewBox="0 0 15 15" width="100%" height="30px" preserveAspectRatio="xMaxYMin meet">
 <g id="arrow_out" transform="scale(0.3 0.3)">
  <a xlink:href="riscv__online_8cpp_ae66f6b31b5ad750f1fe042a706a4e3d4_cgraph_org.svg" target="_base">
   <rect id="button" ry="5" rx="5" y="6" x="6" height="38" width="38"
        fill="#f2f5e9" fill-opacity="0.5" stroke="#606060" stroke-width="1.0"/>
   <path id="arrow"
     d="M 11.500037,31.436501 C 11.940474,20.09759 22.043105,11.32322 32.158766,21.979434 L 37.068811,17.246167 C 37.068811,17.246167 37.088388,32 37.088388,32 L 22.160133,31.978069 C 22.160133,31.978069 26.997745,27.140456 26.997745,27.140456 C 18.528582,18.264221 13.291696,25.230495 11.500037,31.436501 z"
     style="fill:#404040;"/>
  </a>
 </g>
</svg>

<style type='text/css'>
<![CDATA[
[data-mouse-over-selected='false'] { opacity: 0.7; }
[data-mouse-over-selected='true']  { opacity: 1.0; }
]]>
</style>
<script type="application/ecmascript"><![CDATA[
document.addEventListener('DOMContentLoaded', (event) => {
  highlightEdges();
  highlightAdjacentNodes();
});
]]></script>
</svg>
