<?xml version="1.0" encoding="UTF-8" standalone="no"?>
<!DOCTYPE svg PUBLIC "-//W3C//DTD SVG 1.1//EN"
 "http://www.w3.org/Graphics/SVG/1.1/DTD/svg11.dtd">
<!-- Generated by graphviz version 2.43.0 (0)
 -->
<!-- Title: src/riscv_online.cpp Pages: 1 -->
<svg width="969pt" height="196pt"
 viewBox="0.00 0.00 969.00 196.00" xmlns="http://www.w3.org/2000/svg" xmlns:xlink="http://www.w3.org/1999/xlink">
<g id="graph0" class="graph" transform="scale(1 1) rotate(0) translate(4 192)">
<title>src/riscv_online.cpp</title>
<polygon fill="white" stroke="transparent" points="-4,4 -4,-192 965,-192 965,4 -4,4"/>
<!-- Node1 -->
<g id="node1" class="node">
<title>Node1</title>
<g id="a_node1"><a xlink:title=" ">
<polygon fill="#bfbfbf" stroke="black" points="353,-168.5 353,-187.5 466,-187.5 466,-168.5 353,-168.5"/>
<text text-anchor="middle" x="409.5" y="-175.5" font-family="Helvetica,sans-Serif" font-size="10.00">src/riscv_online.cpp</text>
</a>
</g>
</g>
<!-- Node2 -->
<g id="node2" class="node">
<title>Node2</title>
<g id="a_node2"><a xlink:title=" ">
<polygon fill="white" stroke="#bfbfbf" points="0,-112.5 0,-131.5 107,-131.5 107,-112.5 0,-112.5"/>
<text text-anchor="middle" x="53.5" y="-119.5" font-family="Helvetica,sans-Serif" font-size="10.00">pico/cyw43_arch.h</text>
</a>
</g>
</g>
<!-- Node1&#45;&gt;Node2 -->
<g id="edge1" class="edge">
<title>Node1&#45;&gt;Node2</title>
<path fill="none" stroke="midnightblue" d="M353.09,-168.44C288.85,-158.7 184.12,-142.81 117.05,-132.64"/>
<polygon fill="midnightblue" stroke="midnightblue" points="117.44,-129.16 107.03,-131.12 116.39,-136.08 117.44,-129.16"/>
</g>
<!-- Node3 -->
<g id="node3" class="node">
<title>Node3</title>
<g id="a_node3"><a xlink:title=" ">
<polygon fill="white" stroke="#bfbfbf" points="125,-112.5 125,-131.5 220,-131.5 220,-112.5 125,-112.5"/>
<text text-anchor="middle" x="172.5" y="-119.5" font-family="Helvetica,sans-Serif" font-size="10.00">pico/multicore.h</text>
</a>
</g>
</g>
<!-- Node1&#45;&gt;Node3 -->
<g id="edge2" class="edge">
<title>Node1&#45;&gt;Node3</title>
<path fill="none" stroke="midnightblue" d="M371.95,-168.44C330.69,-159.04 264.36,-143.93 219.63,-133.74"/>
<polygon fill="midnightblue" stroke="midnightblue" points="220.41,-130.33 209.88,-131.52 218.85,-137.15 220.41,-130.33"/>
</g>
<!-- Node4 -->
<g id="node4" class="node">
<title>Node4</title>
<g id="a_node4"><a xlink:title=" ">
<polygon fill="white" stroke="#bfbfbf" points="238.5,-112.5 238.5,-131.5 314.5,-131.5 314.5,-112.5 238.5,-112.5"/>
<text text-anchor="middle" x="276.5" y="-119.5" font-family="Helvetica,sans-Serif" font-size="10.00">pico/stdlib.h</text>
</a>
</g>
</g>
<!-- Node1&#45;&gt;Node4 -->
<g id="edge3" class="edge">
<title>Node1&#45;&gt;Node4</title>
<path fill="none" stroke="midnightblue" d="M388.43,-168.44C366.44,-159.52 331.77,-145.44 306.84,-135.32"/>
<polygon fill="midnightblue" stroke="midnightblue" points="308.06,-132.04 297.48,-131.52 305.42,-138.52 308.06,-132.04"/>
</g>
<!-- Node5 -->
<g id="node5" class="node">
<title>Node5</title>
<g id="a_node5"><a xlink:href="config_8hpp.html" target="_top" xlink:title="Edit to match your configuration and system.">
<polygon fill="white" stroke="black" points="333,-112.5 333,-131.5 400,-131.5 400,-112.5 333,-112.5"/>
<text text-anchor="middle" x="366.5" y="-119.5" font-family="Helvetica,sans-Serif" font-size="10.00">config.hpp</text>
</a>
</g>
</g>
<!-- Node1&#45;&gt;Node5 -->
<g id="edge4" class="edge">
<title>Node1&#45;&gt;Node5</title>
<path fill="none" stroke="midnightblue" d="M402.4,-168.08C396.26,-160.38 387.23,-149.03 379.76,-139.65"/>
<polygon fill="midnightblue" stroke="midnightblue" points="382.44,-137.39 373.47,-131.75 376.96,-141.75 382.44,-137.39"/>
</g>
<!-- Node6 -->
<g id="node6" class="node">
<title>Node6</title>
<g id="a_node6"><a xlink:href="server_8hpp.html" target="_top" xlink:title=" ">
<polygon fill="white" stroke="black" points="418.5,-112.5 418.5,-131.5 486.5,-131.5 486.5,-112.5 418.5,-112.5"/>
<text text-anchor="middle" x="452.5" y="-119.5" font-family="Helvetica,sans-Serif" font-size="10.00">server.hpp</text>
</a>
</g>
</g>
<!-- Node1&#45;&gt;Node6 -->
<g id="edge5" class="edge">
<title>Node1&#45;&gt;Node6</title>
<path fill="none" stroke="midnightblue" d="M416.6,-168.08C422.74,-160.38 431.77,-149.03 439.24,-139.65"/>
<polygon fill="midnightblue" stroke="midnightblue" points="442.04,-141.75 445.53,-131.75 436.56,-137.39 442.04,-141.75"/>
</g>
<!-- Node7 -->
<g id="node7" class="node">
<title>Node7</title>
<g id="a_node7"><a xlink:href="emulator_8hpp.html" target="_top" xlink:title=" ">
<polygon fill="white" stroke="black" points="505,-112.5 505,-131.5 660,-131.5 660,-112.5 505,-112.5"/>
<text text-anchor="middle" x="582.5" y="-119.5" font-family="Helvetica,sans-Serif" font-size="10.00">RoL/emulation/emulator.hpp</text>
</a>
</g>
</g>
<!-- Node1&#45;&gt;Node7 -->
<g id="edge6" class="edge">
<title>Node1&#45;&gt;Node7</title>
<path fill="none" stroke="midnightblue" d="M436.91,-168.44C466.27,-159.28 513.02,-144.69 545.6,-134.52"/>
<polygon fill="midnightblue" stroke="midnightblue" points="546.71,-137.84 555.22,-131.52 544.63,-131.16 546.71,-137.84"/>
</g>
<!-- Node18 -->
<g id="node18" class="node">
<title>Node18</title>
<g id="a_node18"><a xlink:href="queue_8hpp.html" target="_top" xlink:title=" ">
<polygon fill="white" stroke="black" points="826,-56.5 826,-75.5 961,-75.5 961,-56.5 826,-56.5"/>
<text text-anchor="middle" x="893.5" y="-63.5" font-family="Helvetica,sans-Serif" font-size="10.00">RoL/threaded/queue.hpp</text>
</a>
</g>
</g>
<!-- Node1&#45;&gt;Node18 -->
<g id="edge19" class="edge">
<title>Node1&#45;&gt;Node18</title>
<path fill="none" stroke="midnightblue" d="M466.11,-175.36C564.61,-171.76 763.01,-161.06 825.5,-132 848.77,-121.18 869.1,-99.15 881.32,-83.75"/>
<polygon fill="midnightblue" stroke="midnightblue" points="884.27,-85.66 887.55,-75.58 878.7,-81.41 884.27,-85.66"/>
</g>
<!-- Node21 -->
<g id="node21" class="node">
<title>Node21</title>
<g id="a_node21"><a xlink:href="shared_8hpp.html" target="_top" xlink:title=" ">
<polygon fill="white" stroke="black" points="678.5,-112.5 678.5,-131.5 816.5,-131.5 816.5,-112.5 678.5,-112.5"/>
<text text-anchor="middle" x="747.5" y="-119.5" font-family="Helvetica,sans-Serif" font-size="10.00">RoL/threaded/shared.hpp</text>
</a>
</g>
</g>
<!-- Node1&#45;&gt;Node21 -->
<g id="edge22" class="edge">
<title>Node1&#45;&gt;Node21</title>
<path fill="none" stroke="midnightblue" d="M463.06,-168.44C523.13,-158.85 620.49,-143.29 684.26,-133.1"/>
<polygon fill="midnightblue" stroke="midnightblue" points="684.87,-136.55 694.19,-131.52 683.77,-129.64 684.87,-136.55"/>
</g>
<!-- Node8 -->
<g id="node8" class="node">
<title>Node8</title>
<g id="a_node8"><a xlink:title=" ">
<polygon fill="white" stroke="#bfbfbf" points="179.5,-0.5 179.5,-19.5 223.5,-19.5 223.5,-0.5 179.5,-0.5"/>
<text text-anchor="middle" x="201.5" y="-7.5" font-family="Helvetica,sans-Serif" font-size="10.00">bitset</text>
</a>
</g>
</g>
<!-- Node7&#45;&gt;Node8 -->
<g id="edge7" class="edge">
<title>Node7&#45;&gt;Node8</title>
<path fill="none" stroke="midnightblue" d="M552.53,-112.37C493.57,-95.38 358.07,-56.34 233.25,-20.21"/>
<polygon fill="midnightblue" stroke="midnightblue" points="234.09,-16.81 223.51,-17.4 232.15,-23.54 234.09,-16.81"/>
</g>
<!-- Node9 -->
<g id="node9" class="node">
<title>Node9</title>
<g id="a_node9"><a xlink:title=" ">
<polygon fill="white" stroke="#bfbfbf" points="610.5,-56.5 610.5,-75.5 654.5,-75.5 654.5,-56.5 610.5,-56.5"/>
<text text-anchor="middle" x="632.5" y="-63.5" font-family="Helvetica,sans-Serif" font-size="10.00">string</text>
</a>
</g>
</g>
<!-- Node7&#45;&gt;Node9 -->
<g id="edge8" class="edge">
<title>Node7&#45;&gt;Node9</title>
<path fill="none" stroke="midnightblue" d="M590.76,-112.08C597.96,-104.3 608.61,-92.8 617.35,-83.37"/>
<polygon fill="midnightblue" stroke="midnightblue" points="620.17,-85.47 624.4,-75.75 615.03,-80.71 620.17,-85.47"/>
</g>
<!-- Node10 -->
<g id="node10" class="node">
<title>Node10</title>
<g id="a_node10"><a xlink:title=" ">
<polygon fill="white" stroke="#bfbfbf" points="712,-0.5 712,-19.5 759,-19.5 759,-0.5 712,-0.5"/>
<text text-anchor="middle" x="735.5" y="-7.5" font-family="Helvetica,sans-Serif" font-size="10.00">vector</text>
</a>
</g>
</g>
<!-- Node7&#45;&gt;Node10 -->
<g id="edge9" class="edge">
<title>Node7&#45;&gt;Node10</title>
<path fill="none" stroke="midnightblue" d="M582.61,-112.17C583.25,-98.35 586.51,-71.6 601.5,-56 608.67,-48.54 664.55,-31.38 701.84,-20.54"/>
<polygon fill="midnightblue" stroke="midnightblue" points="703.18,-23.8 711.82,-17.66 701.24,-17.07 703.18,-23.8"/>
</g>
<!-- Node11 -->
<g id="node11" class="node">
<title>Node11</title>
<g id="a_node11"><a xlink:href="parse_8hpp.html" target="_top" xlink:title=" ">
<polygon fill="white" stroke="black" points="468.5,-56.5 468.5,-75.5 554.5,-75.5 554.5,-56.5 468.5,-56.5"/>
<text text-anchor="middle" x="511.5" y="-63.5" font-family="Helvetica,sans-Serif" font-size="10.00">RoL/parse.hpp</text>
</a>
</g>
</g>
<!-- Node7&#45;&gt;Node11 -->
<g id="edge10" class="edge">
<title>Node7&#45;&gt;Node11</title>
<path fill="none" stroke="midnightblue" d="M571.09,-112.32C560.39,-104.18 544.16,-91.84 531.34,-82.09"/>
<polygon fill="midnightblue" stroke="midnightblue" points="533.19,-79.1 523.11,-75.83 528.96,-84.67 533.19,-79.1"/>
</g>
<!-- Node11&#45;&gt;Node8 -->
<g id="edge12" class="edge">
<title>Node11&#45;&gt;Node8</title>
<path fill="none" stroke="midnightblue" d="M468.17,-59.69C415.04,-52.81 322.1,-39.57 233.69,-20.04"/>
<polygon fill="midnightblue" stroke="midnightblue" points="234.29,-16.59 223.77,-17.82 232.76,-23.42 234.29,-16.59"/>
</g>
<!-- Node11&#45;&gt;Node10 -->
<g id="edge17" class="edge">
<title>Node11&#45;&gt;Node10</title>
<path fill="none" stroke="midnightblue" d="M549.65,-56.42C586.23,-48.11 643.26,-34.91 701.92,-20.08"/>
<polygon fill="midnightblue" stroke="midnightblue" points="702.9,-23.44 711.73,-17.59 701.18,-16.66 702.9,-23.44"/>
</g>
<!-- Node12 -->
<g id="node12" class="node">
<title>Node12</title>
<g id="a_node12"><a xlink:title=" ">
<polygon fill="white" stroke="#bfbfbf" points="241.5,-0.5 241.5,-19.5 305.5,-19.5 305.5,-0.5 241.5,-0.5"/>
<text text-anchor="middle" x="273.5" y="-7.5" font-family="Helvetica,sans-Serif" font-size="10.00">algorithm</text>
</a>
</g>
</g>
<!-- Node11&#45;&gt;Node12 -->
<g id="edge11" class="edge">
<title>Node11&#45;&gt;Node12</title>
<path fill="none" stroke="midnightblue" d="M473.79,-56.44C430.74,-46.68 360.51,-30.74 315.68,-20.57"/>
<polygon fill="midnightblue" stroke="midnightblue" points="316.22,-17.1 305.69,-18.3 314.67,-23.93 316.22,-17.1"/>
</g>
<!-- Node13 -->
<g id="node13" class="node">
<title>Node13</title>
<g id="a_node13"><a xlink:title=" ">
<polygon fill="white" stroke="#bfbfbf" points="324,-0.5 324,-19.5 385,-19.5 385,-0.5 324,-0.5"/>
<text text-anchor="middle" x="354.5" y="-7.5" font-family="Helvetica,sans-Serif" font-size="10.00">charconv</text>
</a>
</g>
</g>
<!-- Node11&#45;&gt;Node13 -->
<g id="edge13" class="edge">
<title>Node11&#45;&gt;Node13</title>
<path fill="none" stroke="midnightblue" d="M486.62,-56.44C460.21,-47.36 418.28,-32.94 388.76,-22.78"/>
<polygon fill="midnightblue" stroke="midnightblue" points="389.86,-19.46 379.26,-19.52 387.58,-26.08 389.86,-19.46"/>
</g>
<!-- Node14 -->
<g id="node14" class="node">
<title>Node14</title>
<g id="a_node14"><a xlink:title=" ">
<polygon fill="white" stroke="#bfbfbf" points="403.5,-0.5 403.5,-19.5 453.5,-19.5 453.5,-0.5 403.5,-0.5"/>
<text text-anchor="middle" x="428.5" y="-7.5" font-family="Helvetica,sans-Serif" font-size="10.00">cstdint</text>
</a>
</g>
</g>
<!-- Node11&#45;&gt;Node14 -->
<g id="edge14" class="edge">
<title>Node11&#45;&gt;Node14</title>
<path fill="none" stroke="midnightblue" d="M498.16,-56.32C485.34,-47.98 465.72,-35.21 450.56,-25.35"/>
<polygon fill="midnightblue" stroke="midnightblue" points="452.09,-22.17 441.8,-19.65 448.28,-28.04 452.09,-22.17"/>
</g>
<!-- Node15 -->
<g id="node15" class="node">
<title>Node15</title>
<g id="a_node15"><a xlink:title=" ">
<polygon fill="white" stroke="#bfbfbf" points="472,-0.5 472,-19.5 565,-19.5 565,-0.5 472,-0.5"/>
<text text-anchor="middle" x="518.5" y="-7.5" font-family="Helvetica,sans-Serif" font-size="10.00">unordered_map</text>
</a>
</g>
</g>
<!-- Node11&#45;&gt;Node15 -->
<g id="edge15" class="edge">
<title>Node11&#45;&gt;Node15</title>
<path fill="none" stroke="midnightblue" d="M512.66,-56.08C513.58,-48.93 514.92,-38.64 516.08,-29.69"/>
<polygon fill="midnightblue" stroke="midnightblue" points="519.55,-30.12 517.37,-19.75 512.61,-29.22 519.55,-30.12"/>
</g>
<!-- Node16 -->
<g id="node16" class="node">
<title>Node16</title>
<g id="a_node16"><a xlink:title=" ">
<polygon fill="white" stroke="#bfbfbf" points="583.5,-0.5 583.5,-19.5 625.5,-19.5 625.5,-0.5 583.5,-0.5"/>
<text text-anchor="middle" x="604.5" y="-7.5" font-family="Helvetica,sans-Serif" font-size="10.00">array</text>
</a>
</g>
</g>
<!-- Node11&#45;&gt;Node16 -->
<g id="edge16" class="edge">
<title>Node11&#45;&gt;Node16</title>
<path fill="none" stroke="midnightblue" d="M526.44,-56.32C541.09,-47.82 563.63,-34.73 580.74,-24.8"/>
<polygon fill="midnightblue" stroke="midnightblue" points="582.7,-27.7 589.6,-19.65 579.19,-21.65 582.7,-27.7"/>
</g>
<!-- Node17 -->
<g id="node17" class="node">
<title>Node17</title>
<g id="a_node17"><a xlink:title=" ">
<polygon fill="white" stroke="#bfbfbf" points="643.5,-0.5 643.5,-19.5 693.5,-19.5 693.5,-0.5 643.5,-0.5"/>
<text text-anchor="middle" x="668.5" y="-7.5" font-family="Helvetica,sans-Serif" font-size="10.00">ranges</text>
</a>
</g>
</g>
<!-- Node11&#45;&gt;Node17 -->
<g id="edge18" class="edge">
<title>Node11&#45;&gt;Node17</title>
<path fill="none" stroke="midnightblue" d="M536.38,-56.44C562.79,-47.36 604.72,-32.94 634.24,-22.78"/>
<polygon fill="midnightblue" stroke="midnightblue" points="635.42,-26.08 643.74,-19.52 633.14,-19.46 635.42,-26.08"/>
</g>
<!-- Node19 -->
<g id="node19" class="node">
<title>Node19</title>
<g id="a_node19"><a xlink:title=" ">
<polygon fill="white" stroke="#bfbfbf" points="777.5,-0.5 777.5,-19.5 857.5,-19.5 857.5,-0.5 777.5,-0.5"/>
<text text-anchor="middle" x="817.5" y="-7.5" font-family="Helvetica,sans-Serif" font-size="10.00">pico/mutex.h</text>
</a>
</g>
</g>
<!-- Node18&#45;&gt;Node19 -->
<g id="edge20" class="edge">
<title>Node18&#45;&gt;Node19</title>
<path fill="none" stroke="midnightblue" d="M881.29,-56.32C869.72,-48.11 852.12,-35.6 838.34,-25.81"/>
<polygon fill="midnightblue" stroke="midnightblue" points="840.11,-22.77 829.93,-19.83 836.06,-28.48 840.11,-22.77"/>
</g>
<!-- Node20 -->
<g id="node20" class="node">
<title>Node20</title>
<g id="a_node20"><a xlink:title=" ">
<polygon fill="white" stroke="#bfbfbf" points="876,-0.5 876,-19.5 923,-19.5 923,-0.5 876,-0.5"/>
<text text-anchor="middle" x="899.5" y="-7.5" font-family="Helvetica,sans-Serif" font-size="10.00">queue</text>
</a>
</g>
</g>
<!-- Node18&#45;&gt;Node20 -->
<g id="edge21" class="edge">
<title>Node18&#45;&gt;Node20</title>
<path fill="none" stroke="midnightblue" d="M894.49,-56.08C895.29,-48.93 896.43,-38.64 897.42,-29.69"/>
<polygon fill="midnightblue" stroke="midnightblue" points="900.9,-30.08 898.53,-19.75 893.94,-29.3 900.9,-30.08"/>
</g>
<!-- Node21&#45;&gt;Node18 -->
<g id="edge23" class="edge">
<title>Node21&#45;&gt;Node18</title>
<path fill="none" stroke="midnightblue" d="M770.63,-112.44C794.98,-103.44 833.51,-89.19 860.92,-79.05"/>
<polygon fill="midnightblue" stroke="midnightblue" points="862.31,-82.27 870.47,-75.52 859.88,-75.7 862.31,-82.27"/>
</g>
<!-- Node22 -->
<g id="node22" class="node">
<title>Node22</title>
<g id="a_node22"><a xlink:href="vector_8hpp.html" target="_top" xlink:title=" ">
<polygon fill="white" stroke="black" points="673,-56.5 673,-75.5 808,-75.5 808,-56.5 673,-56.5"/>
<text text-anchor="middle" x="740.5" y="-63.5" font-family="Helvetica,sans-Serif" font-size="10.00">RoL/threaded/vector.hpp</text>
</a>
</g>
</g>
<!-- Node21&#45;&gt;Node22 -->
<g id="edge24" class="edge">
<title>Node21&#45;&gt;Node22</title>
<path fill="none" stroke="midnightblue" d="M746.34,-112.08C745.42,-104.93 744.08,-94.64 742.92,-85.69"/>
<polygon fill="midnightblue" stroke="midnightblue" points="746.39,-85.22 741.63,-75.75 739.45,-86.12 746.39,-85.22"/>
</g>
<!-- Node22&#45;&gt;Node10 -->
<g id="edge26" class="edge">
<title>Node22&#45;&gt;Node10</title>
<path fill="none" stroke="midnightblue" d="M739.67,-56.08C739.02,-49.01 738.08,-38.86 737.26,-29.99"/>
<polygon fill="midnightblue" stroke="midnightblue" points="740.72,-29.39 736.31,-19.75 733.75,-30.03 740.72,-29.39"/>
</g>
<!-- Node22&#45;&gt;Node19 -->
<g id="edge25" class="edge">
<title>Node22&#45;&gt;Node19</title>
<path fill="none" stroke="midnightblue" d="M752.87,-56.32C764.66,-48.06 782.63,-35.45 796.64,-25.63"/>
<polygon fill="midnightblue" stroke="midnightblue" points="798.98,-28.26 805.16,-19.65 794.96,-22.53 798.98,-28.26"/>
</g>
</g>
</svg>
