<?xml version="1.0" encoding="UTF-8" standalone="no"?>
<!DOCTYPE svg PUBLIC "-//W3C//DTD SVG 1.1//EN"
 "http://www.w3.org/Graphics/SVG/1.1/DTD/svg11.dtd">
<!-- Generated by graphviz version 2.43.0 (0)
 -->
<!-- Title: src/riscv_online.cpp Pages: 1 -->
<svg width="1008pt" height="207pt"
 viewBox="0.00 0.00 1008.00 207.00" xmlns="http://www.w3.org/2000/svg" xmlns:xlink="http://www.w3.org/1999/xlink">
<g id="graph0" class="graph" transform="scale(1 1) rotate(0) translate(4 203)">
<title>src/riscv_online.cpp</title>
<polygon fill="white" stroke="transparent" points="-4,4 -4,-203 1004,-203 1004,4 -4,4"/>
<!-- Node1 -->
<g id="node1" class="node">
<title>Node1</title>
<g id="a_node1"><a xlink:title=" ">
<polygon fill="#bfbfbf" stroke="black" points="432,-179.5 432,-198.5 545,-198.5 545,-179.5 432,-179.5"/>
<text text-anchor="middle" x="488.5" y="-186.5" font-family="Helvetica,sans-Serif" font-size="10.00">src/riscv_online.cpp</text>
</a>
</g>
</g>
<!-- Node2 -->
<g id="node2" class="node">
<title>Node2</title>
<g id="a_node2"><a xlink:title=" ">
<polygon fill="white" stroke="#bfbfbf" points="79,-118 79,-137 186,-137 186,-118 79,-118"/>
<text text-anchor="middle" x="132.5" y="-125" font-family="Helvetica,sans-Serif" font-size="10.00">pico/cyw43_arch.h</text>
</a>
</g>
</g>
<!-- Node1&#45;&gt;Node2 -->
<g id="edge1" class="edge">
<title>Node1&#45;&gt;Node2</title>
<path fill="none" stroke="midnightblue" d="M431.91,-180.67C372.55,-172.67 276.63,-158.86 194.5,-143 188.73,-141.89 182.68,-140.61 176.72,-139.28"/>
<polygon fill="midnightblue" stroke="midnightblue" points="177.36,-135.84 166.83,-137.03 175.8,-142.67 177.36,-135.84"/>
</g>
<!-- Node3 -->
<g id="node3" class="node">
<title>Node3</title>
<g id="a_node3"><a xlink:title=" ">
<polygon fill="white" stroke="#bfbfbf" points="204,-118 204,-137 299,-137 299,-118 204,-118"/>
<text text-anchor="middle" x="251.5" y="-125" font-family="Helvetica,sans-Serif" font-size="10.00">pico/multicore.h</text>
</a>
</g>
</g>
<!-- Node1&#45;&gt;Node3 -->
<g id="edge2" class="edge">
<title>Node1&#45;&gt;Node3</title>
<path fill="none" stroke="midnightblue" d="M454.32,-179.5C418.1,-170.48 359.25,-155.8 308.5,-143 304.09,-141.89 299.49,-140.73 294.91,-139.56"/>
<polygon fill="midnightblue" stroke="midnightblue" points="295.5,-136.1 284.95,-137.03 293.78,-142.89 295.5,-136.1"/>
</g>
<!-- Node4 -->
<g id="node4" class="node">
<title>Node4</title>
<g id="a_node4"><a xlink:title=" ">
<polygon fill="white" stroke="#bfbfbf" points="317.5,-118 317.5,-137 393.5,-137 393.5,-118 317.5,-118"/>
<text text-anchor="middle" x="355.5" y="-125" font-family="Helvetica,sans-Serif" font-size="10.00">pico/stdlib.h</text>
</a>
</g>
</g>
<!-- Node1&#45;&gt;Node4 -->
<g id="edge3" class="edge">
<title>Node1&#45;&gt;Node4</title>
<path fill="none" stroke="midnightblue" d="M469.44,-179.48C447.03,-169.45 409.59,-152.7 383.79,-141.15"/>
<polygon fill="midnightblue" stroke="midnightblue" points="385.08,-137.9 374.52,-137.01 382.22,-144.29 385.08,-137.9"/>
</g>
<!-- Node5 -->
<g id="node5" class="node">
<title>Node5</title>
<g id="a_node5"><a xlink:href="config_8hpp.html" target="_top" xlink:title="Edit to match your configuration and system.">
<polygon fill="white" stroke="black" points="412,-118 412,-137 479,-137 479,-118 412,-118"/>
<text text-anchor="middle" x="445.5" y="-125" font-family="Helvetica,sans-Serif" font-size="10.00">config.hpp</text>
</a>
</g>
</g>
<!-- Node1&#45;&gt;Node5 -->
<g id="edge4" class="edge">
<title>Node1&#45;&gt;Node5</title>
<path fill="none" stroke="midnightblue" d="M482.34,-179.48C475.89,-170.55 465.6,-156.31 457.53,-145.14"/>
<polygon fill="midnightblue" stroke="midnightblue" points="460.34,-143.06 451.65,-137.01 454.67,-147.16 460.34,-143.06"/>
</g>
<!-- Node6 -->
<g id="node6" class="node">
<title>Node6</title>
<g id="a_node6"><a xlink:href="server_8hpp.html" target="_top" xlink:title=" ">
<polygon fill="white" stroke="black" points="497.5,-118 497.5,-137 565.5,-137 565.5,-118 497.5,-118"/>
<text text-anchor="middle" x="531.5" y="-125" font-family="Helvetica,sans-Serif" font-size="10.00">server.hpp</text>
</a>
</g>
</g>
<!-- Node1&#45;&gt;Node6 -->
<g id="edge5" class="edge">
<title>Node1&#45;&gt;Node6</title>
<path fill="none" stroke="midnightblue" d="M494.66,-179.48C501.11,-170.55 511.4,-156.31 519.47,-145.14"/>
<polygon fill="midnightblue" stroke="midnightblue" points="522.33,-147.16 525.35,-137.01 516.66,-143.06 522.33,-147.16"/>
</g>
<!-- Node7 -->
<g id="node7" class="node">
<title>Node7</title>
<g id="a_node7"><a xlink:href="emulator_8hpp.html" target="_top" xlink:title=" ">
<polygon fill="white" stroke="black" points="584,-118 584,-137 739,-137 739,-118 584,-118"/>
<text text-anchor="middle" x="661.5" y="-125" font-family="Helvetica,sans-Serif" font-size="10.00">RoL/emulation/emulator.hpp</text>
</a>
</g>
</g>
<!-- Node1&#45;&gt;Node7 -->
<g id="edge6" class="edge">
<title>Node1&#45;&gt;Node7</title>
<path fill="none" stroke="midnightblue" d="M513.29,-179.48C543.09,-169.22 593.29,-151.96 626.9,-140.4"/>
<polygon fill="midnightblue" stroke="midnightblue" points="628.44,-143.57 636.76,-137.01 626.16,-136.95 628.44,-143.57"/>
</g>
<!-- Node22 -->
<g id="node22" class="node">
<title>Node22</title>
<g id="a_node22"><a xlink:href="queue_8hpp.html" target="_top" xlink:title=" ">
<polygon fill="white" stroke="black" points="787,-56.5 787,-75.5 922,-75.5 922,-56.5 787,-56.5"/>
<text text-anchor="middle" x="854.5" y="-63.5" font-family="Helvetica,sans-Serif" font-size="10.00">RoL/threaded/queue.hpp</text>
</a>
</g>
</g>
<!-- Node1&#45;&gt;Node22 -->
<g id="edge23" class="edge">
<title>Node1&#45;&gt;Node22</title>
<path fill="none" stroke="midnightblue" d="M545.08,-186.01C599.12,-182.34 681.84,-171.98 747.5,-143 768.08,-133.92 769.26,-125.17 787.5,-112 802.36,-101.27 819.53,-89.76 832.76,-81.06"/>
<polygon fill="midnightblue" stroke="midnightblue" points="834.77,-83.93 841.22,-75.54 830.94,-78.07 834.77,-83.93"/>
</g>
<!-- Node25 -->
<g id="node25" class="node">
<title>Node25</title>
<g id="a_node25"><a xlink:href="shared__queue_8hpp.html" target="_top" xlink:title=" ">
<polygon fill="white" stroke="black" points="796,-112.5 796,-142.5 913,-142.5 913,-112.5 796,-112.5"/>
<text text-anchor="start" x="804" y="-130.5" font-family="Helvetica,sans-Serif" font-size="10.00">RoL/threaded/shared</text>
<text text-anchor="middle" x="854.5" y="-119.5" font-family="Helvetica,sans-Serif" font-size="10.00">_queue.hpp</text>
</a>
</g>
</g>
<!-- Node1&#45;&gt;Node25 -->
<g id="edge27" class="edge">
<title>Node1&#45;&gt;Node25</title>
<path fill="none" stroke="midnightblue" d="M545.06,-180.06C604.16,-171.59 699.52,-157.43 781.5,-143 782.97,-142.74 784.46,-142.48 785.96,-142.21"/>
<polygon fill="midnightblue" stroke="midnightblue" points="786.77,-145.61 795.97,-140.36 785.5,-138.73 786.77,-145.61"/>
</g>
<!-- Node8 -->
<g id="node8" class="node">
<title>Node8</title>
<g id="a_node8"><a xlink:title=" ">
<polygon fill="white" stroke="#bfbfbf" points="689.5,-56.5 689.5,-75.5 733.5,-75.5 733.5,-56.5 689.5,-56.5"/>
<text text-anchor="middle" x="711.5" y="-63.5" font-family="Helvetica,sans-Serif" font-size="10.00">bitset</text>
</a>
</g>
</g>
<!-- Node7&#45;&gt;Node8 -->
<g id="edge7" class="edge">
<title>Node7&#45;&gt;Node8</title>
<path fill="none" stroke="midnightblue" d="M668.66,-117.98C676.24,-108.96 688.37,-94.52 697.79,-83.31"/>
<polygon fill="midnightblue" stroke="midnightblue" points="700.6,-85.42 704.35,-75.51 695.24,-80.91 700.6,-85.42"/>
</g>
<!-- Node9 -->
<g id="node9" class="node">
<title>Node9</title>
<g id="a_node9"><a xlink:title=" ">
<polygon fill="white" stroke="#bfbfbf" points="792.5,-0.5 792.5,-19.5 836.5,-19.5 836.5,-0.5 792.5,-0.5"/>
<text text-anchor="middle" x="814.5" y="-7.5" font-family="Helvetica,sans-Serif" font-size="10.00">string</text>
</a>
</g>
</g>
<!-- Node7&#45;&gt;Node9 -->
<g id="edge8" class="edge">
<title>Node7&#45;&gt;Node9</title>
<path fill="none" stroke="midnightblue" d="M661.35,-117.89C661.58,-103.24 664.17,-73.36 680.5,-56 684.14,-52.13 744.08,-32.94 782.55,-20.9"/>
<polygon fill="midnightblue" stroke="midnightblue" points="783.79,-24.18 792.29,-17.86 781.7,-17.49 783.79,-24.18"/>
</g>
<!-- Node10 -->
<g id="node10" class="node">
<title>Node10</title>
<g id="a_node10"><a xlink:title=" ">
<polygon fill="white" stroke="#bfbfbf" points="0,-0.5 0,-19.5 47,-19.5 47,-0.5 0,-0.5"/>
<text text-anchor="middle" x="23.5" y="-7.5" font-family="Helvetica,sans-Serif" font-size="10.00">vector</text>
</a>
</g>
</g>
<!-- Node7&#45;&gt;Node10 -->
<g id="edge9" class="edge">
<title>Node7&#45;&gt;Node10</title>
<path fill="none" stroke="midnightblue" d="M611.29,-117.97C481.82,-95.95 141.4,-37.77 57.15,-20.12"/>
<polygon fill="midnightblue" stroke="midnightblue" points="57.71,-16.66 47.2,-17.95 56.22,-23.5 57.71,-16.66"/>
</g>
<!-- Node11 -->
<g id="node11" class="node">
<title>Node11</title>
<g id="a_node11"><a xlink:href="parse_8hpp.html" target="_top" xlink:title=" ">
<polygon fill="white" stroke="black" points="394.5,-56.5 394.5,-75.5 480.5,-75.5 480.5,-56.5 394.5,-56.5"/>
<text text-anchor="middle" x="437.5" y="-63.5" font-family="Helvetica,sans-Serif" font-size="10.00">RoL/parse.hpp</text>
</a>
</g>
</g>
<!-- Node7&#45;&gt;Node11 -->
<g id="edge10" class="edge">
<title>Node7&#45;&gt;Node11</title>
<path fill="none" stroke="midnightblue" d="M629.41,-117.98C589.9,-107.48 522.72,-89.64 479.24,-78.09"/>
<polygon fill="midnightblue" stroke="midnightblue" points="480.1,-74.69 469.53,-75.51 478.3,-81.46 480.1,-74.69"/>
</g>
<!-- Node11&#45;&gt;Node9 -->
<g id="edge18" class="edge">
<title>Node11&#45;&gt;Node9</title>
<path fill="none" stroke="midnightblue" d="M480.74,-61.52C544.72,-55.91 668.47,-43.26 782.32,-19.97"/>
<polygon fill="midnightblue" stroke="midnightblue" points="783.17,-23.36 792.25,-17.9 781.75,-16.51 783.17,-23.36"/>
</g>
<!-- Node11&#45;&gt;Node10 -->
<g id="edge22" class="edge">
<title>Node11&#45;&gt;Node10</title>
<path fill="none" stroke="midnightblue" d="M394.48,-62.14C325.2,-57.06 184.55,-44.77 57.1,-20.06"/>
<polygon fill="midnightblue" stroke="midnightblue" points="57.65,-16.6 47.17,-18.1 56.3,-23.47 57.65,-16.6"/>
</g>
<!-- Node12 -->
<g id="node12" class="node">
<title>Node12</title>
<g id="a_node12"><a xlink:title=" ">
<polygon fill="white" stroke="#bfbfbf" points="656.5,-0.5 656.5,-19.5 720.5,-19.5 720.5,-0.5 656.5,-0.5"/>
<text text-anchor="middle" x="688.5" y="-7.5" font-family="Helvetica,sans-Serif" font-size="10.00">algorithm</text>
</a>
</g>
</g>
<!-- Node11&#45;&gt;Node12 -->
<g id="edge11" class="edge">
<title>Node11&#45;&gt;Node12</title>
<path fill="none" stroke="midnightblue" d="M477.27,-56.44C523.5,-46.5 599.47,-30.15 646.6,-20.02"/>
<polygon fill="midnightblue" stroke="midnightblue" points="647.44,-23.41 656.48,-17.89 645.97,-16.57 647.44,-23.41"/>
</g>
<!-- Node13 -->
<g id="node13" class="node">
<title>Node13</title>
<g id="a_node13"><a xlink:title=" ">
<polygon fill="white" stroke="#bfbfbf" points="739,-0.5 739,-19.5 774,-19.5 774,-0.5 739,-0.5"/>
<text text-anchor="middle" x="756.5" y="-7.5" font-family="Helvetica,sans-Serif" font-size="10.00">any</text>
</a>
</g>
</g>
<!-- Node11&#45;&gt;Node13 -->
<g id="edge12" class="edge">
<title>Node11&#45;&gt;Node13</title>
<path fill="none" stroke="midnightblue" d="M480.99,-60.62C536.47,-54.52 635.44,-41.94 729,-19.73"/>
<polygon fill="midnightblue" stroke="midnightblue" points="730.01,-23.09 738.91,-17.34 728.36,-16.29 730.01,-23.09"/>
</g>
<!-- Node14 -->
<g id="node14" class="node">
<title>Node14</title>
<g id="a_node14"><a xlink:title=" ">
<polygon fill="white" stroke="#bfbfbf" points="65,-0.5 65,-19.5 114,-19.5 114,-0.5 65,-0.5"/>
<text text-anchor="middle" x="89.5" y="-7.5" font-family="Helvetica,sans-Serif" font-size="10.00">cctype</text>
</a>
</g>
</g>
<!-- Node11&#45;&gt;Node14 -->
<g id="edge13" class="edge">
<title>Node11&#45;&gt;Node14</title>
<path fill="none" stroke="midnightblue" d="M394.41,-60.56C335.37,-54.11 225.91,-40.79 124.11,-20.14"/>
<polygon fill="midnightblue" stroke="midnightblue" points="124.79,-16.7 114.29,-18.12 123.38,-23.56 124.79,-16.7"/>
</g>
<!-- Node15 -->
<g id="node15" class="node">
<title>Node15</title>
<g id="a_node15"><a xlink:title=" ">
<polygon fill="white" stroke="#bfbfbf" points="132,-0.5 132,-19.5 185,-19.5 185,-0.5 132,-0.5"/>
<text text-anchor="middle" x="158.5" y="-7.5" font-family="Helvetica,sans-Serif" font-size="10.00">cstddef</text>
</a>
</g>
</g>
<!-- Node11&#45;&gt;Node15 -->
<g id="edge14" class="edge">
<title>Node11&#45;&gt;Node15</title>
<path fill="none" stroke="midnightblue" d="M394.32,-57.83C347.7,-49.91 271.04,-36.36 195.38,-20.08"/>
<polygon fill="midnightblue" stroke="midnightblue" points="195.71,-16.57 185.19,-17.87 194.22,-23.41 195.71,-16.57"/>
</g>
<!-- Node16 -->
<g id="node16" class="node">
<title>Node16</title>
<g id="a_node16"><a xlink:title=" ">
<polygon fill="white" stroke="#bfbfbf" points="203.5,-0.5 203.5,-19.5 241.5,-19.5 241.5,-0.5 203.5,-0.5"/>
<text text-anchor="middle" x="222.5" y="-7.5" font-family="Helvetica,sans-Serif" font-size="10.00">map</text>
</a>
</g>
</g>
<!-- Node11&#45;&gt;Node16 -->
<g id="edge15" class="edge">
<title>Node11&#45;&gt;Node16</title>
<path fill="none" stroke="midnightblue" d="M398.24,-56.45C362.33,-48.43 307.54,-35.7 251.46,-20.12"/>
<polygon fill="midnightblue" stroke="midnightblue" points="252.3,-16.72 241.72,-17.39 250.41,-23.46 252.3,-16.72"/>
</g>
<!-- Node17 -->
<g id="node17" class="node">
<title>Node17</title>
<g id="a_node17"><a xlink:title=" ">
<polygon fill="white" stroke="#bfbfbf" points="259.5,-0.5 259.5,-19.5 315.5,-19.5 315.5,-0.5 259.5,-0.5"/>
<text text-anchor="middle" x="287.5" y="-7.5" font-family="Helvetica,sans-Serif" font-size="10.00">optional</text>
</a>
</g>
</g>
<!-- Node11&#45;&gt;Node17 -->
<g id="edge16" class="edge">
<title>Node11&#45;&gt;Node17</title>
<path fill="none" stroke="midnightblue" d="M413.73,-56.44C388.61,-47.4 348.79,-33.06 320.6,-22.92"/>
<polygon fill="midnightblue" stroke="midnightblue" points="321.75,-19.61 311.16,-19.52 319.38,-26.2 321.75,-19.61"/>
</g>
<!-- Node18 -->
<g id="node18" class="node">
<title>Node18</title>
<g id="a_node18"><a xlink:title=" ">
<polygon fill="white" stroke="#bfbfbf" points="334,-0.5 334,-19.5 399,-19.5 399,-0.5 334,-0.5"/>
<text text-anchor="middle" x="366.5" y="-7.5" font-family="Helvetica,sans-Serif" font-size="10.00">stdexcept</text>
</a>
</g>
</g>
<!-- Node11&#45;&gt;Node18 -->
<g id="edge17" class="edge">
<title>Node11&#45;&gt;Node18</title>
<path fill="none" stroke="midnightblue" d="M426.09,-56.32C415.39,-48.18 399.16,-35.84 386.34,-26.09"/>
<polygon fill="midnightblue" stroke="midnightblue" points="388.19,-23.1 378.11,-19.83 383.96,-28.67 388.19,-23.1"/>
</g>
<!-- Node19 -->
<g id="node19" class="node">
<title>Node19</title>
<g id="a_node19"><a xlink:title=" ">
<polygon fill="white" stroke="#bfbfbf" points="417,-0.5 417,-19.5 458,-19.5 458,-0.5 417,-0.5"/>
<text text-anchor="middle" x="437.5" y="-7.5" font-family="Helvetica,sans-Serif" font-size="10.00">tuple</text>
</a>
</g>
</g>
<!-- Node11&#45;&gt;Node19 -->
<g id="edge19" class="edge">
<title>Node11&#45;&gt;Node19</title>
<path fill="none" stroke="midnightblue" d="M437.5,-56.08C437.5,-49.01 437.5,-38.86 437.5,-29.99"/>
<polygon fill="midnightblue" stroke="midnightblue" points="441,-29.75 437.5,-19.75 434,-29.75 441,-29.75"/>
</g>
<!-- Node20 -->
<g id="node20" class="node">
<title>Node20</title>
<g id="a_node20"><a xlink:title=" ">
<polygon fill="white" stroke="#bfbfbf" points="476,-0.5 476,-19.5 569,-19.5 569,-0.5 476,-0.5"/>
<text text-anchor="middle" x="522.5" y="-7.5" font-family="Helvetica,sans-Serif" font-size="10.00">unordered_map</text>
</a>
</g>
</g>
<!-- Node11&#45;&gt;Node20 -->
<g id="edge20" class="edge">
<title>Node11&#45;&gt;Node20</title>
<path fill="none" stroke="midnightblue" d="M451.16,-56.32C464.42,-47.9 484.77,-34.97 500.35,-25.07"/>
<polygon fill="midnightblue" stroke="midnightblue" points="502.31,-27.97 508.88,-19.65 498.56,-22.06 502.31,-27.97"/>
</g>
<!-- Node21 -->
<g id="node21" class="node">
<title>Node21</title>
<g id="a_node21"><a xlink:title=" ">
<polygon fill="white" stroke="#bfbfbf" points="587,-0.5 587,-19.5 638,-19.5 638,-0.5 587,-0.5"/>
<text text-anchor="middle" x="612.5" y="-7.5" font-family="Helvetica,sans-Serif" font-size="10.00">variant</text>
</a>
</g>
</g>
<!-- Node11&#45;&gt;Node21 -->
<g id="edge21" class="edge">
<title>Node11&#45;&gt;Node21</title>
<path fill="none" stroke="midnightblue" d="M465.23,-56.44C495.54,-47.09 544.17,-32.08 577.19,-21.9"/>
<polygon fill="midnightblue" stroke="midnightblue" points="578.37,-25.19 586.89,-18.9 576.31,-18.51 578.37,-25.19"/>
</g>
<!-- Node22&#45;&gt;Node9 -->
<g id="edge26" class="edge">
<title>Node22&#45;&gt;Node9</title>
<path fill="none" stroke="midnightblue" d="M847.89,-56.08C842.24,-48.46 833.96,-37.26 827.05,-27.94"/>
<polygon fill="midnightblue" stroke="midnightblue" points="829.75,-25.7 820.98,-19.75 824.12,-29.87 829.75,-25.7"/>
</g>
<!-- Node23 -->
<g id="node23" class="node">
<title>Node23</title>
<g id="a_node23"><a xlink:title=" ">
<polygon fill="white" stroke="#bfbfbf" points="854.5,-0.5 854.5,-19.5 934.5,-19.5 934.5,-0.5 854.5,-0.5"/>
<text text-anchor="middle" x="894.5" y="-7.5" font-family="Helvetica,sans-Serif" font-size="10.00">pico/mutex.h</text>
</a>
</g>
</g>
<!-- Node22&#45;&gt;Node23 -->
<g id="edge24" class="edge">
<title>Node22&#45;&gt;Node23</title>
<path fill="none" stroke="midnightblue" d="M861.11,-56.08C866.76,-48.46 875.04,-37.26 881.95,-27.94"/>
<polygon fill="midnightblue" stroke="midnightblue" points="884.88,-29.87 888.02,-19.75 879.25,-25.7 884.88,-29.87"/>
</g>
<!-- Node24 -->
<g id="node24" class="node">
<title>Node24</title>
<g id="a_node24"><a xlink:title=" ">
<polygon fill="white" stroke="#bfbfbf" points="953,-0.5 953,-19.5 1000,-19.5 1000,-0.5 953,-0.5"/>
<text text-anchor="middle" x="976.5" y="-7.5" font-family="Helvetica,sans-Serif" font-size="10.00">queue</text>
</a>
</g>
</g>
<!-- Node22&#45;&gt;Node24 -->
<g id="edge25" class="edge">
<title>Node22&#45;&gt;Node24</title>
<path fill="none" stroke="midnightblue" d="M873.83,-56.44C893.82,-47.6 925.24,-33.69 948.06,-23.59"/>
<polygon fill="midnightblue" stroke="midnightblue" points="949.53,-26.76 957.26,-19.52 946.7,-20.36 949.53,-26.76"/>
</g>
<!-- Node25&#45;&gt;Node22 -->
<g id="edge28" class="edge">
<title>Node25&#45;&gt;Node22</title>
<path fill="none" stroke="midnightblue" d="M854.5,-112.4C854.5,-104.47 854.5,-94.46 854.5,-85.86"/>
<polygon fill="midnightblue" stroke="midnightblue" points="858,-85.66 854.5,-75.66 851,-85.66 858,-85.66"/>
</g>
</g>
</svg>
