<?xml version="1.0" encoding="UTF-8" standalone="no"?>
<!DOCTYPE svg PUBLIC "-//W3C//DTD SVG 1.1//EN"
 "http://www.w3.org/Graphics/SVG/1.1/DTD/svg11.dtd">
<!-- Generated by graphviz version 2.43.0 (0)
 -->
<!-- Title: src/server.cpp Pages: 1 -->
<svg width="647pt" height="196pt"
 viewBox="0.00 0.00 646.50 196.00" xmlns="http://www.w3.org/2000/svg" xmlns:xlink="http://www.w3.org/1999/xlink">
<g id="graph0" class="graph" transform="scale(1 1) rotate(0) translate(4 192)">
<title>src/server.cpp</title>
<polygon fill="white" stroke="transparent" points="-4,4 -4,-192 642.5,-192 642.5,4 -4,4"/>
<!-- Node1 -->
<g id="node1" class="node">
<title>Node1</title>
<g id="a_node1"><a xlink:title=" ">
<polygon fill="#bfbfbf" stroke="black" points="272,-168.5 272,-187.5 356,-187.5 356,-168.5 272,-168.5"/>
<text text-anchor="middle" x="314" y="-175.5" font-family="Helvetica,sans-Serif" font-size="10.00">src/server.cpp</text>
</a>
</g>
</g>
<!-- Node2 -->
<g id="node2" class="node">
<title>Node2</title>
<g id="a_node2"><a xlink:href="server_8hpp.html" target="_top" xlink:title=" ">
<polygon fill="white" stroke="black" points="0,-112.5 0,-131.5 68,-131.5 68,-112.5 0,-112.5"/>
<text text-anchor="middle" x="34" y="-119.5" font-family="Helvetica,sans-Serif" font-size="10.00">server.hpp</text>
</a>
</g>
</g>
<!-- Node1&#45;&gt;Node2 -->
<g id="edge1" class="edge">
<title>Node1&#45;&gt;Node2</title>
<path fill="none" stroke="midnightblue" d="M272,-169.27C226.63,-160.87 151.94,-146.87 78.18,-132.21"/>
<polygon fill="midnightblue" stroke="midnightblue" points="78.75,-128.75 68.26,-130.23 77.38,-135.62 78.75,-128.75"/>
</g>
<!-- Node3 -->
<g id="node3" class="node">
<title>Node3</title>
<g id="a_node3"><a xlink:title=" ">
<polygon fill="white" stroke="#bfbfbf" points="86.5,-112.5 86.5,-131.5 187.5,-131.5 187.5,-112.5 86.5,-112.5"/>
<text text-anchor="middle" x="137" y="-119.5" font-family="Helvetica,sans-Serif" font-size="10.00">lwip/apps/httpd.h</text>
</a>
</g>
</g>
<!-- Node1&#45;&gt;Node3 -->
<g id="edge2" class="edge">
<title>Node1&#45;&gt;Node3</title>
<path fill="none" stroke="midnightblue" d="M285.95,-168.44C255.92,-159.28 208.09,-144.69 174.76,-134.52"/>
<polygon fill="midnightblue" stroke="midnightblue" points="175.5,-131.09 164.91,-131.52 173.46,-137.78 175.5,-131.09"/>
</g>
<!-- Node4 -->
<g id="node4" class="node">
<title>Node4</title>
<g id="a_node4"><a xlink:title=" ">
<polygon fill="white" stroke="#bfbfbf" points="205.5,-112.5 205.5,-131.5 312.5,-131.5 312.5,-112.5 205.5,-112.5"/>
<text text-anchor="middle" x="259" y="-119.5" font-family="Helvetica,sans-Serif" font-size="10.00">pico/cyw43_arch.h</text>
</a>
</g>
</g>
<!-- Node1&#45;&gt;Node4 -->
<g id="edge3" class="edge">
<title>Node1&#45;&gt;Node4</title>
<path fill="none" stroke="midnightblue" d="M304.92,-168.08C296.83,-160.14 284.8,-148.34 275.09,-138.8"/>
<polygon fill="midnightblue" stroke="midnightblue" points="277.5,-136.26 267.91,-131.75 272.6,-141.25 277.5,-136.26"/>
</g>
<!-- Node5 -->
<g id="node5" class="node">
<title>Node5</title>
<g id="a_node5"><a xlink:title=" ">
<polygon fill="white" stroke="#bfbfbf" points="331,-112.5 331,-131.5 407,-131.5 407,-112.5 331,-112.5"/>
<text text-anchor="middle" x="369" y="-119.5" font-family="Helvetica,sans-Serif" font-size="10.00">pico/stdlib.h</text>
</a>
</g>
</g>
<!-- Node1&#45;&gt;Node5 -->
<g id="edge4" class="edge">
<title>Node1&#45;&gt;Node5</title>
<path fill="none" stroke="midnightblue" d="M323.08,-168.08C331.17,-160.14 343.2,-148.34 352.91,-138.8"/>
<polygon fill="midnightblue" stroke="midnightblue" points="355.4,-141.25 360.09,-131.75 350.5,-136.26 355.4,-141.25"/>
</g>
<!-- Node6 -->
<g id="node6" class="node">
<title>Node6</title>
<g id="a_node6"><a xlink:href="shared_8hpp.html" target="_top" xlink:title=" ">
<polygon fill="white" stroke="black" points="425,-112.5 425,-131.5 563,-131.5 563,-112.5 425,-112.5"/>
<text text-anchor="middle" x="494" y="-119.5" font-family="Helvetica,sans-Serif" font-size="10.00">RoL/threaded/shared.hpp</text>
</a>
</g>
</g>
<!-- Node1&#45;&gt;Node6 -->
<g id="edge5" class="edge">
<title>Node1&#45;&gt;Node6</title>
<path fill="none" stroke="midnightblue" d="M342.52,-168.44C373.07,-159.28 421.71,-144.69 455.6,-134.52"/>
<polygon fill="midnightblue" stroke="midnightblue" points="457.04,-137.74 465.61,-131.52 455.03,-131.04 457.04,-137.74"/>
</g>
<!-- Node12 -->
<g id="node12" class="node">
<title>Node12</title>
<g id="a_node12"><a xlink:href="ssi_8h.html" target="_top" xlink:title=" ">
<polygon fill="white" stroke="black" points="581.5,-112.5 581.5,-131.5 620.5,-131.5 620.5,-112.5 581.5,-112.5"/>
<text text-anchor="middle" x="601" y="-119.5" font-family="Helvetica,sans-Serif" font-size="10.00">ssi.h</text>
</a>
</g>
</g>
<!-- Node1&#45;&gt;Node12 -->
<g id="edge12" class="edge">
<title>Node1&#45;&gt;Node12</title>
<path fill="none" stroke="midnightblue" d="M356.35,-171.32C405.74,-164.31 489.96,-151.21 571.51,-131.84"/>
<polygon fill="midnightblue" stroke="midnightblue" points="572.54,-135.19 581.44,-129.44 570.9,-128.38 572.54,-135.19"/>
</g>
<!-- Node7 -->
<g id="node7" class="node">
<title>Node7</title>
<g id="a_node7"><a xlink:href="queue_8hpp.html" target="_top" xlink:title=" ">
<polygon fill="white" stroke="black" points="350.5,-56.5 350.5,-75.5 485.5,-75.5 485.5,-56.5 350.5,-56.5"/>
<text text-anchor="middle" x="418" y="-63.5" font-family="Helvetica,sans-Serif" font-size="10.00">RoL/threaded/queue.hpp</text>
</a>
</g>
</g>
<!-- Node6&#45;&gt;Node7 -->
<g id="edge6" class="edge">
<title>Node6&#45;&gt;Node7</title>
<path fill="none" stroke="midnightblue" d="M481.79,-112.32C470.22,-104.11 452.62,-91.6 438.84,-81.81"/>
<polygon fill="midnightblue" stroke="midnightblue" points="440.61,-78.77 430.43,-75.83 436.56,-84.48 440.61,-78.77"/>
</g>
<!-- Node10 -->
<g id="node10" class="node">
<title>Node10</title>
<g id="a_node10"><a xlink:href="vector_8hpp.html" target="_top" xlink:title=" ">
<polygon fill="white" stroke="black" points="503.5,-56.5 503.5,-75.5 638.5,-75.5 638.5,-56.5 503.5,-56.5"/>
<text text-anchor="middle" x="571" y="-63.5" font-family="Helvetica,sans-Serif" font-size="10.00">RoL/threaded/vector.hpp</text>
</a>
</g>
</g>
<!-- Node6&#45;&gt;Node10 -->
<g id="edge9" class="edge">
<title>Node6&#45;&gt;Node10</title>
<path fill="none" stroke="midnightblue" d="M506.37,-112.32C518.16,-104.06 536.13,-91.45 550.14,-81.63"/>
<polygon fill="midnightblue" stroke="midnightblue" points="552.48,-84.26 558.66,-75.65 548.46,-78.53 552.48,-84.26"/>
</g>
<!-- Node8 -->
<g id="node8" class="node">
<title>Node8</title>
<g id="a_node8"><a xlink:title=" ">
<polygon fill="white" stroke="#bfbfbf" points="455,-0.5 455,-19.5 535,-19.5 535,-0.5 455,-0.5"/>
<text text-anchor="middle" x="495" y="-7.5" font-family="Helvetica,sans-Serif" font-size="10.00">pico/mutex.h</text>
</a>
</g>
</g>
<!-- Node7&#45;&gt;Node8 -->
<g id="edge7" class="edge">
<title>Node7&#45;&gt;Node8</title>
<path fill="none" stroke="midnightblue" d="M430.37,-56.32C442.16,-48.06 460.13,-35.45 474.14,-25.63"/>
<polygon fill="midnightblue" stroke="midnightblue" points="476.48,-28.26 482.66,-19.65 472.46,-22.53 476.48,-28.26"/>
</g>
<!-- Node9 -->
<g id="node9" class="node">
<title>Node9</title>
<g id="a_node9"><a xlink:title=" ">
<polygon fill="white" stroke="#bfbfbf" points="389.5,-0.5 389.5,-19.5 436.5,-19.5 436.5,-0.5 389.5,-0.5"/>
<text text-anchor="middle" x="413" y="-7.5" font-family="Helvetica,sans-Serif" font-size="10.00">queue</text>
</a>
</g>
</g>
<!-- Node7&#45;&gt;Node9 -->
<g id="edge8" class="edge">
<title>Node7&#45;&gt;Node9</title>
<path fill="none" stroke="midnightblue" d="M417.17,-56.08C416.52,-49.01 415.58,-38.86 414.76,-29.99"/>
<polygon fill="midnightblue" stroke="midnightblue" points="418.22,-29.39 413.81,-19.75 411.25,-30.03 418.22,-29.39"/>
</g>
<!-- Node10&#45;&gt;Node8 -->
<g id="edge10" class="edge">
<title>Node10&#45;&gt;Node8</title>
<path fill="none" stroke="midnightblue" d="M558.79,-56.32C547.22,-48.11 529.62,-35.6 515.84,-25.81"/>
<polygon fill="midnightblue" stroke="midnightblue" points="517.61,-22.77 507.43,-19.83 513.56,-28.48 517.61,-22.77"/>
</g>
<!-- Node11 -->
<g id="node11" class="node">
<title>Node11</title>
<g id="a_node11"><a xlink:title=" ">
<polygon fill="white" stroke="#bfbfbf" points="553.5,-0.5 553.5,-19.5 600.5,-19.5 600.5,-0.5 553.5,-0.5"/>
<text text-anchor="middle" x="577" y="-7.5" font-family="Helvetica,sans-Serif" font-size="10.00">vector</text>
</a>
</g>
</g>
<!-- Node10&#45;&gt;Node11 -->
<g id="edge11" class="edge">
<title>Node10&#45;&gt;Node11</title>
<path fill="none" stroke="midnightblue" d="M571.99,-56.08C572.79,-48.93 573.93,-38.64 574.92,-29.69"/>
<polygon fill="midnightblue" stroke="midnightblue" points="578.4,-30.08 576.03,-19.75 571.44,-29.3 578.4,-30.08"/>
</g>
</g>
</svg>
