<?xml version="1.0" encoding="UTF-8" standalone="no"?>
<!DOCTYPE svg PUBLIC "-//W3C//DTD SVG 1.1//EN"
 "http://www.w3.org/Graphics/SVG/1.1/DTD/svg11.dtd">
<!-- Generated by graphviz version 2.43.0 (0)
 -->
<!-- Title: src/server.cpp Pages: 1 -->
<!--zoomable 207 -->
<svg id="main" version="1.1" xmlns="http://www.w3.org/2000/svg" xmlns:xlink="http://www.w3.org/1999/xlink" xml:space="preserve" onload="init(evt)">
<style type="text/css"><![CDATA[
.edge:hover path { stroke: red; }
.edge:hover polygon { stroke: red; fill: red; }
]]></style>
<script type="text/javascript"><![CDATA[
var edges = document.getElementsByTagName('g');
if (edges && edges.length) {
  for (var i=0;i<edges.length;i++) {
    if (edges[i].id.substr(0,4)=='edge') {
      edges[i].setAttribute('class','edge');
    }
  }
}
]]></script>
        <defs>
                <circle id="rim" cx="0" cy="0" r="7"/>
                <circle id="rim2" cx="0" cy="0" r="3.5"/>
                <g id="zoomPlus">
                        <use xlink:href="#rim" fill="#404040">
                                <set attributeName="fill" to="#808080" begin="zoomplus.mouseover" end="zoomplus.mouseout"/>
                        </use>
                        <path d="M-4,0h8M0,-4v8" fill="none" stroke="white" stroke-width="1.5" pointer-events="none"/>
                </g>
                <g id="zoomMin">
                        <use xlink:href="#rim" fill="#404040">
                                <set attributeName="fill" to="#808080" begin="zoomminus.mouseover" end="zoomminus.mouseout"/>
                        </use>
                        <path d="M-4,0h8" fill="none" stroke="white" stroke-width="1.5" pointer-events="none"/>
                </g>
                <g id="dirArrow">
                        <path fill="none" stroke="white" stroke-width="1.5" d="M0,-3.0v7 M-2.5,-0.5L0,-3.0L2.5,-0.5"/>
                </g>
               <g id="resetDef">
                       <use xlink:href="#rim2" fill="#404040">
                               <set attributeName="fill" to="#808080" begin="reset.mouseover" end="reset.mouseout"/>
                       </use>
               </g>
        </defs>

<script type="text/javascript">
var viewWidth = 640;
var viewHeight = 207;
var sectionId = 'dynsection-0';
</script>
<script xlink:href="svgpan.js"/>
<svg id="graph" class="graph">
<g id="viewport">
<title>src/server.cpp</title>
<polygon fill="white" stroke="transparent" points="-4,4 -4,-203 635.5,-203 635.5,4 -4,4"/>
<!-- Node1 -->
<g id="node1" class="node">
<title>Node1</title>
<g id="a_node1"><a xlink:title=" ">
<polygon fill="#bfbfbf" stroke="black" points="291,-179.5 291,-198.5 375,-198.5 375,-179.5 291,-179.5"/>
<text text-anchor="middle" x="333" y="-186.5" font-family="Helvetica,sans-Serif" font-size="10.00">src/server.cpp</text>
</a>
</g>
</g>
<!-- Node2 -->
<g id="node2" class="node">
<title>Node2</title>
<g id="a_node2"><a xlink:href="server_8hpp.html" target="_top" xlink:title=" ">
<polygon fill="white" stroke="black" points="0,-118 0,-137 68,-137 68,-118 0,-118"/>
<text text-anchor="middle" x="34" y="-125" font-family="Helvetica,sans-Serif" font-size="10.00">server.hpp</text>
</a>
</g>
</g>
<!-- Node1&#45;&gt;Node2 -->
<g id="edge1" class="edge">
<title>Node1&#45;&gt;Node2</title>
<path fill="none" stroke="midnightblue" d="M290.64,-182.43C239.73,-175.29 151.9,-161.59 78,-143 74.62,-142.15 71.13,-141.17 67.65,-140.14"/>
<polygon fill="midnightblue" stroke="midnightblue" points="68.61,-136.77 58.02,-137.11 66.51,-143.45 68.61,-136.77"/>
</g>
<!-- Node3 -->
<g id="node3" class="node">
<title>Node3</title>
<g id="a_node3"><a xlink:href="shared__queue_8hpp.html" target="_top" xlink:title=" ">
<polygon fill="white" stroke="black" points="86.5,-112.5 86.5,-142.5 203.5,-142.5 203.5,-112.5 86.5,-112.5"/>
<text text-anchor="start" x="94.5" y="-130.5" font-family="Helvetica,sans-Serif" font-size="10.00">RoL/threaded/shared</text>
<text text-anchor="middle" x="145" y="-119.5" font-family="Helvetica,sans-Serif" font-size="10.00">_queue.hpp</text>
</a>
</g>
</g>
<!-- Node1&#45;&gt;Node3 -->
<g id="edge2" class="edge">
<title>Node1&#45;&gt;Node3</title>
<path fill="none" stroke="midnightblue" d="M306.06,-179.48C278.22,-170.66 234,-156.67 198.93,-145.57"/>
<polygon fill="midnightblue" stroke="midnightblue" points="199.9,-142.2 189.31,-142.52 197.79,-148.88 199.9,-142.2"/>
</g>
<!-- Node8 -->
<g id="node8" class="node">
<title>Node8</title>
<g id="a_node8"><a xlink:title=" ">
<polygon fill="white" stroke="#bfbfbf" points="221.5,-118 221.5,-137 322.5,-137 322.5,-118 221.5,-118"/>
<text text-anchor="middle" x="272" y="-125" font-family="Helvetica,sans-Serif" font-size="10.00">lwip/apps/httpd.h</text>
</a>
</g>
</g>
<!-- Node1&#45;&gt;Node8 -->
<g id="edge7" class="edge">
<title>Node1&#45;&gt;Node8</title>
<path fill="none" stroke="midnightblue" d="M324.26,-179.48C314.84,-170.28 299.64,-155.46 288.05,-144.16"/>
<polygon fill="midnightblue" stroke="midnightblue" points="290.33,-141.49 280.72,-137.01 285.44,-146.5 290.33,-141.49"/>
</g>
<!-- Node9 -->
<g id="node9" class="node">
<title>Node9</title>
<g id="a_node9"><a xlink:title=" ">
<polygon fill="white" stroke="#bfbfbf" points="340.5,-118 340.5,-137 447.5,-137 447.5,-118 340.5,-118"/>
<text text-anchor="middle" x="394" y="-125" font-family="Helvetica,sans-Serif" font-size="10.00">pico/cyw43_arch.h</text>
</a>
</g>
</g>
<!-- Node1&#45;&gt;Node9 -->
<g id="edge8" class="edge">
<title>Node1&#45;&gt;Node9</title>
<path fill="none" stroke="midnightblue" d="M341.74,-179.48C351.16,-170.28 366.36,-155.46 377.95,-144.16"/>
<polygon fill="midnightblue" stroke="midnightblue" points="380.56,-146.5 385.28,-137.01 375.67,-141.49 380.56,-146.5"/>
</g>
<!-- Node10 -->
<g id="node10" class="node">
<title>Node10</title>
<g id="a_node10"><a xlink:title=" ">
<polygon fill="white" stroke="#bfbfbf" points="466,-118 466,-137 542,-137 542,-118 466,-118"/>
<text text-anchor="middle" x="504" y="-125" font-family="Helvetica,sans-Serif" font-size="10.00">pico/stdlib.h</text>
</a>
</g>
</g>
<!-- Node1&#45;&gt;Node10 -->
<g id="edge9" class="edge">
<title>Node1&#45;&gt;Node10</title>
<path fill="none" stroke="midnightblue" d="M357.5,-179.48C386.96,-169.22 436.58,-151.96 469.8,-140.4"/>
<polygon fill="midnightblue" stroke="midnightblue" points="471.25,-143.6 479.55,-137.01 468.95,-136.99 471.25,-143.6"/>
</g>
<!-- Node11 -->
<g id="node11" class="node">
<title>Node11</title>
<g id="a_node11"><a xlink:title=" ">
<polygon fill="white" stroke="#bfbfbf" points="560.5,-118 560.5,-137 631.5,-137 631.5,-118 560.5,-118"/>
<text text-anchor="middle" x="596" y="-125" font-family="Helvetica,sans-Serif" font-size="10.00">pico/time.h</text>
</a>
</g>
</g>
<!-- Node1&#45;&gt;Node11 -->
<g id="edge10" class="edge">
<title>Node1&#45;&gt;Node11</title>
<path fill="none" stroke="midnightblue" d="M375.11,-180.71C419.24,-172.73 490.46,-158.95 551,-143 554.36,-142.12 557.83,-141.13 561.29,-140.1"/>
<polygon fill="midnightblue" stroke="midnightblue" points="562.4,-143.42 570.91,-137.11 560.33,-136.73 562.4,-143.42"/>
</g>
<!-- Node4 -->
<g id="node4" class="node">
<title>Node4</title>
<g id="a_node4"><a xlink:href="queue_8hpp.html" target="_top" xlink:title=" ">
<polygon fill="white" stroke="black" points="77.5,-56.5 77.5,-75.5 212.5,-75.5 212.5,-56.5 77.5,-56.5"/>
<text text-anchor="middle" x="145" y="-63.5" font-family="Helvetica,sans-Serif" font-size="10.00">RoL/threaded/queue.hpp</text>
</a>
</g>
</g>
<!-- Node3&#45;&gt;Node4 -->
<g id="edge3" class="edge">
<title>Node3&#45;&gt;Node4</title>
<path fill="none" stroke="midnightblue" d="M145,-112.4C145,-104.47 145,-94.46 145,-85.86"/>
<polygon fill="midnightblue" stroke="midnightblue" points="148.5,-85.66 145,-75.66 141.5,-85.66 148.5,-85.66"/>
</g>
<!-- Node5 -->
<g id="node5" class="node">
<title>Node5</title>
<g id="a_node5"><a xlink:title=" ">
<polygon fill="white" stroke="#bfbfbf" points="23,-0.5 23,-19.5 103,-19.5 103,-0.5 23,-0.5"/>
<text text-anchor="middle" x="63" y="-7.5" font-family="Helvetica,sans-Serif" font-size="10.00">pico/mutex.h</text>
</a>
</g>
</g>
<!-- Node4&#45;&gt;Node5 -->
<g id="edge4" class="edge">
<title>Node4&#45;&gt;Node5</title>
<path fill="none" stroke="midnightblue" d="M131.83,-56.32C119.15,-47.98 99.77,-35.21 84.79,-25.35"/>
<polygon fill="midnightblue" stroke="midnightblue" points="86.42,-22.23 76.14,-19.65 82.57,-28.08 86.42,-22.23"/>
</g>
<!-- Node6 -->
<g id="node6" class="node">
<title>Node6</title>
<g id="a_node6"><a xlink:title=" ">
<polygon fill="white" stroke="#bfbfbf" points="121.5,-0.5 121.5,-19.5 168.5,-19.5 168.5,-0.5 121.5,-0.5"/>
<text text-anchor="middle" x="145" y="-7.5" font-family="Helvetica,sans-Serif" font-size="10.00">queue</text>
</a>
</g>
</g>
<!-- Node4&#45;&gt;Node6 -->
<g id="edge5" class="edge">
<title>Node4&#45;&gt;Node6</title>
<path fill="none" stroke="midnightblue" d="M145,-56.08C145,-49.01 145,-38.86 145,-29.99"/>
<polygon fill="midnightblue" stroke="midnightblue" points="148.5,-29.75 145,-19.75 141.5,-29.75 148.5,-29.75"/>
</g>
<!-- Node7 -->
<g id="node7" class="node">
<title>Node7</title>
<g id="a_node7"><a xlink:title=" ">
<polygon fill="white" stroke="#bfbfbf" points="187,-0.5 187,-19.5 231,-19.5 231,-0.5 187,-0.5"/>
<text text-anchor="middle" x="209" y="-7.5" font-family="Helvetica,sans-Serif" font-size="10.00">string</text>
</a>
</g>
</g>
<!-- Node4&#45;&gt;Node7 -->
<g id="edge6" class="edge">
<title>Node4&#45;&gt;Node7</title>
<path fill="none" stroke="midnightblue" d="M155.28,-56.32C164.84,-48.26 179.28,-36.08 190.78,-26.37"/>
<polygon fill="midnightblue" stroke="midnightblue" points="193.14,-28.96 198.53,-19.83 188.63,-23.61 193.14,-28.96"/>
</g>
</g>
</svg>
        <g id="navigator" transform="translate(0 0)" fill="#404254">
                <rect fill="#f2f5e9" fill-opacity="0.5" stroke="#606060" stroke-width=".5" x="0" y="0" width="60" height="60"/>
                <use id="zoomplus" xlink:href="#zoomPlus" x="17" y="9" onmousedown="handleZoom(evt,'in')"/>
                <use id="zoomminus" xlink:href="#zoomMin" x="42" y="9" onmousedown="handleZoom(evt,'out')"/>
                <use id="reset" xlink:href="#resetDef" x="30" y="36" onmousedown="handleReset()"/>
                <g id="arrowUp" xlink:href="#dirArrow" transform="translate(30 24)" onmousedown="handlePan(0,-1)">
                  <use xlink:href="#rim" fill="#404040">
                        <set attributeName="fill" to="#808080" begin="arrowUp.mouseover" end="arrowUp.mouseout"/>
                  </use>
                  <path fill="none" stroke="white" stroke-width="1.5" d="M0,-3.0v7 M-2.5,-0.5L0,-3.0L2.5,-0.5"/>
                </g>
                <g id="arrowRight" xlink:href="#dirArrow" transform="rotate(90) translate(36 -43)" onmousedown="handlePan(1,0)">
                  <use xlink:href="#rim" fill="#404040">
                        <set attributeName="fill" to="#808080" begin="arrowRight.mouseover" end="arrowRight.mouseout"/>
                  </use>
                  <path fill="none" stroke="white" stroke-width="1.5" d="M0,-3.0v7 M-2.5,-0.5L0,-3.0L2.5,-0.5"/>
                </g>
                <g id="arrowDown" xlink:href="#dirArrow" transform="rotate(180) translate(-30 -48)" onmousedown="handlePan(0,1)">
                  <use xlink:href="#rim" fill="#404040">
                        <set attributeName="fill" to="#808080" begin="arrowDown.mouseover" end="arrowDown.mouseout"/>
                  </use>
                  <path fill="none" stroke="white" stroke-width="1.5" d="M0,-3.0v7 M-2.5,-0.5L0,-3.0L2.5,-0.5"/>
                </g>
                <g id="arrowLeft" xlink:href="#dirArrow" transform="rotate(270) translate(-36 17)" onmousedown="handlePan(-1,0)">
                  <use xlink:href="#rim" fill="#404040">
                        <set attributeName="fill" to="#808080" begin="arrowLeft.mouseover" end="arrowLeft.mouseout"/>
                  </use>
                  <path fill="none" stroke="white" stroke-width="1.5" d="M0,-3.0v7 M-2.5,-0.5L0,-3.0L2.5,-0.5"/>
                </g>
        </g>
        <svg viewBox="0 0 15 15" width="100%" height="30px" preserveAspectRatio="xMaxYMin meet">
         <g id="arrow_out" transform="scale(0.3 0.3)">
          <a xlink:href="server_8cpp__incl_org.svg" target="_base">
           <rect id="button" ry="5" rx="5" y="6" x="6" height="38" width="38"
                fill="#f2f5e9" fill-opacity="0.5" stroke="#606060" stroke-width="1.0"/>
           <path id="arrow"
             d="M 11.500037,31.436501 C 11.940474,20.09759 22.043105,11.32322 32.158766,21.979434 L 37.068811,17.246167 C 37.068811,17.246167 37.088388,32 37.088388,32 L 22.160133,31.978069 C 22.160133,31.978069 26.997745,27.140456 26.997745,27.140456 C 18.528582,18.264221 13.291696,25.230495 11.500037,31.436501 z"
             style="fill:#404040;"/>
          </a>
         </g>
        </svg>
</svg>
