<?xml version="1.0" encoding="UTF-8" standalone="no"?>
<!DOCTYPE svg PUBLIC "-//W3C//DTD SVG 1.1//EN"
 "http://www.w3.org/Graphics/SVG/1.1/DTD/svg11.dtd">
<!-- Generated by graphviz version 2.43.0 (0)
 -->
<!-- Title: src/server.cpp Pages: 1 -->
<svg width="653pt" height="196pt"
 viewBox="0.00 0.00 652.50 196.00" xmlns="http://www.w3.org/2000/svg" xmlns:xlink="http://www.w3.org/1999/xlink">
<g id="graph0" class="graph" transform="scale(1 1) rotate(0) translate(4 192)">
<title>src/server.cpp</title>
<polygon fill="white" stroke="transparent" points="-4,4 -4,-192 648.5,-192 648.5,4 -4,4"/>
<!-- Node1 -->
<g id="node1" class="node">
<title>Node1</title>
<g id="a_node1"><a xlink:title=" ">
<polygon fill="#bfbfbf" stroke="black" points="273,-168.5 273,-187.5 357,-187.5 357,-168.5 273,-168.5"/>
<text text-anchor="middle" x="315" y="-175.5" font-family="Helvetica,sans-Serif" font-size="10.00">src/server.cpp</text>
</a>
</g>
</g>
<!-- Node2 -->
<g id="node2" class="node">
<title>Node2</title>
<g id="a_node2"><a xlink:href="server_8hpp.html" target="_top" xlink:title=" ">
<polygon fill="white" stroke="black" points="0,-112.5 0,-131.5 68,-131.5 68,-112.5 0,-112.5"/>
<text text-anchor="middle" x="34" y="-119.5" font-family="Helvetica,sans-Serif" font-size="10.00">server.hpp</text>
</a>
</g>
</g>
<!-- Node1&#45;&gt;Node2 -->
<g id="edge1" class="edge">
<title>Node1&#45;&gt;Node2</title>
<path fill="none" stroke="midnightblue" d="M272.58,-169.13C225.13,-160.29 146,-145.41 78,-132 77.9,-131.98 77.8,-131.96 77.7,-131.94"/>
<polygon fill="midnightblue" stroke="midnightblue" points="78.59,-128.55 68.1,-130.02 77.22,-135.41 78.59,-128.55"/>
</g>
<!-- Node3 -->
<g id="node3" class="node">
<title>Node3</title>
<g id="a_node3"><a xlink:href="shared_8hpp.html" target="_top" xlink:title=" ">
<polygon fill="white" stroke="black" points="86.5,-112.5 86.5,-131.5 157.5,-131.5 157.5,-112.5 86.5,-112.5"/>
<text text-anchor="middle" x="122" y="-119.5" font-family="Helvetica,sans-Serif" font-size="10.00">shared.hpp</text>
</a>
</g>
</g>
<!-- Node1&#45;&gt;Node3 -->
<g id="edge2" class="edge">
<title>Node1&#45;&gt;Node3</title>
<path fill="none" stroke="midnightblue" d="M284.42,-168.44C251.39,-159.2 198.61,-144.44 162.23,-134.26"/>
<polygon fill="midnightblue" stroke="midnightblue" points="163.01,-130.84 152.44,-131.52 161.13,-137.58 163.01,-130.84"/>
</g>
<!-- Node8 -->
<g id="node8" class="node">
<title>Node8</title>
<g id="a_node8"><a xlink:title=" ">
<polygon fill="white" stroke="#bfbfbf" points="175.5,-112.5 175.5,-131.5 276.5,-131.5 276.5,-112.5 175.5,-112.5"/>
<text text-anchor="middle" x="226" y="-119.5" font-family="Helvetica,sans-Serif" font-size="10.00">lwip/apps/httpd.h</text>
</a>
</g>
</g>
<!-- Node1&#45;&gt;Node8 -->
<g id="edge7" class="edge">
<title>Node1&#45;&gt;Node8</title>
<path fill="none" stroke="midnightblue" d="M300.7,-168.32C286.82,-159.9 265.51,-146.97 249.2,-137.07"/>
<polygon fill="midnightblue" stroke="midnightblue" points="250.63,-133.85 240.26,-131.65 247,-139.83 250.63,-133.85"/>
</g>
<!-- Node9 -->
<g id="node9" class="node">
<title>Node9</title>
<g id="a_node9"><a xlink:href="cgi_8h.html" target="_top" xlink:title=" ">
<polygon fill="white" stroke="black" points="295,-112.5 295,-131.5 335,-131.5 335,-112.5 295,-112.5"/>
<text text-anchor="middle" x="315" y="-119.5" font-family="Helvetica,sans-Serif" font-size="10.00">cgi.h</text>
</a>
</g>
</g>
<!-- Node1&#45;&gt;Node9 -->
<g id="edge8" class="edge">
<title>Node1&#45;&gt;Node9</title>
<path fill="none" stroke="midnightblue" d="M315,-168.08C315,-161.01 315,-150.86 315,-141.99"/>
<polygon fill="midnightblue" stroke="midnightblue" points="318.5,-141.75 315,-131.75 311.5,-141.75 318.5,-141.75"/>
</g>
<!-- Node10 -->
<g id="node10" class="node">
<title>Node10</title>
<g id="a_node10"><a xlink:title=" ">
<polygon fill="white" stroke="#bfbfbf" points="353.5,-112.5 353.5,-131.5 460.5,-131.5 460.5,-112.5 353.5,-112.5"/>
<text text-anchor="middle" x="407" y="-119.5" font-family="Helvetica,sans-Serif" font-size="10.00">pico/cyw43_arch.h</text>
</a>
</g>
</g>
<!-- Node1&#45;&gt;Node10 -->
<g id="edge9" class="edge">
<title>Node1&#45;&gt;Node10</title>
<path fill="none" stroke="midnightblue" d="M329.78,-168.32C344.27,-159.82 366.57,-146.73 383.49,-136.8"/>
<polygon fill="midnightblue" stroke="midnightblue" points="385.4,-139.74 392.26,-131.65 381.86,-133.7 385.4,-139.74"/>
</g>
<!-- Node11 -->
<g id="node11" class="node">
<title>Node11</title>
<g id="a_node11"><a xlink:title=" ">
<polygon fill="white" stroke="#bfbfbf" points="479,-112.5 479,-131.5 555,-131.5 555,-112.5 479,-112.5"/>
<text text-anchor="middle" x="517" y="-119.5" font-family="Helvetica,sans-Serif" font-size="10.00">pico/stdlib.h</text>
</a>
</g>
</g>
<!-- Node1&#45;&gt;Node11 -->
<g id="edge10" class="edge">
<title>Node1&#45;&gt;Node11</title>
<path fill="none" stroke="midnightblue" d="M347.01,-168.44C381.73,-159.16 437.29,-144.31 475.38,-134.13"/>
<polygon fill="midnightblue" stroke="midnightblue" points="476.39,-137.48 485.14,-131.52 474.58,-130.72 476.39,-137.48"/>
</g>
<!-- Node12 -->
<g id="node12" class="node">
<title>Node12</title>
<g id="a_node12"><a xlink:title=" ">
<polygon fill="white" stroke="#bfbfbf" points="573.5,-112.5 573.5,-131.5 644.5,-131.5 644.5,-112.5 573.5,-112.5"/>
<text text-anchor="middle" x="609" y="-119.5" font-family="Helvetica,sans-Serif" font-size="10.00">pico/time.h</text>
</a>
</g>
</g>
<!-- Node1&#45;&gt;Node12 -->
<g id="edge11" class="edge">
<title>Node1&#45;&gt;Node12</title>
<path fill="none" stroke="midnightblue" d="M357.34,-169.6C404.89,-161.23 484.62,-147.03 563.09,-132.15"/>
<polygon fill="midnightblue" stroke="midnightblue" points="563.98,-135.54 573.15,-130.23 562.67,-128.66 563.98,-135.54"/>
</g>
<!-- Node4 -->
<g id="node4" class="node">
<title>Node4</title>
<g id="a_node4"><a xlink:href="queue_8hpp.html" target="_top" xlink:title=" ">
<polygon fill="white" stroke="black" points="53,-56.5 53,-75.5 191,-75.5 191,-56.5 53,-56.5"/>
<text text-anchor="middle" x="122" y="-63.5" font-family="Helvetica,sans-Serif" font-size="10.00">utils/threaded/queue.hpp</text>
</a>
</g>
</g>
<!-- Node3&#45;&gt;Node4 -->
<g id="edge3" class="edge">
<title>Node3&#45;&gt;Node4</title>
<path fill="none" stroke="midnightblue" d="M122,-112.08C122,-105.01 122,-94.86 122,-85.99"/>
<polygon fill="midnightblue" stroke="midnightblue" points="125.5,-85.75 122,-75.75 118.5,-85.75 125.5,-85.75"/>
</g>
<!-- Node5 -->
<g id="node5" class="node">
<title>Node5</title>
<g id="a_node5"><a xlink:title=" ">
<polygon fill="white" stroke="#bfbfbf" points="0,-0.5 0,-19.5 80,-19.5 80,-0.5 0,-0.5"/>
<text text-anchor="middle" x="40" y="-7.5" font-family="Helvetica,sans-Serif" font-size="10.00">pico/mutex.h</text>
</a>
</g>
</g>
<!-- Node4&#45;&gt;Node5 -->
<g id="edge4" class="edge">
<title>Node4&#45;&gt;Node5</title>
<path fill="none" stroke="midnightblue" d="M108.83,-56.32C96.15,-47.98 76.77,-35.21 61.79,-25.35"/>
<polygon fill="midnightblue" stroke="midnightblue" points="63.42,-22.23 53.14,-19.65 59.57,-28.08 63.42,-22.23"/>
</g>
<!-- Node6 -->
<g id="node6" class="node">
<title>Node6</title>
<g id="a_node6"><a xlink:title=" ">
<polygon fill="white" stroke="#bfbfbf" points="98.5,-0.5 98.5,-19.5 145.5,-19.5 145.5,-0.5 98.5,-0.5"/>
<text text-anchor="middle" x="122" y="-7.5" font-family="Helvetica,sans-Serif" font-size="10.00">queue</text>
</a>
</g>
</g>
<!-- Node4&#45;&gt;Node6 -->
<g id="edge5" class="edge">
<title>Node4&#45;&gt;Node6</title>
<path fill="none" stroke="midnightblue" d="M122,-56.08C122,-49.01 122,-38.86 122,-29.99"/>
<polygon fill="midnightblue" stroke="midnightblue" points="125.5,-29.75 122,-19.75 118.5,-29.75 125.5,-29.75"/>
</g>
<!-- Node7 -->
<g id="node7" class="node">
<title>Node7</title>
<g id="a_node7"><a xlink:title=" ">
<polygon fill="white" stroke="#bfbfbf" points="164,-0.5 164,-19.5 208,-19.5 208,-0.5 164,-0.5"/>
<text text-anchor="middle" x="186" y="-7.5" font-family="Helvetica,sans-Serif" font-size="10.00">string</text>
</a>
</g>
</g>
<!-- Node4&#45;&gt;Node7 -->
<g id="edge6" class="edge">
<title>Node4&#45;&gt;Node7</title>
<path fill="none" stroke="midnightblue" d="M132.28,-56.32C141.84,-48.26 156.28,-36.08 167.78,-26.37"/>
<polygon fill="midnightblue" stroke="midnightblue" points="170.14,-28.96 175.53,-19.83 165.63,-23.61 170.14,-28.96"/>
</g>
</g>
</svg>
