<?xml version="1.0" encoding="UTF-8" standalone="no"?>
<!DOCTYPE svg PUBLIC "-//W3C//DTD SVG 1.1//EN"
 "http://www.w3.org/Graphics/SVG/1.1/DTD/svg11.dtd">
<!-- Generated by graphviz version 2.43.0 (0)
 -->
<!-- Title: src/server.cpp Pages: 1 -->
<svg width="697pt" height="207pt"
 viewBox="0.00 0.00 696.50 207.00" xmlns="http://www.w3.org/2000/svg" xmlns:xlink="http://www.w3.org/1999/xlink">
<g id="graph0" class="graph" transform="scale(1 1) rotate(0) translate(4 203)">
<title>src/server.cpp</title>
<polygon fill="white" stroke="transparent" points="-4,4 -4,-203 692.5,-203 692.5,4 -4,4"/>
<!-- Node1 -->
<g id="node1" class="node">
<title>Node1</title>
<g id="a_node1"><a xlink:title=" ">
<polygon fill="#bfbfbf" stroke="black" points="327,-179.5 327,-198.5 411,-198.5 411,-179.5 327,-179.5"/>
<text text-anchor="middle" x="369" y="-186.5" font-family="Helvetica,sans-Serif" font-size="10.00">src/server.cpp</text>
</a>
</g>
</g>
<!-- Node2 -->
<g id="node2" class="node">
<title>Node2</title>
<g id="a_node2"><a xlink:href="server_8hpp.html" target="_top" xlink:title=" ">
<polygon fill="white" stroke="black" points="0,-118 0,-137 68,-137 68,-118 0,-118"/>
<text text-anchor="middle" x="34" y="-125" font-family="Helvetica,sans-Serif" font-size="10.00">server.hpp</text>
</a>
</g>
</g>
<!-- Node1&#45;&gt;Node2 -->
<g id="edge1" class="edge">
<title>Node1&#45;&gt;Node2</title>
<path fill="none" stroke="midnightblue" d="M326.65,-183.67C269.62,-177.34 165.23,-163.97 78,-143 74.53,-142.17 70.95,-141.19 67.39,-140.14"/>
<polygon fill="midnightblue" stroke="midnightblue" points="68.13,-136.7 57.54,-137.05 66.04,-143.38 68.13,-136.7"/>
</g>
<!-- Node3 -->
<g id="node3" class="node">
<title>Node3</title>
<g id="a_node3"><a xlink:title=" ">
<polygon fill="white" stroke="#bfbfbf" points="86.5,-118 86.5,-137 187.5,-137 187.5,-118 86.5,-118"/>
<text text-anchor="middle" x="137" y="-125" font-family="Helvetica,sans-Serif" font-size="10.00">lwip/apps/httpd.h</text>
</a>
</g>
</g>
<!-- Node1&#45;&gt;Node3 -->
<g id="edge2" class="edge">
<title>Node1&#45;&gt;Node3</title>
<path fill="none" stroke="midnightblue" d="M335.76,-179.48C294.76,-168.96 224.97,-151.06 179.95,-139.51"/>
<polygon fill="midnightblue" stroke="midnightblue" points="180.73,-136.1 170.18,-137.01 179,-142.88 180.73,-136.1"/>
</g>
<!-- Node4 -->
<g id="node4" class="node">
<title>Node4</title>
<g id="a_node4"><a xlink:title=" ">
<polygon fill="white" stroke="#bfbfbf" points="205.5,-118 205.5,-137 312.5,-137 312.5,-118 205.5,-118"/>
<text text-anchor="middle" x="259" y="-125" font-family="Helvetica,sans-Serif" font-size="10.00">pico/cyw43_arch.h</text>
</a>
</g>
</g>
<!-- Node1&#45;&gt;Node4 -->
<g id="edge3" class="edge">
<title>Node1&#45;&gt;Node4</title>
<path fill="none" stroke="midnightblue" d="M353.24,-179.48C335.02,-169.62 304.83,-153.29 283.53,-141.77"/>
<polygon fill="midnightblue" stroke="midnightblue" points="285.19,-138.69 274.73,-137.01 281.86,-144.85 285.19,-138.69"/>
</g>
<!-- Node5 -->
<g id="node5" class="node">
<title>Node5</title>
<g id="a_node5"><a xlink:title=" ">
<polygon fill="white" stroke="#bfbfbf" points="331,-118 331,-137 407,-137 407,-118 331,-118"/>
<text text-anchor="middle" x="369" y="-125" font-family="Helvetica,sans-Serif" font-size="10.00">pico/stdlib.h</text>
</a>
</g>
</g>
<!-- Node1&#45;&gt;Node5 -->
<g id="edge4" class="edge">
<title>Node1&#45;&gt;Node5</title>
<path fill="none" stroke="midnightblue" d="M369,-179.48C369,-171.08 369,-157.98 369,-147.16"/>
<polygon fill="midnightblue" stroke="midnightblue" points="372.5,-147.01 369,-137.01 365.5,-147.01 372.5,-147.01"/>
</g>
<!-- Node6 -->
<g id="node6" class="node">
<title>Node6</title>
<g id="a_node6"><a xlink:title=" ">
<polygon fill="white" stroke="#bfbfbf" points="425.5,-118 425.5,-137 496.5,-137 496.5,-118 425.5,-118"/>
<text text-anchor="middle" x="461" y="-125" font-family="Helvetica,sans-Serif" font-size="10.00">pico/time.h</text>
</a>
</g>
</g>
<!-- Node1&#45;&gt;Node6 -->
<g id="edge5" class="edge">
<title>Node1&#45;&gt;Node6</title>
<path fill="none" stroke="midnightblue" d="M382.18,-179.48C397.07,-169.84 421.54,-154.02 439.27,-142.55"/>
<polygon fill="midnightblue" stroke="midnightblue" points="441.35,-145.38 447.84,-137.01 437.55,-139.5 441.35,-145.38"/>
</g>
<!-- Node7 -->
<g id="node7" class="node">
<title>Node7</title>
<g id="a_node7"><a xlink:href="shared__queue_8hpp.html" target="_top" xlink:title=" ">
<polygon fill="white" stroke="black" points="514.5,-112.5 514.5,-142.5 631.5,-142.5 631.5,-112.5 514.5,-112.5"/>
<text text-anchor="start" x="522.5" y="-130.5" font-family="Helvetica,sans-Serif" font-size="10.00">RoL/threaded/shared</text>
<text text-anchor="middle" x="573" y="-119.5" font-family="Helvetica,sans-Serif" font-size="10.00">_queue.hpp</text>
</a>
</g>
</g>
<!-- Node1&#45;&gt;Node7 -->
<g id="edge6" class="edge">
<title>Node1&#45;&gt;Node7</title>
<path fill="none" stroke="midnightblue" d="M398.23,-179.48C428.57,-170.63 476.83,-156.55 514.96,-145.43"/>
<polygon fill="midnightblue" stroke="midnightblue" points="516.3,-148.68 524.92,-142.52 514.34,-141.96 516.3,-148.68"/>
</g>
<!-- Node11 -->
<g id="node11" class="node">
<title>Node11</title>
<g id="a_node11"><a xlink:href="ssi_8h.html" target="_top" xlink:title=" ">
<polygon fill="white" stroke="black" points="649.5,-118 649.5,-137 688.5,-137 688.5,-118 649.5,-118"/>
<text text-anchor="middle" x="669" y="-125" font-family="Helvetica,sans-Serif" font-size="10.00">ssi.h</text>
</a>
</g>
</g>
<!-- Node1&#45;&gt;Node11 -->
<g id="edge10" class="edge">
<title>Node1&#45;&gt;Node11</title>
<path fill="none" stroke="midnightblue" d="M411.46,-185.11C465.83,-180.49 562.42,-169.12 641,-143 642.43,-142.53 643.87,-141.99 645.31,-141.4"/>
<polygon fill="midnightblue" stroke="midnightblue" points="646.98,-144.48 654.56,-137.07 644.02,-138.14 646.98,-144.48"/>
</g>
<!-- Node8 -->
<g id="node8" class="node">
<title>Node8</title>
<g id="a_node8"><a xlink:href="queue_8hpp.html" target="_top" xlink:title=" ">
<polygon fill="white" stroke="black" points="505.5,-56.5 505.5,-75.5 640.5,-75.5 640.5,-56.5 505.5,-56.5"/>
<text text-anchor="middle" x="573" y="-63.5" font-family="Helvetica,sans-Serif" font-size="10.00">RoL/threaded/queue.hpp</text>
</a>
</g>
</g>
<!-- Node7&#45;&gt;Node8 -->
<g id="edge7" class="edge">
<title>Node7&#45;&gt;Node8</title>
<path fill="none" stroke="midnightblue" d="M573,-112.4C573,-104.47 573,-94.46 573,-85.86"/>
<polygon fill="midnightblue" stroke="midnightblue" points="576.5,-85.66 573,-75.66 569.5,-85.66 576.5,-85.66"/>
</g>
<!-- Node9 -->
<g id="node9" class="node">
<title>Node9</title>
<g id="a_node9"><a xlink:title=" ">
<polygon fill="white" stroke="#bfbfbf" points="492,-0.5 492,-19.5 572,-19.5 572,-0.5 492,-0.5"/>
<text text-anchor="middle" x="532" y="-7.5" font-family="Helvetica,sans-Serif" font-size="10.00">pico/mutex.h</text>
</a>
</g>
</g>
<!-- Node8&#45;&gt;Node9 -->
<g id="edge8" class="edge">
<title>Node8&#45;&gt;Node9</title>
<path fill="none" stroke="midnightblue" d="M566.23,-56.08C560.44,-48.46 551.94,-37.26 544.86,-27.94"/>
<polygon fill="midnightblue" stroke="midnightblue" points="547.48,-25.6 538.64,-19.75 541.9,-29.83 547.48,-25.6"/>
</g>
<!-- Node10 -->
<g id="node10" class="node">
<title>Node10</title>
<g id="a_node10"><a xlink:title=" ">
<polygon fill="white" stroke="#bfbfbf" points="590.5,-0.5 590.5,-19.5 637.5,-19.5 637.5,-0.5 590.5,-0.5"/>
<text text-anchor="middle" x="614" y="-7.5" font-family="Helvetica,sans-Serif" font-size="10.00">queue</text>
</a>
</g>
</g>
<!-- Node8&#45;&gt;Node10 -->
<g id="edge9" class="edge">
<title>Node8&#45;&gt;Node10</title>
<path fill="none" stroke="midnightblue" d="M579.77,-56.08C585.56,-48.46 594.06,-37.26 601.14,-27.94"/>
<polygon fill="midnightblue" stroke="midnightblue" points="604.1,-29.83 607.36,-19.75 598.52,-25.6 604.1,-29.83"/>
</g>
</g>
</svg>
