<?xml version="1.0" encoding="UTF-8" standalone="no"?>
<!DOCTYPE svg PUBLIC "-//W3C//DTD SVG 1.1//EN"
 "http://www.w3.org/Graphics/SVG/1.1/DTD/svg11.dtd">
<!-- Generated by graphviz version 2.43.0 (0)
 -->
<!-- Title: src/RoL/threaded/shared.hpp Pages: 1 -->
<svg width="469pt" height="151pt"
 viewBox="0.00 0.00 468.50 151.00" xmlns="http://www.w3.org/2000/svg" xmlns:xlink="http://www.w3.org/1999/xlink">
<g id="graph0" class="graph" transform="scale(1 1) rotate(0) translate(4 147)">
<title>src/RoL/threaded/shared.hpp</title>
<polygon fill="white" stroke="transparent" points="-4,4 -4,-147 464.5,-147 464.5,4 -4,4"/>
<!-- Node1 -->
<g id="node1" class="node">
<title>Node1</title>
<g id="a_node1"><a xlink:title=" ">
<polygon fill="#bfbfbf" stroke="black" points="152,-123.5 152,-142.5 307,-142.5 307,-123.5 152,-123.5"/>
<text text-anchor="middle" x="229.5" y="-130.5" font-family="Helvetica,sans-Serif" font-size="10.00">src/RoL/threaded/shared.hpp</text>
</a>
</g>
</g>
<!-- Node2 -->
<g id="node2" class="node">
<title>Node2</title>
<g id="a_node2"><a xlink:href="riscv__online_8cpp.html" target="_top" xlink:title=" ">
<polygon fill="white" stroke="black" points="0,-62 0,-81 113,-81 113,-62 0,-62"/>
<text text-anchor="middle" x="56.5" y="-69" font-family="Helvetica,sans-Serif" font-size="10.00">src/riscv_online.cpp</text>
</a>
</g>
</g>
<!-- Node1&#45;&gt;Node2 -->
<g id="edge1" class="edge">
<title>Node1&#45;&gt;Node2</title>
<path fill="none" stroke="midnightblue" d="M194.85,-120.08C161.22,-108.52 111.02,-91.25 81.24,-81.01"/>
<polygon fill="midnightblue" stroke="midnightblue" points="194.12,-123.53 204.71,-123.48 196.4,-116.91 194.12,-123.53"/>
</g>
<!-- Node3 -->
<g id="node3" class="node">
<title>Node3</title>
<g id="a_node3"><a xlink:href="post_8cpp.html" target="_top" xlink:title=" ">
<polygon fill="white" stroke="black" points="131,-62 131,-81 206,-81 206,-62 131,-62"/>
<text text-anchor="middle" x="168.5" y="-69" font-family="Helvetica,sans-Serif" font-size="10.00">src/post.cpp</text>
</a>
</g>
</g>
<!-- Node1&#45;&gt;Node3 -->
<g id="edge2" class="edge">
<title>Node1&#45;&gt;Node3</title>
<path fill="none" stroke="midnightblue" d="M213.43,-116.32C201.84,-105.02 186.64,-90.19 177.22,-81.01"/>
<polygon fill="midnightblue" stroke="midnightblue" points="211.16,-119 220.76,-123.48 216.05,-113.99 211.16,-119"/>
</g>
<!-- Node4 -->
<g id="node4" class="node">
<title>Node4</title>
<g id="a_node4"><a xlink:href="shared__job_8hpp.html" target="_top" xlink:title=" ">
<polygon fill="white" stroke="black" points="224.5,-56.5 224.5,-86.5 358.5,-86.5 358.5,-56.5 224.5,-56.5"/>
<text text-anchor="start" x="232.5" y="-74.5" font-family="Helvetica,sans-Serif" font-size="10.00">src/RoL/threaded/shared</text>
<text text-anchor="middle" x="291.5" y="-63.5" font-family="Helvetica,sans-Serif" font-size="10.00">_job.hpp</text>
</a>
</g>
</g>
<!-- Node1&#45;&gt;Node4 -->
<g id="edge3" class="edge">
<title>Node1&#45;&gt;Node4</title>
<path fill="none" stroke="midnightblue" d="M245.79,-116.37C255.43,-107.11 267.55,-95.48 276.89,-86.52"/>
<polygon fill="midnightblue" stroke="midnightblue" points="243.17,-114.03 238.38,-123.48 248.02,-119.08 243.17,-114.03"/>
</g>
<!-- Node7 -->
<g id="node7" class="node">
<title>Node7</title>
<g id="a_node7"><a xlink:href="server_8cpp.html" target="_top" xlink:title=" ">
<polygon fill="white" stroke="black" points="376.5,-62 376.5,-81 460.5,-81 460.5,-62 376.5,-62"/>
<text text-anchor="middle" x="418.5" y="-69" font-family="Helvetica,sans-Serif" font-size="10.00">src/server.cpp</text>
</a>
</g>
</g>
<!-- Node1&#45;&gt;Node7 -->
<g id="edge6" class="edge">
<title>Node1&#45;&gt;Node7</title>
<path fill="none" stroke="midnightblue" d="M266.41,-120.38C303.15,-108.82 358.65,-91.34 391.47,-81.01"/>
<polygon fill="midnightblue" stroke="midnightblue" points="265.07,-117.13 256.58,-123.48 267.17,-123.81 265.07,-117.13"/>
</g>
<!-- Node5 -->
<g id="node5" class="node">
<title>Node5</title>
<g id="a_node5"><a xlink:href="emulator_8cpp.html" target="_top" xlink:title=" ">
<polygon fill="white" stroke="black" points="137,-0.5 137,-19.5 308,-19.5 308,-0.5 137,-0.5"/>
<text text-anchor="middle" x="222.5" y="-7.5" font-family="Helvetica,sans-Serif" font-size="10.00">src/RoL/emulation/emulator.cpp</text>
</a>
</g>
</g>
<!-- Node4&#45;&gt;Node5 -->
<g id="edge4" class="edge">
<title>Node4&#45;&gt;Node5</title>
<path fill="none" stroke="midnightblue" d="M267.26,-49.6C255.34,-39.32 241.61,-27.48 232.54,-19.66"/>
<polygon fill="midnightblue" stroke="midnightblue" points="265.29,-52.52 275.15,-56.4 269.86,-47.22 265.29,-52.52"/>
</g>
<!-- Node6 -->
<g id="node6" class="node">
<title>Node6</title>
<g id="a_node6"><a xlink:href="ssi_8cpp.html" target="_top" xlink:title=" ">
<polygon fill="white" stroke="black" points="326.5,-0.5 326.5,-19.5 394.5,-19.5 394.5,-0.5 326.5,-0.5"/>
<text text-anchor="middle" x="360.5" y="-7.5" font-family="Helvetica,sans-Serif" font-size="10.00">src/ssi.cpp</text>
</a>
</g>
</g>
<!-- Node4&#45;&gt;Node6 -->
<g id="edge5" class="edge">
<title>Node4&#45;&gt;Node6</title>
<path fill="none" stroke="midnightblue" d="M315.74,-49.6C327.66,-39.32 341.39,-27.48 350.46,-19.66"/>
<polygon fill="midnightblue" stroke="midnightblue" points="313.14,-47.22 307.85,-56.4 317.71,-52.52 313.14,-47.22"/>
</g>
</g>
</svg>
