<?xml version="1.0" encoding="UTF-8" standalone="no"?>
<!DOCTYPE svg PUBLIC "-//W3C//DTD SVG 1.1//EN"
 "http://www.w3.org/Graphics/SVG/1.1/DTD/svg11.dtd">
<!-- Generated by graphviz version 2.43.0 (0)
 -->
<!-- Title: src/RoL/threaded/shared_queue.hpp Pages: 1 -->
<svg width="224pt" height="95pt"
 viewBox="0.00 0.00 223.50 95.00" xmlns="http://www.w3.org/2000/svg" xmlns:xlink="http://www.w3.org/1999/xlink">
<g id="graph0" class="graph" transform="scale(1 1) rotate(0) translate(4 91)">
<title>src/RoL/threaded/shared_queue.hpp</title>
<polygon fill="white" stroke="transparent" points="-4,4 -4,-91 219.5,-91 219.5,4 -4,4"/>
<!-- Node1 -->
<g id="node1" class="node">
<title>Node1</title>
<g id="a_node1"><a xlink:title=" ">
<polygon fill="#bfbfbf" stroke="black" points="47.5,-56.5 47.5,-86.5 181.5,-86.5 181.5,-56.5 47.5,-56.5"/>
<text text-anchor="start" x="55.5" y="-74.5" font-family="Helvetica,sans-Serif" font-size="10.00">src/RoL/threaded/shared</text>
<text text-anchor="middle" x="114.5" y="-63.5" font-family="Helvetica,sans-Serif" font-size="10.00">_queue.hpp</text>
</a>
</g>
</g>
<!-- Node2 -->
<g id="node2" class="node">
<title>Node2</title>
<g id="a_node2"><a xlink:href="riscv__online_8cpp.html" target="_top" xlink:title=" ">
<polygon fill="white" stroke="black" points="0,-0.5 0,-19.5 113,-19.5 113,-0.5 0,-0.5"/>
<text text-anchor="middle" x="56.5" y="-7.5" font-family="Helvetica,sans-Serif" font-size="10.00">src/riscv_online.cpp</text>
</a>
</g>
</g>
<!-- Node1&#45;&gt;Node2 -->
<g id="edge1" class="edge">
<title>Node1&#45;&gt;Node2</title>
<path fill="none" stroke="midnightblue" d="M93.54,-49C83.66,-38.86 72.42,-27.33 64.94,-19.66"/>
<polygon fill="midnightblue" stroke="midnightblue" points="91.27,-51.68 100.75,-56.4 96.28,-46.8 91.27,-51.68"/>
</g>
<!-- Node3 -->
<g id="node3" class="node">
<title>Node3</title>
<g id="a_node3"><a xlink:href="server_8cpp.html" target="_top" xlink:title=" ">
<polygon fill="white" stroke="black" points="131.5,-0.5 131.5,-19.5 215.5,-19.5 215.5,-0.5 131.5,-0.5"/>
<text text-anchor="middle" x="173.5" y="-7.5" font-family="Helvetica,sans-Serif" font-size="10.00">src/server.cpp</text>
</a>
</g>
</g>
<!-- Node1&#45;&gt;Node3 -->
<g id="edge2" class="edge">
<title>Node1&#45;&gt;Node3</title>
<path fill="none" stroke="midnightblue" d="M135.82,-49C145.87,-38.86 157.31,-27.33 164.91,-19.66"/>
<polygon fill="midnightblue" stroke="midnightblue" points="133.04,-46.83 128.48,-56.4 138.01,-51.76 133.04,-46.83"/>
</g>
</g>
</svg>
