<?xml version="1.0" encoding="UTF-8" standalone="no"?>
<!DOCTYPE svg PUBLIC "-//W3C//DTD SVG 1.1//EN"
 "http://www.w3.org/Graphics/SVG/1.1/DTD/svg11.dtd">
<!-- Generated by graphviz version 2.43.0 (0)
 -->
<!-- Title: src/ssi.cpp Pages: 1 -->
<!--zoomable 192 -->

<svg id="main" version="1.1" xmlns="http://www.w3.org/2000/svg" xmlns:xlink="http://www.w3.org/1999/xlink" xml:space="preserve" onload="init(evt)">
<style type="text/css"><![CDATA[
.node, .edge {opacity: 0.7;}
.node.selected, .edge.selected {opacity: 1;}
.edge:hover path { stroke: red; }
.edge:hover polygon { stroke: red; fill: red; }
]]></style>

<defs>
  <circle id="rim" cx="0" cy="0" r="7"/>
  <circle id="rim2" cx="0" cy="0" r="3.5"/>
  <g id="zoomPlus">
    <use xlink:href="#rim" fill="#404040"><set attributeName="fill" to="#808080" begin="zoomplus.mouseover" end="zoomplus.mouseout"/></use>
    <path d="M-4,0h8M0,-4v8" fill="none" stroke="white" stroke-width="1.5" pointer-events="none"/>
  </g>
  <g id="zoomMin">
    <use xlink:href="#rim" fill="#404040"><set attributeName="fill" to="#808080" begin="zoomminus.mouseover" end="zoomminus.mouseout"/></use>
    <path d="M-4,0h8" fill="none" stroke="white" stroke-width="1.5" pointer-events="none"/>
  </g>
  <g id="arrowUp" transform="translate(30 24)">
    <use xlink:href="#rim"/>
    <path pointer-events="none" fill="none" stroke="white" stroke-width="1.5" d="M0,-3.0v7 M-2.5,-0.5L0,-3.0L2.5,-0.5"/>
  </g>
  <g id="arrowRight" transform="rotate(90) translate(36 -43)">
    <use xlink:href="#rim"/>
    <path pointer-events="none" fill="none" stroke="white" stroke-width="1.5" d="M0,-3.0v7 M-2.5,-0.5L0,-3.0L2.5,-0.5"/>
  </g>
  <g id="arrowDown" transform="rotate(180) translate(-30 -48)">
    <use xlink:href="#rim"/>
    <path pointer-events="none" fill="none" stroke="white" stroke-width="1.5" d="M0,-3.0v7 M-2.5,-0.5L0,-3.0L2.5,-0.5"/>
  </g>
  <g id="arrowLeft" transform="rotate(270) translate(-36 17)">
    <use xlink:href="#rim"/>
    <path pointer-events="none" fill="none" stroke="white" stroke-width="1.5" d="M0,-3.0v7 M-2.5,-0.5L0,-3.0L2.5,-0.5"/>
  </g>
  <g id="resetDef">
    <use xlink:href="#rim2" fill="#404040"><set attributeName="fill" to="#808080" begin="reset.mouseover" end="reset.mouseout"/></use>
  </g>
</defs>
<script type="application/ecmascript">
var viewWidth = 790;
var viewHeight = 192;
var sectionId = 'dynsection-0';
</script>
<script type="application/ecmascript" xlink:href="svg.min.js"/>
<svg id="graph" class="graph">
<g id="viewport">
<title>src/ssi.cpp</title>
<!-- Node1 -->
<g id="Node000001" class="node">
<title>Node1</title>
<g id="a_Node000001"><a xlink:title=" ">
<polygon fill="#999999" stroke="#666666" points="305,-184 237,-184 237,-165 305,-165 305,-184"/>
<text text-anchor="middle" x="271" y="-172" font-family="Helvetica,sans-Serif" font-size="10.00">src/ssi.cpp</text>
</a>
</g>
</g>
<!-- Node2 -->
<g id="Node000002" class="node">
<title>Node2</title>
<g id="a_Node000002"><a xlink:href="ssi_8h.html" target="_top" xlink:title=" ">
<polygon fill="white" stroke="#666666" points="101.5,-129 62.5,-129 62.5,-110 101.5,-110 101.5,-129"/>
<text text-anchor="middle" x="82" y="-117" font-family="Helvetica,sans-Serif" font-size="10.00">ssi.h</text>
</a>
</g>
</g>
<!-- Node1&#45;&gt;Node2 -->
<g id="edge1_Node000001_Node000002" class="edge">
<title>Node1&#45;&gt;Node2</title>
<g id="a_edge1_Node000001_Node000002"><a xlink:title=" ">
<path fill="none" stroke="#63b8ff" d="M239.16,-164.95C208.61,-156.69 160.92,-143.66 111.2,-129.3"/>
<polygon fill="#63b8ff" stroke="#63b8ff" points="112.14,-125.93 101.56,-126.51 110.19,-132.65 112.14,-125.93"/>
</a>
</g>
</g>
<!-- Node3 -->
<g id="Node000003" class="node">
<title>Node3</title>
<g id="a_Node000003"><a xlink:title=" ">
<polygon fill="#e0e0e0" stroke="#999999" points="220.5,-129 119.5,-129 119.5,-110 220.5,-110 220.5,-129"/>
<text text-anchor="middle" x="170" y="-117" font-family="Helvetica,sans-Serif" font-size="10.00">lwip/apps/httpd.h</text>
</a>
</g>
</g>
<!-- Node1&#45;&gt;Node3 -->
<g id="edge2_Node000001_Node000003" class="edge">
<title>Node1&#45;&gt;Node3</title>
<g id="a_edge2_Node000001_Node000003"><a xlink:title=" ">
<path fill="none" stroke="#63b8ff" d="M254.77,-164.98C238.82,-156.61 214.22,-143.7 195.62,-133.95"/>
<polygon fill="#63b8ff" stroke="#63b8ff" points="197,-130.72 186.52,-129.17 193.75,-136.92 197,-130.72"/>
</a>
</g>
</g>
<!-- Node4 -->
<g id="Node000004" class="node">
<title>Node4</title>
<g id="a_Node000004"><a xlink:title=" ">
<polygon fill="#e0e0e0" stroke="#999999" points="303,-129 239,-129 239,-110 303,-110 303,-129"/>
<text text-anchor="middle" x="271" y="-117" font-family="Helvetica,sans-Serif" font-size="10.00">lwip/def.h</text>
</a>
</g>
</g>
<!-- Node1&#45;&gt;Node4 -->
<g id="edge3_Node000001_Node000004" class="edge">
<title>Node1&#45;&gt;Node4</title>
<g id="a_edge3_Node000001_Node000004"><a xlink:title=" ">
<path fill="none" stroke="#63b8ff" d="M271,-164.75C271,-157.8 271,-147.85 271,-139.13"/>
<polygon fill="#63b8ff" stroke="#63b8ff" points="274.5,-139.09 271,-129.09 267.5,-139.09 274.5,-139.09"/>
</a>
</g>
</g>
<!-- Node5 -->
<g id="Node000005" class="node">
<title>Node5</title>
<g id="a_Node000005"><a xlink:href="emulator_8hpp.html" target="_top" xlink:title=" ">
<polygon fill="white" stroke="#666666" points="476.5,-129 321.5,-129 321.5,-110 476.5,-110 476.5,-129"/>
<text text-anchor="middle" x="399" y="-117" font-family="Helvetica,sans-Serif" font-size="10.00">RoL/emulation/emulator.hpp</text>
</a>
</g>
</g>
<!-- Node1&#45;&gt;Node5 -->
<g id="edge4_Node000001_Node000005" class="edge">
<title>Node1&#45;&gt;Node5</title>
<g id="a_edge4_Node000001_Node000005"><a xlink:title=" ">
<path fill="none" stroke="#63b8ff" d="M291.57,-164.98C312.43,-156.34 344.97,-142.87 368.77,-133.02"/>
<polygon fill="#63b8ff" stroke="#63b8ff" points="370.16,-136.23 378.06,-129.17 367.48,-129.76 370.16,-136.23"/>
</a>
</g>
</g>
<!-- Node16 -->
<g id="Node000016" class="node">
<title>Node16</title>
<g id="a_Node000016"><a xlink:href="shared_8hpp.html" target="_top" xlink:title=" ">
<polygon fill="white" stroke="#666666" points="633,-129 495,-129 495,-110 633,-110 633,-129"/>
<text text-anchor="middle" x="564" y="-117" font-family="Helvetica,sans-Serif" font-size="10.00">RoL/threaded/shared.hpp</text>
</a>
</g>
</g>
<!-- Node1&#45;&gt;Node16 -->
<g id="edge17_Node000001_Node000016" class="edge">
<title>Node1&#45;&gt;Node16</title>
<g id="a_edge17_Node000001_Node000016"><a xlink:title=" ">
<path fill="none" stroke="#63b8ff" d="M305.18,-167.32C354.7,-158.36 447,-141.66 506.94,-130.82"/>
<polygon fill="#63b8ff" stroke="#63b8ff" points="507.79,-134.22 517.01,-129 506.54,-127.34 507.79,-134.22"/>
</a>
</g>
</g>
<!-- Node6 -->
<g id="Node000006" class="node">
<title>Node6</title>
<g id="a_Node000006"><a xlink:title=" ">
<polygon fill="#e0e0e0" stroke="#999999" points="44,-19 0,-19 0,0 44,0 44,-19"/>
<text text-anchor="middle" x="22" y="-7" font-family="Helvetica,sans-Serif" font-size="10.00">bitset</text>
</a>
</g>
</g>
<!-- Node5&#45;&gt;Node6 -->
<g id="edge5_Node000005_Node000006" class="edge">
<title>Node5&#45;&gt;Node6</title>
<g id="a_edge5_Node000005_Node000006"><a xlink:title=" ">
<path fill="none" stroke="#63b8ff" d="M369.1,-109.94C299.22,-89.92 125.68,-40.2 53.88,-19.63"/>
<polygon fill="#63b8ff" stroke="#63b8ff" points="54.63,-16.21 44.05,-16.82 52.7,-22.93 54.63,-16.21"/>
</a>
</g>
</g>
<!-- Node7 -->
<g id="Node000007" class="node">
<title>Node7</title>
<g id="a_Node000007"><a xlink:title=" ">
<polygon fill="#e0e0e0" stroke="#999999" points="473,-74 429,-74 429,-55 473,-55 473,-74"/>
<text text-anchor="middle" x="451" y="-62" font-family="Helvetica,sans-Serif" font-size="10.00">string</text>
</a>
</g>
</g>
<!-- Node5&#45;&gt;Node7 -->
<g id="edge6_Node000005_Node000007" class="edge">
<title>Node5&#45;&gt;Node7</title>
<g id="a_edge6_Node000005_Node000007"><a xlink:title=" ">
<path fill="none" stroke="#63b8ff" d="M407.59,-109.75C415.16,-102.03 426.38,-90.6 435.51,-81.28"/>
<polygon fill="#63b8ff" stroke="#63b8ff" points="438.07,-83.68 442.57,-74.09 433.07,-78.78 438.07,-83.68"/>
</a>
</g>
</g>
<!-- Node8 -->
<g id="Node000008" class="node">
<title>Node8</title>
<g id="a_Node000008"><a xlink:title=" ">
<polygon fill="#e0e0e0" stroke="#999999" points="579.5,-19 532.5,-19 532.5,0 579.5,0 579.5,-19"/>
<text text-anchor="middle" x="556" y="-7" font-family="Helvetica,sans-Serif" font-size="10.00">vector</text>
</a>
</g>
</g>
<!-- Node5&#45;&gt;Node8 -->
<g id="edge7_Node000005_Node000008" class="edge">
<title>Node5&#45;&gt;Node8</title>
<g id="a_edge7_Node000005_Node000008"><a xlink:title=" ">
<path fill="none" stroke="#63b8ff" d="M399.46,-109.84C400.64,-96.29 404.87,-70.08 420,-55 427.44,-47.59 484.39,-30.55 522.2,-19.84"/>
<polygon fill="#63b8ff" stroke="#63b8ff" points="523.62,-23.07 532.3,-17 521.72,-16.34 523.62,-23.07"/>
</a>
</g>
</g>
<!-- Node9 -->
<g id="Node000009" class="node">
<title>Node9</title>
<g id="a_Node000009"><a xlink:href="parse_8hpp.html" target="_top" xlink:title=" ">
<polygon fill="white" stroke="#666666" points="373,-74 287,-74 287,-55 373,-55 373,-74"/>
<text text-anchor="middle" x="330" y="-62" font-family="Helvetica,sans-Serif" font-size="10.00">RoL/parse.hpp</text>
</a>
</g>
</g>
<!-- Node5&#45;&gt;Node9 -->
<g id="edge8_Node000005_Node000009" class="edge">
<title>Node5&#45;&gt;Node9</title>
<g id="a_edge8_Node000005_Node000009"><a xlink:title=" ">
<path fill="none" stroke="#63b8ff" d="M387.91,-109.98C377.51,-102 361.74,-89.88 349.28,-80.31"/>
<polygon fill="#63b8ff" stroke="#63b8ff" points="351.35,-77.49 341.29,-74.17 347.09,-83.04 351.35,-77.49"/>
</a>
</g>
</g>
<!-- Node9&#45;&gt;Node6 -->
<g id="edge10_Node000009_Node000006" class="edge">
<title>Node9&#45;&gt;Node6</title>
<g id="a_edge10_Node000009_Node000006"><a xlink:title=" ">
<path fill="none" stroke="#63b8ff" d="M286.55,-58C233.75,-51 141.82,-37.75 54.12,-19.05"/>
<polygon fill="#63b8ff" stroke="#63b8ff" points="54.79,-15.61 44.28,-16.92 53.32,-22.45 54.79,-15.61"/>
</a>
</g>
</g>
<!-- Node9&#45;&gt;Node8 -->
<g id="edge15_Node000009_Node000008" class="edge">
<title>Node9&#45;&gt;Node8</title>
<g id="a_edge15_Node000009_Node000008"><a xlink:title=" ">
<path fill="none" stroke="#63b8ff" d="M368.52,-54.92C405.47,-46.63 463.07,-33.52 522.32,-19.12"/>
<polygon fill="#63b8ff" stroke="#63b8ff" points="523.34,-22.47 532.23,-16.7 521.68,-15.67 523.34,-22.47"/>
</a>
</g>
</g>
<!-- Node10 -->
<g id="Node000010" class="node">
<title>Node10</title>
<g id="a_Node000010"><a xlink:title=" ">
<polygon fill="#e0e0e0" stroke="#999999" points="126,-19 62,-19 62,0 126,0 126,-19"/>
<text text-anchor="middle" x="94" y="-7" font-family="Helvetica,sans-Serif" font-size="10.00">algorithm</text>
</a>
</g>
</g>
<!-- Node9&#45;&gt;Node10 -->
<g id="edge9_Node000009_Node000010" class="edge">
<title>Node9&#45;&gt;Node10</title>
<g id="a_edge9_Node000009_Node000010"><a xlink:title=" ">
<path fill="none" stroke="#63b8ff" d="M292.08,-54.98C249.41,-45.4 180.29,-29.88 136.01,-19.93"/>
<polygon fill="#63b8ff" stroke="#63b8ff" points="136.66,-16.49 126.14,-17.72 135.13,-23.32 136.66,-16.49"/>
</a>
</g>
</g>
<!-- Node11 -->
<g id="Node000011" class="node">
<title>Node11</title>
<g id="a_Node000011"><a xlink:title=" ">
<polygon fill="#e0e0e0" stroke="#999999" points="205.5,-19 144.5,-19 144.5,0 205.5,0 205.5,-19"/>
<text text-anchor="middle" x="175" y="-7" font-family="Helvetica,sans-Serif" font-size="10.00">charconv</text>
</a>
</g>
</g>
<!-- Node9&#45;&gt;Node11 -->
<g id="edge11_Node000009_Node000011" class="edge">
<title>Node9&#45;&gt;Node11</title>
<g id="a_edge11_Node000009_Node000011"><a xlink:title=" ">
<path fill="none" stroke="#63b8ff" d="M305.1,-54.98C279.3,-46.16 238.78,-32.31 209.82,-22.41"/>
<polygon fill="#63b8ff" stroke="#63b8ff" points="210.69,-19.01 200.1,-19.08 208.43,-25.63 210.69,-19.01"/>
</a>
</g>
</g>
<!-- Node12 -->
<g id="Node000012" class="node">
<title>Node12</title>
<g id="a_Node000012"><a xlink:title=" ">
<polygon fill="#e0e0e0" stroke="#999999" points="274,-19 224,-19 224,0 274,0 274,-19"/>
<text text-anchor="middle" x="249" y="-7" font-family="Helvetica,sans-Serif" font-size="10.00">cstdint</text>
</a>
</g>
</g>
<!-- Node9&#45;&gt;Node12 -->
<g id="edge12_Node000009_Node000012" class="edge">
<title>Node9&#45;&gt;Node12</title>
<g id="a_edge12_Node000009_Node000012"><a xlink:title=" ">
<path fill="none" stroke="#63b8ff" d="M316.99,-54.98C304.54,-46.84 285.54,-34.41 270.79,-24.76"/>
<polygon fill="#63b8ff" stroke="#63b8ff" points="272.54,-21.72 262.25,-19.17 268.7,-27.57 272.54,-21.72"/>
</a>
</g>
</g>
<!-- Node13 -->
<g id="Node000013" class="node">
<title>Node13</title>
<g id="a_Node000013"><a xlink:title=" ">
<polygon fill="#e0e0e0" stroke="#999999" points="385.5,-19 292.5,-19 292.5,0 385.5,0 385.5,-19"/>
<text text-anchor="middle" x="339" y="-7" font-family="Helvetica,sans-Serif" font-size="10.00">unordered_map</text>
</a>
</g>
</g>
<!-- Node9&#45;&gt;Node13 -->
<g id="edge13_Node000009_Node000013" class="edge">
<title>Node9&#45;&gt;Node13</title>
<g id="a_edge13_Node000009_Node000013"><a xlink:title=" ">
<path fill="none" stroke="#63b8ff" d="M331.49,-54.75C332.67,-47.8 334.36,-37.85 335.84,-29.13"/>
<polygon fill="#63b8ff" stroke="#63b8ff" points="339.32,-29.53 337.54,-19.09 332.42,-28.36 339.32,-29.53"/>
</a>
</g>
</g>
<!-- Node14 -->
<g id="Node000014" class="node">
<title>Node14</title>
<g id="a_Node000014"><a xlink:title=" ">
<polygon fill="#e0e0e0" stroke="#999999" points="446,-19 404,-19 404,0 446,0 446,-19"/>
<text text-anchor="middle" x="425" y="-7" font-family="Helvetica,sans-Serif" font-size="10.00">array</text>
</a>
</g>
</g>
<!-- Node9&#45;&gt;Node14 -->
<g id="edge14_Node000009_Node000014" class="edge">
<title>Node9&#45;&gt;Node14</title>
<g id="a_edge14_Node000009_Node000014"><a xlink:title=" ">
<path fill="none" stroke="#63b8ff" d="M345.26,-54.98C360.13,-46.69 382.98,-33.94 400.42,-24.22"/>
<polygon fill="#63b8ff" stroke="#63b8ff" points="402.43,-27.1 409.46,-19.17 399.02,-20.99 402.43,-27.1"/>
</a>
</g>
</g>
<!-- Node15 -->
<g id="Node000015" class="node">
<title>Node15</title>
<g id="a_Node000015"><a xlink:title=" ">
<polygon fill="#e0e0e0" stroke="#999999" points="514,-19 464,-19 464,0 514,0 514,-19"/>
<text text-anchor="middle" x="489" y="-7" font-family="Helvetica,sans-Serif" font-size="10.00">ranges</text>
</a>
</g>
</g>
<!-- Node9&#45;&gt;Node15 -->
<g id="edge16_Node000009_Node000015" class="edge">
<title>Node9&#45;&gt;Node15</title>
<g id="a_edge16_Node000009_Node000015"><a xlink:title=" ">
<path fill="none" stroke="#63b8ff" d="M355.55,-54.98C382.28,-46.07 424.43,-32.02 454.2,-22.1"/>
<polygon fill="#63b8ff" stroke="#63b8ff" points="455.4,-25.39 463.78,-18.91 453.19,-18.75 455.4,-25.39"/>
</a>
</g>
</g>
<!-- Node17 -->
<g id="Node000017" class="node">
<title>Node17</title>
<g id="a_Node000017"><a xlink:href="queue_8hpp.html" target="_top" xlink:title=" ">
<polygon fill="white" stroke="#666666" points="781.5,-74 646.5,-74 646.5,-55 781.5,-55 781.5,-74"/>
<text text-anchor="middle" x="714" y="-62" font-family="Helvetica,sans-Serif" font-size="10.00">RoL/threaded/queue.hpp</text>
</a>
</g>
</g>
<!-- Node16&#45;&gt;Node17 -->
<g id="edge18_Node000016_Node000017" class="edge">
<title>Node16&#45;&gt;Node17</title>
<g id="a_edge18_Node000016_Node000017"><a xlink:title=" ">
<path fill="none" stroke="#63b8ff" d="M588.1,-109.98C612.88,-101.23 651.7,-87.51 679.69,-77.62"/>
<polygon fill="#63b8ff" stroke="#63b8ff" points="681.2,-80.8 689.46,-74.17 678.87,-74.2 681.2,-80.8"/>
</a>
</g>
</g>
<!-- Node20 -->
<g id="Node000020" class="node">
<title>Node20</title>
<g id="a_Node000020"><a xlink:href="vector_8hpp.html" target="_top" xlink:title=" ">
<polygon fill="white" stroke="#666666" points="628.5,-74 493.5,-74 493.5,-55 628.5,-55 628.5,-74"/>
<text text-anchor="middle" x="561" y="-62" font-family="Helvetica,sans-Serif" font-size="10.00">RoL/threaded/vector.hpp</text>
</a>
</g>
</g>
<!-- Node16&#45;&gt;Node20 -->
<g id="edge21_Node000016_Node000020" class="edge">
<title>Node16&#45;&gt;Node20</title>
<g id="a_edge21_Node000016_Node000020"><a xlink:title=" ">
<path fill="none" stroke="#63b8ff" d="M563.5,-109.75C563.11,-102.8 562.55,-92.85 562.05,-84.13"/>
<polygon fill="#63b8ff" stroke="#63b8ff" points="565.55,-83.88 561.49,-74.09 558.56,-84.27 565.55,-83.88"/>
</a>
</g>
</g>
<!-- Node18 -->
<g id="Node000018" class="node">
<title>Node18</title>
<g id="a_Node000018"><a xlink:title=" ">
<polygon fill="#e0e0e0" stroke="#999999" points="678,-19 598,-19 598,0 678,0 678,-19"/>
<text text-anchor="middle" x="638" y="-7" font-family="Helvetica,sans-Serif" font-size="10.00">pico/mutex.h</text>
</a>
</g>
</g>
<!-- Node17&#45;&gt;Node18 -->
<g id="edge19_Node000017_Node000018" class="edge">
<title>Node17&#45;&gt;Node18</title>
<g id="a_edge19_Node000017_Node000018"><a xlink:title=" ">
<path fill="none" stroke="#63b8ff" d="M701.79,-54.98C690.22,-46.92 672.62,-34.65 658.84,-25.03"/>
<polygon fill="#63b8ff" stroke="#63b8ff" points="660.64,-22.02 650.43,-19.17 656.63,-27.76 660.64,-22.02"/>
</a>
</g>
</g>
<!-- Node19 -->
<g id="Node000019" class="node">
<title>Node19</title>
<g id="a_Node000019"><a xlink:title=" ">
<polygon fill="#e0e0e0" stroke="#999999" points="743.5,-19 696.5,-19 696.5,0 743.5,0 743.5,-19"/>
<text text-anchor="middle" x="720" y="-7" font-family="Helvetica,sans-Serif" font-size="10.00">queue</text>
</a>
</g>
</g>
<!-- Node17&#45;&gt;Node19 -->
<g id="edge20_Node000017_Node000019" class="edge">
<title>Node17&#45;&gt;Node19</title>
<g id="a_edge20_Node000017_Node000019"><a xlink:title=" ">
<path fill="none" stroke="#63b8ff" d="M714.99,-54.75C715.78,-47.8 716.9,-37.85 717.89,-29.13"/>
<polygon fill="#63b8ff" stroke="#63b8ff" points="721.38,-29.42 719.03,-19.09 714.42,-28.63 721.38,-29.42"/>
</a>
</g>
</g>
<!-- Node20&#45;&gt;Node8 -->
<g id="edge23_Node000020_Node000008" class="edge">
<title>Node20&#45;&gt;Node8</title>
<g id="a_edge23_Node000020_Node000008"><a xlink:title=" ">
<path fill="none" stroke="#63b8ff" d="M560.17,-54.75C559.52,-47.8 558.58,-37.85 557.76,-29.13"/>
<polygon fill="#63b8ff" stroke="#63b8ff" points="561.23,-28.72 556.81,-19.09 554.27,-29.37 561.23,-28.72"/>
</a>
</g>
</g>
<!-- Node20&#45;&gt;Node18 -->
<g id="edge22_Node000020_Node000018" class="edge">
<title>Node20&#45;&gt;Node18</title>
<g id="a_edge22_Node000020_Node000018"><a xlink:title=" ">
<path fill="none" stroke="#63b8ff" d="M573.37,-54.98C585.09,-46.92 602.92,-34.65 616.89,-25.03"/>
<polygon fill="#63b8ff" stroke="#63b8ff" points="619.15,-27.72 625.4,-19.17 615.18,-21.96 619.15,-27.72"/>
</a>
</g>
</g>
</g>
</svg>

<g id="navigator" transform="translate(0 0)" fill="#404254">
  <rect fill="#f2f5e9" fill-opacity="0.5" stroke="#606060" stroke-width=".5" x="0" y="0" width="60" height="60"/>
  <use id="zoomplus" xlink:href="#zoomPlus" x="17" y="9" onmousedown="handleZoom(evt,'in')"/>
  <use id="zoomminus" xlink:href="#zoomMin" x="42" y="9" onmousedown="handleZoom(evt,'out')"/>
  <use id="reset" xlink:href="#resetDef" x="30" y="36" onmousedown="handleReset()"/>
   <use id="arrowup" xlink:href="#arrowUp" x="0" y="0" onmousedown="handlePan(0,-1)"/>
  <use id="arrowright" xlink:href="#arrowRight" x="0" y="0" onmousedown="handlePan(1,0)"/>
  <use id="arrowdown" xlink:href="#arrowDown" x="0" y="0" onmousedown="handlePan(0,1)"/>
  <use id="arrowleft" xlink:href="#arrowLeft" x="0" y="0" onmousedown="handlePan(-1,0)"/>
</g>
<svg viewBox="0 0 15 15" width="100%" height="30px" preserveAspectRatio="xMaxYMin meet">
 <g id="arrow_out" transform="scale(0.3 0.3)">
  <a xlink:href="ssi_8cpp__incl_org.svg" target="_base">
   <rect id="button" ry="5" rx="5" y="6" x="6" height="38" width="38"
        fill="#f2f5e9" fill-opacity="0.5" stroke="#606060" stroke-width="1.0"/>
   <path id="arrow"
     d="M 11.500037,31.436501 C 11.940474,20.09759 22.043105,11.32322 32.158766,21.979434 L 37.068811,17.246167 C 37.068811,17.246167 37.088388,32 37.088388,32 L 22.160133,31.978069 C 22.160133,31.978069 26.997745,27.140456 26.997745,27.140456 C 18.528582,18.264221 13.291696,25.230495 11.500037,31.436501 z"
     style="fill:#404040;"/>
  </a>
 </g>
</svg>

<style type='text/css'>
<![CDATA[
[data-mouse-over-selected='false'] { opacity: 0.7; }
[data-mouse-over-selected='true']  { opacity: 1.0; }
]]>
</style>
<script type="application/ecmascript"><![CDATA[
document.addEventListener('DOMContentLoaded', (event) => {
  highlightEdges();
  highlightAdjacentNodes();
});
]]></script>
</svg>
