<?xml version="1.0" encoding="UTF-8" standalone="no"?>
<!DOCTYPE svg PUBLIC "-//W3C//DTD SVG 1.1//EN"
 "http://www.w3.org/Graphics/SVG/1.1/DTD/svg11.dtd">
<!-- Generated by graphviz version 2.43.0 (0)
 -->
<!-- Title: src/ssi.cpp Pages: 1 -->
<svg width="790pt" height="196pt"
 viewBox="0.00 0.00 789.50 196.00" xmlns="http://www.w3.org/2000/svg" xmlns:xlink="http://www.w3.org/1999/xlink">
<g id="graph0" class="graph" transform="scale(1 1) rotate(0) translate(4 192)">
<title>src/ssi.cpp</title>
<polygon fill="white" stroke="transparent" points="-4,4 -4,-192 785.5,-192 785.5,4 -4,4"/>
<!-- Node1 -->
<g id="node1" class="node">
<title>Node1</title>
<g id="a_node1"><a xlink:title=" ">
<polygon fill="#bfbfbf" stroke="black" points="237,-168.5 237,-187.5 305,-187.5 305,-168.5 237,-168.5"/>
<text text-anchor="middle" x="271" y="-175.5" font-family="Helvetica,sans-Serif" font-size="10.00">src/ssi.cpp</text>
</a>
</g>
</g>
<!-- Node2 -->
<g id="node2" class="node">
<title>Node2</title>
<g id="a_node2"><a xlink:href="ssi_8h.html" target="_top" xlink:title=" ">
<polygon fill="white" stroke="black" points="62.5,-112.5 62.5,-131.5 101.5,-131.5 101.5,-112.5 62.5,-112.5"/>
<text text-anchor="middle" x="82" y="-119.5" font-family="Helvetica,sans-Serif" font-size="10.00">ssi.h</text>
</a>
</g>
</g>
<!-- Node1&#45;&gt;Node2 -->
<g id="edge1" class="edge">
<title>Node1&#45;&gt;Node2</title>
<path fill="none" stroke="midnightblue" d="M239.13,-168.48C208.54,-160.22 160.83,-147.11 111.17,-132.28"/>
<polygon fill="midnightblue" stroke="midnightblue" points="112.14,-128.91 101.55,-129.39 110.12,-135.62 112.14,-128.91"/>
</g>
<!-- Node3 -->
<g id="node3" class="node">
<title>Node3</title>
<g id="a_node3"><a xlink:title=" ">
<polygon fill="white" stroke="#bfbfbf" points="119.5,-112.5 119.5,-131.5 220.5,-131.5 220.5,-112.5 119.5,-112.5"/>
<text text-anchor="middle" x="170" y="-119.5" font-family="Helvetica,sans-Serif" font-size="10.00">lwip/apps/httpd.h</text>
</a>
</g>
</g>
<!-- Node1&#45;&gt;Node3 -->
<g id="edge2" class="edge">
<title>Node1&#45;&gt;Node3</title>
<path fill="none" stroke="midnightblue" d="M254.77,-168.32C238.65,-159.7 213.7,-146.36 195.04,-136.39"/>
<polygon fill="midnightblue" stroke="midnightblue" points="196.66,-133.28 186.19,-131.65 193.36,-139.46 196.66,-133.28"/>
</g>
<!-- Node4 -->
<g id="node4" class="node">
<title>Node4</title>
<g id="a_node4"><a xlink:title=" ">
<polygon fill="white" stroke="#bfbfbf" points="239,-112.5 239,-131.5 303,-131.5 303,-112.5 239,-112.5"/>
<text text-anchor="middle" x="271" y="-119.5" font-family="Helvetica,sans-Serif" font-size="10.00">lwip/def.h</text>
</a>
</g>
</g>
<!-- Node1&#45;&gt;Node4 -->
<g id="edge3" class="edge">
<title>Node1&#45;&gt;Node4</title>
<path fill="none" stroke="midnightblue" d="M271,-168.08C271,-161.01 271,-150.86 271,-141.99"/>
<polygon fill="midnightblue" stroke="midnightblue" points="274.5,-141.75 271,-131.75 267.5,-141.75 274.5,-141.75"/>
</g>
<!-- Node5 -->
<g id="node5" class="node">
<title>Node5</title>
<g id="a_node5"><a xlink:href="emulator_8hpp.html" target="_top" xlink:title=" ">
<polygon fill="white" stroke="black" points="321.5,-112.5 321.5,-131.5 476.5,-131.5 476.5,-112.5 321.5,-112.5"/>
<text text-anchor="middle" x="399" y="-119.5" font-family="Helvetica,sans-Serif" font-size="10.00">RoL/emulation/emulator.hpp</text>
</a>
</g>
</g>
<!-- Node1&#45;&gt;Node5 -->
<g id="edge4" class="edge">
<title>Node1&#45;&gt;Node5</title>
<path fill="none" stroke="midnightblue" d="M291.28,-168.44C312.35,-159.56 345.52,-145.56 369.49,-135.45"/>
<polygon fill="midnightblue" stroke="midnightblue" points="370.96,-138.63 378.81,-131.52 368.24,-132.18 370.96,-138.63"/>
</g>
<!-- Node16 -->
<g id="node16" class="node">
<title>Node16</title>
<g id="a_node16"><a xlink:href="shared_8hpp.html" target="_top" xlink:title=" ">
<polygon fill="white" stroke="black" points="495,-112.5 495,-131.5 633,-131.5 633,-112.5 495,-112.5"/>
<text text-anchor="middle" x="564" y="-119.5" font-family="Helvetica,sans-Serif" font-size="10.00">RoL/threaded/shared.hpp</text>
</a>
</g>
</g>
<!-- Node1&#45;&gt;Node16 -->
<g id="edge17" class="edge">
<title>Node1&#45;&gt;Node16</title>
<path fill="none" stroke="midnightblue" d="M305.18,-170.7C354.92,-161.53 447.8,-144.42 507.72,-133.37"/>
<polygon fill="midnightblue" stroke="midnightblue" points="508.57,-136.77 517.77,-131.52 507.3,-129.89 508.57,-136.77"/>
</g>
<!-- Node6 -->
<g id="node6" class="node">
<title>Node6</title>
<g id="a_node6"><a xlink:title=" ">
<polygon fill="white" stroke="#bfbfbf" points="0,-0.5 0,-19.5 44,-19.5 44,-0.5 0,-0.5"/>
<text text-anchor="middle" x="22" y="-7.5" font-family="Helvetica,sans-Serif" font-size="10.00">bitset</text>
</a>
</g>
</g>
<!-- Node5&#45;&gt;Node6 -->
<g id="edge5" class="edge">
<title>Node5&#45;&gt;Node6</title>
<path fill="none" stroke="midnightblue" d="M369.73,-112.46C300.31,-92.2 126.12,-41.38 54.02,-20.34"/>
<polygon fill="midnightblue" stroke="midnightblue" points="54.73,-16.9 44.15,-17.46 52.77,-23.62 54.73,-16.9"/>
</g>
<!-- Node7 -->
<g id="node7" class="node">
<title>Node7</title>
<g id="a_node7"><a xlink:title=" ">
<polygon fill="white" stroke="#bfbfbf" points="429,-56.5 429,-75.5 473,-75.5 473,-56.5 429,-56.5"/>
<text text-anchor="middle" x="451" y="-63.5" font-family="Helvetica,sans-Serif" font-size="10.00">string</text>
</a>
</g>
</g>
<!-- Node5&#45;&gt;Node7 -->
<g id="edge6" class="edge">
<title>Node5&#45;&gt;Node7</title>
<path fill="none" stroke="midnightblue" d="M407.59,-112.08C415.16,-104.22 426.38,-92.57 435.51,-83.08"/>
<polygon fill="midnightblue" stroke="midnightblue" points="438.16,-85.38 442.57,-75.75 433.12,-80.53 438.16,-85.38"/>
</g>
<!-- Node8 -->
<g id="node8" class="node">
<title>Node8</title>
<g id="a_node8"><a xlink:title=" ">
<polygon fill="white" stroke="#bfbfbf" points="532.5,-0.5 532.5,-19.5 579.5,-19.5 579.5,-0.5 532.5,-0.5"/>
<text text-anchor="middle" x="556" y="-7.5" font-family="Helvetica,sans-Serif" font-size="10.00">vector</text>
</a>
</g>
</g>
<!-- Node5&#45;&gt;Node8 -->
<g id="edge7" class="edge">
<title>Node5&#45;&gt;Node8</title>
<path fill="none" stroke="midnightblue" d="M399.4,-112.14C400.5,-98.29 404.62,-71.48 420,-56 427.41,-48.54 484.37,-31.3 522.19,-20.46"/>
<polygon fill="midnightblue" stroke="midnightblue" points="523.63,-23.68 532.29,-17.58 521.71,-16.95 523.63,-23.68"/>
</g>
<!-- Node9 -->
<g id="node9" class="node">
<title>Node9</title>
<g id="a_node9"><a xlink:href="parse_8hpp.html" target="_top" xlink:title=" ">
<polygon fill="white" stroke="black" points="287,-56.5 287,-75.5 373,-75.5 373,-56.5 287,-56.5"/>
<text text-anchor="middle" x="330" y="-63.5" font-family="Helvetica,sans-Serif" font-size="10.00">RoL/parse.hpp</text>
</a>
</g>
</g>
<!-- Node5&#45;&gt;Node9 -->
<g id="edge8" class="edge">
<title>Node5&#45;&gt;Node9</title>
<path fill="none" stroke="midnightblue" d="M387.91,-112.32C377.51,-104.18 361.74,-91.84 349.28,-82.09"/>
<polygon fill="midnightblue" stroke="midnightblue" points="351.32,-79.24 341.29,-75.83 347.01,-84.75 351.32,-79.24"/>
</g>
<!-- Node9&#45;&gt;Node6 -->
<g id="edge10" class="edge">
<title>Node9&#45;&gt;Node6</title>
<path fill="none" stroke="midnightblue" d="M286.98,-59.66C234.23,-52.75 141.96,-39.49 54.12,-20.03"/>
<polygon fill="midnightblue" stroke="midnightblue" points="54.79,-16.59 44.27,-17.82 53.26,-23.42 54.79,-16.59"/>
</g>
<!-- Node9&#45;&gt;Node8 -->
<g id="edge15" class="edge">
<title>Node9&#45;&gt;Node8</title>
<path fill="none" stroke="midnightblue" d="M368.55,-56.45C405.52,-48.16 463.15,-34.98 522.34,-20.1"/>
<polygon fill="midnightblue" stroke="midnightblue" points="523.4,-23.44 532.23,-17.59 521.68,-16.65 523.4,-23.44"/>
</g>
<!-- Node10 -->
<g id="node10" class="node">
<title>Node10</title>
<g id="a_node10"><a xlink:title=" ">
<polygon fill="white" stroke="#bfbfbf" points="62,-0.5 62,-19.5 126,-19.5 126,-0.5 62,-0.5"/>
<text text-anchor="middle" x="94" y="-7.5" font-family="Helvetica,sans-Serif" font-size="10.00">algorithm</text>
</a>
</g>
</g>
<!-- Node9&#45;&gt;Node10 -->
<g id="edge9" class="edge">
<title>Node9&#45;&gt;Node10</title>
<path fill="none" stroke="midnightblue" d="M292.61,-56.44C250.04,-46.7 180.67,-30.83 136.2,-20.66"/>
<polygon fill="midnightblue" stroke="midnightblue" points="136.82,-17.21 126.29,-18.39 135.26,-24.03 136.82,-17.21"/>
</g>
<!-- Node11 -->
<g id="node11" class="node">
<title>Node11</title>
<g id="a_node11"><a xlink:title=" ">
<polygon fill="white" stroke="#bfbfbf" points="144.5,-0.5 144.5,-19.5 205.5,-19.5 205.5,-0.5 144.5,-0.5"/>
<text text-anchor="middle" x="175" y="-7.5" font-family="Helvetica,sans-Serif" font-size="10.00">charconv</text>
</a>
</g>
</g>
<!-- Node9&#45;&gt;Node11 -->
<g id="edge11" class="edge">
<title>Node9&#45;&gt;Node11</title>
<path fill="none" stroke="midnightblue" d="M305.44,-56.44C279.48,-47.4 238.33,-33.06 209.2,-22.92"/>
<polygon fill="midnightblue" stroke="midnightblue" points="210.04,-19.5 199.45,-19.52 207.74,-26.11 210.04,-19.5"/>
</g>
<!-- Node12 -->
<g id="node12" class="node">
<title>Node12</title>
<g id="a_node12"><a xlink:title=" ">
<polygon fill="white" stroke="#bfbfbf" points="224,-0.5 224,-19.5 274,-19.5 274,-0.5 224,-0.5"/>
<text text-anchor="middle" x="249" y="-7.5" font-family="Helvetica,sans-Serif" font-size="10.00">cstdint</text>
</a>
</g>
</g>
<!-- Node9&#45;&gt;Node12 -->
<g id="edge12" class="edge">
<title>Node9&#45;&gt;Node12</title>
<path fill="none" stroke="midnightblue" d="M316.99,-56.32C304.47,-47.98 285.32,-35.21 270.53,-25.35"/>
<polygon fill="midnightblue" stroke="midnightblue" points="272.24,-22.29 261.98,-19.65 268.36,-28.11 272.24,-22.29"/>
</g>
<!-- Node13 -->
<g id="node13" class="node">
<title>Node13</title>
<g id="a_node13"><a xlink:title=" ">
<polygon fill="white" stroke="#bfbfbf" points="292.5,-0.5 292.5,-19.5 385.5,-19.5 385.5,-0.5 292.5,-0.5"/>
<text text-anchor="middle" x="339" y="-7.5" font-family="Helvetica,sans-Serif" font-size="10.00">unordered_map</text>
</a>
</g>
</g>
<!-- Node9&#45;&gt;Node13 -->
<g id="edge13" class="edge">
<title>Node9&#45;&gt;Node13</title>
<path fill="none" stroke="midnightblue" d="M331.49,-56.08C332.68,-48.93 334.39,-38.64 335.88,-29.69"/>
<polygon fill="midnightblue" stroke="midnightblue" points="339.35,-30.19 337.54,-19.75 332.45,-29.04 339.35,-30.19"/>
</g>
<!-- Node14 -->
<g id="node14" class="node">
<title>Node14</title>
<g id="a_node14"><a xlink:title=" ">
<polygon fill="white" stroke="#bfbfbf" points="404,-0.5 404,-19.5 446,-19.5 446,-0.5 404,-0.5"/>
<text text-anchor="middle" x="425" y="-7.5" font-family="Helvetica,sans-Serif" font-size="10.00">array</text>
</a>
</g>
</g>
<!-- Node9&#45;&gt;Node14 -->
<g id="edge14" class="edge">
<title>Node9&#45;&gt;Node14</title>
<path fill="none" stroke="midnightblue" d="M345.26,-56.32C360.22,-47.82 383.25,-34.73 400.73,-24.8"/>
<polygon fill="midnightblue" stroke="midnightblue" points="402.81,-27.64 409.77,-19.65 399.35,-21.55 402.81,-27.64"/>
</g>
<!-- Node15 -->
<g id="node15" class="node">
<title>Node15</title>
<g id="a_node15"><a xlink:title=" ">
<polygon fill="white" stroke="#bfbfbf" points="464,-0.5 464,-19.5 514,-19.5 514,-0.5 464,-0.5"/>
<text text-anchor="middle" x="489" y="-7.5" font-family="Helvetica,sans-Serif" font-size="10.00">ranges</text>
</a>
</g>
</g>
<!-- Node9&#45;&gt;Node15 -->
<g id="edge16" class="edge">
<title>Node9&#45;&gt;Node15</title>
<path fill="none" stroke="midnightblue" d="M355.19,-56.44C381.94,-47.36 424.4,-32.94 454.31,-22.78"/>
<polygon fill="midnightblue" stroke="midnightblue" points="455.58,-26.05 463.92,-19.52 453.33,-19.42 455.58,-26.05"/>
</g>
<!-- Node17 -->
<g id="node17" class="node">
<title>Node17</title>
<g id="a_node17"><a xlink:href="queue_8hpp.html" target="_top" xlink:title=" ">
<polygon fill="white" stroke="black" points="646.5,-56.5 646.5,-75.5 781.5,-75.5 781.5,-56.5 646.5,-56.5"/>
<text text-anchor="middle" x="714" y="-63.5" font-family="Helvetica,sans-Serif" font-size="10.00">RoL/threaded/queue.hpp</text>
</a>
</g>
</g>
<!-- Node16&#45;&gt;Node17 -->
<g id="edge18" class="edge">
<title>Node16&#45;&gt;Node17</title>
<path fill="none" stroke="midnightblue" d="M587.77,-112.44C612.89,-103.4 652.71,-89.06 680.9,-78.92"/>
<polygon fill="midnightblue" stroke="midnightblue" points="682.12,-82.2 690.34,-75.52 679.75,-75.61 682.12,-82.2"/>
</g>
<!-- Node20 -->
<g id="node20" class="node">
<title>Node20</title>
<g id="a_node20"><a xlink:href="vector_8hpp.html" target="_top" xlink:title=" ">
<polygon fill="white" stroke="black" points="493.5,-56.5 493.5,-75.5 628.5,-75.5 628.5,-56.5 493.5,-56.5"/>
<text text-anchor="middle" x="561" y="-63.5" font-family="Helvetica,sans-Serif" font-size="10.00">RoL/threaded/vector.hpp</text>
</a>
</g>
</g>
<!-- Node16&#45;&gt;Node20 -->
<g id="edge21" class="edge">
<title>Node16&#45;&gt;Node20</title>
<path fill="none" stroke="midnightblue" d="M563.5,-112.08C563.11,-105.01 562.55,-94.86 562.05,-85.99"/>
<polygon fill="midnightblue" stroke="midnightblue" points="565.54,-85.54 561.49,-75.75 558.55,-85.93 565.54,-85.54"/>
</g>
<!-- Node18 -->
<g id="node18" class="node">
<title>Node18</title>
<g id="a_node18"><a xlink:title=" ">
<polygon fill="white" stroke="#bfbfbf" points="598,-0.5 598,-19.5 678,-19.5 678,-0.5 598,-0.5"/>
<text text-anchor="middle" x="638" y="-7.5" font-family="Helvetica,sans-Serif" font-size="10.00">pico/mutex.h</text>
</a>
</g>
</g>
<!-- Node17&#45;&gt;Node18 -->
<g id="edge19" class="edge">
<title>Node17&#45;&gt;Node18</title>
<path fill="none" stroke="midnightblue" d="M701.79,-56.32C690.22,-48.11 672.62,-35.6 658.84,-25.81"/>
<polygon fill="midnightblue" stroke="midnightblue" points="660.61,-22.77 650.43,-19.83 656.56,-28.48 660.61,-22.77"/>
</g>
<!-- Node19 -->
<g id="node19" class="node">
<title>Node19</title>
<g id="a_node19"><a xlink:title=" ">
<polygon fill="white" stroke="#bfbfbf" points="696.5,-0.5 696.5,-19.5 743.5,-19.5 743.5,-0.5 696.5,-0.5"/>
<text text-anchor="middle" x="720" y="-7.5" font-family="Helvetica,sans-Serif" font-size="10.00">queue</text>
</a>
</g>
</g>
<!-- Node17&#45;&gt;Node19 -->
<g id="edge20" class="edge">
<title>Node17&#45;&gt;Node19</title>
<path fill="none" stroke="midnightblue" d="M714.99,-56.08C715.79,-48.93 716.93,-38.64 717.92,-29.69"/>
<polygon fill="midnightblue" stroke="midnightblue" points="721.4,-30.08 719.03,-19.75 714.44,-29.3 721.4,-30.08"/>
</g>
<!-- Node20&#45;&gt;Node8 -->
<g id="edge23" class="edge">
<title>Node20&#45;&gt;Node8</title>
<path fill="none" stroke="midnightblue" d="M560.17,-56.08C559.52,-49.01 558.58,-38.86 557.76,-29.99"/>
<polygon fill="midnightblue" stroke="midnightblue" points="561.22,-29.39 556.81,-19.75 554.25,-30.03 561.22,-29.39"/>
</g>
<!-- Node20&#45;&gt;Node18 -->
<g id="edge22" class="edge">
<title>Node20&#45;&gt;Node18</title>
<path fill="none" stroke="midnightblue" d="M573.37,-56.32C585.16,-48.06 603.13,-35.45 617.14,-25.63"/>
<polygon fill="midnightblue" stroke="midnightblue" points="619.48,-28.26 625.66,-19.65 615.46,-22.53 619.48,-28.26"/>
</g>
</g>
</svg>
