<?xml version="1.0" encoding="UTF-8" standalone="no"?>
<!DOCTYPE svg PUBLIC "-//W3C//DTD SVG 1.1//EN"
 "http://www.w3.org/Graphics/SVG/1.1/DTD/svg11.dtd">
<!-- Generated by graphviz version 2.43.0 (0)
 -->
<!-- Title: src/ssi.cpp Pages: 1 -->
<svg width="727pt" height="196pt"
 viewBox="0.00 0.00 727.00 196.00" xmlns="http://www.w3.org/2000/svg" xmlns:xlink="http://www.w3.org/1999/xlink">
<g id="graph0" class="graph" transform="scale(1 1) rotate(0) translate(4 192)">
<title>src/ssi.cpp</title>
<polygon fill="white" stroke="transparent" points="-4,4 -4,-192 723,-192 723,4 -4,4"/>
<!-- Node1 -->
<g id="node1" class="node">
<title>Node1</title>
<g id="a_node1"><a xlink:title=" ">
<polygon fill="#bfbfbf" stroke="black" points="174.5,-168.5 174.5,-187.5 242.5,-187.5 242.5,-168.5 174.5,-168.5"/>
<text text-anchor="middle" x="208.5" y="-175.5" font-family="Helvetica,sans-Serif" font-size="10.00">src/ssi.cpp</text>
</a>
</g>
</g>
<!-- Node2 -->
<g id="node2" class="node">
<title>Node2</title>
<g id="a_node2"><a xlink:href="ssi_8h.html" target="_top" xlink:title=" ">
<polygon fill="white" stroke="black" points="0,-112.5 0,-131.5 39,-131.5 39,-112.5 0,-112.5"/>
<text text-anchor="middle" x="19.5" y="-119.5" font-family="Helvetica,sans-Serif" font-size="10.00">ssi.h</text>
</a>
</g>
</g>
<!-- Node1&#45;&gt;Node2 -->
<g id="edge1" class="edge">
<title>Node1&#45;&gt;Node2</title>
<path fill="none" stroke="midnightblue" d="M176.63,-168.48C146.04,-160.22 98.33,-147.11 48.67,-132.28"/>
<polygon fill="midnightblue" stroke="midnightblue" points="49.64,-128.91 39.05,-129.39 47.62,-135.62 49.64,-128.91"/>
</g>
<!-- Node3 -->
<g id="node3" class="node">
<title>Node3</title>
<g id="a_node3"><a xlink:title=" ">
<polygon fill="white" stroke="#bfbfbf" points="57,-112.5 57,-131.5 158,-131.5 158,-112.5 57,-112.5"/>
<text text-anchor="middle" x="107.5" y="-119.5" font-family="Helvetica,sans-Serif" font-size="10.00">lwip/apps/httpd.h</text>
</a>
</g>
</g>
<!-- Node1&#45;&gt;Node3 -->
<g id="edge2" class="edge">
<title>Node1&#45;&gt;Node3</title>
<path fill="none" stroke="midnightblue" d="M192.27,-168.32C176.15,-159.7 151.2,-146.36 132.54,-136.39"/>
<polygon fill="midnightblue" stroke="midnightblue" points="134.16,-133.28 123.69,-131.65 130.86,-139.46 134.16,-133.28"/>
</g>
<!-- Node4 -->
<g id="node4" class="node">
<title>Node4</title>
<g id="a_node4"><a xlink:title=" ">
<polygon fill="white" stroke="#bfbfbf" points="176.5,-112.5 176.5,-131.5 240.5,-131.5 240.5,-112.5 176.5,-112.5"/>
<text text-anchor="middle" x="208.5" y="-119.5" font-family="Helvetica,sans-Serif" font-size="10.00">lwip/def.h</text>
</a>
</g>
</g>
<!-- Node1&#45;&gt;Node4 -->
<g id="edge3" class="edge">
<title>Node1&#45;&gt;Node4</title>
<path fill="none" stroke="midnightblue" d="M208.5,-168.08C208.5,-161.01 208.5,-150.86 208.5,-141.99"/>
<polygon fill="midnightblue" stroke="midnightblue" points="212,-141.75 208.5,-131.75 205,-141.75 212,-141.75"/>
</g>
<!-- Node5 -->
<g id="node5" class="node">
<title>Node5</title>
<g id="a_node5"><a xlink:href="emulator_8hpp.html" target="_top" xlink:title=" ">
<polygon fill="white" stroke="black" points="259,-112.5 259,-131.5 414,-131.5 414,-112.5 259,-112.5"/>
<text text-anchor="middle" x="336.5" y="-119.5" font-family="Helvetica,sans-Serif" font-size="10.00">RoL/emulation/emulator.hpp</text>
</a>
</g>
</g>
<!-- Node1&#45;&gt;Node5 -->
<g id="edge4" class="edge">
<title>Node1&#45;&gt;Node5</title>
<path fill="none" stroke="midnightblue" d="M228.78,-168.44C249.85,-159.56 283.02,-145.56 306.99,-135.45"/>
<polygon fill="midnightblue" stroke="midnightblue" points="308.46,-138.63 316.31,-131.52 305.74,-132.18 308.46,-138.63"/>
</g>
<!-- Node13 -->
<g id="node13" class="node">
<title>Node13</title>
<g id="a_node13"><a xlink:href="shared_8hpp.html" target="_top" xlink:title=" ">
<polygon fill="white" stroke="black" points="432.5,-112.5 432.5,-131.5 570.5,-131.5 570.5,-112.5 432.5,-112.5"/>
<text text-anchor="middle" x="501.5" y="-119.5" font-family="Helvetica,sans-Serif" font-size="10.00">RoL/threaded/shared.hpp</text>
</a>
</g>
</g>
<!-- Node1&#45;&gt;Node13 -->
<g id="edge14" class="edge">
<title>Node1&#45;&gt;Node13</title>
<path fill="none" stroke="midnightblue" d="M242.68,-170.7C292.42,-161.53 385.3,-144.42 445.22,-133.37"/>
<polygon fill="midnightblue" stroke="midnightblue" points="446.07,-136.77 455.27,-131.52 444.8,-129.89 446.07,-136.77"/>
</g>
<!-- Node6 -->
<g id="node6" class="node">
<title>Node6</title>
<g id="a_node6"><a xlink:title=" ">
<polygon fill="white" stroke="#bfbfbf" points="97.5,-0.5 97.5,-19.5 141.5,-19.5 141.5,-0.5 97.5,-0.5"/>
<text text-anchor="middle" x="119.5" y="-7.5" font-family="Helvetica,sans-Serif" font-size="10.00">bitset</text>
</a>
</g>
</g>
<!-- Node5&#45;&gt;Node6 -->
<g id="edge5" class="edge">
<title>Node5&#45;&gt;Node6</title>
<path fill="none" stroke="midnightblue" d="M308.82,-112.49C284.21,-104.48 247.57,-91.41 217.5,-76 188.8,-61.29 158.2,-39.98 138.98,-25.82"/>
<polygon fill="midnightblue" stroke="midnightblue" points="140.86,-22.86 130.75,-19.69 136.67,-28.47 140.86,-22.86"/>
</g>
<!-- Node7 -->
<g id="node7" class="node">
<title>Node7</title>
<g id="a_node7"><a xlink:title=" ">
<polygon fill="white" stroke="#bfbfbf" points="368.5,-56.5 368.5,-75.5 412.5,-75.5 412.5,-56.5 368.5,-56.5"/>
<text text-anchor="middle" x="390.5" y="-63.5" font-family="Helvetica,sans-Serif" font-size="10.00">string</text>
</a>
</g>
</g>
<!-- Node5&#45;&gt;Node7 -->
<g id="edge6" class="edge">
<title>Node5&#45;&gt;Node7</title>
<path fill="none" stroke="midnightblue" d="M345.42,-112.08C353.28,-104.22 364.93,-92.57 374.42,-83.08"/>
<polygon fill="midnightblue" stroke="midnightblue" points="377.15,-85.3 381.75,-75.75 372.2,-80.35 377.15,-85.3"/>
</g>
<!-- Node8 -->
<g id="node8" class="node">
<title>Node8</title>
<g id="a_node8"><a xlink:title=" ">
<polygon fill="white" stroke="#bfbfbf" points="419,-0.5 419,-19.5 466,-19.5 466,-0.5 419,-0.5"/>
<text text-anchor="middle" x="442.5" y="-7.5" font-family="Helvetica,sans-Serif" font-size="10.00">vector</text>
</a>
</g>
</g>
<!-- Node5&#45;&gt;Node8 -->
<g id="edge7" class="edge">
<title>Node5&#45;&gt;Node8</title>
<path fill="none" stroke="midnightblue" d="M337.54,-112.44C339.57,-99 345.19,-72.75 359.5,-56 372.58,-40.69 392.23,-29.71 409.13,-22.43"/>
<polygon fill="midnightblue" stroke="midnightblue" points="410.72,-25.56 418.68,-18.56 408.1,-19.07 410.72,-25.56"/>
</g>
<!-- Node9 -->
<g id="node9" class="node">
<title>Node9</title>
<g id="a_node9"><a xlink:href="parse_8hpp.html" target="_top" xlink:title=" ">
<polygon fill="white" stroke="black" points="226.5,-56.5 226.5,-75.5 312.5,-75.5 312.5,-56.5 226.5,-56.5"/>
<text text-anchor="middle" x="269.5" y="-63.5" font-family="Helvetica,sans-Serif" font-size="10.00">RoL/parse.hpp</text>
</a>
</g>
</g>
<!-- Node5&#45;&gt;Node9 -->
<g id="edge8" class="edge">
<title>Node5&#45;&gt;Node9</title>
<path fill="none" stroke="midnightblue" d="M325.74,-112.32C315.73,-104.26 300.61,-92.08 288.57,-82.37"/>
<polygon fill="midnightblue" stroke="midnightblue" points="290.44,-79.38 280.46,-75.83 286.05,-84.83 290.44,-79.38"/>
</g>
<!-- Node9&#45;&gt;Node6 -->
<g id="edge9" class="edge">
<title>Node9&#45;&gt;Node6</title>
<path fill="none" stroke="midnightblue" d="M245.73,-56.44C220.16,-47.24 179.38,-32.56 151.12,-22.38"/>
<polygon fill="midnightblue" stroke="midnightblue" points="152.28,-19.08 141.69,-18.99 149.91,-25.67 152.28,-19.08"/>
</g>
<!-- Node9&#45;&gt;Node8 -->
<g id="edge12" class="edge">
<title>Node9&#45;&gt;Node8</title>
<path fill="none" stroke="midnightblue" d="M296.91,-56.44C327.39,-46.93 376.62,-31.56 409.27,-21.37"/>
<polygon fill="midnightblue" stroke="midnightblue" points="410.33,-24.71 418.83,-18.39 408.24,-18.03 410.33,-24.71"/>
</g>
<!-- Node10 -->
<g id="node10" class="node">
<title>Node10</title>
<g id="a_node10"><a xlink:title=" ">
<polygon fill="white" stroke="#bfbfbf" points="160,-0.5 160,-19.5 221,-19.5 221,-0.5 160,-0.5"/>
<text text-anchor="middle" x="190.5" y="-7.5" font-family="Helvetica,sans-Serif" font-size="10.00">charconv</text>
</a>
</g>
</g>
<!-- Node9&#45;&gt;Node10 -->
<g id="edge10" class="edge">
<title>Node9&#45;&gt;Node10</title>
<path fill="none" stroke="midnightblue" d="M256.81,-56.32C244.6,-47.98 225.92,-35.21 211.5,-25.35"/>
<polygon fill="midnightblue" stroke="midnightblue" points="213.39,-22.41 203.16,-19.65 209.44,-28.19 213.39,-22.41"/>
</g>
<!-- Node11 -->
<g id="node11" class="node">
<title>Node11</title>
<g id="a_node11"><a xlink:title=" ">
<polygon fill="white" stroke="#bfbfbf" points="239,-0.5 239,-19.5 332,-19.5 332,-0.5 239,-0.5"/>
<text text-anchor="middle" x="285.5" y="-7.5" font-family="Helvetica,sans-Serif" font-size="10.00">unordered_map</text>
</a>
</g>
</g>
<!-- Node9&#45;&gt;Node11 -->
<g id="edge11" class="edge">
<title>Node9&#45;&gt;Node11</title>
<path fill="none" stroke="midnightblue" d="M272.14,-56.08C274.29,-48.85 277.38,-38.41 280.05,-29.4"/>
<polygon fill="midnightblue" stroke="midnightblue" points="283.42,-30.33 282.91,-19.75 276.71,-28.34 283.42,-30.33"/>
</g>
<!-- Node12 -->
<g id="node12" class="node">
<title>Node12</title>
<g id="a_node12"><a xlink:title=" ">
<polygon fill="white" stroke="#bfbfbf" points="350.5,-0.5 350.5,-19.5 400.5,-19.5 400.5,-0.5 350.5,-0.5"/>
<text text-anchor="middle" x="375.5" y="-7.5" font-family="Helvetica,sans-Serif" font-size="10.00">ranges</text>
</a>
</g>
</g>
<!-- Node9&#45;&gt;Node12 -->
<g id="edge13" class="edge">
<title>Node9&#45;&gt;Node12</title>
<path fill="none" stroke="midnightblue" d="M286.53,-56.32C303.53,-47.66 329.88,-34.24 349.49,-24.25"/>
<polygon fill="midnightblue" stroke="midnightblue" points="351.19,-27.31 358.51,-19.65 348.01,-21.08 351.19,-27.31"/>
</g>
<!-- Node14 -->
<g id="node14" class="node">
<title>Node14</title>
<g id="a_node14"><a xlink:href="queue_8hpp.html" target="_top" xlink:title=" ">
<polygon fill="white" stroke="black" points="584,-56.5 584,-75.5 719,-75.5 719,-56.5 584,-56.5"/>
<text text-anchor="middle" x="651.5" y="-63.5" font-family="Helvetica,sans-Serif" font-size="10.00">RoL/threaded/queue.hpp</text>
</a>
</g>
</g>
<!-- Node13&#45;&gt;Node14 -->
<g id="edge15" class="edge">
<title>Node13&#45;&gt;Node14</title>
<path fill="none" stroke="midnightblue" d="M525.27,-112.44C550.39,-103.4 590.21,-89.06 618.4,-78.92"/>
<polygon fill="midnightblue" stroke="midnightblue" points="619.62,-82.2 627.84,-75.52 617.25,-75.61 619.62,-82.2"/>
</g>
<!-- Node17 -->
<g id="node17" class="node">
<title>Node17</title>
<g id="a_node17"><a xlink:href="vector_8hpp.html" target="_top" xlink:title=" ">
<polygon fill="white" stroke="black" points="431,-56.5 431,-75.5 566,-75.5 566,-56.5 431,-56.5"/>
<text text-anchor="middle" x="498.5" y="-63.5" font-family="Helvetica,sans-Serif" font-size="10.00">RoL/threaded/vector.hpp</text>
</a>
</g>
</g>
<!-- Node13&#45;&gt;Node17 -->
<g id="edge18" class="edge">
<title>Node13&#45;&gt;Node17</title>
<path fill="none" stroke="midnightblue" d="M501,-112.08C500.61,-105.01 500.05,-94.86 499.55,-85.99"/>
<polygon fill="midnightblue" stroke="midnightblue" points="503.04,-85.54 498.99,-75.75 496.05,-85.93 503.04,-85.54"/>
</g>
<!-- Node15 -->
<g id="node15" class="node">
<title>Node15</title>
<g id="a_node15"><a xlink:title=" ">
<polygon fill="white" stroke="#bfbfbf" points="514.5,-0.5 514.5,-19.5 594.5,-19.5 594.5,-0.5 514.5,-0.5"/>
<text text-anchor="middle" x="554.5" y="-7.5" font-family="Helvetica,sans-Serif" font-size="10.00">pico/mutex.h</text>
</a>
</g>
</g>
<!-- Node14&#45;&gt;Node15 -->
<g id="edge16" class="edge">
<title>Node14&#45;&gt;Node15</title>
<path fill="none" stroke="midnightblue" d="M635.92,-56.32C620.5,-47.74 596.69,-34.49 578.79,-24.52"/>
<polygon fill="midnightblue" stroke="midnightblue" points="580.49,-21.46 570.05,-19.65 577.08,-27.58 580.49,-21.46"/>
</g>
<!-- Node16 -->
<g id="node16" class="node">
<title>Node16</title>
<g id="a_node16"><a xlink:title=" ">
<polygon fill="white" stroke="#bfbfbf" points="628,-0.5 628,-19.5 675,-19.5 675,-0.5 628,-0.5"/>
<text text-anchor="middle" x="651.5" y="-7.5" font-family="Helvetica,sans-Serif" font-size="10.00">queue</text>
</a>
</g>
</g>
<!-- Node14&#45;&gt;Node16 -->
<g id="edge17" class="edge">
<title>Node14&#45;&gt;Node16</title>
<path fill="none" stroke="midnightblue" d="M651.5,-56.08C651.5,-49.01 651.5,-38.86 651.5,-29.99"/>
<polygon fill="midnightblue" stroke="midnightblue" points="655,-29.75 651.5,-19.75 648,-29.75 655,-29.75"/>
</g>
<!-- Node17&#45;&gt;Node8 -->
<g id="edge20" class="edge">
<title>Node17&#45;&gt;Node8</title>
<path fill="none" stroke="midnightblue" d="M489.5,-56.32C481.31,-48.42 468.99,-36.55 459.03,-26.94"/>
<polygon fill="midnightblue" stroke="midnightblue" points="461.29,-24.26 451.66,-19.83 456.43,-29.29 461.29,-24.26"/>
</g>
<!-- Node17&#45;&gt;Node15 -->
<g id="edge19" class="edge">
<title>Node17&#45;&gt;Node15</title>
<path fill="none" stroke="midnightblue" d="M507.5,-56.32C515.69,-48.42 528.01,-36.55 537.97,-26.94"/>
<polygon fill="midnightblue" stroke="midnightblue" points="540.57,-29.29 545.34,-19.83 535.71,-24.26 540.57,-29.29"/>
</g>
</g>
</svg>
