<?xml version="1.0" encoding="UTF-8" standalone="no"?>
<!DOCTYPE svg PUBLIC "-//W3C//DTD SVG 1.1//EN"
 "http://www.w3.org/Graphics/SVG/1.1/DTD/svg11.dtd">
<!-- Generated by graphviz version 2.43.0 (0)
 -->
<!-- Title: src/ssi.cpp Pages: 1 -->
<svg width="610pt" height="274pt"
 viewBox="0.00 0.00 610.00 274.00" xmlns="http://www.w3.org/2000/svg" xmlns:xlink="http://www.w3.org/1999/xlink">
<g id="graph0" class="graph" transform="scale(1 1) rotate(0) translate(4 270)">
<title>src/ssi.cpp</title>
<polygon fill="white" stroke="transparent" points="-4,4 -4,-270 606,-270 606,4 -4,4"/>
<!-- Node1 -->
<g id="node1" class="node">
<title>Node1</title>
<g id="a_node1"><a xlink:title=" ">
<polygon fill="#bfbfbf" stroke="black" points="174.5,-246.5 174.5,-265.5 242.5,-265.5 242.5,-246.5 174.5,-246.5"/>
<text text-anchor="middle" x="208.5" y="-253.5" font-family="Helvetica,sans-Serif" font-size="10.00">src/ssi.cpp</text>
</a>
</g>
</g>
<!-- Node2 -->
<g id="node2" class="node">
<title>Node2</title>
<g id="a_node2"><a xlink:href="ssi_8h.html" target="_top" xlink:title=" ">
<polygon fill="white" stroke="black" points="0,-185 0,-204 39,-204 39,-185 0,-185"/>
<text text-anchor="middle" x="19.5" y="-192" font-family="Helvetica,sans-Serif" font-size="10.00">ssi.h</text>
</a>
</g>
</g>
<!-- Node1&#45;&gt;Node2 -->
<g id="edge1" class="edge">
<title>Node1&#45;&gt;Node2</title>
<path fill="none" stroke="midnightblue" d="M174.23,-247.58C141.17,-239.92 90.03,-226.75 47.5,-210 46.3,-209.53 45.08,-209.02 43.85,-208.48"/>
<polygon fill="midnightblue" stroke="midnightblue" points="45.17,-205.23 34.64,-204.06 42.14,-211.54 45.17,-205.23"/>
</g>
<!-- Node3 -->
<g id="node3" class="node">
<title>Node3</title>
<g id="a_node3"><a xlink:title=" ">
<polygon fill="white" stroke="#bfbfbf" points="57,-185 57,-204 158,-204 158,-185 57,-185"/>
<text text-anchor="middle" x="107.5" y="-192" font-family="Helvetica,sans-Serif" font-size="10.00">lwip/apps/httpd.h</text>
</a>
</g>
</g>
<!-- Node1&#45;&gt;Node3 -->
<g id="edge2" class="edge">
<title>Node1&#45;&gt;Node3</title>
<path fill="none" stroke="midnightblue" d="M194.03,-246.48C177.53,-236.75 150.32,-220.73 130.82,-209.24"/>
<polygon fill="midnightblue" stroke="midnightblue" points="132.34,-206.07 121.94,-204.01 128.78,-212.1 132.34,-206.07"/>
</g>
<!-- Node4 -->
<g id="node4" class="node">
<title>Node4</title>
<g id="a_node4"><a xlink:title=" ">
<polygon fill="white" stroke="#bfbfbf" points="176.5,-185 176.5,-204 240.5,-204 240.5,-185 176.5,-185"/>
<text text-anchor="middle" x="208.5" y="-192" font-family="Helvetica,sans-Serif" font-size="10.00">lwip/def.h</text>
</a>
</g>
</g>
<!-- Node1&#45;&gt;Node4 -->
<g id="edge3" class="edge">
<title>Node1&#45;&gt;Node4</title>
<path fill="none" stroke="midnightblue" d="M208.5,-246.48C208.5,-238.08 208.5,-224.98 208.5,-214.16"/>
<polygon fill="midnightblue" stroke="midnightblue" points="212,-214.01 208.5,-204.01 205,-214.01 212,-214.01"/>
</g>
<!-- Node5 -->
<g id="node5" class="node">
<title>Node5</title>
<g id="a_node5"><a xlink:href="emulator_8hpp.html" target="_top" xlink:title=" ">
<polygon fill="white" stroke="black" points="259,-185 259,-204 414,-204 414,-185 259,-185"/>
<text text-anchor="middle" x="336.5" y="-192" font-family="Helvetica,sans-Serif" font-size="10.00">RoL/emulation/emulator.hpp</text>
</a>
</g>
</g>
<!-- Node1&#45;&gt;Node5 -->
<g id="edge4" class="edge">
<title>Node1&#45;&gt;Node5</title>
<path fill="none" stroke="midnightblue" d="M226.84,-246.48C248.32,-236.49 284.12,-219.85 308.95,-208.31"/>
<polygon fill="midnightblue" stroke="midnightblue" points="310.6,-211.4 318.19,-204.01 307.65,-205.05 310.6,-211.4"/>
</g>
<!-- Node10 -->
<g id="node10" class="node">
<title>Node10</title>
<g id="a_node10"><a xlink:href="shared__job_8hpp.html" target="_top" xlink:title=" ">
<polygon fill="white" stroke="black" points="460,-179.5 460,-209.5 577,-209.5 577,-179.5 460,-179.5"/>
<text text-anchor="start" x="468" y="-197.5" font-family="Helvetica,sans-Serif" font-size="10.00">RoL/threaded/shared</text>
<text text-anchor="middle" x="518.5" y="-186.5" font-family="Helvetica,sans-Serif" font-size="10.00">_job.hpp</text>
</a>
</g>
</g>
<!-- Node1&#45;&gt;Node10 -->
<g id="edge10" class="edge">
<title>Node1&#45;&gt;Node10</title>
<path fill="none" stroke="midnightblue" d="M242.56,-248.46C292.2,-238.93 385.5,-221.03 449.76,-208.69"/>
<polygon fill="midnightblue" stroke="midnightblue" points="450.66,-212.09 459.82,-206.76 449.34,-205.21 450.66,-212.09"/>
</g>
<!-- Node6 -->
<g id="node6" class="node">
<title>Node6</title>
<g id="a_node6"><a xlink:title=" ">
<polygon fill="white" stroke="#bfbfbf" points="271.5,-56.5 271.5,-75.5 315.5,-75.5 315.5,-56.5 271.5,-56.5"/>
<text text-anchor="middle" x="293.5" y="-63.5" font-family="Helvetica,sans-Serif" font-size="10.00">bitset</text>
</a>
</g>
</g>
<!-- Node5&#45;&gt;Node6 -->
<g id="edge5" class="edge">
<title>Node5&#45;&gt;Node6</title>
<path fill="none" stroke="midnightblue" d="M324.84,-184.99C313.61,-176 297.35,-160.7 290.5,-143 283.36,-124.57 285.6,-101.71 288.68,-85.9"/>
<polygon fill="midnightblue" stroke="midnightblue" points="292.18,-86.33 290.96,-75.8 285.35,-84.79 292.18,-86.33"/>
</g>
<!-- Node7 -->
<g id="node7" class="node">
<title>Node7</title>
<g id="a_node7"><a xlink:title=" ">
<polygon fill="white" stroke="#bfbfbf" points="300,-118 300,-137 347,-137 347,-118 300,-118"/>
<text text-anchor="middle" x="323.5" y="-125" font-family="Helvetica,sans-Serif" font-size="10.00">vector</text>
</a>
</g>
</g>
<!-- Node5&#45;&gt;Node7 -->
<g id="edge6" class="edge">
<title>Node5&#45;&gt;Node7</title>
<path fill="none" stroke="midnightblue" d="M334.75,-184.73C332.84,-175.18 329.72,-159.62 327.26,-147.28"/>
<polygon fill="midnightblue" stroke="midnightblue" points="330.62,-146.25 325.23,-137.13 323.75,-147.62 330.62,-146.25"/>
</g>
<!-- Node8 -->
<g id="node8" class="node">
<title>Node8</title>
<g id="a_node8"><a xlink:href="parse_8hpp.html" target="_top" xlink:title=" ">
<polygon fill="white" stroke="black" points="365.5,-118 365.5,-137 451.5,-137 451.5,-118 365.5,-118"/>
<text text-anchor="middle" x="408.5" y="-125" font-family="Helvetica,sans-Serif" font-size="10.00">RoL/parse.hpp</text>
</a>
</g>
</g>
<!-- Node5&#45;&gt;Node8 -->
<g id="edge7" class="edge">
<title>Node5&#45;&gt;Node8</title>
<path fill="none" stroke="midnightblue" d="M346.21,-184.73C357.76,-174.31 377.25,-156.71 391.36,-143.97"/>
<polygon fill="midnightblue" stroke="midnightblue" points="393.87,-146.43 398.94,-137.13 389.18,-141.23 393.87,-146.43"/>
</g>
<!-- Node8&#45;&gt;Node6 -->
<g id="edge8" class="edge">
<title>Node8&#45;&gt;Node6</title>
<path fill="none" stroke="midnightblue" d="M392.02,-117.98C372.89,-108.08 341.13,-91.64 318.85,-80.12"/>
<polygon fill="midnightblue" stroke="midnightblue" points="320.44,-77 309.95,-75.51 317.22,-83.21 320.44,-77"/>
</g>
<!-- Node9 -->
<g id="node9" class="node">
<title>Node9</title>
<g id="a_node9"><a xlink:title=" ">
<polygon fill="white" stroke="#bfbfbf" points="356,-56.5 356,-75.5 449,-75.5 449,-56.5 356,-56.5"/>
<text text-anchor="middle" x="402.5" y="-63.5" font-family="Helvetica,sans-Serif" font-size="10.00">unordered_map</text>
</a>
</g>
</g>
<!-- Node8&#45;&gt;Node9 -->
<g id="edge9" class="edge">
<title>Node8&#45;&gt;Node9</title>
<path fill="none" stroke="midnightblue" d="M407.64,-117.98C406.79,-109.58 405.47,-96.48 404.38,-85.66"/>
<polygon fill="midnightblue" stroke="midnightblue" points="407.84,-85.11 403.36,-75.51 400.88,-85.81 407.84,-85.11"/>
</g>
<!-- Node11 -->
<g id="node11" class="node">
<title>Node11</title>
<g id="a_node11"><a xlink:href="shared__queue_8hpp.html" target="_top" xlink:title=" ">
<polygon fill="white" stroke="black" points="473,-112.5 473,-142.5 590,-142.5 590,-112.5 473,-112.5"/>
<text text-anchor="start" x="481" y="-130.5" font-family="Helvetica,sans-Serif" font-size="10.00">RoL/threaded/shared</text>
<text text-anchor="middle" x="531.5" y="-119.5" font-family="Helvetica,sans-Serif" font-size="10.00">_queue.hpp</text>
</a>
</g>
</g>
<!-- Node10&#45;&gt;Node11 -->
<g id="edge11" class="edge">
<title>Node10&#45;&gt;Node11</title>
<path fill="none" stroke="midnightblue" d="M521.32,-179.4C522.89,-171.56 524.88,-161.6 526.69,-152.57"/>
<polygon fill="midnightblue" stroke="midnightblue" points="530.16,-153.07 528.68,-142.58 523.29,-151.7 530.16,-153.07"/>
</g>
<!-- Node12 -->
<g id="node12" class="node">
<title>Node12</title>
<g id="a_node12"><a xlink:href="queue_8hpp.html" target="_top" xlink:title=" ">
<polygon fill="white" stroke="black" points="467,-56.5 467,-75.5 602,-75.5 602,-56.5 467,-56.5"/>
<text text-anchor="middle" x="534.5" y="-63.5" font-family="Helvetica,sans-Serif" font-size="10.00">RoL/threaded/queue.hpp</text>
</a>
</g>
</g>
<!-- Node11&#45;&gt;Node12 -->
<g id="edge12" class="edge">
<title>Node11&#45;&gt;Node12</title>
<path fill="none" stroke="midnightblue" d="M532.21,-112.4C532.61,-104.47 533.12,-94.46 533.55,-85.86"/>
<polygon fill="midnightblue" stroke="midnightblue" points="537.06,-85.82 534.06,-75.66 530.06,-85.47 537.06,-85.82"/>
</g>
<!-- Node13 -->
<g id="node13" class="node">
<title>Node13</title>
<g id="a_node13"><a xlink:title=" ">
<polygon fill="white" stroke="#bfbfbf" points="453.5,-0.5 453.5,-19.5 533.5,-19.5 533.5,-0.5 453.5,-0.5"/>
<text text-anchor="middle" x="493.5" y="-7.5" font-family="Helvetica,sans-Serif" font-size="10.00">pico/mutex.h</text>
</a>
</g>
</g>
<!-- Node12&#45;&gt;Node13 -->
<g id="edge13" class="edge">
<title>Node12&#45;&gt;Node13</title>
<path fill="none" stroke="midnightblue" d="M527.73,-56.08C521.94,-48.46 513.44,-37.26 506.36,-27.94"/>
<polygon fill="midnightblue" stroke="midnightblue" points="508.98,-25.6 500.14,-19.75 503.4,-29.83 508.98,-25.6"/>
</g>
<!-- Node14 -->
<g id="node14" class="node">
<title>Node14</title>
<g id="a_node14"><a xlink:title=" ">
<polygon fill="white" stroke="#bfbfbf" points="552,-0.5 552,-19.5 599,-19.5 599,-0.5 552,-0.5"/>
<text text-anchor="middle" x="575.5" y="-7.5" font-family="Helvetica,sans-Serif" font-size="10.00">queue</text>
</a>
</g>
</g>
<!-- Node12&#45;&gt;Node14 -->
<g id="edge14" class="edge">
<title>Node12&#45;&gt;Node14</title>
<path fill="none" stroke="midnightblue" d="M541.27,-56.08C547.06,-48.46 555.56,-37.26 562.64,-27.94"/>
<polygon fill="midnightblue" stroke="midnightblue" points="565.6,-29.83 568.86,-19.75 560.02,-25.6 565.6,-29.83"/>
</g>
</g>
</svg>
