<?xml version="1.0" encoding="UTF-8" standalone="no"?>
<!DOCTYPE svg PUBLIC "-//W3C//DTD SVG 1.1//EN"
 "http://www.w3.org/Graphics/SVG/1.1/DTD/svg11.dtd">
<!-- Generated by graphviz version 2.43.0 (0)
 -->
<!-- Title: src/ssi.cpp Pages: 1 -->
<svg width="643pt" height="263pt"
 viewBox="0.00 0.00 643.00 263.00" xmlns="http://www.w3.org/2000/svg" xmlns:xlink="http://www.w3.org/1999/xlink">
<g id="graph0" class="graph" transform="scale(1 1) rotate(0) translate(4 259)">
<title>src/ssi.cpp</title>
<polygon fill="white" stroke="transparent" points="-4,4 -4,-259 639,-259 639,4 -4,4"/>
<!-- Node1 -->
<g id="node1" class="node">
<title>Node1</title>
<g id="a_node1"><a xlink:title=" ">
<polygon fill="#bfbfbf" stroke="black" points="174.5,-235.5 174.5,-254.5 242.5,-254.5 242.5,-235.5 174.5,-235.5"/>
<text text-anchor="middle" x="208.5" y="-242.5" font-family="Helvetica,sans-Serif" font-size="10.00">src/ssi.cpp</text>
</a>
</g>
</g>
<!-- Node2 -->
<g id="node2" class="node">
<title>Node2</title>
<g id="a_node2"><a xlink:href="ssi_8h.html" target="_top" xlink:title=" ">
<polygon fill="white" stroke="black" points="0,-174 0,-193 39,-193 39,-174 0,-174"/>
<text text-anchor="middle" x="19.5" y="-181" font-family="Helvetica,sans-Serif" font-size="10.00">ssi.h</text>
</a>
</g>
</g>
<!-- Node1&#45;&gt;Node2 -->
<g id="edge1" class="edge">
<title>Node1&#45;&gt;Node2</title>
<path fill="none" stroke="midnightblue" d="M174.23,-236.58C141.17,-228.92 90.03,-215.75 47.5,-199 46.3,-198.53 45.08,-198.02 43.85,-197.48"/>
<polygon fill="midnightblue" stroke="midnightblue" points="45.17,-194.23 34.64,-193.06 42.14,-200.54 45.17,-194.23"/>
</g>
<!-- Node3 -->
<g id="node3" class="node">
<title>Node3</title>
<g id="a_node3"><a xlink:title=" ">
<polygon fill="white" stroke="#bfbfbf" points="57,-174 57,-193 158,-193 158,-174 57,-174"/>
<text text-anchor="middle" x="107.5" y="-181" font-family="Helvetica,sans-Serif" font-size="10.00">lwip/apps/httpd.h</text>
</a>
</g>
</g>
<!-- Node1&#45;&gt;Node3 -->
<g id="edge2" class="edge">
<title>Node1&#45;&gt;Node3</title>
<path fill="none" stroke="midnightblue" d="M194.03,-235.48C177.53,-225.75 150.32,-209.73 130.82,-198.24"/>
<polygon fill="midnightblue" stroke="midnightblue" points="132.34,-195.07 121.94,-193.01 128.78,-201.1 132.34,-195.07"/>
</g>
<!-- Node4 -->
<g id="node4" class="node">
<title>Node4</title>
<g id="a_node4"><a xlink:title=" ">
<polygon fill="white" stroke="#bfbfbf" points="176.5,-174 176.5,-193 240.5,-193 240.5,-174 176.5,-174"/>
<text text-anchor="middle" x="208.5" y="-181" font-family="Helvetica,sans-Serif" font-size="10.00">lwip/def.h</text>
</a>
</g>
</g>
<!-- Node1&#45;&gt;Node4 -->
<g id="edge3" class="edge">
<title>Node1&#45;&gt;Node4</title>
<path fill="none" stroke="midnightblue" d="M208.5,-235.48C208.5,-227.08 208.5,-213.98 208.5,-203.16"/>
<polygon fill="midnightblue" stroke="midnightblue" points="212,-203.01 208.5,-193.01 205,-203.01 212,-203.01"/>
</g>
<!-- Node5 -->
<g id="node5" class="node">
<title>Node5</title>
<g id="a_node5"><a xlink:href="emulator_8hpp.html" target="_top" xlink:title=" ">
<polygon fill="white" stroke="black" points="171,-112.5 171,-131.5 326,-131.5 326,-112.5 171,-112.5"/>
<text text-anchor="middle" x="248.5" y="-119.5" font-family="Helvetica,sans-Serif" font-size="10.00">RoL/emulation/emulator.hpp</text>
</a>
</g>
</g>
<!-- Node1&#45;&gt;Node5 -->
<g id="edge4" class="edge">
<title>Node1&#45;&gt;Node5</title>
<path fill="none" stroke="midnightblue" d="M220.04,-235.49C229.98,-227.38 243.62,-214.18 249.5,-199 256.63,-180.58 255.08,-157.72 252.57,-141.91"/>
<polygon fill="midnightblue" stroke="midnightblue" points="255.95,-140.99 250.67,-131.81 249.07,-142.28 255.95,-140.99"/>
</g>
<!-- Node12 -->
<g id="node12" class="node">
<title>Node12</title>
<g id="a_node12"><a xlink:href="shared__job_8hpp.html" target="_top" xlink:title=" ">
<polygon fill="white" stroke="black" points="336,-168.5 336,-198.5 453,-198.5 453,-168.5 336,-168.5"/>
<text text-anchor="start" x="344" y="-186.5" font-family="Helvetica,sans-Serif" font-size="10.00">RoL/threaded/shared</text>
<text text-anchor="middle" x="394.5" y="-175.5" font-family="Helvetica,sans-Serif" font-size="10.00">_job.hpp</text>
</a>
</g>
</g>
<!-- Node1&#45;&gt;Node12 -->
<g id="edge13" class="edge">
<title>Node1&#45;&gt;Node12</title>
<path fill="none" stroke="midnightblue" d="M235.15,-235.48C262.69,-226.66 306.44,-212.67 341.14,-201.57"/>
<polygon fill="midnightblue" stroke="midnightblue" points="342.21,-204.9 350.66,-198.52 340.07,-198.24 342.21,-204.9"/>
</g>
<!-- Node6 -->
<g id="node6" class="node">
<title>Node6</title>
<g id="a_node6"><a xlink:title=" ">
<polygon fill="white" stroke="#bfbfbf" points="59.5,-0.5 59.5,-19.5 103.5,-19.5 103.5,-0.5 59.5,-0.5"/>
<text text-anchor="middle" x="81.5" y="-7.5" font-family="Helvetica,sans-Serif" font-size="10.00">bitset</text>
</a>
</g>
</g>
<!-- Node5&#45;&gt;Node6 -->
<g id="edge5" class="edge">
<title>Node5&#45;&gt;Node6</title>
<path fill="none" stroke="midnightblue" d="M235.4,-112.37C206.74,-93.49 138.26,-48.38 103.11,-25.24"/>
<polygon fill="midnightblue" stroke="midnightblue" points="104.82,-22.17 94.54,-19.59 100.97,-28.02 104.82,-22.17"/>
</g>
<!-- Node7 -->
<g id="node7" class="node">
<title>Node7</title>
<g id="a_node7"><a xlink:title=" ">
<polygon fill="white" stroke="#bfbfbf" points="381,-0.5 381,-19.5 428,-19.5 428,-0.5 381,-0.5"/>
<text text-anchor="middle" x="404.5" y="-7.5" font-family="Helvetica,sans-Serif" font-size="10.00">vector</text>
</a>
</g>
</g>
<!-- Node5&#45;&gt;Node7 -->
<g id="edge6" class="edge">
<title>Node5&#45;&gt;Node7</title>
<path fill="none" stroke="midnightblue" d="M259.92,-112.44C276.75,-99.87 309.29,-75.76 337.5,-56 352.42,-45.55 369.46,-34.11 382.63,-25.38"/>
<polygon fill="midnightblue" stroke="midnightblue" points="384.63,-28.25 391.05,-19.81 380.77,-22.41 384.63,-28.25"/>
</g>
<!-- Node8 -->
<g id="node8" class="node">
<title>Node8</title>
<g id="a_node8"><a xlink:href="parse_8hpp.html" target="_top" xlink:title=" ">
<polygon fill="white" stroke="black" points="204.5,-56.5 204.5,-75.5 290.5,-75.5 290.5,-56.5 204.5,-56.5"/>
<text text-anchor="middle" x="247.5" y="-63.5" font-family="Helvetica,sans-Serif" font-size="10.00">RoL/parse.hpp</text>
</a>
</g>
</g>
<!-- Node5&#45;&gt;Node8 -->
<g id="edge7" class="edge">
<title>Node5&#45;&gt;Node8</title>
<path fill="none" stroke="midnightblue" d="M248.33,-112.08C248.2,-105.01 248.02,-94.86 247.85,-85.99"/>
<polygon fill="midnightblue" stroke="midnightblue" points="251.35,-85.68 247.66,-75.75 244.35,-85.81 251.35,-85.68"/>
</g>
<!-- Node8&#45;&gt;Node6 -->
<g id="edge8" class="edge">
<title>Node8&#45;&gt;Node6</title>
<path fill="none" stroke="midnightblue" d="M221.2,-56.44C191.91,-46.92 144.59,-31.52 113.26,-21.33"/>
<polygon fill="midnightblue" stroke="midnightblue" points="114.29,-17.99 103.7,-18.22 112.12,-24.64 114.29,-17.99"/>
</g>
<!-- Node8&#45;&gt;Node7 -->
<g id="edge11" class="edge">
<title>Node8&#45;&gt;Node7</title>
<path fill="none" stroke="midnightblue" d="M272.38,-56.44C299.1,-47.25 341.7,-32.6 371.28,-22.43"/>
<polygon fill="midnightblue" stroke="midnightblue" points="372.45,-25.73 380.77,-19.16 370.17,-19.11 372.45,-25.73"/>
</g>
<!-- Node9 -->
<g id="node9" class="node">
<title>Node9</title>
<g id="a_node9"><a xlink:title=" ">
<polygon fill="white" stroke="#bfbfbf" points="122,-0.5 122,-19.5 183,-19.5 183,-0.5 122,-0.5"/>
<text text-anchor="middle" x="152.5" y="-7.5" font-family="Helvetica,sans-Serif" font-size="10.00">charconv</text>
</a>
</g>
</g>
<!-- Node8&#45;&gt;Node9 -->
<g id="edge9" class="edge">
<title>Node8&#45;&gt;Node9</title>
<path fill="none" stroke="midnightblue" d="M232.24,-56.32C217.28,-47.82 194.25,-34.73 176.77,-24.8"/>
<polygon fill="midnightblue" stroke="midnightblue" points="178.15,-21.55 167.73,-19.65 174.69,-27.64 178.15,-21.55"/>
</g>
<!-- Node10 -->
<g id="node10" class="node">
<title>Node10</title>
<g id="a_node10"><a xlink:title=" ">
<polygon fill="white" stroke="#bfbfbf" points="201,-0.5 201,-19.5 294,-19.5 294,-0.5 201,-0.5"/>
<text text-anchor="middle" x="247.5" y="-7.5" font-family="Helvetica,sans-Serif" font-size="10.00">unordered_map</text>
</a>
</g>
</g>
<!-- Node8&#45;&gt;Node10 -->
<g id="edge10" class="edge">
<title>Node8&#45;&gt;Node10</title>
<path fill="none" stroke="midnightblue" d="M247.5,-56.08C247.5,-49.01 247.5,-38.86 247.5,-29.99"/>
<polygon fill="midnightblue" stroke="midnightblue" points="251,-29.75 247.5,-19.75 244,-29.75 251,-29.75"/>
</g>
<!-- Node11 -->
<g id="node11" class="node">
<title>Node11</title>
<g id="a_node11"><a xlink:title=" ">
<polygon fill="white" stroke="#bfbfbf" points="312.5,-0.5 312.5,-19.5 362.5,-19.5 362.5,-0.5 312.5,-0.5"/>
<text text-anchor="middle" x="337.5" y="-7.5" font-family="Helvetica,sans-Serif" font-size="10.00">ranges</text>
</a>
</g>
</g>
<!-- Node8&#45;&gt;Node11 -->
<g id="edge12" class="edge">
<title>Node8&#45;&gt;Node11</title>
<path fill="none" stroke="midnightblue" d="M261.96,-56.32C276,-47.9 297.55,-34.97 314.04,-25.07"/>
<polygon fill="midnightblue" stroke="midnightblue" points="316.3,-27.8 323.08,-19.65 312.7,-21.8 316.3,-27.8"/>
</g>
<!-- Node13 -->
<g id="node13" class="node">
<title>Node13</title>
<g id="a_node13"><a xlink:href="shared_8hpp.html" target="_top" xlink:title=" ">
<polygon fill="white" stroke="black" points="345.5,-112.5 345.5,-131.5 483.5,-131.5 483.5,-112.5 345.5,-112.5"/>
<text text-anchor="middle" x="414.5" y="-119.5" font-family="Helvetica,sans-Serif" font-size="10.00">RoL/threaded/shared.hpp</text>
</a>
</g>
</g>
<!-- Node12&#45;&gt;Node13 -->
<g id="edge14" class="edge">
<title>Node12&#45;&gt;Node13</title>
<path fill="none" stroke="midnightblue" d="M399.24,-168.4C401.97,-160.29 405.42,-150.01 408.36,-141.28"/>
<polygon fill="midnightblue" stroke="midnightblue" points="411.72,-142.25 411.59,-131.66 405.09,-140.02 411.72,-142.25"/>
</g>
<!-- Node14 -->
<g id="node14" class="node">
<title>Node14</title>
<g id="a_node14"><a xlink:href="queue_8hpp.html" target="_top" xlink:title=" ">
<polygon fill="white" stroke="black" points="500,-56.5 500,-75.5 635,-75.5 635,-56.5 500,-56.5"/>
<text text-anchor="middle" x="567.5" y="-63.5" font-family="Helvetica,sans-Serif" font-size="10.00">RoL/threaded/queue.hpp</text>
</a>
</g>
</g>
<!-- Node13&#45;&gt;Node14 -->
<g id="edge15" class="edge">
<title>Node13&#45;&gt;Node14</title>
<path fill="none" stroke="midnightblue" d="M438.74,-112.44C464.37,-103.4 504.99,-89.06 533.74,-78.92"/>
<polygon fill="midnightblue" stroke="midnightblue" points="535.11,-82.15 543.37,-75.52 532.78,-75.54 535.11,-82.15"/>
</g>
<!-- Node17 -->
<g id="node17" class="node">
<title>Node17</title>
<g id="a_node17"><a xlink:href="vector_8hpp.html" target="_top" xlink:title=" ">
<polygon fill="white" stroke="black" points="347,-56.5 347,-75.5 482,-75.5 482,-56.5 347,-56.5"/>
<text text-anchor="middle" x="414.5" y="-63.5" font-family="Helvetica,sans-Serif" font-size="10.00">RoL/threaded/vector.hpp</text>
</a>
</g>
</g>
<!-- Node13&#45;&gt;Node17 -->
<g id="edge18" class="edge">
<title>Node13&#45;&gt;Node17</title>
<path fill="none" stroke="midnightblue" d="M414.5,-112.08C414.5,-105.01 414.5,-94.86 414.5,-85.99"/>
<polygon fill="midnightblue" stroke="midnightblue" points="418,-85.75 414.5,-75.75 411,-85.75 418,-85.75"/>
</g>
<!-- Node15 -->
<g id="node15" class="node">
<title>Node15</title>
<g id="a_node15"><a xlink:title=" ">
<polygon fill="white" stroke="#bfbfbf" points="446.5,-0.5 446.5,-19.5 526.5,-19.5 526.5,-0.5 446.5,-0.5"/>
<text text-anchor="middle" x="486.5" y="-7.5" font-family="Helvetica,sans-Serif" font-size="10.00">pico/mutex.h</text>
</a>
</g>
</g>
<!-- Node14&#45;&gt;Node15 -->
<g id="edge16" class="edge">
<title>Node14&#45;&gt;Node15</title>
<path fill="none" stroke="midnightblue" d="M554.49,-56.32C541.97,-47.98 522.82,-35.21 508.03,-25.35"/>
<polygon fill="midnightblue" stroke="midnightblue" points="509.74,-22.29 499.48,-19.65 505.86,-28.11 509.74,-22.29"/>
</g>
<!-- Node16 -->
<g id="node16" class="node">
<title>Node16</title>
<g id="a_node16"><a xlink:title=" ">
<polygon fill="white" stroke="#bfbfbf" points="545,-0.5 545,-19.5 592,-19.5 592,-0.5 545,-0.5"/>
<text text-anchor="middle" x="568.5" y="-7.5" font-family="Helvetica,sans-Serif" font-size="10.00">queue</text>
</a>
</g>
</g>
<!-- Node14&#45;&gt;Node16 -->
<g id="edge17" class="edge">
<title>Node14&#45;&gt;Node16</title>
<path fill="none" stroke="midnightblue" d="M567.67,-56.08C567.8,-49.01 567.98,-38.86 568.15,-29.99"/>
<polygon fill="midnightblue" stroke="midnightblue" points="571.65,-29.81 568.34,-19.75 564.65,-29.68 571.65,-29.81"/>
</g>
<!-- Node17&#45;&gt;Node7 -->
<g id="edge20" class="edge">
<title>Node17&#45;&gt;Node7</title>
<path fill="none" stroke="midnightblue" d="M412.85,-56.08C411.52,-48.93 409.62,-38.64 407.96,-29.69"/>
<polygon fill="midnightblue" stroke="midnightblue" points="411.38,-28.95 406.12,-19.75 404.5,-30.22 411.38,-28.95"/>
</g>
<!-- Node17&#45;&gt;Node15 -->
<g id="edge19" class="edge">
<title>Node17&#45;&gt;Node15</title>
<path fill="none" stroke="midnightblue" d="M426.07,-56.32C436.92,-48.18 453.38,-35.84 466.38,-26.09"/>
<polygon fill="midnightblue" stroke="midnightblue" points="468.82,-28.63 474.72,-19.83 464.62,-23.03 468.82,-28.63"/>
</g>
</g>
</svg>
