<?xml version="1.0" encoding="UTF-8" standalone="no"?>
<!DOCTYPE svg PUBLIC "-//W3C//DTD SVG 1.1//EN"
 "http://www.w3.org/Graphics/SVG/1.1/DTD/svg11.dtd">
<!-- Generated by graphviz version 2.43.0 (0)
 -->
<!-- Title: emulation::emulator::slti_ Pages: 1 -->
<svg width="291pt" height="76pt"
 viewBox="0.00 0.00 291.00 75.50" xmlns="http://www.w3.org/2000/svg" xmlns:xlink="http://www.w3.org/1999/xlink">
<g id="graph0" class="graph" transform="scale(1 1) rotate(0) translate(4 71.5)">
<title>emulation::emulator::slti_</title>
<!-- Node1 -->
<g id="Node000001" class="node">
<title>Node1</title>
<g id="a_Node000001"><a xlink:title="Set Less Than Immediate.">
<polygon fill="#999999" stroke="#666666" points="116,-51 0,-51 0,-21 116,-21 116,-51"/>
<text text-anchor="start" x="8" y="-39" font-family="Helvetica,sans-Serif" font-size="10.00">emulation::emulator</text>
<text text-anchor="middle" x="58" y="-28" font-family="Helvetica,sans-Serif" font-size="10.00">::slti_</text>
</a>
</g>
</g>
<!-- Node2 -->
<g id="Node000002" class="node">
<title>Node2</title>
<g id="a_Node000002"><a xlink:href="namespaceemulation.html#a0e3cd88b9aeee3fe41402b7dd019cfba" target="_top" xlink:title=" ">
<polygon fill="white" stroke="#666666" points="283,-67.5 152,-67.5 152,-48.5 283,-48.5 283,-67.5"/>
<text text-anchor="middle" x="217.5" y="-55.5" font-family="Helvetica,sans-Serif" font-size="10.00">emulation::sign_extend</text>
</a>
</g>
</g>
<!-- Node1&#45;&gt;Node2 -->
<g id="edge1_Node000001_Node000002" class="edge">
<title>Node1&#45;&gt;Node2</title>
<g id="a_edge1_Node000001_Node000002"><a xlink:title=" ">
<path fill="none" stroke="#63b8ff" d="M116.31,-44C124.59,-45.16 133.21,-46.37 141.77,-47.56"/>
<polygon fill="#63b8ff" stroke="#63b8ff" points="141.38,-51.04 151.77,-48.96 142.35,-44.11 141.38,-51.04"/>
</a>
</g>
</g>
<!-- Node3 -->
<g id="Node000003" class="node">
<title>Node3</title>
<g id="a_Node000003"><a xlink:href="structemulation_1_1emulator.html#a69d2dbbf01d4b4627cd303f0b30f2b30" target="_top" xlink:title="Set Less Than.">
<polygon fill="white" stroke="#666666" points="275.5,-30 159.5,-30 159.5,0 275.5,0 275.5,-30"/>
<text text-anchor="start" x="167.5" y="-18" font-family="Helvetica,sans-Serif" font-size="10.00">emulation::emulator</text>
<text text-anchor="middle" x="217.5" y="-7" font-family="Helvetica,sans-Serif" font-size="10.00">::slt_</text>
</a>
</g>
</g>
<!-- Node1&#45;&gt;Node3 -->
<g id="edge2_Node000001_Node000003" class="edge">
<title>Node1&#45;&gt;Node3</title>
<g id="a_edge2_Node000001_Node000003"><a xlink:title=" ">
<path fill="none" stroke="#63b8ff" d="M116.31,-28.36C127.08,-26.92 138.44,-25.41 149.48,-23.94"/>
<polygon fill="#63b8ff" stroke="#63b8ff" points="150.05,-27.39 159.5,-22.6 149.12,-20.45 150.05,-27.39"/>
</a>
</g>
</g>
</g>
</svg>
