<?xml version="1.0" encoding="UTF-8" standalone="no"?>
<!DOCTYPE svg PUBLIC "-//W3C//DTD SVG 1.1//EN"
 "http://www.w3.org/Graphics/SVG/1.1/DTD/svg11.dtd">
<!-- Generated by graphviz version 2.43.0 (0)
 -->
<!-- Title: emulation::emulator::add_ Pages: 1 -->
<svg width="428pt" height="656pt"
 viewBox="0.00 0.00 428.00 655.50" xmlns="http://www.w3.org/2000/svg" xmlns:xlink="http://www.w3.org/1999/xlink">
<g id="graph0" class="graph" transform="scale(1 1) rotate(0) translate(4 651.5)">
<title>emulation::emulator::add_</title>
<polygon fill="white" stroke="transparent" points="-4,4 -4,-651.5 424,-651.5 424,4 -4,4"/>
<!-- Node1 -->
<g id="node1" class="node">
<title>Node1</title>
<g id="a_node1"><a xlink:title="ADD.">
<polygon fill="#bfbfbf" stroke="black" points="304,-298 304,-328 420,-328 420,-298 304,-298"/>
<text text-anchor="start" x="312" y="-316" font-family="Helvetica,sans-Serif" font-size="10.00">emulation::emulator</text>
<text text-anchor="middle" x="362" y="-305" font-family="Helvetica,sans-Serif" font-size="10.00">::add_</text>
</a>
</g>
</g>
<!-- Node2 -->
<g id="node2" class="node">
<title>Node2</title>
<g id="a_node2"><a xlink:href="structemulation_1_1emulator.html#a6f512f9a45e36c98c7248f3f0004123a" target="_top" xlink:title="Add Immediate.">
<polygon fill="white" stroke="black" points="152,-617 152,-647 268,-647 268,-617 152,-617"/>
<text text-anchor="start" x="160" y="-635" font-family="Helvetica,sans-Serif" font-size="10.00">emulation::emulator</text>
<text text-anchor="middle" x="210" y="-624" font-family="Helvetica,sans-Serif" font-size="10.00">::addi_</text>
</a>
</g>
</g>
<!-- Node1&#45;&gt;Node2 -->
<g id="edge1" class="edge">
<title>Node1&#45;&gt;Node2</title>
<path fill="none" stroke="midnightblue" d="M359.96,-338.04C356.35,-393.63 340.21,-528.73 268,-608 264.89,-611.41 261.22,-614.36 257.26,-616.89"/>
<polygon fill="midnightblue" stroke="midnightblue" points="363.46,-338.2 360.53,-328.02 356.47,-337.8 363.46,-338.2"/>
</g>
<!-- Node3 -->
<g id="node3" class="node">
<title>Node3</title>
<g id="a_node3"><a xlink:href="structemulation_1_1emulator.html#a2e4d099ca70b1f19761f7918159eaf63" target="_top" xlink:title=" ">
<polygon fill="white" stroke="black" points="0,-323 0,-353 116,-353 116,-323 0,-323"/>
<text text-anchor="start" x="8" y="-341" font-family="Helvetica,sans-Serif" font-size="10.00">emulation::emulator</text>
<text text-anchor="middle" x="58" y="-330" font-family="Helvetica,sans-Serif" font-size="10.00">::execute</text>
</a>
</g>
</g>
<!-- Node1&#45;&gt;Node3 -->
<g id="edge19" class="edge">
<title>Node1&#45;&gt;Node3</title>
<path fill="none" stroke="midnightblue" d="M357.64,-287.88C350.29,-244.16 328.31,-155.14 268,-117 224.43,-89.45 194.95,-88.48 152,-117 79.7,-165.02 63.48,-281.42 59.95,-322.96"/>
<polygon fill="midnightblue" stroke="midnightblue" points="354.21,-288.61 359.21,-297.96 361.13,-287.54 354.21,-288.61"/>
</g>
<!-- Node5 -->
<g id="node5" class="node">
<title>Node5</title>
<g id="a_node5"><a xlink:href="structemulation_1_1emulator.html#a5c23ebba4840ee6cc2b1b1b0a83df86a" target="_top" xlink:title="Add Upper Immeddiate to PC.">
<polygon fill="white" stroke="black" points="152,-568 152,-598 268,-598 268,-568 152,-568"/>
<text text-anchor="start" x="160" y="-586" font-family="Helvetica,sans-Serif" font-size="10.00">emulation::emulator</text>
<text text-anchor="middle" x="210" y="-575" font-family="Helvetica,sans-Serif" font-size="10.00">::auipc_</text>
</a>
</g>
</g>
<!-- Node1&#45;&gt;Node5 -->
<g id="edge4" class="edge">
<title>Node1&#45;&gt;Node5</title>
<path fill="none" stroke="midnightblue" d="M358.08,-338.2C351.14,-387.01 329.41,-495.27 268,-559 264.72,-562.4 260.89,-565.34 256.78,-567.88"/>
<polygon fill="midnightblue" stroke="midnightblue" points="361.56,-338.56 359.41,-328.18 354.62,-337.64 361.56,-338.56"/>
</g>
<!-- Node7 -->
<g id="node7" class="node">
<title>Node7</title>
<g id="a_node7"><a xlink:href="structemulation_1_1emulator.html#a4764c8f8a813222723736010fe06c6f8" target="_top" xlink:title="Branch EQual.">
<polygon fill="white" stroke="black" points="152,-39 152,-69 268,-69 268,-39 152,-39"/>
<text text-anchor="start" x="160" y="-57" font-family="Helvetica,sans-Serif" font-size="10.00">emulation::emulator</text>
<text text-anchor="middle" x="210" y="-46" font-family="Helvetica,sans-Serif" font-size="10.00">::beq_</text>
</a>
</g>
</g>
<!-- Node1&#45;&gt;Node7 -->
<g id="edge7" class="edge">
<title>Node1&#45;&gt;Node7</title>
<path fill="none" stroke="midnightblue" d="M356.72,-288.08C347.76,-242.5 323.07,-144.8 268,-84 262.67,-78.12 255.91,-73.19 248.93,-69.14"/>
<polygon fill="midnightblue" stroke="midnightblue" points="353.3,-288.81 358.59,-297.99 360.18,-287.52 353.3,-288.81"/>
</g>
<!-- Node8 -->
<g id="node8" class="node">
<title>Node8</title>
<g id="a_node8"><a xlink:href="structemulation_1_1emulator.html#aa8436f1782c600c2602784550783dd1d" target="_top" xlink:title="Branch Greater than or Equal.">
<polygon fill="white" stroke="black" points="152,-519 152,-549 268,-549 268,-519 152,-519"/>
<text text-anchor="start" x="160" y="-537" font-family="Helvetica,sans-Serif" font-size="10.00">emulation::emulator</text>
<text text-anchor="middle" x="210" y="-526" font-family="Helvetica,sans-Serif" font-size="10.00">::bge_</text>
</a>
</g>
</g>
<!-- Node1&#45;&gt;Node8 -->
<g id="edge9" class="edge">
<title>Node1&#45;&gt;Node8</title>
<path fill="none" stroke="midnightblue" d="M355.46,-337.72C345.08,-378.73 318.99,-461.13 268,-510 264.43,-513.42 260.31,-516.38 255.94,-518.95"/>
<polygon fill="midnightblue" stroke="midnightblue" points="358.86,-338.55 357.82,-328 352.06,-336.9 358.86,-338.55"/>
</g>
<!-- Node9 -->
<g id="node9" class="node">
<title>Node9</title>
<g id="a_node9"><a xlink:href="structemulation_1_1emulator.html#a9aba50a40e49223010db0ab4379859e3" target="_top" xlink:title="Branch Greater than or Equal Unsigned.">
<polygon fill="white" stroke="black" points="152,-470 152,-500 268,-500 268,-470 152,-470"/>
<text text-anchor="start" x="160" y="-488" font-family="Helvetica,sans-Serif" font-size="10.00">emulation::emulator</text>
<text text-anchor="middle" x="210" y="-477" font-family="Helvetica,sans-Serif" font-size="10.00">::bgeu_</text>
</a>
</g>
</g>
<!-- Node1&#45;&gt;Node9 -->
<g id="edge11" class="edge">
<title>Node1&#45;&gt;Node9</title>
<path fill="none" stroke="midnightblue" d="M351.13,-337.72C337.09,-370.05 308.49,-426.61 268,-461 263.99,-464.41 259.43,-467.39 254.67,-469.98"/>
<polygon fill="midnightblue" stroke="midnightblue" points="354.51,-338.71 355.17,-328.13 348.06,-335.99 354.51,-338.71"/>
</g>
<!-- Node10 -->
<g id="node10" class="node">
<title>Node10</title>
<g id="a_node10"><a xlink:href="structemulation_1_1emulator.html#aff0ad86baa02712f534562bb703e66dc" target="_top" xlink:title="Branch Less Than.">
<polygon fill="white" stroke="black" points="152,-421 152,-451 268,-451 268,-421 152,-421"/>
<text text-anchor="start" x="160" y="-439" font-family="Helvetica,sans-Serif" font-size="10.00">emulation::emulator</text>
<text text-anchor="middle" x="210" y="-428" font-family="Helvetica,sans-Serif" font-size="10.00">::blt_</text>
</a>
</g>
</g>
<!-- Node1&#45;&gt;Node10 -->
<g id="edge13" class="edge">
<title>Node1&#45;&gt;Node10</title>
<path fill="none" stroke="midnightblue" d="M343.72,-336.42C326.54,-358.36 298.42,-390.85 268,-412 263.24,-415.31 257.95,-418.29 252.57,-420.94"/>
<polygon fill="midnightblue" stroke="midnightblue" points="346.64,-338.36 349.96,-328.3 341.09,-334.1 346.64,-338.36"/>
</g>
<!-- Node11 -->
<g id="node11" class="node">
<title>Node11</title>
<g id="a_node11"><a xlink:href="structemulation_1_1emulator.html#abc914f48206b4623f88d1c9b11ba8cde" target="_top" xlink:title="Branch Less Than Unsigned.">
<polygon fill="white" stroke="black" points="152,-372 152,-402 268,-402 268,-372 152,-372"/>
<text text-anchor="start" x="160" y="-390" font-family="Helvetica,sans-Serif" font-size="10.00">emulation::emulator</text>
<text text-anchor="middle" x="210" y="-379" font-family="Helvetica,sans-Serif" font-size="10.00">::bltu_</text>
</a>
</g>
</g>
<!-- Node1&#45;&gt;Node11 -->
<g id="edge15" class="edge">
<title>Node1&#45;&gt;Node11</title>
<path fill="none" stroke="midnightblue" d="M325.39,-333.17C308.24,-342.62 287.26,-353.79 268,-363 261.7,-366.01 254.93,-369.04 248.33,-371.88"/>
<polygon fill="midnightblue" stroke="midnightblue" points="327.44,-336.03 334.49,-328.12 324.04,-329.91 327.44,-336.03"/>
</g>
<!-- Node12 -->
<g id="node12" class="node">
<title>Node12</title>
<g id="a_node12"><a xlink:href="structemulation_1_1emulator.html#aea1938f1f04e4fd1c6ce359da8ec0f13" target="_top" xlink:title="Branch Not Equal.">
<polygon fill="white" stroke="black" points="152,-323 152,-353 268,-353 268,-323 152,-323"/>
<text text-anchor="start" x="160" y="-341" font-family="Helvetica,sans-Serif" font-size="10.00">emulation::emulator</text>
<text text-anchor="middle" x="210" y="-330" font-family="Helvetica,sans-Serif" font-size="10.00">::bne_</text>
</a>
</g>
</g>
<!-- Node1&#45;&gt;Node12 -->
<g id="edge17" class="edge">
<title>Node1&#45;&gt;Node12</title>
<path fill="none" stroke="midnightblue" d="M293.97,-324.17C285.46,-325.59 276.81,-327.03 268.47,-328.42"/>
<polygon fill="midnightblue" stroke="midnightblue" points="294.58,-327.62 303.86,-322.52 293.42,-320.71 294.58,-327.62"/>
</g>
<!-- Node13 -->
<g id="node13" class="node">
<title>Node13</title>
<g id="a_node13"><a xlink:href="structemulation_1_1emulator.html#a94bdc593369f294fdb1927135edc18a8" target="_top" xlink:title="Increments PC by xlen (32), using an optimised add with carry.">
<polygon fill="white" stroke="black" points="152,-274 152,-304 268,-304 268,-274 152,-274"/>
<text text-anchor="start" x="160" y="-292" font-family="Helvetica,sans-Serif" font-size="10.00">emulation::emulator</text>
<text text-anchor="middle" x="210" y="-281" font-family="Helvetica,sans-Serif" font-size="10.00">::increment_pc</text>
</a>
</g>
</g>
<!-- Node1&#45;&gt;Node13 -->
<g id="edge20" class="edge">
<title>Node1&#45;&gt;Node13</title>
<path fill="none" stroke="midnightblue" d="M293.97,-302.27C285.46,-300.91 276.81,-299.53 268.47,-298.2"/>
<polygon fill="midnightblue" stroke="midnightblue" points="293.44,-305.73 303.86,-303.86 294.54,-298.82 293.44,-305.73"/>
</g>
<!-- Node14 -->
<g id="node14" class="node">
<title>Node14</title>
<g id="a_node14"><a xlink:href="structemulation_1_1emulator.html#a6d495ced29be5a5f0f9eb07b8044cbb9" target="_top" xlink:title="Jump And Link.">
<polygon fill="white" stroke="black" points="152,-225 152,-255 268,-255 268,-225 152,-225"/>
<text text-anchor="start" x="160" y="-243" font-family="Helvetica,sans-Serif" font-size="10.00">emulation::emulator</text>
<text text-anchor="middle" x="210" y="-232" font-family="Helvetica,sans-Serif" font-size="10.00">::jal_</text>
</a>
</g>
</g>
<!-- Node1&#45;&gt;Node14 -->
<g id="edge22" class="edge">
<title>Node1&#45;&gt;Node14</title>
<path fill="none" stroke="midnightblue" d="M323.74,-293.09C306.85,-284.24 286.54,-273.84 268,-265 261.07,-261.7 253.61,-258.3 246.43,-255.12"/>
<polygon fill="midnightblue" stroke="midnightblue" points="322.26,-296.26 332.74,-297.83 325.52,-290.07 322.26,-296.26"/>
</g>
<!-- Node15 -->
<g id="node15" class="node">
<title>Node15</title>
<g id="a_node15"><a xlink:href="structemulation_1_1emulator.html#a12cf345cf8f194678758f198e4af586d" target="_top" xlink:title="Jump And Link Register.">
<polygon fill="white" stroke="black" points="152,-176 152,-206 268,-206 268,-176 152,-176"/>
<text text-anchor="start" x="160" y="-194" font-family="Helvetica,sans-Serif" font-size="10.00">emulation::emulator</text>
<text text-anchor="middle" x="210" y="-183" font-family="Helvetica,sans-Serif" font-size="10.00">::jalr_</text>
</a>
</g>
</g>
<!-- Node1&#45;&gt;Node15 -->
<g id="edge24" class="edge">
<title>Node1&#45;&gt;Node15</title>
<path fill="none" stroke="midnightblue" d="M343.26,-289.81C325.93,-268.41 297.88,-236.88 268,-216 262.77,-212.35 256.93,-209.05 251.03,-206.14"/>
<polygon fill="midnightblue" stroke="midnightblue" points="340.6,-292.1 349.57,-297.75 346.08,-287.74 340.6,-292.1"/>
</g>
<!-- Node16 -->
<g id="node16" class="node">
<title>Node16</title>
<g id="a_node16"><a xlink:href="test__emulator__add_8cpp.html#ae66f6b31b5ad750f1fe042a706a4e3d4" target="_top" xlink:title=" ">
<polygon fill="white" stroke="black" points="189.5,-0.5 189.5,-19.5 230.5,-19.5 230.5,-0.5 189.5,-0.5"/>
<text text-anchor="middle" x="210" y="-7.5" font-family="Helvetica,sans-Serif" font-size="10.00">main</text>
</a>
</g>
</g>
<!-- Node1&#45;&gt;Node16 -->
<g id="edge26" class="edge">
<title>Node1&#45;&gt;Node16</title>
<path fill="none" stroke="midnightblue" d="M360.04,-287.76C356.59,-232.95 340.74,-102.13 268,-29 258.07,-19.02 242.76,-14.28 230.51,-12.03"/>
<polygon fill="midnightblue" stroke="midnightblue" points="356.56,-288.16 360.59,-297.96 363.55,-287.78 356.56,-288.16"/>
</g>
<!-- Node17 -->
<g id="node17" class="node">
<title>Node17</title>
<g id="a_node17"><a xlink:href="structemulation_1_1emulator.html#ab87a4f2f0e06e29bdbc4215a1b3e8094" target="_top" xlink:title="SUBstract.">
<polygon fill="white" stroke="black" points="152,-127 152,-157 268,-157 268,-127 152,-127"/>
<text text-anchor="start" x="160" y="-145" font-family="Helvetica,sans-Serif" font-size="10.00">emulation::emulator</text>
<text text-anchor="middle" x="210" y="-134" font-family="Helvetica,sans-Serif" font-size="10.00">::sub_</text>
</a>
</g>
</g>
<!-- Node1&#45;&gt;Node17 -->
<g id="edge27" class="edge">
<title>Node1&#45;&gt;Node17</title>
<path fill="none" stroke="midnightblue" d="M351.09,-288.45C337,-256.34 308.34,-200.16 268,-166 263.98,-162.6 259.42,-159.62 254.66,-157.03"/>
<polygon fill="midnightblue" stroke="midnightblue" points="348,-290.14 355.15,-297.97 354.44,-287.4 348,-290.14"/>
</g>
<!-- Node2&#45;&gt;Node3 -->
<g id="edge2" class="edge">
<title>Node2&#45;&gt;Node3</title>
<path fill="none" stroke="midnightblue" d="M154.85,-610.8C153.86,-609.9 152.91,-608.97 152,-608 80.54,-531.6 63.7,-397.72 59.99,-353.01"/>
<polygon fill="midnightblue" stroke="midnightblue" points="153.01,-613.79 163.11,-616.98 157.2,-608.19 153.01,-613.79"/>
</g>
<!-- Node4 -->
<g id="node4" class="node">
<title>Node4</title>
<g id="a_node4"><a xlink:href="test__emulator__addi_8cpp.html#ae66f6b31b5ad750f1fe042a706a4e3d4" target="_top" xlink:title=" ">
<polygon fill="white" stroke="black" points="37.5,-622.5 37.5,-641.5 78.5,-641.5 78.5,-622.5 37.5,-622.5"/>
<text text-anchor="middle" x="58" y="-629.5" font-family="Helvetica,sans-Serif" font-size="10.00">main</text>
</a>
</g>
</g>
<!-- Node2&#45;&gt;Node4 -->
<g id="edge3" class="edge">
<title>Node2&#45;&gt;Node4</title>
<path fill="none" stroke="midnightblue" d="M141.75,-632C118.77,-632 94.8,-632 78.61,-632"/>
<polygon fill="midnightblue" stroke="midnightblue" points="141.86,-635.5 151.86,-632 141.86,-628.5 141.86,-635.5"/>
</g>
<!-- Node5&#45;&gt;Node3 -->
<g id="edge5" class="edge">
<title>Node5&#45;&gt;Node3</title>
<path fill="none" stroke="midnightblue" d="M155.36,-562.07C154.19,-561.09 153.07,-560.07 152,-559 91.37,-498.36 68.1,-392.21 61.32,-353.06"/>
<polygon fill="midnightblue" stroke="midnightblue" points="153.44,-565 163.63,-567.93 157.49,-559.29 153.44,-565"/>
</g>
<!-- Node6 -->
<g id="node6" class="node">
<title>Node6</title>
<g id="a_node6"><a xlink:href="test__emulator__auipc_8cpp.html#ae66f6b31b5ad750f1fe042a706a4e3d4" target="_top" xlink:title=" ">
<polygon fill="white" stroke="black" points="37.5,-573.5 37.5,-592.5 78.5,-592.5 78.5,-573.5 37.5,-573.5"/>
<text text-anchor="middle" x="58" y="-580.5" font-family="Helvetica,sans-Serif" font-size="10.00">main</text>
</a>
</g>
</g>
<!-- Node5&#45;&gt;Node6 -->
<g id="edge6" class="edge">
<title>Node5&#45;&gt;Node6</title>
<path fill="none" stroke="midnightblue" d="M141.75,-583C118.77,-583 94.8,-583 78.61,-583"/>
<polygon fill="midnightblue" stroke="midnightblue" points="141.86,-586.5 151.86,-583 141.86,-579.5 141.86,-586.5"/>
</g>
<!-- Node7&#45;&gt;Node3 -->
<g id="edge8" class="edge">
<title>Node7&#45;&gt;Node3</title>
<path fill="none" stroke="midnightblue" d="M162.16,-74.74C158.44,-77.51 154.98,-80.59 152,-84 87.38,-157.87 66.29,-280.42 60.72,-322.93"/>
<polygon fill="midnightblue" stroke="midnightblue" points="164.2,-77.59 170.62,-69.17 160.34,-71.75 164.2,-77.59"/>
</g>
<!-- Node8&#45;&gt;Node3 -->
<g id="edge10" class="edge">
<title>Node8&#45;&gt;Node3</title>
<path fill="none" stroke="midnightblue" d="M156.04,-513.34C154.63,-512.28 153.28,-511.17 152,-510 101.97,-464.61 73.52,-385.85 63.34,-353.03"/>
<polygon fill="midnightblue" stroke="midnightblue" points="154.25,-516.36 164.53,-518.91 158.08,-510.5 154.25,-516.36"/>
</g>
<!-- Node9&#45;&gt;Node3 -->
<g id="edge12" class="edge">
<title>Node9&#45;&gt;Node3</title>
<path fill="none" stroke="midnightblue" d="M157.51,-464.91C155.6,-463.67 153.76,-462.37 152,-461 112.48,-430.27 81.07,-378.8 67.01,-353.29"/>
<polygon fill="midnightblue" stroke="midnightblue" points="155.79,-467.96 166.2,-469.94 159.3,-461.9 155.79,-467.96"/>
</g>
<!-- Node10&#45;&gt;Node3 -->
<g id="edge14" class="edge">
<title>Node10&#45;&gt;Node3</title>
<path fill="none" stroke="midnightblue" d="M160.22,-416.54C157.4,-415.08 154.64,-413.57 152,-412 122.89,-394.74 92.91,-369.22 75.12,-353.11"/>
<polygon fill="midnightblue" stroke="midnightblue" points="158.84,-419.76 169.37,-420.98 161.9,-413.46 158.84,-419.76"/>
</g>
<!-- Node11&#45;&gt;Node3 -->
<g id="edge16" class="edge">
<title>Node11&#45;&gt;Node3</title>
<path fill="none" stroke="midnightblue" d="M153.1,-368.74C137.28,-363.57 120.25,-358.01 105.08,-353.05"/>
<polygon fill="midnightblue" stroke="midnightblue" points="152.18,-372.12 162.77,-371.9 154.35,-365.47 152.18,-372.12"/>
</g>
<!-- Node12&#45;&gt;Node3 -->
<g id="edge18" class="edge">
<title>Node12&#45;&gt;Node3</title>
<path fill="none" stroke="midnightblue" d="M141.69,-338C133.27,-338 124.72,-338 116.47,-338"/>
<polygon fill="midnightblue" stroke="midnightblue" points="141.86,-341.5 151.86,-338 141.86,-334.5 141.86,-341.5"/>
</g>
<!-- Node13&#45;&gt;Node3 -->
<g id="edge21" class="edge">
<title>Node13&#45;&gt;Node3</title>
<path fill="none" stroke="midnightblue" d="M153.1,-307.26C137.28,-312.43 120.25,-317.99 105.08,-322.95"/>
<polygon fill="midnightblue" stroke="midnightblue" points="154.35,-310.53 162.77,-304.1 152.18,-303.88 154.35,-310.53"/>
</g>
<!-- Node14&#45;&gt;Node3 -->
<g id="edge23" class="edge">
<title>Node14&#45;&gt;Node3</title>
<path fill="none" stroke="midnightblue" d="M161.86,-259.54C158.47,-261.29 155.15,-263.11 152,-265 123.29,-282.18 93.44,-307.08 75.54,-322.9"/>
<polygon fill="midnightblue" stroke="midnightblue" points="163.48,-262.64 170.92,-255.1 160.4,-256.36 163.48,-262.64"/>
</g>
<!-- Node15&#45;&gt;Node3 -->
<g id="edge25" class="edge">
<title>Node15&#45;&gt;Node3</title>
<path fill="none" stroke="midnightblue" d="M158.57,-211.34C156.29,-212.81 154.08,-214.36 152,-216 112.85,-246.79 81.27,-297.69 67.09,-322.9"/>
<polygon fill="midnightblue" stroke="midnightblue" points="160.78,-214.11 167.7,-206.09 157.29,-208.04 160.78,-214.11"/>
</g>
<!-- Node17&#45;&gt;Node3 -->
<g id="edge28" class="edge">
<title>Node17&#45;&gt;Node3</title>
<path fill="none" stroke="midnightblue" d="M156.04,-162.66C154.63,-163.72 153.28,-164.83 152,-166 101.97,-211.39 73.52,-290.15 63.34,-322.97"/>
<polygon fill="midnightblue" stroke="midnightblue" points="158.08,-165.5 164.53,-157.09 154.25,-159.64 158.08,-165.5"/>
</g>
</g>
</svg>
