<?xml version="1.0" encoding="UTF-8" standalone="no"?>
<!DOCTYPE svg PUBLIC "-//W3C//DTD SVG 1.1//EN"
 "http://www.w3.org/Graphics/SVG/1.1/DTD/svg11.dtd">
<!-- Generated by graphviz version 2.43.0 (0)
 -->
<!-- Title: emulation::emulator::slt_ Pages: 1 -->
<svg width="428pt" height="61pt"
 viewBox="0.00 0.00 428.00 61.00" xmlns="http://www.w3.org/2000/svg" xmlns:xlink="http://www.w3.org/1999/xlink">
<g id="graph0" class="graph" transform="scale(1 1) rotate(0) translate(4 57)">
<title>emulation::emulator::slt_</title>
<polygon fill="white" stroke="transparent" points="-4,4 -4,-57 424,-57 424,4 -4,4"/>
<!-- Node1 -->
<g id="node1" class="node">
<title>Node1</title>
<g id="a_node1"><a xlink:title="Set Less Than.">
<polygon fill="#bfbfbf" stroke="black" points="304,-22.5 304,-52.5 420,-52.5 420,-22.5 304,-22.5"/>
<text text-anchor="start" x="312" y="-40.5" font-family="Helvetica,sans-Serif" font-size="10.00">emulation::emulator</text>
<text text-anchor="middle" x="362" y="-29.5" font-family="Helvetica,sans-Serif" font-size="10.00">::slt_</text>
</a>
</g>
</g>
<!-- Node2 -->
<g id="node2" class="node">
<title>Node2</title>
<g id="a_node2"><a xlink:href="structemulation_1_1emulator.html#a2e4d099ca70b1f19761f7918159eaf63" target="_top" xlink:title=" ">
<polygon fill="white" stroke="black" points="0,-22.5 0,-52.5 116,-52.5 116,-22.5 0,-22.5"/>
<text text-anchor="start" x="8" y="-40.5" font-family="Helvetica,sans-Serif" font-size="10.00">emulation::emulator</text>
<text text-anchor="middle" x="58" y="-29.5" font-family="Helvetica,sans-Serif" font-size="10.00">::execute</text>
</a>
</g>
</g>
<!-- Node1&#45;&gt;Node2 -->
<g id="edge1" class="edge">
<title>Node1&#45;&gt;Node2</title>
<path fill="none" stroke="midnightblue" d="M293.83,-39.92C285.14,-40.16 276.36,-40.37 268,-40.5 216.45,-41.33 203.55,-41.33 152,-40.5 140.37,-40.31 127.93,-39.99 116.05,-39.63"/>
<polygon fill="midnightblue" stroke="midnightblue" points="294.06,-43.42 303.95,-39.63 293.86,-36.42 294.06,-43.42"/>
</g>
<!-- Node3 -->
<g id="node3" class="node">
<title>Node3</title>
<g id="a_node3"><a xlink:href="structemulation_1_1emulator.html#a6708f26995650c5023ba2e1f01043da3" target="_top" xlink:title="Set Less Than Immediate.">
<polygon fill="white" stroke="black" points="152,-0.5 152,-30.5 268,-30.5 268,-0.5 152,-0.5"/>
<text text-anchor="start" x="160" y="-18.5" font-family="Helvetica,sans-Serif" font-size="10.00">emulation::emulator</text>
<text text-anchor="middle" x="210" y="-7.5" font-family="Helvetica,sans-Serif" font-size="10.00">::slti_</text>
</a>
</g>
</g>
<!-- Node1&#45;&gt;Node3 -->
<g id="edge2" class="edge">
<title>Node1&#45;&gt;Node3</title>
<path fill="none" stroke="midnightblue" d="M293.97,-27.67C285.46,-26.42 276.81,-25.15 268.47,-23.93"/>
<polygon fill="midnightblue" stroke="midnightblue" points="293.46,-31.13 303.86,-29.12 294.48,-24.21 293.46,-31.13"/>
</g>
<!-- Node3&#45;&gt;Node2 -->
<g id="edge3" class="edge">
<title>Node3&#45;&gt;Node2</title>
<path fill="none" stroke="midnightblue" d="M141.97,-25.33C133.46,-26.58 124.81,-27.85 116.47,-29.07"/>
<polygon fill="midnightblue" stroke="midnightblue" points="142.48,-28.79 151.86,-23.88 141.46,-21.87 142.48,-28.79"/>
</g>
</g>
</svg>
