<?xml version="1.0" encoding="UTF-8" standalone="no"?>
<!DOCTYPE svg PUBLIC "-//W3C//DTD SVG 1.1//EN"
 "http://www.w3.org/Graphics/SVG/1.1/DTD/svg11.dtd">
<!-- Generated by graphviz version 2.43.0 (0)
 -->
<!-- Title: emulation::emulator::add_ Pages: 1 -->
<svg width="428pt" height="264pt"
 viewBox="0.00 0.00 428.00 264.00" xmlns="http://www.w3.org/2000/svg" xmlns:xlink="http://www.w3.org/1999/xlink">
<g id="graph0" class="graph" transform="scale(1 1) rotate(0) translate(4 260)">
<title>emulation::emulator::add_</title>
<polygon fill="white" stroke="transparent" points="-4,4 -4,-260 424,-260 424,4 -4,4"/>
<!-- Node1 -->
<g id="node1" class="node">
<title>Node1</title>
<g id="a_node1"><a xlink:title="ADD.">
<polygon fill="#bfbfbf" stroke="black" points="304,-112.5 304,-142.5 420,-142.5 420,-112.5 304,-112.5"/>
<text text-anchor="start" x="312" y="-130.5" font-family="Helvetica,sans-Serif" font-size="10.00">emulation::emulator</text>
<text text-anchor="middle" x="362" y="-119.5" font-family="Helvetica,sans-Serif" font-size="10.00">::add_</text>
</a>
</g>
</g>
<!-- Node2 -->
<g id="node2" class="node">
<title>Node2</title>
<g id="a_node2"><a xlink:href="structemulation_1_1emulator.html#a5f9c67126d2260f36d5149df40f3cd01" target="_top" xlink:title="Add Immediate.">
<polygon fill="white" stroke="black" points="152,-225.5 152,-255.5 268,-255.5 268,-225.5 152,-225.5"/>
<text text-anchor="start" x="160" y="-243.5" font-family="Helvetica,sans-Serif" font-size="10.00">emulation::emulator</text>
<text text-anchor="middle" x="210" y="-232.5" font-family="Helvetica,sans-Serif" font-size="10.00">::addi_</text>
</a>
</g>
</g>
<!-- Node1&#45;&gt;Node2 -->
<g id="edge1" class="edge">
<title>Node1&#45;&gt;Node2</title>
<path fill="none" stroke="midnightblue" d="M339.31,-149.65C321.24,-167.4 294.29,-192.26 268,-210.5 260.19,-215.92 251.28,-221.05 242.87,-225.48"/>
<polygon fill="midnightblue" stroke="midnightblue" points="341.86,-152.05 346.49,-142.52 336.93,-147.09 341.86,-152.05"/>
</g>
<!-- Node3 -->
<g id="node3" class="node">
<title>Node3</title>
<g id="a_node3"><a xlink:href="structemulation_1_1emulator.html#a2e4d099ca70b1f19761f7918159eaf63" target="_top" xlink:title=" ">
<polygon fill="white" stroke="black" points="0,-137.5 0,-167.5 116,-167.5 116,-137.5 0,-137.5"/>
<text text-anchor="start" x="8" y="-155.5" font-family="Helvetica,sans-Serif" font-size="10.00">emulation::emulator</text>
<text text-anchor="middle" x="58" y="-144.5" font-family="Helvetica,sans-Serif" font-size="10.00">::execute</text>
</a>
</g>
</g>
<!-- Node1&#45;&gt;Node3 -->
<g id="edge7" class="edge">
<title>Node1&#45;&gt;Node3</title>
<path fill="none" stroke="midnightblue" d="M331.46,-148.27C313.91,-159.32 290.71,-171.78 268,-177.5 213.07,-191.33 148.04,-179.25 105.28,-167.56"/>
<polygon fill="midnightblue" stroke="midnightblue" points="333.61,-151.05 340.09,-142.67 329.79,-145.18 333.61,-151.05"/>
</g>
<!-- Node5 -->
<g id="node5" class="node">
<title>Node5</title>
<g id="a_node5"><a xlink:href="structemulation_1_1emulator.html#a5c23ebba4840ee6cc2b1b1b0a83df86a" target="_top" xlink:title="Add Upper Immeddiate to PC.">
<polygon fill="white" stroke="black" points="152,-0.5 152,-30.5 268,-30.5 268,-0.5 152,-0.5"/>
<text text-anchor="start" x="160" y="-18.5" font-family="Helvetica,sans-Serif" font-size="10.00">emulation::emulator</text>
<text text-anchor="middle" x="210" y="-7.5" font-family="Helvetica,sans-Serif" font-size="10.00">::auipc_</text>
</a>
</g>
</g>
<!-- Node1&#45;&gt;Node5 -->
<g id="edge4" class="edge">
<title>Node1&#45;&gt;Node5</title>
<path fill="none" stroke="midnightblue" d="M341.03,-104.94C323.29,-85.9 295.91,-58.89 268,-40.5 262.5,-36.87 256.38,-33.55 250.25,-30.6"/>
<polygon fill="midnightblue" stroke="midnightblue" points="338.45,-107.3 347.79,-112.31 343.61,-102.57 338.45,-107.3"/>
</g>
<!-- Node7 -->
<g id="node7" class="node">
<title>Node7</title>
<g id="a_node7"><a xlink:href="structemulation_1_1emulator.html#af1e7c17730a548d7014a78c1d5b19130" target="_top" xlink:title="Increments PC by xlen (32), using an optimised add with carry.">
<polygon fill="white" stroke="black" points="152,-137.5 152,-167.5 268,-167.5 268,-137.5 152,-137.5"/>
<text text-anchor="start" x="160" y="-155.5" font-family="Helvetica,sans-Serif" font-size="10.00">emulation::emulator</text>
<text text-anchor="middle" x="210" y="-144.5" font-family="Helvetica,sans-Serif" font-size="10.00">::inc_pc</text>
</a>
</g>
</g>
<!-- Node1&#45;&gt;Node7 -->
<g id="edge8" class="edge">
<title>Node1&#45;&gt;Node7</title>
<path fill="none" stroke="midnightblue" d="M293.97,-138.67C285.46,-140.09 276.81,-141.53 268.47,-142.92"/>
<polygon fill="midnightblue" stroke="midnightblue" points="294.58,-142.12 303.86,-137.02 293.42,-135.21 294.58,-142.12"/>
</g>
<!-- Node8 -->
<g id="node8" class="node">
<title>Node8</title>
<g id="a_node8"><a xlink:href="test__emulator__add_8cpp.html#ae66f6b31b5ad750f1fe042a706a4e3d4" target="_top" xlink:title=" ">
<polygon fill="white" stroke="black" points="189.5,-50 189.5,-69 230.5,-69 230.5,-50 189.5,-50"/>
<text text-anchor="middle" x="210" y="-57" font-family="Helvetica,sans-Serif" font-size="10.00">main</text>
</a>
</g>
</g>
<!-- Node1&#45;&gt;Node8 -->
<g id="edge10" class="edge">
<title>Node1&#45;&gt;Node8</title>
<path fill="none" stroke="midnightblue" d="M326.01,-107.33C308.85,-97.89 287.69,-86.9 268,-78.5 255.82,-73.3 241.69,-68.58 230.55,-65.15"/>
<polygon fill="midnightblue" stroke="midnightblue" points="324.66,-110.58 335.1,-112.39 328.07,-104.47 324.66,-110.58"/>
</g>
<!-- Node9 -->
<g id="node9" class="node">
<title>Node9</title>
<g id="a_node9"><a xlink:href="structemulation_1_1emulator.html#af3cce7c55fd0ee41bb0ab47bb9c65b1f" target="_top" xlink:title="SUBstract.">
<polygon fill="white" stroke="black" points="152,-88.5 152,-118.5 268,-118.5 268,-88.5 152,-88.5"/>
<text text-anchor="start" x="160" y="-106.5" font-family="Helvetica,sans-Serif" font-size="10.00">emulation::emulator</text>
<text text-anchor="middle" x="210" y="-95.5" font-family="Helvetica,sans-Serif" font-size="10.00">::sub_</text>
</a>
</g>
</g>
<!-- Node1&#45;&gt;Node9 -->
<g id="edge11" class="edge">
<title>Node1&#45;&gt;Node9</title>
<path fill="none" stroke="midnightblue" d="M293.97,-116.77C285.46,-115.41 276.81,-114.03 268.47,-112.7"/>
<polygon fill="midnightblue" stroke="midnightblue" points="293.44,-120.23 303.86,-118.36 294.54,-113.32 293.44,-120.23"/>
</g>
<!-- Node2&#45;&gt;Node3 -->
<g id="edge2" class="edge">
<title>Node2&#45;&gt;Node3</title>
<path fill="none" stroke="midnightblue" d="M170.51,-220.73C164.28,-217.39 157.93,-213.9 152,-210.5 127.74,-196.58 100.68,-179.52 82.03,-167.52"/>
<polygon fill="midnightblue" stroke="midnightblue" points="169.01,-223.9 179.49,-225.49 172.29,-217.72 169.01,-223.9"/>
</g>
<!-- Node4 -->
<g id="node4" class="node">
<title>Node4</title>
<g id="a_node4"><a xlink:href="test__emulator__addi_8cpp.html#ae66f6b31b5ad750f1fe042a706a4e3d4" target="_top" xlink:title=" ">
<polygon fill="white" stroke="black" points="37.5,-231 37.5,-250 78.5,-250 78.5,-231 37.5,-231"/>
<text text-anchor="middle" x="58" y="-238" font-family="Helvetica,sans-Serif" font-size="10.00">main</text>
</a>
</g>
</g>
<!-- Node2&#45;&gt;Node4 -->
<g id="edge3" class="edge">
<title>Node2&#45;&gt;Node4</title>
<path fill="none" stroke="midnightblue" d="M141.75,-240.5C118.77,-240.5 94.8,-240.5 78.61,-240.5"/>
<polygon fill="midnightblue" stroke="midnightblue" points="141.86,-244 151.86,-240.5 141.86,-237 141.86,-244"/>
</g>
<!-- Node5&#45;&gt;Node3 -->
<g id="edge5" class="edge">
<title>Node5&#45;&gt;Node3</title>
<path fill="none" stroke="midnightblue" d="M159.28,-35.56C156.75,-37.12 154.31,-38.76 152,-40.5 115.06,-68.33 83.41,-113.6 68.36,-137.16"/>
<polygon fill="midnightblue" stroke="midnightblue" points="161.11,-38.55 168.14,-30.62 157.7,-32.43 161.11,-38.55"/>
</g>
<!-- Node6 -->
<g id="node6" class="node">
<title>Node6</title>
<g id="a_node6"><a xlink:href="test__emulator__auipc_8cpp.html#ae66f6b31b5ad750f1fe042a706a4e3d4" target="_top" xlink:title=" ">
<polygon fill="white" stroke="black" points="37.5,-6 37.5,-25 78.5,-25 78.5,-6 37.5,-6"/>
<text text-anchor="middle" x="58" y="-13" font-family="Helvetica,sans-Serif" font-size="10.00">main</text>
</a>
</g>
</g>
<!-- Node5&#45;&gt;Node6 -->
<g id="edge6" class="edge">
<title>Node5&#45;&gt;Node6</title>
<path fill="none" stroke="midnightblue" d="M141.75,-15.5C118.77,-15.5 94.8,-15.5 78.61,-15.5"/>
<polygon fill="midnightblue" stroke="midnightblue" points="141.86,-19 151.86,-15.5 141.86,-12 141.86,-19"/>
</g>
<!-- Node7&#45;&gt;Node3 -->
<g id="edge9" class="edge">
<title>Node7&#45;&gt;Node3</title>
<path fill="none" stroke="midnightblue" d="M141.69,-152.5C133.27,-152.5 124.72,-152.5 116.47,-152.5"/>
<polygon fill="midnightblue" stroke="midnightblue" points="141.86,-156 151.86,-152.5 141.86,-149 141.86,-156"/>
</g>
<!-- Node9&#45;&gt;Node3 -->
<g id="edge12" class="edge">
<title>Node9&#45;&gt;Node3</title>
<path fill="none" stroke="midnightblue" d="M153.1,-121.76C137.28,-126.93 120.25,-132.49 105.08,-137.45"/>
<polygon fill="midnightblue" stroke="midnightblue" points="154.35,-125.03 162.77,-118.6 152.18,-118.38 154.35,-125.03"/>
</g>
</g>
</svg>
