<?xml version="1.0" encoding="UTF-8" standalone="no"?>
<!DOCTYPE svg PUBLIC "-//W3C//DTD SVG 1.1//EN"
 "http://www.w3.org/Graphics/SVG/1.1/DTD/svg11.dtd">
<!-- Generated by graphviz version 2.43.0 (0)
 -->
<!-- Title: emulation::emulator::add_ Pages: 1 -->
<svg width="428pt" height="214pt"
 viewBox="0.00 0.00 428.00 214.00" xmlns="http://www.w3.org/2000/svg" xmlns:xlink="http://www.w3.org/1999/xlink">
<g id="graph0" class="graph" transform="scale(1 1) rotate(0) translate(4 210)">
<title>emulation::emulator::add_</title>
<polygon fill="white" stroke="transparent" points="-4,4 -4,-210 424,-210 424,4 -4,4"/>
<!-- Node1 -->
<g id="node1" class="node">
<title>Node1</title>
<g id="a_node1"><a xlink:title="ADD.">
<polygon fill="#bfbfbf" stroke="black" points="304,-82.5 304,-112.5 420,-112.5 420,-82.5 304,-82.5"/>
<text text-anchor="start" x="312" y="-100.5" font-family="Helvetica,sans-Serif" font-size="10.00">emulation::emulator</text>
<text text-anchor="middle" x="362" y="-89.5" font-family="Helvetica,sans-Serif" font-size="10.00">::add_</text>
</a>
</g>
</g>
<!-- Node2 -->
<g id="node2" class="node">
<title>Node2</title>
<g id="a_node2"><a xlink:href="structemulation_1_1emulator.html#a5f9c67126d2260f36d5149df40f3cd01" target="_top" xlink:title="Add Immediate.">
<polygon fill="white" stroke="black" points="152,-175.5 152,-205.5 268,-205.5 268,-175.5 152,-175.5"/>
<text text-anchor="start" x="160" y="-193.5" font-family="Helvetica,sans-Serif" font-size="10.00">emulation::emulator</text>
<text text-anchor="middle" x="210" y="-182.5" font-family="Helvetica,sans-Serif" font-size="10.00">::addi_</text>
</a>
</g>
</g>
<!-- Node1&#45;&gt;Node2 -->
<g id="edge1" class="edge">
<title>Node1&#45;&gt;Node2</title>
<path fill="none" stroke="midnightblue" d="M335.59,-118.97C317.51,-133.57 292.23,-152.68 268,-166.5 262.4,-169.69 256.3,-172.71 250.23,-175.45"/>
<polygon fill="midnightblue" stroke="midnightblue" points="337.84,-121.65 343.36,-112.61 333.41,-116.23 337.84,-121.65"/>
</g>
<!-- Node3 -->
<g id="node3" class="node">
<title>Node3</title>
<g id="a_node3"><a xlink:href="structemulation_1_1emulator.html#a2e4d099ca70b1f19761f7918159eaf63" target="_top" xlink:title=" ">
<polygon fill="white" stroke="black" points="0,-104.5 0,-134.5 116,-134.5 116,-104.5 0,-104.5"/>
<text text-anchor="start" x="8" y="-122.5" font-family="Helvetica,sans-Serif" font-size="10.00">emulation::emulator</text>
<text text-anchor="middle" x="58" y="-111.5" font-family="Helvetica,sans-Serif" font-size="10.00">::execute</text>
</a>
</g>
</g>
<!-- Node1&#45;&gt;Node3 -->
<g id="edge7" class="edge">
<title>Node1&#45;&gt;Node3</title>
<path fill="none" stroke="midnightblue" d="M293.79,-102.4C240.46,-106.28 166.71,-111.65 116.18,-115.33"/>
<polygon fill="midnightblue" stroke="midnightblue" points="294.12,-105.88 303.84,-101.66 293.61,-98.9 294.12,-105.88"/>
</g>
<!-- Node5 -->
<g id="node5" class="node">
<title>Node5</title>
<g id="a_node5"><a xlink:href="structemulation_1_1emulator.html#a5c23ebba4840ee6cc2b1b1b0a83df86a" target="_top" xlink:title="Add Upper Immeddiate to PC.">
<polygon fill="white" stroke="black" points="152,-0.5 152,-30.5 268,-30.5 268,-0.5 152,-0.5"/>
<text text-anchor="start" x="160" y="-18.5" font-family="Helvetica,sans-Serif" font-size="10.00">emulation::emulator</text>
<text text-anchor="middle" x="210" y="-7.5" font-family="Helvetica,sans-Serif" font-size="10.00">::auipc_</text>
</a>
</g>
</g>
<!-- Node1&#45;&gt;Node5 -->
<g id="edge4" class="edge">
<title>Node1&#45;&gt;Node5</title>
<path fill="none" stroke="midnightblue" d="M329.42,-76.66C311.71,-65.35 289.01,-51.48 268,-40.5 261.39,-37.05 254.21,-33.64 247.23,-30.5"/>
<polygon fill="midnightblue" stroke="midnightblue" points="327.89,-79.84 338.2,-82.31 331.68,-73.95 327.89,-79.84"/>
</g>
<!-- Node7 -->
<g id="node7" class="node">
<title>Node7</title>
<g id="a_node7"><a xlink:href="test__emulator__add_8cpp.html#ae66f6b31b5ad750f1fe042a706a4e3d4" target="_top" xlink:title=" ">
<polygon fill="white" stroke="black" points="189.5,-50 189.5,-69 230.5,-69 230.5,-50 189.5,-50"/>
<text text-anchor="middle" x="210" y="-57" font-family="Helvetica,sans-Serif" font-size="10.00">main</text>
</a>
</g>
</g>
<!-- Node1&#45;&gt;Node7 -->
<g id="edge8" class="edge">
<title>Node1&#45;&gt;Node7</title>
<path fill="none" stroke="midnightblue" d="M294.06,-80.54C270.98,-74.7 246.88,-68.59 230.61,-64.47"/>
<polygon fill="midnightblue" stroke="midnightblue" points="293.31,-83.96 303.86,-83.03 295.03,-77.18 293.31,-83.96"/>
</g>
<!-- Node8 -->
<g id="node8" class="node">
<title>Node8</title>
<g id="a_node8"><a xlink:href="structemulation_1_1emulator.html#af3cce7c55fd0ee41bb0ab47bb9c65b1f" target="_top" xlink:title="SUBstract.">
<polygon fill="white" stroke="black" points="152,-126.5 152,-156.5 268,-156.5 268,-126.5 152,-126.5"/>
<text text-anchor="start" x="160" y="-144.5" font-family="Helvetica,sans-Serif" font-size="10.00">emulation::emulator</text>
<text text-anchor="middle" x="210" y="-133.5" font-family="Helvetica,sans-Serif" font-size="10.00">::sub_</text>
</a>
</g>
</g>
<!-- Node1&#45;&gt;Node8 -->
<g id="edge9" class="edge">
<title>Node1&#45;&gt;Node8</title>
<path fill="none" stroke="midnightblue" d="M299.91,-115.42C287.39,-119.09 274.35,-122.92 262.23,-126.47"/>
<polygon fill="midnightblue" stroke="midnightblue" points="301.19,-118.69 309.8,-112.52 299.22,-111.98 301.19,-118.69"/>
</g>
<!-- Node2&#45;&gt;Node3 -->
<g id="edge2" class="edge">
<title>Node2&#45;&gt;Node3</title>
<path fill="none" stroke="midnightblue" d="M162.87,-171.4C159.18,-169.77 155.52,-168.13 152,-166.5 130.16,-156.4 105.91,-144.11 87.65,-134.63"/>
<polygon fill="midnightblue" stroke="midnightblue" points="161.47,-174.61 172.04,-175.38 164.26,-168.19 161.47,-174.61"/>
</g>
<!-- Node4 -->
<g id="node4" class="node">
<title>Node4</title>
<g id="a_node4"><a xlink:href="test__emulator__addi_8cpp.html#ae66f6b31b5ad750f1fe042a706a4e3d4" target="_top" xlink:title=" ">
<polygon fill="white" stroke="black" points="37.5,-181 37.5,-200 78.5,-200 78.5,-181 37.5,-181"/>
<text text-anchor="middle" x="58" y="-188" font-family="Helvetica,sans-Serif" font-size="10.00">main</text>
</a>
</g>
</g>
<!-- Node2&#45;&gt;Node4 -->
<g id="edge3" class="edge">
<title>Node2&#45;&gt;Node4</title>
<path fill="none" stroke="midnightblue" d="M141.75,-190.5C118.77,-190.5 94.8,-190.5 78.61,-190.5"/>
<polygon fill="midnightblue" stroke="midnightblue" points="141.86,-194 151.86,-190.5 141.86,-187 141.86,-194"/>
</g>
<!-- Node5&#45;&gt;Node3 -->
<g id="edge5" class="edge">
<title>Node5&#45;&gt;Node3</title>
<path fill="none" stroke="midnightblue" d="M161.33,-35.14C158.12,-36.85 154.98,-38.64 152,-40.5 122,-59.26 91.57,-87.16 74.03,-104.29"/>
<polygon fill="midnightblue" stroke="midnightblue" points="163.12,-38.15 170.5,-30.55 159.99,-31.89 163.12,-38.15"/>
</g>
<!-- Node6 -->
<g id="node6" class="node">
<title>Node6</title>
<g id="a_node6"><a xlink:href="test__emulator__auipc_8cpp.html#ae66f6b31b5ad750f1fe042a706a4e3d4" target="_top" xlink:title=" ">
<polygon fill="white" stroke="black" points="37.5,-6 37.5,-25 78.5,-25 78.5,-6 37.5,-6"/>
<text text-anchor="middle" x="58" y="-13" font-family="Helvetica,sans-Serif" font-size="10.00">main</text>
</a>
</g>
</g>
<!-- Node5&#45;&gt;Node6 -->
<g id="edge6" class="edge">
<title>Node5&#45;&gt;Node6</title>
<path fill="none" stroke="midnightblue" d="M141.75,-15.5C118.77,-15.5 94.8,-15.5 78.61,-15.5"/>
<polygon fill="midnightblue" stroke="midnightblue" points="141.86,-19 151.86,-15.5 141.86,-12 141.86,-19"/>
</g>
<!-- Node8&#45;&gt;Node3 -->
<g id="edge10" class="edge">
<title>Node8&#45;&gt;Node3</title>
<path fill="none" stroke="midnightblue" d="M141.97,-131.67C133.46,-130.42 124.81,-129.15 116.47,-127.93"/>
<polygon fill="midnightblue" stroke="midnightblue" points="141.46,-135.13 151.86,-133.12 142.48,-128.21 141.46,-135.13"/>
</g>
</g>
</svg>
