<?xml version="1.0" encoding="UTF-8" standalone="no"?>
<!DOCTYPE svg PUBLIC "-//W3C//DTD SVG 1.1//EN"
 "http://www.w3.org/Graphics/SVG/1.1/DTD/svg11.dtd">
<!-- Generated by graphviz version 2.43.0 (0)
 -->
<!-- Title: emulation::emulator::add_ Pages: 1 -->
<svg width="428pt" height="143pt"
 viewBox="0.00 0.00 428.00 142.60" xmlns="http://www.w3.org/2000/svg" xmlns:xlink="http://www.w3.org/1999/xlink">
<g id="graph0" class="graph" transform="scale(1 1) rotate(0) translate(4 138.6)">
<title>emulation::emulator::add_</title>
<polygon fill="white" stroke="transparent" points="-4,4 -4,-138.6 424,-138.6 424,4 -4,4"/>
<!-- Node1 -->
<g id="node1" class="node">
<title>Node1</title>
<g id="a_node1"><a xlink:title="ADD.">
<polygon fill="#bfbfbf" stroke="black" points="304,-66.5 304,-96.5 420,-96.5 420,-66.5 304,-66.5"/>
<text text-anchor="start" x="312" y="-84.5" font-family="Helvetica,sans-Serif" font-size="10.00">emulation::emulator</text>
<text text-anchor="middle" x="362" y="-73.5" font-family="Helvetica,sans-Serif" font-size="10.00">::add_</text>
</a>
</g>
</g>
<!-- Node2 -->
<g id="node2" class="node">
<title>Node2</title>
<g id="a_node2"><a xlink:href="structemulation_1_1emulator.html#a5f9c67126d2260f36d5149df40f3cd01" target="_top" xlink:title="Add Immediate.">
<polygon fill="white" stroke="black" points="152,-0.5 152,-30.5 268,-30.5 268,-0.5 152,-0.5"/>
<text text-anchor="start" x="160" y="-18.5" font-family="Helvetica,sans-Serif" font-size="10.00">emulation::emulator</text>
<text text-anchor="middle" x="210" y="-7.5" font-family="Helvetica,sans-Serif" font-size="10.00">::addi_</text>
</a>
</g>
</g>
<!-- Node1&#45;&gt;Node2 -->
<g id="edge1" class="edge">
<title>Node1&#45;&gt;Node2</title>
<path fill="none" stroke="midnightblue" d="M317.57,-62.34C301.95,-55.44 284.19,-47.62 268,-40.5 260.68,-37.28 252.83,-33.83 245.37,-30.56"/>
<polygon fill="midnightblue" stroke="midnightblue" points="316.43,-65.66 326.99,-66.49 319.26,-59.25 316.43,-65.66"/>
</g>
<!-- Node3 -->
<g id="node3" class="node">
<title>Node3</title>
<g id="a_node3"><a xlink:href="structemulation_1_1emulator.html#a2e4d099ca70b1f19761f7918159eaf63" target="_top" xlink:title=" ">
<polygon fill="white" stroke="black" points="0,-88.5 0,-118.5 116,-118.5 116,-88.5 0,-88.5"/>
<text text-anchor="start" x="8" y="-106.5" font-family="Helvetica,sans-Serif" font-size="10.00">emulation::emulator</text>
<text text-anchor="middle" x="58" y="-95.5" font-family="Helvetica,sans-Serif" font-size="10.00">::execute</text>
</a>
</g>
</g>
<!-- Node1&#45;&gt;Node3 -->
<g id="edge4" class="edge">
<title>Node1&#45;&gt;Node3</title>
<path fill="none" stroke="midnightblue" d="M329.86,-101.87C312.44,-112.05 289.88,-123.29 268,-128.5 213.43,-141.5 149.16,-129.93 106.44,-118.57"/>
<polygon fill="midnightblue" stroke="midnightblue" points="331.72,-104.84 338.47,-96.68 328.1,-98.85 331.72,-104.84"/>
</g>
<!-- Node5 -->
<g id="node5" class="node">
<title>Node5</title>
<g id="a_node5"><a xlink:href="test__emulator__add_8cpp.html#ae66f6b31b5ad750f1fe042a706a4e3d4" target="_top" xlink:title=" ">
<polygon fill="white" stroke="black" points="189.5,-50 189.5,-69 230.5,-69 230.5,-50 189.5,-50"/>
<text text-anchor="middle" x="210" y="-57" font-family="Helvetica,sans-Serif" font-size="10.00">main</text>
</a>
</g>
</g>
<!-- Node1&#45;&gt;Node5 -->
<g id="edge5" class="edge">
<title>Node1&#45;&gt;Node5</title>
<path fill="none" stroke="midnightblue" d="M293.75,-71.64C270.77,-68.27 246.8,-64.75 230.61,-62.38"/>
<polygon fill="midnightblue" stroke="midnightblue" points="293.46,-75.13 303.86,-73.12 294.48,-68.21 293.46,-75.13"/>
</g>
<!-- Node6 -->
<g id="node6" class="node">
<title>Node6</title>
<g id="a_node6"><a xlink:href="structemulation_1_1emulator.html#af3cce7c55fd0ee41bb0ab47bb9c65b1f" target="_top" xlink:title="SUBstract.">
<polygon fill="white" stroke="black" points="152,-88.5 152,-118.5 268,-118.5 268,-88.5 152,-88.5"/>
<text text-anchor="start" x="160" y="-106.5" font-family="Helvetica,sans-Serif" font-size="10.00">emulation::emulator</text>
<text text-anchor="middle" x="210" y="-95.5" font-family="Helvetica,sans-Serif" font-size="10.00">::sub_</text>
</a>
</g>
</g>
<!-- Node1&#45;&gt;Node6 -->
<g id="edge6" class="edge">
<title>Node1&#45;&gt;Node6</title>
<path fill="none" stroke="midnightblue" d="M293.97,-91.33C285.46,-92.58 276.81,-93.85 268.47,-95.07"/>
<polygon fill="midnightblue" stroke="midnightblue" points="294.48,-94.79 303.86,-89.88 293.46,-87.87 294.48,-94.79"/>
</g>
<!-- Node2&#45;&gt;Node3 -->
<g id="edge2" class="edge">
<title>Node2&#45;&gt;Node3</title>
<path fill="none" stroke="midnightblue" d="M162.8,-34.9C159.11,-36.71 155.47,-38.59 152,-40.5 125.71,-55.01 97.39,-74.86 79,-88.38"/>
<polygon fill="midnightblue" stroke="midnightblue" points="164.49,-37.97 172.03,-30.54 161.5,-31.64 164.49,-37.97"/>
</g>
<!-- Node4 -->
<g id="node4" class="node">
<title>Node4</title>
<g id="a_node4"><a xlink:href="test__emulator__addi_8cpp.html#ae66f6b31b5ad750f1fe042a706a4e3d4" target="_top" xlink:title=" ">
<polygon fill="white" stroke="black" points="37.5,-6 37.5,-25 78.5,-25 78.5,-6 37.5,-6"/>
<text text-anchor="middle" x="58" y="-13" font-family="Helvetica,sans-Serif" font-size="10.00">main</text>
</a>
</g>
</g>
<!-- Node2&#45;&gt;Node4 -->
<g id="edge3" class="edge">
<title>Node2&#45;&gt;Node4</title>
<path fill="none" stroke="midnightblue" d="M141.75,-15.5C118.77,-15.5 94.8,-15.5 78.61,-15.5"/>
<polygon fill="midnightblue" stroke="midnightblue" points="141.86,-19 151.86,-15.5 141.86,-12 141.86,-19"/>
</g>
<!-- Node6&#45;&gt;Node3 -->
<g id="edge7" class="edge">
<title>Node6&#45;&gt;Node3</title>
<path fill="none" stroke="midnightblue" d="M141.69,-103.5C133.27,-103.5 124.72,-103.5 116.47,-103.5"/>
<polygon fill="midnightblue" stroke="midnightblue" points="141.86,-107 151.86,-103.5 141.86,-100 141.86,-107"/>
</g>
</g>
</svg>
