<?xml version="1.0" encoding="UTF-8" standalone="no"?>
<!DOCTYPE svg PUBLIC "-//W3C//DTD SVG 1.1//EN"
 "http://www.w3.org/Graphics/SVG/1.1/DTD/svg11.dtd">
<!-- Generated by graphviz version 2.43.0 (0)
 -->
<!-- Title: emulation::emulator::slti_ Pages: 1 -->
<svg width="291pt" height="78pt"
 viewBox="0.00 0.00 291.00 77.50" xmlns="http://www.w3.org/2000/svg" xmlns:xlink="http://www.w3.org/1999/xlink">
<g id="graph0" class="graph" transform="scale(1 1) rotate(0) translate(4 73.5)">
<title>emulation::emulator::slti_</title>
<polygon fill="white" stroke="transparent" points="-4,4 -4,-73.5 287,-73.5 287,4 -4,4"/>
<!-- Node1 -->
<g id="node1" class="node">
<title>Node1</title>
<g id="a_node1"><a xlink:title="Set Less Than Immediate.">
<polygon fill="#bfbfbf" stroke="black" points="0,-22.5 0,-52.5 116,-52.5 116,-22.5 0,-22.5"/>
<text text-anchor="start" x="8" y="-40.5" font-family="Helvetica,sans-Serif" font-size="10.00">emulation::emulator</text>
<text text-anchor="middle" x="58" y="-29.5" font-family="Helvetica,sans-Serif" font-size="10.00">::slti_</text>
</a>
</g>
</g>
<!-- Node2 -->
<g id="node2" class="node">
<title>Node2</title>
<g id="a_node2"><a xlink:href="namespaceemulation.html#a0e3cd88b9aeee3fe41402b7dd019cfba" target="_top" xlink:title=" ">
<polygon fill="white" stroke="black" points="152,-50 152,-69 283,-69 283,-50 152,-50"/>
<text text-anchor="middle" x="217.5" y="-57" font-family="Helvetica,sans-Serif" font-size="10.00">emulation::sign_extend</text>
</a>
</g>
</g>
<!-- Node1&#45;&gt;Node2 -->
<g id="edge1" class="edge">
<title>Node1&#45;&gt;Node2</title>
<path fill="none" stroke="midnightblue" d="M116.31,-45.5C124.59,-46.66 133.21,-47.87 141.77,-49.06"/>
<polygon fill="midnightblue" stroke="midnightblue" points="141.38,-52.54 151.77,-50.46 142.35,-45.61 141.38,-52.54"/>
</g>
<!-- Node3 -->
<g id="node3" class="node">
<title>Node3</title>
<g id="a_node3"><a xlink:href="structemulation_1_1emulator.html#a69d2dbbf01d4b4627cd303f0b30f2b30" target="_top" xlink:title="Set Less Than.">
<polygon fill="white" stroke="black" points="159.5,-0.5 159.5,-30.5 275.5,-30.5 275.5,-0.5 159.5,-0.5"/>
<text text-anchor="start" x="167.5" y="-18.5" font-family="Helvetica,sans-Serif" font-size="10.00">emulation::emulator</text>
<text text-anchor="middle" x="217.5" y="-7.5" font-family="Helvetica,sans-Serif" font-size="10.00">::slt_</text>
</a>
</g>
</g>
<!-- Node1&#45;&gt;Node3 -->
<g id="edge2" class="edge">
<title>Node1&#45;&gt;Node3</title>
<path fill="none" stroke="midnightblue" d="M116.31,-29.5C127.08,-27.99 138.44,-26.4 149.48,-24.86"/>
<polygon fill="midnightblue" stroke="midnightblue" points="150.08,-28.31 159.5,-23.46 149.11,-21.38 150.08,-28.31"/>
</g>
</g>
</svg>
