<?xml version="1.0" encoding="UTF-8" standalone="no"?>
<!DOCTYPE svg PUBLIC "-//W3C//DTD SVG 1.1//EN"
 "http://www.w3.org/Graphics/SVG/1.1/DTD/svg11.dtd">
<!-- Generated by graphviz version 2.43.0 (0)
 -->
<!-- Title: emulation::emulator::auipc_ Pages: 1 -->
<svg width="276pt" height="78pt"
 viewBox="0.00 0.00 276.00 77.50" xmlns="http://www.w3.org/2000/svg" xmlns:xlink="http://www.w3.org/1999/xlink">
<g id="graph0" class="graph" transform="scale(1 1) rotate(0) translate(4 73.5)">
<title>emulation::emulator::auipc_</title>
<polygon fill="white" stroke="transparent" points="-4,4 -4,-73.5 272,-73.5 272,4 -4,4"/>
<!-- Node1 -->
<g id="node1" class="node">
<title>Node1</title>
<g id="a_node1"><a xlink:title="Add Upper Immeddiate to PC.">
<polygon fill="#bfbfbf" stroke="black" points="152,-17 152,-47 268,-47 268,-17 152,-17"/>
<text text-anchor="start" x="160" y="-35" font-family="Helvetica,sans-Serif" font-size="10.00">emulation::emulator</text>
<text text-anchor="middle" x="210" y="-24" font-family="Helvetica,sans-Serif" font-size="10.00">::auipc_</text>
</a>
</g>
</g>
<!-- Node2 -->
<g id="node2" class="node">
<title>Node2</title>
<g id="a_node2"><a xlink:href="structemulation_1_1emulator.html#a2e4d099ca70b1f19761f7918159eaf63" target="_top" xlink:title=" ">
<polygon fill="white" stroke="black" points="0,-39 0,-69 116,-69 116,-39 0,-39"/>
<text text-anchor="start" x="8" y="-57" font-family="Helvetica,sans-Serif" font-size="10.00">emulation::emulator</text>
<text text-anchor="middle" x="58" y="-46" font-family="Helvetica,sans-Serif" font-size="10.00">::execute</text>
</a>
</g>
</g>
<!-- Node1&#45;&gt;Node2 -->
<g id="edge1" class="edge">
<title>Node1&#45;&gt;Node2</title>
<path fill="none" stroke="midnightblue" d="M141.97,-41.83C133.46,-43.08 124.81,-44.35 116.47,-45.57"/>
<polygon fill="midnightblue" stroke="midnightblue" points="142.48,-45.29 151.86,-40.38 141.46,-38.37 142.48,-45.29"/>
</g>
<!-- Node3 -->
<g id="node3" class="node">
<title>Node3</title>
<g id="a_node3"><a xlink:href="test__emulator__auipc_8cpp.html#ae66f6b31b5ad750f1fe042a706a4e3d4" target="_top" xlink:title=" ">
<polygon fill="white" stroke="black" points="37.5,-0.5 37.5,-19.5 78.5,-19.5 78.5,-0.5 37.5,-0.5"/>
<text text-anchor="middle" x="58" y="-7.5" font-family="Helvetica,sans-Serif" font-size="10.00">main</text>
</a>
</g>
</g>
<!-- Node1&#45;&gt;Node3 -->
<g id="edge2" class="edge">
<title>Node1&#45;&gt;Node3</title>
<path fill="none" stroke="midnightblue" d="M141.75,-22.14C118.77,-18.77 94.8,-15.25 78.61,-12.88"/>
<polygon fill="midnightblue" stroke="midnightblue" points="141.46,-25.63 151.86,-23.62 142.48,-18.71 141.46,-25.63"/>
</g>
</g>
</svg>
