<?xml version="1.0" encoding="UTF-8" standalone="no"?>
<!DOCTYPE svg PUBLIC "-//W3C//DTD SVG 1.1//EN"
 "http://www.w3.org/Graphics/SVG/1.1/DTD/svg11.dtd">
<!-- Generated by graphviz version 2.43.0 (0)
 -->
<!-- Title: emulation::emulator::add_ Pages: 1 -->
<!--zoomable 642 -->

<svg id="main" version="1.1" xmlns="http://www.w3.org/2000/svg" xmlns:xlink="http://www.w3.org/1999/xlink" xml:space="preserve" onload="init(evt)">
<style type="text/css"><![CDATA[
.node, .edge {opacity: 0.7;}
.node.selected, .edge.selected {opacity: 1;}
.edge:hover path { stroke: red; }
.edge:hover polygon { stroke: red; fill: red; }
]]></style>

<defs>
  <circle id="rim" cx="0" cy="0" r="7"/>
  <circle id="rim2" cx="0" cy="0" r="3.5"/>
  <g id="zoomPlus">
    <use xlink:href="#rim" fill="#404040"><set attributeName="fill" to="#808080" begin="zoomplus.mouseover" end="zoomplus.mouseout"/></use>
    <path d="M-4,0h8M0,-4v8" fill="none" stroke="white" stroke-width="1.5" pointer-events="none"/>
  </g>
  <g id="zoomMin">
    <use xlink:href="#rim" fill="#404040"><set attributeName="fill" to="#808080" begin="zoomminus.mouseover" end="zoomminus.mouseout"/></use>
    <path d="M-4,0h8" fill="none" stroke="white" stroke-width="1.5" pointer-events="none"/>
  </g>
  <g id="arrowUp" transform="translate(30 24)">
    <use xlink:href="#rim"/>
    <path pointer-events="none" fill="none" stroke="white" stroke-width="1.5" d="M0,-3.0v7 M-2.5,-0.5L0,-3.0L2.5,-0.5"/>
  </g>
  <g id="arrowRight" transform="rotate(90) translate(36 -43)">
    <use xlink:href="#rim"/>
    <path pointer-events="none" fill="none" stroke="white" stroke-width="1.5" d="M0,-3.0v7 M-2.5,-0.5L0,-3.0L2.5,-0.5"/>
  </g>
  <g id="arrowDown" transform="rotate(180) translate(-30 -48)">
    <use xlink:href="#rim"/>
    <path pointer-events="none" fill="none" stroke="white" stroke-width="1.5" d="M0,-3.0v7 M-2.5,-0.5L0,-3.0L2.5,-0.5"/>
  </g>
  <g id="arrowLeft" transform="rotate(270) translate(-36 17)">
    <use xlink:href="#rim"/>
    <path pointer-events="none" fill="none" stroke="white" stroke-width="1.5" d="M0,-3.0v7 M-2.5,-0.5L0,-3.0L2.5,-0.5"/>
  </g>
  <g id="resetDef">
    <use xlink:href="#rim2" fill="#404040"><set attributeName="fill" to="#808080" begin="reset.mouseover" end="reset.mouseout"/></use>
  </g>
</defs>
<script type="application/ecmascript">
var viewWidth = 428;
var viewHeight = 642;
var sectionId = 'dynsection-1';
</script>
<script type="application/ecmascript" xlink:href="svg.min.js"/>
<svg id="graph" class="graph">
<g id="viewport">
<title>emulation::emulator::add_</title>
<!-- Node1 -->
<g id="Node000001" class="node">
<title>Node1</title>
<g id="a_Node000001"><a xlink:title="ADD.">
<polygon fill="#999999" stroke="#666666" points="420,-321.5 304,-321.5 304,-291.5 420,-291.5 420,-321.5"/>
<text text-anchor="start" x="312" y="-309.5" font-family="Helvetica,sans-Serif" font-size="10.00">emulation::emulator</text>
<text text-anchor="middle" x="362" y="-298.5" font-family="Helvetica,sans-Serif" font-size="10.00">::add_</text>
</a>
</g>
</g>
<!-- Node2 -->
<g id="Node000002" class="node">
<title>Node2</title>
<g id="a_Node000002"><a xlink:href="structemulation_1_1emulator.html#a6f512f9a45e36c98c7248f3f0004123a" target="_top" xlink:title="Add Immediate.">
<polygon fill="white" stroke="#666666" points="268,-633.5 152,-633.5 152,-603.5 268,-603.5 268,-633.5"/>
<text text-anchor="start" x="160" y="-621.5" font-family="Helvetica,sans-Serif" font-size="10.00">emulation::emulator</text>
<text text-anchor="middle" x="210" y="-610.5" font-family="Helvetica,sans-Serif" font-size="10.00">::addi_</text>
</a>
</g>
</g>
<!-- Node1&#45;&gt;Node2 -->
<g id="edge1_Node000001_Node000002" class="edge">
<title>Node1&#45;&gt;Node2</title>
<g id="a_edge1_Node000001_Node000002"><a xlink:title=" ">
<path fill="none" stroke="#63b8ff" d="M359.69,-332.07C355.56,-387.04 338.45,-517.71 268,-594.5 264.88,-597.9 261.2,-600.84 257.23,-603.37"/>
<polygon fill="#63b8ff" stroke="#63b8ff" points="363.2,-332.04 360.38,-321.82 356.22,-331.57 363.2,-332.04"/>
</a>
</g>
</g>
<!-- Node3 -->
<g id="Node000003" class="node">
<title>Node3</title>
<g id="a_Node000003"><a xlink:href="structemulation_1_1emulator.html#a2e4d099ca70b1f19761f7918159eaf63" target="_top" xlink:title=" ">
<polygon fill="white" stroke="#666666" points="116,-345.5 0,-345.5 0,-315.5 116,-315.5 116,-345.5"/>
<text text-anchor="start" x="8" y="-333.5" font-family="Helvetica,sans-Serif" font-size="10.00">emulation::emulator</text>
<text text-anchor="middle" x="58" y="-322.5" font-family="Helvetica,sans-Serif" font-size="10.00">::execute</text>
</a>
</g>
</g>
<!-- Node1&#45;&gt;Node3 -->
<g id="edge19_Node000001_Node000003" class="edge">
<title>Node1&#45;&gt;Node3</title>
<g id="a_edge19_Node000001_Node000003"><a xlink:title=" ">
<path fill="none" stroke="#63b8ff" d="M357.41,-281.56C349.73,-238.6 327.31,-151.67 268,-114.5 224.32,-87.12 195.06,-86.16 152,-114.5 81.06,-161.19 64,-274.6 60.1,-315.49"/>
<polygon fill="#63b8ff" stroke="#63b8ff" points="353.97,-282.19 359.06,-291.48 360.87,-281.04 353.97,-282.19"/>
</a>
</g>
</g>
<!-- Node5 -->
<g id="Node000005" class="node">
<title>Node5</title>
<g id="a_Node000005"><a xlink:href="structemulation_1_1emulator.html#a5c23ebba4840ee6cc2b1b1b0a83df86a" target="_top" xlink:title="Add Upper Immeddiate to PC.">
<polygon fill="white" stroke="#666666" points="268,-585.5 152,-585.5 152,-555.5 268,-555.5 268,-585.5"/>
<text text-anchor="start" x="160" y="-573.5" font-family="Helvetica,sans-Serif" font-size="10.00">emulation::emulator</text>
<text text-anchor="middle" x="210" y="-562.5" font-family="Helvetica,sans-Serif" font-size="10.00">::auipc_</text>
</a>
</g>
</g>
<!-- Node1&#45;&gt;Node5 -->
<g id="edge4_Node000001_Node000005" class="edge">
<title>Node1&#45;&gt;Node5</title>
<g id="a_edge4_Node000001_Node000005"><a xlink:title=" ">
<path fill="none" stroke="#63b8ff" d="M357.79,-331.74C350.43,-379.68 328.09,-484.65 268,-546.5 264.71,-549.89 260.86,-552.82 256.75,-555.35"/>
<polygon fill="#63b8ff" stroke="#63b8ff" points="361.29,-332.01 359.25,-321.62 354.36,-331.02 361.29,-332.01"/>
</a>
</g>
</g>
<!-- Node7 -->
<g id="Node000007" class="node">
<title>Node7</title>
<g id="a_Node000007"><a xlink:href="structemulation_1_1emulator.html#a4764c8f8a813222723736010fe06c6f8" target="_top" xlink:title="Branch EQual.">
<polygon fill="white" stroke="#666666" points="268,-67.5 152,-67.5 152,-37.5 268,-37.5 268,-67.5"/>
<text text-anchor="start" x="160" y="-55.5" font-family="Helvetica,sans-Serif" font-size="10.00">emulation::emulator</text>
<text text-anchor="middle" x="210" y="-44.5" font-family="Helvetica,sans-Serif" font-size="10.00">::beq_</text>
</a>
</g>
</g>
<!-- Node1&#45;&gt;Node7 -->
<g id="edge7_Node000001_Node000007" class="edge">
<title>Node1&#45;&gt;Node7</title>
<g id="a_edge7_Node000001_Node000007"><a xlink:title=" ">
<path fill="none" stroke="#63b8ff" d="M356.56,-281.33C347.42,-236.16 322.6,-140.57 268,-81.5 262.95,-76.04 256.64,-71.45 250.07,-67.65"/>
<polygon fill="#63b8ff" stroke="#63b8ff" points="353.17,-282.27 358.51,-291.42 360.05,-280.94 353.17,-282.27"/>
</a>
</g>
</g>
<!-- Node8 -->
<g id="Node000008" class="node">
<title>Node8</title>
<g id="a_Node000008"><a xlink:href="structemulation_1_1emulator.html#aa8436f1782c600c2602784550783dd1d" target="_top" xlink:title="Branch Greater than or Equal.">
<polygon fill="white" stroke="#666666" points="268,-537.5 152,-537.5 152,-507.5 268,-507.5 268,-537.5"/>
<text text-anchor="start" x="160" y="-525.5" font-family="Helvetica,sans-Serif" font-size="10.00">emulation::emulator</text>
<text text-anchor="middle" x="210" y="-514.5" font-family="Helvetica,sans-Serif" font-size="10.00">::bge_</text>
</a>
</g>
</g>
<!-- Node1&#45;&gt;Node8 -->
<g id="edge9_Node000001_Node000008" class="edge">
<title>Node1&#45;&gt;Node8</title>
<g id="a_edge9_Node000001_Node000008"><a xlink:title=" ">
<path fill="none" stroke="#63b8ff" d="M355.05,-331.45C344.26,-371.7 317.82,-451.23 268,-498.5 264.42,-501.9 260.28,-504.85 255.91,-507.41"/>
<polygon fill="#63b8ff" stroke="#63b8ff" points="358.47,-332.21 357.58,-321.65 351.69,-330.46 358.47,-332.21"/>
</a>
</g>
</g>
<!-- Node9 -->
<g id="Node000009" class="node">
<title>Node9</title>
<g id="a_Node000009"><a xlink:href="structemulation_1_1emulator.html#a9aba50a40e49223010db0ab4379859e3" target="_top" xlink:title="Branch Greater than or Equal Unsigned.">
<polygon fill="white" stroke="#666666" points="268,-489.5 152,-489.5 152,-459.5 268,-459.5 268,-489.5"/>
<text text-anchor="start" x="160" y="-477.5" font-family="Helvetica,sans-Serif" font-size="10.00">emulation::emulator</text>
<text text-anchor="middle" x="210" y="-466.5" font-family="Helvetica,sans-Serif" font-size="10.00">::bgeu_</text>
</a>
</g>
</g>
<!-- Node1&#45;&gt;Node9 -->
<g id="edge11_Node000001_Node000009" class="edge">
<title>Node1&#45;&gt;Node9</title>
<g id="a_edge11_Node000001_Node000009"><a xlink:title=" ">
<path fill="none" stroke="#63b8ff" d="M350.74,-331.03C336.43,-362.56 307.71,-417.19 268,-450.5 263.97,-453.88 259.39,-456.85 254.63,-459.43"/>
<polygon fill="#63b8ff" stroke="#63b8ff" points="354.04,-332.23 354.87,-321.66 347.63,-329.4 354.04,-332.23"/>
</a>
</g>
</g>
<!-- Node10 -->
<g id="Node000010" class="node">
<title>Node10</title>
<g id="a_Node000010"><a xlink:href="structemulation_1_1emulator.html#aff0ad86baa02712f534562bb703e66dc" target="_top" xlink:title="Branch Less Than.">
<polygon fill="white" stroke="#666666" points="268,-441.5 152,-441.5 152,-411.5 268,-411.5 268,-441.5"/>
<text text-anchor="start" x="160" y="-429.5" font-family="Helvetica,sans-Serif" font-size="10.00">emulation::emulator</text>
<text text-anchor="middle" x="210" y="-418.5" font-family="Helvetica,sans-Serif" font-size="10.00">::blt_</text>
</a>
</g>
</g>
<!-- Node1&#45;&gt;Node10 -->
<g id="edge13_Node000001_Node000010" class="edge">
<title>Node1&#45;&gt;Node10</title>
<g id="a_edge13_Node000001_Node000010"><a xlink:title=" ">
<path fill="none" stroke="#63b8ff" d="M343.28,-329.54C325.97,-350.78 297.93,-382.03 268,-402.5 263.21,-405.77 257.91,-408.73 252.52,-411.37"/>
<polygon fill="#63b8ff" stroke="#63b8ff" points="346.07,-331.65 349.58,-321.66 340.6,-327.28 346.07,-331.65"/>
</a>
</g>
</g>
<!-- Node11 -->
<g id="Node000011" class="node">
<title>Node11</title>
<g id="a_Node000011"><a xlink:href="structemulation_1_1emulator.html#abc914f48206b4623f88d1c9b11ba8cde" target="_top" xlink:title="Branch Less Than Unsigned.">
<polygon fill="white" stroke="#666666" points="268,-393.5 152,-393.5 152,-363.5 268,-363.5 268,-393.5"/>
<text text-anchor="start" x="160" y="-381.5" font-family="Helvetica,sans-Serif" font-size="10.00">emulation::emulator</text>
<text text-anchor="middle" x="210" y="-370.5" font-family="Helvetica,sans-Serif" font-size="10.00">::bltu_</text>
</a>
</g>
</g>
<!-- Node1&#45;&gt;Node11 -->
<g id="edge15_Node000001_Node000011" class="edge">
<title>Node1&#45;&gt;Node11</title>
<g id="a_edge15_Node000001_Node000011"><a xlink:title=" ">
<path fill="none" stroke="#63b8ff" d="M324.18,-326.34C307.22,-335.26 286.75,-345.73 268,-354.5 261.58,-357.5 254.68,-360.55 247.98,-363.42"/>
<polygon fill="#63b8ff" stroke="#63b8ff" points="326,-329.34 333.2,-321.57 322.73,-323.15 326,-329.34"/>
</a>
</g>
</g>
<!-- Node12 -->
<g id="Node000012" class="node">
<title>Node12</title>
<g id="a_Node000012"><a xlink:href="structemulation_1_1emulator.html#aea1938f1f04e4fd1c6ce359da8ec0f13" target="_top" xlink:title="Branch Not Equal.">
<polygon fill="white" stroke="#666666" points="268,-345.5 152,-345.5 152,-315.5 268,-315.5 268,-345.5"/>
<text text-anchor="start" x="160" y="-333.5" font-family="Helvetica,sans-Serif" font-size="10.00">emulation::emulator</text>
<text text-anchor="middle" x="210" y="-322.5" font-family="Helvetica,sans-Serif" font-size="10.00">::bne_</text>
</a>
</g>
</g>
<!-- Node1&#45;&gt;Node12 -->
<g id="edge17_Node000001_Node000012" class="edge">
<title>Node1&#45;&gt;Node12</title>
<g id="a_edge17_Node000001_Node000012"><a xlink:title=" ">
<path fill="none" stroke="#63b8ff" d="M293.97,-317.23C285.46,-318.59 276.81,-319.97 268.47,-321.3"/>
<polygon fill="#63b8ff" stroke="#63b8ff" points="294.54,-320.68 303.86,-315.64 293.44,-313.77 294.54,-320.68"/>
</a>
</g>
</g>
<!-- Node13 -->
<g id="Node000013" class="node">
<title>Node13</title>
<g id="a_Node000013"><a xlink:href="structemulation_1_1emulator.html#a94bdc593369f294fdb1927135edc18a8" target="_top" xlink:title="Increments PC by xlen (32), using an optimised add with carry.">
<polygon fill="white" stroke="#666666" points="268,-297.5 152,-297.5 152,-267.5 268,-267.5 268,-297.5"/>
<text text-anchor="start" x="160" y="-285.5" font-family="Helvetica,sans-Serif" font-size="10.00">emulation::emulator</text>
<text text-anchor="middle" x="210" y="-274.5" font-family="Helvetica,sans-Serif" font-size="10.00">::increment_pc</text>
</a>
</g>
</g>
<!-- Node1&#45;&gt;Node13 -->
<g id="edge20_Node000001_Node000013" class="edge">
<title>Node1&#45;&gt;Node13</title>
<g id="a_edge20_Node000001_Node000013"><a xlink:title=" ">
<path fill="none" stroke="#63b8ff" d="M293.97,-295.77C285.46,-294.41 276.81,-293.03 268.47,-291.7"/>
<polygon fill="#63b8ff" stroke="#63b8ff" points="293.44,-299.23 303.86,-297.36 294.54,-292.32 293.44,-299.23"/>
</a>
</g>
</g>
<!-- Node14 -->
<g id="Node000014" class="node">
<title>Node14</title>
<g id="a_Node000014"><a xlink:href="structemulation_1_1emulator.html#a6d495ced29be5a5f0f9eb07b8044cbb9" target="_top" xlink:title="Jump And Link.">
<polygon fill="white" stroke="#666666" points="268,-249.5 152,-249.5 152,-219.5 268,-219.5 268,-249.5"/>
<text text-anchor="start" x="160" y="-237.5" font-family="Helvetica,sans-Serif" font-size="10.00">emulation::emulator</text>
<text text-anchor="middle" x="210" y="-226.5" font-family="Helvetica,sans-Serif" font-size="10.00">::jal_</text>
</a>
</g>
</g>
<!-- Node1&#45;&gt;Node14 -->
<g id="edge22_Node000001_Node000014" class="edge">
<title>Node1&#45;&gt;Node14</title>
<g id="a_edge22_Node000001_Node000014"><a xlink:title=" ">
<path fill="none" stroke="#63b8ff" d="M324.18,-286.66C307.22,-277.74 286.75,-267.27 268,-258.5 261.58,-255.5 254.68,-252.45 247.98,-249.58"/>
<polygon fill="#63b8ff" stroke="#63b8ff" points="322.73,-289.85 333.2,-291.43 326,-283.66 322.73,-289.85"/>
</a>
</g>
</g>
<!-- Node15 -->
<g id="Node000015" class="node">
<title>Node15</title>
<g id="a_Node000015"><a xlink:href="structemulation_1_1emulator.html#a12cf345cf8f194678758f198e4af586d" target="_top" xlink:title="Jump And Link Register.">
<polygon fill="white" stroke="#666666" points="268,-201.5 152,-201.5 152,-171.5 268,-171.5 268,-201.5"/>
<text text-anchor="start" x="160" y="-189.5" font-family="Helvetica,sans-Serif" font-size="10.00">emulation::emulator</text>
<text text-anchor="middle" x="210" y="-178.5" font-family="Helvetica,sans-Serif" font-size="10.00">::jalr_</text>
</a>
</g>
</g>
<!-- Node1&#45;&gt;Node15 -->
<g id="edge24_Node000001_Node000015" class="edge">
<title>Node1&#45;&gt;Node15</title>
<g id="a_edge24_Node000001_Node000015"><a xlink:title=" ">
<path fill="none" stroke="#63b8ff" d="M343.28,-283.46C325.97,-262.22 297.93,-230.97 268,-210.5 263.21,-207.23 257.91,-204.27 252.52,-201.63"/>
<polygon fill="#63b8ff" stroke="#63b8ff" points="340.6,-285.72 349.58,-291.34 346.07,-281.35 340.6,-285.72"/>
</a>
</g>
</g>
<!-- Node16 -->
<g id="Node000016" class="node">
<title>Node16</title>
<g id="a_Node000016"><a xlink:href="test__emulator__add_8cpp.html#ae66f6b31b5ad750f1fe042a706a4e3d4" target="_top" xlink:title=" ">
<polygon fill="white" stroke="#666666" points="230.5,-19 189.5,-19 189.5,0 230.5,0 230.5,-19"/>
<text text-anchor="middle" x="210" y="-7" font-family="Helvetica,sans-Serif" font-size="10.00">main</text>
</a>
</g>
</g>
<!-- Node1&#45;&gt;Node16 -->
<g id="edge26_Node000001_Node000016" class="edge">
<title>Node1&#45;&gt;Node16</title>
<g id="a_edge26_Node000001_Node000016"><a xlink:title=" ">
<path fill="none" stroke="#63b8ff" d="M359.84,-281.4C355.99,-227.5 339.41,-99.84 268,-28.5 258.11,-18.62 242.96,-13.88 230.76,-11.6"/>
<polygon fill="#63b8ff" stroke="#63b8ff" points="356.35,-281.68 360.47,-291.44 363.34,-281.24 356.35,-281.68"/>
</a>
</g>
</g>
<!-- Node17 -->
<g id="Node000017" class="node">
<title>Node17</title>
<g id="a_Node000017"><a xlink:href="structemulation_1_1emulator.html#ab87a4f2f0e06e29bdbc4215a1b3e8094" target="_top" xlink:title="SUBstract.">
<polygon fill="white" stroke="#666666" points="268,-153.5 152,-153.5 152,-123.5 268,-123.5 268,-153.5"/>
<text text-anchor="start" x="160" y="-141.5" font-family="Helvetica,sans-Serif" font-size="10.00">emulation::emulator</text>
<text text-anchor="middle" x="210" y="-130.5" font-family="Helvetica,sans-Serif" font-size="10.00">::sub_</text>
</a>
</g>
</g>
<!-- Node1&#45;&gt;Node17 -->
<g id="edge27_Node000001_Node000017" class="edge">
<title>Node1&#45;&gt;Node17</title>
<g id="a_edge27_Node000001_Node000017"><a xlink:title=" ">
<path fill="none" stroke="#63b8ff" d="M350.74,-281.97C336.43,-250.44 307.71,-195.81 268,-162.5 263.97,-159.12 259.39,-156.15 254.63,-153.57"/>
<polygon fill="#63b8ff" stroke="#63b8ff" points="347.63,-283.6 354.87,-291.34 354.04,-280.77 347.63,-283.6"/>
</a>
</g>
</g>
<!-- Node2&#45;&gt;Node3 -->
<g id="edge2_Node000002_Node000003" class="edge">
<title>Node2&#45;&gt;Node3</title>
<g id="a_edge2_Node000002_Node000003"><a xlink:title=" ">
<path fill="none" stroke="#63b8ff" d="M154.86,-597.29C153.87,-596.4 152.91,-595.47 152,-594.5 82.03,-520.22 64.27,-390.16 60.15,-345.81"/>
<polygon fill="#63b8ff" stroke="#63b8ff" points="153.03,-600.29 163.14,-603.46 157.21,-594.68 153.03,-600.29"/>
</a>
</g>
</g>
<!-- Node4 -->
<g id="Node000004" class="node">
<title>Node4</title>
<g id="a_Node000004"><a xlink:href="test__emulator__addi_8cpp.html#ae66f6b31b5ad750f1fe042a706a4e3d4" target="_top" xlink:title=" ">
<polygon fill="white" stroke="#666666" points="78.5,-628 37.5,-628 37.5,-609 78.5,-609 78.5,-628"/>
<text text-anchor="middle" x="58" y="-616" font-family="Helvetica,sans-Serif" font-size="10.00">main</text>
</a>
</g>
</g>
<!-- Node2&#45;&gt;Node4 -->
<g id="edge3_Node000002_Node000004" class="edge">
<title>Node2&#45;&gt;Node4</title>
<g id="a_edge3_Node000002_Node000004"><a xlink:title=" ">
<path fill="none" stroke="#63b8ff" d="M141.75,-618.5C118.77,-618.5 94.8,-618.5 78.61,-618.5"/>
<polygon fill="#63b8ff" stroke="#63b8ff" points="141.86,-622 151.86,-618.5 141.86,-615 141.86,-622"/>
</a>
</g>
</g>
<!-- Node5&#45;&gt;Node3 -->
<g id="edge5_Node000005_Node000003" class="edge">
<title>Node5&#45;&gt;Node3</title>
<g id="a_edge5_Node000005_Node000003"><a xlink:title=" ">
<path fill="none" stroke="#63b8ff" d="M155.37,-549.56C154.2,-548.58 153.07,-547.56 152,-546.5 92.43,-487.41 68.57,-384 61.48,-345.5"/>
<polygon fill="#63b8ff" stroke="#63b8ff" points="153.47,-552.5 163.66,-555.4 157.5,-546.78 153.47,-552.5"/>
</a>
</g>
</g>
<!-- Node6 -->
<g id="Node000006" class="node">
<title>Node6</title>
<g id="a_Node000006"><a xlink:href="test__emulator__auipc_8cpp.html#ae66f6b31b5ad750f1fe042a706a4e3d4" target="_top" xlink:title=" ">
<polygon fill="white" stroke="#666666" points="78.5,-580 37.5,-580 37.5,-561 78.5,-561 78.5,-580"/>
<text text-anchor="middle" x="58" y="-568" font-family="Helvetica,sans-Serif" font-size="10.00">main</text>
</a>
</g>
</g>
<!-- Node5&#45;&gt;Node6 -->
<g id="edge6_Node000005_Node000006" class="edge">
<title>Node5&#45;&gt;Node6</title>
<g id="a_edge6_Node000005_Node000006"><a xlink:title=" ">
<path fill="none" stroke="#63b8ff" d="M141.75,-570.5C118.77,-570.5 94.8,-570.5 78.61,-570.5"/>
<polygon fill="#63b8ff" stroke="#63b8ff" points="141.86,-574 151.86,-570.5 141.86,-567 141.86,-574"/>
</a>
</g>
</g>
<!-- Node7&#45;&gt;Node3 -->
<g id="edge8_Node000007_Node000003" class="edge">
<title>Node7&#45;&gt;Node3</title>
<g id="a_edge8_Node000007_Node000003"><a xlink:title=" ">
<path fill="none" stroke="#63b8ff" d="M161.14,-73.2C157.81,-75.71 154.71,-78.47 152,-81.5 87.92,-153.27 66.53,-273.3 60.8,-315.38"/>
<polygon fill="#63b8ff" stroke="#63b8ff" points="163.35,-75.94 169.77,-67.51 159.5,-70.09 163.35,-75.94"/>
</a>
</g>
</g>
<!-- Node8&#45;&gt;Node3 -->
<g id="edge10_Node000008_Node000003" class="edge">
<title>Node8&#45;&gt;Node3</title>
<g id="a_edge10_Node000008_Node000003"><a xlink:title=" ">
<path fill="none" stroke="#63b8ff" d="M156.05,-501.83C154.65,-500.77 153.29,-499.66 152,-498.5 102.89,-454.39 74.12,-378.01 63.6,-345.67"/>
<polygon fill="#63b8ff" stroke="#63b8ff" points="154.28,-504.85 164.57,-507.37 158.1,-498.98 154.28,-504.85"/>
</a>
</g>
</g>
<!-- Node9&#45;&gt;Node3 -->
<g id="edge12_Node000009_Node000003" class="edge">
<title>Node9&#45;&gt;Node3</title>
<g id="a_edge12_Node000009_Node000003"><a xlink:title=" ">
<path fill="none" stroke="#63b8ff" d="M157.53,-454.38C155.62,-453.15 153.76,-451.86 152,-450.5 113.12,-420.64 81.64,-370.82 67.34,-345.81"/>
<polygon fill="#63b8ff" stroke="#63b8ff" points="155.83,-457.44 166.24,-459.4 159.32,-451.37 155.83,-457.44"/>
</a>
</g>
</g>
<!-- Node10&#45;&gt;Node3 -->
<g id="edge14_Node000010_Node000003" class="edge">
<title>Node10&#45;&gt;Node3</title>
<g id="a_edge14_Node000010_Node000003"><a xlink:title=" ">
<path fill="none" stroke="#63b8ff" d="M160.25,-406.99C157.42,-405.55 154.65,-404.05 152,-402.5 123.44,-385.82 93.78,-361.41 75.86,-345.75"/>
<polygon fill="#63b8ff" stroke="#63b8ff" points="158.88,-410.22 169.41,-411.41 161.92,-403.92 158.88,-410.22"/>
</a>
</g>
</g>
<!-- Node11&#45;&gt;Node3 -->
<g id="edge16_Node000011_Node000003" class="edge">
<title>Node11&#45;&gt;Node3</title>
<g id="a_edge16_Node000011_Node000003"><a xlink:title=" ">
<path fill="none" stroke="#63b8ff" d="M152.11,-360.29C136.85,-355.41 120.53,-350.19 105.88,-345.5"/>
<polygon fill="#63b8ff" stroke="#63b8ff" points="151.36,-363.73 161.95,-363.44 153.49,-357.06 151.36,-363.73"/>
</a>
</g>
</g>
<!-- Node12&#45;&gt;Node3 -->
<g id="edge18_Node000012_Node000003" class="edge">
<title>Node12&#45;&gt;Node3</title>
<g id="a_edge18_Node000012_Node000003"><a xlink:title=" ">
<path fill="none" stroke="#63b8ff" d="M141.69,-330.5C133.27,-330.5 124.72,-330.5 116.47,-330.5"/>
<polygon fill="#63b8ff" stroke="#63b8ff" points="141.86,-334 151.86,-330.5 141.86,-327 141.86,-334"/>
</a>
</g>
</g>
<!-- Node13&#45;&gt;Node3 -->
<g id="edge21_Node000013_Node000003" class="edge">
<title>Node13&#45;&gt;Node3</title>
<g id="a_edge21_Node000013_Node000003"><a xlink:title=" ">
<path fill="none" stroke="#63b8ff" d="M152.11,-300.71C136.85,-305.59 120.53,-310.81 105.88,-315.5"/>
<polygon fill="#63b8ff" stroke="#63b8ff" points="153.49,-303.94 161.95,-297.56 151.36,-297.27 153.49,-303.94"/>
</a>
</g>
</g>
<!-- Node14&#45;&gt;Node3 -->
<g id="edge23_Node000014_Node000003" class="edge">
<title>Node14&#45;&gt;Node3</title>
<g id="a_edge23_Node000014_Node000003"><a xlink:title=" ">
<path fill="none" stroke="#63b8ff" d="M160.25,-254.01C157.42,-255.45 154.65,-256.95 152,-258.5 123.44,-275.18 93.78,-299.59 75.86,-315.25"/>
<polygon fill="#63b8ff" stroke="#63b8ff" points="161.92,-257.08 169.41,-249.59 158.88,-250.78 161.92,-257.08"/>
</a>
</g>
</g>
<!-- Node15&#45;&gt;Node3 -->
<g id="edge25_Node000015_Node000003" class="edge">
<title>Node15&#45;&gt;Node3</title>
<g id="a_edge25_Node000015_Node000003"><a xlink:title=" ">
<path fill="none" stroke="#63b8ff" d="M157.53,-206.62C155.62,-207.85 153.76,-209.14 152,-210.5 113.12,-240.36 81.64,-290.18 67.34,-315.19"/>
<polygon fill="#63b8ff" stroke="#63b8ff" points="159.32,-209.63 166.24,-201.6 155.83,-203.56 159.32,-209.63"/>
</a>
</g>
</g>
<!-- Node17&#45;&gt;Node3 -->
<g id="edge28_Node000017_Node000003" class="edge">
<title>Node17&#45;&gt;Node3</title>
<g id="a_edge28_Node000017_Node000003"><a xlink:title=" ">
<path fill="none" stroke="#63b8ff" d="M156.05,-159.17C154.65,-160.23 153.29,-161.34 152,-162.5 102.89,-206.61 74.12,-282.99 63.6,-315.33"/>
<polygon fill="#63b8ff" stroke="#63b8ff" points="158.1,-162.02 164.57,-153.63 154.28,-156.15 158.1,-162.02"/>
</a>
</g>
</g>
</g>
</svg>

<g id="navigator" transform="translate(0 0)" fill="#404254">
  <rect fill="#f2f5e9" fill-opacity="0.5" stroke="#606060" stroke-width=".5" x="0" y="0" width="60" height="60"/>
  <use id="zoomplus" xlink:href="#zoomPlus" x="17" y="9" onmousedown="handleZoom(evt,'in')"/>
  <use id="zoomminus" xlink:href="#zoomMin" x="42" y="9" onmousedown="handleZoom(evt,'out')"/>
  <use id="reset" xlink:href="#resetDef" x="30" y="36" onmousedown="handleReset()"/>
   <use id="arrowup" xlink:href="#arrowUp" x="0" y="0" onmousedown="handlePan(0,-1)"/>
  <use id="arrowright" xlink:href="#arrowRight" x="0" y="0" onmousedown="handlePan(1,0)"/>
  <use id="arrowdown" xlink:href="#arrowDown" x="0" y="0" onmousedown="handlePan(0,1)"/>
  <use id="arrowleft" xlink:href="#arrowLeft" x="0" y="0" onmousedown="handlePan(-1,0)"/>
</g>
<svg viewBox="0 0 15 15" width="100%" height="30px" preserveAspectRatio="xMaxYMin meet">
 <g id="arrow_out" transform="scale(0.3 0.3)">
  <a xlink:href="structemulation_1_1emulator_abb02b50bf20caacea80357c21d0dd6a2_icgraph_org.svg" target="_base">
   <rect id="button" ry="5" rx="5" y="6" x="6" height="38" width="38"
        fill="#f2f5e9" fill-opacity="0.5" stroke="#606060" stroke-width="1.0"/>
   <path id="arrow"
     d="M 11.500037,31.436501 C 11.940474,20.09759 22.043105,11.32322 32.158766,21.979434 L 37.068811,17.246167 C 37.068811,17.246167 37.088388,32 37.088388,32 L 22.160133,31.978069 C 22.160133,31.978069 26.997745,27.140456 26.997745,27.140456 C 18.528582,18.264221 13.291696,25.230495 11.500037,31.436501 z"
     style="fill:#404040;"/>
  </a>
 </g>
</svg>

<style type='text/css'>
<![CDATA[
[data-mouse-over-selected='false'] { opacity: 0.7; }
[data-mouse-over-selected='true']  { opacity: 1.0; }
]]>
</style>
<script type="application/ecmascript"><![CDATA[
document.addEventListener('DOMContentLoaded', (event) => {
  highlightEdges();
  highlightAdjacentNodes();
});
]]></script>
</svg>
