<?xml version="1.0" encoding="UTF-8" standalone="no"?>
<!DOCTYPE svg PUBLIC "-//W3C//DTD SVG 1.1//EN"
 "http://www.w3.org/Graphics/SVG/1.1/DTD/svg11.dtd">
<!-- Generated by graphviz version 2.43.0 (0)
 -->
<!-- Title: emulation::emulator::add_ Pages: 1 -->
<svg width="353pt" height="127pt"
 viewBox="0.00 0.00 353.00 127.00" xmlns="http://www.w3.org/2000/svg" xmlns:xlink="http://www.w3.org/1999/xlink">
<g id="graph0" class="graph" transform="scale(1 1) rotate(0) translate(4 123)">
<title>emulation::emulator::add_</title>
<polygon fill="white" stroke="transparent" points="-4,4 -4,-123 349,-123 349,4 -4,4"/>
<!-- Node1 -->
<g id="node1" class="node">
<title>Node1</title>
<g id="a_node1"><a xlink:title="ADD.">
<polygon fill="#bfbfbf" stroke="black" points="229,-44.5 229,-74.5 345,-74.5 345,-44.5 229,-44.5"/>
<text text-anchor="start" x="237" y="-62.5" font-family="Helvetica,sans-Serif" font-size="10.00">emulation::emulator</text>
<text text-anchor="middle" x="287" y="-51.5" font-family="Helvetica,sans-Serif" font-size="10.00">::add_</text>
</a>
</g>
</g>
<!-- Node2 -->
<g id="node2" class="node">
<title>Node2</title>
<g id="a_node2"><a xlink:href="structemulation_1_1emulator.html#a842d140c755023a3a4a1f2194e506b75" target="_top" xlink:title="Add Immediate.">
<polygon fill="white" stroke="black" points="77,-88.5 77,-118.5 193,-118.5 193,-88.5 77,-88.5"/>
<text text-anchor="start" x="85" y="-106.5" font-family="Helvetica,sans-Serif" font-size="10.00">emulation::emulator</text>
<text text-anchor="middle" x="135" y="-95.5" font-family="Helvetica,sans-Serif" font-size="10.00">::addi_</text>
</a>
</g>
</g>
<!-- Node1&#45;&gt;Node2 -->
<g id="edge1" class="edge">
<title>Node1&#45;&gt;Node2</title>
<path fill="none" stroke="midnightblue" d="M224.91,-77.42C212.39,-81.09 199.35,-84.92 187.23,-88.47"/>
<polygon fill="midnightblue" stroke="midnightblue" points="226.19,-80.69 234.8,-74.52 224.22,-73.98 226.19,-80.69"/>
</g>
<!-- Node4 -->
<g id="node4" class="node">
<title>Node4</title>
<g id="a_node4"><a xlink:href="test__emulator__add_8cpp.html#ae66f6b31b5ad750f1fe042a706a4e3d4" target="_top" xlink:title=" ">
<polygon fill="white" stroke="black" points="114.5,-50 114.5,-69 155.5,-69 155.5,-50 114.5,-50"/>
<text text-anchor="middle" x="135" y="-57" font-family="Helvetica,sans-Serif" font-size="10.00">main</text>
</a>
</g>
</g>
<!-- Node1&#45;&gt;Node4 -->
<g id="edge3" class="edge">
<title>Node1&#45;&gt;Node4</title>
<path fill="none" stroke="midnightblue" d="M218.75,-59.5C195.77,-59.5 171.8,-59.5 155.61,-59.5"/>
<polygon fill="midnightblue" stroke="midnightblue" points="218.86,-63 228.86,-59.5 218.86,-56 218.86,-63"/>
</g>
<!-- Node5 -->
<g id="node5" class="node">
<title>Node5</title>
<g id="a_node5"><a xlink:href="structemulation_1_1emulator.html#af3cce7c55fd0ee41bb0ab47bb9c65b1f" target="_top" xlink:title="SUBstract.">
<polygon fill="white" stroke="black" points="77,-0.5 77,-30.5 193,-30.5 193,-0.5 77,-0.5"/>
<text text-anchor="start" x="85" y="-18.5" font-family="Helvetica,sans-Serif" font-size="10.00">emulation::emulator</text>
<text text-anchor="middle" x="135" y="-7.5" font-family="Helvetica,sans-Serif" font-size="10.00">::sub_</text>
</a>
</g>
</g>
<!-- Node1&#45;&gt;Node5 -->
<g id="edge4" class="edge">
<title>Node1&#45;&gt;Node5</title>
<path fill="none" stroke="midnightblue" d="M224.91,-41.58C212.39,-37.91 199.35,-34.08 187.23,-30.53"/>
<polygon fill="midnightblue" stroke="midnightblue" points="224.22,-45.02 234.8,-44.48 226.19,-38.31 224.22,-45.02"/>
</g>
<!-- Node3 -->
<g id="node3" class="node">
<title>Node3</title>
<g id="a_node3"><a xlink:href="test__emulator__addi_8cpp.html#ae66f6b31b5ad750f1fe042a706a4e3d4" target="_top" xlink:title=" ">
<polygon fill="white" stroke="black" points="0,-94 0,-113 41,-113 41,-94 0,-94"/>
<text text-anchor="middle" x="20.5" y="-101" font-family="Helvetica,sans-Serif" font-size="10.00">main</text>
</a>
</g>
</g>
<!-- Node2&#45;&gt;Node3 -->
<g id="edge2" class="edge">
<title>Node2&#45;&gt;Node3</title>
<path fill="none" stroke="midnightblue" d="M66.62,-103.5C57.37,-103.5 48.55,-103.5 41.19,-103.5"/>
<polygon fill="midnightblue" stroke="midnightblue" points="66.76,-107 76.76,-103.5 66.76,-100 66.76,-107"/>
</g>
</g>
</svg>
