<?xml version="1.0" encoding="UTF-8" standalone="no"?>
<!DOCTYPE svg PUBLIC "-//W3C//DTD SVG 1.1//EN"
 "http://www.w3.org/Graphics/SVG/1.1/DTD/svg11.dtd">
<!-- Generated by graphviz version 2.43.0 (0)
 -->
<!-- Title: emulation::emulator::execute Pages: 1 -->
<svg width="468pt" height="1803pt"
 viewBox="0.00 0.00 468.00 1803.35" xmlns="http://www.w3.org/2000/svg" xmlns:xlink="http://www.w3.org/1999/xlink">
<g id="graph0" class="graph" transform="scale(1 1) rotate(0) translate(4 1799.35)">
<title>emulation::emulator::execute</title>
<polygon fill="white" stroke="transparent" points="-4,4 -4,-1799.35 464,-1799.35 464,4 -4,4"/>
<!-- Node1 -->
<g id="node1" class="node">
<title>Node1</title>
<g id="a_node1"><a xlink:title=" ">
<polygon fill="#bfbfbf" stroke="black" points="0,-868.85 0,-898.85 116,-898.85 116,-868.85 0,-868.85"/>
<text text-anchor="start" x="8" y="-886.85" font-family="Helvetica,sans-Serif" font-size="10.00">emulation::emulator</text>
<text text-anchor="middle" x="58" y="-875.85" font-family="Helvetica,sans-Serif" font-size="10.00">::execute</text>
</a>
</g>
</g>
<!-- Node2 -->
<g id="node2" class="node">
<title>Node2</title>
<g id="a_node2"><a xlink:href="structemulation_1_1emulator.html#abb02b50bf20caacea80357c21d0dd6a2" target="_top" xlink:title="ADD.">
<polygon fill="white" stroke="black" points="336.5,-1617.85 336.5,-1647.85 452.5,-1647.85 452.5,-1617.85 336.5,-1617.85"/>
<text text-anchor="start" x="344.5" y="-1635.85" font-family="Helvetica,sans-Serif" font-size="10.00">emulation::emulator</text>
<text text-anchor="middle" x="394.5" y="-1624.85" font-family="Helvetica,sans-Serif" font-size="10.00">::add_</text>
</a>
</g>
</g>
<!-- Node1&#45;&gt;Node2 -->
<g id="edge1" class="edge">
<title>Node1&#45;&gt;Node2</title>
<path fill="none" stroke="midnightblue" d="M58.86,-898.9C58.35,-989.78 60.15,-1464.83 152,-1568.85 154.99,-1572.23 256.15,-1598.26 326.58,-1616.06"/>
<polygon fill="midnightblue" stroke="midnightblue" points="325.75,-1619.46 336.3,-1618.52 327.47,-1612.68 325.75,-1619.46"/>
</g>
<!-- Node3 -->
<g id="node3" class="node">
<title>Node3</title>
<g id="a_node3"><a xlink:href="structemulation_1_1emulator.html#a5f9c67126d2260f36d5149df40f3cd01" target="_top" xlink:title="Add Immediate.">
<polygon fill="white" stroke="black" points="164.5,-1235.85 164.5,-1265.85 280.5,-1265.85 280.5,-1235.85 164.5,-1235.85"/>
<text text-anchor="start" x="172.5" y="-1253.85" font-family="Helvetica,sans-Serif" font-size="10.00">emulation::emulator</text>
<text text-anchor="middle" x="222.5" y="-1242.85" font-family="Helvetica,sans-Serif" font-size="10.00">::addi_</text>
</a>
</g>
</g>
<!-- Node1&#45;&gt;Node3 -->
<g id="edge2" class="edge">
<title>Node1&#45;&gt;Node3</title>
<path fill="none" stroke="midnightblue" d="M58.5,-899.13C57.62,-951.85 61.84,-1128.19 152,-1225.85 153.23,-1227.17 154.53,-1228.43 155.89,-1229.62"/>
<polygon fill="midnightblue" stroke="midnightblue" points="154.17,-1232.7 164.32,-1235.74 158.28,-1227.03 154.17,-1232.7"/>
</g>
<!-- Node5 -->
<g id="node5" class="node">
<title>Node5</title>
<g id="a_node5"><a xlink:href="structemulation_1_1emulator.html#ae0ccf9569a894db0362ec8a8976e8556" target="_top" xlink:title="AND.">
<polygon fill="white" stroke="black" points="164.5,-1666.85 164.5,-1696.85 280.5,-1696.85 280.5,-1666.85 164.5,-1666.85"/>
<text text-anchor="start" x="172.5" y="-1684.85" font-family="Helvetica,sans-Serif" font-size="10.00">emulation::emulator</text>
<text text-anchor="middle" x="222.5" y="-1673.85" font-family="Helvetica,sans-Serif" font-size="10.00">::and_</text>
</a>
</g>
</g>
<!-- Node1&#45;&gt;Node5 -->
<g id="edge5" class="edge">
<title>Node1&#45;&gt;Node5</title>
<path fill="none" stroke="midnightblue" d="M58.71,-899.12C57.15,-996.95 53.2,-1535.4 152,-1657.85 153.29,-1659.45 154.7,-1660.94 156.2,-1662.34"/>
<polygon fill="midnightblue" stroke="midnightblue" points="154.29,-1665.29 164.38,-1668.52 158.51,-1659.7 154.29,-1665.29"/>
</g>
<!-- Node6 -->
<g id="node6" class="node">
<title>Node6</title>
<g id="a_node6"><a xlink:href="structemulation_1_1emulator.html#aed962b5f80b5af390a79d5a6aaa290f8" target="_top" xlink:title="AND Immediate.">
<polygon fill="white" stroke="black" points="164.5,-513.85 164.5,-543.85 280.5,-543.85 280.5,-513.85 164.5,-513.85"/>
<text text-anchor="start" x="172.5" y="-531.85" font-family="Helvetica,sans-Serif" font-size="10.00">emulation::emulator</text>
<text text-anchor="middle" x="222.5" y="-520.85" font-family="Helvetica,sans-Serif" font-size="10.00">::andi_</text>
</a>
</g>
</g>
<!-- Node1&#45;&gt;Node6 -->
<g id="edge6" class="edge">
<title>Node1&#45;&gt;Node6</title>
<path fill="none" stroke="midnightblue" d="M58.62,-868.64C58.17,-817.01 63.75,-646.43 152,-552.85 153.23,-551.54 154.54,-550.3 155.92,-549.13"/>
<polygon fill="midnightblue" stroke="midnightblue" points="158.24,-551.77 164.38,-543.14 154.19,-546.06 158.24,-551.77"/>
</g>
<!-- Node7 -->
<g id="node7" class="node">
<title>Node7</title>
<g id="a_node7"><a xlink:href="structemulation_1_1emulator.html#a5c23ebba4840ee6cc2b1b1b0a83df86a" target="_top" xlink:title="Add Upper Immeddiate to PC.">
<polygon fill="white" stroke="black" points="164.5,-1764.85 164.5,-1794.85 280.5,-1794.85 280.5,-1764.85 164.5,-1764.85"/>
<text text-anchor="start" x="172.5" y="-1782.85" font-family="Helvetica,sans-Serif" font-size="10.00">emulation::emulator</text>
<text text-anchor="middle" x="222.5" y="-1771.85" font-family="Helvetica,sans-Serif" font-size="10.00">::auipc_</text>
</a>
</g>
</g>
<!-- Node1&#45;&gt;Node7 -->
<g id="edge8" class="edge">
<title>Node1&#45;&gt;Node7</title>
<path fill="none" stroke="midnightblue" d="M59.65,-899.07C64.49,-1009.56 96.3,-1685.86 152,-1755.85 153.28,-1757.46 154.68,-1758.96 156.17,-1760.36"/>
<polygon fill="midnightblue" stroke="midnightblue" points="154.25,-1763.3 164.32,-1766.57 158.49,-1757.73 154.25,-1763.3"/>
</g>
<!-- Node8 -->
<g id="node8" class="node">
<title>Node8</title>
<g id="a_node8"><a xlink:href="structemulation_1_1emulator.html#a347abcda80446cec6144e27a56e54f59" target="_top" xlink:title="Branch EQual.">
<polygon fill="white" stroke="black" points="164.5,-1529.85 164.5,-1559.85 280.5,-1559.85 280.5,-1529.85 164.5,-1529.85"/>
<text text-anchor="start" x="172.5" y="-1547.85" font-family="Helvetica,sans-Serif" font-size="10.00">emulation::emulator</text>
<text text-anchor="middle" x="222.5" y="-1536.85" font-family="Helvetica,sans-Serif" font-size="10.00">::beq_</text>
</a>
</g>
</g>
<!-- Node1&#45;&gt;Node8 -->
<g id="edge10" class="edge">
<title>Node1&#45;&gt;Node8</title>
<path fill="none" stroke="midnightblue" d="M59.17,-899.12C60.43,-986.29 70.77,-1420.49 152,-1519.85 153.31,-1521.45 154.73,-1522.95 156.24,-1524.35"/>
<polygon fill="midnightblue" stroke="midnightblue" points="154.39,-1527.34 164.47,-1530.59 158.62,-1521.76 154.39,-1527.34"/>
</g>
<!-- Node9 -->
<g id="node9" class="node">
<title>Node9</title>
<g id="a_node9"><a xlink:href="structemulation_1_1emulator.html#a3beb995d131909f7a5ef2b9734b81570" target="_top" xlink:title="Branch Greater than or Equal.">
<polygon fill="white" stroke="black" points="164.5,-1480.85 164.5,-1510.85 280.5,-1510.85 280.5,-1480.85 164.5,-1480.85"/>
<text text-anchor="start" x="172.5" y="-1498.85" font-family="Helvetica,sans-Serif" font-size="10.00">emulation::emulator</text>
<text text-anchor="middle" x="222.5" y="-1487.85" font-family="Helvetica,sans-Serif" font-size="10.00">::bge_</text>
</a>
</g>
</g>
<!-- Node1&#45;&gt;Node9 -->
<g id="edge11" class="edge">
<title>Node1&#45;&gt;Node9</title>
<path fill="none" stroke="midnightblue" d="M59.37,-899.02C61.69,-981.94 76.68,-1379.83 152,-1470.85 153.29,-1472.4 154.68,-1473.86 156.16,-1475.23"/>
<polygon fill="midnightblue" stroke="midnightblue" points="154.12,-1478.07 164.2,-1481.34 158.36,-1472.5 154.12,-1478.07"/>
</g>
<!-- Node10 -->
<g id="node10" class="node">
<title>Node10</title>
<g id="a_node10"><a xlink:href="structemulation_1_1emulator.html#a2ac0fbce740ff5d966e0d13da4fe3ff2" target="_top" xlink:title="Branch Greater than or Equal Unsigned.">
<polygon fill="white" stroke="black" points="164.5,-1431.85 164.5,-1461.85 280.5,-1461.85 280.5,-1431.85 164.5,-1431.85"/>
<text text-anchor="start" x="172.5" y="-1449.85" font-family="Helvetica,sans-Serif" font-size="10.00">emulation::emulator</text>
<text text-anchor="middle" x="222.5" y="-1438.85" font-family="Helvetica,sans-Serif" font-size="10.00">::bgeu_</text>
</a>
</g>
</g>
<!-- Node1&#45;&gt;Node10 -->
<g id="edge12" class="edge">
<title>Node1&#45;&gt;Node10</title>
<path fill="none" stroke="midnightblue" d="M59.61,-899.03C63.08,-977.79 82.6,-1339.17 152,-1421.85 153.3,-1423.39 154.7,-1424.84 156.19,-1426.21"/>
<polygon fill="midnightblue" stroke="midnightblue" points="154.17,-1429.06 164.26,-1432.29 158.38,-1423.48 154.17,-1429.06"/>
</g>
<!-- Node11 -->
<g id="node11" class="node">
<title>Node11</title>
<g id="a_node11"><a xlink:href="structemulation_1_1emulator.html#a9f85d6f843f9313714c3a734d2c3d9b5" target="_top" xlink:title="Branch Less Than.">
<polygon fill="white" stroke="black" points="164.5,-1382.85 164.5,-1412.85 280.5,-1412.85 280.5,-1382.85 164.5,-1382.85"/>
<text text-anchor="start" x="172.5" y="-1400.85" font-family="Helvetica,sans-Serif" font-size="10.00">emulation::emulator</text>
<text text-anchor="middle" x="222.5" y="-1389.85" font-family="Helvetica,sans-Serif" font-size="10.00">::blt_</text>
</a>
</g>
</g>
<!-- Node1&#45;&gt;Node11 -->
<g id="edge13" class="edge">
<title>Node1&#45;&gt;Node11</title>
<path fill="none" stroke="midnightblue" d="M59.89,-898.86C64.55,-972.9 88.45,-1298.42 152,-1372.85 153.31,-1374.38 154.72,-1375.82 156.22,-1377.18"/>
<polygon fill="midnightblue" stroke="midnightblue" points="154.22,-1380.05 164.33,-1383.23 158.41,-1374.44 154.22,-1380.05"/>
</g>
<!-- Node12 -->
<g id="node12" class="node">
<title>Node12</title>
<g id="a_node12"><a xlink:href="structemulation_1_1emulator.html#a075d45348bc0ddc95936e6b92f0eb793" target="_top" xlink:title="Branch Less Than Unsigned.">
<polygon fill="white" stroke="black" points="164.5,-1333.85 164.5,-1363.85 280.5,-1363.85 280.5,-1333.85 164.5,-1333.85"/>
<text text-anchor="start" x="172.5" y="-1351.85" font-family="Helvetica,sans-Serif" font-size="10.00">emulation::emulator</text>
<text text-anchor="middle" x="222.5" y="-1340.85" font-family="Helvetica,sans-Serif" font-size="10.00">::bltu_</text>
</a>
</g>
</g>
<!-- Node1&#45;&gt;Node12 -->
<g id="edge14" class="edge">
<title>Node1&#45;&gt;Node12</title>
<path fill="none" stroke="midnightblue" d="M60.26,-899.19C66.31,-969.21 94.42,-1257.78 152,-1323.85 153.33,-1325.37 154.75,-1326.8 156.26,-1328.14"/>
<polygon fill="midnightblue" stroke="midnightblue" points="154.29,-1331.04 164.42,-1334.16 158.45,-1325.4 154.29,-1331.04"/>
</g>
<!-- Node13 -->
<g id="node13" class="node">
<title>Node13</title>
<g id="a_node13"><a xlink:href="structemulation_1_1emulator.html#af233b44ab24272b5fa82ff0a8ce8ac99" target="_top" xlink:title="Branch Not Equal.">
<polygon fill="white" stroke="black" points="164.5,-1284.85 164.5,-1314.85 280.5,-1314.85 280.5,-1284.85 164.5,-1284.85"/>
<text text-anchor="start" x="172.5" y="-1302.85" font-family="Helvetica,sans-Serif" font-size="10.00">emulation::emulator</text>
<text text-anchor="middle" x="222.5" y="-1291.85" font-family="Helvetica,sans-Serif" font-size="10.00">::bne_</text>
</a>
</g>
</g>
<!-- Node1&#45;&gt;Node13 -->
<g id="edge15" class="edge">
<title>Node1&#45;&gt;Node13</title>
<path fill="none" stroke="midnightblue" d="M60.7,-899.21C68.21,-964.34 100.26,-1216.98 152,-1274.85 153.2,-1276.19 154.49,-1277.47 155.84,-1278.67"/>
<polygon fill="midnightblue" stroke="midnightblue" points="154.07,-1281.72 164.19,-1284.86 158.24,-1276.1 154.07,-1281.72"/>
</g>
<!-- Node14 -->
<g id="node14" class="node">
<title>Node14</title>
<g id="a_node14"><a xlink:href="structemulation_1_1emulator.html#af1e7c17730a548d7014a78c1d5b19130" target="_top" xlink:title="Increments PC by xlen (32), using an optimised add with carry.">
<polygon fill="white" stroke="black" points="164.5,-1715.85 164.5,-1745.85 280.5,-1745.85 280.5,-1715.85 164.5,-1715.85"/>
<text text-anchor="start" x="172.5" y="-1733.85" font-family="Helvetica,sans-Serif" font-size="10.00">emulation::emulator</text>
<text text-anchor="middle" x="222.5" y="-1722.85" font-family="Helvetica,sans-Serif" font-size="10.00">::inc_pc</text>
</a>
</g>
</g>
<!-- Node1&#45;&gt;Node14 -->
<g id="edge16" class="edge">
<title>Node1&#45;&gt;Node14</title>
<path fill="none" stroke="midnightblue" d="M59.74,-898.89C65.11,-1005.23 99.3,-1641.06 152,-1706.85 153.29,-1708.45 154.69,-1709.95 156.18,-1711.35"/>
<polygon fill="midnightblue" stroke="midnightblue" points="154.27,-1714.29 164.35,-1717.55 158.5,-1708.72 154.27,-1714.29"/>
</g>
<!-- Node15 -->
<g id="node15" class="node">
<title>Node15</title>
<g id="a_node15"><a xlink:href="structemulation_1_1emulator.html#a6d495ced29be5a5f0f9eb07b8044cbb9" target="_top" xlink:title="Jump And Link.">
<polygon fill="white" stroke="black" points="164.5,-1186.85 164.5,-1216.85 280.5,-1216.85 280.5,-1186.85 164.5,-1186.85"/>
<text text-anchor="start" x="172.5" y="-1204.85" font-family="Helvetica,sans-Serif" font-size="10.00">emulation::emulator</text>
<text text-anchor="middle" x="222.5" y="-1193.85" font-family="Helvetica,sans-Serif" font-size="10.00">::jal_</text>
</a>
</g>
</g>
<!-- Node1&#45;&gt;Node15 -->
<g id="edge18" class="edge">
<title>Node1&#45;&gt;Node15</title>
<path fill="none" stroke="midnightblue" d="M59.32,-898.94C61.13,-946.5 73.16,-1094.95 152,-1176.85 153.4,-1178.3 154.89,-1179.67 156.46,-1180.96"/>
<polygon fill="midnightblue" stroke="midnightblue" points="154.62,-1183.95 164.83,-1186.78 158.61,-1178.2 154.62,-1183.95"/>
</g>
<!-- Node16 -->
<g id="node16" class="node">
<title>Node16</title>
<g id="a_node16"><a xlink:href="structemulation_1_1emulator.html#a6d75cc1fbd76f54c99483aa62821df0d" target="_top" xlink:title="Jump And Link Register.">
<polygon fill="white" stroke="black" points="164.5,-1137.85 164.5,-1167.85 280.5,-1167.85 280.5,-1137.85 164.5,-1137.85"/>
<text text-anchor="start" x="172.5" y="-1155.85" font-family="Helvetica,sans-Serif" font-size="10.00">emulation::emulator</text>
<text text-anchor="middle" x="222.5" y="-1144.85" font-family="Helvetica,sans-Serif" font-size="10.00">::jalr_</text>
</a>
</g>
</g>
<!-- Node1&#45;&gt;Node16 -->
<g id="edge19" class="edge">
<title>Node1&#45;&gt;Node16</title>
<path fill="none" stroke="midnightblue" d="M60.45,-899.09C65.27,-941.43 84.54,-1061.64 152,-1127.85 153.48,-1129.29 155.04,-1130.66 156.68,-1131.95"/>
<polygon fill="midnightblue" stroke="midnightblue" points="155.13,-1135.12 165.4,-1137.75 159.01,-1129.29 155.13,-1135.12"/>
</g>
<!-- Node17 -->
<g id="node17" class="node">
<title>Node17</title>
<g id="a_node17"><a xlink:href="structemulation_1_1emulator.html#ad1f58c03f0b4502d6a08e1df3c5cfd6a" target="_top" xlink:title="Load Byte.">
<polygon fill="white" stroke="black" points="154,-1099.35 154,-1118.35 291,-1118.35 291,-1099.35 154,-1099.35"/>
<text text-anchor="middle" x="222.5" y="-1106.35" font-family="Helvetica,sans-Serif" font-size="10.00">emulation::emulator::lb_</text>
</a>
</g>
</g>
<!-- Node1&#45;&gt;Node17 -->
<g id="edge20" class="edge">
<title>Node1&#45;&gt;Node17</title>
<path fill="none" stroke="midnightblue" d="M61.43,-899.05C68.32,-937.01 91.52,-1036.6 152,-1088.85 154.52,-1091.02 157.26,-1092.96 160.15,-1094.69"/>
<polygon fill="midnightblue" stroke="midnightblue" points="158.7,-1097.88 169.2,-1099.27 161.86,-1091.63 158.7,-1097.88"/>
</g>
<!-- Node18 -->
<g id="node18" class="node">
<title>Node18</title>
<g id="a_node18"><a xlink:href="structemulation_1_1emulator.html#ae0c0f54b7bc3230032cd1c49c94d4a32" target="_top" xlink:title="Load Byte Unsigned.">
<polygon fill="white" stroke="black" points="164.5,-1049.85 164.5,-1079.85 280.5,-1079.85 280.5,-1049.85 164.5,-1049.85"/>
<text text-anchor="start" x="172.5" y="-1067.85" font-family="Helvetica,sans-Serif" font-size="10.00">emulation::emulator</text>
<text text-anchor="middle" x="222.5" y="-1056.85" font-family="Helvetica,sans-Serif" font-size="10.00">::lbu_</text>
</a>
</g>
</g>
<!-- Node1&#45;&gt;Node18 -->
<g id="edge21" class="edge">
<title>Node1&#45;&gt;Node18</title>
<path fill="none" stroke="midnightblue" d="M64.07,-899.06C75.13,-929.98 104.31,-1000.54 152,-1039.85 154.03,-1041.52 156.19,-1043.09 158.44,-1044.56"/>
<polygon fill="midnightblue" stroke="midnightblue" points="157.05,-1047.8 167.47,-1049.73 160.53,-1041.72 157.05,-1047.8"/>
</g>
<!-- Node19 -->
<g id="node19" class="node">
<title>Node19</title>
<g id="a_node19"><a xlink:href="structemulation_1_1emulator.html#ab983fed8fd557858bd3cc1a448857066" target="_top" xlink:title="Load Halfword.">
<polygon fill="white" stroke="black" points="154,-1011.35 154,-1030.35 291,-1030.35 291,-1011.35 154,-1011.35"/>
<text text-anchor="middle" x="222.5" y="-1018.35" font-family="Helvetica,sans-Serif" font-size="10.00">emulation::emulator::lh_</text>
</a>
</g>
</g>
<!-- Node1&#45;&gt;Node19 -->
<g id="edge22" class="edge">
<title>Node1&#45;&gt;Node19</title>
<path fill="none" stroke="midnightblue" d="M66.84,-898.88C80.64,-923.87 111.67,-973.86 152,-1000.85 155.74,-1003.35 159.8,-1005.54 164,-1007.47"/>
<polygon fill="midnightblue" stroke="midnightblue" points="162.82,-1010.76 173.4,-1011.26 165.44,-1004.27 162.82,-1010.76"/>
</g>
<!-- Node20 -->
<g id="node20" class="node">
<title>Node20</title>
<g id="a_node20"><a xlink:href="structemulation_1_1emulator.html#a7ef3715138762a76c78ca8cbb11d5574" target="_top" xlink:title="Load Halfword Unsigned.">
<polygon fill="white" stroke="black" points="164.5,-961.85 164.5,-991.85 280.5,-991.85 280.5,-961.85 164.5,-961.85"/>
<text text-anchor="start" x="172.5" y="-979.85" font-family="Helvetica,sans-Serif" font-size="10.00">emulation::emulator</text>
<text text-anchor="middle" x="222.5" y="-968.85" font-family="Helvetica,sans-Serif" font-size="10.00">::lhu_</text>
</a>
</g>
</g>
<!-- Node1&#45;&gt;Node20 -->
<g id="edge23" class="edge">
<title>Node1&#45;&gt;Node20</title>
<path fill="none" stroke="midnightblue" d="M76.5,-899.03C94.48,-914.02 123.74,-936.83 152,-951.85 155.99,-953.97 160.21,-955.98 164.5,-957.87"/>
<polygon fill="midnightblue" stroke="midnightblue" points="163.4,-961.21 173.98,-961.82 166.09,-954.74 163.4,-961.21"/>
</g>
<!-- Node21 -->
<g id="node21" class="node">
<title>Node21</title>
<g id="a_node21"><a xlink:href="structemulation_1_1emulator.html#a23250dfcc344cea6e9d178d607cf18c2" target="_top" xlink:title="Load Upper Immediate.">
<polygon fill="white" stroke="black" points="164.5,-912.85 164.5,-942.85 280.5,-942.85 280.5,-912.85 164.5,-912.85"/>
<text text-anchor="start" x="172.5" y="-930.85" font-family="Helvetica,sans-Serif" font-size="10.00">emulation::emulator</text>
<text text-anchor="middle" x="222.5" y="-919.85" font-family="Helvetica,sans-Serif" font-size="10.00">::lui_</text>
</a>
</g>
</g>
<!-- Node1&#45;&gt;Node21 -->
<g id="edge24" class="edge">
<title>Node1&#45;&gt;Node21</title>
<path fill="none" stroke="midnightblue" d="M114.47,-898.87C127.86,-902.49 142.29,-906.4 156.09,-910.14"/>
<polygon fill="midnightblue" stroke="midnightblue" points="155.44,-913.58 166.01,-912.82 157.27,-906.83 155.44,-913.58"/>
</g>
<!-- Node22 -->
<g id="node22" class="node">
<title>Node22</title>
<g id="a_node22"><a xlink:href="structemulation_1_1emulator.html#af216ac120e70e2897983f3bc872934c0" target="_top" xlink:title="Load Word.">
<polygon fill="white" stroke="black" points="153,-874.35 153,-893.35 292,-893.35 292,-874.35 153,-874.35"/>
<text text-anchor="middle" x="222.5" y="-881.35" font-family="Helvetica,sans-Serif" font-size="10.00">emulation::emulator::lw_</text>
</a>
</g>
</g>
<!-- Node1&#45;&gt;Node22 -->
<g id="edge25" class="edge">
<title>Node1&#45;&gt;Node22</title>
<path fill="none" stroke="midnightblue" d="M116.29,-883.85C124.86,-883.85 133.81,-883.85 142.72,-883.85"/>
<polygon fill="midnightblue" stroke="midnightblue" points="142.75,-887.35 152.75,-883.85 142.75,-880.35 142.75,-887.35"/>
</g>
<!-- Node23 -->
<g id="node23" class="node">
<title>Node23</title>
<g id="a_node23"><a xlink:href="structemulation_1_1emulator.html#aa98b416bf802ef95f4f816a8abed3242" target="_top" xlink:title="OR.">
<polygon fill="white" stroke="black" points="154,-836.35 154,-855.35 291,-855.35 291,-836.35 154,-836.35"/>
<text text-anchor="middle" x="222.5" y="-843.35" font-family="Helvetica,sans-Serif" font-size="10.00">emulation::emulator::or_</text>
</a>
</g>
</g>
<!-- Node1&#45;&gt;Node23 -->
<g id="edge26" class="edge">
<title>Node1&#45;&gt;Node23</title>
<path fill="none" stroke="midnightblue" d="M116.29,-870.45C134.09,-866.29 153.57,-861.73 170.88,-857.68"/>
<polygon fill="midnightblue" stroke="midnightblue" points="171.85,-861.05 180.79,-855.37 170.26,-854.23 171.85,-861.05"/>
</g>
<!-- Node24 -->
<g id="node24" class="node">
<title>Node24</title>
<g id="a_node24"><a xlink:href="structemulation_1_1emulator.html#ae75621b92b72655354a0d36fa9ff4ab2" target="_top" xlink:title="OR Immediate.">
<polygon fill="white" stroke="black" points="164.5,-415.85 164.5,-445.85 280.5,-445.85 280.5,-415.85 164.5,-415.85"/>
<text text-anchor="start" x="172.5" y="-433.85" font-family="Helvetica,sans-Serif" font-size="10.00">emulation::emulator</text>
<text text-anchor="middle" x="222.5" y="-422.85" font-family="Helvetica,sans-Serif" font-size="10.00">::ori_</text>
</a>
</g>
</g>
<!-- Node1&#45;&gt;Node24 -->
<g id="edge27" class="edge">
<title>Node1&#45;&gt;Node24</title>
<path fill="none" stroke="midnightblue" d="M60.34,-868.41C66.63,-799.26 95.34,-518.68 152,-454.85 153.33,-453.34 154.77,-451.93 156.28,-450.61"/>
<polygon fill="midnightblue" stroke="midnightblue" points="158.4,-453.4 164.46,-444.71 154.3,-447.73 158.4,-453.4"/>
</g>
<!-- Node25 -->
<g id="node25" class="node">
<title>Node25</title>
<g id="a_node25"><a xlink:href="structemulation_1_1emulator.html#a6bcdb0a2b140d320e081bc06f124b538" target="_top" xlink:title="Returns a reference to the destination register bitset rd points to.">
<polygon fill="white" stroke="black" points="164.5,-737.85 164.5,-767.85 280.5,-767.85 280.5,-737.85 164.5,-737.85"/>
<text text-anchor="start" x="172.5" y="-755.85" font-family="Helvetica,sans-Serif" font-size="10.00">emulation::emulator</text>
<text text-anchor="middle" x="222.5" y="-744.85" font-family="Helvetica,sans-Serif" font-size="10.00">::resolv_rd</text>
</a>
</g>
</g>
<!-- Node1&#45;&gt;Node25 -->
<g id="edge29" class="edge">
<title>Node1&#45;&gt;Node25</title>
<path fill="none" stroke="midnightblue" d="M68.51,-868.48C83.53,-845.42 114.88,-801.91 152,-776.85 154.25,-775.32 156.61,-773.89 159.04,-772.54"/>
<polygon fill="midnightblue" stroke="midnightblue" points="160.73,-775.61 168.11,-768 157.6,-769.35 160.73,-775.61"/>
</g>
<!-- Node26 -->
<g id="node26" class="node">
<title>Node26</title>
<g id="a_node26"><a xlink:href="structemulation_1_1emulator.html#a2300c03b0456fb868055a471c4f67d58" target="_top" xlink:title="Store Byte.">
<polygon fill="white" stroke="black" points="153,-699.35 153,-718.35 292,-718.35 292,-699.35 153,-699.35"/>
<text text-anchor="middle" x="222.5" y="-706.35" font-family="Helvetica,sans-Serif" font-size="10.00">emulation::emulator::sb_</text>
</a>
</g>
</g>
<!-- Node1&#45;&gt;Node26 -->
<g id="edge30" class="edge">
<title>Node1&#45;&gt;Node26</title>
<path fill="none" stroke="midnightblue" d="M63.66,-868.8C74.13,-837.55 102.55,-765.44 152,-727.85 154.46,-725.98 157.09,-724.29 159.84,-722.77"/>
<polygon fill="midnightblue" stroke="midnightblue" points="161.41,-725.9 168.95,-718.46 158.41,-719.57 161.41,-725.9"/>
</g>
<!-- Node27 -->
<g id="node27" class="node">
<title>Node27</title>
<g id="a_node27"><a xlink:href="structemulation_1_1emulator.html#ad9d16af8f0a16133dcb9fa67144f3b14" target="_top" xlink:title="Store Halfword.">
<polygon fill="white" stroke="black" points="153,-661.35 153,-680.35 292,-680.35 292,-661.35 153,-661.35"/>
<text text-anchor="middle" x="222.5" y="-668.35" font-family="Helvetica,sans-Serif" font-size="10.00">emulation::emulator::sh_</text>
</a>
</g>
</g>
<!-- Node1&#45;&gt;Node27 -->
<g id="edge31" class="edge">
<title>Node1&#45;&gt;Node27</title>
<path fill="none" stroke="midnightblue" d="M61.82,-868.59C69.42,-831.95 93.78,-738.42 152,-689.85 154.02,-688.16 156.17,-686.63 158.43,-685.23"/>
<polygon fill="midnightblue" stroke="midnightblue" points="160.3,-688.2 167.54,-680.47 157.06,-681.99 160.3,-688.2"/>
</g>
<!-- Node28 -->
<g id="node28" class="node">
<title>Node28</title>
<g id="a_node28"><a xlink:href="structemulation_1_1emulator.html#a5beb63c288532ba1044aae29c0906589" target="_top" xlink:title="Shift Left Logical.">
<polygon fill="white" stroke="black" points="164.5,-611.85 164.5,-641.85 280.5,-641.85 280.5,-611.85 164.5,-611.85"/>
<text text-anchor="start" x="172.5" y="-629.85" font-family="Helvetica,sans-Serif" font-size="10.00">emulation::emulator</text>
<text text-anchor="middle" x="222.5" y="-618.85" font-family="Helvetica,sans-Serif" font-size="10.00">::sll_</text>
</a>
</g>
</g>
<!-- Node1&#45;&gt;Node28 -->
<g id="edge32" class="edge">
<title>Node1&#45;&gt;Node28</title>
<path fill="none" stroke="midnightblue" d="M60.77,-868.75C66.35,-827.95 87.2,-714.36 152,-651.85 153.49,-650.41 155.06,-649.06 156.71,-647.78"/>
<polygon fill="midnightblue" stroke="midnightblue" points="159.04,-650.44 165.47,-642.02 155.19,-644.59 159.04,-650.44"/>
</g>
<!-- Node29 -->
<g id="node29" class="node">
<title>Node29</title>
<g id="a_node29"><a xlink:href="structemulation_1_1emulator.html#a4c2cba41aa7dd930e78166375ffde7ea" target="_top" xlink:title="Shift Left Logical Immediate.">
<polygon fill="white" stroke="black" points="164.5,-562.85 164.5,-592.85 280.5,-592.85 280.5,-562.85 164.5,-562.85"/>
<text text-anchor="start" x="172.5" y="-580.85" font-family="Helvetica,sans-Serif" font-size="10.00">emulation::emulator</text>
<text text-anchor="middle" x="222.5" y="-569.85" font-family="Helvetica,sans-Serif" font-size="10.00">::slli_</text>
</a>
</g>
</g>
<!-- Node1&#45;&gt;Node29 -->
<g id="edge33" class="edge">
<title>Node1&#45;&gt;Node29</title>
<path fill="none" stroke="midnightblue" d="M59.5,-868.61C61.84,-821.99 75.26,-679.66 152,-601.85 153.23,-600.6 154.53,-599.41 155.89,-598.29"/>
<polygon fill="midnightblue" stroke="midnightblue" points="158,-601.09 164.22,-592.51 154.01,-595.34 158,-601.09"/>
</g>
<!-- Node30 -->
<g id="node30" class="node">
<title>Node30</title>
<g id="a_node30"><a xlink:href="structemulation_1_1emulator.html#a0b05a393f872484b0989e0520143d24e" target="_top" xlink:title="Set Less Than.">
<polygon fill="white" stroke="black" points="336.5,-55.85 336.5,-85.85 452.5,-85.85 452.5,-55.85 336.5,-55.85"/>
<text text-anchor="start" x="344.5" y="-73.85" font-family="Helvetica,sans-Serif" font-size="10.00">emulation::emulator</text>
<text text-anchor="middle" x="394.5" y="-62.85" font-family="Helvetica,sans-Serif" font-size="10.00">::slt_</text>
</a>
</g>
</g>
<!-- Node1&#45;&gt;Node30 -->
<g id="edge34" class="edge">
<title>Node1&#45;&gt;Node30</title>
<path fill="none" stroke="midnightblue" d="M59.45,-868.62C62.86,-758.21 86.34,-82.78 152,-23.85 211.22,29.32 312.16,-19.8 362.72,-50.48"/>
<polygon fill="midnightblue" stroke="midnightblue" points="360.92,-53.48 371.27,-55.78 364.61,-47.53 360.92,-53.48"/>
</g>
<!-- Node31 -->
<g id="node31" class="node">
<title>Node31</title>
<g id="a_node31"><a xlink:href="structemulation_1_1emulator.html#a26320b09d16d03954e00f64f9f4a043e" target="_top" xlink:title="Set Less Than Immediate.">
<polygon fill="white" stroke="black" points="164.5,-121.85 164.5,-151.85 280.5,-151.85 280.5,-121.85 164.5,-121.85"/>
<text text-anchor="start" x="172.5" y="-139.85" font-family="Helvetica,sans-Serif" font-size="10.00">emulation::emulator</text>
<text text-anchor="middle" x="222.5" y="-128.85" font-family="Helvetica,sans-Serif" font-size="10.00">::slti_</text>
</a>
</g>
</g>
<!-- Node1&#45;&gt;Node31 -->
<g id="edge35" class="edge">
<title>Node1&#45;&gt;Node31</title>
<path fill="none" stroke="midnightblue" d="M58.85,-868.67C58.25,-774.91 59.44,-274.59 152,-160.85 153.3,-159.25 154.71,-157.76 156.21,-156.37"/>
<polygon fill="midnightblue" stroke="midnightblue" points="158.53,-159.01 164.42,-150.2 154.32,-153.41 158.53,-159.01"/>
</g>
<!-- Node32 -->
<g id="node32" class="node">
<title>Node32</title>
<g id="a_node32"><a xlink:href="structemulation_1_1emulator.html#a09c3d0223377df323d794fb6469f505f" target="_top" xlink:title="Set Less Than Immediate Unsigned.">
<polygon fill="white" stroke="black" points="164.5,-786.85 164.5,-816.85 280.5,-816.85 280.5,-786.85 164.5,-786.85"/>
<text text-anchor="start" x="172.5" y="-804.85" font-family="Helvetica,sans-Serif" font-size="10.00">emulation::emulator</text>
<text text-anchor="middle" x="222.5" y="-793.85" font-family="Helvetica,sans-Serif" font-size="10.00">::sltiu_</text>
</a>
</g>
</g>
<!-- Node1&#45;&gt;Node32 -->
<g id="edge38" class="edge">
<title>Node1&#45;&gt;Node32</title>
<path fill="none" stroke="midnightblue" d="M80.83,-868.7C99.23,-856.36 126.56,-839.06 152,-826.85 156.39,-824.74 161.01,-822.7 165.7,-820.77"/>
<polygon fill="midnightblue" stroke="midnightblue" points="167.34,-823.88 175.34,-816.95 164.76,-817.38 167.34,-823.88"/>
</g>
<!-- Node33 -->
<g id="node33" class="node">
<title>Node33</title>
<g id="a_node33"><a xlink:href="structemulation_1_1emulator.html#ab486a312e602c2624e412c1e8a85c0e6" target="_top" xlink:title="Set Less Than Unsigned.">
<polygon fill="white" stroke="black" points="164.5,-366.85 164.5,-396.85 280.5,-396.85 280.5,-366.85 164.5,-366.85"/>
<text text-anchor="start" x="172.5" y="-384.85" font-family="Helvetica,sans-Serif" font-size="10.00">emulation::emulator</text>
<text text-anchor="middle" x="222.5" y="-373.85" font-family="Helvetica,sans-Serif" font-size="10.00">::sltu_</text>
</a>
</g>
</g>
<!-- Node1&#45;&gt;Node33 -->
<g id="edge40" class="edge">
<title>Node1&#45;&gt;Node33</title>
<path fill="none" stroke="midnightblue" d="M59.95,-868.66C64.84,-795.28 89.35,-477.97 152,-405.85 153.32,-404.33 154.74,-402.91 156.24,-401.57"/>
<polygon fill="midnightblue" stroke="midnightblue" points="158.36,-404.36 164.37,-395.64 154.23,-398.71 158.36,-404.36"/>
</g>
<!-- Node34 -->
<g id="node34" class="node">
<title>Node34</title>
<g id="a_node34"><a xlink:href="structemulation_1_1emulator.html#a3b257244f24a84e3ba92de8c3e9dabc3" target="_top" xlink:title="Shift Right Arithmetic.">
<polygon fill="white" stroke="black" points="164.5,-317.85 164.5,-347.85 280.5,-347.85 280.5,-317.85 164.5,-317.85"/>
<text text-anchor="start" x="172.5" y="-335.85" font-family="Helvetica,sans-Serif" font-size="10.00">emulation::emulator</text>
<text text-anchor="middle" x="222.5" y="-324.85" font-family="Helvetica,sans-Serif" font-size="10.00">::sra_</text>
</a>
</g>
</g>
<!-- Node1&#45;&gt;Node34 -->
<g id="edge41" class="edge">
<title>Node1&#45;&gt;Node34</title>
<path fill="none" stroke="midnightblue" d="M59.65,-868.69C63.28,-790.94 83.4,-437.23 152,-356.85 153.31,-355.32 154.71,-353.88 156.21,-352.54"/>
<polygon fill="midnightblue" stroke="midnightblue" points="158.33,-355.33 164.29,-346.57 154.17,-349.7 158.33,-355.33"/>
</g>
<!-- Node35 -->
<g id="node35" class="node">
<title>Node35</title>
<g id="a_node35"><a xlink:href="structemulation_1_1emulator.html#ae9ad43623e2e527febca0438000dd5a1" target="_top" xlink:title="Shift Right Arithmetic Immediate.">
<polygon fill="white" stroke="black" points="164.5,-268.85 164.5,-298.85 280.5,-298.85 280.5,-268.85 164.5,-268.85"/>
<text text-anchor="start" x="172.5" y="-286.85" font-family="Helvetica,sans-Serif" font-size="10.00">emulation::emulator</text>
<text text-anchor="middle" x="222.5" y="-275.85" font-family="Helvetica,sans-Serif" font-size="10.00">::srai_</text>
</a>
</g>
</g>
<!-- Node1&#45;&gt;Node35 -->
<g id="edge42" class="edge">
<title>Node1&#45;&gt;Node35</title>
<path fill="none" stroke="midnightblue" d="M59.4,-868.67C61.87,-786.63 77.44,-396.52 152,-307.85 153.29,-306.31 154.69,-304.87 156.18,-303.52"/>
<polygon fill="midnightblue" stroke="midnightblue" points="158.3,-306.3 164.23,-297.52 154.12,-300.69 158.3,-306.3"/>
</g>
<!-- Node36 -->
<g id="node36" class="node">
<title>Node36</title>
<g id="a_node36"><a xlink:href="structemulation_1_1emulator.html#a93c748284decb2fec6aceda4e2937cc0" target="_top" xlink:title="Shift Right Logical.">
<polygon fill="white" stroke="black" points="164.5,-219.85 164.5,-249.85 280.5,-249.85 280.5,-219.85 164.5,-219.85"/>
<text text-anchor="start" x="172.5" y="-237.85" font-family="Helvetica,sans-Serif" font-size="10.00">emulation::emulator</text>
<text text-anchor="middle" x="222.5" y="-226.85" font-family="Helvetica,sans-Serif" font-size="10.00">::srl_</text>
</a>
</g>
</g>
<!-- Node1&#45;&gt;Node36 -->
<g id="edge43" class="edge">
<title>Node1&#45;&gt;Node36</title>
<path fill="none" stroke="midnightblue" d="M59.19,-868.82C60.56,-783.05 71.4,-355.9 152,-258.85 153.28,-257.3 154.67,-255.85 156.15,-254.5"/>
<polygon fill="midnightblue" stroke="midnightblue" points="158.28,-257.28 164.18,-248.47 154.08,-251.68 158.28,-257.28"/>
</g>
<!-- Node37 -->
<g id="node37" class="node">
<title>Node37</title>
<g id="a_node37"><a xlink:href="structemulation_1_1emulator.html#af10ab73aa03331f48b481015703d3934" target="_top" xlink:title=" ">
<polygon fill="white" stroke="black" points="164.5,-170.85 164.5,-200.85 280.5,-200.85 280.5,-170.85 164.5,-170.85"/>
<text text-anchor="start" x="172.5" y="-188.85" font-family="Helvetica,sans-Serif" font-size="10.00">emulation::emulator</text>
<text text-anchor="middle" x="222.5" y="-177.85" font-family="Helvetica,sans-Serif" font-size="10.00">::srli_</text>
</a>
</g>
</g>
<!-- Node1&#45;&gt;Node37 -->
<g id="edge44" class="edge">
<title>Node1&#45;&gt;Node37</title>
<path fill="none" stroke="midnightblue" d="M59.01,-868.83C59.36,-779.22 65.4,-315.27 152,-209.85 153.31,-208.26 154.72,-206.77 156.23,-205.38"/>
<polygon fill="midnightblue" stroke="midnightblue" points="158.55,-208.02 164.46,-199.23 154.35,-202.42 158.55,-208.02"/>
</g>
<!-- Node38 -->
<g id="node38" class="node">
<title>Node38</title>
<g id="a_node38"><a xlink:href="structemulation_1_1emulator.html#af3cce7c55fd0ee41bb0ab47bb9c65b1f" target="_top" xlink:title="SUBstract.">
<polygon fill="white" stroke="black" points="164.5,-1617.85 164.5,-1647.85 280.5,-1647.85 280.5,-1617.85 164.5,-1617.85"/>
<text text-anchor="start" x="172.5" y="-1635.85" font-family="Helvetica,sans-Serif" font-size="10.00">emulation::emulator</text>
<text text-anchor="middle" x="222.5" y="-1624.85" font-family="Helvetica,sans-Serif" font-size="10.00">::sub_</text>
</a>
</g>
</g>
<!-- Node1&#45;&gt;Node38 -->
<g id="edge45" class="edge">
<title>Node1&#45;&gt;Node38</title>
<path fill="none" stroke="midnightblue" d="M58.98,-899.15C59.16,-992.61 64.3,-1486.51 152,-1602.85 154.58,-1606.27 157.63,-1609.31 160.99,-1612"/>
<polygon fill="midnightblue" stroke="midnightblue" points="159.09,-1614.94 169.32,-1617.69 163.04,-1609.16 159.09,-1614.94"/>
</g>
<!-- Node39 -->
<g id="node39" class="node">
<title>Node39</title>
<g id="a_node39"><a xlink:href="structemulation_1_1emulator.html#a819f4113c284bea6ef092908fe12dc5f" target="_top" xlink:title="Store Word.">
<polygon fill="white" stroke="black" points="152,-83.35 152,-102.35 293,-102.35 293,-83.35 152,-83.35"/>
<text text-anchor="middle" x="222.5" y="-90.35" font-family="Helvetica,sans-Serif" font-size="10.00">emulation::emulator::sw_</text>
</a>
</g>
</g>
<!-- Node1&#45;&gt;Node39 -->
<g id="edge47" class="edge">
<title>Node1&#45;&gt;Node39</title>
<path fill="none" stroke="midnightblue" d="M59.82,-868.72C65.5,-765.87 100.46,-171.57 152,-111.85 153.02,-110.66 154.11,-109.55 155.25,-108.5"/>
<polygon fill="midnightblue" stroke="midnightblue" points="157.49,-111.2 163.54,-102.51 153.39,-105.53 157.49,-111.2"/>
</g>
<!-- Node40 -->
<g id="node40" class="node">
<title>Node40</title>
<g id="a_node40"><a xlink:href="structemulation_1_1emulator.html#ad45c36e806a78195f34d15908370cdf6" target="_top" xlink:title="eXclusive OR.">
<polygon fill="white" stroke="black" points="164.5,-33.85 164.5,-63.85 280.5,-63.85 280.5,-33.85 164.5,-33.85"/>
<text text-anchor="start" x="172.5" y="-51.85" font-family="Helvetica,sans-Serif" font-size="10.00">emulation::emulator</text>
<text text-anchor="middle" x="222.5" y="-40.85" font-family="Helvetica,sans-Serif" font-size="10.00">::xor_</text>
</a>
</g>
</g>
<!-- Node1&#45;&gt;Node40 -->
<g id="edge48" class="edge">
<title>Node1&#45;&gt;Node40</title>
<path fill="none" stroke="midnightblue" d="M59.79,-868.71C65.39,-763.1 100.53,-138.83 152,-73.85 153.28,-72.23 154.68,-70.71 156.17,-69.29"/>
<polygon fill="midnightblue" stroke="midnightblue" points="158.56,-71.87 164.33,-62.99 154.28,-66.33 158.56,-71.87"/>
</g>
<!-- Node41 -->
<g id="node41" class="node">
<title>Node41</title>
<g id="a_node41"><a xlink:href="structemulation_1_1emulator.html#a82c92b91f16ebb65040ce0b5da4b9d4e" target="_top" xlink:title="eXclusive OR Immediate.">
<polygon fill="white" stroke="black" points="164.5,-464.85 164.5,-494.85 280.5,-494.85 280.5,-464.85 164.5,-464.85"/>
<text text-anchor="start" x="172.5" y="-482.85" font-family="Helvetica,sans-Serif" font-size="10.00">emulation::emulator</text>
<text text-anchor="middle" x="222.5" y="-471.85" font-family="Helvetica,sans-Serif" font-size="10.00">::xori_</text>
</a>
</g>
</g>
<!-- Node1&#45;&gt;Node41 -->
<g id="edge49" class="edge">
<title>Node1&#45;&gt;Node41</title>
<path fill="none" stroke="midnightblue" d="M60.8,-868.47C68.57,-804.41 101.21,-559.56 152,-503.85 153.21,-502.52 154.5,-501.26 155.86,-500.07"/>
<polygon fill="midnightblue" stroke="midnightblue" points="158.19,-502.71 164.24,-494.01 154.08,-497.04 158.19,-502.71"/>
</g>
<!-- Node3&#45;&gt;Node2 -->
<g id="edge3" class="edge">
<title>Node3&#45;&gt;Node2</title>
<path fill="none" stroke="midnightblue" d="M280.63,-1265.14C285.19,-1267.83 289.41,-1271.04 293,-1274.85 383.84,-1371.2 393.63,-1543 393.93,-1607.47"/>
<polygon fill="midnightblue" stroke="midnightblue" points="390.43,-1607.54 393.9,-1617.55 397.43,-1607.56 390.43,-1607.54"/>
</g>
<!-- Node4 -->
<g id="node4" class="node">
<title>Node4</title>
<g id="a_node4"><a xlink:href="namespaceemulation.html#a0e3cd88b9aeee3fe41402b7dd019cfba" target="_top" xlink:title=" ">
<polygon fill="white" stroke="black" points="329,-494.35 329,-513.35 460,-513.35 460,-494.35 329,-494.35"/>
<text text-anchor="middle" x="394.5" y="-501.35" font-family="Helvetica,sans-Serif" font-size="10.00">emulation::sign_extend</text>
</a>
</g>
</g>
<!-- Node3&#45;&gt;Node4 -->
<g id="edge4" class="edge">
<title>Node3&#45;&gt;Node4</title>
<path fill="none" stroke="midnightblue" d="M280.56,-1236.62C285.26,-1233.68 289.52,-1230.13 293,-1225.85 383.91,-1113.86 392.61,-628.84 393.42,-523.91"/>
<polygon fill="midnightblue" stroke="midnightblue" points="396.92,-523.77 393.48,-513.75 389.92,-523.73 396.92,-523.77"/>
</g>
<!-- Node6&#45;&gt;Node4 -->
<g id="edge7" class="edge">
<title>Node6&#45;&gt;Node4</title>
<path fill="none" stroke="midnightblue" d="M280.58,-520.45C292.83,-518.65 305.96,-516.72 318.77,-514.84"/>
<polygon fill="midnightblue" stroke="midnightblue" points="319.57,-518.26 328.95,-513.34 318.55,-511.33 319.57,-518.26"/>
</g>
<!-- Node7&#45;&gt;Node2 -->
<g id="edge9" class="edge">
<title>Node7&#45;&gt;Node2</title>
<path fill="none" stroke="midnightblue" d="M276.99,-1764.84C282.62,-1762.26 288.08,-1759.28 293,-1755.85 331.2,-1729.2 362.74,-1684.17 379.78,-1656.62"/>
<polygon fill="midnightblue" stroke="midnightblue" points="382.82,-1658.36 384.99,-1647.99 376.83,-1654.74 382.82,-1658.36"/>
</g>
<!-- Node14&#45;&gt;Node2 -->
<g id="edge17" class="edge">
<title>Node14&#45;&gt;Node2</title>
<path fill="none" stroke="midnightblue" d="M273.26,-1715.73C280.03,-1713.08 286.78,-1710.11 293,-1706.85 320.7,-1692.3 349.12,-1670.63 368.64,-1654.49"/>
<polygon fill="midnightblue" stroke="midnightblue" points="371.02,-1657.06 376.43,-1647.95 366.52,-1651.7 371.02,-1657.06"/>
</g>
<!-- Node24&#45;&gt;Node4 -->
<g id="edge28" class="edge">
<title>Node24&#45;&gt;Node4</title>
<path fill="none" stroke="midnightblue" d="M269.78,-445.95C277.59,-448.75 285.57,-451.77 293,-454.85 318.43,-465.39 346.52,-479.29 366.52,-489.59"/>
<polygon fill="midnightblue" stroke="midnightblue" points="365.16,-492.82 375.65,-494.32 368.38,-486.61 365.16,-492.82"/>
</g>
<!-- Node31&#45;&gt;Node4 -->
<g id="edge36" class="edge">
<title>Node31&#45;&gt;Node4</title>
<path fill="none" stroke="midnightblue" d="M280.58,-151.18C285.15,-153.87 289.39,-157.06 293,-160.85 382.94,-255.16 392.95,-425.59 393.64,-483.76"/>
<polygon fill="midnightblue" stroke="midnightblue" points="390.14,-484.14 393.68,-494.12 397.14,-484.11 390.14,-484.14"/>
</g>
<!-- Node31&#45;&gt;Node30 -->
<g id="edge37" class="edge">
<title>Node31&#45;&gt;Node30</title>
<path fill="none" stroke="midnightblue" d="M266.24,-121.79C275.11,-118.58 284.38,-115.15 293,-111.85 311.11,-104.9 330.91,-96.91 348.1,-89.84"/>
<polygon fill="midnightblue" stroke="midnightblue" points="349.45,-93.07 357.36,-86.02 346.78,-86.6 349.45,-93.07"/>
</g>
<!-- Node32&#45;&gt;Node4 -->
<g id="edge39" class="edge">
<title>Node32&#45;&gt;Node4</title>
<path fill="none" stroke="midnightblue" d="M279.65,-786.79C284.53,-784.02 289.09,-780.73 293,-776.85 366.49,-703.9 386.73,-572.69 391.87,-523.33"/>
<polygon fill="midnightblue" stroke="midnightblue" points="395.36,-523.64 392.82,-513.35 388.39,-522.98 395.36,-523.64"/>
</g>
<!-- Node38&#45;&gt;Node2 -->
<g id="edge46" class="edge">
<title>Node38&#45;&gt;Node2</title>
<path fill="none" stroke="midnightblue" d="M280.58,-1632.85C295.16,-1632.85 310.97,-1632.85 326.01,-1632.85"/>
<polygon fill="midnightblue" stroke="midnightblue" points="326.28,-1636.35 336.28,-1632.85 326.28,-1629.35 326.28,-1636.35"/>
</g>
<!-- Node41&#45;&gt;Node4 -->
<g id="edge50" class="edge">
<title>Node41&#45;&gt;Node4</title>
<path fill="none" stroke="midnightblue" d="M280.58,-487.9C292.83,-489.63 305.96,-491.49 318.77,-493.3"/>
<polygon fill="midnightblue" stroke="midnightblue" points="318.56,-496.8 328.95,-494.73 319.54,-489.87 318.56,-496.8"/>
</g>
</g>
</svg>
